<?xml version="1.0" encoding="utf-8" standalone="no"?>
<!DOCTYPE svg PUBLIC "-//W3C//DTD SVG 1.1//EN"
  "http://www.w3.org/Graphics/SVG/1.1/DTD/svg11.dtd">
<!-- Created with matplotlib (http://matplotlib.org/) -->
<svg height="314pt" version="1.1" viewBox="0 0 410 314" width="410pt" xmlns="http://www.w3.org/2000/svg" xmlns:xlink="http://www.w3.org/1999/xlink">
 <defs>
  <style type="text/css">
*{stroke-linecap:butt;stroke-linejoin:round;}
  </style>
 </defs>
 <g id="figure_1">
  <g id="patch_1">
   <path d="M 0 314.36825 
L 410.440313 314.36825 
L 410.440313 0 
L 0 0 
z
" style="fill:#ffffff;"/>
  </g>
  <g id="axes_1">
   <g id="patch_2">
    <path d="M 42.620313 88.968235 
L 399.740313 88.968235 
L 399.740313 10.7 
L 42.620313 10.7 
z
" style="fill:#ffffff;"/>
   </g>
   <g id="matplotlib.axis_1">
    <g id="xtick_1">
     <g id="line2d_1">
      <defs>
       <path d="M 0 0 
L 0 3.5 
" id="mdd8362c2d5" style="stroke:#000000;stroke-width:0.8;"/>
      </defs>
      <g>
       <use style="stroke:#000000;stroke-width:0.8;" x="58.85304" xlink:href="#mdd8362c2d5" y="88.968235"/>
      </g>
     </g>
     <g id="text_1">
      <!-- 0 -->
      <defs>
       <path d="M 31.78125 66.40625 
Q 24.171875 66.40625 20.328125 58.90625 
Q 16.5 51.421875 16.5 36.375 
Q 16.5 21.390625 20.328125 13.890625 
Q 24.171875 6.390625 31.78125 6.390625 
Q 39.453125 6.390625 43.28125 13.890625 
Q 47.125 21.390625 47.125 36.375 
Q 47.125 51.421875 43.28125 58.90625 
Q 39.453125 66.40625 31.78125 66.40625 
z
M 31.78125 74.21875 
Q 44.046875 74.21875 50.515625 64.515625 
Q 56.984375 54.828125 56.984375 36.375 
Q 56.984375 17.96875 50.515625 8.265625 
Q 44.046875 -1.421875 31.78125 -1.421875 
Q 19.53125 -1.421875 13.0625 8.265625 
Q 6.59375 17.96875 6.59375 36.375 
Q 6.59375 54.828125 13.0625 64.515625 
Q 19.53125 74.21875 31.78125 74.21875 
z
" id="DejaVuSans-30"/>
      </defs>
      <g transform="translate(55.67179 103.566673)scale(0.1 -0.1)">
       <use xlink:href="#DejaVuSans-30"/>
      </g>
     </g>
    </g>
    <g id="xtick_2">
     <g id="line2d_2">
      <g>
       <use style="stroke:#000000;stroke-width:0.8;" x="124.439817" xlink:href="#mdd8362c2d5" y="88.968235"/>
      </g>
     </g>
     <g id="text_2">
      <!-- 20 -->
      <defs>
       <path d="M 19.1875 8.296875 
L 53.609375 8.296875 
L 53.609375 0 
L 7.328125 0 
L 7.328125 8.296875 
Q 12.9375 14.109375 22.625 23.890625 
Q 32.328125 33.6875 34.8125 36.53125 
Q 39.546875 41.84375 41.421875 45.53125 
Q 43.3125 49.21875 43.3125 52.78125 
Q 43.3125 58.59375 39.234375 62.25 
Q 35.15625 65.921875 28.609375 65.921875 
Q 23.96875 65.921875 18.8125 64.3125 
Q 13.671875 62.703125 7.8125 59.421875 
L 7.8125 69.390625 
Q 13.765625 71.78125 18.9375 73 
Q 24.125 74.21875 28.421875 74.21875 
Q 39.75 74.21875 46.484375 68.546875 
Q 53.21875 62.890625 53.21875 53.421875 
Q 53.21875 48.921875 51.53125 44.890625 
Q 49.859375 40.875 45.40625 35.40625 
Q 44.1875 33.984375 37.640625 27.21875 
Q 31.109375 20.453125 19.1875 8.296875 
z
" id="DejaVuSans-32"/>
      </defs>
      <g transform="translate(118.077317 103.566673)scale(0.1 -0.1)">
       <use xlink:href="#DejaVuSans-32"/>
       <use x="63.623047" xlink:href="#DejaVuSans-30"/>
      </g>
     </g>
    </g>
    <g id="xtick_3">
     <g id="line2d_3">
      <g>
       <use style="stroke:#000000;stroke-width:0.8;" x="190.026593" xlink:href="#mdd8362c2d5" y="88.968235"/>
      </g>
     </g>
     <g id="text_3">
      <!-- 40 -->
      <defs>
       <path d="M 37.796875 64.3125 
L 12.890625 25.390625 
L 37.796875 25.390625 
z
M 35.203125 72.90625 
L 47.609375 72.90625 
L 47.609375 25.390625 
L 58.015625 25.390625 
L 58.015625 17.1875 
L 47.609375 17.1875 
L 47.609375 0 
L 37.796875 0 
L 37.796875 17.1875 
L 4.890625 17.1875 
L 4.890625 26.703125 
z
" id="DejaVuSans-34"/>
      </defs>
      <g transform="translate(183.664093 103.566673)scale(0.1 -0.1)">
       <use xlink:href="#DejaVuSans-34"/>
       <use x="63.623047" xlink:href="#DejaVuSans-30"/>
      </g>
     </g>
    </g>
    <g id="xtick_4">
     <g id="line2d_4">
      <g>
       <use style="stroke:#000000;stroke-width:0.8;" x="255.61337" xlink:href="#mdd8362c2d5" y="88.968235"/>
      </g>
     </g>
     <g id="text_4">
      <!-- 60 -->
      <defs>
       <path d="M 33.015625 40.375 
Q 26.375 40.375 22.484375 35.828125 
Q 18.609375 31.296875 18.609375 23.390625 
Q 18.609375 15.53125 22.484375 10.953125 
Q 26.375 6.390625 33.015625 6.390625 
Q 39.65625 6.390625 43.53125 10.953125 
Q 47.40625 15.53125 47.40625 23.390625 
Q 47.40625 31.296875 43.53125 35.828125 
Q 39.65625 40.375 33.015625 40.375 
z
M 52.59375 71.296875 
L 52.59375 62.3125 
Q 48.875 64.0625 45.09375 64.984375 
Q 41.3125 65.921875 37.59375 65.921875 
Q 27.828125 65.921875 22.671875 59.328125 
Q 17.53125 52.734375 16.796875 39.40625 
Q 19.671875 43.65625 24.015625 45.921875 
Q 28.375 48.1875 33.59375 48.1875 
Q 44.578125 48.1875 50.953125 41.515625 
Q 57.328125 34.859375 57.328125 23.390625 
Q 57.328125 12.15625 50.6875 5.359375 
Q 44.046875 -1.421875 33.015625 -1.421875 
Q 20.359375 -1.421875 13.671875 8.265625 
Q 6.984375 17.96875 6.984375 36.375 
Q 6.984375 53.65625 15.1875 63.9375 
Q 23.390625 74.21875 37.203125 74.21875 
Q 40.921875 74.21875 44.703125 73.484375 
Q 48.484375 72.75 52.59375 71.296875 
z
" id="DejaVuSans-36"/>
      </defs>
      <g transform="translate(249.25087 103.566673)scale(0.1 -0.1)">
       <use xlink:href="#DejaVuSans-36"/>
       <use x="63.623047" xlink:href="#DejaVuSans-30"/>
      </g>
     </g>
    </g>
    <g id="xtick_5">
     <g id="line2d_5">
      <g>
       <use style="stroke:#000000;stroke-width:0.8;" x="321.200147" xlink:href="#mdd8362c2d5" y="88.968235"/>
      </g>
     </g>
     <g id="text_5">
      <!-- 80 -->
      <defs>
       <path d="M 31.78125 34.625 
Q 24.75 34.625 20.71875 30.859375 
Q 16.703125 27.09375 16.703125 20.515625 
Q 16.703125 13.921875 20.71875 10.15625 
Q 24.75 6.390625 31.78125 6.390625 
Q 38.8125 6.390625 42.859375 10.171875 
Q 46.921875 13.96875 46.921875 20.515625 
Q 46.921875 27.09375 42.890625 30.859375 
Q 38.875 34.625 31.78125 34.625 
z
M 21.921875 38.8125 
Q 15.578125 40.375 12.03125 44.71875 
Q 8.5 49.078125 8.5 55.328125 
Q 8.5 64.0625 14.71875 69.140625 
Q 20.953125 74.21875 31.78125 74.21875 
Q 42.671875 74.21875 48.875 69.140625 
Q 55.078125 64.0625 55.078125 55.328125 
Q 55.078125 49.078125 51.53125 44.71875 
Q 48 40.375 41.703125 38.8125 
Q 48.828125 37.15625 52.796875 32.3125 
Q 56.78125 27.484375 56.78125 20.515625 
Q 56.78125 9.90625 50.3125 4.234375 
Q 43.84375 -1.421875 31.78125 -1.421875 
Q 19.734375 -1.421875 13.25 4.234375 
Q 6.78125 9.90625 6.78125 20.515625 
Q 6.78125 27.484375 10.78125 32.3125 
Q 14.796875 37.15625 21.921875 38.8125 
z
M 18.3125 54.390625 
Q 18.3125 48.734375 21.84375 45.5625 
Q 25.390625 42.390625 31.78125 42.390625 
Q 38.140625 42.390625 41.71875 45.5625 
Q 45.3125 48.734375 45.3125 54.390625 
Q 45.3125 60.0625 41.71875 63.234375 
Q 38.140625 66.40625 31.78125 66.40625 
Q 25.390625 66.40625 21.84375 63.234375 
Q 18.3125 60.0625 18.3125 54.390625 
z
" id="DejaVuSans-38"/>
      </defs>
      <g transform="translate(314.837647 103.566673)scale(0.1 -0.1)">
       <use xlink:href="#DejaVuSans-38"/>
       <use x="63.623047" xlink:href="#DejaVuSans-30"/>
      </g>
     </g>
    </g>
    <g id="xtick_6">
     <g id="line2d_6">
      <g>
       <use style="stroke:#000000;stroke-width:0.8;" x="386.786924" xlink:href="#mdd8362c2d5" y="88.968235"/>
      </g>
     </g>
     <g id="text_6">
      <!-- 100 -->
      <defs>
       <path d="M 12.40625 8.296875 
L 28.515625 8.296875 
L 28.515625 63.921875 
L 10.984375 60.40625 
L 10.984375 69.390625 
L 28.421875 72.90625 
L 38.28125 72.90625 
L 38.28125 8.296875 
L 54.390625 8.296875 
L 54.390625 0 
L 12.40625 0 
z
" id="DejaVuSans-31"/>
      </defs>
      <g transform="translate(377.243174 103.566673)scale(0.1 -0.1)">
       <use xlink:href="#DejaVuSans-31"/>
       <use x="63.623047" xlink:href="#DejaVuSans-30"/>
       <use x="127.246094" xlink:href="#DejaVuSans-30"/>
      </g>
     </g>
    </g>
    <g id="text_7">
     <!-- Time -->
     <defs>
      <path d="M -0.296875 72.90625 
L 61.375 72.90625 
L 61.375 64.59375 
L 35.5 64.59375 
L 35.5 0 
L 25.59375 0 
L 25.59375 64.59375 
L -0.296875 64.59375 
z
" id="DejaVuSans-54"/>
      <path d="M 9.421875 54.6875 
L 18.40625 54.6875 
L 18.40625 0 
L 9.421875 0 
z
M 9.421875 75.984375 
L 18.40625 75.984375 
L 18.40625 64.59375 
L 9.421875 64.59375 
z
" id="DejaVuSans-69"/>
      <path d="M 52 44.1875 
Q 55.375 50.25 60.0625 53.125 
Q 64.75 56 71.09375 56 
Q 79.640625 56 84.28125 50.015625 
Q 88.921875 44.046875 88.921875 33.015625 
L 88.921875 0 
L 79.890625 0 
L 79.890625 32.71875 
Q 79.890625 40.578125 77.09375 44.375 
Q 74.3125 48.1875 68.609375 48.1875 
Q 61.625 48.1875 57.5625 43.546875 
Q 53.515625 38.921875 53.515625 30.90625 
L 53.515625 0 
L 44.484375 0 
L 44.484375 32.71875 
Q 44.484375 40.625 41.703125 44.40625 
Q 38.921875 48.1875 33.109375 48.1875 
Q 26.21875 48.1875 22.15625 43.53125 
Q 18.109375 38.875 18.109375 30.90625 
L 18.109375 0 
L 9.078125 0 
L 9.078125 54.6875 
L 18.109375 54.6875 
L 18.109375 46.1875 
Q 21.1875 51.21875 25.484375 53.609375 
Q 29.78125 56 35.6875 56 
Q 41.65625 56 45.828125 52.96875 
Q 50 49.953125 52 44.1875 
z
" id="DejaVuSans-6d"/>
      <path d="M 56.203125 29.59375 
L 56.203125 25.203125 
L 14.890625 25.203125 
Q 15.484375 15.921875 20.484375 11.0625 
Q 25.484375 6.203125 34.421875 6.203125 
Q 39.59375 6.203125 44.453125 7.46875 
Q 49.3125 8.734375 54.109375 11.28125 
L 54.109375 2.78125 
Q 49.265625 0.734375 44.1875 -0.34375 
Q 39.109375 -1.421875 33.890625 -1.421875 
Q 20.796875 -1.421875 13.15625 6.1875 
Q 5.515625 13.8125 5.515625 26.8125 
Q 5.515625 40.234375 12.765625 48.109375 
Q 20.015625 56 32.328125 56 
Q 43.359375 56 49.78125 48.890625 
Q 56.203125 41.796875 56.203125 29.59375 
z
M 47.21875 32.234375 
Q 47.125 39.59375 43.09375 43.984375 
Q 39.0625 48.390625 32.421875 48.390625 
Q 24.90625 48.390625 20.390625 44.140625 
Q 15.875 39.890625 15.1875 32.171875 
z
" id="DejaVuSans-65"/>
     </defs>
     <g transform="translate(208.792813 117.244798)scale(0.1 -0.1)">
      <use xlink:href="#DejaVuSans-54"/>
      <use x="61.037109" xlink:href="#DejaVuSans-69"/>
      <use x="88.820312" xlink:href="#DejaVuSans-6d"/>
      <use x="186.232422" xlink:href="#DejaVuSans-65"/>
     </g>
    </g>
   </g>
   <g id="matplotlib.axis_2">
    <g id="ytick_1">
     <g id="line2d_7">
      <defs>
       <path d="M 0 0 
L -3.5 0 
" id="m7a52f03842" style="stroke:#000000;stroke-width:0.8;"/>
      </defs>
      <g>
       <use style="stroke:#000000;stroke-width:0.8;" x="42.620313" xlink:href="#m7a52f03842" y="85.255662"/>
      </g>
     </g>
     <g id="text_8">
      <!-- −1 -->
      <defs>
       <path d="M 10.59375 35.5 
L 73.1875 35.5 
L 73.1875 27.203125 
L 10.59375 27.203125 
z
" id="DejaVuSans-2212"/>
      </defs>
      <g transform="translate(20.878125 89.054881)scale(0.1 -0.1)">
       <use xlink:href="#DejaVuSans-2212"/>
       <use x="83.789062" xlink:href="#DejaVuSans-31"/>
      </g>
     </g>
    </g>
    <g id="ytick_2">
     <g id="line2d_8">
      <g>
       <use style="stroke:#000000;stroke-width:0.8;" x="42.620313" xlink:href="#m7a52f03842" y="45.242854"/>
      </g>
     </g>
     <g id="text_9">
      <!-- 0 -->
      <g transform="translate(29.257813 49.042073)scale(0.1 -0.1)">
       <use xlink:href="#DejaVuSans-30"/>
      </g>
     </g>
    </g>
    <g id="text_10">
     <!-- x -->
     <defs>
      <path d="M 54.890625 54.6875 
L 35.109375 28.078125 
L 55.90625 0 
L 45.3125 0 
L 29.390625 21.484375 
L 13.484375 0 
L 2.875 0 
L 24.125 28.609375 
L 4.6875 54.6875 
L 15.28125 54.6875 
L 29.78125 35.203125 
L 44.28125 54.6875 
z
" id="DejaVuSans-78"/>
     </defs>
     <g transform="translate(14.798438 52.793493)rotate(-90)scale(0.1 -0.1)">
      <use xlink:href="#DejaVuSans-78"/>
     </g>
    </g>
   </g>
   <g id="line2d_9">
    <path clip-path="url(#p8bb3d8f693)" d="M 58.85304 45.242854 
L 62.132379 44.357961 
L 65.411717 42.906193 
L 68.691056 41.406969 
L 71.970395 39.697876 
L 75.249734 38.158191 
L 78.529073 36.960174 
L 81.808412 35.723578 
L 85.087751 34.296815 
L 88.367089 32.70739 
L 91.646428 31.269809 
L 94.925767 29.955845 
L 98.205106 28.853522 
L 101.484445 28.264687 
L 104.763784 27.826658 
L 108.043122 26.893189 
L 111.322461 26.115409 
L 114.6018 25.374549 
L 117.881139 24.4303 
L 121.160478 23.403436 
L 124.439817 22.724927 
L 127.719155 21.806512 
L 130.998494 21.144679 
L 134.277833 20.637849 
L 137.557172 20.328378 
L 140.836511 20.487006 
L 144.11585 20.731568 
L 147.395189 21.10755 
L 150.674527 21.733246 
L 153.953866 22.484105 
L 157.233205 22.946556 
L 160.512544 23.519478 
L 163.791883 24.340053 
L 167.071222 25.384508 
L 170.35056 26.40042 
L 173.629899 27.212181 
L 176.909238 27.909731 
L 180.188577 28.780981 
L 183.467916 29.832877 
L 186.747255 30.916522 
L 190.026593 32.326504 
L 193.305932 33.647575 
L 196.585271 35.018253 
L 199.86461 36.695654 
L 203.143949 38.350618 
L 206.423288 40.033286 
L 209.702627 41.799904 
L 212.981965 43.706031 
L 216.261304 45.588424 
L 219.540643 47.122042 
L 222.819982 48.568809 
L 226.099321 50.347485 
L 229.37866 52.310165 
L 232.657998 53.979934 
L 235.937337 55.838974 
L 239.216676 57.44021 
L 242.496015 58.744567 
L 245.775354 60.08197 
L 249.054693 61.327944 
L 252.334032 62.797912 
L 255.61337 63.957417 
L 258.892709 64.500651 
L 262.172048 64.940703 
L 265.451387 65.576893 
L 268.730726 66.407771 
L 272.010065 66.887661 
L 275.289403 67.325042 
L 278.568742 67.979701 
L 281.848081 68.542014 
L 285.12742 69.114479 
L 288.406759 69.662902 
L 291.686098 70.170038 
L 294.965436 70.789819 
L 298.244775 71.453102 
L 301.524114 72.016637 
L 304.803453 72.694344 
L 308.082792 73.38411 
L 311.362131 73.963748 
L 314.64147 74.415171 
L 317.920808 74.87186 
L 321.200147 75.364801 
L 324.479486 76.029992 
L 327.758825 76.68114 
L 331.038164 77.158664 
L 334.317503 77.540332 
L 337.596841 77.931922 
L 340.87618 78.526442 
L 344.155519 79.178964 
L 347.434858 79.673507 
L 350.714197 79.974125 
L 353.993536 80.227731 
L 357.272874 80.777834 
L 360.552213 81.435317 
L 363.831552 82.166523 
L 367.110891 82.804316 
L 370.39023 83.331142 
L 373.669569 83.823471 
L 376.948908 84.342589 
L 380.228246 84.908413 
L 383.507585 85.410588 
" style="fill:none;stroke:#ff0000;stroke-linecap:square;stroke-width:1.5;"/>
    <defs>
     <path d="M 0 2.5 
C 0.663008 2.5 1.29895 2.236584 1.767767 1.767767 
C 2.236584 1.29895 2.5 0.663008 2.5 0 
C 2.5 -0.663008 2.236584 -1.29895 1.767767 -1.767767 
C 1.29895 -2.236584 0.663008 -2.5 0 -2.5 
C -0.663008 -2.5 -1.29895 -2.236584 -1.767767 -1.767767 
C -2.236584 -1.29895 -2.5 -0.663008 -2.5 0 
C -2.5 0.663008 -2.236584 1.29895 -1.767767 1.767767 
C -1.29895 2.236584 -0.663008 2.5 0 2.5 
z
" id="m8c5566509c" style="stroke:#ff0000;"/>
    </defs>
    <g clip-path="url(#p8bb3d8f693)">
     <use style="fill:#ff0000;stroke:#ff0000;" x="58.85304" xlink:href="#m8c5566509c" y="45.242854"/>
     <use style="fill:#ff0000;stroke:#ff0000;" x="91.646428" xlink:href="#m8c5566509c" y="31.269809"/>
     <use style="fill:#ff0000;stroke:#ff0000;" x="124.439817" xlink:href="#m8c5566509c" y="22.724927"/>
     <use style="fill:#ff0000;stroke:#ff0000;" x="157.233205" xlink:href="#m8c5566509c" y="22.946556"/>
     <use style="fill:#ff0000;stroke:#ff0000;" x="190.026593" xlink:href="#m8c5566509c" y="32.326504"/>
     <use style="fill:#ff0000;stroke:#ff0000;" x="222.819982" xlink:href="#m8c5566509c" y="48.568809"/>
     <use style="fill:#ff0000;stroke:#ff0000;" x="255.61337" xlink:href="#m8c5566509c" y="63.957417"/>
     <use style="fill:#ff0000;stroke:#ff0000;" x="288.406759" xlink:href="#m8c5566509c" y="69.662902"/>
     <use style="fill:#ff0000;stroke:#ff0000;" x="321.200147" xlink:href="#m8c5566509c" y="75.364801"/>
     <use style="fill:#ff0000;stroke:#ff0000;" x="353.993536" xlink:href="#m8c5566509c" y="80.227731"/>
    </g>
   </g>
   <g id="line2d_10">
    <path clip-path="url(#p8bb3d8f693)" d="M 58.85304 45.242854 
L 62.132379 44.001782 
L 65.411717 41.984672 
L 68.691056 39.785412 
L 71.970395 37.680467 
L 75.249734 35.442665 
L 78.529073 33.721201 
L 81.808412 32.009808 
L 85.087751 30.255531 
L 88.367089 28.23479 
L 91.646428 26.534432 
L 94.925767 24.815717 
L 98.205106 23.38273 
L 101.484445 22.575539 
L 104.763784 21.881419 
L 108.043122 20.9083 
L 111.322461 19.883974 
L 114.6018 18.772086 
L 117.881139 17.809623 
L 121.160478 16.727138 
L 124.439817 15.878375 
L 127.719155 15.111437 
L 130.998494 14.450563 
L 134.277833 14.257647 
L 137.557172 14.461813 
L 140.836511 14.911669 
L 144.11585 15.506633 
L 147.395189 16.074621 
L 150.674527 16.643161 
L 153.953866 17.149443 
L 157.233205 17.889381 
L 160.512544 18.703841 
L 163.791883 19.542313 
L 167.071222 20.250783 
L 170.35056 21.081597 
L 173.629899 21.971171 
L 176.909238 22.841129 
L 180.188577 23.686775 
L 183.467916 24.634797 
L 186.747255 25.790082 
L 190.026593 26.929909 
L 193.305932 28.00909 
L 196.585271 29.320961 
L 199.86461 30.761729 
L 203.143949 32.231041 
L 206.423288 33.751837 
L 209.702627 35.564662 
L 212.981965 37.424558 
L 216.261304 39.342405 
L 219.540643 41.024138 
L 222.819982 42.725907 
L 226.099321 44.52159 
L 229.37866 46.176686 
L 232.657998 47.640876 
L 235.937337 49.16438 
L 239.216676 50.558007 
L 242.496015 51.920066 
L 245.775354 53.154521 
L 249.054693 54.576464 
L 252.334032 56.248698 
L 255.61337 57.805009 
L 258.892709 59.046586 
L 262.172048 59.97067 
L 265.451387 61.030369 
L 268.730726 62.253024 
L 272.010065 63.508973 
L 275.289403 64.510346 
L 278.568742 65.409157 
L 281.848081 66.163672 
L 285.12742 66.960466 
L 288.406759 67.613837 
L 291.686098 68.276985 
L 294.965436 69.040488 
L 298.244775 69.781673 
L 301.524114 70.467878 
L 304.803453 71.223375 
L 308.082792 71.973701 
L 311.362131 72.655305 
L 314.64147 73.282623 
L 317.920808 73.873909 
L 321.200147 74.364667 
L 324.479486 74.890895 
L 327.758825 75.395211 
L 331.038164 75.849468 
L 334.317503 76.175629 
L 337.596841 76.458619 
L 340.87618 76.776488 
L 344.155519 77.141426 
L 347.434858 77.404407 
L 350.714197 77.473792 
L 353.993536 77.487327 
L 357.272874 77.641936 
L 360.552213 77.879966 
L 363.831552 78.209055 
L 367.110891 78.400705 
L 370.39023 78.49638 
L 373.669569 78.628933 
L 376.948908 78.789578 
L 380.228246 78.996947 
L 383.507585 79.340556 
" style="fill:none;stroke:#0000ff;stroke-linecap:square;stroke-width:1.5;"/>
    <defs>
     <path d="M 0 2.5 
C 0.663008 2.5 1.29895 2.236584 1.767767 1.767767 
C 2.236584 1.29895 2.5 0.663008 2.5 0 
C 2.5 -0.663008 2.236584 -1.29895 1.767767 -1.767767 
C 1.29895 -2.236584 0.663008 -2.5 0 -2.5 
C -0.663008 -2.5 -1.29895 -2.236584 -1.767767 -1.767767 
C -2.236584 -1.29895 -2.5 -0.663008 -2.5 0 
C -2.5 0.663008 -2.236584 1.29895 -1.767767 1.767767 
C -1.29895 2.236584 -0.663008 2.5 0 2.5 
z
" id="mbf8b484886" style="stroke:#0000ff;"/>
    </defs>
    <g clip-path="url(#p8bb3d8f693)">
     <use style="fill:#0000ff;stroke:#0000ff;" x="58.85304" xlink:href="#mbf8b484886" y="45.242854"/>
     <use style="fill:#0000ff;stroke:#0000ff;" x="91.646428" xlink:href="#mbf8b484886" y="26.534432"/>
     <use style="fill:#0000ff;stroke:#0000ff;" x="124.439817" xlink:href="#mbf8b484886" y="15.878375"/>
     <use style="fill:#0000ff;stroke:#0000ff;" x="157.233205" xlink:href="#mbf8b484886" y="17.889381"/>
     <use style="fill:#0000ff;stroke:#0000ff;" x="190.026593" xlink:href="#mbf8b484886" y="26.929909"/>
     <use style="fill:#0000ff;stroke:#0000ff;" x="222.819982" xlink:href="#mbf8b484886" y="42.725907"/>
     <use style="fill:#0000ff;stroke:#0000ff;" x="255.61337" xlink:href="#mbf8b484886" y="57.805009"/>
     <use style="fill:#0000ff;stroke:#0000ff;" x="288.406759" xlink:href="#mbf8b484886" y="67.613837"/>
     <use style="fill:#0000ff;stroke:#0000ff;" x="321.200147" xlink:href="#mbf8b484886" y="74.364667"/>
     <use style="fill:#0000ff;stroke:#0000ff;" x="353.993536" xlink:href="#mbf8b484886" y="77.487327"/>
    </g>
   </g>
   <g id="patch_3">
    <path d="M 42.620313 88.968235 
L 42.620313 10.7 
" style="fill:none;stroke:#000000;stroke-linecap:square;stroke-linejoin:miter;stroke-width:0.8;"/>
   </g>
   <g id="patch_4">
    <path d="M 399.740313 88.968235 
L 399.740313 10.7 
" style="fill:none;stroke:#000000;stroke-linecap:square;stroke-linejoin:miter;stroke-width:0.8;"/>
   </g>
   <g id="patch_5">
    <path d="M 42.620313 88.968235 
L 399.740313 88.968235 
" style="fill:none;stroke:#000000;stroke-linecap:square;stroke-linejoin:miter;stroke-width:0.8;"/>
   </g>
   <g id="patch_6">
    <path d="M 42.620313 10.7 
L 399.740313 10.7 
" style="fill:none;stroke:#000000;stroke-linecap:square;stroke-linejoin:miter;stroke-width:0.8;"/>
   </g>
  </g>
  <g id="axes_2">
   <g id="patch_7">
    <path d="M 42.620313 182.890118 
L 399.740313 182.890118 
L 399.740313 104.621882 
L 42.620313 104.621882 
z
" style="fill:#ffffff;"/>
   </g>
   <g id="matplotlib.axis_3">
    <g id="xtick_7">
     <g id="line2d_11">
      <g>
       <use style="stroke:#000000;stroke-width:0.8;" x="58.85304" xlink:href="#mdd8362c2d5" y="182.890118"/>
      </g>
     </g>
     <g id="text_11">
      <!-- 0 -->
      <g transform="translate(55.67179 197.488555)scale(0.1 -0.1)">
       <use xlink:href="#DejaVuSans-30"/>
      </g>
     </g>
    </g>
    <g id="xtick_8">
     <g id="line2d_12">
      <g>
       <use style="stroke:#000000;stroke-width:0.8;" x="124.439817" xlink:href="#mdd8362c2d5" y="182.890118"/>
      </g>
     </g>
     <g id="text_12">
      <!-- 20 -->
      <g transform="translate(118.077317 197.488555)scale(0.1 -0.1)">
       <use xlink:href="#DejaVuSans-32"/>
       <use x="63.623047" xlink:href="#DejaVuSans-30"/>
      </g>
     </g>
    </g>
    <g id="xtick_9">
     <g id="line2d_13">
      <g>
       <use style="stroke:#000000;stroke-width:0.8;" x="190.026593" xlink:href="#mdd8362c2d5" y="182.890118"/>
      </g>
     </g>
     <g id="text_13">
      <!-- 40 -->
      <g transform="translate(183.664093 197.488555)scale(0.1 -0.1)">
       <use xlink:href="#DejaVuSans-34"/>
       <use x="63.623047" xlink:href="#DejaVuSans-30"/>
      </g>
     </g>
    </g>
    <g id="xtick_10">
     <g id="line2d_14">
      <g>
       <use style="stroke:#000000;stroke-width:0.8;" x="255.61337" xlink:href="#mdd8362c2d5" y="182.890118"/>
      </g>
     </g>
     <g id="text_14">
      <!-- 60 -->
      <g transform="translate(249.25087 197.488555)scale(0.1 -0.1)">
       <use xlink:href="#DejaVuSans-36"/>
       <use x="63.623047" xlink:href="#DejaVuSans-30"/>
      </g>
     </g>
    </g>
    <g id="xtick_11">
     <g id="line2d_15">
      <g>
       <use style="stroke:#000000;stroke-width:0.8;" x="321.200147" xlink:href="#mdd8362c2d5" y="182.890118"/>
      </g>
     </g>
     <g id="text_15">
      <!-- 80 -->
      <g transform="translate(314.837647 197.488555)scale(0.1 -0.1)">
       <use xlink:href="#DejaVuSans-38"/>
       <use x="63.623047" xlink:href="#DejaVuSans-30"/>
      </g>
     </g>
    </g>
    <g id="xtick_12">
     <g id="line2d_16">
      <g>
       <use style="stroke:#000000;stroke-width:0.8;" x="386.786924" xlink:href="#mdd8362c2d5" y="182.890118"/>
      </g>
     </g>
     <g id="text_16">
      <!-- 100 -->
      <g transform="translate(377.243174 197.488555)scale(0.1 -0.1)">
       <use xlink:href="#DejaVuSans-31"/>
       <use x="63.623047" xlink:href="#DejaVuSans-30"/>
       <use x="127.246094" xlink:href="#DejaVuSans-30"/>
      </g>
     </g>
    </g>
    <g id="text_17">
     <!-- Time -->
     <g transform="translate(208.792813 211.16668)scale(0.1 -0.1)">
      <use xlink:href="#DejaVuSans-54"/>
      <use x="61.037109" xlink:href="#DejaVuSans-69"/>
      <use x="88.820312" xlink:href="#DejaVuSans-6d"/>
      <use x="186.232422" xlink:href="#DejaVuSans-65"/>
     </g>
    </g>
   </g>
   <g id="matplotlib.axis_4">
    <g id="ytick_3">
     <g id="line2d_17">
      <g>
       <use style="stroke:#000000;stroke-width:0.8;" x="42.620313" xlink:href="#m7a52f03842" y="148.653828"/>
      </g>
     </g>
     <g id="text_18">
      <!-- −1 -->
      <g transform="translate(20.878125 152.453047)scale(0.1 -0.1)">
       <use xlink:href="#DejaVuSans-2212"/>
       <use x="83.789062" xlink:href="#DejaVuSans-31"/>
      </g>
     </g>
    </g>
    <g id="ytick_4">
     <g id="line2d_18">
      <g>
       <use style="stroke:#000000;stroke-width:0.8;" x="42.620313" xlink:href="#m7a52f03842" y="108.404922"/>
      </g>
     </g>
     <g id="text_19">
      <!-- 0 -->
      <g transform="translate(29.257813 112.204141)scale(0.1 -0.1)">
       <use xlink:href="#DejaVuSans-30"/>
      </g>
     </g>
    </g>
    <g id="text_20">
     <!-- y -->
     <defs>
      <path d="M 32.171875 -5.078125 
Q 28.375 -14.84375 24.75 -17.8125 
Q 21.140625 -20.796875 15.09375 -20.796875 
L 7.90625 -20.796875 
L 7.90625 -13.28125 
L 13.1875 -13.28125 
Q 16.890625 -13.28125 18.9375 -11.515625 
Q 21 -9.765625 23.484375 -3.21875 
L 25.09375 0.875 
L 2.984375 54.6875 
L 12.5 54.6875 
L 29.59375 11.921875 
L 46.6875 54.6875 
L 56.203125 54.6875 
z
" id="DejaVuSans-79"/>
     </defs>
     <g transform="translate(14.798438 146.715375)rotate(-90)scale(0.1 -0.1)">
      <use xlink:href="#DejaVuSans-79"/>
     </g>
    </g>
   </g>
   <g id="line2d_19">
    <path clip-path="url(#p5eb24dcf5f)" d="M 58.85304 108.404922 
L 62.132379 108.720368 
L 65.411717 108.81224 
L 68.691056 109.048428 
L 71.970395 109.019283 
L 75.249734 108.983764 
L 78.529073 108.941588 
L 81.808412 108.84357 
L 85.087751 108.652922 
L 88.367089 108.526192 
L 91.646428 108.646291 
L 94.925767 108.999991 
L 98.205106 109.702107 
L 101.484445 110.433323 
L 104.763784 111.40175 
L 108.043122 112.52086 
L 111.322461 113.712197 
L 114.6018 115.068055 
L 117.881139 116.057688 
L 121.160478 117.161881 
L 124.439817 118.04958 
L 127.719155 118.773948 
L 130.998494 119.521085 
L 134.277833 120.222115 
L 137.557172 120.88977 
L 140.836511 121.49374 
L 144.11585 122.080025 
L 147.395189 122.925702 
L 150.674527 123.979175 
L 153.953866 124.991533 
L 157.233205 125.604397 
L 160.512544 126.290637 
L 163.791883 127.28656 
L 167.071222 127.877297 
L 170.35056 128.139486 
L 173.629899 128.206393 
L 176.909238 128.464043 
L 180.188577 129.031133 
L 183.467916 129.686906 
L 186.747255 130.086998 
L 190.026593 130.324573 
L 193.305932 130.514232 
L 196.585271 130.721779 
L 199.86461 130.698216 
L 203.143949 130.732383 
L 206.423288 130.625041 
L 209.702627 130.538551 
L 212.981965 130.152741 
L 216.261304 130.233141 
L 219.540643 130.436199 
L 222.819982 130.579848 
L 226.099321 130.780445 
L 229.37866 131.056678 
L 232.657998 131.24893 
L 235.937337 131.608035 
L 239.216676 131.819763 
L 242.496015 132.174223 
L 245.775354 132.422503 
L 249.054693 132.557702 
L 252.334032 132.523147 
L 255.61337 132.225145 
L 258.892709 131.969625 
L 262.172048 132.019443 
L 265.451387 131.812408 
L 268.730726 131.769676 
L 272.010065 131.476622 
L 275.289403 131.550056 
L 278.568742 131.515207 
L 281.848081 131.21472 
L 285.12742 130.831064 
L 288.406759 130.71748 
L 291.686098 130.27927 
L 294.965436 129.927468 
L 298.244775 129.800569 
L 301.524114 129.513224 
L 304.803453 129.196467 
L 308.082792 128.8816 
L 311.362131 128.688205 
L 314.64147 128.657704 
L 317.920808 128.855791 
L 321.200147 129.065859 
L 324.479486 129.384723 
L 327.758825 129.436316 
L 331.038164 129.682446 
L 334.317503 129.898435 
L 337.596841 129.909701 
L 340.87618 129.781938 
L 344.155519 129.994568 
L 347.434858 130.314156 
L 350.714197 130.53133 
L 353.993536 130.546703 
L 357.272874 130.573318 
L 360.552213 130.271329 
L 363.831552 129.994904 
L 367.110891 130.098451 
L 370.39023 130.37702 
L 373.669569 130.692544 
L 376.948908 130.910548 
L 380.228246 130.920538 
L 383.507585 130.713939 
" style="fill:none;stroke:#ff0000;stroke-linecap:square;stroke-width:1.5;"/>
    <g clip-path="url(#p5eb24dcf5f)">
     <use style="fill:#ff0000;stroke:#ff0000;" x="58.85304" xlink:href="#m8c5566509c" y="108.404922"/>
     <use style="fill:#ff0000;stroke:#ff0000;" x="91.646428" xlink:href="#m8c5566509c" y="108.646291"/>
     <use style="fill:#ff0000;stroke:#ff0000;" x="124.439817" xlink:href="#m8c5566509c" y="118.04958"/>
     <use style="fill:#ff0000;stroke:#ff0000;" x="157.233205" xlink:href="#m8c5566509c" y="125.604397"/>
     <use style="fill:#ff0000;stroke:#ff0000;" x="190.026593" xlink:href="#m8c5566509c" y="130.324573"/>
     <use style="fill:#ff0000;stroke:#ff0000;" x="222.819982" xlink:href="#m8c5566509c" y="130.579848"/>
     <use style="fill:#ff0000;stroke:#ff0000;" x="255.61337" xlink:href="#m8c5566509c" y="132.225145"/>
     <use style="fill:#ff0000;stroke:#ff0000;" x="288.406759" xlink:href="#m8c5566509c" y="130.71748"/>
     <use style="fill:#ff0000;stroke:#ff0000;" x="321.200147" xlink:href="#m8c5566509c" y="129.065859"/>
     <use style="fill:#ff0000;stroke:#ff0000;" x="353.993536" xlink:href="#m8c5566509c" y="130.546703"/>
    </g>
   </g>
   <g id="line2d_20">
    <path clip-path="url(#p5eb24dcf5f)" d="M 58.85304 108.404922 
L 62.132379 108.917214 
L 65.411717 109.447757 
L 68.691056 109.400908 
L 71.970395 109.124557 
L 75.249734 108.815066 
L 78.529073 108.483259 
L 81.808412 108.375088 
L 85.087751 108.179529 
L 88.367089 108.241967 
L 91.646428 108.442877 
L 94.925767 108.85322 
L 98.205106 109.290971 
L 101.484445 109.769086 
L 104.763784 110.26663 
L 108.043122 110.83298 
L 111.322461 111.682118 
L 114.6018 112.512322 
L 117.881139 113.504351 
L 121.160478 114.464736 
L 124.439817 115.449344 
L 127.719155 116.417627 
L 130.998494 117.268031 
L 134.277833 118.211917 
L 137.557172 119.180605 
L 140.836511 120.079685 
L 144.11585 121.052042 
L 147.395189 122.167501 
L 150.674527 123.375005 
L 153.953866 124.614534 
L 157.233205 125.891957 
L 160.512544 127.192444 
L 163.791883 128.4532 
L 167.071222 129.701223 
L 170.35056 130.878296 
L 173.629899 131.998961 
L 176.909238 133.139746 
L 180.188577 134.486753 
L 183.467916 135.66515 
L 186.747255 136.812406 
L 190.026593 137.922282 
L 193.305932 139.152584 
L 196.585271 140.335959 
L 199.86461 141.520692 
L 203.143949 142.722914 
L 206.423288 143.938858 
L 209.702627 145.206165 
L 212.981965 146.452628 
L 216.261304 147.708141 
L 219.540643 148.954167 
L 222.819982 150.321072 
L 226.099321 151.842066 
L 229.37866 153.255824 
L 232.657998 154.538643 
L 235.937337 155.849876 
L 239.216676 157.178296 
L 242.496015 158.406068 
L 245.775354 159.684434 
L 249.054693 160.987372 
L 252.334032 162.337551 
L 255.61337 163.638987 
L 258.892709 164.860612 
L 262.172048 165.878282 
L 265.451387 166.756064 
L 268.730726 167.546144 
L 272.010065 168.33855 
L 275.289403 169.0431 
L 278.568742 169.702845 
L 281.848081 170.447079 
L 285.12742 171.106067 
L 288.406759 171.818163 
L 291.686098 172.411662 
L 294.965436 172.927361 
L 298.244775 173.475288 
L 301.524114 173.812667 
L 304.803453 174.278341 
L 308.082792 174.705084 
L 311.362131 175.082968 
L 314.64147 175.424373 
L 317.920808 175.733449 
L 321.200147 176.079517 
L 324.479486 176.354867 
L 327.758825 176.740164 
L 331.038164 177.068845 
L 334.317503 177.29918 
L 337.596841 177.566695 
L 340.87618 177.742615 
L 344.155519 177.980224 
L 347.434858 178.18676 
L 350.714197 178.286492 
L 353.993536 178.360896 
L 357.272874 178.473223 
L 360.552213 178.666761 
L 363.831552 178.930721 
L 367.110891 179.152112 
L 370.39023 179.330599 
L 373.669569 179.301619 
L 376.948908 179.243673 
L 380.228246 179.302229 
L 383.507585 179.332471 
" style="fill:none;stroke:#0000ff;stroke-linecap:square;stroke-width:1.5;"/>
    <g clip-path="url(#p5eb24dcf5f)">
     <use style="fill:#0000ff;stroke:#0000ff;" x="58.85304" xlink:href="#mbf8b484886" y="108.404922"/>
     <use style="fill:#0000ff;stroke:#0000ff;" x="91.646428" xlink:href="#mbf8b484886" y="108.442877"/>
     <use style="fill:#0000ff;stroke:#0000ff;" x="124.439817" xlink:href="#mbf8b484886" y="115.449344"/>
     <use style="fill:#0000ff;stroke:#0000ff;" x="157.233205" xlink:href="#mbf8b484886" y="125.891957"/>
     <use style="fill:#0000ff;stroke:#0000ff;" x="190.026593" xlink:href="#mbf8b484886" y="137.922282"/>
     <use style="fill:#0000ff;stroke:#0000ff;" x="222.819982" xlink:href="#mbf8b484886" y="150.321072"/>
     <use style="fill:#0000ff;stroke:#0000ff;" x="255.61337" xlink:href="#mbf8b484886" y="163.638987"/>
     <use style="fill:#0000ff;stroke:#0000ff;" x="288.406759" xlink:href="#mbf8b484886" y="171.818163"/>
     <use style="fill:#0000ff;stroke:#0000ff;" x="321.200147" xlink:href="#mbf8b484886" y="176.079517"/>
     <use style="fill:#0000ff;stroke:#0000ff;" x="353.993536" xlink:href="#mbf8b484886" y="178.360896"/>
    </g>
   </g>
   <g id="patch_8">
    <path d="M 42.620313 182.890118 
L 42.620313 104.621882 
" style="fill:none;stroke:#000000;stroke-linecap:square;stroke-linejoin:miter;stroke-width:0.8;"/>
   </g>
   <g id="patch_9">
    <path d="M 399.740313 182.890118 
L 399.740313 104.621882 
" style="fill:none;stroke:#000000;stroke-linecap:square;stroke-linejoin:miter;stroke-width:0.8;"/>
   </g>
   <g id="patch_10">
    <path d="M 42.620313 182.890118 
L 399.740313 182.890118 
" style="fill:none;stroke:#000000;stroke-linecap:square;stroke-linejoin:miter;stroke-width:0.8;"/>
   </g>
   <g id="patch_11">
    <path d="M 42.620313 104.621882 
L 399.740313 104.621882 
" style="fill:none;stroke:#000000;stroke-linecap:square;stroke-linejoin:miter;stroke-width:0.8;"/>
   </g>
  </g>
  <g id="axes_3">
   <g id="patch_12">
    <path d="M 42.620313 276.812 
L 399.740313 276.812 
L 399.740313 198.543765 
L 42.620313 198.543765 
z
" style="fill:#ffffff;"/>
   </g>
   <g id="matplotlib.axis_5">
    <g id="xtick_13">
     <g id="line2d_21">
      <g>
       <use style="stroke:#000000;stroke-width:0.8;" x="58.85304" xlink:href="#mdd8362c2d5" y="276.812"/>
      </g>
     </g>
     <g id="text_21">
      <!-- 0 -->
      <g transform="translate(55.67179 291.410438)scale(0.1 -0.1)">
       <use xlink:href="#DejaVuSans-30"/>
      </g>
     </g>
    </g>
    <g id="xtick_14">
     <g id="line2d_22">
      <g>
       <use style="stroke:#000000;stroke-width:0.8;" x="124.439817" xlink:href="#mdd8362c2d5" y="276.812"/>
      </g>
     </g>
     <g id="text_22">
      <!-- 20 -->
      <g transform="translate(118.077317 291.410438)scale(0.1 -0.1)">
       <use xlink:href="#DejaVuSans-32"/>
       <use x="63.623047" xlink:href="#DejaVuSans-30"/>
      </g>
     </g>
    </g>
    <g id="xtick_15">
     <g id="line2d_23">
      <g>
       <use style="stroke:#000000;stroke-width:0.8;" x="190.026593" xlink:href="#mdd8362c2d5" y="276.812"/>
      </g>
     </g>
     <g id="text_23">
      <!-- 40 -->
      <g transform="translate(183.664093 291.410438)scale(0.1 -0.1)">
       <use xlink:href="#DejaVuSans-34"/>
       <use x="63.623047" xlink:href="#DejaVuSans-30"/>
      </g>
     </g>
    </g>
    <g id="xtick_16">
     <g id="line2d_24">
      <g>
       <use style="stroke:#000000;stroke-width:0.8;" x="255.61337" xlink:href="#mdd8362c2d5" y="276.812"/>
      </g>
     </g>
     <g id="text_24">
      <!-- 60 -->
      <g transform="translate(249.25087 291.410438)scale(0.1 -0.1)">
       <use xlink:href="#DejaVuSans-36"/>
       <use x="63.623047" xlink:href="#DejaVuSans-30"/>
      </g>
     </g>
    </g>
    <g id="xtick_17">
     <g id="line2d_25">
      <g>
       <use style="stroke:#000000;stroke-width:0.8;" x="321.200147" xlink:href="#mdd8362c2d5" y="276.812"/>
      </g>
     </g>
     <g id="text_25">
      <!-- 80 -->
      <g transform="translate(314.837647 291.410438)scale(0.1 -0.1)">
       <use xlink:href="#DejaVuSans-38"/>
       <use x="63.623047" xlink:href="#DejaVuSans-30"/>
      </g>
     </g>
    </g>
    <g id="xtick_18">
     <g id="line2d_26">
      <g>
       <use style="stroke:#000000;stroke-width:0.8;" x="386.786924" xlink:href="#mdd8362c2d5" y="276.812"/>
      </g>
     </g>
     <g id="text_26">
      <!-- 100 -->
      <g transform="translate(377.243174 291.410438)scale(0.1 -0.1)">
       <use xlink:href="#DejaVuSans-31"/>
       <use x="63.623047" xlink:href="#DejaVuSans-30"/>
       <use x="127.246094" xlink:href="#DejaVuSans-30"/>
      </g>
     </g>
    </g>
    <g id="text_27">
     <!-- Time -->
     <g transform="translate(208.792813 305.088562)scale(0.1 -0.1)">
      <use xlink:href="#DejaVuSans-54"/>
      <use x="61.037109" xlink:href="#DejaVuSans-69"/>
      <use x="88.820312" xlink:href="#DejaVuSans-6d"/>
      <use x="186.232422" xlink:href="#DejaVuSans-65"/>
     </g>
    </g>
   </g>
   <g id="matplotlib.axis_6">
    <g id="ytick_5">
     <g id="line2d_27">
      <g>
       <use style="stroke:#000000;stroke-width:0.8;" x="42.620313" xlink:href="#m7a52f03842" y="273.254353"/>
      </g>
     </g>
     <g id="text_28">
      <!-- 0 -->
      <g transform="translate(29.257813 277.053572)scale(0.1 -0.1)">
       <use xlink:href="#DejaVuSans-30"/>
      </g>
     </g>
    </g>
    <g id="ytick_6">
     <g id="line2d_28">
      <g>
       <use style="stroke:#000000;stroke-width:0.8;" x="42.620313" xlink:href="#m7a52f03842" y="221.288642"/>
      </g>
     </g>
     <g id="text_29">
      <!-- 50 -->
      <defs>
       <path d="M 10.796875 72.90625 
L 49.515625 72.90625 
L 49.515625 64.59375 
L 19.828125 64.59375 
L 19.828125 46.734375 
Q 21.96875 47.46875 24.109375 47.828125 
Q 26.265625 48.1875 28.421875 48.1875 
Q 40.625 48.1875 47.75 41.5 
Q 54.890625 34.8125 54.890625 23.390625 
Q 54.890625 11.625 47.5625 5.09375 
Q 40.234375 -1.421875 26.90625 -1.421875 
Q 22.3125 -1.421875 17.546875 -0.640625 
Q 12.796875 0.140625 7.71875 1.703125 
L 7.71875 11.625 
Q 12.109375 9.234375 16.796875 8.0625 
Q 21.484375 6.890625 26.703125 6.890625 
Q 35.15625 6.890625 40.078125 11.328125 
Q 45.015625 15.765625 45.015625 23.390625 
Q 45.015625 31 40.078125 35.4375 
Q 35.15625 39.890625 26.703125 39.890625 
Q 22.75 39.890625 18.8125 39.015625 
Q 14.890625 38.140625 10.796875 36.28125 
z
" id="DejaVuSans-35"/>
      </defs>
      <g transform="translate(22.895313 225.087861)scale(0.1 -0.1)">
       <use xlink:href="#DejaVuSans-35"/>
       <use x="63.623047" xlink:href="#DejaVuSans-30"/>
      </g>
     </g>
    </g>
    <g id="text_30">
     <!-- z -->
     <defs>
      <path d="M 5.515625 54.6875 
L 48.1875 54.6875 
L 48.1875 46.484375 
L 14.40625 7.171875 
L 48.1875 7.171875 
L 48.1875 0 
L 4.296875 0 
L 4.296875 8.203125 
L 38.09375 47.515625 
L 5.515625 47.515625 
z
" id="DejaVuSans-7a"/>
     </defs>
     <g transform="translate(16.815625 240.302101)rotate(-90)scale(0.1 -0.1)">
      <use xlink:href="#DejaVuSans-7a"/>
     </g>
    </g>
   </g>
   <g id="line2d_29">
    <path clip-path="url(#p6a3f121c7e)" d="M 58.85304 273.254353 
L 62.132379 272.366745 
L 65.411717 271.487444 
L 68.691056 270.599686 
L 71.970395 269.689965 
L 75.249734 268.771478 
L 78.529073 267.845106 
L 81.808412 266.913435 
L 85.087751 265.982619 
L 88.367089 265.036443 
L 91.646428 264.086333 
L 94.925767 263.116789 
L 98.205106 262.138457 
L 101.484445 261.153003 
L 104.763784 260.163245 
L 108.043122 259.166919 
L 111.322461 258.151838 
L 114.6018 257.126821 
L 117.881139 256.088644 
L 121.160478 255.038496 
L 124.439817 253.981601 
L 127.719155 252.924069 
L 130.998494 251.870631 
L 134.277833 250.816504 
L 137.557172 249.764014 
L 140.836511 248.708036 
L 144.11585 247.656574 
L 147.395189 246.613862 
L 150.674527 245.57 
L 153.953866 244.532312 
L 157.233205 243.507385 
L 160.512544 242.489137 
L 163.791883 241.483552 
L 167.071222 240.47497 
L 170.35056 239.472411 
L 173.629899 238.478194 
L 176.909238 237.491967 
L 180.188577 236.519501 
L 183.467916 235.556328 
L 186.747255 234.605105 
L 190.026593 233.657014 
L 193.305932 232.72498 
L 196.585271 231.805141 
L 199.86461 230.905502 
L 203.143949 230.02324 
L 206.423288 229.155973 
L 209.702627 228.311673 
L 212.981965 227.492754 
L 216.261304 226.696736 
L 219.540643 225.924867 
L 222.819982 225.178847 
L 226.099321 224.459438 
L 229.37866 223.772024 
L 232.657998 223.113841 
L 235.937337 222.487943 
L 239.216676 221.894788 
L 242.496015 221.341872 
L 245.775354 220.821981 
L 249.054693 220.334699 
L 252.334032 219.883068 
L 255.61337 219.457849 
L 258.892709 219.069553 
L 262.172048 218.709811 
L 265.451387 218.381723 
L 268.730726 218.082882 
L 272.010065 217.809486 
L 275.289403 217.554907 
L 278.568742 217.323283 
L 281.848081 217.098423 
L 285.12742 216.879835 
L 288.406759 216.664831 
L 291.686098 216.44972 
L 294.965436 216.233538 
L 298.244775 216.022721 
L 301.524114 215.813141 
L 304.803453 215.602292 
L 308.082792 215.393278 
L 311.362131 215.17965 
L 314.64147 214.974835 
L 317.920808 214.773382 
L 321.200147 214.581928 
L 324.479486 214.393488 
L 327.758825 214.204738 
L 331.038164 214.020912 
L 334.317503 213.842304 
L 337.596841 213.671823 
L 340.87618 213.511951 
L 344.155519 213.360097 
L 347.434858 213.211303 
L 350.714197 213.065006 
L 353.993536 212.917441 
L 357.272874 212.773207 
L 360.552213 212.621503 
L 363.831552 212.472582 
L 367.110891 212.333216 
L 370.39023 212.199277 
L 373.669569 212.065045 
L 376.948908 211.929668 
L 380.228246 211.790678 
L 383.507585 211.645683 
" style="fill:none;stroke:#ff0000;stroke-linecap:square;stroke-width:1.5;"/>
    <g clip-path="url(#p6a3f121c7e)">
     <use style="fill:#ff0000;stroke:#ff0000;" x="58.85304" xlink:href="#m8c5566509c" y="273.254353"/>
     <use style="fill:#ff0000;stroke:#ff0000;" x="91.646428" xlink:href="#m8c5566509c" y="264.086333"/>
     <use style="fill:#ff0000;stroke:#ff0000;" x="124.439817" xlink:href="#m8c5566509c" y="253.981601"/>
     <use style="fill:#ff0000;stroke:#ff0000;" x="157.233205" xlink:href="#m8c5566509c" y="243.507385"/>
     <use style="fill:#ff0000;stroke:#ff0000;" x="190.026593" xlink:href="#m8c5566509c" y="233.657014"/>
     <use style="fill:#ff0000;stroke:#ff0000;" x="222.819982" xlink:href="#m8c5566509c" y="225.178847"/>
     <use style="fill:#ff0000;stroke:#ff0000;" x="255.61337" xlink:href="#m8c5566509c" y="219.457849"/>
     <use style="fill:#ff0000;stroke:#ff0000;" x="288.406759" xlink:href="#m8c5566509c" y="216.664831"/>
     <use style="fill:#ff0000;stroke:#ff0000;" x="321.200147" xlink:href="#m8c5566509c" y="214.581928"/>
     <use style="fill:#ff0000;stroke:#ff0000;" x="353.993536" xlink:href="#m8c5566509c" y="212.917441"/>
    </g>
   </g>
   <g id="line2d_30">
    <path clip-path="url(#p6a3f121c7e)" d="M 58.85304 273.254353 
L 62.132379 272.371619 
L 65.411717 271.484795 
L 68.691056 270.56731 
L 71.970395 269.63986 
L 75.249734 268.701215 
L 78.529073 267.764847 
L 81.808412 266.837098 
L 85.087751 265.883257 
L 88.367089 264.878671 
L 91.646428 263.850172 
L 94.925767 262.811997 
L 98.205106 261.760067 
L 101.484445 260.716999 
L 104.763784 259.659528 
L 108.043122 258.554916 
L 111.322461 257.46397 
L 114.6018 256.352199 
L 117.881139 255.138071 
L 121.160478 253.895819 
L 124.439817 252.698753 
L 127.719155 251.53448 
L 130.998494 250.403198 
L 134.277833 249.293665 
L 137.557172 248.204652 
L 140.836511 247.114025 
L 144.11585 246.038261 
L 147.395189 244.970182 
L 150.674527 243.890521 
L 153.953866 242.792855 
L 157.233205 241.708567 
L 160.512544 240.646093 
L 163.791883 239.576769 
L 167.071222 238.520815 
L 170.35056 237.482202 
L 173.629899 236.468131 
L 176.909238 235.464102 
L 180.188577 234.458488 
L 183.467916 233.493567 
L 186.747255 232.553742 
L 190.026593 231.599375 
L 193.305932 230.659879 
L 196.585271 229.710955 
L 199.86461 228.778616 
L 203.143949 227.866282 
L 206.423288 226.963776 
L 209.702627 226.081439 
L 212.981965 225.206889 
L 216.261304 224.334943 
L 219.540643 223.453106 
L 222.819982 222.584482 
L 226.099321 221.730742 
L 229.37866 220.914393 
L 232.657998 220.123489 
L 235.937337 219.355394 
L 239.216676 218.628508 
L 242.496015 217.921413 
L 245.775354 217.235965 
L 249.054693 216.580383 
L 252.334032 215.948019 
L 255.61337 215.351954 
L 258.892709 214.786085 
L 262.172048 214.245594 
L 265.451387 213.73724 
L 268.730726 213.267272 
L 272.010065 212.812885 
L 275.289403 212.383286 
L 278.568742 211.985102 
L 281.848081 211.605144 
L 285.12742 211.209751 
L 288.406759 210.853502 
L 291.686098 210.484724 
L 294.965436 210.122659 
L 298.244775 209.758583 
L 301.524114 209.394988 
L 304.803453 209.039123 
L 308.082792 208.690038 
L 311.362131 208.306159 
L 314.64147 207.930645 
L 317.920808 207.564932 
L 321.200147 207.227269 
L 324.479486 206.914897 
L 327.758825 206.611278 
L 331.038164 206.314483 
L 334.317503 206.024936 
L 337.596841 205.741755 
L 340.87618 205.459851 
L 344.155519 205.172714 
L 347.434858 204.88886 
L 350.714197 204.62486 
L 353.993536 204.359687 
L 357.272874 204.104077 
L 360.552213 203.854929 
L 363.831552 203.599517 
L 367.110891 203.350013 
L 370.39023 203.10801 
L 373.669569 202.863754 
L 376.948908 202.611863 
L 380.228246 202.362342 
L 383.507585 202.101412 
" style="fill:none;stroke:#0000ff;stroke-linecap:square;stroke-width:1.5;"/>
    <g clip-path="url(#p6a3f121c7e)">
     <use style="fill:#0000ff;stroke:#0000ff;" x="58.85304" xlink:href="#mbf8b484886" y="273.254353"/>
     <use style="fill:#0000ff;stroke:#0000ff;" x="91.646428" xlink:href="#mbf8b484886" y="263.850172"/>
     <use style="fill:#0000ff;stroke:#0000ff;" x="124.439817" xlink:href="#mbf8b484886" y="252.698753"/>
     <use style="fill:#0000ff;stroke:#0000ff;" x="157.233205" xlink:href="#mbf8b484886" y="241.708567"/>
     <use style="fill:#0000ff;stroke:#0000ff;" x="190.026593" xlink:href="#mbf8b484886" y="231.599375"/>
     <use style="fill:#0000ff;stroke:#0000ff;" x="222.819982" xlink:href="#mbf8b484886" y="222.584482"/>
     <use style="fill:#0000ff;stroke:#0000ff;" x="255.61337" xlink:href="#mbf8b484886" y="215.351954"/>
     <use style="fill:#0000ff;stroke:#0000ff;" x="288.406759" xlink:href="#mbf8b484886" y="210.853502"/>
     <use style="fill:#0000ff;stroke:#0000ff;" x="321.200147" xlink:href="#mbf8b484886" y="207.227269"/>
     <use style="fill:#0000ff;stroke:#0000ff;" x="353.993536" xlink:href="#mbf8b484886" y="204.359687"/>
    </g>
   </g>
   <g id="patch_13">
    <path d="M 42.620313 276.812 
L 42.620313 198.543765 
" style="fill:none;stroke:#000000;stroke-linecap:square;stroke-linejoin:miter;stroke-width:0.8;"/>
   </g>
   <g id="patch_14">
    <path d="M 399.740313 276.812 
L 399.740313 198.543765 
" style="fill:none;stroke:#000000;stroke-linecap:square;stroke-linejoin:miter;stroke-width:0.8;"/>
   </g>
   <g id="patch_15">
    <path d="M 42.620313 276.812 
L 399.740313 276.812 
" style="fill:none;stroke:#000000;stroke-linecap:square;stroke-linejoin:miter;stroke-width:0.8;"/>
   </g>
   <g id="patch_16">
    <path d="M 42.620313 198.543765 
L 399.740313 198.543765 
" style="fill:none;stroke:#000000;stroke-linecap:square;stroke-linejoin:miter;stroke-width:0.8;"/>
   </g>
   <g id="legend_1">
    <g id="patch_17">
     <path d="M 49.620313 271.812 
L 148.589063 271.812 
Q 150.589063 271.812 150.589063 269.812 
L 150.589063 241.45575 
Q 150.589063 239.45575 148.589063 239.45575 
L 49.620313 239.45575 
Q 47.620313 239.45575 47.620313 241.45575 
L 47.620313 269.812 
Q 47.620313 271.812 49.620313 271.812 
z
" style="fill:#ffffff;opacity:0.8;stroke:#cccccc;stroke-linejoin:miter;"/>
    </g>
    <g id="line2d_31">
     <path d="M 51.620313 247.554187 
L 71.620313 247.554187 
" style="fill:none;stroke:#ff0000;stroke-linecap:square;stroke-width:1.5;"/>
    </g>
    <g id="line2d_32">
     <g>
      <use style="fill:#ff0000;stroke:#ff0000;" x="61.620313" xlink:href="#m8c5566509c" y="247.554187"/>
     </g>
    </g>
    <g id="text_31">
     <!-- Ground Truth -->
     <defs>
      <path d="M 59.515625 10.40625 
L 59.515625 29.984375 
L 43.40625 29.984375 
L 43.40625 38.09375 
L 69.28125 38.09375 
L 69.28125 6.78125 
Q 63.578125 2.734375 56.6875 0.65625 
Q 49.8125 -1.421875 42 -1.421875 
Q 24.90625 -1.421875 15.25 8.5625 
Q 5.609375 18.5625 5.609375 36.375 
Q 5.609375 54.25 15.25 64.234375 
Q 24.90625 74.21875 42 74.21875 
Q 49.125 74.21875 55.546875 72.453125 
Q 61.96875 70.703125 67.390625 67.28125 
L 67.390625 56.78125 
Q 61.921875 61.421875 55.765625 63.765625 
Q 49.609375 66.109375 42.828125 66.109375 
Q 29.4375 66.109375 22.71875 58.640625 
Q 16.015625 51.171875 16.015625 36.375 
Q 16.015625 21.625 22.71875 14.15625 
Q 29.4375 6.6875 42.828125 6.6875 
Q 48.046875 6.6875 52.140625 7.59375 
Q 56.25 8.5 59.515625 10.40625 
z
" id="DejaVuSans-47"/>
      <path d="M 41.109375 46.296875 
Q 39.59375 47.171875 37.8125 47.578125 
Q 36.03125 48 33.890625 48 
Q 26.265625 48 22.1875 43.046875 
Q 18.109375 38.09375 18.109375 28.8125 
L 18.109375 0 
L 9.078125 0 
L 9.078125 54.6875 
L 18.109375 54.6875 
L 18.109375 46.1875 
Q 20.953125 51.171875 25.484375 53.578125 
Q 30.03125 56 36.53125 56 
Q 37.453125 56 38.578125 55.875 
Q 39.703125 55.765625 41.0625 55.515625 
z
" id="DejaVuSans-72"/>
      <path d="M 30.609375 48.390625 
Q 23.390625 48.390625 19.1875 42.75 
Q 14.984375 37.109375 14.984375 27.296875 
Q 14.984375 17.484375 19.15625 11.84375 
Q 23.34375 6.203125 30.609375 6.203125 
Q 37.796875 6.203125 41.984375 11.859375 
Q 46.1875 17.53125 46.1875 27.296875 
Q 46.1875 37.015625 41.984375 42.703125 
Q 37.796875 48.390625 30.609375 48.390625 
z
M 30.609375 56 
Q 42.328125 56 49.015625 48.375 
Q 55.71875 40.765625 55.71875 27.296875 
Q 55.71875 13.875 49.015625 6.21875 
Q 42.328125 -1.421875 30.609375 -1.421875 
Q 18.84375 -1.421875 12.171875 6.21875 
Q 5.515625 13.875 5.515625 27.296875 
Q 5.515625 40.765625 12.171875 48.375 
Q 18.84375 56 30.609375 56 
z
" id="DejaVuSans-6f"/>
      <path d="M 8.5 21.578125 
L 8.5 54.6875 
L 17.484375 54.6875 
L 17.484375 21.921875 
Q 17.484375 14.15625 20.5 10.265625 
Q 23.53125 6.390625 29.59375 6.390625 
Q 36.859375 6.390625 41.078125 11.03125 
Q 45.3125 15.671875 45.3125 23.6875 
L 45.3125 54.6875 
L 54.296875 54.6875 
L 54.296875 0 
L 45.3125 0 
L 45.3125 8.40625 
Q 42.046875 3.421875 37.71875 1 
Q 33.40625 -1.421875 27.6875 -1.421875 
Q 18.265625 -1.421875 13.375 4.4375 
Q 8.5 10.296875 8.5 21.578125 
z
M 31.109375 56 
z
" id="DejaVuSans-75"/>
      <path d="M 54.890625 33.015625 
L 54.890625 0 
L 45.90625 0 
L 45.90625 32.71875 
Q 45.90625 40.484375 42.875 44.328125 
Q 39.84375 48.1875 33.796875 48.1875 
Q 26.515625 48.1875 22.3125 43.546875 
Q 18.109375 38.921875 18.109375 30.90625 
L 18.109375 0 
L 9.078125 0 
L 9.078125 54.6875 
L 18.109375 54.6875 
L 18.109375 46.1875 
Q 21.34375 51.125 25.703125 53.5625 
Q 30.078125 56 35.796875 56 
Q 45.21875 56 50.046875 50.171875 
Q 54.890625 44.34375 54.890625 33.015625 
z
" id="DejaVuSans-6e"/>
      <path d="M 45.40625 46.390625 
L 45.40625 75.984375 
L 54.390625 75.984375 
L 54.390625 0 
L 45.40625 0 
L 45.40625 8.203125 
Q 42.578125 3.328125 38.25 0.953125 
Q 33.9375 -1.421875 27.875 -1.421875 
Q 17.96875 -1.421875 11.734375 6.484375 
Q 5.515625 14.40625 5.515625 27.296875 
Q 5.515625 40.1875 11.734375 48.09375 
Q 17.96875 56 27.875 56 
Q 33.9375 56 38.25 53.625 
Q 42.578125 51.265625 45.40625 46.390625 
z
M 14.796875 27.296875 
Q 14.796875 17.390625 18.875 11.75 
Q 22.953125 6.109375 30.078125 6.109375 
Q 37.203125 6.109375 41.296875 11.75 
Q 45.40625 17.390625 45.40625 27.296875 
Q 45.40625 37.203125 41.296875 42.84375 
Q 37.203125 48.484375 30.078125 48.484375 
Q 22.953125 48.484375 18.875 42.84375 
Q 14.796875 37.203125 14.796875 27.296875 
z
" id="DejaVuSans-64"/>
      <path id="DejaVuSans-20"/>
      <path d="M 18.3125 70.21875 
L 18.3125 54.6875 
L 36.8125 54.6875 
L 36.8125 47.703125 
L 18.3125 47.703125 
L 18.3125 18.015625 
Q 18.3125 11.328125 20.140625 9.421875 
Q 21.96875 7.515625 27.59375 7.515625 
L 36.8125 7.515625 
L 36.8125 0 
L 27.59375 0 
Q 17.1875 0 13.234375 3.875 
Q 9.28125 7.765625 9.28125 18.015625 
L 9.28125 47.703125 
L 2.6875 47.703125 
L 2.6875 54.6875 
L 9.28125 54.6875 
L 9.28125 70.21875 
z
" id="DejaVuSans-74"/>
      <path d="M 54.890625 33.015625 
L 54.890625 0 
L 45.90625 0 
L 45.90625 32.71875 
Q 45.90625 40.484375 42.875 44.328125 
Q 39.84375 48.1875 33.796875 48.1875 
Q 26.515625 48.1875 22.3125 43.546875 
Q 18.109375 38.921875 18.109375 30.90625 
L 18.109375 0 
L 9.078125 0 
L 9.078125 75.984375 
L 18.109375 75.984375 
L 18.109375 46.1875 
Q 21.34375 51.125 25.703125 53.5625 
Q 30.078125 56 35.796875 56 
Q 45.21875 56 50.046875 50.171875 
Q 54.890625 44.34375 54.890625 33.015625 
z
" id="DejaVuSans-68"/>
     </defs>
     <g transform="translate(79.620313 251.054187)scale(0.1 -0.1)">
      <use xlink:href="#DejaVuSans-47"/>
      <use x="77.490234" xlink:href="#DejaVuSans-72"/>
      <use x="118.572266" xlink:href="#DejaVuSans-6f"/>
      <use x="179.753906" xlink:href="#DejaVuSans-75"/>
      <use x="243.132812" xlink:href="#DejaVuSans-6e"/>
      <use x="306.511719" xlink:href="#DejaVuSans-64"/>
      <use x="369.988281" xlink:href="#DejaVuSans-20"/>
      <use x="401.775391" xlink:href="#DejaVuSans-54"/>
      <use x="462.640625" xlink:href="#DejaVuSans-72"/>
      <use x="503.753906" xlink:href="#DejaVuSans-75"/>
      <use x="567.132812" xlink:href="#DejaVuSans-74"/>
      <use x="606.341797" xlink:href="#DejaVuSans-68"/>
     </g>
    </g>
    <g id="line2d_33">
     <path d="M 51.620313 262.232312 
L 71.620313 262.232312 
" style="fill:none;stroke:#0000ff;stroke-linecap:square;stroke-width:1.5;"/>
    </g>
    <g id="line2d_34">
     <g>
      <use style="fill:#0000ff;stroke:#0000ff;" x="61.620313" xlink:href="#mbf8b484886" y="262.232312"/>
     </g>
    </g>
    <g id="text_32">
     <!-- Prediction -->
     <defs>
      <path d="M 19.671875 64.796875 
L 19.671875 37.40625 
L 32.078125 37.40625 
Q 38.96875 37.40625 42.71875 40.96875 
Q 46.484375 44.53125 46.484375 51.125 
Q 46.484375 57.671875 42.71875 61.234375 
Q 38.96875 64.796875 32.078125 64.796875 
z
M 9.8125 72.90625 
L 32.078125 72.90625 
Q 44.34375 72.90625 50.609375 67.359375 
Q 56.890625 61.8125 56.890625 51.125 
Q 56.890625 40.328125 50.609375 34.8125 
Q 44.34375 29.296875 32.078125 29.296875 
L 19.671875 29.296875 
L 19.671875 0 
L 9.8125 0 
z
" id="DejaVuSans-50"/>
      <path d="M 48.78125 52.59375 
L 48.78125 44.1875 
Q 44.96875 46.296875 41.140625 47.34375 
Q 37.3125 48.390625 33.40625 48.390625 
Q 24.65625 48.390625 19.8125 42.84375 
Q 14.984375 37.3125 14.984375 27.296875 
Q 14.984375 17.28125 19.8125 11.734375 
Q 24.65625 6.203125 33.40625 6.203125 
Q 37.3125 6.203125 41.140625 7.25 
Q 44.96875 8.296875 48.78125 10.40625 
L 48.78125 2.09375 
Q 45.015625 0.34375 40.984375 -0.53125 
Q 36.96875 -1.421875 32.421875 -1.421875 
Q 20.0625 -1.421875 12.78125 6.34375 
Q 5.515625 14.109375 5.515625 27.296875 
Q 5.515625 40.671875 12.859375 48.328125 
Q 20.21875 56 33.015625 56 
Q 37.15625 56 41.109375 55.140625 
Q 45.0625 54.296875 48.78125 52.59375 
z
" id="DejaVuSans-63"/>
     </defs>
     <g transform="translate(79.620313 265.732312)scale(0.1 -0.1)">
      <use xlink:href="#DejaVuSans-50"/>
      <use x="60.287109" xlink:href="#DejaVuSans-72"/>
      <use x="101.369141" xlink:href="#DejaVuSans-65"/>
      <use x="162.892578" xlink:href="#DejaVuSans-64"/>
      <use x="226.369141" xlink:href="#DejaVuSans-69"/>
      <use x="254.152344" xlink:href="#DejaVuSans-63"/>
      <use x="309.132812" xlink:href="#DejaVuSans-74"/>
      <use x="348.341797" xlink:href="#DejaVuSans-69"/>
      <use x="376.125" xlink:href="#DejaVuSans-6f"/>
      <use x="437.306641" xlink:href="#DejaVuSans-6e"/>
     </g>
    </g>
   </g>
  </g>
 </g>
 <defs>
  <clipPath id="p8bb3d8f693">
   <rect height="78.268235" width="357.12" x="42.620313" y="10.7"/>
  </clipPath>
  <clipPath id="p5eb24dcf5f">
   <rect height="78.268235" width="357.12" x="42.620313" y="104.621882"/>
  </clipPath>
  <clipPath id="p6a3f121c7e">
   <rect height="78.268235" width="357.12" x="42.620313" y="198.543765"/>
  </clipPath>
 </defs>
</svg>
