<?xml version="1.0" encoding="utf-8" standalone="no"?>
<!DOCTYPE svg PUBLIC "-//W3C//DTD SVG 1.1//EN"
  "http://www.w3.org/Graphics/SVG/1.1/DTD/svg11.dtd">
<!-- Created with matplotlib (http://matplotlib.org/) -->
<svg height="314pt" version="1.1" viewBox="0 0 410 314" width="410pt" xmlns="http://www.w3.org/2000/svg" xmlns:xlink="http://www.w3.org/1999/xlink">
 <defs>
  <style type="text/css">
*{stroke-linecap:butt;stroke-linejoin:round;}
  </style>
 </defs>
 <g id="figure_1">
  <g id="patch_1">
   <path d="M 0 314.36825 
L 410.440313 314.36825 
L 410.440313 0 
L 0 0 
z
" style="fill:#ffffff;"/>
  </g>
  <g id="axes_1">
   <g id="patch_2">
    <path d="M 42.620313 88.968235 
L 399.740313 88.968235 
L 399.740313 10.7 
L 42.620313 10.7 
z
" style="fill:#ffffff;"/>
   </g>
   <g id="matplotlib.axis_1">
    <g id="xtick_1">
     <g id="line2d_1">
      <defs>
       <path d="M 0 0 
L 0 3.5 
" id="m20d904c6c6" style="stroke:#000000;stroke-width:0.8;"/>
      </defs>
      <g>
       <use style="stroke:#000000;stroke-width:0.8;" x="58.85304" xlink:href="#m20d904c6c6" y="88.968235"/>
      </g>
     </g>
     <g id="text_1">
      <!-- 0 -->
      <defs>
       <path d="M 31.78125 66.40625 
Q 24.171875 66.40625 20.328125 58.90625 
Q 16.5 51.421875 16.5 36.375 
Q 16.5 21.390625 20.328125 13.890625 
Q 24.171875 6.390625 31.78125 6.390625 
Q 39.453125 6.390625 43.28125 13.890625 
Q 47.125 21.390625 47.125 36.375 
Q 47.125 51.421875 43.28125 58.90625 
Q 39.453125 66.40625 31.78125 66.40625 
z
M 31.78125 74.21875 
Q 44.046875 74.21875 50.515625 64.515625 
Q 56.984375 54.828125 56.984375 36.375 
Q 56.984375 17.96875 50.515625 8.265625 
Q 44.046875 -1.421875 31.78125 -1.421875 
Q 19.53125 -1.421875 13.0625 8.265625 
Q 6.59375 17.96875 6.59375 36.375 
Q 6.59375 54.828125 13.0625 64.515625 
Q 19.53125 74.21875 31.78125 74.21875 
z
" id="DejaVuSans-30"/>
      </defs>
      <g transform="translate(55.67179 103.566673)scale(0.1 -0.1)">
       <use xlink:href="#DejaVuSans-30"/>
      </g>
     </g>
    </g>
    <g id="xtick_2">
     <g id="line2d_2">
      <g>
       <use style="stroke:#000000;stroke-width:0.8;" x="124.439817" xlink:href="#m20d904c6c6" y="88.968235"/>
      </g>
     </g>
     <g id="text_2">
      <!-- 20 -->
      <defs>
       <path d="M 19.1875 8.296875 
L 53.609375 8.296875 
L 53.609375 0 
L 7.328125 0 
L 7.328125 8.296875 
Q 12.9375 14.109375 22.625 23.890625 
Q 32.328125 33.6875 34.8125 36.53125 
Q 39.546875 41.84375 41.421875 45.53125 
Q 43.3125 49.21875 43.3125 52.78125 
Q 43.3125 58.59375 39.234375 62.25 
Q 35.15625 65.921875 28.609375 65.921875 
Q 23.96875 65.921875 18.8125 64.3125 
Q 13.671875 62.703125 7.8125 59.421875 
L 7.8125 69.390625 
Q 13.765625 71.78125 18.9375 73 
Q 24.125 74.21875 28.421875 74.21875 
Q 39.75 74.21875 46.484375 68.546875 
Q 53.21875 62.890625 53.21875 53.421875 
Q 53.21875 48.921875 51.53125 44.890625 
Q 49.859375 40.875 45.40625 35.40625 
Q 44.1875 33.984375 37.640625 27.21875 
Q 31.109375 20.453125 19.1875 8.296875 
z
" id="DejaVuSans-32"/>
      </defs>
      <g transform="translate(118.077317 103.566673)scale(0.1 -0.1)">
       <use xlink:href="#DejaVuSans-32"/>
       <use x="63.623047" xlink:href="#DejaVuSans-30"/>
      </g>
     </g>
    </g>
    <g id="xtick_3">
     <g id="line2d_3">
      <g>
       <use style="stroke:#000000;stroke-width:0.8;" x="190.026593" xlink:href="#m20d904c6c6" y="88.968235"/>
      </g>
     </g>
     <g id="text_3">
      <!-- 40 -->
      <defs>
       <path d="M 37.796875 64.3125 
L 12.890625 25.390625 
L 37.796875 25.390625 
z
M 35.203125 72.90625 
L 47.609375 72.90625 
L 47.609375 25.390625 
L 58.015625 25.390625 
L 58.015625 17.1875 
L 47.609375 17.1875 
L 47.609375 0 
L 37.796875 0 
L 37.796875 17.1875 
L 4.890625 17.1875 
L 4.890625 26.703125 
z
" id="DejaVuSans-34"/>
      </defs>
      <g transform="translate(183.664093 103.566673)scale(0.1 -0.1)">
       <use xlink:href="#DejaVuSans-34"/>
       <use x="63.623047" xlink:href="#DejaVuSans-30"/>
      </g>
     </g>
    </g>
    <g id="xtick_4">
     <g id="line2d_4">
      <g>
       <use style="stroke:#000000;stroke-width:0.8;" x="255.61337" xlink:href="#m20d904c6c6" y="88.968235"/>
      </g>
     </g>
     <g id="text_4">
      <!-- 60 -->
      <defs>
       <path d="M 33.015625 40.375 
Q 26.375 40.375 22.484375 35.828125 
Q 18.609375 31.296875 18.609375 23.390625 
Q 18.609375 15.53125 22.484375 10.953125 
Q 26.375 6.390625 33.015625 6.390625 
Q 39.65625 6.390625 43.53125 10.953125 
Q 47.40625 15.53125 47.40625 23.390625 
Q 47.40625 31.296875 43.53125 35.828125 
Q 39.65625 40.375 33.015625 40.375 
z
M 52.59375 71.296875 
L 52.59375 62.3125 
Q 48.875 64.0625 45.09375 64.984375 
Q 41.3125 65.921875 37.59375 65.921875 
Q 27.828125 65.921875 22.671875 59.328125 
Q 17.53125 52.734375 16.796875 39.40625 
Q 19.671875 43.65625 24.015625 45.921875 
Q 28.375 48.1875 33.59375 48.1875 
Q 44.578125 48.1875 50.953125 41.515625 
Q 57.328125 34.859375 57.328125 23.390625 
Q 57.328125 12.15625 50.6875 5.359375 
Q 44.046875 -1.421875 33.015625 -1.421875 
Q 20.359375 -1.421875 13.671875 8.265625 
Q 6.984375 17.96875 6.984375 36.375 
Q 6.984375 53.65625 15.1875 63.9375 
Q 23.390625 74.21875 37.203125 74.21875 
Q 40.921875 74.21875 44.703125 73.484375 
Q 48.484375 72.75 52.59375 71.296875 
z
" id="DejaVuSans-36"/>
      </defs>
      <g transform="translate(249.25087 103.566673)scale(0.1 -0.1)">
       <use xlink:href="#DejaVuSans-36"/>
       <use x="63.623047" xlink:href="#DejaVuSans-30"/>
      </g>
     </g>
    </g>
    <g id="xtick_5">
     <g id="line2d_5">
      <g>
       <use style="stroke:#000000;stroke-width:0.8;" x="321.200147" xlink:href="#m20d904c6c6" y="88.968235"/>
      </g>
     </g>
     <g id="text_5">
      <!-- 80 -->
      <defs>
       <path d="M 31.78125 34.625 
Q 24.75 34.625 20.71875 30.859375 
Q 16.703125 27.09375 16.703125 20.515625 
Q 16.703125 13.921875 20.71875 10.15625 
Q 24.75 6.390625 31.78125 6.390625 
Q 38.8125 6.390625 42.859375 10.171875 
Q 46.921875 13.96875 46.921875 20.515625 
Q 46.921875 27.09375 42.890625 30.859375 
Q 38.875 34.625 31.78125 34.625 
z
M 21.921875 38.8125 
Q 15.578125 40.375 12.03125 44.71875 
Q 8.5 49.078125 8.5 55.328125 
Q 8.5 64.0625 14.71875 69.140625 
Q 20.953125 74.21875 31.78125 74.21875 
Q 42.671875 74.21875 48.875 69.140625 
Q 55.078125 64.0625 55.078125 55.328125 
Q 55.078125 49.078125 51.53125 44.71875 
Q 48 40.375 41.703125 38.8125 
Q 48.828125 37.15625 52.796875 32.3125 
Q 56.78125 27.484375 56.78125 20.515625 
Q 56.78125 9.90625 50.3125 4.234375 
Q 43.84375 -1.421875 31.78125 -1.421875 
Q 19.734375 -1.421875 13.25 4.234375 
Q 6.78125 9.90625 6.78125 20.515625 
Q 6.78125 27.484375 10.78125 32.3125 
Q 14.796875 37.15625 21.921875 38.8125 
z
M 18.3125 54.390625 
Q 18.3125 48.734375 21.84375 45.5625 
Q 25.390625 42.390625 31.78125 42.390625 
Q 38.140625 42.390625 41.71875 45.5625 
Q 45.3125 48.734375 45.3125 54.390625 
Q 45.3125 60.0625 41.71875 63.234375 
Q 38.140625 66.40625 31.78125 66.40625 
Q 25.390625 66.40625 21.84375 63.234375 
Q 18.3125 60.0625 18.3125 54.390625 
z
" id="DejaVuSans-38"/>
      </defs>
      <g transform="translate(314.837647 103.566673)scale(0.1 -0.1)">
       <use xlink:href="#DejaVuSans-38"/>
       <use x="63.623047" xlink:href="#DejaVuSans-30"/>
      </g>
     </g>
    </g>
    <g id="xtick_6">
     <g id="line2d_6">
      <g>
       <use style="stroke:#000000;stroke-width:0.8;" x="386.786924" xlink:href="#m20d904c6c6" y="88.968235"/>
      </g>
     </g>
     <g id="text_6">
      <!-- 100 -->
      <defs>
       <path d="M 12.40625 8.296875 
L 28.515625 8.296875 
L 28.515625 63.921875 
L 10.984375 60.40625 
L 10.984375 69.390625 
L 28.421875 72.90625 
L 38.28125 72.90625 
L 38.28125 8.296875 
L 54.390625 8.296875 
L 54.390625 0 
L 12.40625 0 
z
" id="DejaVuSans-31"/>
      </defs>
      <g transform="translate(377.243174 103.566673)scale(0.1 -0.1)">
       <use xlink:href="#DejaVuSans-31"/>
       <use x="63.623047" xlink:href="#DejaVuSans-30"/>
       <use x="127.246094" xlink:href="#DejaVuSans-30"/>
      </g>
     </g>
    </g>
    <g id="text_7">
     <!-- Time -->
     <defs>
      <path d="M -0.296875 72.90625 
L 61.375 72.90625 
L 61.375 64.59375 
L 35.5 64.59375 
L 35.5 0 
L 25.59375 0 
L 25.59375 64.59375 
L -0.296875 64.59375 
z
" id="DejaVuSans-54"/>
      <path d="M 9.421875 54.6875 
L 18.40625 54.6875 
L 18.40625 0 
L 9.421875 0 
z
M 9.421875 75.984375 
L 18.40625 75.984375 
L 18.40625 64.59375 
L 9.421875 64.59375 
z
" id="DejaVuSans-69"/>
      <path d="M 52 44.1875 
Q 55.375 50.25 60.0625 53.125 
Q 64.75 56 71.09375 56 
Q 79.640625 56 84.28125 50.015625 
Q 88.921875 44.046875 88.921875 33.015625 
L 88.921875 0 
L 79.890625 0 
L 79.890625 32.71875 
Q 79.890625 40.578125 77.09375 44.375 
Q 74.3125 48.1875 68.609375 48.1875 
Q 61.625 48.1875 57.5625 43.546875 
Q 53.515625 38.921875 53.515625 30.90625 
L 53.515625 0 
L 44.484375 0 
L 44.484375 32.71875 
Q 44.484375 40.625 41.703125 44.40625 
Q 38.921875 48.1875 33.109375 48.1875 
Q 26.21875 48.1875 22.15625 43.53125 
Q 18.109375 38.875 18.109375 30.90625 
L 18.109375 0 
L 9.078125 0 
L 9.078125 54.6875 
L 18.109375 54.6875 
L 18.109375 46.1875 
Q 21.1875 51.21875 25.484375 53.609375 
Q 29.78125 56 35.6875 56 
Q 41.65625 56 45.828125 52.96875 
Q 50 49.953125 52 44.1875 
z
" id="DejaVuSans-6d"/>
      <path d="M 56.203125 29.59375 
L 56.203125 25.203125 
L 14.890625 25.203125 
Q 15.484375 15.921875 20.484375 11.0625 
Q 25.484375 6.203125 34.421875 6.203125 
Q 39.59375 6.203125 44.453125 7.46875 
Q 49.3125 8.734375 54.109375 11.28125 
L 54.109375 2.78125 
Q 49.265625 0.734375 44.1875 -0.34375 
Q 39.109375 -1.421875 33.890625 -1.421875 
Q 20.796875 -1.421875 13.15625 6.1875 
Q 5.515625 13.8125 5.515625 26.8125 
Q 5.515625 40.234375 12.765625 48.109375 
Q 20.015625 56 32.328125 56 
Q 43.359375 56 49.78125 48.890625 
Q 56.203125 41.796875 56.203125 29.59375 
z
M 47.21875 32.234375 
Q 47.125 39.59375 43.09375 43.984375 
Q 39.0625 48.390625 32.421875 48.390625 
Q 24.90625 48.390625 20.390625 44.140625 
Q 15.875 39.890625 15.1875 32.171875 
z
" id="DejaVuSans-65"/>
     </defs>
     <g transform="translate(208.792813 117.244798)scale(0.1 -0.1)">
      <use xlink:href="#DejaVuSans-54"/>
      <use x="61.037109" xlink:href="#DejaVuSans-69"/>
      <use x="88.820312" xlink:href="#DejaVuSans-6d"/>
      <use x="186.232422" xlink:href="#DejaVuSans-65"/>
     </g>
    </g>
   </g>
   <g id="matplotlib.axis_2">
    <g id="ytick_1">
     <g id="line2d_7">
      <defs>
       <path d="M 0 0 
L -3.5 0 
" id="m23457bf601" style="stroke:#000000;stroke-width:0.8;"/>
      </defs>
      <g>
       <use style="stroke:#000000;stroke-width:0.8;" x="42.620313" xlink:href="#m23457bf601" y="83.406728"/>
      </g>
     </g>
     <g id="text_8">
      <!-- 0 -->
      <g transform="translate(29.257813 87.205947)scale(0.1 -0.1)">
       <use xlink:href="#DejaVuSans-30"/>
      </g>
     </g>
    </g>
    <g id="ytick_2">
     <g id="line2d_8">
      <g>
       <use style="stroke:#000000;stroke-width:0.8;" x="42.620313" xlink:href="#m23457bf601" y="52.847118"/>
      </g>
     </g>
     <g id="text_9">
      <!-- 10 -->
      <g transform="translate(22.895313 56.646336)scale(0.1 -0.1)">
       <use xlink:href="#DejaVuSans-31"/>
       <use x="63.623047" xlink:href="#DejaVuSans-30"/>
      </g>
     </g>
    </g>
    <g id="ytick_3">
     <g id="line2d_9">
      <g>
       <use style="stroke:#000000;stroke-width:0.8;" x="42.620313" xlink:href="#m23457bf601" y="22.287507"/>
      </g>
     </g>
     <g id="text_10">
      <!-- 20 -->
      <g transform="translate(22.895313 26.086726)scale(0.1 -0.1)">
       <use xlink:href="#DejaVuSans-32"/>
       <use x="63.623047" xlink:href="#DejaVuSans-30"/>
      </g>
     </g>
    </g>
    <g id="text_11">
     <!-- x -->
     <defs>
      <path d="M 54.890625 54.6875 
L 35.109375 28.078125 
L 55.90625 0 
L 45.3125 0 
L 29.390625 21.484375 
L 13.484375 0 
L 2.875 0 
L 24.125 28.609375 
L 4.6875 54.6875 
L 15.28125 54.6875 
L 29.78125 35.203125 
L 44.28125 54.6875 
z
" id="DejaVuSans-78"/>
     </defs>
     <g transform="translate(16.815625 52.793493)rotate(-90)scale(0.1 -0.1)">
      <use xlink:href="#DejaVuSans-78"/>
     </g>
    </g>
   </g>
   <g id="line2d_10">
    <path clip-path="url(#p410a5c7189)" d="M 58.85304 83.406728 
L 62.132379 83.446559 
L 65.411717 83.465441 
L 68.691056 83.472019 
L 71.970395 83.457407 
L 75.249734 83.451498 
L 78.529073 83.461507 
L 81.808412 83.498104 
L 85.087751 83.537669 
L 88.367089 83.586164 
L 91.646428 83.629657 
L 94.925767 83.685976 
L 98.205106 83.719155 
L 101.484445 83.770668 
L 104.763784 83.806597 
L 108.043122 83.84976 
L 111.322461 83.886773 
L 114.6018 83.916297 
L 117.881139 83.962177 
L 121.160478 84.017615 
L 124.439817 84.09437 
L 127.719155 84.169833 
L 130.998494 84.24037 
L 134.277833 84.290351 
L 137.557172 84.346669 
L 140.836511 84.409228 
L 144.11585 84.470876 
L 147.395189 84.533715 
L 150.674527 84.589359 
L 153.953866 84.646379 
L 157.233205 84.698244 
L 160.512544 84.754323 
L 163.791883 84.798707 
L 167.071222 84.829954 
L 170.35056 84.844541 
L 173.629899 84.873463 
L 176.909238 84.898533 
L 180.188577 84.92742 
L 183.467916 84.967566 
L 186.747255 85.013854 
L 190.026593 85.051305 
L 193.305932 85.084683 
L 196.585271 85.160609 
L 199.86461 85.217361 
L 203.143949 85.270654 
L 206.423288 85.316824 
L 209.702627 85.356153 
L 212.981965 85.393568 
L 216.261304 85.410588 
L 219.540643 85.368499 
L 222.819982 85.297871 
L 226.099321 85.146652 
L 229.37866 84.887411 
L 232.657998 84.605718 
L 235.937337 84.205377 
L 239.216676 83.779686 
L 242.496015 83.283339 
L 245.775354 82.612082 
L 249.054693 81.96546 
L 252.334032 81.09867 
L 255.61337 80.289769 
L 258.892709 79.241308 
L 262.172048 78.257532 
L 265.451387 77.183028 
L 268.730726 75.946486 
L 272.010065 74.772406 
L 275.289403 73.406649 
L 278.568742 72.082394 
L 281.848081 70.703834 
L 285.12742 69.164892 
L 288.406759 67.700113 
L 291.686098 66.055082 
L 294.965436 64.467517 
L 298.244775 62.837993 
L 301.524114 61.050247 
L 304.803453 59.358553 
L 308.082792 57.518345 
L 311.362131 55.784408 
L 314.64147 54.007279 
L 317.920808 52.106017 
L 321.200147 50.290873 
L 324.479486 48.451425 
L 327.758825 46.540855 
L 331.038164 44.683076 
L 334.317503 42.809901 
L 337.596841 40.879944 
L 340.87618 38.974818 
L 344.155519 37.031956 
L 347.434858 35.079914 
L 350.714197 33.150225 
L 353.993536 31.170573 
L 357.272874 29.188402 
L 360.552213 27.227179 
L 363.831552 25.27579 
L 367.110891 23.351307 
L 370.39023 21.446303 
L 373.669569 19.557293 
L 376.948908 17.758181 
L 380.228246 15.976404 
L 383.507585 14.257647 
" style="fill:none;stroke:#ff0000;stroke-linecap:square;stroke-width:1.5;"/>
    <defs>
     <path d="M 0 2.5 
C 0.663008 2.5 1.29895 2.236584 1.767767 1.767767 
C 2.236584 1.29895 2.5 0.663008 2.5 0 
C 2.5 -0.663008 2.236584 -1.29895 1.767767 -1.767767 
C 1.29895 -2.236584 0.663008 -2.5 0 -2.5 
C -0.663008 -2.5 -1.29895 -2.236584 -1.767767 -1.767767 
C -2.236584 -1.29895 -2.5 -0.663008 -2.5 0 
C -2.5 0.663008 -2.236584 1.29895 -1.767767 1.767767 
C -1.29895 2.236584 -0.663008 2.5 0 2.5 
z
" id="m815f32e1d3" style="stroke:#ff0000;"/>
    </defs>
    <g clip-path="url(#p410a5c7189)">
     <use style="fill:#ff0000;stroke:#ff0000;" x="58.85304" xlink:href="#m815f32e1d3" y="83.406728"/>
     <use style="fill:#ff0000;stroke:#ff0000;" x="91.646428" xlink:href="#m815f32e1d3" y="83.629657"/>
     <use style="fill:#ff0000;stroke:#ff0000;" x="124.439817" xlink:href="#m815f32e1d3" y="84.09437"/>
     <use style="fill:#ff0000;stroke:#ff0000;" x="157.233205" xlink:href="#m815f32e1d3" y="84.698244"/>
     <use style="fill:#ff0000;stroke:#ff0000;" x="190.026593" xlink:href="#m815f32e1d3" y="85.051305"/>
     <use style="fill:#ff0000;stroke:#ff0000;" x="222.819982" xlink:href="#m815f32e1d3" y="85.297871"/>
     <use style="fill:#ff0000;stroke:#ff0000;" x="255.61337" xlink:href="#m815f32e1d3" y="80.289769"/>
     <use style="fill:#ff0000;stroke:#ff0000;" x="288.406759" xlink:href="#m815f32e1d3" y="67.700113"/>
     <use style="fill:#ff0000;stroke:#ff0000;" x="321.200147" xlink:href="#m815f32e1d3" y="50.290873"/>
     <use style="fill:#ff0000;stroke:#ff0000;" x="353.993536" xlink:href="#m815f32e1d3" y="31.170573"/>
    </g>
   </g>
   <g id="line2d_11">
    <path clip-path="url(#p410a5c7189)" d="M 58.85304 83.406728 
L 62.132379 83.430499 
L 65.411717 83.419623 
L 68.691056 83.404012 
L 71.970395 83.366795 
L 75.249734 83.35012 
L 78.529073 83.368369 
L 81.808412 83.400517 
L 85.087751 83.4445 
L 88.367089 83.483811 
L 91.646428 83.537295 
L 94.925767 83.58346 
L 98.205106 83.615521 
L 101.484445 83.641009 
L 104.763784 83.661657 
L 108.043122 83.686435 
L 111.322461 83.719879 
L 114.6018 83.746895 
L 117.881139 83.786532 
L 121.160478 83.842442 
L 124.439817 83.90149 
L 127.719155 83.965756 
L 130.998494 84.026214 
L 134.277833 84.087965 
L 137.557172 84.141681 
L 140.836511 84.181469 
L 144.11585 84.225744 
L 147.395189 84.272148 
L 150.674527 84.341499 
L 153.953866 84.41916 
L 157.233205 84.478968 
L 160.512544 84.540741 
L 163.791883 84.597146 
L 167.071222 84.651098 
L 170.35056 84.677301 
L 173.629899 84.699705 
L 176.909238 84.696615 
L 180.188577 84.695536 
L 183.467916 84.722491 
L 186.747255 84.755852 
L 190.026593 84.789154 
L 193.305932 84.82936 
L 196.585271 84.891272 
L 199.86461 84.942362 
L 203.143949 84.987502 
L 206.423288 85.030836 
L 209.702627 85.085872 
L 212.981965 85.139304 
L 216.261304 85.175967 
L 219.540643 85.161603 
L 222.819982 85.074559 
L 226.099321 84.925585 
L 229.37866 84.701713 
L 232.657998 84.397605 
L 235.937337 84.002423 
L 239.216676 83.549334 
L 242.496015 83.033556 
L 245.775354 82.398593 
L 249.054693 81.621138 
L 252.334032 80.76616 
L 255.61337 79.858994 
L 258.892709 78.890391 
L 262.172048 77.859486 
L 265.451387 76.737038 
L 268.730726 75.551875 
L 272.010065 74.291255 
L 275.289403 72.966068 
L 278.568742 71.490182 
L 281.848081 69.974324 
L 285.12742 68.388325 
L 288.406759 66.806054 
L 291.686098 65.118117 
L 294.965436 63.549717 
L 298.244775 62.002832 
L 301.524114 60.475223 
L 304.803453 58.836023 
L 308.082792 57.076194 
L 311.362131 55.369663 
L 314.64147 53.828285 
L 317.920808 52.122072 
L 321.200147 50.389665 
L 324.479486 48.653678 
L 327.758825 46.895563 
L 331.038164 45.129681 
L 334.317503 43.437352 
L 337.596841 41.724298 
L 340.87618 39.975882 
L 344.155519 38.215534 
L 347.434858 36.457541 
L 350.714197 34.677979 
L 353.993536 32.824426 
L 357.272874 30.966623 
L 360.552213 29.086584 
L 363.831552 27.213796 
L 367.110891 25.31834 
L 370.39023 23.389555 
L 373.669569 21.480191 
L 376.948908 19.551231 
L 380.228246 17.687519 
L 383.507585 15.830597 
" style="fill:none;stroke:#0000ff;stroke-linecap:square;stroke-width:1.5;"/>
    <defs>
     <path d="M 0 2.5 
C 0.663008 2.5 1.29895 2.236584 1.767767 1.767767 
C 2.236584 1.29895 2.5 0.663008 2.5 0 
C 2.5 -0.663008 2.236584 -1.29895 1.767767 -1.767767 
C 1.29895 -2.236584 0.663008 -2.5 0 -2.5 
C -0.663008 -2.5 -1.29895 -2.236584 -1.767767 -1.767767 
C -2.236584 -1.29895 -2.5 -0.663008 -2.5 0 
C -2.5 0.663008 -2.236584 1.29895 -1.767767 1.767767 
C -1.29895 2.236584 -0.663008 2.5 0 2.5 
z
" id="md4b79cc2be" style="stroke:#0000ff;"/>
    </defs>
    <g clip-path="url(#p410a5c7189)">
     <use style="fill:#0000ff;stroke:#0000ff;" x="58.85304" xlink:href="#md4b79cc2be" y="83.406728"/>
     <use style="fill:#0000ff;stroke:#0000ff;" x="91.646428" xlink:href="#md4b79cc2be" y="83.537295"/>
     <use style="fill:#0000ff;stroke:#0000ff;" x="124.439817" xlink:href="#md4b79cc2be" y="83.90149"/>
     <use style="fill:#0000ff;stroke:#0000ff;" x="157.233205" xlink:href="#md4b79cc2be" y="84.478968"/>
     <use style="fill:#0000ff;stroke:#0000ff;" x="190.026593" xlink:href="#md4b79cc2be" y="84.789154"/>
     <use style="fill:#0000ff;stroke:#0000ff;" x="222.819982" xlink:href="#md4b79cc2be" y="85.074559"/>
     <use style="fill:#0000ff;stroke:#0000ff;" x="255.61337" xlink:href="#md4b79cc2be" y="79.858994"/>
     <use style="fill:#0000ff;stroke:#0000ff;" x="288.406759" xlink:href="#md4b79cc2be" y="66.806054"/>
     <use style="fill:#0000ff;stroke:#0000ff;" x="321.200147" xlink:href="#md4b79cc2be" y="50.389665"/>
     <use style="fill:#0000ff;stroke:#0000ff;" x="353.993536" xlink:href="#md4b79cc2be" y="32.824426"/>
    </g>
   </g>
   <g id="patch_3">
    <path d="M 42.620313 88.968235 
L 42.620313 10.7 
" style="fill:none;stroke:#000000;stroke-linecap:square;stroke-linejoin:miter;stroke-width:0.8;"/>
   </g>
   <g id="patch_4">
    <path d="M 399.740313 88.968235 
L 399.740313 10.7 
" style="fill:none;stroke:#000000;stroke-linecap:square;stroke-linejoin:miter;stroke-width:0.8;"/>
   </g>
   <g id="patch_5">
    <path d="M 42.620313 88.968235 
L 399.740313 88.968235 
" style="fill:none;stroke:#000000;stroke-linecap:square;stroke-linejoin:miter;stroke-width:0.8;"/>
   </g>
   <g id="patch_6">
    <path d="M 42.620313 10.7 
L 399.740313 10.7 
" style="fill:none;stroke:#000000;stroke-linecap:square;stroke-linejoin:miter;stroke-width:0.8;"/>
   </g>
  </g>
  <g id="axes_2">
   <g id="patch_7">
    <path d="M 42.620313 182.890118 
L 399.740313 182.890118 
L 399.740313 104.621882 
L 42.620313 104.621882 
z
" style="fill:#ffffff;"/>
   </g>
   <g id="matplotlib.axis_3">
    <g id="xtick_7">
     <g id="line2d_12">
      <g>
       <use style="stroke:#000000;stroke-width:0.8;" x="58.85304" xlink:href="#m20d904c6c6" y="182.890118"/>
      </g>
     </g>
     <g id="text_12">
      <!-- 0 -->
      <g transform="translate(55.67179 197.488555)scale(0.1 -0.1)">
       <use xlink:href="#DejaVuSans-30"/>
      </g>
     </g>
    </g>
    <g id="xtick_8">
     <g id="line2d_13">
      <g>
       <use style="stroke:#000000;stroke-width:0.8;" x="124.439817" xlink:href="#m20d904c6c6" y="182.890118"/>
      </g>
     </g>
     <g id="text_13">
      <!-- 20 -->
      <g transform="translate(118.077317 197.488555)scale(0.1 -0.1)">
       <use xlink:href="#DejaVuSans-32"/>
       <use x="63.623047" xlink:href="#DejaVuSans-30"/>
      </g>
     </g>
    </g>
    <g id="xtick_9">
     <g id="line2d_14">
      <g>
       <use style="stroke:#000000;stroke-width:0.8;" x="190.026593" xlink:href="#m20d904c6c6" y="182.890118"/>
      </g>
     </g>
     <g id="text_14">
      <!-- 40 -->
      <g transform="translate(183.664093 197.488555)scale(0.1 -0.1)">
       <use xlink:href="#DejaVuSans-34"/>
       <use x="63.623047" xlink:href="#DejaVuSans-30"/>
      </g>
     </g>
    </g>
    <g id="xtick_10">
     <g id="line2d_15">
      <g>
       <use style="stroke:#000000;stroke-width:0.8;" x="255.61337" xlink:href="#m20d904c6c6" y="182.890118"/>
      </g>
     </g>
     <g id="text_15">
      <!-- 60 -->
      <g transform="translate(249.25087 197.488555)scale(0.1 -0.1)">
       <use xlink:href="#DejaVuSans-36"/>
       <use x="63.623047" xlink:href="#DejaVuSans-30"/>
      </g>
     </g>
    </g>
    <g id="xtick_11">
     <g id="line2d_16">
      <g>
       <use style="stroke:#000000;stroke-width:0.8;" x="321.200147" xlink:href="#m20d904c6c6" y="182.890118"/>
      </g>
     </g>
     <g id="text_16">
      <!-- 80 -->
      <g transform="translate(314.837647 197.488555)scale(0.1 -0.1)">
       <use xlink:href="#DejaVuSans-38"/>
       <use x="63.623047" xlink:href="#DejaVuSans-30"/>
      </g>
     </g>
    </g>
    <g id="xtick_12">
     <g id="line2d_17">
      <g>
       <use style="stroke:#000000;stroke-width:0.8;" x="386.786924" xlink:href="#m20d904c6c6" y="182.890118"/>
      </g>
     </g>
     <g id="text_17">
      <!-- 100 -->
      <g transform="translate(377.243174 197.488555)scale(0.1 -0.1)">
       <use xlink:href="#DejaVuSans-31"/>
       <use x="63.623047" xlink:href="#DejaVuSans-30"/>
       <use x="127.246094" xlink:href="#DejaVuSans-30"/>
      </g>
     </g>
    </g>
    <g id="text_18">
     <!-- Time -->
     <g transform="translate(208.792813 211.16668)scale(0.1 -0.1)">
      <use xlink:href="#DejaVuSans-54"/>
      <use x="61.037109" xlink:href="#DejaVuSans-69"/>
      <use x="88.820312" xlink:href="#DejaVuSans-6d"/>
      <use x="186.232422" xlink:href="#DejaVuSans-65"/>
     </g>
    </g>
   </g>
   <g id="matplotlib.axis_4">
    <g id="ytick_4">
     <g id="line2d_18">
      <g>
       <use style="stroke:#000000;stroke-width:0.8;" x="42.620313" xlink:href="#m23457bf601" y="152.714272"/>
      </g>
     </g>
     <g id="text_19">
      <!-- −2 -->
      <defs>
       <path d="M 10.59375 35.5 
L 73.1875 35.5 
L 73.1875 27.203125 
L 10.59375 27.203125 
z
" id="DejaVuSans-2212"/>
      </defs>
      <g transform="translate(20.878125 156.513491)scale(0.1 -0.1)">
       <use xlink:href="#DejaVuSans-2212"/>
       <use x="83.789062" xlink:href="#DejaVuSans-32"/>
      </g>
     </g>
    </g>
    <g id="ytick_5">
     <g id="line2d_19">
      <g>
       <use style="stroke:#000000;stroke-width:0.8;" x="42.620313" xlink:href="#m23457bf601" y="108.179529"/>
      </g>
     </g>
     <g id="text_20">
      <!-- 0 -->
      <g transform="translate(29.257813 111.978748)scale(0.1 -0.1)">
       <use xlink:href="#DejaVuSans-30"/>
      </g>
     </g>
    </g>
    <g id="text_21">
     <!-- y -->
     <defs>
      <path d="M 32.171875 -5.078125 
Q 28.375 -14.84375 24.75 -17.8125 
Q 21.140625 -20.796875 15.09375 -20.796875 
L 7.90625 -20.796875 
L 7.90625 -13.28125 
L 13.1875 -13.28125 
Q 16.890625 -13.28125 18.9375 -11.515625 
Q 21 -9.765625 23.484375 -3.21875 
L 25.09375 0.875 
L 2.984375 54.6875 
L 12.5 54.6875 
L 29.59375 11.921875 
L 46.6875 54.6875 
L 56.203125 54.6875 
z
" id="DejaVuSans-79"/>
     </defs>
     <g transform="translate(14.798438 146.715375)rotate(-90)scale(0.1 -0.1)">
      <use xlink:href="#DejaVuSans-79"/>
     </g>
    </g>
   </g>
   <g id="line2d_20">
    <path clip-path="url(#p66aff2c5c7)" d="M 58.85304 108.179529 
L 62.132379 108.726512 
L 65.411717 109.231992 
L 68.691056 109.683129 
L 71.970395 110.011125 
L 75.249734 110.408306 
L 78.529073 110.871189 
L 81.808412 111.432894 
L 85.087751 111.983264 
L 88.367089 112.467865 
L 91.646428 112.880204 
L 94.925767 113.286855 
L 98.205106 113.698609 
L 101.484445 114.174508 
L 104.763784 114.585613 
L 108.043122 115.045707 
L 111.322461 115.50121 
L 114.6018 115.988883 
L 117.881139 116.504556 
L 121.160478 117.103965 
L 124.439817 117.792657 
L 127.719155 118.515736 
L 130.998494 119.114878 
L 134.277833 119.595131 
L 137.557172 120.058229 
L 140.836511 120.576719 
L 144.11585 121.074027 
L 147.395189 121.594753 
L 150.674527 122.130111 
L 153.953866 122.656688 
L 157.233205 123.092615 
L 160.512544 123.510281 
L 163.791883 123.831988 
L 167.071222 124.091004 
L 170.35056 124.431575 
L 173.629899 124.9043 
L 176.909238 125.395789 
L 180.188577 125.763094 
L 183.467916 126.090866 
L 186.747255 126.348662 
L 190.026593 126.611095 
L 193.305932 126.844973 
L 196.585271 127.138911 
L 199.86461 127.389393 
L 203.143949 127.623443 
L 206.423288 127.935152 
L 209.702627 128.220808 
L 212.981965 128.509008 
L 216.261304 128.725148 
L 219.540643 128.99767 
L 222.819982 129.179003 
L 226.099321 129.327133 
L 229.37866 129.506645 
L 232.657998 129.70458 
L 235.937337 130.01111 
L 239.216676 130.238145 
L 242.496015 130.435585 
L 245.775354 130.760198 
L 249.054693 131.0783 
L 252.334032 131.597535 
L 255.61337 131.869032 
L 258.892709 132.215842 
L 262.172048 132.634047 
L 265.451387 133.090325 
L 268.730726 133.68341 
L 272.010065 134.160085 
L 275.289403 134.750053 
L 278.568742 135.432872 
L 281.848081 135.911968 
L 285.12742 136.778608 
L 288.406759 137.211834 
L 291.686098 138.075068 
L 294.965436 138.960105 
L 298.244775 139.980117 
L 301.524114 141.321908 
L 304.803453 142.369282 
L 308.082792 143.944951 
L 311.362131 145.064907 
L 314.64147 146.306942 
L 317.920808 147.88972 
L 321.200147 149.36713 
L 324.479486 150.865994 
L 327.758825 152.48157 
L 331.038164 153.912275 
L 334.317503 155.511545 
L 337.596841 157.275174 
L 340.87618 159.065259 
L 344.155519 160.889585 
L 347.434858 162.644269 
L 350.714197 164.448226 
L 353.993536 165.945935 
L 357.272874 167.688116 
L 360.552213 169.467407 
L 363.831552 170.951351 
L 367.110891 172.51092 
L 370.39023 174.036119 
L 373.669569 175.417838 
L 376.948908 176.706077 
L 380.228246 178.011581 
L 383.507585 179.332471 
" style="fill:none;stroke:#ff0000;stroke-linecap:square;stroke-width:1.5;"/>
    <g clip-path="url(#p66aff2c5c7)">
     <use style="fill:#ff0000;stroke:#ff0000;" x="58.85304" xlink:href="#m815f32e1d3" y="108.179529"/>
     <use style="fill:#ff0000;stroke:#ff0000;" x="91.646428" xlink:href="#m815f32e1d3" y="112.880204"/>
     <use style="fill:#ff0000;stroke:#ff0000;" x="124.439817" xlink:href="#m815f32e1d3" y="117.792657"/>
     <use style="fill:#ff0000;stroke:#ff0000;" x="157.233205" xlink:href="#m815f32e1d3" y="123.092615"/>
     <use style="fill:#ff0000;stroke:#ff0000;" x="190.026593" xlink:href="#m815f32e1d3" y="126.611095"/>
     <use style="fill:#ff0000;stroke:#ff0000;" x="222.819982" xlink:href="#m815f32e1d3" y="129.179003"/>
     <use style="fill:#ff0000;stroke:#ff0000;" x="255.61337" xlink:href="#m815f32e1d3" y="131.869032"/>
     <use style="fill:#ff0000;stroke:#ff0000;" x="288.406759" xlink:href="#m815f32e1d3" y="137.211834"/>
     <use style="fill:#ff0000;stroke:#ff0000;" x="321.200147" xlink:href="#m815f32e1d3" y="149.36713"/>
     <use style="fill:#ff0000;stroke:#ff0000;" x="353.993536" xlink:href="#m815f32e1d3" y="165.945935"/>
    </g>
   </g>
   <g id="line2d_21">
    <path clip-path="url(#p66aff2c5c7)" d="M 58.85304 108.179529 
L 62.132379 108.955369 
L 65.411717 109.703574 
L 68.691056 110.392281 
L 71.970395 110.865157 
L 75.249734 111.249873 
L 78.529073 111.726581 
L 81.808412 112.447215 
L 85.087751 113.250039 
L 88.367089 114.033086 
L 91.646428 114.86726 
L 94.925767 115.728201 
L 98.205106 116.441855 
L 101.484445 117.083629 
L 104.763784 117.766579 
L 108.043122 118.441835 
L 111.322461 119.061689 
L 114.6018 119.648525 
L 117.881139 120.290315 
L 121.160478 121.015532 
L 124.439817 121.773567 
L 127.719155 122.543248 
L 130.998494 123.326502 
L 134.277833 124.016537 
L 137.557172 124.549621 
L 140.836511 125.131606 
L 144.11585 125.755096 
L 147.395189 126.389312 
L 150.674527 127.080162 
L 153.953866 127.76434 
L 157.233205 128.388271 
L 160.512544 129.005846 
L 163.791883 129.573474 
L 167.071222 130.159787 
L 170.35056 130.735198 
L 173.629899 131.38614 
L 176.909238 132.124178 
L 180.188577 132.81521 
L 183.467916 133.390897 
L 186.747255 134.027027 
L 190.026593 134.602711 
L 193.305932 135.178281 
L 196.585271 135.7234 
L 199.86461 136.201986 
L 203.143949 136.628927 
L 206.423288 137.073326 
L 209.702627 137.511989 
L 212.981965 138.041173 
L 216.261304 138.665187 
L 219.540643 139.30768 
L 222.819982 139.722829 
L 226.099321 140.087857 
L 229.37866 140.397175 
L 232.657998 140.771775 
L 235.937337 141.208816 
L 239.216676 141.588001 
L 242.496015 142.117773 
L 245.775354 142.623956 
L 249.054693 143.004621 
L 252.334032 143.574497 
L 255.61337 144.117805 
L 258.892709 144.450855 
L 262.172048 144.697578 
L 265.451387 144.891575 
L 268.730726 145.039318 
L 272.010065 145.064448 
L 275.289403 144.856599 
L 278.568742 144.709157 
L 281.848081 144.634826 
L 285.12742 144.408062 
L 288.406759 144.240731 
L 291.686098 143.843892 
L 294.965436 143.363294 
L 298.244775 142.956458 
L 301.524114 142.404616 
L 304.803453 141.749913 
L 308.082792 141.294062 
L 311.362131 141.033321 
L 314.64147 140.681348 
L 317.920808 140.355359 
L 321.200147 140.090174 
L 324.479486 139.649584 
L 327.758825 139.002587 
L 331.038164 138.368491 
L 334.317503 137.981832 
L 337.596841 137.604347 
L 340.87618 137.161293 
L 344.155519 136.576697 
L 347.434858 135.957395 
L 350.714197 135.357971 
L 353.993536 134.73118 
L 357.272874 134.108259 
L 360.552213 133.341391 
L 363.831552 132.660125 
L 367.110891 131.820383 
L 370.39023 130.876823 
L 373.669569 129.861366 
L 376.948908 128.743018 
L 380.228246 127.589389 
L 383.507585 126.318384 
" style="fill:none;stroke:#0000ff;stroke-linecap:square;stroke-width:1.5;"/>
    <g clip-path="url(#p66aff2c5c7)">
     <use style="fill:#0000ff;stroke:#0000ff;" x="58.85304" xlink:href="#md4b79cc2be" y="108.179529"/>
     <use style="fill:#0000ff;stroke:#0000ff;" x="91.646428" xlink:href="#md4b79cc2be" y="114.86726"/>
     <use style="fill:#0000ff;stroke:#0000ff;" x="124.439817" xlink:href="#md4b79cc2be" y="121.773567"/>
     <use style="fill:#0000ff;stroke:#0000ff;" x="157.233205" xlink:href="#md4b79cc2be" y="128.388271"/>
     <use style="fill:#0000ff;stroke:#0000ff;" x="190.026593" xlink:href="#md4b79cc2be" y="134.602711"/>
     <use style="fill:#0000ff;stroke:#0000ff;" x="222.819982" xlink:href="#md4b79cc2be" y="139.722829"/>
     <use style="fill:#0000ff;stroke:#0000ff;" x="255.61337" xlink:href="#md4b79cc2be" y="144.117805"/>
     <use style="fill:#0000ff;stroke:#0000ff;" x="288.406759" xlink:href="#md4b79cc2be" y="144.240731"/>
     <use style="fill:#0000ff;stroke:#0000ff;" x="321.200147" xlink:href="#md4b79cc2be" y="140.090174"/>
     <use style="fill:#0000ff;stroke:#0000ff;" x="353.993536" xlink:href="#md4b79cc2be" y="134.73118"/>
    </g>
   </g>
   <g id="patch_8">
    <path d="M 42.620313 182.890118 
L 42.620313 104.621882 
" style="fill:none;stroke:#000000;stroke-linecap:square;stroke-linejoin:miter;stroke-width:0.8;"/>
   </g>
   <g id="patch_9">
    <path d="M 399.740313 182.890118 
L 399.740313 104.621882 
" style="fill:none;stroke:#000000;stroke-linecap:square;stroke-linejoin:miter;stroke-width:0.8;"/>
   </g>
   <g id="patch_10">
    <path d="M 42.620313 182.890118 
L 399.740313 182.890118 
" style="fill:none;stroke:#000000;stroke-linecap:square;stroke-linejoin:miter;stroke-width:0.8;"/>
   </g>
   <g id="patch_11">
    <path d="M 42.620313 104.621882 
L 399.740313 104.621882 
" style="fill:none;stroke:#000000;stroke-linecap:square;stroke-linejoin:miter;stroke-width:0.8;"/>
   </g>
  </g>
  <g id="axes_3">
   <g id="patch_12">
    <path d="M 42.620313 276.812 
L 399.740313 276.812 
L 399.740313 198.543765 
L 42.620313 198.543765 
z
" style="fill:#ffffff;"/>
   </g>
   <g id="matplotlib.axis_5">
    <g id="xtick_13">
     <g id="line2d_22">
      <g>
       <use style="stroke:#000000;stroke-width:0.8;" x="58.85304" xlink:href="#m20d904c6c6" y="276.812"/>
      </g>
     </g>
     <g id="text_22">
      <!-- 0 -->
      <g transform="translate(55.67179 291.410438)scale(0.1 -0.1)">
       <use xlink:href="#DejaVuSans-30"/>
      </g>
     </g>
    </g>
    <g id="xtick_14">
     <g id="line2d_23">
      <g>
       <use style="stroke:#000000;stroke-width:0.8;" x="124.439817" xlink:href="#m20d904c6c6" y="276.812"/>
      </g>
     </g>
     <g id="text_23">
      <!-- 20 -->
      <g transform="translate(118.077317 291.410438)scale(0.1 -0.1)">
       <use xlink:href="#DejaVuSans-32"/>
       <use x="63.623047" xlink:href="#DejaVuSans-30"/>
      </g>
     </g>
    </g>
    <g id="xtick_15">
     <g id="line2d_24">
      <g>
       <use style="stroke:#000000;stroke-width:0.8;" x="190.026593" xlink:href="#m20d904c6c6" y="276.812"/>
      </g>
     </g>
     <g id="text_24">
      <!-- 40 -->
      <g transform="translate(183.664093 291.410438)scale(0.1 -0.1)">
       <use xlink:href="#DejaVuSans-34"/>
       <use x="63.623047" xlink:href="#DejaVuSans-30"/>
      </g>
     </g>
    </g>
    <g id="xtick_16">
     <g id="line2d_25">
      <g>
       <use style="stroke:#000000;stroke-width:0.8;" x="255.61337" xlink:href="#m20d904c6c6" y="276.812"/>
      </g>
     </g>
     <g id="text_25">
      <!-- 60 -->
      <g transform="translate(249.25087 291.410438)scale(0.1 -0.1)">
       <use xlink:href="#DejaVuSans-36"/>
       <use x="63.623047" xlink:href="#DejaVuSans-30"/>
      </g>
     </g>
    </g>
    <g id="xtick_17">
     <g id="line2d_26">
      <g>
       <use style="stroke:#000000;stroke-width:0.8;" x="321.200147" xlink:href="#m20d904c6c6" y="276.812"/>
      </g>
     </g>
     <g id="text_26">
      <!-- 80 -->
      <g transform="translate(314.837647 291.410438)scale(0.1 -0.1)">
       <use xlink:href="#DejaVuSans-38"/>
       <use x="63.623047" xlink:href="#DejaVuSans-30"/>
      </g>
     </g>
    </g>
    <g id="xtick_18">
     <g id="line2d_27">
      <g>
       <use style="stroke:#000000;stroke-width:0.8;" x="386.786924" xlink:href="#m20d904c6c6" y="276.812"/>
      </g>
     </g>
     <g id="text_27">
      <!-- 100 -->
      <g transform="translate(377.243174 291.410438)scale(0.1 -0.1)">
       <use xlink:href="#DejaVuSans-31"/>
       <use x="63.623047" xlink:href="#DejaVuSans-30"/>
       <use x="127.246094" xlink:href="#DejaVuSans-30"/>
      </g>
     </g>
    </g>
    <g id="text_28">
     <!-- Time -->
     <g transform="translate(208.792813 305.088562)scale(0.1 -0.1)">
      <use xlink:href="#DejaVuSans-54"/>
      <use x="61.037109" xlink:href="#DejaVuSans-69"/>
      <use x="88.820312" xlink:href="#DejaVuSans-6d"/>
      <use x="186.232422" xlink:href="#DejaVuSans-65"/>
     </g>
    </g>
   </g>
   <g id="matplotlib.axis_6">
    <g id="ytick_6">
     <g id="line2d_28">
      <g>
       <use style="stroke:#000000;stroke-width:0.8;" x="42.620313" xlink:href="#m23457bf601" y="273.254353"/>
      </g>
     </g>
     <g id="text_29">
      <!-- 0 -->
      <g transform="translate(29.257813 277.053572)scale(0.1 -0.1)">
       <use xlink:href="#DejaVuSans-30"/>
      </g>
     </g>
    </g>
    <g id="ytick_7">
     <g id="line2d_29">
      <g>
       <use style="stroke:#000000;stroke-width:0.8;" x="42.620313" xlink:href="#m23457bf601" y="224.818442"/>
      </g>
     </g>
     <g id="text_30">
      <!-- 50 -->
      <defs>
       <path d="M 10.796875 72.90625 
L 49.515625 72.90625 
L 49.515625 64.59375 
L 19.828125 64.59375 
L 19.828125 46.734375 
Q 21.96875 47.46875 24.109375 47.828125 
Q 26.265625 48.1875 28.421875 48.1875 
Q 40.625 48.1875 47.75 41.5 
Q 54.890625 34.8125 54.890625 23.390625 
Q 54.890625 11.625 47.5625 5.09375 
Q 40.234375 -1.421875 26.90625 -1.421875 
Q 22.3125 -1.421875 17.546875 -0.640625 
Q 12.796875 0.140625 7.71875 1.703125 
L 7.71875 11.625 
Q 12.109375 9.234375 16.796875 8.0625 
Q 21.484375 6.890625 26.703125 6.890625 
Q 35.15625 6.890625 40.078125 11.328125 
Q 45.015625 15.765625 45.015625 23.390625 
Q 45.015625 31 40.078125 35.4375 
Q 35.15625 39.890625 26.703125 39.890625 
Q 22.75 39.890625 18.8125 39.015625 
Q 14.890625 38.140625 10.796875 36.28125 
z
" id="DejaVuSans-35"/>
      </defs>
      <g transform="translate(22.895313 228.617661)scale(0.1 -0.1)">
       <use xlink:href="#DejaVuSans-35"/>
       <use x="63.623047" xlink:href="#DejaVuSans-30"/>
      </g>
     </g>
    </g>
    <g id="text_31">
     <!-- z -->
     <defs>
      <path d="M 5.515625 54.6875 
L 48.1875 54.6875 
L 48.1875 46.484375 
L 14.40625 7.171875 
L 48.1875 7.171875 
L 48.1875 0 
L 4.296875 0 
L 4.296875 8.203125 
L 38.09375 47.515625 
L 5.515625 47.515625 
z
" id="DejaVuSans-7a"/>
     </defs>
     <g transform="translate(16.815625 240.302101)rotate(-90)scale(0.1 -0.1)">
      <use xlink:href="#DejaVuSans-7a"/>
     </g>
    </g>
   </g>
   <g id="line2d_30">
    <path clip-path="url(#p5406c98f47)" d="M 58.85304 273.254353 
L 62.132379 271.795045 
L 65.411717 270.333876 
L 68.691056 268.872879 
L 71.970395 267.413526 
L 75.249734 265.958093 
L 78.529073 264.50647 
L 81.808412 263.047372 
L 85.087751 261.589839 
L 88.367089 260.134052 
L 91.646428 258.67808 
L 94.925767 257.221921 
L 98.205106 255.768081 
L 101.484445 254.311811 
L 104.763784 252.861228 
L 108.043122 251.41078 
L 111.322461 249.962802 
L 114.6018 248.513505 
L 117.881139 247.074228 
L 121.160478 245.645348 
L 124.439817 244.217887 
L 127.719155 242.800509 
L 130.998494 241.391944 
L 134.277833 239.994467 
L 137.557172 238.602459 
L 140.836511 237.218862 
L 144.11585 235.84549 
L 147.395189 234.479062 
L 150.674527 233.126635 
L 153.953866 231.789726 
L 157.233205 230.477176 
L 160.512544 229.183324 
L 163.791883 227.915747 
L 167.071222 226.674791 
L 170.35056 225.466824 
L 173.629899 224.28002 
L 176.909238 223.114922 
L 180.188577 221.986324 
L 183.467916 220.889931 
L 186.747255 219.826903 
L 190.026593 218.796498 
L 193.305932 217.804876 
L 196.585271 216.846797 
L 199.86461 215.934426 
L 203.143949 215.061495 
L 206.423288 214.226058 
L 209.702627 213.435146 
L 212.981965 212.682304 
L 216.261304 211.967102 
L 219.540643 211.294631 
L 222.819982 210.647524 
L 226.099321 210.02498 
L 229.37866 209.456803 
L 232.657998 208.85666 
L 235.937337 208.330935 
L 239.216676 207.750563 
L 242.496015 207.174404 
L 245.775354 206.711751 
L 249.054693 206.172146 
L 252.334032 205.78318 
L 255.61337 205.291674 
L 258.892709 204.967065 
L 262.172048 204.549038 
L 265.451387 204.155008 
L 268.730726 203.9075 
L 272.010065 203.556972 
L 275.289403 203.356122 
L 278.568742 203.06741 
L 281.848081 202.804189 
L 285.12742 202.696639 
L 288.406759 202.481569 
L 291.686098 202.420854 
L 294.965436 202.26083 
L 298.244775 202.122638 
L 301.524114 202.160072 
L 304.803453 202.101412 
L 308.082792 202.213182 
L 311.362131 202.225347 
L 314.64147 202.294073 
L 317.920808 202.514857 
L 321.200147 202.664512 
L 324.479486 202.859295 
L 327.758825 203.159617 
L 331.038164 203.420096 
L 334.317503 203.714898 
L 337.596841 204.06292 
L 340.87618 204.411142 
L 344.155519 204.773738 
L 347.434858 205.162062 
L 350.714197 205.557614 
L 353.993536 205.990867 
L 357.272874 206.41896 
L 360.552213 206.857755 
L 363.831552 207.338722 
L 367.110891 207.824914 
L 370.39023 208.328881 
L 373.669569 208.86394 
L 376.948908 209.407255 
L 380.228246 209.987273 
L 383.507585 210.566226 
" style="fill:none;stroke:#ff0000;stroke-linecap:square;stroke-width:1.5;"/>
    <g clip-path="url(#p5406c98f47)">
     <use style="fill:#ff0000;stroke:#ff0000;" x="58.85304" xlink:href="#m815f32e1d3" y="273.254353"/>
     <use style="fill:#ff0000;stroke:#ff0000;" x="91.646428" xlink:href="#m815f32e1d3" y="258.67808"/>
     <use style="fill:#ff0000;stroke:#ff0000;" x="124.439817" xlink:href="#m815f32e1d3" y="244.217887"/>
     <use style="fill:#ff0000;stroke:#ff0000;" x="157.233205" xlink:href="#m815f32e1d3" y="230.477176"/>
     <use style="fill:#ff0000;stroke:#ff0000;" x="190.026593" xlink:href="#m815f32e1d3" y="218.796498"/>
     <use style="fill:#ff0000;stroke:#ff0000;" x="222.819982" xlink:href="#m815f32e1d3" y="210.647524"/>
     <use style="fill:#ff0000;stroke:#ff0000;" x="255.61337" xlink:href="#m815f32e1d3" y="205.291674"/>
     <use style="fill:#ff0000;stroke:#ff0000;" x="288.406759" xlink:href="#m815f32e1d3" y="202.481569"/>
     <use style="fill:#ff0000;stroke:#ff0000;" x="321.200147" xlink:href="#m815f32e1d3" y="202.664512"/>
     <use style="fill:#ff0000;stroke:#ff0000;" x="353.993536" xlink:href="#m815f32e1d3" y="205.990867"/>
    </g>
   </g>
   <g id="line2d_31">
    <path clip-path="url(#p5406c98f47)" d="M 58.85304 273.254353 
L 62.132379 271.910673 
L 65.411717 270.586545 
L 68.691056 269.276719 
L 71.970395 267.935457 
L 75.249734 266.571481 
L 78.529073 265.199678 
L 81.808412 263.834533 
L 85.087751 262.48466 
L 88.367089 261.124624 
L 91.646428 259.757336 
L 94.925767 258.399028 
L 98.205106 257.059538 
L 101.484445 255.72085 
L 104.763784 254.377097 
L 108.043122 253.036333 
L 111.322461 251.673616 
L 114.6018 250.323494 
L 117.881139 248.962727 
L 121.160478 247.610021 
L 124.439817 246.265353 
L 127.719155 244.918828 
L 130.998494 243.581743 
L 134.277833 242.240637 
L 137.557172 240.889263 
L 140.836511 239.549796 
L 144.11585 238.190323 
L 147.395189 236.822035 
L 150.674527 235.506514 
L 153.953866 234.185336 
L 157.233205 232.897541 
L 160.512544 231.632599 
L 163.791883 230.396051 
L 167.071222 229.136486 
L 170.35056 227.888837 
L 173.629899 226.656144 
L 176.909238 225.425321 
L 180.188577 224.189583 
L 183.467916 222.966871 
L 186.747255 221.760519 
L 190.026593 220.588223 
L 193.305932 219.44495 
L 196.585271 218.36475 
L 199.86461 217.336599 
L 203.143949 216.352438 
L 206.423288 215.427307 
L 209.702627 214.543955 
L 212.981965 213.697698 
L 216.261304 212.895123 
L 219.540643 212.143456 
L 222.819982 211.462925 
L 226.099321 210.832846 
L 229.37866 210.241181 
L 232.657998 209.683913 
L 235.937337 209.121589 
L 239.216676 208.570063 
L 242.496015 208.081735 
L 245.775354 207.582823 
L 249.054693 207.054548 
L 252.334032 206.538586 
L 255.61337 206.068277 
L 258.892709 205.655505 
L 262.172048 205.262369 
L 265.451387 204.889721 
L 268.730726 204.548498 
L 272.010065 204.225494 
L 275.289403 203.930677 
L 278.568742 203.650864 
L 281.848081 203.382292 
L 285.12742 203.135368 
L 288.406759 202.91658 
L 291.686098 202.718863 
L 294.965436 202.573584 
L 298.244775 202.46746 
L 301.524114 202.38056 
L 304.803453 202.318108 
L 308.082792 202.298877 
L 311.362131 202.328817 
L 314.64147 202.384433 
L 317.920808 202.456389 
L 321.200147 202.566828 
L 324.479486 202.705552 
L 327.758825 202.877638 
L 331.038164 203.064018 
L 334.317503 203.26084 
L 337.596841 203.479 
L 340.87618 203.716908 
L 344.155519 203.965081 
L 347.434858 204.220039 
L 350.714197 204.490562 
L 353.993536 204.779791 
L 357.272874 205.085346 
L 360.552213 205.409075 
L 363.831552 205.751429 
L 367.110891 206.114469 
L 370.39023 206.50742 
L 373.669569 206.92 
L 376.948908 207.371626 
L 380.228246 207.83617 
L 383.507585 208.326789 
" style="fill:none;stroke:#0000ff;stroke-linecap:square;stroke-width:1.5;"/>
    <g clip-path="url(#p5406c98f47)">
     <use style="fill:#0000ff;stroke:#0000ff;" x="58.85304" xlink:href="#md4b79cc2be" y="273.254353"/>
     <use style="fill:#0000ff;stroke:#0000ff;" x="91.646428" xlink:href="#md4b79cc2be" y="259.757336"/>
     <use style="fill:#0000ff;stroke:#0000ff;" x="124.439817" xlink:href="#md4b79cc2be" y="246.265353"/>
     <use style="fill:#0000ff;stroke:#0000ff;" x="157.233205" xlink:href="#md4b79cc2be" y="232.897541"/>
     <use style="fill:#0000ff;stroke:#0000ff;" x="190.026593" xlink:href="#md4b79cc2be" y="220.588223"/>
     <use style="fill:#0000ff;stroke:#0000ff;" x="222.819982" xlink:href="#md4b79cc2be" y="211.462925"/>
     <use style="fill:#0000ff;stroke:#0000ff;" x="255.61337" xlink:href="#md4b79cc2be" y="206.068277"/>
     <use style="fill:#0000ff;stroke:#0000ff;" x="288.406759" xlink:href="#md4b79cc2be" y="202.91658"/>
     <use style="fill:#0000ff;stroke:#0000ff;" x="321.200147" xlink:href="#md4b79cc2be" y="202.566828"/>
     <use style="fill:#0000ff;stroke:#0000ff;" x="353.993536" xlink:href="#md4b79cc2be" y="204.779791"/>
    </g>
   </g>
   <g id="patch_13">
    <path d="M 42.620313 276.812 
L 42.620313 198.543765 
" style="fill:none;stroke:#000000;stroke-linecap:square;stroke-linejoin:miter;stroke-width:0.8;"/>
   </g>
   <g id="patch_14">
    <path d="M 399.740313 276.812 
L 399.740313 198.543765 
" style="fill:none;stroke:#000000;stroke-linecap:square;stroke-linejoin:miter;stroke-width:0.8;"/>
   </g>
   <g id="patch_15">
    <path d="M 42.620313 276.812 
L 399.740313 276.812 
" style="fill:none;stroke:#000000;stroke-linecap:square;stroke-linejoin:miter;stroke-width:0.8;"/>
   </g>
   <g id="patch_16">
    <path d="M 42.620313 198.543765 
L 399.740313 198.543765 
" style="fill:none;stroke:#000000;stroke-linecap:square;stroke-linejoin:miter;stroke-width:0.8;"/>
   </g>
   <g id="legend_1">
    <g id="patch_17">
     <path d="M 49.620313 271.812 
L 148.589063 271.812 
Q 150.589063 271.812 150.589063 269.812 
L 150.589063 241.45575 
Q 150.589063 239.45575 148.589063 239.45575 
L 49.620313 239.45575 
Q 47.620313 239.45575 47.620313 241.45575 
L 47.620313 269.812 
Q 47.620313 271.812 49.620313 271.812 
z
" style="fill:#ffffff;opacity:0.8;stroke:#cccccc;stroke-linejoin:miter;"/>
    </g>
    <g id="line2d_32">
     <path d="M 51.620313 247.554187 
L 71.620313 247.554187 
" style="fill:none;stroke:#ff0000;stroke-linecap:square;stroke-width:1.5;"/>
    </g>
    <g id="line2d_33">
     <g>
      <use style="fill:#ff0000;stroke:#ff0000;" x="61.620313" xlink:href="#m815f32e1d3" y="247.554187"/>
     </g>
    </g>
    <g id="text_32">
     <!-- Ground Truth -->
     <defs>
      <path d="M 59.515625 10.40625 
L 59.515625 29.984375 
L 43.40625 29.984375 
L 43.40625 38.09375 
L 69.28125 38.09375 
L 69.28125 6.78125 
Q 63.578125 2.734375 56.6875 0.65625 
Q 49.8125 -1.421875 42 -1.421875 
Q 24.90625 -1.421875 15.25 8.5625 
Q 5.609375 18.5625 5.609375 36.375 
Q 5.609375 54.25 15.25 64.234375 
Q 24.90625 74.21875 42 74.21875 
Q 49.125 74.21875 55.546875 72.453125 
Q 61.96875 70.703125 67.390625 67.28125 
L 67.390625 56.78125 
Q 61.921875 61.421875 55.765625 63.765625 
Q 49.609375 66.109375 42.828125 66.109375 
Q 29.4375 66.109375 22.71875 58.640625 
Q 16.015625 51.171875 16.015625 36.375 
Q 16.015625 21.625 22.71875 14.15625 
Q 29.4375 6.6875 42.828125 6.6875 
Q 48.046875 6.6875 52.140625 7.59375 
Q 56.25 8.5 59.515625 10.40625 
z
" id="DejaVuSans-47"/>
      <path d="M 41.109375 46.296875 
Q 39.59375 47.171875 37.8125 47.578125 
Q 36.03125 48 33.890625 48 
Q 26.265625 48 22.1875 43.046875 
Q 18.109375 38.09375 18.109375 28.8125 
L 18.109375 0 
L 9.078125 0 
L 9.078125 54.6875 
L 18.109375 54.6875 
L 18.109375 46.1875 
Q 20.953125 51.171875 25.484375 53.578125 
Q 30.03125 56 36.53125 56 
Q 37.453125 56 38.578125 55.875 
Q 39.703125 55.765625 41.0625 55.515625 
z
" id="DejaVuSans-72"/>
      <path d="M 30.609375 48.390625 
Q 23.390625 48.390625 19.1875 42.75 
Q 14.984375 37.109375 14.984375 27.296875 
Q 14.984375 17.484375 19.15625 11.84375 
Q 23.34375 6.203125 30.609375 6.203125 
Q 37.796875 6.203125 41.984375 11.859375 
Q 46.1875 17.53125 46.1875 27.296875 
Q 46.1875 37.015625 41.984375 42.703125 
Q 37.796875 48.390625 30.609375 48.390625 
z
M 30.609375 56 
Q 42.328125 56 49.015625 48.375 
Q 55.71875 40.765625 55.71875 27.296875 
Q 55.71875 13.875 49.015625 6.21875 
Q 42.328125 -1.421875 30.609375 -1.421875 
Q 18.84375 -1.421875 12.171875 6.21875 
Q 5.515625 13.875 5.515625 27.296875 
Q 5.515625 40.765625 12.171875 48.375 
Q 18.84375 56 30.609375 56 
z
" id="DejaVuSans-6f"/>
      <path d="M 8.5 21.578125 
L 8.5 54.6875 
L 17.484375 54.6875 
L 17.484375 21.921875 
Q 17.484375 14.15625 20.5 10.265625 
Q 23.53125 6.390625 29.59375 6.390625 
Q 36.859375 6.390625 41.078125 11.03125 
Q 45.3125 15.671875 45.3125 23.6875 
L 45.3125 54.6875 
L 54.296875 54.6875 
L 54.296875 0 
L 45.3125 0 
L 45.3125 8.40625 
Q 42.046875 3.421875 37.71875 1 
Q 33.40625 -1.421875 27.6875 -1.421875 
Q 18.265625 -1.421875 13.375 4.4375 
Q 8.5 10.296875 8.5 21.578125 
z
M 31.109375 56 
z
" id="DejaVuSans-75"/>
      <path d="M 54.890625 33.015625 
L 54.890625 0 
L 45.90625 0 
L 45.90625 32.71875 
Q 45.90625 40.484375 42.875 44.328125 
Q 39.84375 48.1875 33.796875 48.1875 
Q 26.515625 48.1875 22.3125 43.546875 
Q 18.109375 38.921875 18.109375 30.90625 
L 18.109375 0 
L 9.078125 0 
L 9.078125 54.6875 
L 18.109375 54.6875 
L 18.109375 46.1875 
Q 21.34375 51.125 25.703125 53.5625 
Q 30.078125 56 35.796875 56 
Q 45.21875 56 50.046875 50.171875 
Q 54.890625 44.34375 54.890625 33.015625 
z
" id="DejaVuSans-6e"/>
      <path d="M 45.40625 46.390625 
L 45.40625 75.984375 
L 54.390625 75.984375 
L 54.390625 0 
L 45.40625 0 
L 45.40625 8.203125 
Q 42.578125 3.328125 38.25 0.953125 
Q 33.9375 -1.421875 27.875 -1.421875 
Q 17.96875 -1.421875 11.734375 6.484375 
Q 5.515625 14.40625 5.515625 27.296875 
Q 5.515625 40.1875 11.734375 48.09375 
Q 17.96875 56 27.875 56 
Q 33.9375 56 38.25 53.625 
Q 42.578125 51.265625 45.40625 46.390625 
z
M 14.796875 27.296875 
Q 14.796875 17.390625 18.875 11.75 
Q 22.953125 6.109375 30.078125 6.109375 
Q 37.203125 6.109375 41.296875 11.75 
Q 45.40625 17.390625 45.40625 27.296875 
Q 45.40625 37.203125 41.296875 42.84375 
Q 37.203125 48.484375 30.078125 48.484375 
Q 22.953125 48.484375 18.875 42.84375 
Q 14.796875 37.203125 14.796875 27.296875 
z
" id="DejaVuSans-64"/>
      <path id="DejaVuSans-20"/>
      <path d="M 18.3125 70.21875 
L 18.3125 54.6875 
L 36.8125 54.6875 
L 36.8125 47.703125 
L 18.3125 47.703125 
L 18.3125 18.015625 
Q 18.3125 11.328125 20.140625 9.421875 
Q 21.96875 7.515625 27.59375 7.515625 
L 36.8125 7.515625 
L 36.8125 0 
L 27.59375 0 
Q 17.1875 0 13.234375 3.875 
Q 9.28125 7.765625 9.28125 18.015625 
L 9.28125 47.703125 
L 2.6875 47.703125 
L 2.6875 54.6875 
L 9.28125 54.6875 
L 9.28125 70.21875 
z
" id="DejaVuSans-74"/>
      <path d="M 54.890625 33.015625 
L 54.890625 0 
L 45.90625 0 
L 45.90625 32.71875 
Q 45.90625 40.484375 42.875 44.328125 
Q 39.84375 48.1875 33.796875 48.1875 
Q 26.515625 48.1875 22.3125 43.546875 
Q 18.109375 38.921875 18.109375 30.90625 
L 18.109375 0 
L 9.078125 0 
L 9.078125 75.984375 
L 18.109375 75.984375 
L 18.109375 46.1875 
Q 21.34375 51.125 25.703125 53.5625 
Q 30.078125 56 35.796875 56 
Q 45.21875 56 50.046875 50.171875 
Q 54.890625 44.34375 54.890625 33.015625 
z
" id="DejaVuSans-68"/>
     </defs>
     <g transform="translate(79.620313 251.054187)scale(0.1 -0.1)">
      <use xlink:href="#DejaVuSans-47"/>
      <use x="77.490234" xlink:href="#DejaVuSans-72"/>
      <use x="118.572266" xlink:href="#DejaVuSans-6f"/>
      <use x="179.753906" xlink:href="#DejaVuSans-75"/>
      <use x="243.132812" xlink:href="#DejaVuSans-6e"/>
      <use x="306.511719" xlink:href="#DejaVuSans-64"/>
      <use x="369.988281" xlink:href="#DejaVuSans-20"/>
      <use x="401.775391" xlink:href="#DejaVuSans-54"/>
      <use x="462.640625" xlink:href="#DejaVuSans-72"/>
      <use x="503.753906" xlink:href="#DejaVuSans-75"/>
      <use x="567.132812" xlink:href="#DejaVuSans-74"/>
      <use x="606.341797" xlink:href="#DejaVuSans-68"/>
     </g>
    </g>
    <g id="line2d_34">
     <path d="M 51.620313 262.232312 
L 71.620313 262.232312 
" style="fill:none;stroke:#0000ff;stroke-linecap:square;stroke-width:1.5;"/>
    </g>
    <g id="line2d_35">
     <g>
      <use style="fill:#0000ff;stroke:#0000ff;" x="61.620313" xlink:href="#md4b79cc2be" y="262.232312"/>
     </g>
    </g>
    <g id="text_33">
     <!-- Prediction -->
     <defs>
      <path d="M 19.671875 64.796875 
L 19.671875 37.40625 
L 32.078125 37.40625 
Q 38.96875 37.40625 42.71875 40.96875 
Q 46.484375 44.53125 46.484375 51.125 
Q 46.484375 57.671875 42.71875 61.234375 
Q 38.96875 64.796875 32.078125 64.796875 
z
M 9.8125 72.90625 
L 32.078125 72.90625 
Q 44.34375 72.90625 50.609375 67.359375 
Q 56.890625 61.8125 56.890625 51.125 
Q 56.890625 40.328125 50.609375 34.8125 
Q 44.34375 29.296875 32.078125 29.296875 
L 19.671875 29.296875 
L 19.671875 0 
L 9.8125 0 
z
" id="DejaVuSans-50"/>
      <path d="M 48.78125 52.59375 
L 48.78125 44.1875 
Q 44.96875 46.296875 41.140625 47.34375 
Q 37.3125 48.390625 33.40625 48.390625 
Q 24.65625 48.390625 19.8125 42.84375 
Q 14.984375 37.3125 14.984375 27.296875 
Q 14.984375 17.28125 19.8125 11.734375 
Q 24.65625 6.203125 33.40625 6.203125 
Q 37.3125 6.203125 41.140625 7.25 
Q 44.96875 8.296875 48.78125 10.40625 
L 48.78125 2.09375 
Q 45.015625 0.34375 40.984375 -0.53125 
Q 36.96875 -1.421875 32.421875 -1.421875 
Q 20.0625 -1.421875 12.78125 6.34375 
Q 5.515625 14.109375 5.515625 27.296875 
Q 5.515625 40.671875 12.859375 48.328125 
Q 20.21875 56 33.015625 56 
Q 37.15625 56 41.109375 55.140625 
Q 45.0625 54.296875 48.78125 52.59375 
z
" id="DejaVuSans-63"/>
     </defs>
     <g transform="translate(79.620313 265.732312)scale(0.1 -0.1)">
      <use xlink:href="#DejaVuSans-50"/>
      <use x="60.287109" xlink:href="#DejaVuSans-72"/>
      <use x="101.369141" xlink:href="#DejaVuSans-65"/>
      <use x="162.892578" xlink:href="#DejaVuSans-64"/>
      <use x="226.369141" xlink:href="#DejaVuSans-69"/>
      <use x="254.152344" xlink:href="#DejaVuSans-63"/>
      <use x="309.132812" xlink:href="#DejaVuSans-74"/>
      <use x="348.341797" xlink:href="#DejaVuSans-69"/>
      <use x="376.125" xlink:href="#DejaVuSans-6f"/>
      <use x="437.306641" xlink:href="#DejaVuSans-6e"/>
     </g>
    </g>
   </g>
  </g>
 </g>
 <defs>
  <clipPath id="p410a5c7189">
   <rect height="78.268235" width="357.12" x="42.620313" y="10.7"/>
  </clipPath>
  <clipPath id="p66aff2c5c7">
   <rect height="78.268235" width="357.12" x="42.620313" y="104.621882"/>
  </clipPath>
  <clipPath id="p5406c98f47">
   <rect height="78.268235" width="357.12" x="42.620313" y="198.543765"/>
  </clipPath>
 </defs>
</svg>
