<?xml version="1.0" encoding="utf-8" standalone="no"?>
<!DOCTYPE svg PUBLIC "-//W3C//DTD SVG 1.1//EN"
  "http://www.w3.org/Graphics/SVG/1.1/DTD/svg11.dtd">
<!-- Created with matplotlib (http://matplotlib.org/) -->
<svg height="314pt" version="1.1" viewBox="0 0 416 314" width="416pt" xmlns="http://www.w3.org/2000/svg" xmlns:xlink="http://www.w3.org/1999/xlink">
 <defs>
  <style type="text/css">
*{stroke-linecap:butt;stroke-linejoin:round;}
  </style>
 </defs>
 <g id="figure_1">
  <g id="patch_1">
   <path d="M 0 314.36825 
L 416.802812 314.36825 
L 416.802812 0 
L 0 0 
z
" style="fill:#ffffff;"/>
  </g>
  <g id="axes_1">
   <g id="patch_2">
    <path d="M 48.982813 88.968235 
L 406.102813 88.968235 
L 406.102813 10.7 
L 48.982813 10.7 
z
" style="fill:#ffffff;"/>
   </g>
   <g id="matplotlib.axis_1">
    <g id="xtick_1">
     <g id="line2d_1">
      <defs>
       <path d="M 0 0 
L 0 3.5 
" id="m626b96faca" style="stroke:#000000;stroke-width:0.8;"/>
      </defs>
      <g>
       <use style="stroke:#000000;stroke-width:0.8;" x="65.21554" xlink:href="#m626b96faca" y="88.968235"/>
      </g>
     </g>
     <g id="text_1">
      <!-- 0 -->
      <defs>
       <path d="M 31.78125 66.40625 
Q 24.171875 66.40625 20.328125 58.90625 
Q 16.5 51.421875 16.5 36.375 
Q 16.5 21.390625 20.328125 13.890625 
Q 24.171875 6.390625 31.78125 6.390625 
Q 39.453125 6.390625 43.28125 13.890625 
Q 47.125 21.390625 47.125 36.375 
Q 47.125 51.421875 43.28125 58.90625 
Q 39.453125 66.40625 31.78125 66.40625 
z
M 31.78125 74.21875 
Q 44.046875 74.21875 50.515625 64.515625 
Q 56.984375 54.828125 56.984375 36.375 
Q 56.984375 17.96875 50.515625 8.265625 
Q 44.046875 -1.421875 31.78125 -1.421875 
Q 19.53125 -1.421875 13.0625 8.265625 
Q 6.59375 17.96875 6.59375 36.375 
Q 6.59375 54.828125 13.0625 64.515625 
Q 19.53125 74.21875 31.78125 74.21875 
z
" id="DejaVuSans-30"/>
      </defs>
      <g transform="translate(62.03429 103.566673)scale(0.1 -0.1)">
       <use xlink:href="#DejaVuSans-30"/>
      </g>
     </g>
    </g>
    <g id="xtick_2">
     <g id="line2d_2">
      <g>
       <use style="stroke:#000000;stroke-width:0.8;" x="130.802317" xlink:href="#m626b96faca" y="88.968235"/>
      </g>
     </g>
     <g id="text_2">
      <!-- 20 -->
      <defs>
       <path d="M 19.1875 8.296875 
L 53.609375 8.296875 
L 53.609375 0 
L 7.328125 0 
L 7.328125 8.296875 
Q 12.9375 14.109375 22.625 23.890625 
Q 32.328125 33.6875 34.8125 36.53125 
Q 39.546875 41.84375 41.421875 45.53125 
Q 43.3125 49.21875 43.3125 52.78125 
Q 43.3125 58.59375 39.234375 62.25 
Q 35.15625 65.921875 28.609375 65.921875 
Q 23.96875 65.921875 18.8125 64.3125 
Q 13.671875 62.703125 7.8125 59.421875 
L 7.8125 69.390625 
Q 13.765625 71.78125 18.9375 73 
Q 24.125 74.21875 28.421875 74.21875 
Q 39.75 74.21875 46.484375 68.546875 
Q 53.21875 62.890625 53.21875 53.421875 
Q 53.21875 48.921875 51.53125 44.890625 
Q 49.859375 40.875 45.40625 35.40625 
Q 44.1875 33.984375 37.640625 27.21875 
Q 31.109375 20.453125 19.1875 8.296875 
z
" id="DejaVuSans-32"/>
      </defs>
      <g transform="translate(124.439817 103.566673)scale(0.1 -0.1)">
       <use xlink:href="#DejaVuSans-32"/>
       <use x="63.623047" xlink:href="#DejaVuSans-30"/>
      </g>
     </g>
    </g>
    <g id="xtick_3">
     <g id="line2d_3">
      <g>
       <use style="stroke:#000000;stroke-width:0.8;" x="196.389093" xlink:href="#m626b96faca" y="88.968235"/>
      </g>
     </g>
     <g id="text_3">
      <!-- 40 -->
      <defs>
       <path d="M 37.796875 64.3125 
L 12.890625 25.390625 
L 37.796875 25.390625 
z
M 35.203125 72.90625 
L 47.609375 72.90625 
L 47.609375 25.390625 
L 58.015625 25.390625 
L 58.015625 17.1875 
L 47.609375 17.1875 
L 47.609375 0 
L 37.796875 0 
L 37.796875 17.1875 
L 4.890625 17.1875 
L 4.890625 26.703125 
z
" id="DejaVuSans-34"/>
      </defs>
      <g transform="translate(190.026593 103.566673)scale(0.1 -0.1)">
       <use xlink:href="#DejaVuSans-34"/>
       <use x="63.623047" xlink:href="#DejaVuSans-30"/>
      </g>
     </g>
    </g>
    <g id="xtick_4">
     <g id="line2d_4">
      <g>
       <use style="stroke:#000000;stroke-width:0.8;" x="261.97587" xlink:href="#m626b96faca" y="88.968235"/>
      </g>
     </g>
     <g id="text_4">
      <!-- 60 -->
      <defs>
       <path d="M 33.015625 40.375 
Q 26.375 40.375 22.484375 35.828125 
Q 18.609375 31.296875 18.609375 23.390625 
Q 18.609375 15.53125 22.484375 10.953125 
Q 26.375 6.390625 33.015625 6.390625 
Q 39.65625 6.390625 43.53125 10.953125 
Q 47.40625 15.53125 47.40625 23.390625 
Q 47.40625 31.296875 43.53125 35.828125 
Q 39.65625 40.375 33.015625 40.375 
z
M 52.59375 71.296875 
L 52.59375 62.3125 
Q 48.875 64.0625 45.09375 64.984375 
Q 41.3125 65.921875 37.59375 65.921875 
Q 27.828125 65.921875 22.671875 59.328125 
Q 17.53125 52.734375 16.796875 39.40625 
Q 19.671875 43.65625 24.015625 45.921875 
Q 28.375 48.1875 33.59375 48.1875 
Q 44.578125 48.1875 50.953125 41.515625 
Q 57.328125 34.859375 57.328125 23.390625 
Q 57.328125 12.15625 50.6875 5.359375 
Q 44.046875 -1.421875 33.015625 -1.421875 
Q 20.359375 -1.421875 13.671875 8.265625 
Q 6.984375 17.96875 6.984375 36.375 
Q 6.984375 53.65625 15.1875 63.9375 
Q 23.390625 74.21875 37.203125 74.21875 
Q 40.921875 74.21875 44.703125 73.484375 
Q 48.484375 72.75 52.59375 71.296875 
z
" id="DejaVuSans-36"/>
      </defs>
      <g transform="translate(255.61337 103.566673)scale(0.1 -0.1)">
       <use xlink:href="#DejaVuSans-36"/>
       <use x="63.623047" xlink:href="#DejaVuSans-30"/>
      </g>
     </g>
    </g>
    <g id="xtick_5">
     <g id="line2d_5">
      <g>
       <use style="stroke:#000000;stroke-width:0.8;" x="327.562647" xlink:href="#m626b96faca" y="88.968235"/>
      </g>
     </g>
     <g id="text_5">
      <!-- 80 -->
      <defs>
       <path d="M 31.78125 34.625 
Q 24.75 34.625 20.71875 30.859375 
Q 16.703125 27.09375 16.703125 20.515625 
Q 16.703125 13.921875 20.71875 10.15625 
Q 24.75 6.390625 31.78125 6.390625 
Q 38.8125 6.390625 42.859375 10.171875 
Q 46.921875 13.96875 46.921875 20.515625 
Q 46.921875 27.09375 42.890625 30.859375 
Q 38.875 34.625 31.78125 34.625 
z
M 21.921875 38.8125 
Q 15.578125 40.375 12.03125 44.71875 
Q 8.5 49.078125 8.5 55.328125 
Q 8.5 64.0625 14.71875 69.140625 
Q 20.953125 74.21875 31.78125 74.21875 
Q 42.671875 74.21875 48.875 69.140625 
Q 55.078125 64.0625 55.078125 55.328125 
Q 55.078125 49.078125 51.53125 44.71875 
Q 48 40.375 41.703125 38.8125 
Q 48.828125 37.15625 52.796875 32.3125 
Q 56.78125 27.484375 56.78125 20.515625 
Q 56.78125 9.90625 50.3125 4.234375 
Q 43.84375 -1.421875 31.78125 -1.421875 
Q 19.734375 -1.421875 13.25 4.234375 
Q 6.78125 9.90625 6.78125 20.515625 
Q 6.78125 27.484375 10.78125 32.3125 
Q 14.796875 37.15625 21.921875 38.8125 
z
M 18.3125 54.390625 
Q 18.3125 48.734375 21.84375 45.5625 
Q 25.390625 42.390625 31.78125 42.390625 
Q 38.140625 42.390625 41.71875 45.5625 
Q 45.3125 48.734375 45.3125 54.390625 
Q 45.3125 60.0625 41.71875 63.234375 
Q 38.140625 66.40625 31.78125 66.40625 
Q 25.390625 66.40625 21.84375 63.234375 
Q 18.3125 60.0625 18.3125 54.390625 
z
" id="DejaVuSans-38"/>
      </defs>
      <g transform="translate(321.200147 103.566673)scale(0.1 -0.1)">
       <use xlink:href="#DejaVuSans-38"/>
       <use x="63.623047" xlink:href="#DejaVuSans-30"/>
      </g>
     </g>
    </g>
    <g id="xtick_6">
     <g id="line2d_6">
      <g>
       <use style="stroke:#000000;stroke-width:0.8;" x="393.149424" xlink:href="#m626b96faca" y="88.968235"/>
      </g>
     </g>
     <g id="text_6">
      <!-- 100 -->
      <defs>
       <path d="M 12.40625 8.296875 
L 28.515625 8.296875 
L 28.515625 63.921875 
L 10.984375 60.40625 
L 10.984375 69.390625 
L 28.421875 72.90625 
L 38.28125 72.90625 
L 38.28125 8.296875 
L 54.390625 8.296875 
L 54.390625 0 
L 12.40625 0 
z
" id="DejaVuSans-31"/>
      </defs>
      <g transform="translate(383.605674 103.566673)scale(0.1 -0.1)">
       <use xlink:href="#DejaVuSans-31"/>
       <use x="63.623047" xlink:href="#DejaVuSans-30"/>
       <use x="127.246094" xlink:href="#DejaVuSans-30"/>
      </g>
     </g>
    </g>
    <g id="text_7">
     <!-- Time -->
     <defs>
      <path d="M -0.296875 72.90625 
L 61.375 72.90625 
L 61.375 64.59375 
L 35.5 64.59375 
L 35.5 0 
L 25.59375 0 
L 25.59375 64.59375 
L -0.296875 64.59375 
z
" id="DejaVuSans-54"/>
      <path d="M 9.421875 54.6875 
L 18.40625 54.6875 
L 18.40625 0 
L 9.421875 0 
z
M 9.421875 75.984375 
L 18.40625 75.984375 
L 18.40625 64.59375 
L 9.421875 64.59375 
z
" id="DejaVuSans-69"/>
      <path d="M 52 44.1875 
Q 55.375 50.25 60.0625 53.125 
Q 64.75 56 71.09375 56 
Q 79.640625 56 84.28125 50.015625 
Q 88.921875 44.046875 88.921875 33.015625 
L 88.921875 0 
L 79.890625 0 
L 79.890625 32.71875 
Q 79.890625 40.578125 77.09375 44.375 
Q 74.3125 48.1875 68.609375 48.1875 
Q 61.625 48.1875 57.5625 43.546875 
Q 53.515625 38.921875 53.515625 30.90625 
L 53.515625 0 
L 44.484375 0 
L 44.484375 32.71875 
Q 44.484375 40.625 41.703125 44.40625 
Q 38.921875 48.1875 33.109375 48.1875 
Q 26.21875 48.1875 22.15625 43.53125 
Q 18.109375 38.875 18.109375 30.90625 
L 18.109375 0 
L 9.078125 0 
L 9.078125 54.6875 
L 18.109375 54.6875 
L 18.109375 46.1875 
Q 21.1875 51.21875 25.484375 53.609375 
Q 29.78125 56 35.6875 56 
Q 41.65625 56 45.828125 52.96875 
Q 50 49.953125 52 44.1875 
z
" id="DejaVuSans-6d"/>
      <path d="M 56.203125 29.59375 
L 56.203125 25.203125 
L 14.890625 25.203125 
Q 15.484375 15.921875 20.484375 11.0625 
Q 25.484375 6.203125 34.421875 6.203125 
Q 39.59375 6.203125 44.453125 7.46875 
Q 49.3125 8.734375 54.109375 11.28125 
L 54.109375 2.78125 
Q 49.265625 0.734375 44.1875 -0.34375 
Q 39.109375 -1.421875 33.890625 -1.421875 
Q 20.796875 -1.421875 13.15625 6.1875 
Q 5.515625 13.8125 5.515625 26.8125 
Q 5.515625 40.234375 12.765625 48.109375 
Q 20.015625 56 32.328125 56 
Q 43.359375 56 49.78125 48.890625 
Q 56.203125 41.796875 56.203125 29.59375 
z
M 47.21875 32.234375 
Q 47.125 39.59375 43.09375 43.984375 
Q 39.0625 48.390625 32.421875 48.390625 
Q 24.90625 48.390625 20.390625 44.140625 
Q 15.875 39.890625 15.1875 32.171875 
z
" id="DejaVuSans-65"/>
     </defs>
     <g transform="translate(215.155313 117.244798)scale(0.1 -0.1)">
      <use xlink:href="#DejaVuSans-54"/>
      <use x="61.037109" xlink:href="#DejaVuSans-69"/>
      <use x="88.820312" xlink:href="#DejaVuSans-6d"/>
      <use x="186.232422" xlink:href="#DejaVuSans-65"/>
     </g>
    </g>
   </g>
   <g id="matplotlib.axis_2">
    <g id="ytick_1">
     <g id="line2d_7">
      <defs>
       <path d="M 0 0 
L -3.5 0 
" id="mc0154370ce" style="stroke:#000000;stroke-width:0.8;"/>
      </defs>
      <g>
       <use style="stroke:#000000;stroke-width:0.8;" x="48.982813" xlink:href="#mc0154370ce" y="62.600246"/>
      </g>
     </g>
     <g id="text_8">
      <!-- −10 -->
      <defs>
       <path d="M 10.59375 35.5 
L 73.1875 35.5 
L 73.1875 27.203125 
L 10.59375 27.203125 
z
" id="DejaVuSans-2212"/>
      </defs>
      <g transform="translate(20.878125 66.399465)scale(0.1 -0.1)">
       <use xlink:href="#DejaVuSans-2212"/>
       <use x="83.789062" xlink:href="#DejaVuSans-31"/>
       <use x="147.412109" xlink:href="#DejaVuSans-30"/>
      </g>
     </g>
    </g>
    <g id="ytick_2">
     <g id="line2d_8">
      <g>
       <use style="stroke:#000000;stroke-width:0.8;" x="48.982813" xlink:href="#mc0154370ce" y="14.299321"/>
      </g>
     </g>
     <g id="text_9">
      <!-- 0 -->
      <g transform="translate(35.620313 18.098539)scale(0.1 -0.1)">
       <use xlink:href="#DejaVuSans-30"/>
      </g>
     </g>
    </g>
    <g id="text_10">
     <!-- x -->
     <defs>
      <path d="M 54.890625 54.6875 
L 35.109375 28.078125 
L 55.90625 0 
L 45.3125 0 
L 29.390625 21.484375 
L 13.484375 0 
L 2.875 0 
L 24.125 28.609375 
L 4.6875 54.6875 
L 15.28125 54.6875 
L 29.78125 35.203125 
L 44.28125 54.6875 
z
" id="DejaVuSans-78"/>
     </defs>
     <g transform="translate(14.798438 52.793493)rotate(-90)scale(0.1 -0.1)">
      <use xlink:href="#DejaVuSans-78"/>
     </g>
    </g>
   </g>
   <g id="line2d_9">
    <path clip-path="url(#p14e7e86e37)" d="M 65.21554 14.299321 
L 68.494879 14.314029 
L 71.774217 14.333725 
L 75.053556 14.360872 
L 78.332895 14.408203 
L 81.612234 14.466583 
L 84.891573 14.513656 
L 88.170912 14.559753 
L 91.450251 14.646044 
L 94.729589 14.767045 
L 98.008928 14.890943 
L 101.288267 15.013927 
L 104.567606 15.163953 
L 107.846945 15.375104 
L 111.126284 15.623845 
L 114.405622 15.898084 
L 117.684961 16.187802 
L 120.9643 16.480105 
L 124.243639 16.847374 
L 127.522978 17.297936 
L 130.802317 17.755535 
L 134.081655 18.238048 
L 137.360994 18.746337 
L 140.640333 19.275487 
L 143.919672 19.792237 
L 147.199011 20.335389 
L 150.47835 20.910987 
L 153.757689 21.546403 
L 157.037027 22.21159 
L 160.316366 22.831334 
L 163.595705 23.457505 
L 166.875044 24.174308 
L 170.154383 24.91723 
L 173.433722 25.67066 
L 176.71306 26.424374 
L 179.992399 27.235762 
L 183.271738 28.03948 
L 186.551077 28.904738 
L 189.830416 29.767035 
L 193.109755 30.661235 
L 196.389093 31.574759 
L 199.668432 32.51125 
L 202.947771 33.416211 
L 206.22711 34.351292 
L 209.506449 35.300736 
L 212.785788 36.226794 
L 216.065127 37.136715 
L 219.344465 38.015061 
L 222.623804 38.901941 
L 225.903143 39.80348 
L 229.182482 40.712148 
L 232.461821 41.593921 
L 235.74116 42.471345 
L 239.020498 43.327206 
L 242.299837 44.189637 
L 245.579176 45.041984 
L 248.858515 45.873459 
L 252.137854 46.698238 
L 255.417193 47.527313 
L 258.696532 48.35685 
L 261.97587 49.193324 
L 265.255209 50.03702 
L 268.534548 50.890445 
L 271.813887 51.745344 
L 275.093226 52.604794 
L 278.372565 53.466123 
L 281.651903 54.342626 
L 284.931242 55.220538 
L 288.210581 56.102384 
L 291.48992 57.026959 
L 294.769259 57.952021 
L 298.048598 58.883275 
L 301.327936 59.790695 
L 304.607275 60.725017 
L 307.886614 61.6613 
L 311.165953 62.596792 
L 314.445292 63.526065 
L 317.724631 64.486614 
L 321.00397 65.454028 
L 324.283308 66.427227 
L 327.562647 67.397551 
L 330.841986 68.374979 
L 334.121325 69.342742 
L 337.400664 70.290155 
L 340.680003 71.186667 
L 343.959341 72.049673 
L 347.23868 72.892559 
L 350.518019 73.741295 
L 353.797358 74.573457 
L 357.076697 75.408512 
L 360.356036 76.240471 
L 363.635374 77.034788 
L 366.914713 77.800066 
L 370.194052 78.558572 
L 373.473391 79.244318 
L 376.75273 79.886607 
L 380.032069 80.499056 
L 383.311408 81.125397 
L 386.590746 81.676463 
L 389.870085 82.227408 
" style="fill:none;stroke:#ff0000;stroke-linecap:square;stroke-width:1.5;"/>
    <defs>
     <path d="M 0 2.5 
C 0.663008 2.5 1.29895 2.236584 1.767767 1.767767 
C 2.236584 1.29895 2.5 0.663008 2.5 0 
C 2.5 -0.663008 2.236584 -1.29895 1.767767 -1.767767 
C 1.29895 -2.236584 0.663008 -2.5 0 -2.5 
C -0.663008 -2.5 -1.29895 -2.236584 -1.767767 -1.767767 
C -2.236584 -1.29895 -2.5 -0.663008 -2.5 0 
C -2.5 0.663008 -2.236584 1.29895 -1.767767 1.767767 
C -1.29895 2.236584 -0.663008 2.5 0 2.5 
z
" id="mef27230d40" style="stroke:#ff0000;"/>
    </defs>
    <g clip-path="url(#p14e7e86e37)">
     <use style="fill:#ff0000;stroke:#ff0000;" x="65.21554" xlink:href="#mef27230d40" y="14.299321"/>
     <use style="fill:#ff0000;stroke:#ff0000;" x="98.008928" xlink:href="#mef27230d40" y="14.890943"/>
     <use style="fill:#ff0000;stroke:#ff0000;" x="130.802317" xlink:href="#mef27230d40" y="17.755535"/>
     <use style="fill:#ff0000;stroke:#ff0000;" x="163.595705" xlink:href="#mef27230d40" y="23.457505"/>
     <use style="fill:#ff0000;stroke:#ff0000;" x="196.389093" xlink:href="#mef27230d40" y="31.574759"/>
     <use style="fill:#ff0000;stroke:#ff0000;" x="229.182482" xlink:href="#mef27230d40" y="40.712148"/>
     <use style="fill:#ff0000;stroke:#ff0000;" x="261.97587" xlink:href="#mef27230d40" y="49.193324"/>
     <use style="fill:#ff0000;stroke:#ff0000;" x="294.769259" xlink:href="#mef27230d40" y="57.952021"/>
     <use style="fill:#ff0000;stroke:#ff0000;" x="327.562647" xlink:href="#mef27230d40" y="67.397551"/>
     <use style="fill:#ff0000;stroke:#ff0000;" x="360.356036" xlink:href="#mef27230d40" y="76.240471"/>
    </g>
   </g>
   <g id="line2d_10">
    <path clip-path="url(#p14e7e86e37)" d="M 65.21554 14.299321 
L 68.494879 14.279245 
L 71.774217 14.264018 
L 75.053556 14.257647 
L 78.332895 14.290606 
L 81.612234 14.357899 
L 84.891573 14.42878 
L 88.170912 14.49174 
L 91.450251 14.588314 
L 94.729589 14.73733 
L 98.008928 14.899303 
L 101.288267 15.064426 
L 104.567606 15.275572 
L 107.846945 15.52367 
L 111.126284 15.793694 
L 114.405622 16.083339 
L 117.684961 16.411576 
L 120.9643 16.773742 
L 124.243639 17.178533 
L 127.522978 17.639003 
L 130.802317 18.134764 
L 134.081655 18.660329 
L 137.360994 19.20454 
L 140.640333 19.769434 
L 143.919672 20.327953 
L 147.199011 20.902406 
L 150.47835 21.486171 
L 153.757689 22.171671 
L 157.037027 22.871248 
L 160.316366 23.526618 
L 163.595705 24.152362 
L 166.875044 24.824682 
L 170.154383 25.507086 
L 173.433722 26.22925 
L 176.71306 26.984765 
L 179.992399 27.759081 
L 183.271738 28.564777 
L 186.551077 29.388726 
L 189.830416 30.253624 
L 193.109755 31.158009 
L 196.389093 32.058778 
L 199.668432 32.992802 
L 202.947771 33.916355 
L 206.22711 34.886512 
L 209.506449 35.84796 
L 212.785788 36.77586 
L 216.065127 37.682474 
L 219.344465 38.569023 
L 222.623804 39.403963 
L 225.903143 40.233147 
L 229.182482 41.087514 
L 232.461821 41.925978 
L 235.74116 42.769004 
L 239.020498 43.616251 
L 242.299837 44.468373 
L 245.579176 45.297748 
L 248.858515 46.134576 
L 252.137854 46.960693 
L 255.417193 47.794877 
L 258.696532 48.628135 
L 261.97587 49.469195 
L 265.255209 50.301601 
L 268.534548 51.142432 
L 271.813887 52.003441 
L 275.093226 52.857412 
L 278.372565 53.721291 
L 281.651903 54.576029 
L 284.931242 55.437225 
L 288.210581 56.303317 
L 291.48992 57.198729 
L 294.769259 58.091879 
L 298.048598 59.03065 
L 301.327936 59.970775 
L 304.607275 60.915014 
L 307.886614 61.867042 
L 311.165953 62.836404 
L 314.445292 63.824187 
L 317.724631 64.834711 
L 321.00397 65.829886 
L 324.283308 66.808604 
L 327.562647 67.838866 
L 330.841986 68.872882 
L 334.121325 69.885226 
L 337.400664 70.886205 
L 340.680003 71.90304 
L 343.959341 72.884051 
L 347.23868 73.849428 
L 350.518019 74.83049 
L 353.797358 75.802805 
L 357.076697 76.784843 
L 360.356036 77.788969 
L 363.635374 78.770234 
L 366.914713 79.674959 
L 370.194052 80.552558 
L 373.473391 81.421 
L 376.75273 82.286696 
L 380.032069 83.134105 
L 383.311408 83.946723 
L 386.590746 84.671529 
L 389.870085 85.410588 
" style="fill:none;stroke:#0000ff;stroke-linecap:square;stroke-width:1.5;"/>
    <defs>
     <path d="M 0 2.5 
C 0.663008 2.5 1.29895 2.236584 1.767767 1.767767 
C 2.236584 1.29895 2.5 0.663008 2.5 0 
C 2.5 -0.663008 2.236584 -1.29895 1.767767 -1.767767 
C 1.29895 -2.236584 0.663008 -2.5 0 -2.5 
C -0.663008 -2.5 -1.29895 -2.236584 -1.767767 -1.767767 
C -2.236584 -1.29895 -2.5 -0.663008 -2.5 0 
C -2.5 0.663008 -2.236584 1.29895 -1.767767 1.767767 
C -1.29895 2.236584 -0.663008 2.5 0 2.5 
z
" id="meab8840ef2" style="stroke:#0000ff;"/>
    </defs>
    <g clip-path="url(#p14e7e86e37)">
     <use style="fill:#0000ff;stroke:#0000ff;" x="65.21554" xlink:href="#meab8840ef2" y="14.299321"/>
     <use style="fill:#0000ff;stroke:#0000ff;" x="98.008928" xlink:href="#meab8840ef2" y="14.899303"/>
     <use style="fill:#0000ff;stroke:#0000ff;" x="130.802317" xlink:href="#meab8840ef2" y="18.134764"/>
     <use style="fill:#0000ff;stroke:#0000ff;" x="163.595705" xlink:href="#meab8840ef2" y="24.152362"/>
     <use style="fill:#0000ff;stroke:#0000ff;" x="196.389093" xlink:href="#meab8840ef2" y="32.058778"/>
     <use style="fill:#0000ff;stroke:#0000ff;" x="229.182482" xlink:href="#meab8840ef2" y="41.087514"/>
     <use style="fill:#0000ff;stroke:#0000ff;" x="261.97587" xlink:href="#meab8840ef2" y="49.469195"/>
     <use style="fill:#0000ff;stroke:#0000ff;" x="294.769259" xlink:href="#meab8840ef2" y="58.091879"/>
     <use style="fill:#0000ff;stroke:#0000ff;" x="327.562647" xlink:href="#meab8840ef2" y="67.838866"/>
     <use style="fill:#0000ff;stroke:#0000ff;" x="360.356036" xlink:href="#meab8840ef2" y="77.788969"/>
    </g>
   </g>
   <g id="patch_3">
    <path d="M 48.982813 88.968235 
L 48.982813 10.7 
" style="fill:none;stroke:#000000;stroke-linecap:square;stroke-linejoin:miter;stroke-width:0.8;"/>
   </g>
   <g id="patch_4">
    <path d="M 406.102813 88.968235 
L 406.102813 10.7 
" style="fill:none;stroke:#000000;stroke-linecap:square;stroke-linejoin:miter;stroke-width:0.8;"/>
   </g>
   <g id="patch_5">
    <path d="M 48.982813 88.968235 
L 406.102813 88.968235 
" style="fill:none;stroke:#000000;stroke-linecap:square;stroke-linejoin:miter;stroke-width:0.8;"/>
   </g>
   <g id="patch_6">
    <path d="M 48.982813 10.7 
L 406.102813 10.7 
" style="fill:none;stroke:#000000;stroke-linecap:square;stroke-linejoin:miter;stroke-width:0.8;"/>
   </g>
  </g>
  <g id="axes_2">
   <g id="patch_7">
    <path d="M 48.982813 182.890118 
L 406.102813 182.890118 
L 406.102813 104.621882 
L 48.982813 104.621882 
z
" style="fill:#ffffff;"/>
   </g>
   <g id="matplotlib.axis_3">
    <g id="xtick_7">
     <g id="line2d_11">
      <g>
       <use style="stroke:#000000;stroke-width:0.8;" x="65.21554" xlink:href="#m626b96faca" y="182.890118"/>
      </g>
     </g>
     <g id="text_11">
      <!-- 0 -->
      <g transform="translate(62.03429 197.488555)scale(0.1 -0.1)">
       <use xlink:href="#DejaVuSans-30"/>
      </g>
     </g>
    </g>
    <g id="xtick_8">
     <g id="line2d_12">
      <g>
       <use style="stroke:#000000;stroke-width:0.8;" x="130.802317" xlink:href="#m626b96faca" y="182.890118"/>
      </g>
     </g>
     <g id="text_12">
      <!-- 20 -->
      <g transform="translate(124.439817 197.488555)scale(0.1 -0.1)">
       <use xlink:href="#DejaVuSans-32"/>
       <use x="63.623047" xlink:href="#DejaVuSans-30"/>
      </g>
     </g>
    </g>
    <g id="xtick_9">
     <g id="line2d_13">
      <g>
       <use style="stroke:#000000;stroke-width:0.8;" x="196.389093" xlink:href="#m626b96faca" y="182.890118"/>
      </g>
     </g>
     <g id="text_13">
      <!-- 40 -->
      <g transform="translate(190.026593 197.488555)scale(0.1 -0.1)">
       <use xlink:href="#DejaVuSans-34"/>
       <use x="63.623047" xlink:href="#DejaVuSans-30"/>
      </g>
     </g>
    </g>
    <g id="xtick_10">
     <g id="line2d_14">
      <g>
       <use style="stroke:#000000;stroke-width:0.8;" x="261.97587" xlink:href="#m626b96faca" y="182.890118"/>
      </g>
     </g>
     <g id="text_14">
      <!-- 60 -->
      <g transform="translate(255.61337 197.488555)scale(0.1 -0.1)">
       <use xlink:href="#DejaVuSans-36"/>
       <use x="63.623047" xlink:href="#DejaVuSans-30"/>
      </g>
     </g>
    </g>
    <g id="xtick_11">
     <g id="line2d_15">
      <g>
       <use style="stroke:#000000;stroke-width:0.8;" x="327.562647" xlink:href="#m626b96faca" y="182.890118"/>
      </g>
     </g>
     <g id="text_15">
      <!-- 80 -->
      <g transform="translate(321.200147 197.488555)scale(0.1 -0.1)">
       <use xlink:href="#DejaVuSans-38"/>
       <use x="63.623047" xlink:href="#DejaVuSans-30"/>
      </g>
     </g>
    </g>
    <g id="xtick_12">
     <g id="line2d_16">
      <g>
       <use style="stroke:#000000;stroke-width:0.8;" x="393.149424" xlink:href="#m626b96faca" y="182.890118"/>
      </g>
     </g>
     <g id="text_16">
      <!-- 100 -->
      <g transform="translate(383.605674 197.488555)scale(0.1 -0.1)">
       <use xlink:href="#DejaVuSans-31"/>
       <use x="63.623047" xlink:href="#DejaVuSans-30"/>
       <use x="127.246094" xlink:href="#DejaVuSans-30"/>
      </g>
     </g>
    </g>
    <g id="text_17">
     <!-- Time -->
     <g transform="translate(215.155313 211.16668)scale(0.1 -0.1)">
      <use xlink:href="#DejaVuSans-54"/>
      <use x="61.037109" xlink:href="#DejaVuSans-69"/>
      <use x="88.820312" xlink:href="#DejaVuSans-6d"/>
      <use x="186.232422" xlink:href="#DejaVuSans-65"/>
     </g>
    </g>
   </g>
   <g id="matplotlib.axis_4">
    <g id="ytick_3">
     <g id="line2d_17">
      <g>
       <use style="stroke:#000000;stroke-width:0.8;" x="48.982813" xlink:href="#mc0154370ce" y="148.775462"/>
      </g>
     </g>
     <g id="text_18">
      <!-- −1 -->
      <g transform="translate(27.240625 152.574681)scale(0.1 -0.1)">
       <use xlink:href="#DejaVuSans-2212"/>
       <use x="83.789062" xlink:href="#DejaVuSans-31"/>
      </g>
     </g>
    </g>
    <g id="ytick_4">
     <g id="line2d_18">
      <g>
       <use style="stroke:#000000;stroke-width:0.8;" x="48.982813" xlink:href="#mc0154370ce" y="111.871412"/>
      </g>
     </g>
     <g id="text_19">
      <!-- 0 -->
      <g transform="translate(35.620313 115.670631)scale(0.1 -0.1)">
       <use xlink:href="#DejaVuSans-30"/>
      </g>
     </g>
    </g>
    <g id="text_20">
     <!-- y -->
     <defs>
      <path d="M 32.171875 -5.078125 
Q 28.375 -14.84375 24.75 -17.8125 
Q 21.140625 -20.796875 15.09375 -20.796875 
L 7.90625 -20.796875 
L 7.90625 -13.28125 
L 13.1875 -13.28125 
Q 16.890625 -13.28125 18.9375 -11.515625 
Q 21 -9.765625 23.484375 -3.21875 
L 25.09375 0.875 
L 2.984375 54.6875 
L 12.5 54.6875 
L 29.59375 11.921875 
L 46.6875 54.6875 
L 56.203125 54.6875 
z
" id="DejaVuSans-79"/>
     </defs>
     <g transform="translate(21.160938 146.715375)rotate(-90)scale(0.1 -0.1)">
      <use xlink:href="#DejaVuSans-79"/>
     </g>
    </g>
   </g>
   <g id="line2d_19">
    <path clip-path="url(#p93aa025ae5)" d="M 65.21554 111.871412 
L 68.494879 111.77375 
L 71.774217 111.722915 
L 75.053556 111.735824 
L 78.332895 111.818433 
L 81.612234 111.99392 
L 84.891573 112.067138 
L 88.170912 111.852945 
L 91.450251 111.431335 
L 94.729589 111.305749 
L 98.008928 111.403229 
L 101.288267 110.905155 
L 104.567606 110.660067 
L 107.846945 110.572713 
L 111.126284 110.560577 
L 114.405622 110.338982 
L 117.684961 110.090241 
L 120.9643 109.761171 
L 124.243639 109.555399 
L 127.522978 109.276858 
L 130.802317 108.997959 
L 134.081655 109.027234 
L 137.360994 108.878309 
L 140.640333 108.618405 
L 143.919672 108.324016 
L 147.199011 108.179529 
L 150.47835 108.216123 
L 153.757689 108.292644 
L 157.037027 108.539562 
L 160.316366 108.806716 
L 163.595705 109.225732 
L 166.875044 109.909072 
L 170.154383 110.755695 
L 173.433722 111.49373 
L 176.71306 112.049316 
L 179.992399 112.792683 
L 183.271738 113.24846 
L 186.551077 113.974815 
L 189.830416 114.493599 
L 193.109755 115.322461 
L 196.389093 115.951916 
L 199.668432 116.663173 
L 202.947771 117.36768 
L 206.22711 118.2403 
L 209.506449 119.206575 
L 212.785788 119.824413 
L 216.065127 120.499898 
L 219.344465 121.04643 
L 222.623804 121.667999 
L 225.903143 122.497609 
L 229.182482 123.228796 
L 232.461821 123.972542 
L 235.74116 124.691673 
L 239.020498 125.482151 
L 242.299837 126.257388 
L 245.579176 127.242093 
L 248.858515 128.047516 
L 252.137854 128.711371 
L 255.417193 129.460621 
L 258.696532 130.419093 
L 261.97587 131.56262 
L 265.255209 132.687422 
L 268.534548 133.651094 
L 271.813887 134.497569 
L 275.093226 135.55763 
L 278.372565 136.663078 
L 281.651903 137.807531 
L 284.931242 139.032689 
L 288.210581 140.415708 
L 291.48992 141.902673 
L 294.769259 143.334119 
L 298.048598 144.536529 
L 301.327936 145.511331 
L 304.607275 146.431961 
L 307.886614 147.354763 
L 311.165953 148.449601 
L 314.445292 149.487045 
L 317.724631 150.689296 
L 321.00397 151.857637 
L 324.283308 152.897422 
L 327.562647 153.958746 
L 330.841986 154.961906 
L 334.121325 156.1715 
L 337.400664 157.351648 
L 340.680003 158.377399 
L 343.959341 159.459853 
L 347.23868 160.523086 
L 350.518019 161.874733 
L 353.797358 163.224528 
L 357.076697 164.636252 
L 360.356036 166.059163 
L 363.635374 167.495655 
L 366.914713 169.159103 
L 370.194052 170.811368 
L 373.473391 172.166499 
L 376.75273 173.475367 
L 380.032069 174.785155 
L 383.311408 176.334361 
L 386.590746 177.869811 
L 389.870085 179.332471 
" style="fill:none;stroke:#ff0000;stroke-linecap:square;stroke-width:1.5;"/>
    <g clip-path="url(#p93aa025ae5)">
     <use style="fill:#ff0000;stroke:#ff0000;" x="65.21554" xlink:href="#mef27230d40" y="111.871412"/>
     <use style="fill:#ff0000;stroke:#ff0000;" x="98.008928" xlink:href="#mef27230d40" y="111.403229"/>
     <use style="fill:#ff0000;stroke:#ff0000;" x="130.802317" xlink:href="#mef27230d40" y="108.997959"/>
     <use style="fill:#ff0000;stroke:#ff0000;" x="163.595705" xlink:href="#mef27230d40" y="109.225732"/>
     <use style="fill:#ff0000;stroke:#ff0000;" x="196.389093" xlink:href="#mef27230d40" y="115.951916"/>
     <use style="fill:#ff0000;stroke:#ff0000;" x="229.182482" xlink:href="#mef27230d40" y="123.228796"/>
     <use style="fill:#ff0000;stroke:#ff0000;" x="261.97587" xlink:href="#mef27230d40" y="131.56262"/>
     <use style="fill:#ff0000;stroke:#ff0000;" x="294.769259" xlink:href="#mef27230d40" y="143.334119"/>
     <use style="fill:#ff0000;stroke:#ff0000;" x="327.562647" xlink:href="#mef27230d40" y="153.958746"/>
     <use style="fill:#ff0000;stroke:#ff0000;" x="360.356036" xlink:href="#mef27230d40" y="166.059163"/>
    </g>
   </g>
   <g id="line2d_20">
    <path clip-path="url(#p93aa025ae5)" d="M 65.21554 111.871412 
L 68.494879 111.978455 
L 71.774217 111.870528 
L 75.053556 111.754161 
L 78.332895 111.683369 
L 81.612234 111.575942 
L 84.891573 111.562112 
L 88.170912 111.473421 
L 91.450251 111.513897 
L 94.729589 111.608876 
L 98.008928 111.724885 
L 101.288267 111.846656 
L 104.567606 112.125383 
L 107.846945 112.472552 
L 111.126284 112.793059 
L 114.405622 112.991117 
L 117.684961 113.131239 
L 120.9643 113.222292 
L 124.243639 113.273101 
L 127.522978 113.458879 
L 130.802317 113.627519 
L 134.081655 113.83743 
L 137.360994 114.030569 
L 140.640333 114.223424 
L 143.919672 114.418 
L 147.199011 114.463454 
L 150.47835 114.521219 
L 153.757689 114.728876 
L 157.037027 114.966185 
L 160.316366 115.329307 
L 163.595705 115.892268 
L 166.875044 116.501756 
L 170.154383 117.012706 
L 173.433722 117.467339 
L 176.71306 117.863485 
L 179.992399 118.148424 
L 183.271738 118.483944 
L 186.551077 118.804659 
L 189.830416 118.914142 
L 193.109755 118.88434 
L 196.389093 118.905387 
L 199.668432 118.943053 
L 202.947771 119.200037 
L 206.22711 119.615469 
L 209.506449 120.146826 
L 212.785788 120.900158 
L 216.065127 121.715393 
L 219.344465 122.548249 
L 222.623804 123.294462 
L 225.903143 124.02163 
L 229.182482 124.499742 
L 232.461821 125.154887 
L 235.74116 125.831237 
L 239.020498 126.59894 
L 242.299837 127.334317 
L 245.579176 128.038876 
L 248.858515 128.816988 
L 252.137854 129.474691 
L 255.417193 130.097843 
L 258.696532 130.675023 
L 261.97587 131.270137 
L 265.255209 131.829124 
L 268.534548 132.430126 
L 271.813887 133.042877 
L 275.093226 133.744619 
L 278.372565 134.454405 
L 281.651903 135.104253 
L 284.931242 135.701142 
L 288.210581 136.458051 
L 291.48992 137.332881 
L 294.769259 138.238604 
L 298.048598 139.069487 
L 301.327936 139.827461 
L 304.607275 140.726693 
L 307.886614 141.602619 
L 311.165953 142.56265 
L 314.445292 143.554058 
L 317.724631 144.592754 
L 321.00397 145.650745 
L 324.283308 146.777295 
L 327.562647 147.784877 
L 330.841986 148.769446 
L 334.121325 149.730622 
L 337.400664 150.660032 
L 340.680003 151.731531 
L 343.959341 152.792081 
L 347.23868 153.973681 
L 350.518019 155.078219 
L 353.797358 156.139635 
L 357.076697 157.29206 
L 360.356036 158.53075 
L 363.635374 160.143954 
L 366.914713 161.66705 
L 370.194052 163.270276 
L 373.473391 164.910676 
L 376.75273 166.624214 
L 380.032069 168.250629 
L 383.311408 169.878504 
L 386.590746 171.516128 
L 389.870085 173.122195 
" style="fill:none;stroke:#0000ff;stroke-linecap:square;stroke-width:1.5;"/>
    <g clip-path="url(#p93aa025ae5)">
     <use style="fill:#0000ff;stroke:#0000ff;" x="65.21554" xlink:href="#meab8840ef2" y="111.871412"/>
     <use style="fill:#0000ff;stroke:#0000ff;" x="98.008928" xlink:href="#meab8840ef2" y="111.724885"/>
     <use style="fill:#0000ff;stroke:#0000ff;" x="130.802317" xlink:href="#meab8840ef2" y="113.627519"/>
     <use style="fill:#0000ff;stroke:#0000ff;" x="163.595705" xlink:href="#meab8840ef2" y="115.892268"/>
     <use style="fill:#0000ff;stroke:#0000ff;" x="196.389093" xlink:href="#meab8840ef2" y="118.905387"/>
     <use style="fill:#0000ff;stroke:#0000ff;" x="229.182482" xlink:href="#meab8840ef2" y="124.499742"/>
     <use style="fill:#0000ff;stroke:#0000ff;" x="261.97587" xlink:href="#meab8840ef2" y="131.270137"/>
     <use style="fill:#0000ff;stroke:#0000ff;" x="294.769259" xlink:href="#meab8840ef2" y="138.238604"/>
     <use style="fill:#0000ff;stroke:#0000ff;" x="327.562647" xlink:href="#meab8840ef2" y="147.784877"/>
     <use style="fill:#0000ff;stroke:#0000ff;" x="360.356036" xlink:href="#meab8840ef2" y="158.53075"/>
    </g>
   </g>
   <g id="patch_8">
    <path d="M 48.982813 182.890118 
L 48.982813 104.621882 
" style="fill:none;stroke:#000000;stroke-linecap:square;stroke-linejoin:miter;stroke-width:0.8;"/>
   </g>
   <g id="patch_9">
    <path d="M 406.102813 182.890118 
L 406.102813 104.621882 
" style="fill:none;stroke:#000000;stroke-linecap:square;stroke-linejoin:miter;stroke-width:0.8;"/>
   </g>
   <g id="patch_10">
    <path d="M 48.982813 182.890118 
L 406.102813 182.890118 
" style="fill:none;stroke:#000000;stroke-linecap:square;stroke-linejoin:miter;stroke-width:0.8;"/>
   </g>
   <g id="patch_11">
    <path d="M 48.982813 104.621882 
L 406.102813 104.621882 
" style="fill:none;stroke:#000000;stroke-linecap:square;stroke-linejoin:miter;stroke-width:0.8;"/>
   </g>
  </g>
  <g id="axes_3">
   <g id="patch_12">
    <path d="M 48.982813 276.812 
L 406.102813 276.812 
L 406.102813 198.543765 
L 48.982813 198.543765 
z
" style="fill:#ffffff;"/>
   </g>
   <g id="matplotlib.axis_5">
    <g id="xtick_13">
     <g id="line2d_21">
      <g>
       <use style="stroke:#000000;stroke-width:0.8;" x="65.21554" xlink:href="#m626b96faca" y="276.812"/>
      </g>
     </g>
     <g id="text_21">
      <!-- 0 -->
      <g transform="translate(62.03429 291.410438)scale(0.1 -0.1)">
       <use xlink:href="#DejaVuSans-30"/>
      </g>
     </g>
    </g>
    <g id="xtick_14">
     <g id="line2d_22">
      <g>
       <use style="stroke:#000000;stroke-width:0.8;" x="130.802317" xlink:href="#m626b96faca" y="276.812"/>
      </g>
     </g>
     <g id="text_22">
      <!-- 20 -->
      <g transform="translate(124.439817 291.410438)scale(0.1 -0.1)">
       <use xlink:href="#DejaVuSans-32"/>
       <use x="63.623047" xlink:href="#DejaVuSans-30"/>
      </g>
     </g>
    </g>
    <g id="xtick_15">
     <g id="line2d_23">
      <g>
       <use style="stroke:#000000;stroke-width:0.8;" x="196.389093" xlink:href="#m626b96faca" y="276.812"/>
      </g>
     </g>
     <g id="text_23">
      <!-- 40 -->
      <g transform="translate(190.026593 291.410438)scale(0.1 -0.1)">
       <use xlink:href="#DejaVuSans-34"/>
       <use x="63.623047" xlink:href="#DejaVuSans-30"/>
      </g>
     </g>
    </g>
    <g id="xtick_16">
     <g id="line2d_24">
      <g>
       <use style="stroke:#000000;stroke-width:0.8;" x="261.97587" xlink:href="#m626b96faca" y="276.812"/>
      </g>
     </g>
     <g id="text_24">
      <!-- 60 -->
      <g transform="translate(255.61337 291.410438)scale(0.1 -0.1)">
       <use xlink:href="#DejaVuSans-36"/>
       <use x="63.623047" xlink:href="#DejaVuSans-30"/>
      </g>
     </g>
    </g>
    <g id="xtick_17">
     <g id="line2d_25">
      <g>
       <use style="stroke:#000000;stroke-width:0.8;" x="327.562647" xlink:href="#m626b96faca" y="276.812"/>
      </g>
     </g>
     <g id="text_25">
      <!-- 80 -->
      <g transform="translate(321.200147 291.410438)scale(0.1 -0.1)">
       <use xlink:href="#DejaVuSans-38"/>
       <use x="63.623047" xlink:href="#DejaVuSans-30"/>
      </g>
     </g>
    </g>
    <g id="xtick_18">
     <g id="line2d_26">
      <g>
       <use style="stroke:#000000;stroke-width:0.8;" x="393.149424" xlink:href="#m626b96faca" y="276.812"/>
      </g>
     </g>
     <g id="text_26">
      <!-- 100 -->
      <g transform="translate(383.605674 291.410438)scale(0.1 -0.1)">
       <use xlink:href="#DejaVuSans-31"/>
       <use x="63.623047" xlink:href="#DejaVuSans-30"/>
       <use x="127.246094" xlink:href="#DejaVuSans-30"/>
      </g>
     </g>
    </g>
    <g id="text_27">
     <!-- Time -->
     <g transform="translate(215.155313 305.088562)scale(0.1 -0.1)">
      <use xlink:href="#DejaVuSans-54"/>
      <use x="61.037109" xlink:href="#DejaVuSans-69"/>
      <use x="88.820312" xlink:href="#DejaVuSans-6d"/>
      <use x="186.232422" xlink:href="#DejaVuSans-65"/>
     </g>
    </g>
   </g>
   <g id="matplotlib.axis_6">
    <g id="ytick_5">
     <g id="line2d_27">
      <g>
       <use style="stroke:#000000;stroke-width:0.8;" x="48.982813" xlink:href="#mc0154370ce" y="273.254353"/>
      </g>
     </g>
     <g id="text_28">
      <!-- 0 -->
      <g transform="translate(35.620313 277.053572)scale(0.1 -0.1)">
       <use xlink:href="#DejaVuSans-30"/>
      </g>
     </g>
    </g>
    <g id="ytick_6">
     <g id="line2d_28">
      <g>
       <use style="stroke:#000000;stroke-width:0.8;" x="48.982813" xlink:href="#mc0154370ce" y="228.035256"/>
      </g>
     </g>
     <g id="text_29">
      <!-- 50 -->
      <defs>
       <path d="M 10.796875 72.90625 
L 49.515625 72.90625 
L 49.515625 64.59375 
L 19.828125 64.59375 
L 19.828125 46.734375 
Q 21.96875 47.46875 24.109375 47.828125 
Q 26.265625 48.1875 28.421875 48.1875 
Q 40.625 48.1875 47.75 41.5 
Q 54.890625 34.8125 54.890625 23.390625 
Q 54.890625 11.625 47.5625 5.09375 
Q 40.234375 -1.421875 26.90625 -1.421875 
Q 22.3125 -1.421875 17.546875 -0.640625 
Q 12.796875 0.140625 7.71875 1.703125 
L 7.71875 11.625 
Q 12.109375 9.234375 16.796875 8.0625 
Q 21.484375 6.890625 26.703125 6.890625 
Q 35.15625 6.890625 40.078125 11.328125 
Q 45.015625 15.765625 45.015625 23.390625 
Q 45.015625 31 40.078125 35.4375 
Q 35.15625 39.890625 26.703125 39.890625 
Q 22.75 39.890625 18.8125 39.015625 
Q 14.890625 38.140625 10.796875 36.28125 
z
" id="DejaVuSans-35"/>
      </defs>
      <g transform="translate(29.257813 231.834475)scale(0.1 -0.1)">
       <use xlink:href="#DejaVuSans-35"/>
       <use x="63.623047" xlink:href="#DejaVuSans-30"/>
      </g>
     </g>
    </g>
    <g id="text_30">
     <!-- z -->
     <defs>
      <path d="M 5.515625 54.6875 
L 48.1875 54.6875 
L 48.1875 46.484375 
L 14.40625 7.171875 
L 48.1875 7.171875 
L 48.1875 0 
L 4.296875 0 
L 4.296875 8.203125 
L 38.09375 47.515625 
L 5.515625 47.515625 
z
" id="DejaVuSans-7a"/>
     </defs>
     <g transform="translate(23.178125 240.302101)rotate(-90)scale(0.1 -0.1)">
      <use xlink:href="#DejaVuSans-7a"/>
     </g>
    </g>
   </g>
   <g id="line2d_29">
    <path clip-path="url(#p813b3d4a0d)" d="M 65.21554 273.254353 
L 68.494879 273.11038 
L 71.774217 272.949755 
L 75.053556 272.765325 
L 78.332895 272.555452 
L 81.612234 272.319908 
L 84.891573 272.057312 
L 88.170912 271.768335 
L 91.450251 271.455531 
L 94.729589 271.115298 
L 98.008928 270.758033 
L 101.288267 270.371198 
L 104.567606 269.965835 
L 107.846945 269.539684 
L 111.126284 269.09985 
L 114.405622 268.636932 
L 117.684961 268.148767 
L 120.9643 267.641263 
L 124.243639 267.123695 
L 127.522978 266.588399 
L 130.802317 266.032286 
L 134.081655 265.468091 
L 137.360994 264.882166 
L 140.640333 264.281428 
L 143.919672 263.662778 
L 147.199011 263.027496 
L 150.47835 262.376753 
L 153.757689 261.71747 
L 157.037027 261.041439 
L 160.316366 260.349657 
L 163.595705 259.635359 
L 166.875044 258.906329 
L 170.154383 258.167463 
L 173.433722 257.41358 
L 176.71306 256.650544 
L 179.992399 255.863982 
L 183.271738 255.068984 
L 186.551077 254.266283 
L 189.830416 253.453976 
L 193.109755 252.636674 
L 196.389093 251.821263 
L 199.668432 251.00778 
L 202.947771 250.194839 
L 206.22711 249.386659 
L 209.506449 248.574797 
L 212.785788 247.763138 
L 216.065127 246.95025 
L 219.344465 246.13537 
L 222.623804 245.313138 
L 225.903143 244.485862 
L 229.182482 243.658435 
L 232.461821 242.829538 
L 235.74116 241.995655 
L 239.020498 241.159382 
L 242.299837 240.3186 
L 245.579176 239.474854 
L 248.858515 238.632489 
L 252.137854 237.785748 
L 255.417193 236.934192 
L 258.696532 236.082594 
L 261.97587 235.223303 
L 265.255209 234.363549 
L 268.534548 233.50235 
L 271.813887 232.638205 
L 275.093226 231.768364 
L 278.372565 230.896149 
L 281.651903 230.029206 
L 284.931242 229.162926 
L 288.210581 228.299964 
L 291.48992 227.43439 
L 294.769259 226.572922 
L 298.048598 225.71055 
L 301.327936 224.854836 
L 304.607275 224.000779 
L 307.886614 223.151134 
L 311.165953 222.305884 
L 314.445292 221.467192 
L 317.724631 220.634266 
L 321.00397 219.801953 
L 324.283308 218.970965 
L 327.562647 218.141633 
L 330.841986 217.321402 
L 334.121325 216.512749 
L 337.400664 215.701757 
L 340.680003 214.892359 
L 343.959341 214.085252 
L 347.23868 213.286045 
L 350.518019 212.499382 
L 353.797358 211.717452 
L 357.076697 210.950088 
L 360.356036 210.193281 
L 363.635374 209.461438 
L 366.914713 208.747051 
L 370.194052 208.046761 
L 373.473391 207.359098 
L 376.75273 206.689402 
L 380.032069 206.052107 
L 383.311408 205.442061 
L 386.590746 204.859862 
L 389.870085 204.30389 
" style="fill:none;stroke:#ff0000;stroke-linecap:square;stroke-width:1.5;"/>
    <g clip-path="url(#p813b3d4a0d)">
     <use style="fill:#ff0000;stroke:#ff0000;" x="65.21554" xlink:href="#mef27230d40" y="273.254353"/>
     <use style="fill:#ff0000;stroke:#ff0000;" x="98.008928" xlink:href="#mef27230d40" y="270.758033"/>
     <use style="fill:#ff0000;stroke:#ff0000;" x="130.802317" xlink:href="#mef27230d40" y="266.032286"/>
     <use style="fill:#ff0000;stroke:#ff0000;" x="163.595705" xlink:href="#mef27230d40" y="259.635359"/>
     <use style="fill:#ff0000;stroke:#ff0000;" x="196.389093" xlink:href="#mef27230d40" y="251.821263"/>
     <use style="fill:#ff0000;stroke:#ff0000;" x="229.182482" xlink:href="#mef27230d40" y="243.658435"/>
     <use style="fill:#ff0000;stroke:#ff0000;" x="261.97587" xlink:href="#mef27230d40" y="235.223303"/>
     <use style="fill:#ff0000;stroke:#ff0000;" x="294.769259" xlink:href="#mef27230d40" y="226.572922"/>
     <use style="fill:#ff0000;stroke:#ff0000;" x="327.562647" xlink:href="#mef27230d40" y="218.141633"/>
     <use style="fill:#ff0000;stroke:#ff0000;" x="360.356036" xlink:href="#mef27230d40" y="210.193281"/>
    </g>
   </g>
   <g id="line2d_30">
    <path clip-path="url(#p813b3d4a0d)" d="M 65.21554 273.254353 
L 68.494879 273.045055 
L 71.774217 272.814268 
L 75.053556 272.54912 
L 78.332895 272.253735 
L 81.612234 271.95987 
L 84.891573 271.645654 
L 88.170912 271.320181 
L 91.450251 270.985406 
L 94.729589 270.625277 
L 98.008928 270.256805 
L 101.288267 269.883483 
L 104.567606 269.484098 
L 107.846945 269.053101 
L 111.126284 268.606472 
L 114.405622 268.135509 
L 117.684961 267.616447 
L 120.9643 267.065056 
L 124.243639 266.492847 
L 127.522978 265.916895 
L 130.802317 265.308117 
L 134.081655 264.699031 
L 137.360994 264.06625 
L 140.640333 263.422084 
L 143.919672 262.773936 
L 147.199011 262.099111 
L 150.47835 261.421614 
L 153.757689 260.735305 
L 157.037027 260.038396 
L 160.316366 259.312408 
L 163.595705 258.592884 
L 166.875044 257.86325 
L 170.154383 257.120365 
L 173.433722 256.352465 
L 176.71306 255.58188 
L 179.992399 254.798015 
L 183.271738 254.002893 
L 186.551077 253.192869 
L 189.830416 252.363152 
L 193.109755 251.537162 
L 196.389093 250.731307 
L 199.668432 249.92344 
L 202.947771 249.114227 
L 206.22711 248.299787 
L 209.506449 247.485878 
L 212.785788 246.688382 
L 216.065127 245.896091 
L 219.344465 245.097058 
L 222.623804 244.314999 
L 225.903143 243.521272 
L 229.182482 242.721251 
L 232.461821 241.92941 
L 235.74116 241.125176 
L 239.020498 240.316568 
L 242.299837 239.49693 
L 245.579176 238.689154 
L 248.858515 237.864697 
L 252.137854 237.032395 
L 255.417193 236.191509 
L 258.696532 235.354007 
L 261.97587 234.521298 
L 265.255209 233.699422 
L 268.534548 232.873098 
L 271.813887 232.065356 
L 275.093226 231.251697 
L 278.372565 230.434678 
L 281.651903 229.633519 
L 284.931242 228.823482 
L 288.210581 228.004611 
L 291.48992 227.172919 
L 294.769259 226.352616 
L 298.048598 225.497464 
L 301.327936 224.64578 
L 304.607275 223.811529 
L 307.886614 222.960711 
L 311.165953 222.102392 
L 314.445292 221.248207 
L 317.724631 220.396016 
L 321.00397 219.568778 
L 324.283308 218.750062 
L 327.562647 217.893182 
L 330.841986 217.05409 
L 334.121325 216.209096 
L 337.400664 215.352941 
L 340.680003 214.480581 
L 343.959341 213.596788 
L 347.23868 212.724767 
L 350.518019 211.857624 
L 353.797358 210.997442 
L 357.076697 210.141622 
L 360.356036 209.255269 
L 363.635374 208.398331 
L 366.914713 207.546409 
L 370.194052 206.71411 
L 373.473391 205.878879 
L 376.75273 205.058689 
L 380.032069 204.257005 
L 383.311408 203.494602 
L 386.590746 202.785722 
L 389.870085 202.101412 
" style="fill:none;stroke:#0000ff;stroke-linecap:square;stroke-width:1.5;"/>
    <g clip-path="url(#p813b3d4a0d)">
     <use style="fill:#0000ff;stroke:#0000ff;" x="65.21554" xlink:href="#meab8840ef2" y="273.254353"/>
     <use style="fill:#0000ff;stroke:#0000ff;" x="98.008928" xlink:href="#meab8840ef2" y="270.256805"/>
     <use style="fill:#0000ff;stroke:#0000ff;" x="130.802317" xlink:href="#meab8840ef2" y="265.308117"/>
     <use style="fill:#0000ff;stroke:#0000ff;" x="163.595705" xlink:href="#meab8840ef2" y="258.592884"/>
     <use style="fill:#0000ff;stroke:#0000ff;" x="196.389093" xlink:href="#meab8840ef2" y="250.731307"/>
     <use style="fill:#0000ff;stroke:#0000ff;" x="229.182482" xlink:href="#meab8840ef2" y="242.721251"/>
     <use style="fill:#0000ff;stroke:#0000ff;" x="261.97587" xlink:href="#meab8840ef2" y="234.521298"/>
     <use style="fill:#0000ff;stroke:#0000ff;" x="294.769259" xlink:href="#meab8840ef2" y="226.352616"/>
     <use style="fill:#0000ff;stroke:#0000ff;" x="327.562647" xlink:href="#meab8840ef2" y="217.893182"/>
     <use style="fill:#0000ff;stroke:#0000ff;" x="360.356036" xlink:href="#meab8840ef2" y="209.255269"/>
    </g>
   </g>
   <g id="patch_13">
    <path d="M 48.982813 276.812 
L 48.982813 198.543765 
" style="fill:none;stroke:#000000;stroke-linecap:square;stroke-linejoin:miter;stroke-width:0.8;"/>
   </g>
   <g id="patch_14">
    <path d="M 406.102813 276.812 
L 406.102813 198.543765 
" style="fill:none;stroke:#000000;stroke-linecap:square;stroke-linejoin:miter;stroke-width:0.8;"/>
   </g>
   <g id="patch_15">
    <path d="M 48.982813 276.812 
L 406.102813 276.812 
" style="fill:none;stroke:#000000;stroke-linecap:square;stroke-linejoin:miter;stroke-width:0.8;"/>
   </g>
   <g id="patch_16">
    <path d="M 48.982813 198.543765 
L 406.102813 198.543765 
" style="fill:none;stroke:#000000;stroke-linecap:square;stroke-linejoin:miter;stroke-width:0.8;"/>
   </g>
   <g id="legend_1">
    <g id="patch_17">
     <path d="M 55.982813 271.812 
L 154.951563 271.812 
Q 156.951563 271.812 156.951563 269.812 
L 156.951563 241.45575 
Q 156.951563 239.45575 154.951563 239.45575 
L 55.982813 239.45575 
Q 53.982813 239.45575 53.982813 241.45575 
L 53.982813 269.812 
Q 53.982813 271.812 55.982813 271.812 
z
" style="fill:#ffffff;opacity:0.8;stroke:#cccccc;stroke-linejoin:miter;"/>
    </g>
    <g id="line2d_31">
     <path d="M 57.982813 247.554187 
L 77.982813 247.554187 
" style="fill:none;stroke:#ff0000;stroke-linecap:square;stroke-width:1.5;"/>
    </g>
    <g id="line2d_32">
     <g>
      <use style="fill:#ff0000;stroke:#ff0000;" x="67.982813" xlink:href="#mef27230d40" y="247.554187"/>
     </g>
    </g>
    <g id="text_31">
     <!-- Ground Truth -->
     <defs>
      <path d="M 59.515625 10.40625 
L 59.515625 29.984375 
L 43.40625 29.984375 
L 43.40625 38.09375 
L 69.28125 38.09375 
L 69.28125 6.78125 
Q 63.578125 2.734375 56.6875 0.65625 
Q 49.8125 -1.421875 42 -1.421875 
Q 24.90625 -1.421875 15.25 8.5625 
Q 5.609375 18.5625 5.609375 36.375 
Q 5.609375 54.25 15.25 64.234375 
Q 24.90625 74.21875 42 74.21875 
Q 49.125 74.21875 55.546875 72.453125 
Q 61.96875 70.703125 67.390625 67.28125 
L 67.390625 56.78125 
Q 61.921875 61.421875 55.765625 63.765625 
Q 49.609375 66.109375 42.828125 66.109375 
Q 29.4375 66.109375 22.71875 58.640625 
Q 16.015625 51.171875 16.015625 36.375 
Q 16.015625 21.625 22.71875 14.15625 
Q 29.4375 6.6875 42.828125 6.6875 
Q 48.046875 6.6875 52.140625 7.59375 
Q 56.25 8.5 59.515625 10.40625 
z
" id="DejaVuSans-47"/>
      <path d="M 41.109375 46.296875 
Q 39.59375 47.171875 37.8125 47.578125 
Q 36.03125 48 33.890625 48 
Q 26.265625 48 22.1875 43.046875 
Q 18.109375 38.09375 18.109375 28.8125 
L 18.109375 0 
L 9.078125 0 
L 9.078125 54.6875 
L 18.109375 54.6875 
L 18.109375 46.1875 
Q 20.953125 51.171875 25.484375 53.578125 
Q 30.03125 56 36.53125 56 
Q 37.453125 56 38.578125 55.875 
Q 39.703125 55.765625 41.0625 55.515625 
z
" id="DejaVuSans-72"/>
      <path d="M 30.609375 48.390625 
Q 23.390625 48.390625 19.1875 42.75 
Q 14.984375 37.109375 14.984375 27.296875 
Q 14.984375 17.484375 19.15625 11.84375 
Q 23.34375 6.203125 30.609375 6.203125 
Q 37.796875 6.203125 41.984375 11.859375 
Q 46.1875 17.53125 46.1875 27.296875 
Q 46.1875 37.015625 41.984375 42.703125 
Q 37.796875 48.390625 30.609375 48.390625 
z
M 30.609375 56 
Q 42.328125 56 49.015625 48.375 
Q 55.71875 40.765625 55.71875 27.296875 
Q 55.71875 13.875 49.015625 6.21875 
Q 42.328125 -1.421875 30.609375 -1.421875 
Q 18.84375 -1.421875 12.171875 6.21875 
Q 5.515625 13.875 5.515625 27.296875 
Q 5.515625 40.765625 12.171875 48.375 
Q 18.84375 56 30.609375 56 
z
" id="DejaVuSans-6f"/>
      <path d="M 8.5 21.578125 
L 8.5 54.6875 
L 17.484375 54.6875 
L 17.484375 21.921875 
Q 17.484375 14.15625 20.5 10.265625 
Q 23.53125 6.390625 29.59375 6.390625 
Q 36.859375 6.390625 41.078125 11.03125 
Q 45.3125 15.671875 45.3125 23.6875 
L 45.3125 54.6875 
L 54.296875 54.6875 
L 54.296875 0 
L 45.3125 0 
L 45.3125 8.40625 
Q 42.046875 3.421875 37.71875 1 
Q 33.40625 -1.421875 27.6875 -1.421875 
Q 18.265625 -1.421875 13.375 4.4375 
Q 8.5 10.296875 8.5 21.578125 
z
M 31.109375 56 
z
" id="DejaVuSans-75"/>
      <path d="M 54.890625 33.015625 
L 54.890625 0 
L 45.90625 0 
L 45.90625 32.71875 
Q 45.90625 40.484375 42.875 44.328125 
Q 39.84375 48.1875 33.796875 48.1875 
Q 26.515625 48.1875 22.3125 43.546875 
Q 18.109375 38.921875 18.109375 30.90625 
L 18.109375 0 
L 9.078125 0 
L 9.078125 54.6875 
L 18.109375 54.6875 
L 18.109375 46.1875 
Q 21.34375 51.125 25.703125 53.5625 
Q 30.078125 56 35.796875 56 
Q 45.21875 56 50.046875 50.171875 
Q 54.890625 44.34375 54.890625 33.015625 
z
" id="DejaVuSans-6e"/>
      <path d="M 45.40625 46.390625 
L 45.40625 75.984375 
L 54.390625 75.984375 
L 54.390625 0 
L 45.40625 0 
L 45.40625 8.203125 
Q 42.578125 3.328125 38.25 0.953125 
Q 33.9375 -1.421875 27.875 -1.421875 
Q 17.96875 -1.421875 11.734375 6.484375 
Q 5.515625 14.40625 5.515625 27.296875 
Q 5.515625 40.1875 11.734375 48.09375 
Q 17.96875 56 27.875 56 
Q 33.9375 56 38.25 53.625 
Q 42.578125 51.265625 45.40625 46.390625 
z
M 14.796875 27.296875 
Q 14.796875 17.390625 18.875 11.75 
Q 22.953125 6.109375 30.078125 6.109375 
Q 37.203125 6.109375 41.296875 11.75 
Q 45.40625 17.390625 45.40625 27.296875 
Q 45.40625 37.203125 41.296875 42.84375 
Q 37.203125 48.484375 30.078125 48.484375 
Q 22.953125 48.484375 18.875 42.84375 
Q 14.796875 37.203125 14.796875 27.296875 
z
" id="DejaVuSans-64"/>
      <path id="DejaVuSans-20"/>
      <path d="M 18.3125 70.21875 
L 18.3125 54.6875 
L 36.8125 54.6875 
L 36.8125 47.703125 
L 18.3125 47.703125 
L 18.3125 18.015625 
Q 18.3125 11.328125 20.140625 9.421875 
Q 21.96875 7.515625 27.59375 7.515625 
L 36.8125 7.515625 
L 36.8125 0 
L 27.59375 0 
Q 17.1875 0 13.234375 3.875 
Q 9.28125 7.765625 9.28125 18.015625 
L 9.28125 47.703125 
L 2.6875 47.703125 
L 2.6875 54.6875 
L 9.28125 54.6875 
L 9.28125 70.21875 
z
" id="DejaVuSans-74"/>
      <path d="M 54.890625 33.015625 
L 54.890625 0 
L 45.90625 0 
L 45.90625 32.71875 
Q 45.90625 40.484375 42.875 44.328125 
Q 39.84375 48.1875 33.796875 48.1875 
Q 26.515625 48.1875 22.3125 43.546875 
Q 18.109375 38.921875 18.109375 30.90625 
L 18.109375 0 
L 9.078125 0 
L 9.078125 75.984375 
L 18.109375 75.984375 
L 18.109375 46.1875 
Q 21.34375 51.125 25.703125 53.5625 
Q 30.078125 56 35.796875 56 
Q 45.21875 56 50.046875 50.171875 
Q 54.890625 44.34375 54.890625 33.015625 
z
" id="DejaVuSans-68"/>
     </defs>
     <g transform="translate(85.982813 251.054187)scale(0.1 -0.1)">
      <use xlink:href="#DejaVuSans-47"/>
      <use x="77.490234" xlink:href="#DejaVuSans-72"/>
      <use x="118.572266" xlink:href="#DejaVuSans-6f"/>
      <use x="179.753906" xlink:href="#DejaVuSans-75"/>
      <use x="243.132812" xlink:href="#DejaVuSans-6e"/>
      <use x="306.511719" xlink:href="#DejaVuSans-64"/>
      <use x="369.988281" xlink:href="#DejaVuSans-20"/>
      <use x="401.775391" xlink:href="#DejaVuSans-54"/>
      <use x="462.640625" xlink:href="#DejaVuSans-72"/>
      <use x="503.753906" xlink:href="#DejaVuSans-75"/>
      <use x="567.132812" xlink:href="#DejaVuSans-74"/>
      <use x="606.341797" xlink:href="#DejaVuSans-68"/>
     </g>
    </g>
    <g id="line2d_33">
     <path d="M 57.982813 262.232312 
L 77.982813 262.232312 
" style="fill:none;stroke:#0000ff;stroke-linecap:square;stroke-width:1.5;"/>
    </g>
    <g id="line2d_34">
     <g>
      <use style="fill:#0000ff;stroke:#0000ff;" x="67.982813" xlink:href="#meab8840ef2" y="262.232312"/>
     </g>
    </g>
    <g id="text_32">
     <!-- Prediction -->
     <defs>
      <path d="M 19.671875 64.796875 
L 19.671875 37.40625 
L 32.078125 37.40625 
Q 38.96875 37.40625 42.71875 40.96875 
Q 46.484375 44.53125 46.484375 51.125 
Q 46.484375 57.671875 42.71875 61.234375 
Q 38.96875 64.796875 32.078125 64.796875 
z
M 9.8125 72.90625 
L 32.078125 72.90625 
Q 44.34375 72.90625 50.609375 67.359375 
Q 56.890625 61.8125 56.890625 51.125 
Q 56.890625 40.328125 50.609375 34.8125 
Q 44.34375 29.296875 32.078125 29.296875 
L 19.671875 29.296875 
L 19.671875 0 
L 9.8125 0 
z
" id="DejaVuSans-50"/>
      <path d="M 48.78125 52.59375 
L 48.78125 44.1875 
Q 44.96875 46.296875 41.140625 47.34375 
Q 37.3125 48.390625 33.40625 48.390625 
Q 24.65625 48.390625 19.8125 42.84375 
Q 14.984375 37.3125 14.984375 27.296875 
Q 14.984375 17.28125 19.8125 11.734375 
Q 24.65625 6.203125 33.40625 6.203125 
Q 37.3125 6.203125 41.140625 7.25 
Q 44.96875 8.296875 48.78125 10.40625 
L 48.78125 2.09375 
Q 45.015625 0.34375 40.984375 -0.53125 
Q 36.96875 -1.421875 32.421875 -1.421875 
Q 20.0625 -1.421875 12.78125 6.34375 
Q 5.515625 14.109375 5.515625 27.296875 
Q 5.515625 40.671875 12.859375 48.328125 
Q 20.21875 56 33.015625 56 
Q 37.15625 56 41.109375 55.140625 
Q 45.0625 54.296875 48.78125 52.59375 
z
" id="DejaVuSans-63"/>
     </defs>
     <g transform="translate(85.982813 265.732312)scale(0.1 -0.1)">
      <use xlink:href="#DejaVuSans-50"/>
      <use x="60.287109" xlink:href="#DejaVuSans-72"/>
      <use x="101.369141" xlink:href="#DejaVuSans-65"/>
      <use x="162.892578" xlink:href="#DejaVuSans-64"/>
      <use x="226.369141" xlink:href="#DejaVuSans-69"/>
      <use x="254.152344" xlink:href="#DejaVuSans-63"/>
      <use x="309.132812" xlink:href="#DejaVuSans-74"/>
      <use x="348.341797" xlink:href="#DejaVuSans-69"/>
      <use x="376.125" xlink:href="#DejaVuSans-6f"/>
      <use x="437.306641" xlink:href="#DejaVuSans-6e"/>
     </g>
    </g>
   </g>
  </g>
 </g>
 <defs>
  <clipPath id="p14e7e86e37">
   <rect height="78.268235" width="357.12" x="48.982813" y="10.7"/>
  </clipPath>
  <clipPath id="p93aa025ae5">
   <rect height="78.268235" width="357.12" x="48.982813" y="104.621882"/>
  </clipPath>
  <clipPath id="p813b3d4a0d">
   <rect height="78.268235" width="357.12" x="48.982813" y="198.543765"/>
  </clipPath>
 </defs>
</svg>
