<?xml version="1.0" encoding="utf-8" standalone="no"?>
<!DOCTYPE svg PUBLIC "-//W3C//DTD SVG 1.1//EN"
  "http://www.w3.org/Graphics/SVG/1.1/DTD/svg11.dtd">
<!-- Created with matplotlib (http://matplotlib.org/) -->
<svg height="314pt" version="1.1" viewBox="0 0 408 314" width="408pt" xmlns="http://www.w3.org/2000/svg" xmlns:xlink="http://www.w3.org/1999/xlink">
 <defs>
  <style type="text/css">
*{stroke-linecap:butt;stroke-linejoin:round;}
  </style>
 </defs>
 <g id="figure_1">
  <g id="patch_1">
   <path d="M 0 314.36825 
L 408.423125 314.36825 
L 408.423125 0 
L 0 0 
z
" style="fill:#ffffff;"/>
  </g>
  <g id="axes_1">
   <g id="patch_2">
    <path d="M 40.603125 88.968235 
L 397.723125 88.968235 
L 397.723125 10.7 
L 40.603125 10.7 
z
" style="fill:#ffffff;"/>
   </g>
   <g id="matplotlib.axis_1">
    <g id="xtick_1">
     <g id="line2d_1">
      <defs>
       <path d="M 0 0 
L 0 3.5 
" id="mc5e97cb540" style="stroke:#000000;stroke-width:0.8;"/>
      </defs>
      <g>
       <use style="stroke:#000000;stroke-width:0.8;" x="56.835852" xlink:href="#mc5e97cb540" y="88.968235"/>
      </g>
     </g>
     <g id="text_1">
      <!-- 0 -->
      <defs>
       <path d="M 31.78125 66.40625 
Q 24.171875 66.40625 20.328125 58.90625 
Q 16.5 51.421875 16.5 36.375 
Q 16.5 21.390625 20.328125 13.890625 
Q 24.171875 6.390625 31.78125 6.390625 
Q 39.453125 6.390625 43.28125 13.890625 
Q 47.125 21.390625 47.125 36.375 
Q 47.125 51.421875 43.28125 58.90625 
Q 39.453125 66.40625 31.78125 66.40625 
z
M 31.78125 74.21875 
Q 44.046875 74.21875 50.515625 64.515625 
Q 56.984375 54.828125 56.984375 36.375 
Q 56.984375 17.96875 50.515625 8.265625 
Q 44.046875 -1.421875 31.78125 -1.421875 
Q 19.53125 -1.421875 13.0625 8.265625 
Q 6.59375 17.96875 6.59375 36.375 
Q 6.59375 54.828125 13.0625 64.515625 
Q 19.53125 74.21875 31.78125 74.21875 
z
" id="DejaVuSans-30"/>
      </defs>
      <g transform="translate(53.654602 103.566673)scale(0.1 -0.1)">
       <use xlink:href="#DejaVuSans-30"/>
      </g>
     </g>
    </g>
    <g id="xtick_2">
     <g id="line2d_2">
      <g>
       <use style="stroke:#000000;stroke-width:0.8;" x="122.422629" xlink:href="#mc5e97cb540" y="88.968235"/>
      </g>
     </g>
     <g id="text_2">
      <!-- 20 -->
      <defs>
       <path d="M 19.1875 8.296875 
L 53.609375 8.296875 
L 53.609375 0 
L 7.328125 0 
L 7.328125 8.296875 
Q 12.9375 14.109375 22.625 23.890625 
Q 32.328125 33.6875 34.8125 36.53125 
Q 39.546875 41.84375 41.421875 45.53125 
Q 43.3125 49.21875 43.3125 52.78125 
Q 43.3125 58.59375 39.234375 62.25 
Q 35.15625 65.921875 28.609375 65.921875 
Q 23.96875 65.921875 18.8125 64.3125 
Q 13.671875 62.703125 7.8125 59.421875 
L 7.8125 69.390625 
Q 13.765625 71.78125 18.9375 73 
Q 24.125 74.21875 28.421875 74.21875 
Q 39.75 74.21875 46.484375 68.546875 
Q 53.21875 62.890625 53.21875 53.421875 
Q 53.21875 48.921875 51.53125 44.890625 
Q 49.859375 40.875 45.40625 35.40625 
Q 44.1875 33.984375 37.640625 27.21875 
Q 31.109375 20.453125 19.1875 8.296875 
z
" id="DejaVuSans-32"/>
      </defs>
      <g transform="translate(116.060129 103.566673)scale(0.1 -0.1)">
       <use xlink:href="#DejaVuSans-32"/>
       <use x="63.623047" xlink:href="#DejaVuSans-30"/>
      </g>
     </g>
    </g>
    <g id="xtick_3">
     <g id="line2d_3">
      <g>
       <use style="stroke:#000000;stroke-width:0.8;" x="188.009406" xlink:href="#mc5e97cb540" y="88.968235"/>
      </g>
     </g>
     <g id="text_3">
      <!-- 40 -->
      <defs>
       <path d="M 37.796875 64.3125 
L 12.890625 25.390625 
L 37.796875 25.390625 
z
M 35.203125 72.90625 
L 47.609375 72.90625 
L 47.609375 25.390625 
L 58.015625 25.390625 
L 58.015625 17.1875 
L 47.609375 17.1875 
L 47.609375 0 
L 37.796875 0 
L 37.796875 17.1875 
L 4.890625 17.1875 
L 4.890625 26.703125 
z
" id="DejaVuSans-34"/>
      </defs>
      <g transform="translate(181.646906 103.566673)scale(0.1 -0.1)">
       <use xlink:href="#DejaVuSans-34"/>
       <use x="63.623047" xlink:href="#DejaVuSans-30"/>
      </g>
     </g>
    </g>
    <g id="xtick_4">
     <g id="line2d_4">
      <g>
       <use style="stroke:#000000;stroke-width:0.8;" x="253.596183" xlink:href="#mc5e97cb540" y="88.968235"/>
      </g>
     </g>
     <g id="text_4">
      <!-- 60 -->
      <defs>
       <path d="M 33.015625 40.375 
Q 26.375 40.375 22.484375 35.828125 
Q 18.609375 31.296875 18.609375 23.390625 
Q 18.609375 15.53125 22.484375 10.953125 
Q 26.375 6.390625 33.015625 6.390625 
Q 39.65625 6.390625 43.53125 10.953125 
Q 47.40625 15.53125 47.40625 23.390625 
Q 47.40625 31.296875 43.53125 35.828125 
Q 39.65625 40.375 33.015625 40.375 
z
M 52.59375 71.296875 
L 52.59375 62.3125 
Q 48.875 64.0625 45.09375 64.984375 
Q 41.3125 65.921875 37.59375 65.921875 
Q 27.828125 65.921875 22.671875 59.328125 
Q 17.53125 52.734375 16.796875 39.40625 
Q 19.671875 43.65625 24.015625 45.921875 
Q 28.375 48.1875 33.59375 48.1875 
Q 44.578125 48.1875 50.953125 41.515625 
Q 57.328125 34.859375 57.328125 23.390625 
Q 57.328125 12.15625 50.6875 5.359375 
Q 44.046875 -1.421875 33.015625 -1.421875 
Q 20.359375 -1.421875 13.671875 8.265625 
Q 6.984375 17.96875 6.984375 36.375 
Q 6.984375 53.65625 15.1875 63.9375 
Q 23.390625 74.21875 37.203125 74.21875 
Q 40.921875 74.21875 44.703125 73.484375 
Q 48.484375 72.75 52.59375 71.296875 
z
" id="DejaVuSans-36"/>
      </defs>
      <g transform="translate(247.233683 103.566673)scale(0.1 -0.1)">
       <use xlink:href="#DejaVuSans-36"/>
       <use x="63.623047" xlink:href="#DejaVuSans-30"/>
      </g>
     </g>
    </g>
    <g id="xtick_5">
     <g id="line2d_5">
      <g>
       <use style="stroke:#000000;stroke-width:0.8;" x="319.18296" xlink:href="#mc5e97cb540" y="88.968235"/>
      </g>
     </g>
     <g id="text_5">
      <!-- 80 -->
      <defs>
       <path d="M 31.78125 34.625 
Q 24.75 34.625 20.71875 30.859375 
Q 16.703125 27.09375 16.703125 20.515625 
Q 16.703125 13.921875 20.71875 10.15625 
Q 24.75 6.390625 31.78125 6.390625 
Q 38.8125 6.390625 42.859375 10.171875 
Q 46.921875 13.96875 46.921875 20.515625 
Q 46.921875 27.09375 42.890625 30.859375 
Q 38.875 34.625 31.78125 34.625 
z
M 21.921875 38.8125 
Q 15.578125 40.375 12.03125 44.71875 
Q 8.5 49.078125 8.5 55.328125 
Q 8.5 64.0625 14.71875 69.140625 
Q 20.953125 74.21875 31.78125 74.21875 
Q 42.671875 74.21875 48.875 69.140625 
Q 55.078125 64.0625 55.078125 55.328125 
Q 55.078125 49.078125 51.53125 44.71875 
Q 48 40.375 41.703125 38.8125 
Q 48.828125 37.15625 52.796875 32.3125 
Q 56.78125 27.484375 56.78125 20.515625 
Q 56.78125 9.90625 50.3125 4.234375 
Q 43.84375 -1.421875 31.78125 -1.421875 
Q 19.734375 -1.421875 13.25 4.234375 
Q 6.78125 9.90625 6.78125 20.515625 
Q 6.78125 27.484375 10.78125 32.3125 
Q 14.796875 37.15625 21.921875 38.8125 
z
M 18.3125 54.390625 
Q 18.3125 48.734375 21.84375 45.5625 
Q 25.390625 42.390625 31.78125 42.390625 
Q 38.140625 42.390625 41.71875 45.5625 
Q 45.3125 48.734375 45.3125 54.390625 
Q 45.3125 60.0625 41.71875 63.234375 
Q 38.140625 66.40625 31.78125 66.40625 
Q 25.390625 66.40625 21.84375 63.234375 
Q 18.3125 60.0625 18.3125 54.390625 
z
" id="DejaVuSans-38"/>
      </defs>
      <g transform="translate(312.82046 103.566673)scale(0.1 -0.1)">
       <use xlink:href="#DejaVuSans-38"/>
       <use x="63.623047" xlink:href="#DejaVuSans-30"/>
      </g>
     </g>
    </g>
    <g id="xtick_6">
     <g id="line2d_6">
      <g>
       <use style="stroke:#000000;stroke-width:0.8;" x="384.769737" xlink:href="#mc5e97cb540" y="88.968235"/>
      </g>
     </g>
     <g id="text_6">
      <!-- 100 -->
      <defs>
       <path d="M 12.40625 8.296875 
L 28.515625 8.296875 
L 28.515625 63.921875 
L 10.984375 60.40625 
L 10.984375 69.390625 
L 28.421875 72.90625 
L 38.28125 72.90625 
L 38.28125 8.296875 
L 54.390625 8.296875 
L 54.390625 0 
L 12.40625 0 
z
" id="DejaVuSans-31"/>
      </defs>
      <g transform="translate(375.225987 103.566673)scale(0.1 -0.1)">
       <use xlink:href="#DejaVuSans-31"/>
       <use x="63.623047" xlink:href="#DejaVuSans-30"/>
       <use x="127.246094" xlink:href="#DejaVuSans-30"/>
      </g>
     </g>
    </g>
    <g id="text_7">
     <!-- Time -->
     <defs>
      <path d="M -0.296875 72.90625 
L 61.375 72.90625 
L 61.375 64.59375 
L 35.5 64.59375 
L 35.5 0 
L 25.59375 0 
L 25.59375 64.59375 
L -0.296875 64.59375 
z
" id="DejaVuSans-54"/>
      <path d="M 9.421875 54.6875 
L 18.40625 54.6875 
L 18.40625 0 
L 9.421875 0 
z
M 9.421875 75.984375 
L 18.40625 75.984375 
L 18.40625 64.59375 
L 9.421875 64.59375 
z
" id="DejaVuSans-69"/>
      <path d="M 52 44.1875 
Q 55.375 50.25 60.0625 53.125 
Q 64.75 56 71.09375 56 
Q 79.640625 56 84.28125 50.015625 
Q 88.921875 44.046875 88.921875 33.015625 
L 88.921875 0 
L 79.890625 0 
L 79.890625 32.71875 
Q 79.890625 40.578125 77.09375 44.375 
Q 74.3125 48.1875 68.609375 48.1875 
Q 61.625 48.1875 57.5625 43.546875 
Q 53.515625 38.921875 53.515625 30.90625 
L 53.515625 0 
L 44.484375 0 
L 44.484375 32.71875 
Q 44.484375 40.625 41.703125 44.40625 
Q 38.921875 48.1875 33.109375 48.1875 
Q 26.21875 48.1875 22.15625 43.53125 
Q 18.109375 38.875 18.109375 30.90625 
L 18.109375 0 
L 9.078125 0 
L 9.078125 54.6875 
L 18.109375 54.6875 
L 18.109375 46.1875 
Q 21.1875 51.21875 25.484375 53.609375 
Q 29.78125 56 35.6875 56 
Q 41.65625 56 45.828125 52.96875 
Q 50 49.953125 52 44.1875 
z
" id="DejaVuSans-6d"/>
      <path d="M 56.203125 29.59375 
L 56.203125 25.203125 
L 14.890625 25.203125 
Q 15.484375 15.921875 20.484375 11.0625 
Q 25.484375 6.203125 34.421875 6.203125 
Q 39.59375 6.203125 44.453125 7.46875 
Q 49.3125 8.734375 54.109375 11.28125 
L 54.109375 2.78125 
Q 49.265625 0.734375 44.1875 -0.34375 
Q 39.109375 -1.421875 33.890625 -1.421875 
Q 20.796875 -1.421875 13.15625 6.1875 
Q 5.515625 13.8125 5.515625 26.8125 
Q 5.515625 40.234375 12.765625 48.109375 
Q 20.015625 56 32.328125 56 
Q 43.359375 56 49.78125 48.890625 
Q 56.203125 41.796875 56.203125 29.59375 
z
M 47.21875 32.234375 
Q 47.125 39.59375 43.09375 43.984375 
Q 39.0625 48.390625 32.421875 48.390625 
Q 24.90625 48.390625 20.390625 44.140625 
Q 15.875 39.890625 15.1875 32.171875 
z
" id="DejaVuSans-65"/>
     </defs>
     <g transform="translate(206.775625 117.244798)scale(0.1 -0.1)">
      <use xlink:href="#DejaVuSans-54"/>
      <use x="61.037109" xlink:href="#DejaVuSans-69"/>
      <use x="88.820312" xlink:href="#DejaVuSans-6d"/>
      <use x="186.232422" xlink:href="#DejaVuSans-65"/>
     </g>
    </g>
   </g>
   <g id="matplotlib.axis_2">
    <g id="ytick_1">
     <g id="line2d_7">
      <defs>
       <path d="M 0 0 
L -3.5 0 
" id="m23739c726e" style="stroke:#000000;stroke-width:0.8;"/>
      </defs>
      <g>
       <use style="stroke:#000000;stroke-width:0.8;" x="40.603125" xlink:href="#m23739c726e" y="84.61103"/>
      </g>
     </g>
     <g id="text_8">
      <!-- 0 -->
      <g transform="translate(27.240625 88.410249)scale(0.1 -0.1)">
       <use xlink:href="#DejaVuSans-30"/>
      </g>
     </g>
    </g>
    <g id="ytick_2">
     <g id="line2d_8">
      <g>
       <use style="stroke:#000000;stroke-width:0.8;" x="40.603125" xlink:href="#m23739c726e" y="48.686515"/>
      </g>
     </g>
     <g id="text_9">
      <!-- 10 -->
      <g transform="translate(20.878125 52.485734)scale(0.1 -0.1)">
       <use xlink:href="#DejaVuSans-31"/>
       <use x="63.623047" xlink:href="#DejaVuSans-30"/>
      </g>
     </g>
    </g>
    <g id="ytick_3">
     <g id="line2d_9">
      <g>
       <use style="stroke:#000000;stroke-width:0.8;" x="40.603125" xlink:href="#m23739c726e" y="12.762001"/>
      </g>
     </g>
     <g id="text_10">
      <!-- 20 -->
      <g transform="translate(20.878125 16.561219)scale(0.1 -0.1)">
       <use xlink:href="#DejaVuSans-32"/>
       <use x="63.623047" xlink:href="#DejaVuSans-30"/>
      </g>
     </g>
    </g>
    <g id="text_11">
     <!-- x -->
     <defs>
      <path d="M 54.890625 54.6875 
L 35.109375 28.078125 
L 55.90625 0 
L 45.3125 0 
L 29.390625 21.484375 
L 13.484375 0 
L 2.875 0 
L 24.125 28.609375 
L 4.6875 54.6875 
L 15.28125 54.6875 
L 29.78125 35.203125 
L 44.28125 54.6875 
z
" id="DejaVuSans-78"/>
     </defs>
     <g transform="translate(14.798438 52.793493)rotate(-90)scale(0.1 -0.1)">
      <use xlink:href="#DejaVuSans-78"/>
     </g>
    </g>
   </g>
   <g id="line2d_10">
    <path clip-path="url(#p0cad4d2029)" d="M 56.835852 84.61103 
L 60.115191 84.59091 
L 63.39453 84.565412 
L 66.673869 84.547897 
L 69.953208 84.525541 
L 73.232546 84.503829 
L 76.511885 84.482754 
L 79.791224 84.456648 
L 83.070563 84.424604 
L 86.349902 84.425313 
L 89.629241 84.429769 
L 92.90858 84.44818 
L 96.187918 84.466546 
L 99.467257 84.492082 
L 102.746596 84.526292 
L 106.025935 84.56836 
L 109.305274 84.619708 
L 112.584613 84.690072 
L 115.863951 84.776504 
L 119.14329 84.861267 
L 122.422629 84.9433 
L 125.701968 85.01119 
L 128.981307 85.065989 
L 132.260646 85.102172 
L 135.539985 85.122999 
L 138.819323 85.133924 
L 142.098662 85.14928 
L 145.378001 85.165814 
L 148.65734 85.17097 
L 151.936679 85.167078 
L 155.216018 85.127911 
L 158.495356 85.071241 
L 161.774695 85.000343 
L 165.054034 84.906426 
L 168.333373 84.779813 
L 171.612712 84.613164 
L 174.892051 84.433596 
L 178.171389 84.208917 
L 181.450728 83.948244 
L 184.730067 83.664576 
L 188.009406 83.348045 
L 191.288745 83.000906 
L 194.568084 82.619671 
L 197.847423 82.219758 
L 201.126761 81.81265 
L 204.4061 81.383683 
L 207.685439 80.974657 
L 210.964778 80.554317 
L 214.244117 80.105617 
L 217.523456 79.643809 
L 220.802794 79.163329 
L 224.082133 78.634295 
L 227.361472 78.088371 
L 230.640811 77.500424 
L 233.92015 76.914361 
L 237.199489 76.332545 
L 240.478827 75.74063 
L 243.758166 75.143145 
L 247.037505 74.528529 
L 250.316844 73.879557 
L 253.596183 73.198565 
L 256.875522 72.507501 
L 260.154861 71.800718 
L 263.434199 71.067281 
L 266.713538 70.325758 
L 269.992877 69.581302 
L 273.272216 68.826747 
L 276.551555 67.985465 
L 279.830894 67.084303 
L 283.110232 66.109009 
L 286.389571 65.063227 
L 289.66891 63.973161 
L 292.948249 62.791845 
L 296.227588 61.580936 
L 299.506927 60.309468 
L 302.786265 59.011373 
L 306.065604 57.67318 
L 309.344943 56.312101 
L 312.624282 54.951406 
L 315.903621 53.57589 
L 319.18296 52.157774 
L 322.462299 50.740659 
L 325.741637 49.376915 
L 329.020976 47.995307 
L 332.300315 46.556546 
L 335.579654 45.103807 
L 338.858993 43.640708 
L 342.138332 42.159595 
L 345.41767 40.728892 
L 348.697009 39.354979 
L 351.976348 37.954138 
L 355.255687 36.538927 
L 358.535026 35.147569 
L 361.814365 33.778645 
L 365.093704 32.423808 
L 368.373042 31.097113 
L 371.652381 29.79381 
L 374.93172 28.510248 
L 378.211059 27.250203 
L 381.490398 26.023 
" style="fill:none;stroke:#ff0000;stroke-linecap:square;stroke-width:1.5;"/>
    <defs>
     <path d="M 0 2.5 
C 0.663008 2.5 1.29895 2.236584 1.767767 1.767767 
C 2.236584 1.29895 2.5 0.663008 2.5 0 
C 2.5 -0.663008 2.236584 -1.29895 1.767767 -1.767767 
C 1.29895 -2.236584 0.663008 -2.5 0 -2.5 
C -0.663008 -2.5 -1.29895 -2.236584 -1.767767 -1.767767 
C -2.236584 -1.29895 -2.5 -0.663008 -2.5 0 
C -2.5 0.663008 -2.236584 1.29895 -1.767767 1.767767 
C -1.29895 2.236584 -0.663008 2.5 0 2.5 
z
" id="mfb3b6202a0" style="stroke:#ff0000;"/>
    </defs>
    <g clip-path="url(#p0cad4d2029)">
     <use style="fill:#ff0000;stroke:#ff0000;" x="56.835852" xlink:href="#mfb3b6202a0" y="84.61103"/>
     <use style="fill:#ff0000;stroke:#ff0000;" x="89.629241" xlink:href="#mfb3b6202a0" y="84.429769"/>
     <use style="fill:#ff0000;stroke:#ff0000;" x="122.422629" xlink:href="#mfb3b6202a0" y="84.9433"/>
     <use style="fill:#ff0000;stroke:#ff0000;" x="155.216018" xlink:href="#mfb3b6202a0" y="85.127911"/>
     <use style="fill:#ff0000;stroke:#ff0000;" x="188.009406" xlink:href="#mfb3b6202a0" y="83.348045"/>
     <use style="fill:#ff0000;stroke:#ff0000;" x="220.802794" xlink:href="#mfb3b6202a0" y="79.163329"/>
     <use style="fill:#ff0000;stroke:#ff0000;" x="253.596183" xlink:href="#mfb3b6202a0" y="73.198565"/>
     <use style="fill:#ff0000;stroke:#ff0000;" x="286.389571" xlink:href="#mfb3b6202a0" y="65.063227"/>
     <use style="fill:#ff0000;stroke:#ff0000;" x="319.18296" xlink:href="#mfb3b6202a0" y="52.157774"/>
     <use style="fill:#ff0000;stroke:#ff0000;" x="351.976348" xlink:href="#mfb3b6202a0" y="37.954138"/>
    </g>
   </g>
   <g id="line2d_11">
    <path clip-path="url(#p0cad4d2029)" d="M 56.835852 84.61103 
L 60.115191 84.58984 
L 63.39453 84.574782 
L 66.673869 84.555233 
L 69.953208 84.544777 
L 73.232546 84.547305 
L 76.511885 84.554231 
L 79.791224 84.524968 
L 83.070563 84.502016 
L 86.349902 84.49046 
L 89.629241 84.47974 
L 92.90858 84.484321 
L 96.187918 84.506173 
L 99.467257 84.54688 
L 102.746596 84.578295 
L 106.025935 84.6179 
L 109.305274 84.6743 
L 112.584613 84.747539 
L 115.863951 84.830031 
L 119.14329 84.907628 
L 122.422629 84.977149 
L 125.701968 85.060376 
L 128.981307 85.144979 
L 132.260646 85.212791 
L 135.539985 85.259254 
L 138.819323 85.298834 
L 142.098662 85.344295 
L 145.378001 85.379859 
L 148.65734 85.393132 
L 151.936679 85.410588 
L 155.216018 85.391473 
L 158.495356 85.368796 
L 161.774695 85.31323 
L 165.054034 85.231847 
L 168.333373 85.091972 
L 171.612712 84.904999 
L 174.892051 84.67543 
L 178.171389 84.395322 
L 181.450728 84.09639 
L 184.730067 83.785347 
L 188.009406 83.459513 
L 191.288745 83.126173 
L 194.568084 82.788938 
L 197.847423 82.441707 
L 201.126761 82.044628 
L 204.4061 81.588469 
L 207.685439 81.08984 
L 210.964778 80.575471 
L 214.244117 80.057031 
L 217.523456 79.543124 
L 220.802794 79.00254 
L 224.082133 78.429942 
L 227.361472 77.836463 
L 230.640811 77.239596 
L 233.92015 76.613354 
L 237.199489 75.966446 
L 240.478827 75.294166 
L 243.758166 74.5717 
L 247.037505 73.838541 
L 250.316844 73.094254 
L 253.596183 72.335289 
L 256.875522 71.555626 
L 260.154861 70.746275 
L 263.434199 69.876546 
L 266.713538 68.936203 
L 269.992877 67.939784 
L 273.272216 66.89716 
L 276.551555 65.788963 
L 279.830894 64.620289 
L 283.110232 63.472284 
L 286.389571 62.192008 
L 289.66891 60.857508 
L 292.948249 59.429178 
L 296.227588 57.994011 
L 299.506927 56.529433 
L 302.786265 55.053909 
L 306.065604 53.571409 
L 309.344943 52.043873 
L 312.624282 50.493273 
L 315.903621 48.873988 
L 319.18296 47.22197 
L 322.462299 45.558397 
L 325.741637 43.935614 
L 329.020976 42.276354 
L 332.300315 40.510695 
L 335.579654 38.604237 
L 338.858993 36.774183 
L 342.138332 34.940826 
L 345.41767 33.126832 
L 348.697009 31.245816 
L 351.976348 29.453849 
L 355.255687 27.717866 
L 358.535026 25.967011 
L 361.814365 24.254881 
L 365.093704 22.547198 
L 368.373042 20.828249 
L 371.652381 19.124156 
L 374.93172 17.473585 
L 378.211059 15.817299 
L 381.490398 14.257647 
" style="fill:none;stroke:#0000ff;stroke-linecap:square;stroke-width:1.5;"/>
    <defs>
     <path d="M 0 2.5 
C 0.663008 2.5 1.29895 2.236584 1.767767 1.767767 
C 2.236584 1.29895 2.5 0.663008 2.5 0 
C 2.5 -0.663008 2.236584 -1.29895 1.767767 -1.767767 
C 1.29895 -2.236584 0.663008 -2.5 0 -2.5 
C -0.663008 -2.5 -1.29895 -2.236584 -1.767767 -1.767767 
C -2.236584 -1.29895 -2.5 -0.663008 -2.5 0 
C -2.5 0.663008 -2.236584 1.29895 -1.767767 1.767767 
C -1.29895 2.236584 -0.663008 2.5 0 2.5 
z
" id="mb9827de4a6" style="stroke:#0000ff;"/>
    </defs>
    <g clip-path="url(#p0cad4d2029)">
     <use style="fill:#0000ff;stroke:#0000ff;" x="56.835852" xlink:href="#mb9827de4a6" y="84.61103"/>
     <use style="fill:#0000ff;stroke:#0000ff;" x="89.629241" xlink:href="#mb9827de4a6" y="84.47974"/>
     <use style="fill:#0000ff;stroke:#0000ff;" x="122.422629" xlink:href="#mb9827de4a6" y="84.977149"/>
     <use style="fill:#0000ff;stroke:#0000ff;" x="155.216018" xlink:href="#mb9827de4a6" y="85.391473"/>
     <use style="fill:#0000ff;stroke:#0000ff;" x="188.009406" xlink:href="#mb9827de4a6" y="83.459513"/>
     <use style="fill:#0000ff;stroke:#0000ff;" x="220.802794" xlink:href="#mb9827de4a6" y="79.00254"/>
     <use style="fill:#0000ff;stroke:#0000ff;" x="253.596183" xlink:href="#mb9827de4a6" y="72.335289"/>
     <use style="fill:#0000ff;stroke:#0000ff;" x="286.389571" xlink:href="#mb9827de4a6" y="62.192008"/>
     <use style="fill:#0000ff;stroke:#0000ff;" x="319.18296" xlink:href="#mb9827de4a6" y="47.22197"/>
     <use style="fill:#0000ff;stroke:#0000ff;" x="351.976348" xlink:href="#mb9827de4a6" y="29.453849"/>
    </g>
   </g>
   <g id="patch_3">
    <path d="M 40.603125 88.968235 
L 40.603125 10.7 
" style="fill:none;stroke:#000000;stroke-linecap:square;stroke-linejoin:miter;stroke-width:0.8;"/>
   </g>
   <g id="patch_4">
    <path d="M 397.723125 88.968235 
L 397.723125 10.7 
" style="fill:none;stroke:#000000;stroke-linecap:square;stroke-linejoin:miter;stroke-width:0.8;"/>
   </g>
   <g id="patch_5">
    <path d="M 40.603125 88.968235 
L 397.723125 88.968235 
" style="fill:none;stroke:#000000;stroke-linecap:square;stroke-linejoin:miter;stroke-width:0.8;"/>
   </g>
   <g id="patch_6">
    <path d="M 40.603125 10.7 
L 397.723125 10.7 
" style="fill:none;stroke:#000000;stroke-linecap:square;stroke-linejoin:miter;stroke-width:0.8;"/>
   </g>
  </g>
  <g id="axes_2">
   <g id="patch_7">
    <path d="M 40.603125 182.890118 
L 397.723125 182.890118 
L 397.723125 104.621882 
L 40.603125 104.621882 
z
" style="fill:#ffffff;"/>
   </g>
   <g id="matplotlib.axis_3">
    <g id="xtick_7">
     <g id="line2d_12">
      <g>
       <use style="stroke:#000000;stroke-width:0.8;" x="56.835852" xlink:href="#mc5e97cb540" y="182.890118"/>
      </g>
     </g>
     <g id="text_12">
      <!-- 0 -->
      <g transform="translate(53.654602 197.488555)scale(0.1 -0.1)">
       <use xlink:href="#DejaVuSans-30"/>
      </g>
     </g>
    </g>
    <g id="xtick_8">
     <g id="line2d_13">
      <g>
       <use style="stroke:#000000;stroke-width:0.8;" x="122.422629" xlink:href="#mc5e97cb540" y="182.890118"/>
      </g>
     </g>
     <g id="text_13">
      <!-- 20 -->
      <g transform="translate(116.060129 197.488555)scale(0.1 -0.1)">
       <use xlink:href="#DejaVuSans-32"/>
       <use x="63.623047" xlink:href="#DejaVuSans-30"/>
      </g>
     </g>
    </g>
    <g id="xtick_9">
     <g id="line2d_14">
      <g>
       <use style="stroke:#000000;stroke-width:0.8;" x="188.009406" xlink:href="#mc5e97cb540" y="182.890118"/>
      </g>
     </g>
     <g id="text_14">
      <!-- 40 -->
      <g transform="translate(181.646906 197.488555)scale(0.1 -0.1)">
       <use xlink:href="#DejaVuSans-34"/>
       <use x="63.623047" xlink:href="#DejaVuSans-30"/>
      </g>
     </g>
    </g>
    <g id="xtick_10">
     <g id="line2d_15">
      <g>
       <use style="stroke:#000000;stroke-width:0.8;" x="253.596183" xlink:href="#mc5e97cb540" y="182.890118"/>
      </g>
     </g>
     <g id="text_15">
      <!-- 60 -->
      <g transform="translate(247.233683 197.488555)scale(0.1 -0.1)">
       <use xlink:href="#DejaVuSans-36"/>
       <use x="63.623047" xlink:href="#DejaVuSans-30"/>
      </g>
     </g>
    </g>
    <g id="xtick_11">
     <g id="line2d_16">
      <g>
       <use style="stroke:#000000;stroke-width:0.8;" x="319.18296" xlink:href="#mc5e97cb540" y="182.890118"/>
      </g>
     </g>
     <g id="text_16">
      <!-- 80 -->
      <g transform="translate(312.82046 197.488555)scale(0.1 -0.1)">
       <use xlink:href="#DejaVuSans-38"/>
       <use x="63.623047" xlink:href="#DejaVuSans-30"/>
      </g>
     </g>
    </g>
    <g id="xtick_12">
     <g id="line2d_17">
      <g>
       <use style="stroke:#000000;stroke-width:0.8;" x="384.769737" xlink:href="#mc5e97cb540" y="182.890118"/>
      </g>
     </g>
     <g id="text_17">
      <!-- 100 -->
      <g transform="translate(375.225987 197.488555)scale(0.1 -0.1)">
       <use xlink:href="#DejaVuSans-31"/>
       <use x="63.623047" xlink:href="#DejaVuSans-30"/>
       <use x="127.246094" xlink:href="#DejaVuSans-30"/>
      </g>
     </g>
    </g>
    <g id="text_18">
     <!-- Time -->
     <g transform="translate(206.775625 211.16668)scale(0.1 -0.1)">
      <use xlink:href="#DejaVuSans-54"/>
      <use x="61.037109" xlink:href="#DejaVuSans-69"/>
      <use x="88.820312" xlink:href="#DejaVuSans-6d"/>
      <use x="186.232422" xlink:href="#DejaVuSans-65"/>
     </g>
    </g>
   </g>
   <g id="matplotlib.axis_4">
    <g id="ytick_4">
     <g id="line2d_18">
      <g>
       <use style="stroke:#000000;stroke-width:0.8;" x="40.603125" xlink:href="#m23739c726e" y="169.985203"/>
      </g>
     </g>
     <g id="text_19">
      <!-- 0 -->
      <g transform="translate(27.240625 173.784422)scale(0.1 -0.1)">
       <use xlink:href="#DejaVuSans-30"/>
      </g>
     </g>
    </g>
    <g id="ytick_5">
     <g id="line2d_19">
      <g>
       <use style="stroke:#000000;stroke-width:0.8;" x="40.603125" xlink:href="#m23739c726e" y="141.136212"/>
      </g>
     </g>
     <g id="text_20">
      <!-- 1 -->
      <g transform="translate(27.240625 144.935431)scale(0.1 -0.1)">
       <use xlink:href="#DejaVuSans-31"/>
      </g>
     </g>
    </g>
    <g id="ytick_6">
     <g id="line2d_20">
      <g>
       <use style="stroke:#000000;stroke-width:0.8;" x="40.603125" xlink:href="#m23739c726e" y="112.287221"/>
      </g>
     </g>
     <g id="text_21">
      <!-- 2 -->
      <g transform="translate(27.240625 116.086439)scale(0.1 -0.1)">
       <use xlink:href="#DejaVuSans-32"/>
      </g>
     </g>
    </g>
    <g id="text_22">
     <!-- y -->
     <defs>
      <path d="M 32.171875 -5.078125 
Q 28.375 -14.84375 24.75 -17.8125 
Q 21.140625 -20.796875 15.09375 -20.796875 
L 7.90625 -20.796875 
L 7.90625 -13.28125 
L 13.1875 -13.28125 
Q 16.890625 -13.28125 18.9375 -11.515625 
Q 21 -9.765625 23.484375 -3.21875 
L 25.09375 0.875 
L 2.984375 54.6875 
L 12.5 54.6875 
L 29.59375 11.921875 
L 46.6875 54.6875 
L 56.203125 54.6875 
z
" id="DejaVuSans-79"/>
     </defs>
     <g transform="translate(21.160938 146.715375)rotate(-90)scale(0.1 -0.1)">
      <use xlink:href="#DejaVuSans-79"/>
     </g>
    </g>
   </g>
   <g id="line2d_21">
    <path clip-path="url(#p4e30570315)" d="M 56.835852 169.985203 
L 60.115191 170.739032 
L 63.39453 171.532945 
L 66.673869 172.329709 
L 69.953208 173.039223 
L 73.232546 173.710596 
L 76.511885 174.327912 
L 79.791224 174.901251 
L 83.070563 175.398426 
L 86.349902 175.836505 
L 89.629241 176.210078 
L 92.90858 176.608734 
L 96.187918 176.994242 
L 99.467257 177.353104 
L 102.746596 177.744144 
L 106.025935 178.111873 
L 109.305274 178.428942 
L 112.584613 178.59042 
L 115.863951 178.699981 
L 119.14329 178.713175 
L 122.422629 178.55765 
L 125.701968 178.433333 
L 128.981307 178.312202 
L 132.260646 178.238443 
L 135.539985 178.173763 
L 138.819323 178.18625 
L 142.098662 178.266079 
L 145.378001 178.340545 
L 148.65734 178.334192 
L 151.936679 178.374295 
L 155.216018 178.463659 
L 158.495356 178.595253 
L 161.774695 178.768905 
L 165.054034 178.914818 
L 168.333373 178.991735 
L 171.612712 179.153407 
L 174.892051 179.331023 
L 178.171389 179.332471 
L 181.450728 179.27118 
L 184.730067 179.106082 
L 188.009406 178.871084 
L 191.288745 178.660668 
L 194.568084 178.37018 
L 197.847423 178.077233 
L 201.126761 177.696834 
L 204.4061 177.23515 
L 207.685439 176.618068 
L 210.964778 175.785119 
L 214.244117 174.767385 
L 217.523456 173.579875 
L 220.802794 172.328704 
L 224.082133 170.913751 
L 227.361472 169.383408 
L 230.640811 167.877216 
L 233.92015 166.325554 
L 237.199489 164.623294 
L 240.478827 162.979475 
L 243.758166 161.329052 
L 247.037505 159.760827 
L 250.316844 158.223165 
L 253.596183 156.747348 
L 256.875522 155.31684 
L 260.154861 153.876029 
L 263.434199 152.44333 
L 266.713538 151.142572 
L 269.992877 149.877834 
L 273.272216 148.774801 
L 276.551555 147.744508 
L 279.830894 146.747216 
L 283.110232 145.885788 
L 286.389571 145.175964 
L 289.66891 144.569554 
L 292.948249 144.074686 
L 296.227588 143.445147 
L 299.506927 142.821871 
L 302.786265 142.159899 
L 306.065604 141.285939 
L 309.344943 140.410507 
L 312.624282 139.534428 
L 315.903621 138.546047 
L 319.18296 137.317275 
L 322.462299 136.223841 
L 325.741637 135.459697 
L 329.020976 134.677103 
L 332.300315 133.671347 
L 335.579654 132.885617 
L 338.858993 132.343602 
L 342.138332 131.817061 
L 345.41767 131.685781 
L 348.697009 131.624724 
L 351.976348 131.476249 
L 355.255687 131.531432 
L 358.535026 131.905878 
L 361.814365 132.372126 
L 365.093704 132.742679 
L 368.373042 133.028396 
L 371.652381 133.390541 
L 374.93172 133.85867 
L 378.211059 134.339011 
L 381.490398 134.899978 
" style="fill:none;stroke:#ff0000;stroke-linecap:square;stroke-width:1.5;"/>
    <g clip-path="url(#p4e30570315)">
     <use style="fill:#ff0000;stroke:#ff0000;" x="56.835852" xlink:href="#mfb3b6202a0" y="169.985203"/>
     <use style="fill:#ff0000;stroke:#ff0000;" x="89.629241" xlink:href="#mfb3b6202a0" y="176.210078"/>
     <use style="fill:#ff0000;stroke:#ff0000;" x="122.422629" xlink:href="#mfb3b6202a0" y="178.55765"/>
     <use style="fill:#ff0000;stroke:#ff0000;" x="155.216018" xlink:href="#mfb3b6202a0" y="178.463659"/>
     <use style="fill:#ff0000;stroke:#ff0000;" x="188.009406" xlink:href="#mfb3b6202a0" y="178.871084"/>
     <use style="fill:#ff0000;stroke:#ff0000;" x="220.802794" xlink:href="#mfb3b6202a0" y="172.328704"/>
     <use style="fill:#ff0000;stroke:#ff0000;" x="253.596183" xlink:href="#mfb3b6202a0" y="156.747348"/>
     <use style="fill:#ff0000;stroke:#ff0000;" x="286.389571" xlink:href="#mfb3b6202a0" y="145.175964"/>
     <use style="fill:#ff0000;stroke:#ff0000;" x="319.18296" xlink:href="#mfb3b6202a0" y="137.317275"/>
     <use style="fill:#ff0000;stroke:#ff0000;" x="351.976348" xlink:href="#mfb3b6202a0" y="131.476249"/>
    </g>
   </g>
   <g id="line2d_22">
    <path clip-path="url(#p4e30570315)" d="M 56.835852 169.985203 
L 60.115191 170.486682 
L 63.39453 171.02431 
L 66.673869 171.583139 
L 69.953208 172.098439 
L 73.232546 172.658809 
L 76.511885 173.301245 
L 79.791224 173.765981 
L 83.070563 174.172799 
L 86.349902 174.462936 
L 89.629241 174.793528 
L 92.90858 175.159912 
L 96.187918 175.508308 
L 99.467257 175.818679 
L 102.746596 176.256571 
L 106.025935 176.676721 
L 109.305274 177.012741 
L 112.584613 177.197148 
L 115.863951 177.205728 
L 119.14329 177.023018 
L 122.422629 176.853101 
L 125.701968 176.653308 
L 128.981307 176.359869 
L 132.260646 176.215949 
L 135.539985 176.099455 
L 138.819323 176.006916 
L 142.098662 175.952148 
L 145.378001 175.833851 
L 148.65734 175.6721 
L 151.936679 175.372605 
L 155.216018 175.167848 
L 158.495356 175.039671 
L 161.774695 175.04301 
L 165.054034 175.058733 
L 168.333373 175.014525 
L 171.612712 174.863322 
L 174.892051 174.643466 
L 178.171389 174.276914 
L 181.450728 173.773963 
L 184.730067 173.337597 
L 188.009406 172.892909 
L 191.288745 172.554268 
L 194.568084 172.209786 
L 197.847423 172.041216 
L 201.126761 171.736613 
L 204.4061 171.343902 
L 207.685439 170.548211 
L 210.964778 169.323565 
L 214.244117 167.717651 
L 217.523456 166.14472 
L 220.802794 164.585882 
L 224.082133 163.037657 
L 227.361472 161.499541 
L 230.640811 159.784756 
L 233.92015 157.895809 
L 237.199489 155.975617 
L 240.478827 153.914065 
L 243.758166 151.629564 
L 247.037505 149.481504 
L 250.316844 147.457416 
L 253.596183 145.587091 
L 256.875522 143.560598 
L 260.154861 141.491012 
L 263.434199 139.398372 
L 266.713538 137.582651 
L 269.992877 135.988681 
L 273.272216 134.47361 
L 276.551555 133.229716 
L 279.830894 132.047248 
L 283.110232 130.765136 
L 286.389571 129.545044 
L 289.66891 128.709416 
L 292.948249 127.96939 
L 296.227588 127.262868 
L 299.506927 126.580451 
L 302.786265 125.744031 
L 306.065604 124.64255 
L 309.344943 123.346846 
L 312.624282 121.955544 
L 315.903621 120.434324 
L 319.18296 118.888673 
L 322.462299 117.218717 
L 325.741637 115.937179 
L 329.020976 114.682868 
L 332.300315 113.546535 
L 335.579654 112.419556 
L 338.858993 111.44293 
L 342.138332 110.402605 
L 345.41767 109.405309 
L 348.697009 108.276236 
L 351.976348 108.179529 
L 355.255687 108.710528 
L 358.535026 109.380177 
L 361.814365 110.020621 
L 365.093704 110.554226 
L 368.373042 111.103445 
L 371.652381 111.658222 
L 374.93172 112.264303 
L 378.211059 113.061616 
L 381.490398 114.00575 
" style="fill:none;stroke:#0000ff;stroke-linecap:square;stroke-width:1.5;"/>
    <g clip-path="url(#p4e30570315)">
     <use style="fill:#0000ff;stroke:#0000ff;" x="56.835852" xlink:href="#mb9827de4a6" y="169.985203"/>
     <use style="fill:#0000ff;stroke:#0000ff;" x="89.629241" xlink:href="#mb9827de4a6" y="174.793528"/>
     <use style="fill:#0000ff;stroke:#0000ff;" x="122.422629" xlink:href="#mb9827de4a6" y="176.853101"/>
     <use style="fill:#0000ff;stroke:#0000ff;" x="155.216018" xlink:href="#mb9827de4a6" y="175.167848"/>
     <use style="fill:#0000ff;stroke:#0000ff;" x="188.009406" xlink:href="#mb9827de4a6" y="172.892909"/>
     <use style="fill:#0000ff;stroke:#0000ff;" x="220.802794" xlink:href="#mb9827de4a6" y="164.585882"/>
     <use style="fill:#0000ff;stroke:#0000ff;" x="253.596183" xlink:href="#mb9827de4a6" y="145.587091"/>
     <use style="fill:#0000ff;stroke:#0000ff;" x="286.389571" xlink:href="#mb9827de4a6" y="129.545044"/>
     <use style="fill:#0000ff;stroke:#0000ff;" x="319.18296" xlink:href="#mb9827de4a6" y="118.888673"/>
     <use style="fill:#0000ff;stroke:#0000ff;" x="351.976348" xlink:href="#mb9827de4a6" y="108.179529"/>
    </g>
   </g>
   <g id="patch_8">
    <path d="M 40.603125 182.890118 
L 40.603125 104.621882 
" style="fill:none;stroke:#000000;stroke-linecap:square;stroke-linejoin:miter;stroke-width:0.8;"/>
   </g>
   <g id="patch_9">
    <path d="M 397.723125 182.890118 
L 397.723125 104.621882 
" style="fill:none;stroke:#000000;stroke-linecap:square;stroke-linejoin:miter;stroke-width:0.8;"/>
   </g>
   <g id="patch_10">
    <path d="M 40.603125 182.890118 
L 397.723125 182.890118 
" style="fill:none;stroke:#000000;stroke-linecap:square;stroke-linejoin:miter;stroke-width:0.8;"/>
   </g>
   <g id="patch_11">
    <path d="M 40.603125 104.621882 
L 397.723125 104.621882 
" style="fill:none;stroke:#000000;stroke-linecap:square;stroke-linejoin:miter;stroke-width:0.8;"/>
   </g>
  </g>
  <g id="axes_3">
   <g id="patch_12">
    <path d="M 40.603125 276.812 
L 397.723125 276.812 
L 397.723125 198.543765 
L 40.603125 198.543765 
z
" style="fill:#ffffff;"/>
   </g>
   <g id="matplotlib.axis_5">
    <g id="xtick_13">
     <g id="line2d_23">
      <g>
       <use style="stroke:#000000;stroke-width:0.8;" x="56.835852" xlink:href="#mc5e97cb540" y="276.812"/>
      </g>
     </g>
     <g id="text_23">
      <!-- 0 -->
      <g transform="translate(53.654602 291.410438)scale(0.1 -0.1)">
       <use xlink:href="#DejaVuSans-30"/>
      </g>
     </g>
    </g>
    <g id="xtick_14">
     <g id="line2d_24">
      <g>
       <use style="stroke:#000000;stroke-width:0.8;" x="122.422629" xlink:href="#mc5e97cb540" y="276.812"/>
      </g>
     </g>
     <g id="text_24">
      <!-- 20 -->
      <g transform="translate(116.060129 291.410438)scale(0.1 -0.1)">
       <use xlink:href="#DejaVuSans-32"/>
       <use x="63.623047" xlink:href="#DejaVuSans-30"/>
      </g>
     </g>
    </g>
    <g id="xtick_15">
     <g id="line2d_25">
      <g>
       <use style="stroke:#000000;stroke-width:0.8;" x="188.009406" xlink:href="#mc5e97cb540" y="276.812"/>
      </g>
     </g>
     <g id="text_25">
      <!-- 40 -->
      <g transform="translate(181.646906 291.410438)scale(0.1 -0.1)">
       <use xlink:href="#DejaVuSans-34"/>
       <use x="63.623047" xlink:href="#DejaVuSans-30"/>
      </g>
     </g>
    </g>
    <g id="xtick_16">
     <g id="line2d_26">
      <g>
       <use style="stroke:#000000;stroke-width:0.8;" x="253.596183" xlink:href="#mc5e97cb540" y="276.812"/>
      </g>
     </g>
     <g id="text_26">
      <!-- 60 -->
      <g transform="translate(247.233683 291.410438)scale(0.1 -0.1)">
       <use xlink:href="#DejaVuSans-36"/>
       <use x="63.623047" xlink:href="#DejaVuSans-30"/>
      </g>
     </g>
    </g>
    <g id="xtick_17">
     <g id="line2d_27">
      <g>
       <use style="stroke:#000000;stroke-width:0.8;" x="319.18296" xlink:href="#mc5e97cb540" y="276.812"/>
      </g>
     </g>
     <g id="text_27">
      <!-- 80 -->
      <g transform="translate(312.82046 291.410438)scale(0.1 -0.1)">
       <use xlink:href="#DejaVuSans-38"/>
       <use x="63.623047" xlink:href="#DejaVuSans-30"/>
      </g>
     </g>
    </g>
    <g id="xtick_18">
     <g id="line2d_28">
      <g>
       <use style="stroke:#000000;stroke-width:0.8;" x="384.769737" xlink:href="#mc5e97cb540" y="276.812"/>
      </g>
     </g>
     <g id="text_28">
      <!-- 100 -->
      <g transform="translate(375.225987 291.410438)scale(0.1 -0.1)">
       <use xlink:href="#DejaVuSans-31"/>
       <use x="63.623047" xlink:href="#DejaVuSans-30"/>
       <use x="127.246094" xlink:href="#DejaVuSans-30"/>
      </g>
     </g>
    </g>
    <g id="text_29">
     <!-- Time -->
     <g transform="translate(206.775625 305.088562)scale(0.1 -0.1)">
      <use xlink:href="#DejaVuSans-54"/>
      <use x="61.037109" xlink:href="#DejaVuSans-69"/>
      <use x="88.820312" xlink:href="#DejaVuSans-6d"/>
      <use x="186.232422" xlink:href="#DejaVuSans-65"/>
     </g>
    </g>
   </g>
   <g id="matplotlib.axis_6">
    <g id="ytick_7">
     <g id="line2d_29">
      <g>
       <use style="stroke:#000000;stroke-width:0.8;" x="40.603125" xlink:href="#m23739c726e" y="273.254353"/>
      </g>
     </g>
     <g id="text_30">
      <!-- 0 -->
      <g transform="translate(27.240625 277.053572)scale(0.1 -0.1)">
       <use xlink:href="#DejaVuSans-30"/>
      </g>
     </g>
    </g>
    <g id="ytick_8">
     <g id="line2d_30">
      <g>
       <use style="stroke:#000000;stroke-width:0.8;" x="40.603125" xlink:href="#m23739c726e" y="228.167201"/>
      </g>
     </g>
     <g id="text_31">
      <!-- 50 -->
      <defs>
       <path d="M 10.796875 72.90625 
L 49.515625 72.90625 
L 49.515625 64.59375 
L 19.828125 64.59375 
L 19.828125 46.734375 
Q 21.96875 47.46875 24.109375 47.828125 
Q 26.265625 48.1875 28.421875 48.1875 
Q 40.625 48.1875 47.75 41.5 
Q 54.890625 34.8125 54.890625 23.390625 
Q 54.890625 11.625 47.5625 5.09375 
Q 40.234375 -1.421875 26.90625 -1.421875 
Q 22.3125 -1.421875 17.546875 -0.640625 
Q 12.796875 0.140625 7.71875 1.703125 
L 7.71875 11.625 
Q 12.109375 9.234375 16.796875 8.0625 
Q 21.484375 6.890625 26.703125 6.890625 
Q 35.15625 6.890625 40.078125 11.328125 
Q 45.015625 15.765625 45.015625 23.390625 
Q 45.015625 31 40.078125 35.4375 
Q 35.15625 39.890625 26.703125 39.890625 
Q 22.75 39.890625 18.8125 39.015625 
Q 14.890625 38.140625 10.796875 36.28125 
z
" id="DejaVuSans-35"/>
      </defs>
      <g transform="translate(20.878125 231.96642)scale(0.1 -0.1)">
       <use xlink:href="#DejaVuSans-35"/>
       <use x="63.623047" xlink:href="#DejaVuSans-30"/>
      </g>
     </g>
    </g>
    <g id="text_32">
     <!-- z -->
     <defs>
      <path d="M 5.515625 54.6875 
L 48.1875 54.6875 
L 48.1875 46.484375 
L 14.40625 7.171875 
L 48.1875 7.171875 
L 48.1875 0 
L 4.296875 0 
L 4.296875 8.203125 
L 38.09375 47.515625 
L 5.515625 47.515625 
z
" id="DejaVuSans-7a"/>
     </defs>
     <g transform="translate(14.798438 240.302101)rotate(-90)scale(0.1 -0.1)">
      <use xlink:href="#DejaVuSans-7a"/>
     </g>
    </g>
   </g>
   <g id="line2d_31">
    <path clip-path="url(#p15691ab4d3)" d="M 56.835852 273.254353 
L 60.115191 272.342345 
L 63.39453 271.428311 
L 66.673869 270.513988 
L 69.953208 269.601638 
L 73.232546 268.691349 
L 76.511885 267.783461 
L 79.791224 266.880065 
L 83.070563 265.978842 
L 86.349902 265.081134 
L 89.629241 264.18663 
L 92.90858 263.300726 
L 96.187918 262.42386 
L 99.467257 261.556607 
L 102.746596 260.69979 
L 106.025935 259.854671 
L 109.305274 259.020845 
L 112.584613 258.198018 
L 115.863951 257.391647 
L 119.14329 256.600173 
L 122.422629 255.825929 
L 125.701968 255.06734 
L 128.981307 254.324627 
L 132.260646 253.597386 
L 135.539985 252.880978 
L 138.819323 252.174169 
L 142.098662 251.478544 
L 145.378001 250.793984 
L 148.65734 250.121189 
L 151.936679 249.456447 
L 155.216018 248.803835 
L 158.495356 248.165127 
L 161.774695 247.533163 
L 165.054034 246.902634 
L 168.333373 246.269996 
L 171.612712 245.627104 
L 174.892051 244.97955 
L 178.171389 244.32834 
L 181.450728 243.672793 
L 184.730067 243.01977 
L 188.009406 242.363799 
L 191.288745 241.709132 
L 194.568084 241.050967 
L 197.847423 240.384697 
L 201.126761 239.71065 
L 204.4061 239.019077 
L 207.685439 238.316592 
L 210.964778 237.613436 
L 214.244117 236.913029 
L 217.523456 236.210954 
L 220.802794 235.506687 
L 224.082133 234.794034 
L 227.361472 234.081863 
L 230.640811 233.369113 
L 233.92015 232.664895 
L 237.199489 231.967776 
L 240.478827 231.273599 
L 243.758166 230.583725 
L 247.037505 229.902031 
L 250.316844 229.22787 
L 253.596183 228.565883 
L 256.875522 227.908932 
L 260.154861 227.263731 
L 263.434199 226.633735 
L 266.713538 226.012676 
L 269.992877 225.397216 
L 273.272216 224.787808 
L 276.551555 224.176249 
L 279.830894 223.584481 
L 283.110232 222.99224 
L 286.389571 222.403674 
L 289.66891 221.826717 
L 292.948249 221.238192 
L 296.227588 220.656279 
L 299.506927 220.061386 
L 302.786265 219.463164 
L 306.065604 218.872978 
L 309.344943 218.278409 
L 312.624282 217.680937 
L 315.903621 217.081229 
L 319.18296 216.481844 
L 322.462299 215.888568 
L 325.741637 215.297604 
L 329.020976 214.713555 
L 332.300315 214.136316 
L 335.579654 213.53616 
L 338.858993 212.922074 
L 342.138332 212.316614 
L 345.41767 211.726228 
L 348.697009 211.152869 
L 351.976348 210.572507 
L 355.255687 209.980532 
L 358.535026 209.380597 
L 361.814365 208.794043 
L 365.093704 208.228616 
L 368.373042 207.675023 
L 371.652381 207.1209 
L 374.93172 206.567486 
L 378.211059 206.021578 
L 381.490398 205.484799 
" style="fill:none;stroke:#ff0000;stroke-linecap:square;stroke-width:1.5;"/>
    <g clip-path="url(#p15691ab4d3)">
     <use style="fill:#ff0000;stroke:#ff0000;" x="56.835852" xlink:href="#mfb3b6202a0" y="273.254353"/>
     <use style="fill:#ff0000;stroke:#ff0000;" x="89.629241" xlink:href="#mfb3b6202a0" y="264.18663"/>
     <use style="fill:#ff0000;stroke:#ff0000;" x="122.422629" xlink:href="#mfb3b6202a0" y="255.825929"/>
     <use style="fill:#ff0000;stroke:#ff0000;" x="155.216018" xlink:href="#mfb3b6202a0" y="248.803835"/>
     <use style="fill:#ff0000;stroke:#ff0000;" x="188.009406" xlink:href="#mfb3b6202a0" y="242.363799"/>
     <use style="fill:#ff0000;stroke:#ff0000;" x="220.802794" xlink:href="#mfb3b6202a0" y="235.506687"/>
     <use style="fill:#ff0000;stroke:#ff0000;" x="253.596183" xlink:href="#mfb3b6202a0" y="228.565883"/>
     <use style="fill:#ff0000;stroke:#ff0000;" x="286.389571" xlink:href="#mfb3b6202a0" y="222.403674"/>
     <use style="fill:#ff0000;stroke:#ff0000;" x="319.18296" xlink:href="#mfb3b6202a0" y="216.481844"/>
     <use style="fill:#ff0000;stroke:#ff0000;" x="351.976348" xlink:href="#mfb3b6202a0" y="210.572507"/>
    </g>
   </g>
   <g id="line2d_32">
    <path clip-path="url(#p15691ab4d3)" d="M 56.835852 273.254353 
L 60.115191 272.234455 
L 63.39453 271.225419 
L 66.673869 270.247788 
L 69.953208 269.290142 
L 73.232546 268.3602 
L 76.511885 267.447197 
L 79.791224 266.497727 
L 83.070563 265.543149 
L 86.349902 264.590652 
L 89.629241 263.661436 
L 92.90858 262.726701 
L 96.187918 261.80693 
L 99.467257 260.881552 
L 102.746596 259.982622 
L 106.025935 259.096717 
L 109.305274 258.213234 
L 112.584613 257.352873 
L 115.863951 256.495561 
L 119.14329 255.630461 
L 122.422629 254.760062 
L 125.701968 253.912382 
L 128.981307 253.078964 
L 132.260646 252.26862 
L 135.539985 251.469051 
L 138.819323 250.678263 
L 142.098662 249.893407 
L 145.378001 249.118603 
L 148.65734 248.367734 
L 151.936679 247.661956 
L 155.216018 246.968021 
L 158.495356 246.28627 
L 161.774695 245.630824 
L 165.054034 244.976344 
L 168.333373 244.326775 
L 171.612712 243.673106 
L 174.892051 243.015243 
L 178.171389 242.360814 
L 181.450728 241.721103 
L 184.730067 241.113617 
L 188.009406 240.505905 
L 191.288745 239.927204 
L 194.568084 239.35549 
L 197.847423 238.785134 
L 201.126761 238.191662 
L 204.4061 237.534739 
L 207.685439 236.846502 
L 210.964778 236.138613 
L 214.244117 235.446517 
L 217.523456 234.769212 
L 220.802794 234.078471 
L 224.082133 233.398865 
L 227.361472 232.714529 
L 230.640811 232.044603 
L 233.92015 231.353339 
L 237.199489 230.649024 
L 240.478827 229.929595 
L 243.758166 229.187334 
L 247.037505 228.465215 
L 250.316844 227.774873 
L 253.596183 227.112325 
L 256.875522 226.452313 
L 260.154861 225.78918 
L 263.434199 225.11224 
L 266.713538 224.411991 
L 269.992877 223.698447 
L 273.272216 222.996275 
L 276.551555 222.295965 
L 279.830894 221.605237 
L 283.110232 220.976655 
L 286.389571 220.329545 
L 289.66891 219.696323 
L 292.948249 219.074276 
L 296.227588 218.473677 
L 299.506927 217.887432 
L 302.786265 217.309464 
L 306.065604 216.748276 
L 309.344943 216.170229 
L 312.624282 215.583922 
L 315.903621 214.966647 
L 319.18296 214.345054 
L 322.462299 213.717841 
L 325.741637 213.093779 
L 329.020976 212.470432 
L 332.300315 211.827931 
L 335.579654 211.138663 
L 338.858993 210.473349 
L 342.138332 209.802539 
L 345.41767 209.13631 
L 348.697009 208.425481 
L 351.976348 207.74316 
L 355.255687 207.084156 
L 358.535026 206.418244 
L 361.814365 205.757815 
L 365.093704 205.126199 
L 368.373042 204.502982 
L 371.652381 203.891063 
L 374.93172 203.282418 
L 378.211059 202.67497 
L 381.490398 202.101412 
" style="fill:none;stroke:#0000ff;stroke-linecap:square;stroke-width:1.5;"/>
    <g clip-path="url(#p15691ab4d3)">
     <use style="fill:#0000ff;stroke:#0000ff;" x="56.835852" xlink:href="#mb9827de4a6" y="273.254353"/>
     <use style="fill:#0000ff;stroke:#0000ff;" x="89.629241" xlink:href="#mb9827de4a6" y="263.661436"/>
     <use style="fill:#0000ff;stroke:#0000ff;" x="122.422629" xlink:href="#mb9827de4a6" y="254.760062"/>
     <use style="fill:#0000ff;stroke:#0000ff;" x="155.216018" xlink:href="#mb9827de4a6" y="246.968021"/>
     <use style="fill:#0000ff;stroke:#0000ff;" x="188.009406" xlink:href="#mb9827de4a6" y="240.505905"/>
     <use style="fill:#0000ff;stroke:#0000ff;" x="220.802794" xlink:href="#mb9827de4a6" y="234.078471"/>
     <use style="fill:#0000ff;stroke:#0000ff;" x="253.596183" xlink:href="#mb9827de4a6" y="227.112325"/>
     <use style="fill:#0000ff;stroke:#0000ff;" x="286.389571" xlink:href="#mb9827de4a6" y="220.329545"/>
     <use style="fill:#0000ff;stroke:#0000ff;" x="319.18296" xlink:href="#mb9827de4a6" y="214.345054"/>
     <use style="fill:#0000ff;stroke:#0000ff;" x="351.976348" xlink:href="#mb9827de4a6" y="207.74316"/>
    </g>
   </g>
   <g id="patch_13">
    <path d="M 40.603125 276.812 
L 40.603125 198.543765 
" style="fill:none;stroke:#000000;stroke-linecap:square;stroke-linejoin:miter;stroke-width:0.8;"/>
   </g>
   <g id="patch_14">
    <path d="M 397.723125 276.812 
L 397.723125 198.543765 
" style="fill:none;stroke:#000000;stroke-linecap:square;stroke-linejoin:miter;stroke-width:0.8;"/>
   </g>
   <g id="patch_15">
    <path d="M 40.603125 276.812 
L 397.723125 276.812 
" style="fill:none;stroke:#000000;stroke-linecap:square;stroke-linejoin:miter;stroke-width:0.8;"/>
   </g>
   <g id="patch_16">
    <path d="M 40.603125 198.543765 
L 397.723125 198.543765 
" style="fill:none;stroke:#000000;stroke-linecap:square;stroke-linejoin:miter;stroke-width:0.8;"/>
   </g>
   <g id="legend_1">
    <g id="patch_17">
     <path d="M 47.603125 271.812 
L 146.571875 271.812 
Q 148.571875 271.812 148.571875 269.812 
L 148.571875 241.45575 
Q 148.571875 239.45575 146.571875 239.45575 
L 47.603125 239.45575 
Q 45.603125 239.45575 45.603125 241.45575 
L 45.603125 269.812 
Q 45.603125 271.812 47.603125 271.812 
z
" style="fill:#ffffff;opacity:0.8;stroke:#cccccc;stroke-linejoin:miter;"/>
    </g>
    <g id="line2d_33">
     <path d="M 49.603125 247.554187 
L 69.603125 247.554187 
" style="fill:none;stroke:#ff0000;stroke-linecap:square;stroke-width:1.5;"/>
    </g>
    <g id="line2d_34">
     <g>
      <use style="fill:#ff0000;stroke:#ff0000;" x="59.603125" xlink:href="#mfb3b6202a0" y="247.554187"/>
     </g>
    </g>
    <g id="text_33">
     <!-- Ground Truth -->
     <defs>
      <path d="M 59.515625 10.40625 
L 59.515625 29.984375 
L 43.40625 29.984375 
L 43.40625 38.09375 
L 69.28125 38.09375 
L 69.28125 6.78125 
Q 63.578125 2.734375 56.6875 0.65625 
Q 49.8125 -1.421875 42 -1.421875 
Q 24.90625 -1.421875 15.25 8.5625 
Q 5.609375 18.5625 5.609375 36.375 
Q 5.609375 54.25 15.25 64.234375 
Q 24.90625 74.21875 42 74.21875 
Q 49.125 74.21875 55.546875 72.453125 
Q 61.96875 70.703125 67.390625 67.28125 
L 67.390625 56.78125 
Q 61.921875 61.421875 55.765625 63.765625 
Q 49.609375 66.109375 42.828125 66.109375 
Q 29.4375 66.109375 22.71875 58.640625 
Q 16.015625 51.171875 16.015625 36.375 
Q 16.015625 21.625 22.71875 14.15625 
Q 29.4375 6.6875 42.828125 6.6875 
Q 48.046875 6.6875 52.140625 7.59375 
Q 56.25 8.5 59.515625 10.40625 
z
" id="DejaVuSans-47"/>
      <path d="M 41.109375 46.296875 
Q 39.59375 47.171875 37.8125 47.578125 
Q 36.03125 48 33.890625 48 
Q 26.265625 48 22.1875 43.046875 
Q 18.109375 38.09375 18.109375 28.8125 
L 18.109375 0 
L 9.078125 0 
L 9.078125 54.6875 
L 18.109375 54.6875 
L 18.109375 46.1875 
Q 20.953125 51.171875 25.484375 53.578125 
Q 30.03125 56 36.53125 56 
Q 37.453125 56 38.578125 55.875 
Q 39.703125 55.765625 41.0625 55.515625 
z
" id="DejaVuSans-72"/>
      <path d="M 30.609375 48.390625 
Q 23.390625 48.390625 19.1875 42.75 
Q 14.984375 37.109375 14.984375 27.296875 
Q 14.984375 17.484375 19.15625 11.84375 
Q 23.34375 6.203125 30.609375 6.203125 
Q 37.796875 6.203125 41.984375 11.859375 
Q 46.1875 17.53125 46.1875 27.296875 
Q 46.1875 37.015625 41.984375 42.703125 
Q 37.796875 48.390625 30.609375 48.390625 
z
M 30.609375 56 
Q 42.328125 56 49.015625 48.375 
Q 55.71875 40.765625 55.71875 27.296875 
Q 55.71875 13.875 49.015625 6.21875 
Q 42.328125 -1.421875 30.609375 -1.421875 
Q 18.84375 -1.421875 12.171875 6.21875 
Q 5.515625 13.875 5.515625 27.296875 
Q 5.515625 40.765625 12.171875 48.375 
Q 18.84375 56 30.609375 56 
z
" id="DejaVuSans-6f"/>
      <path d="M 8.5 21.578125 
L 8.5 54.6875 
L 17.484375 54.6875 
L 17.484375 21.921875 
Q 17.484375 14.15625 20.5 10.265625 
Q 23.53125 6.390625 29.59375 6.390625 
Q 36.859375 6.390625 41.078125 11.03125 
Q 45.3125 15.671875 45.3125 23.6875 
L 45.3125 54.6875 
L 54.296875 54.6875 
L 54.296875 0 
L 45.3125 0 
L 45.3125 8.40625 
Q 42.046875 3.421875 37.71875 1 
Q 33.40625 -1.421875 27.6875 -1.421875 
Q 18.265625 -1.421875 13.375 4.4375 
Q 8.5 10.296875 8.5 21.578125 
z
M 31.109375 56 
z
" id="DejaVuSans-75"/>
      <path d="M 54.890625 33.015625 
L 54.890625 0 
L 45.90625 0 
L 45.90625 32.71875 
Q 45.90625 40.484375 42.875 44.328125 
Q 39.84375 48.1875 33.796875 48.1875 
Q 26.515625 48.1875 22.3125 43.546875 
Q 18.109375 38.921875 18.109375 30.90625 
L 18.109375 0 
L 9.078125 0 
L 9.078125 54.6875 
L 18.109375 54.6875 
L 18.109375 46.1875 
Q 21.34375 51.125 25.703125 53.5625 
Q 30.078125 56 35.796875 56 
Q 45.21875 56 50.046875 50.171875 
Q 54.890625 44.34375 54.890625 33.015625 
z
" id="DejaVuSans-6e"/>
      <path d="M 45.40625 46.390625 
L 45.40625 75.984375 
L 54.390625 75.984375 
L 54.390625 0 
L 45.40625 0 
L 45.40625 8.203125 
Q 42.578125 3.328125 38.25 0.953125 
Q 33.9375 -1.421875 27.875 -1.421875 
Q 17.96875 -1.421875 11.734375 6.484375 
Q 5.515625 14.40625 5.515625 27.296875 
Q 5.515625 40.1875 11.734375 48.09375 
Q 17.96875 56 27.875 56 
Q 33.9375 56 38.25 53.625 
Q 42.578125 51.265625 45.40625 46.390625 
z
M 14.796875 27.296875 
Q 14.796875 17.390625 18.875 11.75 
Q 22.953125 6.109375 30.078125 6.109375 
Q 37.203125 6.109375 41.296875 11.75 
Q 45.40625 17.390625 45.40625 27.296875 
Q 45.40625 37.203125 41.296875 42.84375 
Q 37.203125 48.484375 30.078125 48.484375 
Q 22.953125 48.484375 18.875 42.84375 
Q 14.796875 37.203125 14.796875 27.296875 
z
" id="DejaVuSans-64"/>
      <path id="DejaVuSans-20"/>
      <path d="M 18.3125 70.21875 
L 18.3125 54.6875 
L 36.8125 54.6875 
L 36.8125 47.703125 
L 18.3125 47.703125 
L 18.3125 18.015625 
Q 18.3125 11.328125 20.140625 9.421875 
Q 21.96875 7.515625 27.59375 7.515625 
L 36.8125 7.515625 
L 36.8125 0 
L 27.59375 0 
Q 17.1875 0 13.234375 3.875 
Q 9.28125 7.765625 9.28125 18.015625 
L 9.28125 47.703125 
L 2.6875 47.703125 
L 2.6875 54.6875 
L 9.28125 54.6875 
L 9.28125 70.21875 
z
" id="DejaVuSans-74"/>
      <path d="M 54.890625 33.015625 
L 54.890625 0 
L 45.90625 0 
L 45.90625 32.71875 
Q 45.90625 40.484375 42.875 44.328125 
Q 39.84375 48.1875 33.796875 48.1875 
Q 26.515625 48.1875 22.3125 43.546875 
Q 18.109375 38.921875 18.109375 30.90625 
L 18.109375 0 
L 9.078125 0 
L 9.078125 75.984375 
L 18.109375 75.984375 
L 18.109375 46.1875 
Q 21.34375 51.125 25.703125 53.5625 
Q 30.078125 56 35.796875 56 
Q 45.21875 56 50.046875 50.171875 
Q 54.890625 44.34375 54.890625 33.015625 
z
" id="DejaVuSans-68"/>
     </defs>
     <g transform="translate(77.603125 251.054187)scale(0.1 -0.1)">
      <use xlink:href="#DejaVuSans-47"/>
      <use x="77.490234" xlink:href="#DejaVuSans-72"/>
      <use x="118.572266" xlink:href="#DejaVuSans-6f"/>
      <use x="179.753906" xlink:href="#DejaVuSans-75"/>
      <use x="243.132812" xlink:href="#DejaVuSans-6e"/>
      <use x="306.511719" xlink:href="#DejaVuSans-64"/>
      <use x="369.988281" xlink:href="#DejaVuSans-20"/>
      <use x="401.775391" xlink:href="#DejaVuSans-54"/>
      <use x="462.640625" xlink:href="#DejaVuSans-72"/>
      <use x="503.753906" xlink:href="#DejaVuSans-75"/>
      <use x="567.132812" xlink:href="#DejaVuSans-74"/>
      <use x="606.341797" xlink:href="#DejaVuSans-68"/>
     </g>
    </g>
    <g id="line2d_35">
     <path d="M 49.603125 262.232312 
L 69.603125 262.232312 
" style="fill:none;stroke:#0000ff;stroke-linecap:square;stroke-width:1.5;"/>
    </g>
    <g id="line2d_36">
     <g>
      <use style="fill:#0000ff;stroke:#0000ff;" x="59.603125" xlink:href="#mb9827de4a6" y="262.232312"/>
     </g>
    </g>
    <g id="text_34">
     <!-- Prediction -->
     <defs>
      <path d="M 19.671875 64.796875 
L 19.671875 37.40625 
L 32.078125 37.40625 
Q 38.96875 37.40625 42.71875 40.96875 
Q 46.484375 44.53125 46.484375 51.125 
Q 46.484375 57.671875 42.71875 61.234375 
Q 38.96875 64.796875 32.078125 64.796875 
z
M 9.8125 72.90625 
L 32.078125 72.90625 
Q 44.34375 72.90625 50.609375 67.359375 
Q 56.890625 61.8125 56.890625 51.125 
Q 56.890625 40.328125 50.609375 34.8125 
Q 44.34375 29.296875 32.078125 29.296875 
L 19.671875 29.296875 
L 19.671875 0 
L 9.8125 0 
z
" id="DejaVuSans-50"/>
      <path d="M 48.78125 52.59375 
L 48.78125 44.1875 
Q 44.96875 46.296875 41.140625 47.34375 
Q 37.3125 48.390625 33.40625 48.390625 
Q 24.65625 48.390625 19.8125 42.84375 
Q 14.984375 37.3125 14.984375 27.296875 
Q 14.984375 17.28125 19.8125 11.734375 
Q 24.65625 6.203125 33.40625 6.203125 
Q 37.3125 6.203125 41.140625 7.25 
Q 44.96875 8.296875 48.78125 10.40625 
L 48.78125 2.09375 
Q 45.015625 0.34375 40.984375 -0.53125 
Q 36.96875 -1.421875 32.421875 -1.421875 
Q 20.0625 -1.421875 12.78125 6.34375 
Q 5.515625 14.109375 5.515625 27.296875 
Q 5.515625 40.671875 12.859375 48.328125 
Q 20.21875 56 33.015625 56 
Q 37.15625 56 41.109375 55.140625 
Q 45.0625 54.296875 48.78125 52.59375 
z
" id="DejaVuSans-63"/>
     </defs>
     <g transform="translate(77.603125 265.732312)scale(0.1 -0.1)">
      <use xlink:href="#DejaVuSans-50"/>
      <use x="60.287109" xlink:href="#DejaVuSans-72"/>
      <use x="101.369141" xlink:href="#DejaVuSans-65"/>
      <use x="162.892578" xlink:href="#DejaVuSans-64"/>
      <use x="226.369141" xlink:href="#DejaVuSans-69"/>
      <use x="254.152344" xlink:href="#DejaVuSans-63"/>
      <use x="309.132812" xlink:href="#DejaVuSans-74"/>
      <use x="348.341797" xlink:href="#DejaVuSans-69"/>
      <use x="376.125" xlink:href="#DejaVuSans-6f"/>
      <use x="437.306641" xlink:href="#DejaVuSans-6e"/>
     </g>
    </g>
   </g>
  </g>
 </g>
 <defs>
  <clipPath id="p0cad4d2029">
   <rect height="78.268235" width="357.12" x="40.603125" y="10.7"/>
  </clipPath>
  <clipPath id="p4e30570315">
   <rect height="78.268235" width="357.12" x="40.603125" y="104.621882"/>
  </clipPath>
  <clipPath id="p15691ab4d3">
   <rect height="78.268235" width="357.12" x="40.603125" y="198.543765"/>
  </clipPath>
 </defs>
</svg>
