<?xml version="1.0" encoding="utf-8" standalone="no"?>
<!DOCTYPE svg PUBLIC "-//W3C//DTD SVG 1.1//EN"
  "http://www.w3.org/Graphics/SVG/1.1/DTD/svg11.dtd">
<!-- Created with matplotlib (http://matplotlib.org/) -->
<svg height="314pt" version="1.1" viewBox="0 0 416 314" width="416pt" xmlns="http://www.w3.org/2000/svg" xmlns:xlink="http://www.w3.org/1999/xlink">
 <defs>
  <style type="text/css">
*{stroke-linecap:butt;stroke-linejoin:round;}
  </style>
 </defs>
 <g id="figure_1">
  <g id="patch_1">
   <path d="M 0 314.36825 
L 416.802812 314.36825 
L 416.802812 0 
L 0 0 
z
" style="fill:#ffffff;"/>
  </g>
  <g id="axes_1">
   <g id="patch_2">
    <path d="M 48.982813 88.968235 
L 406.102813 88.968235 
L 406.102813 10.7 
L 48.982813 10.7 
z
" style="fill:#ffffff;"/>
   </g>
   <g id="matplotlib.axis_1">
    <g id="xtick_1">
     <g id="line2d_1">
      <defs>
       <path d="M 0 0 
L 0 3.5 
" id="m00bfbdb413" style="stroke:#000000;stroke-width:0.8;"/>
      </defs>
      <g>
       <use style="stroke:#000000;stroke-width:0.8;" x="65.21554" xlink:href="#m00bfbdb413" y="88.968235"/>
      </g>
     </g>
     <g id="text_1">
      <!-- 0 -->
      <defs>
       <path d="M 31.78125 66.40625 
Q 24.171875 66.40625 20.328125 58.90625 
Q 16.5 51.421875 16.5 36.375 
Q 16.5 21.390625 20.328125 13.890625 
Q 24.171875 6.390625 31.78125 6.390625 
Q 39.453125 6.390625 43.28125 13.890625 
Q 47.125 21.390625 47.125 36.375 
Q 47.125 51.421875 43.28125 58.90625 
Q 39.453125 66.40625 31.78125 66.40625 
z
M 31.78125 74.21875 
Q 44.046875 74.21875 50.515625 64.515625 
Q 56.984375 54.828125 56.984375 36.375 
Q 56.984375 17.96875 50.515625 8.265625 
Q 44.046875 -1.421875 31.78125 -1.421875 
Q 19.53125 -1.421875 13.0625 8.265625 
Q 6.59375 17.96875 6.59375 36.375 
Q 6.59375 54.828125 13.0625 64.515625 
Q 19.53125 74.21875 31.78125 74.21875 
z
" id="DejaVuSans-30"/>
      </defs>
      <g transform="translate(62.03429 103.566673)scale(0.1 -0.1)">
       <use xlink:href="#DejaVuSans-30"/>
      </g>
     </g>
    </g>
    <g id="xtick_2">
     <g id="line2d_2">
      <g>
       <use style="stroke:#000000;stroke-width:0.8;" x="130.802317" xlink:href="#m00bfbdb413" y="88.968235"/>
      </g>
     </g>
     <g id="text_2">
      <!-- 20 -->
      <defs>
       <path d="M 19.1875 8.296875 
L 53.609375 8.296875 
L 53.609375 0 
L 7.328125 0 
L 7.328125 8.296875 
Q 12.9375 14.109375 22.625 23.890625 
Q 32.328125 33.6875 34.8125 36.53125 
Q 39.546875 41.84375 41.421875 45.53125 
Q 43.3125 49.21875 43.3125 52.78125 
Q 43.3125 58.59375 39.234375 62.25 
Q 35.15625 65.921875 28.609375 65.921875 
Q 23.96875 65.921875 18.8125 64.3125 
Q 13.671875 62.703125 7.8125 59.421875 
L 7.8125 69.390625 
Q 13.765625 71.78125 18.9375 73 
Q 24.125 74.21875 28.421875 74.21875 
Q 39.75 74.21875 46.484375 68.546875 
Q 53.21875 62.890625 53.21875 53.421875 
Q 53.21875 48.921875 51.53125 44.890625 
Q 49.859375 40.875 45.40625 35.40625 
Q 44.1875 33.984375 37.640625 27.21875 
Q 31.109375 20.453125 19.1875 8.296875 
z
" id="DejaVuSans-32"/>
      </defs>
      <g transform="translate(124.439817 103.566673)scale(0.1 -0.1)">
       <use xlink:href="#DejaVuSans-32"/>
       <use x="63.623047" xlink:href="#DejaVuSans-30"/>
      </g>
     </g>
    </g>
    <g id="xtick_3">
     <g id="line2d_3">
      <g>
       <use style="stroke:#000000;stroke-width:0.8;" x="196.389093" xlink:href="#m00bfbdb413" y="88.968235"/>
      </g>
     </g>
     <g id="text_3">
      <!-- 40 -->
      <defs>
       <path d="M 37.796875 64.3125 
L 12.890625 25.390625 
L 37.796875 25.390625 
z
M 35.203125 72.90625 
L 47.609375 72.90625 
L 47.609375 25.390625 
L 58.015625 25.390625 
L 58.015625 17.1875 
L 47.609375 17.1875 
L 47.609375 0 
L 37.796875 0 
L 37.796875 17.1875 
L 4.890625 17.1875 
L 4.890625 26.703125 
z
" id="DejaVuSans-34"/>
      </defs>
      <g transform="translate(190.026593 103.566673)scale(0.1 -0.1)">
       <use xlink:href="#DejaVuSans-34"/>
       <use x="63.623047" xlink:href="#DejaVuSans-30"/>
      </g>
     </g>
    </g>
    <g id="xtick_4">
     <g id="line2d_4">
      <g>
       <use style="stroke:#000000;stroke-width:0.8;" x="261.97587" xlink:href="#m00bfbdb413" y="88.968235"/>
      </g>
     </g>
     <g id="text_4">
      <!-- 60 -->
      <defs>
       <path d="M 33.015625 40.375 
Q 26.375 40.375 22.484375 35.828125 
Q 18.609375 31.296875 18.609375 23.390625 
Q 18.609375 15.53125 22.484375 10.953125 
Q 26.375 6.390625 33.015625 6.390625 
Q 39.65625 6.390625 43.53125 10.953125 
Q 47.40625 15.53125 47.40625 23.390625 
Q 47.40625 31.296875 43.53125 35.828125 
Q 39.65625 40.375 33.015625 40.375 
z
M 52.59375 71.296875 
L 52.59375 62.3125 
Q 48.875 64.0625 45.09375 64.984375 
Q 41.3125 65.921875 37.59375 65.921875 
Q 27.828125 65.921875 22.671875 59.328125 
Q 17.53125 52.734375 16.796875 39.40625 
Q 19.671875 43.65625 24.015625 45.921875 
Q 28.375 48.1875 33.59375 48.1875 
Q 44.578125 48.1875 50.953125 41.515625 
Q 57.328125 34.859375 57.328125 23.390625 
Q 57.328125 12.15625 50.6875 5.359375 
Q 44.046875 -1.421875 33.015625 -1.421875 
Q 20.359375 -1.421875 13.671875 8.265625 
Q 6.984375 17.96875 6.984375 36.375 
Q 6.984375 53.65625 15.1875 63.9375 
Q 23.390625 74.21875 37.203125 74.21875 
Q 40.921875 74.21875 44.703125 73.484375 
Q 48.484375 72.75 52.59375 71.296875 
z
" id="DejaVuSans-36"/>
      </defs>
      <g transform="translate(255.61337 103.566673)scale(0.1 -0.1)">
       <use xlink:href="#DejaVuSans-36"/>
       <use x="63.623047" xlink:href="#DejaVuSans-30"/>
      </g>
     </g>
    </g>
    <g id="xtick_5">
     <g id="line2d_5">
      <g>
       <use style="stroke:#000000;stroke-width:0.8;" x="327.562647" xlink:href="#m00bfbdb413" y="88.968235"/>
      </g>
     </g>
     <g id="text_5">
      <!-- 80 -->
      <defs>
       <path d="M 31.78125 34.625 
Q 24.75 34.625 20.71875 30.859375 
Q 16.703125 27.09375 16.703125 20.515625 
Q 16.703125 13.921875 20.71875 10.15625 
Q 24.75 6.390625 31.78125 6.390625 
Q 38.8125 6.390625 42.859375 10.171875 
Q 46.921875 13.96875 46.921875 20.515625 
Q 46.921875 27.09375 42.890625 30.859375 
Q 38.875 34.625 31.78125 34.625 
z
M 21.921875 38.8125 
Q 15.578125 40.375 12.03125 44.71875 
Q 8.5 49.078125 8.5 55.328125 
Q 8.5 64.0625 14.71875 69.140625 
Q 20.953125 74.21875 31.78125 74.21875 
Q 42.671875 74.21875 48.875 69.140625 
Q 55.078125 64.0625 55.078125 55.328125 
Q 55.078125 49.078125 51.53125 44.71875 
Q 48 40.375 41.703125 38.8125 
Q 48.828125 37.15625 52.796875 32.3125 
Q 56.78125 27.484375 56.78125 20.515625 
Q 56.78125 9.90625 50.3125 4.234375 
Q 43.84375 -1.421875 31.78125 -1.421875 
Q 19.734375 -1.421875 13.25 4.234375 
Q 6.78125 9.90625 6.78125 20.515625 
Q 6.78125 27.484375 10.78125 32.3125 
Q 14.796875 37.15625 21.921875 38.8125 
z
M 18.3125 54.390625 
Q 18.3125 48.734375 21.84375 45.5625 
Q 25.390625 42.390625 31.78125 42.390625 
Q 38.140625 42.390625 41.71875 45.5625 
Q 45.3125 48.734375 45.3125 54.390625 
Q 45.3125 60.0625 41.71875 63.234375 
Q 38.140625 66.40625 31.78125 66.40625 
Q 25.390625 66.40625 21.84375 63.234375 
Q 18.3125 60.0625 18.3125 54.390625 
z
" id="DejaVuSans-38"/>
      </defs>
      <g transform="translate(321.200147 103.566673)scale(0.1 -0.1)">
       <use xlink:href="#DejaVuSans-38"/>
       <use x="63.623047" xlink:href="#DejaVuSans-30"/>
      </g>
     </g>
    </g>
    <g id="xtick_6">
     <g id="line2d_6">
      <g>
       <use style="stroke:#000000;stroke-width:0.8;" x="393.149424" xlink:href="#m00bfbdb413" y="88.968235"/>
      </g>
     </g>
     <g id="text_6">
      <!-- 100 -->
      <defs>
       <path d="M 12.40625 8.296875 
L 28.515625 8.296875 
L 28.515625 63.921875 
L 10.984375 60.40625 
L 10.984375 69.390625 
L 28.421875 72.90625 
L 38.28125 72.90625 
L 38.28125 8.296875 
L 54.390625 8.296875 
L 54.390625 0 
L 12.40625 0 
z
" id="DejaVuSans-31"/>
      </defs>
      <g transform="translate(383.605674 103.566673)scale(0.1 -0.1)">
       <use xlink:href="#DejaVuSans-31"/>
       <use x="63.623047" xlink:href="#DejaVuSans-30"/>
       <use x="127.246094" xlink:href="#DejaVuSans-30"/>
      </g>
     </g>
    </g>
    <g id="text_7">
     <!-- Time -->
     <defs>
      <path d="M -0.296875 72.90625 
L 61.375 72.90625 
L 61.375 64.59375 
L 35.5 64.59375 
L 35.5 0 
L 25.59375 0 
L 25.59375 64.59375 
L -0.296875 64.59375 
z
" id="DejaVuSans-54"/>
      <path d="M 9.421875 54.6875 
L 18.40625 54.6875 
L 18.40625 0 
L 9.421875 0 
z
M 9.421875 75.984375 
L 18.40625 75.984375 
L 18.40625 64.59375 
L 9.421875 64.59375 
z
" id="DejaVuSans-69"/>
      <path d="M 52 44.1875 
Q 55.375 50.25 60.0625 53.125 
Q 64.75 56 71.09375 56 
Q 79.640625 56 84.28125 50.015625 
Q 88.921875 44.046875 88.921875 33.015625 
L 88.921875 0 
L 79.890625 0 
L 79.890625 32.71875 
Q 79.890625 40.578125 77.09375 44.375 
Q 74.3125 48.1875 68.609375 48.1875 
Q 61.625 48.1875 57.5625 43.546875 
Q 53.515625 38.921875 53.515625 30.90625 
L 53.515625 0 
L 44.484375 0 
L 44.484375 32.71875 
Q 44.484375 40.625 41.703125 44.40625 
Q 38.921875 48.1875 33.109375 48.1875 
Q 26.21875 48.1875 22.15625 43.53125 
Q 18.109375 38.875 18.109375 30.90625 
L 18.109375 0 
L 9.078125 0 
L 9.078125 54.6875 
L 18.109375 54.6875 
L 18.109375 46.1875 
Q 21.1875 51.21875 25.484375 53.609375 
Q 29.78125 56 35.6875 56 
Q 41.65625 56 45.828125 52.96875 
Q 50 49.953125 52 44.1875 
z
" id="DejaVuSans-6d"/>
      <path d="M 56.203125 29.59375 
L 56.203125 25.203125 
L 14.890625 25.203125 
Q 15.484375 15.921875 20.484375 11.0625 
Q 25.484375 6.203125 34.421875 6.203125 
Q 39.59375 6.203125 44.453125 7.46875 
Q 49.3125 8.734375 54.109375 11.28125 
L 54.109375 2.78125 
Q 49.265625 0.734375 44.1875 -0.34375 
Q 39.109375 -1.421875 33.890625 -1.421875 
Q 20.796875 -1.421875 13.15625 6.1875 
Q 5.515625 13.8125 5.515625 26.8125 
Q 5.515625 40.234375 12.765625 48.109375 
Q 20.015625 56 32.328125 56 
Q 43.359375 56 49.78125 48.890625 
Q 56.203125 41.796875 56.203125 29.59375 
z
M 47.21875 32.234375 
Q 47.125 39.59375 43.09375 43.984375 
Q 39.0625 48.390625 32.421875 48.390625 
Q 24.90625 48.390625 20.390625 44.140625 
Q 15.875 39.890625 15.1875 32.171875 
z
" id="DejaVuSans-65"/>
     </defs>
     <g transform="translate(215.155313 117.244798)scale(0.1 -0.1)">
      <use xlink:href="#DejaVuSans-54"/>
      <use x="61.037109" xlink:href="#DejaVuSans-69"/>
      <use x="88.820312" xlink:href="#DejaVuSans-6d"/>
      <use x="186.232422" xlink:href="#DejaVuSans-65"/>
     </g>
    </g>
   </g>
   <g id="matplotlib.axis_2">
    <g id="ytick_1">
     <g id="line2d_7">
      <defs>
       <path d="M 0 0 
L -3.5 0 
" id="ma13f49ca43" style="stroke:#000000;stroke-width:0.8;"/>
      </defs>
      <g>
       <use style="stroke:#000000;stroke-width:0.8;" x="48.982813" xlink:href="#ma13f49ca43" y="85.277786"/>
      </g>
     </g>
     <g id="text_8">
      <!-- 0 -->
      <g transform="translate(35.620313 89.077004)scale(0.1 -0.1)">
       <use xlink:href="#DejaVuSans-30"/>
      </g>
     </g>
    </g>
    <g id="ytick_2">
     <g id="line2d_8">
      <g>
       <use style="stroke:#000000;stroke-width:0.8;" x="48.982813" xlink:href="#ma13f49ca43" y="56.912422"/>
      </g>
     </g>
     <g id="text_9">
      <!-- 25 -->
      <defs>
       <path d="M 10.796875 72.90625 
L 49.515625 72.90625 
L 49.515625 64.59375 
L 19.828125 64.59375 
L 19.828125 46.734375 
Q 21.96875 47.46875 24.109375 47.828125 
Q 26.265625 48.1875 28.421875 48.1875 
Q 40.625 48.1875 47.75 41.5 
Q 54.890625 34.8125 54.890625 23.390625 
Q 54.890625 11.625 47.5625 5.09375 
Q 40.234375 -1.421875 26.90625 -1.421875 
Q 22.3125 -1.421875 17.546875 -0.640625 
Q 12.796875 0.140625 7.71875 1.703125 
L 7.71875 11.625 
Q 12.109375 9.234375 16.796875 8.0625 
Q 21.484375 6.890625 26.703125 6.890625 
Q 35.15625 6.890625 40.078125 11.328125 
Q 45.015625 15.765625 45.015625 23.390625 
Q 45.015625 31 40.078125 35.4375 
Q 35.15625 39.890625 26.703125 39.890625 
Q 22.75 39.890625 18.8125 39.015625 
Q 14.890625 38.140625 10.796875 36.28125 
z
" id="DejaVuSans-35"/>
      </defs>
      <g transform="translate(29.257813 60.711641)scale(0.1 -0.1)">
       <use xlink:href="#DejaVuSans-32"/>
       <use x="63.623047" xlink:href="#DejaVuSans-35"/>
      </g>
     </g>
    </g>
    <g id="ytick_3">
     <g id="line2d_9">
      <g>
       <use style="stroke:#000000;stroke-width:0.8;" x="48.982813" xlink:href="#ma13f49ca43" y="28.547058"/>
      </g>
     </g>
     <g id="text_10">
      <!-- 50 -->
      <g transform="translate(29.257813 32.346277)scale(0.1 -0.1)">
       <use xlink:href="#DejaVuSans-35"/>
       <use x="63.623047" xlink:href="#DejaVuSans-30"/>
      </g>
     </g>
    </g>
    <g id="text_11">
     <!-- x -->
     <defs>
      <path d="M 54.890625 54.6875 
L 35.109375 28.078125 
L 55.90625 0 
L 45.3125 0 
L 29.390625 21.484375 
L 13.484375 0 
L 2.875 0 
L 24.125 28.609375 
L 4.6875 54.6875 
L 15.28125 54.6875 
L 29.78125 35.203125 
L 44.28125 54.6875 
z
" id="DejaVuSans-78"/>
     </defs>
     <g transform="translate(23.178125 52.793493)rotate(-90)scale(0.1 -0.1)">
      <use xlink:href="#DejaVuSans-78"/>
     </g>
    </g>
   </g>
   <g id="line2d_10">
    <path clip-path="url(#pa49e6ba1fc)" d="M 65.21554 85.277786 
L 68.494879 85.286485 
L 71.774217 85.298669 
L 75.053556 85.309639 
L 78.332895 85.31969 
L 81.612234 85.352199 
L 84.891573 85.37595 
L 88.170912 85.394254 
L 91.450251 85.406005 
L 94.729589 85.410588 
L 98.008928 85.395316 
L 101.288267 85.365536 
L 104.567606 85.315249 
L 107.846945 85.237777 
L 111.126284 85.139176 
L 114.405622 85.015262 
L 117.684961 84.867466 
L 120.9643 84.69847 
L 124.243639 84.511236 
L 127.522978 84.283245 
L 130.802317 84.034778 
L 134.081655 83.74901 
L 137.360994 83.4356 
L 140.640333 83.078623 
L 143.919672 82.672915 
L 147.199011 82.245295 
L 150.47835 81.768052 
L 153.757689 81.262327 
L 157.037027 80.71852 
L 160.316366 80.145015 
L 163.595705 79.544624 
L 166.875044 78.912277 
L 170.154383 78.25942 
L 173.433722 77.58487 
L 176.71306 76.879283 
L 179.992399 76.157541 
L 183.271738 75.41873 
L 186.551077 74.680089 
L 189.830416 73.940353 
L 193.109755 73.197853 
L 196.389093 72.446626 
L 199.668432 71.685273 
L 202.947771 70.910627 
L 206.22711 70.12595 
L 209.506449 69.332174 
L 212.785788 68.530849 
L 216.065127 67.728037 
L 219.344465 66.921748 
L 222.623804 66.103785 
L 225.903143 65.279845 
L 229.182482 64.450105 
L 232.461821 63.617894 
L 235.74116 62.784229 
L 239.020498 61.938122 
L 242.299837 61.083437 
L 245.579176 60.219604 
L 248.858515 59.346002 
L 252.137854 58.467449 
L 255.417193 57.576699 
L 258.696532 56.679112 
L 261.97587 55.749626 
L 265.255209 54.813077 
L 268.534548 53.865612 
L 271.813887 52.915468 
L 275.093226 51.950708 
L 278.372565 50.98076 
L 281.651903 50.003251 
L 284.931242 49.020195 
L 288.210581 48.026765 
L 291.48992 47.022443 
L 294.769259 46.008853 
L 298.048598 44.983202 
L 301.327936 43.952165 
L 304.607275 42.906452 
L 307.886614 41.858705 
L 311.165953 40.798086 
L 314.445292 39.734324 
L 317.724631 38.660036 
L 321.00397 37.58045 
L 324.283308 36.48949 
L 327.562647 35.398279 
L 330.841986 34.299588 
L 334.121325 33.196539 
L 337.400664 32.079229 
L 340.680003 30.964524 
L 343.959341 29.852784 
L 347.23868 28.737984 
L 350.518019 27.62347 
L 353.797358 26.510202 
L 357.076697 25.396307 
L 360.356036 24.283394 
L 363.635374 23.165118 
L 366.914713 22.04673 
L 370.194052 20.929658 
L 373.473391 19.809288 
L 376.75273 18.69795 
L 380.032069 17.585937 
L 383.311408 16.47821 
L 386.590746 15.366137 
L 389.870085 14.257647 
" style="fill:none;stroke:#ff0000;stroke-linecap:square;stroke-width:1.5;"/>
    <defs>
     <path d="M 0 2.5 
C 0.663008 2.5 1.29895 2.236584 1.767767 1.767767 
C 2.236584 1.29895 2.5 0.663008 2.5 0 
C 2.5 -0.663008 2.236584 -1.29895 1.767767 -1.767767 
C 1.29895 -2.236584 0.663008 -2.5 0 -2.5 
C -0.663008 -2.5 -1.29895 -2.236584 -1.767767 -1.767767 
C -2.236584 -1.29895 -2.5 -0.663008 -2.5 0 
C -2.5 0.663008 -2.236584 1.29895 -1.767767 1.767767 
C -1.29895 2.236584 -0.663008 2.5 0 2.5 
z
" id="m0841e59436" style="stroke:#ff0000;"/>
    </defs>
    <g clip-path="url(#pa49e6ba1fc)">
     <use style="fill:#ff0000;stroke:#ff0000;" x="65.21554" xlink:href="#m0841e59436" y="85.277786"/>
     <use style="fill:#ff0000;stroke:#ff0000;" x="98.008928" xlink:href="#m0841e59436" y="85.395316"/>
     <use style="fill:#ff0000;stroke:#ff0000;" x="130.802317" xlink:href="#m0841e59436" y="84.034778"/>
     <use style="fill:#ff0000;stroke:#ff0000;" x="163.595705" xlink:href="#m0841e59436" y="79.544624"/>
     <use style="fill:#ff0000;stroke:#ff0000;" x="196.389093" xlink:href="#m0841e59436" y="72.446626"/>
     <use style="fill:#ff0000;stroke:#ff0000;" x="229.182482" xlink:href="#m0841e59436" y="64.450105"/>
     <use style="fill:#ff0000;stroke:#ff0000;" x="261.97587" xlink:href="#m0841e59436" y="55.749626"/>
     <use style="fill:#ff0000;stroke:#ff0000;" x="294.769259" xlink:href="#m0841e59436" y="46.008853"/>
     <use style="fill:#ff0000;stroke:#ff0000;" x="327.562647" xlink:href="#m0841e59436" y="35.398279"/>
     <use style="fill:#ff0000;stroke:#ff0000;" x="360.356036" xlink:href="#m0841e59436" y="24.283394"/>
    </g>
   </g>
   <g id="line2d_11">
    <path clip-path="url(#pa49e6ba1fc)" d="M 65.21554 85.277786 
L 68.494879 85.28184 
L 71.774217 85.281963 
L 75.053556 85.282575 
L 78.332895 85.280131 
L 81.612234 85.281765 
L 84.891573 85.280461 
L 88.170912 85.280961 
L 91.450251 85.275814 
L 94.729589 85.26755 
L 98.008928 85.24856 
L 101.288267 85.209072 
L 104.567606 85.148154 
L 107.846945 85.073761 
L 111.126284 84.975299 
L 114.405622 84.846361 
L 117.684961 84.695412 
L 120.9643 84.51552 
L 124.243639 84.310095 
L 127.522978 84.072071 
L 130.802317 83.803317 
L 134.081655 83.518979 
L 137.360994 83.202139 
L 140.640333 82.855091 
L 143.919672 82.459847 
L 147.199011 82.022606 
L 150.47835 81.549566 
L 153.757689 81.045044 
L 157.037027 80.509135 
L 160.316366 79.942236 
L 163.595705 79.349848 
L 166.875044 78.768681 
L 170.154383 78.147081 
L 173.433722 77.485147 
L 176.71306 76.779139 
L 179.992399 76.060682 
L 183.271738 75.335095 
L 186.551077 74.601668 
L 189.830416 73.854936 
L 193.109755 73.098259 
L 196.389093 72.326704 
L 199.668432 71.53927 
L 202.947771 70.736208 
L 206.22711 69.92851 
L 209.506449 69.128548 
L 212.785788 68.314405 
L 216.065127 67.501888 
L 219.344465 66.703498 
L 222.623804 65.88085 
L 225.903143 65.057652 
L 229.182482 64.229652 
L 232.461821 63.424183 
L 235.74116 62.620417 
L 239.020498 61.812777 
L 242.299837 60.993111 
L 245.579176 60.163263 
L 248.858515 59.316375 
L 252.137854 58.473543 
L 255.417193 57.610692 
L 258.696532 56.754672 
L 261.97587 55.898612 
L 265.255209 55.034169 
L 268.534548 54.166508 
L 271.813887 53.315423 
L 275.093226 52.453447 
L 278.372565 51.587234 
L 281.651903 50.710373 
L 284.931242 49.829114 
L 288.210581 48.943069 
L 291.48992 48.063477 
L 294.769259 47.17151 
L 298.048598 46.283517 
L 301.327936 45.38244 
L 304.607275 44.462466 
L 307.886614 43.544405 
L 311.165953 42.618388 
L 314.445292 41.667779 
L 317.724631 40.702419 
L 321.00397 39.738959 
L 324.283308 38.754192 
L 327.562647 37.76101 
L 330.841986 36.753329 
L 334.121325 35.741458 
L 337.400664 34.724238 
L 340.680003 33.707316 
L 343.959341 32.685278 
L 347.23868 31.66753 
L 350.518019 30.644137 
L 353.797358 29.632444 
L 357.076697 28.616305 
L 360.356036 27.600704 
L 363.635374 26.579012 
L 366.914713 25.551261 
L 370.194052 24.52303 
L 373.473391 23.490821 
L 376.75273 22.45633 
L 380.032069 21.440417 
L 383.311408 20.433978 
L 386.590746 19.438057 
L 389.870085 18.448844 
" style="fill:none;stroke:#0000ff;stroke-linecap:square;stroke-width:1.5;"/>
    <defs>
     <path d="M 0 2.5 
C 0.663008 2.5 1.29895 2.236584 1.767767 1.767767 
C 2.236584 1.29895 2.5 0.663008 2.5 0 
C 2.5 -0.663008 2.236584 -1.29895 1.767767 -1.767767 
C 1.29895 -2.236584 0.663008 -2.5 0 -2.5 
C -0.663008 -2.5 -1.29895 -2.236584 -1.767767 -1.767767 
C -2.236584 -1.29895 -2.5 -0.663008 -2.5 0 
C -2.5 0.663008 -2.236584 1.29895 -1.767767 1.767767 
C -1.29895 2.236584 -0.663008 2.5 0 2.5 
z
" id="m24689f521b" style="stroke:#0000ff;"/>
    </defs>
    <g clip-path="url(#pa49e6ba1fc)">
     <use style="fill:#0000ff;stroke:#0000ff;" x="65.21554" xlink:href="#m24689f521b" y="85.277786"/>
     <use style="fill:#0000ff;stroke:#0000ff;" x="98.008928" xlink:href="#m24689f521b" y="85.24856"/>
     <use style="fill:#0000ff;stroke:#0000ff;" x="130.802317" xlink:href="#m24689f521b" y="83.803317"/>
     <use style="fill:#0000ff;stroke:#0000ff;" x="163.595705" xlink:href="#m24689f521b" y="79.349848"/>
     <use style="fill:#0000ff;stroke:#0000ff;" x="196.389093" xlink:href="#m24689f521b" y="72.326704"/>
     <use style="fill:#0000ff;stroke:#0000ff;" x="229.182482" xlink:href="#m24689f521b" y="64.229652"/>
     <use style="fill:#0000ff;stroke:#0000ff;" x="261.97587" xlink:href="#m24689f521b" y="55.898612"/>
     <use style="fill:#0000ff;stroke:#0000ff;" x="294.769259" xlink:href="#m24689f521b" y="47.17151"/>
     <use style="fill:#0000ff;stroke:#0000ff;" x="327.562647" xlink:href="#m24689f521b" y="37.76101"/>
     <use style="fill:#0000ff;stroke:#0000ff;" x="360.356036" xlink:href="#m24689f521b" y="27.600704"/>
    </g>
   </g>
   <g id="patch_3">
    <path d="M 48.982813 88.968235 
L 48.982813 10.7 
" style="fill:none;stroke:#000000;stroke-linecap:square;stroke-linejoin:miter;stroke-width:0.8;"/>
   </g>
   <g id="patch_4">
    <path d="M 406.102813 88.968235 
L 406.102813 10.7 
" style="fill:none;stroke:#000000;stroke-linecap:square;stroke-linejoin:miter;stroke-width:0.8;"/>
   </g>
   <g id="patch_5">
    <path d="M 48.982813 88.968235 
L 406.102813 88.968235 
" style="fill:none;stroke:#000000;stroke-linecap:square;stroke-linejoin:miter;stroke-width:0.8;"/>
   </g>
   <g id="patch_6">
    <path d="M 48.982813 10.7 
L 406.102813 10.7 
" style="fill:none;stroke:#000000;stroke-linecap:square;stroke-linejoin:miter;stroke-width:0.8;"/>
   </g>
  </g>
  <g id="axes_2">
   <g id="patch_7">
    <path d="M 48.982813 182.890118 
L 406.102813 182.890118 
L 406.102813 104.621882 
L 48.982813 104.621882 
z
" style="fill:#ffffff;"/>
   </g>
   <g id="matplotlib.axis_3">
    <g id="xtick_7">
     <g id="line2d_12">
      <g>
       <use style="stroke:#000000;stroke-width:0.8;" x="65.21554" xlink:href="#m00bfbdb413" y="182.890118"/>
      </g>
     </g>
     <g id="text_12">
      <!-- 0 -->
      <g transform="translate(62.03429 197.488555)scale(0.1 -0.1)">
       <use xlink:href="#DejaVuSans-30"/>
      </g>
     </g>
    </g>
    <g id="xtick_8">
     <g id="line2d_13">
      <g>
       <use style="stroke:#000000;stroke-width:0.8;" x="130.802317" xlink:href="#m00bfbdb413" y="182.890118"/>
      </g>
     </g>
     <g id="text_13">
      <!-- 20 -->
      <g transform="translate(124.439817 197.488555)scale(0.1 -0.1)">
       <use xlink:href="#DejaVuSans-32"/>
       <use x="63.623047" xlink:href="#DejaVuSans-30"/>
      </g>
     </g>
    </g>
    <g id="xtick_9">
     <g id="line2d_14">
      <g>
       <use style="stroke:#000000;stroke-width:0.8;" x="196.389093" xlink:href="#m00bfbdb413" y="182.890118"/>
      </g>
     </g>
     <g id="text_14">
      <!-- 40 -->
      <g transform="translate(190.026593 197.488555)scale(0.1 -0.1)">
       <use xlink:href="#DejaVuSans-34"/>
       <use x="63.623047" xlink:href="#DejaVuSans-30"/>
      </g>
     </g>
    </g>
    <g id="xtick_10">
     <g id="line2d_15">
      <g>
       <use style="stroke:#000000;stroke-width:0.8;" x="261.97587" xlink:href="#m00bfbdb413" y="182.890118"/>
      </g>
     </g>
     <g id="text_15">
      <!-- 60 -->
      <g transform="translate(255.61337 197.488555)scale(0.1 -0.1)">
       <use xlink:href="#DejaVuSans-36"/>
       <use x="63.623047" xlink:href="#DejaVuSans-30"/>
      </g>
     </g>
    </g>
    <g id="xtick_11">
     <g id="line2d_16">
      <g>
       <use style="stroke:#000000;stroke-width:0.8;" x="327.562647" xlink:href="#m00bfbdb413" y="182.890118"/>
      </g>
     </g>
     <g id="text_16">
      <!-- 80 -->
      <g transform="translate(321.200147 197.488555)scale(0.1 -0.1)">
       <use xlink:href="#DejaVuSans-38"/>
       <use x="63.623047" xlink:href="#DejaVuSans-30"/>
      </g>
     </g>
    </g>
    <g id="xtick_12">
     <g id="line2d_17">
      <g>
       <use style="stroke:#000000;stroke-width:0.8;" x="393.149424" xlink:href="#m00bfbdb413" y="182.890118"/>
      </g>
     </g>
     <g id="text_17">
      <!-- 100 -->
      <g transform="translate(383.605674 197.488555)scale(0.1 -0.1)">
       <use xlink:href="#DejaVuSans-31"/>
       <use x="63.623047" xlink:href="#DejaVuSans-30"/>
       <use x="127.246094" xlink:href="#DejaVuSans-30"/>
      </g>
     </g>
    </g>
    <g id="text_18">
     <!-- Time -->
     <g transform="translate(215.155313 211.16668)scale(0.1 -0.1)">
      <use xlink:href="#DejaVuSans-54"/>
      <use x="61.037109" xlink:href="#DejaVuSans-69"/>
      <use x="88.820312" xlink:href="#DejaVuSans-6d"/>
      <use x="186.232422" xlink:href="#DejaVuSans-65"/>
     </g>
    </g>
   </g>
   <g id="matplotlib.axis_4">
    <g id="ytick_4">
     <g id="line2d_18">
      <g>
       <use style="stroke:#000000;stroke-width:0.8;" x="48.982813" xlink:href="#ma13f49ca43" y="182.071007"/>
      </g>
     </g>
     <g id="text_19">
      <!-- −10 -->
      <defs>
       <path d="M 10.59375 35.5 
L 73.1875 35.5 
L 73.1875 27.203125 
L 10.59375 27.203125 
z
" id="DejaVuSans-2212"/>
      </defs>
      <g transform="translate(20.878125 185.870225)scale(0.1 -0.1)">
       <use xlink:href="#DejaVuSans-2212"/>
       <use x="83.789062" xlink:href="#DejaVuSans-31"/>
       <use x="147.412109" xlink:href="#DejaVuSans-30"/>
      </g>
     </g>
    </g>
    <g id="ytick_5">
     <g id="line2d_19">
      <g>
       <use style="stroke:#000000;stroke-width:0.8;" x="48.982813" xlink:href="#ma13f49ca43" y="145.125268"/>
      </g>
     </g>
     <g id="text_20">
      <!-- −5 -->
      <g transform="translate(27.240625 148.924487)scale(0.1 -0.1)">
       <use xlink:href="#DejaVuSans-2212"/>
       <use x="83.789062" xlink:href="#DejaVuSans-35"/>
      </g>
     </g>
    </g>
    <g id="ytick_6">
     <g id="line2d_20">
      <g>
       <use style="stroke:#000000;stroke-width:0.8;" x="48.982813" xlink:href="#ma13f49ca43" y="108.179529"/>
      </g>
     </g>
     <g id="text_21">
      <!-- 0 -->
      <g transform="translate(35.620313 111.978748)scale(0.1 -0.1)">
       <use xlink:href="#DejaVuSans-30"/>
      </g>
     </g>
    </g>
    <g id="text_22">
     <!-- y -->
     <defs>
      <path d="M 32.171875 -5.078125 
Q 28.375 -14.84375 24.75 -17.8125 
Q 21.140625 -20.796875 15.09375 -20.796875 
L 7.90625 -20.796875 
L 7.90625 -13.28125 
L 13.1875 -13.28125 
Q 16.890625 -13.28125 18.9375 -11.515625 
Q 21 -9.765625 23.484375 -3.21875 
L 25.09375 0.875 
L 2.984375 54.6875 
L 12.5 54.6875 
L 29.59375 11.921875 
L 46.6875 54.6875 
L 56.203125 54.6875 
z
" id="DejaVuSans-79"/>
     </defs>
     <g transform="translate(14.798438 146.715375)rotate(-90)scale(0.1 -0.1)">
      <use xlink:href="#DejaVuSans-79"/>
     </g>
    </g>
   </g>
   <g id="line2d_21">
    <path clip-path="url(#pcfc3272219)" d="M 65.21554 108.179529 
L 68.494879 108.284044 
L 71.774217 108.39466 
L 75.053556 108.507804 
L 78.332895 108.716034 
L 81.612234 108.846276 
L 84.891573 108.96985 
L 88.170912 109.099429 
L 91.450251 109.261778 
L 94.729589 109.456464 
L 98.008928 109.619882 
L 101.288267 109.732483 
L 104.567606 109.84145 
L 107.846945 109.972427 
L 111.126284 110.095765 
L 114.405622 110.233692 
L 117.684961 110.38804 
L 120.9643 110.626593 
L 124.243639 110.993526 
L 127.522978 111.322907 
L 130.802317 111.666938 
L 134.081655 112.01785 
L 137.360994 112.415853 
L 140.640333 112.810175 
L 143.919672 113.206448 
L 147.199011 113.667482 
L 150.47835 114.206907 
L 153.757689 114.787774 
L 157.037027 115.406519 
L 160.316366 116.075056 
L 163.595705 116.76612 
L 166.875044 117.465521 
L 170.154383 118.178799 
L 173.433722 118.891602 
L 176.71306 119.613166 
L 179.992399 120.327092 
L 183.271738 120.975522 
L 186.551077 121.639808 
L 189.830416 122.34942 
L 193.109755 123.07855 
L 196.389093 123.798634 
L 199.668432 124.53946 
L 202.947771 125.285289 
L 206.22711 126.053997 
L 209.506449 126.819754 
L 212.785788 127.567498 
L 216.065127 128.312606 
L 219.344465 129.069336 
L 222.623804 129.872509 
L 225.903143 130.701344 
L 229.182482 131.545857 
L 232.461821 132.396151 
L 235.74116 133.238131 
L 239.020498 134.087834 
L 242.299837 134.951043 
L 245.579176 135.7955 
L 248.858515 136.66168 
L 252.137854 137.535814 
L 255.417193 138.421489 
L 258.696532 139.29918 
L 261.97587 140.030561 
L 265.255209 140.767745 
L 268.534548 141.493235 
L 271.813887 142.291163 
L 275.093226 143.07086 
L 278.372565 143.90188 
L 281.651903 144.762708 
L 284.931242 145.727829 
L 288.210581 146.699078 
L 291.48992 147.651493 
L 294.769259 148.613352 
L 298.048598 149.578744 
L 301.327936 150.553495 
L 304.607275 151.536994 
L 307.886614 152.515515 
L 311.165953 153.510754 
L 314.445292 154.510447 
L 317.724631 155.523015 
L 321.00397 156.528529 
L 324.283308 157.540716 
L 327.562647 158.541977 
L 330.841986 159.549513 
L 334.121325 160.567598 
L 337.400664 161.616171 
L 340.680003 162.630828 
L 343.959341 163.628865 
L 347.23868 164.644836 
L 350.518019 165.682466 
L 353.797358 166.814893 
L 357.076697 167.994034 
L 360.356036 169.19058 
L 363.635374 170.367072 
L 366.914713 171.537087 
L 370.194052 172.696383 
L 373.473391 173.827768 
L 376.75273 174.956319 
L 380.032069 176.062342 
L 383.311408 177.16198 
L 386.590746 178.251084 
L 389.870085 179.332471 
" style="fill:none;stroke:#ff0000;stroke-linecap:square;stroke-width:1.5;"/>
    <g clip-path="url(#pcfc3272219)">
     <use style="fill:#ff0000;stroke:#ff0000;" x="65.21554" xlink:href="#m0841e59436" y="108.179529"/>
     <use style="fill:#ff0000;stroke:#ff0000;" x="98.008928" xlink:href="#m0841e59436" y="109.619882"/>
     <use style="fill:#ff0000;stroke:#ff0000;" x="130.802317" xlink:href="#m0841e59436" y="111.666938"/>
     <use style="fill:#ff0000;stroke:#ff0000;" x="163.595705" xlink:href="#m0841e59436" y="116.76612"/>
     <use style="fill:#ff0000;stroke:#ff0000;" x="196.389093" xlink:href="#m0841e59436" y="123.798634"/>
     <use style="fill:#ff0000;stroke:#ff0000;" x="229.182482" xlink:href="#m0841e59436" y="131.545857"/>
     <use style="fill:#ff0000;stroke:#ff0000;" x="261.97587" xlink:href="#m0841e59436" y="140.030561"/>
     <use style="fill:#ff0000;stroke:#ff0000;" x="294.769259" xlink:href="#m0841e59436" y="148.613352"/>
     <use style="fill:#ff0000;stroke:#ff0000;" x="327.562647" xlink:href="#m0841e59436" y="158.541977"/>
     <use style="fill:#ff0000;stroke:#ff0000;" x="360.356036" xlink:href="#m0841e59436" y="169.19058"/>
    </g>
   </g>
   <g id="line2d_22">
    <path clip-path="url(#pcfc3272219)" d="M 65.21554 108.179529 
L 68.494879 108.304053 
L 71.774217 108.426945 
L 75.053556 108.576699 
L 78.332895 108.716488 
L 81.612234 108.840479 
L 84.891573 108.980581 
L 88.170912 109.1398 
L 91.450251 109.308553 
L 94.729589 109.497252 
L 98.008928 109.693719 
L 101.288267 109.900024 
L 104.567606 110.117356 
L 107.846945 110.338122 
L 111.126284 110.539589 
L 114.405622 110.746657 
L 117.684961 110.961759 
L 120.9643 111.175261 
L 124.243639 111.387193 
L 127.522978 111.574351 
L 130.802317 111.717359 
L 134.081655 111.86225 
L 137.360994 111.991151 
L 140.640333 112.111625 
L 143.919672 112.273908 
L 147.199011 112.476847 
L 150.47835 112.722931 
L 153.757689 112.994558 
L 157.037027 113.278093 
L 160.316366 113.578314 
L 163.595705 113.916546 
L 166.875044 114.273221 
L 170.154383 114.644692 
L 173.433722 115.057216 
L 176.71306 115.448796 
L 179.992399 115.824921 
L 183.271738 116.184992 
L 186.551077 116.612955 
L 189.830416 117.086072 
L 193.109755 117.577839 
L 196.389093 118.077301 
L 199.668432 118.580026 
L 202.947771 119.08364 
L 206.22711 119.623285 
L 209.506449 120.196942 
L 212.785788 120.740452 
L 216.065127 121.295908 
L 219.344465 121.838754 
L 222.623804 122.406621 
L 225.903143 122.994289 
L 229.182482 123.605169 
L 232.461821 124.217421 
L 235.74116 124.830785 
L 239.020498 125.448804 
L 242.299837 126.08755 
L 245.579176 126.74319 
L 248.858515 127.454754 
L 252.137854 128.166541 
L 255.417193 128.920858 
L 258.696532 129.69761 
L 261.97587 130.445688 
L 265.255209 131.188617 
L 268.534548 131.93863 
L 271.813887 132.669921 
L 275.093226 133.409248 
L 278.372565 134.17362 
L 281.651903 134.96245 
L 284.931242 135.738572 
L 288.210581 136.518194 
L 291.48992 137.283278 
L 294.769259 138.053711 
L 298.048598 138.862445 
L 301.327936 139.708658 
L 304.607275 140.559391 
L 307.886614 141.399674 
L 311.165953 142.2284 
L 314.445292 143.056946 
L 317.724631 143.92196 
L 321.00397 144.793542 
L 324.283308 145.662318 
L 327.562647 146.561946 
L 330.841986 147.431005 
L 334.121325 148.293862 
L 337.400664 149.117663 
L 340.680003 149.926435 
L 343.959341 150.755514 
L 347.23868 151.625622 
L 350.518019 152.538974 
L 353.797358 153.436202 
L 357.076697 154.35004 
L 360.356036 155.275706 
L 363.635374 156.18829 
L 366.914713 157.158939 
L 370.194052 158.111397 
L 373.473391 159.075369 
L 376.75273 160.042964 
L 380.032069 161.00613 
L 383.311408 161.995312 
L 386.590746 162.955716 
L 389.870085 163.928941 
" style="fill:none;stroke:#0000ff;stroke-linecap:square;stroke-width:1.5;"/>
    <g clip-path="url(#pcfc3272219)">
     <use style="fill:#0000ff;stroke:#0000ff;" x="65.21554" xlink:href="#m24689f521b" y="108.179529"/>
     <use style="fill:#0000ff;stroke:#0000ff;" x="98.008928" xlink:href="#m24689f521b" y="109.693719"/>
     <use style="fill:#0000ff;stroke:#0000ff;" x="130.802317" xlink:href="#m24689f521b" y="111.717359"/>
     <use style="fill:#0000ff;stroke:#0000ff;" x="163.595705" xlink:href="#m24689f521b" y="113.916546"/>
     <use style="fill:#0000ff;stroke:#0000ff;" x="196.389093" xlink:href="#m24689f521b" y="118.077301"/>
     <use style="fill:#0000ff;stroke:#0000ff;" x="229.182482" xlink:href="#m24689f521b" y="123.605169"/>
     <use style="fill:#0000ff;stroke:#0000ff;" x="261.97587" xlink:href="#m24689f521b" y="130.445688"/>
     <use style="fill:#0000ff;stroke:#0000ff;" x="294.769259" xlink:href="#m24689f521b" y="138.053711"/>
     <use style="fill:#0000ff;stroke:#0000ff;" x="327.562647" xlink:href="#m24689f521b" y="146.561946"/>
     <use style="fill:#0000ff;stroke:#0000ff;" x="360.356036" xlink:href="#m24689f521b" y="155.275706"/>
    </g>
   </g>
   <g id="patch_8">
    <path d="M 48.982813 182.890118 
L 48.982813 104.621882 
" style="fill:none;stroke:#000000;stroke-linecap:square;stroke-linejoin:miter;stroke-width:0.8;"/>
   </g>
   <g id="patch_9">
    <path d="M 406.102813 182.890118 
L 406.102813 104.621882 
" style="fill:none;stroke:#000000;stroke-linecap:square;stroke-linejoin:miter;stroke-width:0.8;"/>
   </g>
   <g id="patch_10">
    <path d="M 48.982813 182.890118 
L 406.102813 182.890118 
" style="fill:none;stroke:#000000;stroke-linecap:square;stroke-linejoin:miter;stroke-width:0.8;"/>
   </g>
   <g id="patch_11">
    <path d="M 48.982813 104.621882 
L 406.102813 104.621882 
" style="fill:none;stroke:#000000;stroke-linecap:square;stroke-linejoin:miter;stroke-width:0.8;"/>
   </g>
  </g>
  <g id="axes_3">
   <g id="patch_12">
    <path d="M 48.982813 276.812 
L 406.102813 276.812 
L 406.102813 198.543765 
L 48.982813 198.543765 
z
" style="fill:#ffffff;"/>
   </g>
   <g id="matplotlib.axis_5">
    <g id="xtick_13">
     <g id="line2d_23">
      <g>
       <use style="stroke:#000000;stroke-width:0.8;" x="65.21554" xlink:href="#m00bfbdb413" y="276.812"/>
      </g>
     </g>
     <g id="text_23">
      <!-- 0 -->
      <g transform="translate(62.03429 291.410438)scale(0.1 -0.1)">
       <use xlink:href="#DejaVuSans-30"/>
      </g>
     </g>
    </g>
    <g id="xtick_14">
     <g id="line2d_24">
      <g>
       <use style="stroke:#000000;stroke-width:0.8;" x="130.802317" xlink:href="#m00bfbdb413" y="276.812"/>
      </g>
     </g>
     <g id="text_24">
      <!-- 20 -->
      <g transform="translate(124.439817 291.410438)scale(0.1 -0.1)">
       <use xlink:href="#DejaVuSans-32"/>
       <use x="63.623047" xlink:href="#DejaVuSans-30"/>
      </g>
     </g>
    </g>
    <g id="xtick_15">
     <g id="line2d_25">
      <g>
       <use style="stroke:#000000;stroke-width:0.8;" x="196.389093" xlink:href="#m00bfbdb413" y="276.812"/>
      </g>
     </g>
     <g id="text_25">
      <!-- 40 -->
      <g transform="translate(190.026593 291.410438)scale(0.1 -0.1)">
       <use xlink:href="#DejaVuSans-34"/>
       <use x="63.623047" xlink:href="#DejaVuSans-30"/>
      </g>
     </g>
    </g>
    <g id="xtick_16">
     <g id="line2d_26">
      <g>
       <use style="stroke:#000000;stroke-width:0.8;" x="261.97587" xlink:href="#m00bfbdb413" y="276.812"/>
      </g>
     </g>
     <g id="text_26">
      <!-- 60 -->
      <g transform="translate(255.61337 291.410438)scale(0.1 -0.1)">
       <use xlink:href="#DejaVuSans-36"/>
       <use x="63.623047" xlink:href="#DejaVuSans-30"/>
      </g>
     </g>
    </g>
    <g id="xtick_17">
     <g id="line2d_27">
      <g>
       <use style="stroke:#000000;stroke-width:0.8;" x="327.562647" xlink:href="#m00bfbdb413" y="276.812"/>
      </g>
     </g>
     <g id="text_27">
      <!-- 80 -->
      <g transform="translate(321.200147 291.410438)scale(0.1 -0.1)">
       <use xlink:href="#DejaVuSans-38"/>
       <use x="63.623047" xlink:href="#DejaVuSans-30"/>
      </g>
     </g>
    </g>
    <g id="xtick_18">
     <g id="line2d_28">
      <g>
       <use style="stroke:#000000;stroke-width:0.8;" x="393.149424" xlink:href="#m00bfbdb413" y="276.812"/>
      </g>
     </g>
     <g id="text_28">
      <!-- 100 -->
      <g transform="translate(383.605674 291.410438)scale(0.1 -0.1)">
       <use xlink:href="#DejaVuSans-31"/>
       <use x="63.623047" xlink:href="#DejaVuSans-30"/>
       <use x="127.246094" xlink:href="#DejaVuSans-30"/>
      </g>
     </g>
    </g>
    <g id="text_29">
     <!-- Time -->
     <g transform="translate(215.155313 305.088562)scale(0.1 -0.1)">
      <use xlink:href="#DejaVuSans-54"/>
      <use x="61.037109" xlink:href="#DejaVuSans-69"/>
      <use x="88.820312" xlink:href="#DejaVuSans-6d"/>
      <use x="186.232422" xlink:href="#DejaVuSans-65"/>
     </g>
    </g>
   </g>
   <g id="matplotlib.axis_6">
    <g id="ytick_7">
     <g id="line2d_29">
      <g>
       <use style="stroke:#000000;stroke-width:0.8;" x="48.982813" xlink:href="#ma13f49ca43" y="273.254353"/>
      </g>
     </g>
     <g id="text_30">
      <!-- 0 -->
      <g transform="translate(35.620313 277.053572)scale(0.1 -0.1)">
       <use xlink:href="#DejaVuSans-30"/>
      </g>
     </g>
    </g>
    <g id="ytick_8">
     <g id="line2d_30">
      <g>
       <use style="stroke:#000000;stroke-width:0.8;" x="48.982813" xlink:href="#ma13f49ca43" y="239.120133"/>
      </g>
     </g>
     <g id="text_31">
      <!-- 50 -->
      <g transform="translate(29.257813 242.919352)scale(0.1 -0.1)">
       <use xlink:href="#DejaVuSans-35"/>
       <use x="63.623047" xlink:href="#DejaVuSans-30"/>
      </g>
     </g>
    </g>
    <g id="ytick_9">
     <g id="line2d_31">
      <g>
       <use style="stroke:#000000;stroke-width:0.8;" x="48.982813" xlink:href="#ma13f49ca43" y="204.985914"/>
      </g>
     </g>
     <g id="text_32">
      <!-- 100 -->
      <g transform="translate(22.895313 208.785132)scale(0.1 -0.1)">
       <use xlink:href="#DejaVuSans-31"/>
       <use x="63.623047" xlink:href="#DejaVuSans-30"/>
       <use x="127.246094" xlink:href="#DejaVuSans-30"/>
      </g>
     </g>
    </g>
    <g id="text_33">
     <!-- z -->
     <defs>
      <path d="M 5.515625 54.6875 
L 48.1875 54.6875 
L 48.1875 46.484375 
L 14.40625 7.171875 
L 48.1875 7.171875 
L 48.1875 0 
L 4.296875 0 
L 4.296875 8.203125 
L 38.09375 47.515625 
L 5.515625 47.515625 
z
" id="DejaVuSans-7a"/>
     </defs>
     <g transform="translate(16.815625 240.302101)rotate(-90)scale(0.1 -0.1)">
      <use xlink:href="#DejaVuSans-7a"/>
     </g>
    </g>
   </g>
   <g id="line2d_32">
    <path clip-path="url(#p41fa87c366)" d="M 65.21554 273.254353 
L 68.494879 272.554563 
L 71.774217 271.844953 
L 75.053556 271.128878 
L 78.332895 270.410757 
L 81.612234 269.69587 
L 84.891573 268.973808 
L 88.170912 268.248412 
L 91.450251 267.514359 
L 94.729589 266.7801 
L 98.008928 266.042032 
L 101.288267 265.303991 
L 104.567606 264.5672 
L 107.846945 263.822091 
L 111.126284 263.079028 
L 114.405622 262.340713 
L 117.684961 261.599834 
L 120.9643 260.861609 
L 124.243639 260.112466 
L 127.522978 259.367073 
L 130.802317 258.637546 
L 134.081655 257.902065 
L 137.360994 257.182881 
L 140.640333 256.45815 
L 143.919672 255.742001 
L 147.199011 255.047688 
L 150.47835 254.345982 
L 153.757689 253.667247 
L 157.037027 252.983737 
L 160.316366 252.307577 
L 163.595705 251.644067 
L 166.875044 250.976256 
L 170.154383 250.318093 
L 173.433722 249.673574 
L 176.71306 249.027995 
L 179.992399 248.391361 
L 183.271738 247.754089 
L 186.551077 247.116609 
L 189.830416 246.476257 
L 193.109755 245.836847 
L 196.389093 245.197023 
L 199.668432 244.556577 
L 202.947771 243.911932 
L 206.22711 243.262507 
L 209.506449 242.606234 
L 212.785788 241.947436 
L 216.065127 241.284869 
L 219.344465 240.622826 
L 222.623804 239.95402 
L 225.903143 239.281763 
L 229.182482 238.601964 
L 232.461821 237.917691 
L 235.74116 237.230868 
L 239.020498 236.540025 
L 242.299837 235.843999 
L 245.579176 235.151395 
L 248.858515 234.453228 
L 252.137854 233.751567 
L 255.417193 233.047801 
L 258.696532 232.3409 
L 261.97587 231.623983 
L 265.255209 230.903576 
L 268.534548 230.181667 
L 271.813887 229.459638 
L 275.093226 228.735228 
L 278.372565 228.008647 
L 281.651903 227.280045 
L 284.931242 226.550494 
L 288.210581 225.818793 
L 291.48992 225.086889 
L 294.769259 224.352375 
L 298.048598 223.617038 
L 301.327936 222.881014 
L 304.607275 222.140776 
L 307.886614 221.399569 
L 311.165953 220.653576 
L 314.445292 219.905176 
L 317.724631 219.15448 
L 321.00397 218.402147 
L 324.283308 217.644248 
L 327.562647 216.885223 
L 330.841986 216.121385 
L 334.121325 215.354673 
L 337.400664 214.582408 
L 340.680003 213.812789 
L 343.959341 213.044764 
L 347.23868 212.273514 
L 350.518019 211.500984 
L 353.797358 210.723094 
L 357.076697 209.941225 
L 360.356036 209.159928 
L 363.635374 208.379262 
L 366.914713 207.597054 
L 370.194052 206.815347 
L 373.473391 206.028389 
L 376.75273 205.242019 
L 380.032069 204.456936 
L 383.311408 203.671468 
L 386.590746 202.886448 
L 389.870085 202.101412 
" style="fill:none;stroke:#ff0000;stroke-linecap:square;stroke-width:1.5;"/>
    <g clip-path="url(#p41fa87c366)">
     <use style="fill:#ff0000;stroke:#ff0000;" x="65.21554" xlink:href="#m0841e59436" y="273.254353"/>
     <use style="fill:#ff0000;stroke:#ff0000;" x="98.008928" xlink:href="#m0841e59436" y="266.042032"/>
     <use style="fill:#ff0000;stroke:#ff0000;" x="130.802317" xlink:href="#m0841e59436" y="258.637546"/>
     <use style="fill:#ff0000;stroke:#ff0000;" x="163.595705" xlink:href="#m0841e59436" y="251.644067"/>
     <use style="fill:#ff0000;stroke:#ff0000;" x="196.389093" xlink:href="#m0841e59436" y="245.197023"/>
     <use style="fill:#ff0000;stroke:#ff0000;" x="229.182482" xlink:href="#m0841e59436" y="238.601964"/>
     <use style="fill:#ff0000;stroke:#ff0000;" x="261.97587" xlink:href="#m0841e59436" y="231.623983"/>
     <use style="fill:#ff0000;stroke:#ff0000;" x="294.769259" xlink:href="#m0841e59436" y="224.352375"/>
     <use style="fill:#ff0000;stroke:#ff0000;" x="327.562647" xlink:href="#m0841e59436" y="216.885223"/>
     <use style="fill:#ff0000;stroke:#ff0000;" x="360.356036" xlink:href="#m0841e59436" y="209.159928"/>
    </g>
   </g>
   <g id="line2d_33">
    <path clip-path="url(#p41fa87c366)" d="M 65.21554 273.254353 
L 68.494879 272.626666 
L 71.774217 272.002862 
L 75.053556 271.398265 
L 78.332895 270.774739 
L 81.612234 270.142564 
L 84.891573 269.51134 
L 88.170912 268.875691 
L 91.450251 268.232356 
L 94.729589 267.568636 
L 98.008928 266.892338 
L 101.288267 266.230128 
L 104.567606 265.550152 
L 107.846945 264.887942 
L 111.126284 264.200469 
L 114.405622 263.493293 
L 117.684961 262.778774 
L 120.9643 262.07044 
L 124.243639 261.372151 
L 127.522978 260.659776 
L 130.802317 259.950202 
L 134.081655 259.289253 
L 137.360994 258.629096 
L 140.640333 257.964569 
L 143.919672 257.293884 
L 147.199011 256.616921 
L 150.47835 255.954091 
L 153.757689 255.303893 
L 157.037027 254.663019 
L 160.316366 254.022662 
L 163.595705 253.408543 
L 166.875044 252.812309 
L 170.154383 252.209855 
L 173.433722 251.594025 
L 176.71306 250.966563 
L 179.992399 250.350576 
L 183.271738 249.74587 
L 186.551077 249.140065 
L 189.830416 248.525831 
L 193.109755 247.910427 
L 196.389093 247.290606 
L 199.668432 246.66642 
L 202.947771 246.045758 
L 206.22711 245.425422 
L 209.506449 244.81031 
L 212.785788 244.189096 
L 216.065127 243.564301 
L 219.344465 242.958168 
L 222.623804 242.335084 
L 225.903143 241.709234 
L 229.182482 241.0804 
L 232.461821 240.466944 
L 235.74116 239.857106 
L 239.020498 239.240199 
L 242.299837 238.619482 
L 245.579176 238.002711 
L 248.858515 237.3807 
L 252.137854 236.76083 
L 255.417193 236.129668 
L 258.696532 235.501953 
L 261.97587 234.881693 
L 265.255209 234.256679 
L 268.534548 233.629478 
L 271.813887 233.013785 
L 275.093226 232.398537 
L 278.372565 231.777388 
L 281.651903 231.151846 
L 284.931242 230.524712 
L 288.210581 229.895381 
L 291.48992 229.275331 
L 294.769259 228.649289 
L 298.048598 228.028075 
L 301.327936 227.395542 
L 304.607275 226.751541 
L 307.886614 226.113165 
L 311.165953 225.473055 
L 314.445292 224.822085 
L 317.724631 224.162521 
L 321.00397 223.503056 
L 324.283308 222.840606 
L 327.562647 222.170579 
L 330.841986 221.49192 
L 334.121325 220.810304 
L 337.400664 220.128151 
L 340.680003 219.447216 
L 343.959341 218.761126 
L 347.23868 218.078285 
L 350.518019 217.385355 
L 353.797358 216.695749 
L 357.076697 216.003075 
L 360.356036 215.315057 
L 363.635374 214.624456 
L 366.914713 213.923875 
L 370.194052 213.224023 
L 373.473391 212.516094 
L 376.75273 211.793841 
L 380.032069 211.076176 
L 383.311408 210.361152 
L 386.590746 209.653248 
L 389.870085 208.948079 
" style="fill:none;stroke:#0000ff;stroke-linecap:square;stroke-width:1.5;"/>
    <g clip-path="url(#p41fa87c366)">
     <use style="fill:#0000ff;stroke:#0000ff;" x="65.21554" xlink:href="#m24689f521b" y="273.254353"/>
     <use style="fill:#0000ff;stroke:#0000ff;" x="98.008928" xlink:href="#m24689f521b" y="266.892338"/>
     <use style="fill:#0000ff;stroke:#0000ff;" x="130.802317" xlink:href="#m24689f521b" y="259.950202"/>
     <use style="fill:#0000ff;stroke:#0000ff;" x="163.595705" xlink:href="#m24689f521b" y="253.408543"/>
     <use style="fill:#0000ff;stroke:#0000ff;" x="196.389093" xlink:href="#m24689f521b" y="247.290606"/>
     <use style="fill:#0000ff;stroke:#0000ff;" x="229.182482" xlink:href="#m24689f521b" y="241.0804"/>
     <use style="fill:#0000ff;stroke:#0000ff;" x="261.97587" xlink:href="#m24689f521b" y="234.881693"/>
     <use style="fill:#0000ff;stroke:#0000ff;" x="294.769259" xlink:href="#m24689f521b" y="228.649289"/>
     <use style="fill:#0000ff;stroke:#0000ff;" x="327.562647" xlink:href="#m24689f521b" y="222.170579"/>
     <use style="fill:#0000ff;stroke:#0000ff;" x="360.356036" xlink:href="#m24689f521b" y="215.315057"/>
    </g>
   </g>
   <g id="patch_13">
    <path d="M 48.982813 276.812 
L 48.982813 198.543765 
" style="fill:none;stroke:#000000;stroke-linecap:square;stroke-linejoin:miter;stroke-width:0.8;"/>
   </g>
   <g id="patch_14">
    <path d="M 406.102813 276.812 
L 406.102813 198.543765 
" style="fill:none;stroke:#000000;stroke-linecap:square;stroke-linejoin:miter;stroke-width:0.8;"/>
   </g>
   <g id="patch_15">
    <path d="M 48.982813 276.812 
L 406.102813 276.812 
" style="fill:none;stroke:#000000;stroke-linecap:square;stroke-linejoin:miter;stroke-width:0.8;"/>
   </g>
   <g id="patch_16">
    <path d="M 48.982813 198.543765 
L 406.102813 198.543765 
" style="fill:none;stroke:#000000;stroke-linecap:square;stroke-linejoin:miter;stroke-width:0.8;"/>
   </g>
   <g id="legend_1">
    <g id="patch_17">
     <path d="M 55.982813 271.812 
L 154.951563 271.812 
Q 156.951563 271.812 156.951563 269.812 
L 156.951563 241.45575 
Q 156.951563 239.45575 154.951563 239.45575 
L 55.982813 239.45575 
Q 53.982813 239.45575 53.982813 241.45575 
L 53.982813 269.812 
Q 53.982813 271.812 55.982813 271.812 
z
" style="fill:#ffffff;opacity:0.8;stroke:#cccccc;stroke-linejoin:miter;"/>
    </g>
    <g id="line2d_34">
     <path d="M 57.982813 247.554187 
L 77.982813 247.554187 
" style="fill:none;stroke:#ff0000;stroke-linecap:square;stroke-width:1.5;"/>
    </g>
    <g id="line2d_35">
     <g>
      <use style="fill:#ff0000;stroke:#ff0000;" x="67.982813" xlink:href="#m0841e59436" y="247.554187"/>
     </g>
    </g>
    <g id="text_34">
     <!-- Ground Truth -->
     <defs>
      <path d="M 59.515625 10.40625 
L 59.515625 29.984375 
L 43.40625 29.984375 
L 43.40625 38.09375 
L 69.28125 38.09375 
L 69.28125 6.78125 
Q 63.578125 2.734375 56.6875 0.65625 
Q 49.8125 -1.421875 42 -1.421875 
Q 24.90625 -1.421875 15.25 8.5625 
Q 5.609375 18.5625 5.609375 36.375 
Q 5.609375 54.25 15.25 64.234375 
Q 24.90625 74.21875 42 74.21875 
Q 49.125 74.21875 55.546875 72.453125 
Q 61.96875 70.703125 67.390625 67.28125 
L 67.390625 56.78125 
Q 61.921875 61.421875 55.765625 63.765625 
Q 49.609375 66.109375 42.828125 66.109375 
Q 29.4375 66.109375 22.71875 58.640625 
Q 16.015625 51.171875 16.015625 36.375 
Q 16.015625 21.625 22.71875 14.15625 
Q 29.4375 6.6875 42.828125 6.6875 
Q 48.046875 6.6875 52.140625 7.59375 
Q 56.25 8.5 59.515625 10.40625 
z
" id="DejaVuSans-47"/>
      <path d="M 41.109375 46.296875 
Q 39.59375 47.171875 37.8125 47.578125 
Q 36.03125 48 33.890625 48 
Q 26.265625 48 22.1875 43.046875 
Q 18.109375 38.09375 18.109375 28.8125 
L 18.109375 0 
L 9.078125 0 
L 9.078125 54.6875 
L 18.109375 54.6875 
L 18.109375 46.1875 
Q 20.953125 51.171875 25.484375 53.578125 
Q 30.03125 56 36.53125 56 
Q 37.453125 56 38.578125 55.875 
Q 39.703125 55.765625 41.0625 55.515625 
z
" id="DejaVuSans-72"/>
      <path d="M 30.609375 48.390625 
Q 23.390625 48.390625 19.1875 42.75 
Q 14.984375 37.109375 14.984375 27.296875 
Q 14.984375 17.484375 19.15625 11.84375 
Q 23.34375 6.203125 30.609375 6.203125 
Q 37.796875 6.203125 41.984375 11.859375 
Q 46.1875 17.53125 46.1875 27.296875 
Q 46.1875 37.015625 41.984375 42.703125 
Q 37.796875 48.390625 30.609375 48.390625 
z
M 30.609375 56 
Q 42.328125 56 49.015625 48.375 
Q 55.71875 40.765625 55.71875 27.296875 
Q 55.71875 13.875 49.015625 6.21875 
Q 42.328125 -1.421875 30.609375 -1.421875 
Q 18.84375 -1.421875 12.171875 6.21875 
Q 5.515625 13.875 5.515625 27.296875 
Q 5.515625 40.765625 12.171875 48.375 
Q 18.84375 56 30.609375 56 
z
" id="DejaVuSans-6f"/>
      <path d="M 8.5 21.578125 
L 8.5 54.6875 
L 17.484375 54.6875 
L 17.484375 21.921875 
Q 17.484375 14.15625 20.5 10.265625 
Q 23.53125 6.390625 29.59375 6.390625 
Q 36.859375 6.390625 41.078125 11.03125 
Q 45.3125 15.671875 45.3125 23.6875 
L 45.3125 54.6875 
L 54.296875 54.6875 
L 54.296875 0 
L 45.3125 0 
L 45.3125 8.40625 
Q 42.046875 3.421875 37.71875 1 
Q 33.40625 -1.421875 27.6875 -1.421875 
Q 18.265625 -1.421875 13.375 4.4375 
Q 8.5 10.296875 8.5 21.578125 
z
M 31.109375 56 
z
" id="DejaVuSans-75"/>
      <path d="M 54.890625 33.015625 
L 54.890625 0 
L 45.90625 0 
L 45.90625 32.71875 
Q 45.90625 40.484375 42.875 44.328125 
Q 39.84375 48.1875 33.796875 48.1875 
Q 26.515625 48.1875 22.3125 43.546875 
Q 18.109375 38.921875 18.109375 30.90625 
L 18.109375 0 
L 9.078125 0 
L 9.078125 54.6875 
L 18.109375 54.6875 
L 18.109375 46.1875 
Q 21.34375 51.125 25.703125 53.5625 
Q 30.078125 56 35.796875 56 
Q 45.21875 56 50.046875 50.171875 
Q 54.890625 44.34375 54.890625 33.015625 
z
" id="DejaVuSans-6e"/>
      <path d="M 45.40625 46.390625 
L 45.40625 75.984375 
L 54.390625 75.984375 
L 54.390625 0 
L 45.40625 0 
L 45.40625 8.203125 
Q 42.578125 3.328125 38.25 0.953125 
Q 33.9375 -1.421875 27.875 -1.421875 
Q 17.96875 -1.421875 11.734375 6.484375 
Q 5.515625 14.40625 5.515625 27.296875 
Q 5.515625 40.1875 11.734375 48.09375 
Q 17.96875 56 27.875 56 
Q 33.9375 56 38.25 53.625 
Q 42.578125 51.265625 45.40625 46.390625 
z
M 14.796875 27.296875 
Q 14.796875 17.390625 18.875 11.75 
Q 22.953125 6.109375 30.078125 6.109375 
Q 37.203125 6.109375 41.296875 11.75 
Q 45.40625 17.390625 45.40625 27.296875 
Q 45.40625 37.203125 41.296875 42.84375 
Q 37.203125 48.484375 30.078125 48.484375 
Q 22.953125 48.484375 18.875 42.84375 
Q 14.796875 37.203125 14.796875 27.296875 
z
" id="DejaVuSans-64"/>
      <path id="DejaVuSans-20"/>
      <path d="M 18.3125 70.21875 
L 18.3125 54.6875 
L 36.8125 54.6875 
L 36.8125 47.703125 
L 18.3125 47.703125 
L 18.3125 18.015625 
Q 18.3125 11.328125 20.140625 9.421875 
Q 21.96875 7.515625 27.59375 7.515625 
L 36.8125 7.515625 
L 36.8125 0 
L 27.59375 0 
Q 17.1875 0 13.234375 3.875 
Q 9.28125 7.765625 9.28125 18.015625 
L 9.28125 47.703125 
L 2.6875 47.703125 
L 2.6875 54.6875 
L 9.28125 54.6875 
L 9.28125 70.21875 
z
" id="DejaVuSans-74"/>
      <path d="M 54.890625 33.015625 
L 54.890625 0 
L 45.90625 0 
L 45.90625 32.71875 
Q 45.90625 40.484375 42.875 44.328125 
Q 39.84375 48.1875 33.796875 48.1875 
Q 26.515625 48.1875 22.3125 43.546875 
Q 18.109375 38.921875 18.109375 30.90625 
L 18.109375 0 
L 9.078125 0 
L 9.078125 75.984375 
L 18.109375 75.984375 
L 18.109375 46.1875 
Q 21.34375 51.125 25.703125 53.5625 
Q 30.078125 56 35.796875 56 
Q 45.21875 56 50.046875 50.171875 
Q 54.890625 44.34375 54.890625 33.015625 
z
" id="DejaVuSans-68"/>
     </defs>
     <g transform="translate(85.982813 251.054187)scale(0.1 -0.1)">
      <use xlink:href="#DejaVuSans-47"/>
      <use x="77.490234" xlink:href="#DejaVuSans-72"/>
      <use x="118.572266" xlink:href="#DejaVuSans-6f"/>
      <use x="179.753906" xlink:href="#DejaVuSans-75"/>
      <use x="243.132812" xlink:href="#DejaVuSans-6e"/>
      <use x="306.511719" xlink:href="#DejaVuSans-64"/>
      <use x="369.988281" xlink:href="#DejaVuSans-20"/>
      <use x="401.775391" xlink:href="#DejaVuSans-54"/>
      <use x="462.640625" xlink:href="#DejaVuSans-72"/>
      <use x="503.753906" xlink:href="#DejaVuSans-75"/>
      <use x="567.132812" xlink:href="#DejaVuSans-74"/>
      <use x="606.341797" xlink:href="#DejaVuSans-68"/>
     </g>
    </g>
    <g id="line2d_36">
     <path d="M 57.982813 262.232312 
L 77.982813 262.232312 
" style="fill:none;stroke:#0000ff;stroke-linecap:square;stroke-width:1.5;"/>
    </g>
    <g id="line2d_37">
     <g>
      <use style="fill:#0000ff;stroke:#0000ff;" x="67.982813" xlink:href="#m24689f521b" y="262.232312"/>
     </g>
    </g>
    <g id="text_35">
     <!-- Prediction -->
     <defs>
      <path d="M 19.671875 64.796875 
L 19.671875 37.40625 
L 32.078125 37.40625 
Q 38.96875 37.40625 42.71875 40.96875 
Q 46.484375 44.53125 46.484375 51.125 
Q 46.484375 57.671875 42.71875 61.234375 
Q 38.96875 64.796875 32.078125 64.796875 
z
M 9.8125 72.90625 
L 32.078125 72.90625 
Q 44.34375 72.90625 50.609375 67.359375 
Q 56.890625 61.8125 56.890625 51.125 
Q 56.890625 40.328125 50.609375 34.8125 
Q 44.34375 29.296875 32.078125 29.296875 
L 19.671875 29.296875 
L 19.671875 0 
L 9.8125 0 
z
" id="DejaVuSans-50"/>
      <path d="M 48.78125 52.59375 
L 48.78125 44.1875 
Q 44.96875 46.296875 41.140625 47.34375 
Q 37.3125 48.390625 33.40625 48.390625 
Q 24.65625 48.390625 19.8125 42.84375 
Q 14.984375 37.3125 14.984375 27.296875 
Q 14.984375 17.28125 19.8125 11.734375 
Q 24.65625 6.203125 33.40625 6.203125 
Q 37.3125 6.203125 41.140625 7.25 
Q 44.96875 8.296875 48.78125 10.40625 
L 48.78125 2.09375 
Q 45.015625 0.34375 40.984375 -0.53125 
Q 36.96875 -1.421875 32.421875 -1.421875 
Q 20.0625 -1.421875 12.78125 6.34375 
Q 5.515625 14.109375 5.515625 27.296875 
Q 5.515625 40.671875 12.859375 48.328125 
Q 20.21875 56 33.015625 56 
Q 37.15625 56 41.109375 55.140625 
Q 45.0625 54.296875 48.78125 52.59375 
z
" id="DejaVuSans-63"/>
     </defs>
     <g transform="translate(85.982813 265.732312)scale(0.1 -0.1)">
      <use xlink:href="#DejaVuSans-50"/>
      <use x="60.287109" xlink:href="#DejaVuSans-72"/>
      <use x="101.369141" xlink:href="#DejaVuSans-65"/>
      <use x="162.892578" xlink:href="#DejaVuSans-64"/>
      <use x="226.369141" xlink:href="#DejaVuSans-69"/>
      <use x="254.152344" xlink:href="#DejaVuSans-63"/>
      <use x="309.132812" xlink:href="#DejaVuSans-74"/>
      <use x="348.341797" xlink:href="#DejaVuSans-69"/>
      <use x="376.125" xlink:href="#DejaVuSans-6f"/>
      <use x="437.306641" xlink:href="#DejaVuSans-6e"/>
     </g>
    </g>
   </g>
  </g>
 </g>
 <defs>
  <clipPath id="pa49e6ba1fc">
   <rect height="78.268235" width="357.12" x="48.982813" y="10.7"/>
  </clipPath>
  <clipPath id="pcfc3272219">
   <rect height="78.268235" width="357.12" x="48.982813" y="104.621882"/>
  </clipPath>
  <clipPath id="p41fa87c366">
   <rect height="78.268235" width="357.12" x="48.982813" y="198.543765"/>
  </clipPath>
 </defs>
</svg>
