<?xml version="1.0" encoding="utf-8" standalone="no"?>
<!DOCTYPE svg PUBLIC "-//W3C//DTD SVG 1.1//EN"
  "http://www.w3.org/Graphics/SVG/1.1/DTD/svg11.dtd">
<!-- Created with matplotlib (http://matplotlib.org/) -->
<svg height="314pt" version="1.1" viewBox="0 0 416 314" width="416pt" xmlns="http://www.w3.org/2000/svg" xmlns:xlink="http://www.w3.org/1999/xlink">
 <defs>
  <style type="text/css">
*{stroke-linecap:butt;stroke-linejoin:round;}
  </style>
 </defs>
 <g id="figure_1">
  <g id="patch_1">
   <path d="M 0 314.36825 
L 416.802812 314.36825 
L 416.802812 0 
L 0 0 
z
" style="fill:#ffffff;"/>
  </g>
  <g id="axes_1">
   <g id="patch_2">
    <path d="M 48.982813 88.968235 
L 406.102813 88.968235 
L 406.102813 10.7 
L 48.982813 10.7 
z
" style="fill:#ffffff;"/>
   </g>
   <g id="matplotlib.axis_1">
    <g id="xtick_1">
     <g id="line2d_1">
      <defs>
       <path d="M 0 0 
L 0 3.5 
" id="m99317cd673" style="stroke:#000000;stroke-width:0.8;"/>
      </defs>
      <g>
       <use style="stroke:#000000;stroke-width:0.8;" x="65.21554" xlink:href="#m99317cd673" y="88.968235"/>
      </g>
     </g>
     <g id="text_1">
      <!-- 0 -->
      <defs>
       <path d="M 31.78125 66.40625 
Q 24.171875 66.40625 20.328125 58.90625 
Q 16.5 51.421875 16.5 36.375 
Q 16.5 21.390625 20.328125 13.890625 
Q 24.171875 6.390625 31.78125 6.390625 
Q 39.453125 6.390625 43.28125 13.890625 
Q 47.125 21.390625 47.125 36.375 
Q 47.125 51.421875 43.28125 58.90625 
Q 39.453125 66.40625 31.78125 66.40625 
z
M 31.78125 74.21875 
Q 44.046875 74.21875 50.515625 64.515625 
Q 56.984375 54.828125 56.984375 36.375 
Q 56.984375 17.96875 50.515625 8.265625 
Q 44.046875 -1.421875 31.78125 -1.421875 
Q 19.53125 -1.421875 13.0625 8.265625 
Q 6.59375 17.96875 6.59375 36.375 
Q 6.59375 54.828125 13.0625 64.515625 
Q 19.53125 74.21875 31.78125 74.21875 
z
" id="DejaVuSans-30"/>
      </defs>
      <g transform="translate(62.03429 103.566673)scale(0.1 -0.1)">
       <use xlink:href="#DejaVuSans-30"/>
      </g>
     </g>
    </g>
    <g id="xtick_2">
     <g id="line2d_2">
      <g>
       <use style="stroke:#000000;stroke-width:0.8;" x="130.802317" xlink:href="#m99317cd673" y="88.968235"/>
      </g>
     </g>
     <g id="text_2">
      <!-- 20 -->
      <defs>
       <path d="M 19.1875 8.296875 
L 53.609375 8.296875 
L 53.609375 0 
L 7.328125 0 
L 7.328125 8.296875 
Q 12.9375 14.109375 22.625 23.890625 
Q 32.328125 33.6875 34.8125 36.53125 
Q 39.546875 41.84375 41.421875 45.53125 
Q 43.3125 49.21875 43.3125 52.78125 
Q 43.3125 58.59375 39.234375 62.25 
Q 35.15625 65.921875 28.609375 65.921875 
Q 23.96875 65.921875 18.8125 64.3125 
Q 13.671875 62.703125 7.8125 59.421875 
L 7.8125 69.390625 
Q 13.765625 71.78125 18.9375 73 
Q 24.125 74.21875 28.421875 74.21875 
Q 39.75 74.21875 46.484375 68.546875 
Q 53.21875 62.890625 53.21875 53.421875 
Q 53.21875 48.921875 51.53125 44.890625 
Q 49.859375 40.875 45.40625 35.40625 
Q 44.1875 33.984375 37.640625 27.21875 
Q 31.109375 20.453125 19.1875 8.296875 
z
" id="DejaVuSans-32"/>
      </defs>
      <g transform="translate(124.439817 103.566673)scale(0.1 -0.1)">
       <use xlink:href="#DejaVuSans-32"/>
       <use x="63.623047" xlink:href="#DejaVuSans-30"/>
      </g>
     </g>
    </g>
    <g id="xtick_3">
     <g id="line2d_3">
      <g>
       <use style="stroke:#000000;stroke-width:0.8;" x="196.389093" xlink:href="#m99317cd673" y="88.968235"/>
      </g>
     </g>
     <g id="text_3">
      <!-- 40 -->
      <defs>
       <path d="M 37.796875 64.3125 
L 12.890625 25.390625 
L 37.796875 25.390625 
z
M 35.203125 72.90625 
L 47.609375 72.90625 
L 47.609375 25.390625 
L 58.015625 25.390625 
L 58.015625 17.1875 
L 47.609375 17.1875 
L 47.609375 0 
L 37.796875 0 
L 37.796875 17.1875 
L 4.890625 17.1875 
L 4.890625 26.703125 
z
" id="DejaVuSans-34"/>
      </defs>
      <g transform="translate(190.026593 103.566673)scale(0.1 -0.1)">
       <use xlink:href="#DejaVuSans-34"/>
       <use x="63.623047" xlink:href="#DejaVuSans-30"/>
      </g>
     </g>
    </g>
    <g id="xtick_4">
     <g id="line2d_4">
      <g>
       <use style="stroke:#000000;stroke-width:0.8;" x="261.97587" xlink:href="#m99317cd673" y="88.968235"/>
      </g>
     </g>
     <g id="text_4">
      <!-- 60 -->
      <defs>
       <path d="M 33.015625 40.375 
Q 26.375 40.375 22.484375 35.828125 
Q 18.609375 31.296875 18.609375 23.390625 
Q 18.609375 15.53125 22.484375 10.953125 
Q 26.375 6.390625 33.015625 6.390625 
Q 39.65625 6.390625 43.53125 10.953125 
Q 47.40625 15.53125 47.40625 23.390625 
Q 47.40625 31.296875 43.53125 35.828125 
Q 39.65625 40.375 33.015625 40.375 
z
M 52.59375 71.296875 
L 52.59375 62.3125 
Q 48.875 64.0625 45.09375 64.984375 
Q 41.3125 65.921875 37.59375 65.921875 
Q 27.828125 65.921875 22.671875 59.328125 
Q 17.53125 52.734375 16.796875 39.40625 
Q 19.671875 43.65625 24.015625 45.921875 
Q 28.375 48.1875 33.59375 48.1875 
Q 44.578125 48.1875 50.953125 41.515625 
Q 57.328125 34.859375 57.328125 23.390625 
Q 57.328125 12.15625 50.6875 5.359375 
Q 44.046875 -1.421875 33.015625 -1.421875 
Q 20.359375 -1.421875 13.671875 8.265625 
Q 6.984375 17.96875 6.984375 36.375 
Q 6.984375 53.65625 15.1875 63.9375 
Q 23.390625 74.21875 37.203125 74.21875 
Q 40.921875 74.21875 44.703125 73.484375 
Q 48.484375 72.75 52.59375 71.296875 
z
" id="DejaVuSans-36"/>
      </defs>
      <g transform="translate(255.61337 103.566673)scale(0.1 -0.1)">
       <use xlink:href="#DejaVuSans-36"/>
       <use x="63.623047" xlink:href="#DejaVuSans-30"/>
      </g>
     </g>
    </g>
    <g id="xtick_5">
     <g id="line2d_5">
      <g>
       <use style="stroke:#000000;stroke-width:0.8;" x="327.562647" xlink:href="#m99317cd673" y="88.968235"/>
      </g>
     </g>
     <g id="text_5">
      <!-- 80 -->
      <defs>
       <path d="M 31.78125 34.625 
Q 24.75 34.625 20.71875 30.859375 
Q 16.703125 27.09375 16.703125 20.515625 
Q 16.703125 13.921875 20.71875 10.15625 
Q 24.75 6.390625 31.78125 6.390625 
Q 38.8125 6.390625 42.859375 10.171875 
Q 46.921875 13.96875 46.921875 20.515625 
Q 46.921875 27.09375 42.890625 30.859375 
Q 38.875 34.625 31.78125 34.625 
z
M 21.921875 38.8125 
Q 15.578125 40.375 12.03125 44.71875 
Q 8.5 49.078125 8.5 55.328125 
Q 8.5 64.0625 14.71875 69.140625 
Q 20.953125 74.21875 31.78125 74.21875 
Q 42.671875 74.21875 48.875 69.140625 
Q 55.078125 64.0625 55.078125 55.328125 
Q 55.078125 49.078125 51.53125 44.71875 
Q 48 40.375 41.703125 38.8125 
Q 48.828125 37.15625 52.796875 32.3125 
Q 56.78125 27.484375 56.78125 20.515625 
Q 56.78125 9.90625 50.3125 4.234375 
Q 43.84375 -1.421875 31.78125 -1.421875 
Q 19.734375 -1.421875 13.25 4.234375 
Q 6.78125 9.90625 6.78125 20.515625 
Q 6.78125 27.484375 10.78125 32.3125 
Q 14.796875 37.15625 21.921875 38.8125 
z
M 18.3125 54.390625 
Q 18.3125 48.734375 21.84375 45.5625 
Q 25.390625 42.390625 31.78125 42.390625 
Q 38.140625 42.390625 41.71875 45.5625 
Q 45.3125 48.734375 45.3125 54.390625 
Q 45.3125 60.0625 41.71875 63.234375 
Q 38.140625 66.40625 31.78125 66.40625 
Q 25.390625 66.40625 21.84375 63.234375 
Q 18.3125 60.0625 18.3125 54.390625 
z
" id="DejaVuSans-38"/>
      </defs>
      <g transform="translate(321.200147 103.566673)scale(0.1 -0.1)">
       <use xlink:href="#DejaVuSans-38"/>
       <use x="63.623047" xlink:href="#DejaVuSans-30"/>
      </g>
     </g>
    </g>
    <g id="xtick_6">
     <g id="line2d_6">
      <g>
       <use style="stroke:#000000;stroke-width:0.8;" x="393.149424" xlink:href="#m99317cd673" y="88.968235"/>
      </g>
     </g>
     <g id="text_6">
      <!-- 100 -->
      <defs>
       <path d="M 12.40625 8.296875 
L 28.515625 8.296875 
L 28.515625 63.921875 
L 10.984375 60.40625 
L 10.984375 69.390625 
L 28.421875 72.90625 
L 38.28125 72.90625 
L 38.28125 8.296875 
L 54.390625 8.296875 
L 54.390625 0 
L 12.40625 0 
z
" id="DejaVuSans-31"/>
      </defs>
      <g transform="translate(383.605674 103.566673)scale(0.1 -0.1)">
       <use xlink:href="#DejaVuSans-31"/>
       <use x="63.623047" xlink:href="#DejaVuSans-30"/>
       <use x="127.246094" xlink:href="#DejaVuSans-30"/>
      </g>
     </g>
    </g>
    <g id="text_7">
     <!-- Time -->
     <defs>
      <path d="M -0.296875 72.90625 
L 61.375 72.90625 
L 61.375 64.59375 
L 35.5 64.59375 
L 35.5 0 
L 25.59375 0 
L 25.59375 64.59375 
L -0.296875 64.59375 
z
" id="DejaVuSans-54"/>
      <path d="M 9.421875 54.6875 
L 18.40625 54.6875 
L 18.40625 0 
L 9.421875 0 
z
M 9.421875 75.984375 
L 18.40625 75.984375 
L 18.40625 64.59375 
L 9.421875 64.59375 
z
" id="DejaVuSans-69"/>
      <path d="M 52 44.1875 
Q 55.375 50.25 60.0625 53.125 
Q 64.75 56 71.09375 56 
Q 79.640625 56 84.28125 50.015625 
Q 88.921875 44.046875 88.921875 33.015625 
L 88.921875 0 
L 79.890625 0 
L 79.890625 32.71875 
Q 79.890625 40.578125 77.09375 44.375 
Q 74.3125 48.1875 68.609375 48.1875 
Q 61.625 48.1875 57.5625 43.546875 
Q 53.515625 38.921875 53.515625 30.90625 
L 53.515625 0 
L 44.484375 0 
L 44.484375 32.71875 
Q 44.484375 40.625 41.703125 44.40625 
Q 38.921875 48.1875 33.109375 48.1875 
Q 26.21875 48.1875 22.15625 43.53125 
Q 18.109375 38.875 18.109375 30.90625 
L 18.109375 0 
L 9.078125 0 
L 9.078125 54.6875 
L 18.109375 54.6875 
L 18.109375 46.1875 
Q 21.1875 51.21875 25.484375 53.609375 
Q 29.78125 56 35.6875 56 
Q 41.65625 56 45.828125 52.96875 
Q 50 49.953125 52 44.1875 
z
" id="DejaVuSans-6d"/>
      <path d="M 56.203125 29.59375 
L 56.203125 25.203125 
L 14.890625 25.203125 
Q 15.484375 15.921875 20.484375 11.0625 
Q 25.484375 6.203125 34.421875 6.203125 
Q 39.59375 6.203125 44.453125 7.46875 
Q 49.3125 8.734375 54.109375 11.28125 
L 54.109375 2.78125 
Q 49.265625 0.734375 44.1875 -0.34375 
Q 39.109375 -1.421875 33.890625 -1.421875 
Q 20.796875 -1.421875 13.15625 6.1875 
Q 5.515625 13.8125 5.515625 26.8125 
Q 5.515625 40.234375 12.765625 48.109375 
Q 20.015625 56 32.328125 56 
Q 43.359375 56 49.78125 48.890625 
Q 56.203125 41.796875 56.203125 29.59375 
z
M 47.21875 32.234375 
Q 47.125 39.59375 43.09375 43.984375 
Q 39.0625 48.390625 32.421875 48.390625 
Q 24.90625 48.390625 20.390625 44.140625 
Q 15.875 39.890625 15.1875 32.171875 
z
" id="DejaVuSans-65"/>
     </defs>
     <g transform="translate(215.155313 117.244798)scale(0.1 -0.1)">
      <use xlink:href="#DejaVuSans-54"/>
      <use x="61.037109" xlink:href="#DejaVuSans-69"/>
      <use x="88.820312" xlink:href="#DejaVuSans-6d"/>
      <use x="186.232422" xlink:href="#DejaVuSans-65"/>
     </g>
    </g>
   </g>
   <g id="matplotlib.axis_2">
    <g id="ytick_1">
     <g id="line2d_7">
      <defs>
       <path d="M 0 0 
L -3.5 0 
" id="m70ade0df62" style="stroke:#000000;stroke-width:0.8;"/>
      </defs>
      <g>
       <use style="stroke:#000000;stroke-width:0.8;" x="48.982813" xlink:href="#m70ade0df62" y="86.026182"/>
      </g>
     </g>
     <g id="text_8">
      <!-- −10 -->
      <defs>
       <path d="M 10.59375 35.5 
L 73.1875 35.5 
L 73.1875 27.203125 
L 10.59375 27.203125 
z
" id="DejaVuSans-2212"/>
      </defs>
      <g transform="translate(20.878125 89.825401)scale(0.1 -0.1)">
       <use xlink:href="#DejaVuSans-2212"/>
       <use x="83.789062" xlink:href="#DejaVuSans-31"/>
       <use x="147.412109" xlink:href="#DejaVuSans-30"/>
      </g>
     </g>
    </g>
    <g id="ytick_2">
     <g id="line2d_8">
      <g>
       <use style="stroke:#000000;stroke-width:0.8;" x="48.982813" xlink:href="#m70ade0df62" y="59.454853"/>
      </g>
     </g>
     <g id="text_9">
      <!-- −5 -->
      <defs>
       <path d="M 10.796875 72.90625 
L 49.515625 72.90625 
L 49.515625 64.59375 
L 19.828125 64.59375 
L 19.828125 46.734375 
Q 21.96875 47.46875 24.109375 47.828125 
Q 26.265625 48.1875 28.421875 48.1875 
Q 40.625 48.1875 47.75 41.5 
Q 54.890625 34.8125 54.890625 23.390625 
Q 54.890625 11.625 47.5625 5.09375 
Q 40.234375 -1.421875 26.90625 -1.421875 
Q 22.3125 -1.421875 17.546875 -0.640625 
Q 12.796875 0.140625 7.71875 1.703125 
L 7.71875 11.625 
Q 12.109375 9.234375 16.796875 8.0625 
Q 21.484375 6.890625 26.703125 6.890625 
Q 35.15625 6.890625 40.078125 11.328125 
Q 45.015625 15.765625 45.015625 23.390625 
Q 45.015625 31 40.078125 35.4375 
Q 35.15625 39.890625 26.703125 39.890625 
Q 22.75 39.890625 18.8125 39.015625 
Q 14.890625 38.140625 10.796875 36.28125 
z
" id="DejaVuSans-35"/>
      </defs>
      <g transform="translate(27.240625 63.254072)scale(0.1 -0.1)">
       <use xlink:href="#DejaVuSans-2212"/>
       <use x="83.789062" xlink:href="#DejaVuSans-35"/>
      </g>
     </g>
    </g>
    <g id="ytick_3">
     <g id="line2d_9">
      <g>
       <use style="stroke:#000000;stroke-width:0.8;" x="48.982813" xlink:href="#m70ade0df62" y="32.883524"/>
      </g>
     </g>
     <g id="text_10">
      <!-- 0 -->
      <g transform="translate(35.620313 36.682742)scale(0.1 -0.1)">
       <use xlink:href="#DejaVuSans-30"/>
      </g>
     </g>
    </g>
    <g id="text_11">
     <!-- x -->
     <defs>
      <path d="M 54.890625 54.6875 
L 35.109375 28.078125 
L 55.90625 0 
L 45.3125 0 
L 29.390625 21.484375 
L 13.484375 0 
L 2.875 0 
L 24.125 28.609375 
L 4.6875 54.6875 
L 15.28125 54.6875 
L 29.78125 35.203125 
L 44.28125 54.6875 
z
" id="DejaVuSans-78"/>
     </defs>
     <g transform="translate(14.798438 52.793493)rotate(-90)scale(0.1 -0.1)">
      <use xlink:href="#DejaVuSans-78"/>
     </g>
    </g>
   </g>
   <g id="line2d_10">
    <path clip-path="url(#p530399340a)" d="M 65.21554 32.883524 
L 68.494879 32.971832 
L 71.774217 33.030881 
L 75.053556 33.036766 
L 78.332895 32.951491 
L 81.612234 32.763808 
L 84.891573 32.500283 
L 88.170912 32.221594 
L 91.450251 31.885594 
L 94.729589 31.534091 
L 98.008928 31.134706 
L 101.288267 30.730019 
L 104.567606 30.253596 
L 107.846945 29.74622 
L 111.126284 29.203692 
L 114.405622 28.675302 
L 117.684961 28.190243 
L 120.9643 27.71665 
L 124.243639 27.204746 
L 127.522978 26.687453 
L 130.802317 26.144359 
L 134.081655 25.62101 
L 137.360994 25.200141 
L 140.640333 24.857168 
L 143.919672 24.537769 
L 147.199011 24.223911 
L 150.47835 23.910059 
L 153.757689 23.615812 
L 157.037027 23.354177 
L 160.316366 23.157749 
L 163.595705 22.995097 
L 166.875044 22.816823 
L 170.154383 22.573507 
L 173.433722 22.358216 
L 176.71306 22.192154 
L 179.992399 22.07696 
L 183.271738 21.978263 
L 186.551077 21.867374 
L 189.830416 21.724202 
L 193.109755 21.570496 
L 196.389093 21.436601 
L 199.668432 21.33827 
L 202.947771 21.213153 
L 206.22711 21.009493 
L 209.506449 20.769841 
L 212.785788 20.565327 
L 216.065127 20.397483 
L 219.344465 20.246472 
L 222.623804 20.14548 
L 225.903143 20.083324 
L 229.182482 20.054462 
L 232.461821 20.065242 
L 235.74116 20.163771 
L 239.020498 20.308998 
L 242.299837 20.439692 
L 245.579176 20.589553 
L 248.858515 20.781186 
L 252.137854 21.065616 
L 255.417193 21.423824 
L 258.696532 21.83023 
L 261.97587 22.368965 
L 265.255209 23.090525 
L 268.534548 23.881699 
L 271.813887 24.693568 
L 275.093226 25.574762 
L 278.372565 26.494216 
L 281.651903 27.484819 
L 284.931242 28.433427 
L 288.210581 29.339459 
L 291.48992 30.363789 
L 294.769259 31.476943 
L 298.048598 32.713376 
L 301.327936 34.014004 
L 304.607275 35.34804 
L 307.886614 36.718753 
L 311.165953 38.148178 
L 314.445292 39.653548 
L 317.724631 41.193591 
L 321.00397 42.816674 
L 324.283308 44.462831 
L 327.562647 46.176535 
L 330.841986 47.903898 
L 334.121325 49.687596 
L 337.400664 51.516328 
L 340.680003 53.400769 
L 343.959341 55.317071 
L 347.23868 57.250936 
L 350.518019 59.211327 
L 353.797358 61.224023 
L 357.076697 63.279124 
L 360.356036 65.354153 
L 363.635374 67.471462 
L 366.914713 69.640627 
L 370.194052 71.831489 
L 373.473391 74.03976 
L 376.75273 76.253933 
L 380.032069 78.482813 
L 383.311408 80.75681 
L 386.590746 83.067945 
L 389.870085 85.410588 
" style="fill:none;stroke:#ff0000;stroke-linecap:square;stroke-width:1.5;"/>
    <defs>
     <path d="M 0 2.5 
C 0.663008 2.5 1.29895 2.236584 1.767767 1.767767 
C 2.236584 1.29895 2.5 0.663008 2.5 0 
C 2.5 -0.663008 2.236584 -1.29895 1.767767 -1.767767 
C 1.29895 -2.236584 0.663008 -2.5 0 -2.5 
C -0.663008 -2.5 -1.29895 -2.236584 -1.767767 -1.767767 
C -2.236584 -1.29895 -2.5 -0.663008 -2.5 0 
C -2.5 0.663008 -2.236584 1.29895 -1.767767 1.767767 
C -1.29895 2.236584 -0.663008 2.5 0 2.5 
z
" id="m191a5c0de5" style="stroke:#ff0000;"/>
    </defs>
    <g clip-path="url(#p530399340a)">
     <use style="fill:#ff0000;stroke:#ff0000;" x="65.21554" xlink:href="#m191a5c0de5" y="32.883524"/>
     <use style="fill:#ff0000;stroke:#ff0000;" x="98.008928" xlink:href="#m191a5c0de5" y="31.134706"/>
     <use style="fill:#ff0000;stroke:#ff0000;" x="130.802317" xlink:href="#m191a5c0de5" y="26.144359"/>
     <use style="fill:#ff0000;stroke:#ff0000;" x="163.595705" xlink:href="#m191a5c0de5" y="22.995097"/>
     <use style="fill:#ff0000;stroke:#ff0000;" x="196.389093" xlink:href="#m191a5c0de5" y="21.436601"/>
     <use style="fill:#ff0000;stroke:#ff0000;" x="229.182482" xlink:href="#m191a5c0de5" y="20.054462"/>
     <use style="fill:#ff0000;stroke:#ff0000;" x="261.97587" xlink:href="#m191a5c0de5" y="22.368965"/>
     <use style="fill:#ff0000;stroke:#ff0000;" x="294.769259" xlink:href="#m191a5c0de5" y="31.476943"/>
     <use style="fill:#ff0000;stroke:#ff0000;" x="327.562647" xlink:href="#m191a5c0de5" y="46.176535"/>
     <use style="fill:#ff0000;stroke:#ff0000;" x="360.356036" xlink:href="#m191a5c0de5" y="65.354153"/>
    </g>
   </g>
   <g id="line2d_11">
    <path clip-path="url(#p530399340a)" d="M 65.21554 32.883524 
L 68.494879 32.957564 
L 71.774217 32.993969 
L 75.053556 32.952505 
L 78.332895 32.833816 
L 81.612234 32.617878 
L 84.891573 32.325406 
L 88.170912 31.9726 
L 91.450251 31.548021 
L 94.729589 31.077465 
L 98.008928 30.607608 
L 101.288267 30.083407 
L 104.567606 29.480101 
L 107.846945 28.807685 
L 111.126284 28.074792 
L 114.405622 27.377059 
L 117.684961 26.685092 
L 120.9643 26.023575 
L 124.243639 25.325446 
L 127.522978 24.591469 
L 130.802317 23.825241 
L 134.081655 23.102173 
L 137.360994 22.457963 
L 140.640333 21.897144 
L 143.919672 21.378232 
L 147.199011 20.878209 
L 150.47835 20.392844 
L 153.757689 19.925446 
L 157.037027 19.498085 
L 160.316366 19.161615 
L 163.595705 18.869467 
L 166.875044 18.569365 
L 170.154383 18.235343 
L 173.433722 17.95692 
L 176.71306 17.721674 
L 179.992399 17.539153 
L 183.271738 17.360964 
L 186.551077 17.162955 
L 189.830416 16.961442 
L 193.109755 16.742255 
L 196.389093 16.538865 
L 199.668432 16.378361 
L 202.947771 16.165031 
L 206.22711 15.929013 
L 209.506449 15.653036 
L 212.785788 15.39835 
L 216.065127 15.184938 
L 219.344465 14.967807 
L 222.623804 14.777733 
L 225.903143 14.588941 
L 229.182482 14.415848 
L 232.461821 14.293615 
L 235.74116 14.257647 
L 239.020498 14.269091 
L 242.299837 14.309928 
L 245.579176 14.360946 
L 248.858515 14.489355 
L 252.137854 14.671256 
L 255.417193 14.904628 
L 258.696532 15.192903 
L 261.97587 15.50788 
L 265.255209 15.874354 
L 268.534548 16.297912 
L 271.813887 16.791431 
L 275.093226 17.345977 
L 278.372565 17.964018 
L 281.651903 18.616208 
L 284.931242 19.32674 
L 288.210581 20.068531 
L 291.48992 20.841362 
L 294.769259 21.699288 
L 298.048598 22.577336 
L 301.327936 23.553002 
L 304.607275 24.600001 
L 307.886614 25.718016 
L 311.165953 26.870375 
L 314.445292 28.079511 
L 317.724631 29.331973 
L 321.00397 30.625551 
L 324.283308 31.984084 
L 327.562647 33.415643 
L 330.841986 34.870683 
L 334.121325 36.353804 
L 337.400664 37.942809 
L 340.680003 39.526555 
L 343.959341 41.120094 
L 347.23868 42.772137 
L 350.518019 44.470486 
L 353.797358 46.187702 
L 357.076697 47.919121 
L 360.356036 49.660436 
L 363.635374 51.35879 
L 366.914713 53.158822 
L 370.194052 55.001661 
L 373.473391 56.869649 
L 376.75273 58.693972 
L 380.032069 60.560797 
L 383.311408 62.414477 
L 386.590746 64.320789 
L 389.870085 66.285868 
" style="fill:none;stroke:#0000ff;stroke-linecap:square;stroke-width:1.5;"/>
    <defs>
     <path d="M 0 2.5 
C 0.663008 2.5 1.29895 2.236584 1.767767 1.767767 
C 2.236584 1.29895 2.5 0.663008 2.5 0 
C 2.5 -0.663008 2.236584 -1.29895 1.767767 -1.767767 
C 1.29895 -2.236584 0.663008 -2.5 0 -2.5 
C -0.663008 -2.5 -1.29895 -2.236584 -1.767767 -1.767767 
C -2.236584 -1.29895 -2.5 -0.663008 -2.5 0 
C -2.5 0.663008 -2.236584 1.29895 -1.767767 1.767767 
C -1.29895 2.236584 -0.663008 2.5 0 2.5 
z
" id="md626a51f7f" style="stroke:#0000ff;"/>
    </defs>
    <g clip-path="url(#p530399340a)">
     <use style="fill:#0000ff;stroke:#0000ff;" x="65.21554" xlink:href="#md626a51f7f" y="32.883524"/>
     <use style="fill:#0000ff;stroke:#0000ff;" x="98.008928" xlink:href="#md626a51f7f" y="30.607608"/>
     <use style="fill:#0000ff;stroke:#0000ff;" x="130.802317" xlink:href="#md626a51f7f" y="23.825241"/>
     <use style="fill:#0000ff;stroke:#0000ff;" x="163.595705" xlink:href="#md626a51f7f" y="18.869467"/>
     <use style="fill:#0000ff;stroke:#0000ff;" x="196.389093" xlink:href="#md626a51f7f" y="16.538865"/>
     <use style="fill:#0000ff;stroke:#0000ff;" x="229.182482" xlink:href="#md626a51f7f" y="14.415848"/>
     <use style="fill:#0000ff;stroke:#0000ff;" x="261.97587" xlink:href="#md626a51f7f" y="15.50788"/>
     <use style="fill:#0000ff;stroke:#0000ff;" x="294.769259" xlink:href="#md626a51f7f" y="21.699288"/>
     <use style="fill:#0000ff;stroke:#0000ff;" x="327.562647" xlink:href="#md626a51f7f" y="33.415643"/>
     <use style="fill:#0000ff;stroke:#0000ff;" x="360.356036" xlink:href="#md626a51f7f" y="49.660436"/>
    </g>
   </g>
   <g id="patch_3">
    <path d="M 48.982813 88.968235 
L 48.982813 10.7 
" style="fill:none;stroke:#000000;stroke-linecap:square;stroke-linejoin:miter;stroke-width:0.8;"/>
   </g>
   <g id="patch_4">
    <path d="M 406.102813 88.968235 
L 406.102813 10.7 
" style="fill:none;stroke:#000000;stroke-linecap:square;stroke-linejoin:miter;stroke-width:0.8;"/>
   </g>
   <g id="patch_5">
    <path d="M 48.982813 88.968235 
L 406.102813 88.968235 
" style="fill:none;stroke:#000000;stroke-linecap:square;stroke-linejoin:miter;stroke-width:0.8;"/>
   </g>
   <g id="patch_6">
    <path d="M 48.982813 10.7 
L 406.102813 10.7 
" style="fill:none;stroke:#000000;stroke-linecap:square;stroke-linejoin:miter;stroke-width:0.8;"/>
   </g>
  </g>
  <g id="axes_2">
   <g id="patch_7">
    <path d="M 48.982813 182.890118 
L 406.102813 182.890118 
L 406.102813 104.621882 
L 48.982813 104.621882 
z
" style="fill:#ffffff;"/>
   </g>
   <g id="matplotlib.axis_3">
    <g id="xtick_7">
     <g id="line2d_12">
      <g>
       <use style="stroke:#000000;stroke-width:0.8;" x="65.21554" xlink:href="#m99317cd673" y="182.890118"/>
      </g>
     </g>
     <g id="text_12">
      <!-- 0 -->
      <g transform="translate(62.03429 197.488555)scale(0.1 -0.1)">
       <use xlink:href="#DejaVuSans-30"/>
      </g>
     </g>
    </g>
    <g id="xtick_8">
     <g id="line2d_13">
      <g>
       <use style="stroke:#000000;stroke-width:0.8;" x="130.802317" xlink:href="#m99317cd673" y="182.890118"/>
      </g>
     </g>
     <g id="text_13">
      <!-- 20 -->
      <g transform="translate(124.439817 197.488555)scale(0.1 -0.1)">
       <use xlink:href="#DejaVuSans-32"/>
       <use x="63.623047" xlink:href="#DejaVuSans-30"/>
      </g>
     </g>
    </g>
    <g id="xtick_9">
     <g id="line2d_14">
      <g>
       <use style="stroke:#000000;stroke-width:0.8;" x="196.389093" xlink:href="#m99317cd673" y="182.890118"/>
      </g>
     </g>
     <g id="text_14">
      <!-- 40 -->
      <g transform="translate(190.026593 197.488555)scale(0.1 -0.1)">
       <use xlink:href="#DejaVuSans-34"/>
       <use x="63.623047" xlink:href="#DejaVuSans-30"/>
      </g>
     </g>
    </g>
    <g id="xtick_10">
     <g id="line2d_15">
      <g>
       <use style="stroke:#000000;stroke-width:0.8;" x="261.97587" xlink:href="#m99317cd673" y="182.890118"/>
      </g>
     </g>
     <g id="text_15">
      <!-- 60 -->
      <g transform="translate(255.61337 197.488555)scale(0.1 -0.1)">
       <use xlink:href="#DejaVuSans-36"/>
       <use x="63.623047" xlink:href="#DejaVuSans-30"/>
      </g>
     </g>
    </g>
    <g id="xtick_11">
     <g id="line2d_16">
      <g>
       <use style="stroke:#000000;stroke-width:0.8;" x="327.562647" xlink:href="#m99317cd673" y="182.890118"/>
      </g>
     </g>
     <g id="text_16">
      <!-- 80 -->
      <g transform="translate(321.200147 197.488555)scale(0.1 -0.1)">
       <use xlink:href="#DejaVuSans-38"/>
       <use x="63.623047" xlink:href="#DejaVuSans-30"/>
      </g>
     </g>
    </g>
    <g id="xtick_12">
     <g id="line2d_17">
      <g>
       <use style="stroke:#000000;stroke-width:0.8;" x="393.149424" xlink:href="#m99317cd673" y="182.890118"/>
      </g>
     </g>
     <g id="text_17">
      <!-- 100 -->
      <g transform="translate(383.605674 197.488555)scale(0.1 -0.1)">
       <use xlink:href="#DejaVuSans-31"/>
       <use x="63.623047" xlink:href="#DejaVuSans-30"/>
       <use x="127.246094" xlink:href="#DejaVuSans-30"/>
      </g>
     </g>
    </g>
    <g id="text_18">
     <!-- Time -->
     <g transform="translate(215.155313 211.16668)scale(0.1 -0.1)">
      <use xlink:href="#DejaVuSans-54"/>
      <use x="61.037109" xlink:href="#DejaVuSans-69"/>
      <use x="88.820312" xlink:href="#DejaVuSans-6d"/>
      <use x="186.232422" xlink:href="#DejaVuSans-65"/>
     </g>
    </g>
   </g>
   <g id="matplotlib.axis_4">
    <g id="ytick_4">
     <g id="line2d_18">
      <g>
       <use style="stroke:#000000;stroke-width:0.8;" x="48.982813" xlink:href="#m70ade0df62" y="179.749651"/>
      </g>
     </g>
     <g id="text_19">
      <!-- −4 -->
      <g transform="translate(27.240625 183.54887)scale(0.1 -0.1)">
       <use xlink:href="#DejaVuSans-2212"/>
       <use x="83.789062" xlink:href="#DejaVuSans-34"/>
      </g>
     </g>
    </g>
    <g id="ytick_5">
     <g id="line2d_19">
      <g>
       <use style="stroke:#000000;stroke-width:0.8;" x="48.982813" xlink:href="#m70ade0df62" y="143.96459"/>
      </g>
     </g>
     <g id="text_20">
      <!-- −2 -->
      <g transform="translate(27.240625 147.763809)scale(0.1 -0.1)">
       <use xlink:href="#DejaVuSans-2212"/>
       <use x="83.789062" xlink:href="#DejaVuSans-32"/>
      </g>
     </g>
    </g>
    <g id="ytick_6">
     <g id="line2d_20">
      <g>
       <use style="stroke:#000000;stroke-width:0.8;" x="48.982813" xlink:href="#m70ade0df62" y="108.179529"/>
      </g>
     </g>
     <g id="text_21">
      <!-- 0 -->
      <g transform="translate(35.620313 111.978748)scale(0.1 -0.1)">
       <use xlink:href="#DejaVuSans-30"/>
      </g>
     </g>
    </g>
    <g id="text_22">
     <!-- y -->
     <defs>
      <path d="M 32.171875 -5.078125 
Q 28.375 -14.84375 24.75 -17.8125 
Q 21.140625 -20.796875 15.09375 -20.796875 
L 7.90625 -20.796875 
L 7.90625 -13.28125 
L 13.1875 -13.28125 
Q 16.890625 -13.28125 18.9375 -11.515625 
Q 21 -9.765625 23.484375 -3.21875 
L 25.09375 0.875 
L 2.984375 54.6875 
L 12.5 54.6875 
L 29.59375 11.921875 
L 46.6875 54.6875 
L 56.203125 54.6875 
z
" id="DejaVuSans-79"/>
     </defs>
     <g transform="translate(21.160938 146.715375)rotate(-90)scale(0.1 -0.1)">
      <use xlink:href="#DejaVuSans-79"/>
     </g>
    </g>
   </g>
   <g id="line2d_21">
    <path clip-path="url(#pbd194196d9)" d="M 65.21554 108.179529 
L 68.494879 108.464389 
L 71.774217 108.841314 
L 75.053556 109.288524 
L 78.332895 109.697758 
L 81.612234 110.053595 
L 84.891573 110.479371 
L 88.170912 110.882059 
L 91.450251 111.291729 
L 94.729589 111.656331 
L 98.008928 112.001775 
L 101.288267 112.334088 
L 104.567606 112.728321 
L 107.846945 113.177707 
L 111.126284 113.63343 
L 114.405622 114.027633 
L 117.684961 114.39223 
L 120.9643 114.651445 
L 124.243639 114.918719 
L 127.522978 115.299254 
L 130.802317 115.675648 
L 134.081655 116.008712 
L 137.360994 116.338551 
L 140.640333 116.70822 
L 143.919672 117.010477 
L 147.199011 117.22741 
L 150.47835 117.461229 
L 153.757689 117.729645 
L 157.037027 117.970963 
L 160.316366 118.08189 
L 163.595705 118.238869 
L 166.875044 118.344537 
L 170.154383 118.416045 
L 173.433722 118.471417 
L 176.71306 118.608059 
L 179.992399 118.776753 
L 183.271738 118.965533 
L 186.551077 119.128251 
L 189.830416 119.289412 
L 193.109755 119.438181 
L 196.389093 119.554916 
L 199.668432 119.702824 
L 202.947771 119.946799 
L 206.22711 120.30369 
L 209.506449 120.639575 
L 212.785788 120.978799 
L 216.065127 121.227437 
L 219.344465 121.448016 
L 222.623804 121.792689 
L 225.903143 122.14999 
L 229.182482 122.496187 
L 232.461821 122.796535 
L 235.74116 123.113747 
L 239.020498 123.437718 
L 242.299837 123.836206 
L 245.579176 124.29647 
L 248.858515 124.766488 
L 252.137854 125.247821 
L 255.417193 125.746521 
L 258.696532 126.2418 
L 261.97587 126.776291 
L 265.255209 127.365546 
L 268.534548 127.982286 
L 271.813887 128.619931 
L 275.093226 129.259238 
L 278.372565 129.940233 
L 281.651903 130.625306 
L 284.931242 131.320016 
L 288.210581 131.935248 
L 291.48992 132.612822 
L 294.769259 133.330677 
L 298.048598 134.121613 
L 301.327936 134.902631 
L 304.607275 135.927751 
L 307.886614 137.058581 
L 311.165953 138.267664 
L 314.445292 139.389624 
L 317.724631 140.507088 
L 321.00397 141.534155 
L 324.283308 142.613201 
L 327.562647 143.669952 
L 330.841986 144.757248 
L 334.121325 145.807413 
L 337.400664 146.922463 
L 340.680003 148.062335 
L 343.959341 149.240751 
L 347.23868 150.450657 
L 350.518019 151.66881 
L 353.797358 152.935022 
L 357.076697 154.257476 
L 360.356036 155.588346 
L 363.635374 156.917779 
L 366.914713 158.300553 
L 370.194052 159.708249 
L 373.473391 161.157119 
L 376.75273 162.515351 
L 380.032069 163.895774 
L 383.311408 165.334129 
L 386.590746 166.77291 
L 389.870085 168.239748 
" style="fill:none;stroke:#ff0000;stroke-linecap:square;stroke-width:1.5;"/>
    <g clip-path="url(#pbd194196d9)">
     <use style="fill:#ff0000;stroke:#ff0000;" x="65.21554" xlink:href="#m191a5c0de5" y="108.179529"/>
     <use style="fill:#ff0000;stroke:#ff0000;" x="98.008928" xlink:href="#m191a5c0de5" y="112.001775"/>
     <use style="fill:#ff0000;stroke:#ff0000;" x="130.802317" xlink:href="#m191a5c0de5" y="115.675648"/>
     <use style="fill:#ff0000;stroke:#ff0000;" x="163.595705" xlink:href="#m191a5c0de5" y="118.238869"/>
     <use style="fill:#ff0000;stroke:#ff0000;" x="196.389093" xlink:href="#m191a5c0de5" y="119.554916"/>
     <use style="fill:#ff0000;stroke:#ff0000;" x="229.182482" xlink:href="#m191a5c0de5" y="122.496187"/>
     <use style="fill:#ff0000;stroke:#ff0000;" x="261.97587" xlink:href="#m191a5c0de5" y="126.776291"/>
     <use style="fill:#ff0000;stroke:#ff0000;" x="294.769259" xlink:href="#m191a5c0de5" y="133.330677"/>
     <use style="fill:#ff0000;stroke:#ff0000;" x="327.562647" xlink:href="#m191a5c0de5" y="143.669952"/>
     <use style="fill:#ff0000;stroke:#ff0000;" x="360.356036" xlink:href="#m191a5c0de5" y="155.588346"/>
    </g>
   </g>
   <g id="line2d_22">
    <path clip-path="url(#pbd194196d9)" d="M 65.21554 108.179529 
L 68.494879 108.472634 
L 71.774217 108.794119 
L 75.053556 109.224669 
L 78.332895 109.625993 
L 81.612234 109.943996 
L 84.891573 110.225722 
L 88.170912 110.559039 
L 91.450251 110.945328 
L 94.729589 111.355468 
L 98.008928 111.752103 
L 101.288267 112.174042 
L 104.567606 112.597678 
L 107.846945 112.946226 
L 111.126284 113.39485 
L 114.405622 113.856123 
L 117.684961 114.322728 
L 120.9643 114.775912 
L 124.243639 115.236374 
L 127.522978 115.756127 
L 130.802317 116.278405 
L 134.081655 116.812906 
L 137.360994 117.350923 
L 140.640333 117.931715 
L 143.919672 118.43987 
L 147.199011 118.874318 
L 150.47835 119.309196 
L 153.757689 119.67826 
L 157.037027 120.004943 
L 160.316366 120.220114 
L 163.595705 120.443572 
L 166.875044 120.641452 
L 170.154383 120.902338 
L 173.433722 121.119103 
L 176.71306 121.287557 
L 179.992399 121.515937 
L 183.271738 121.718792 
L 186.551077 121.912848 
L 189.830416 122.07088 
L 193.109755 122.195053 
L 196.389093 122.370816 
L 199.668432 122.57376 
L 202.947771 122.805384 
L 206.22711 123.043424 
L 209.506449 123.313897 
L 212.785788 123.60368 
L 216.065127 123.782295 
L 219.344465 123.9777 
L 222.623804 124.207901 
L 225.903143 124.458409 
L 229.182482 124.713419 
L 232.461821 125.023665 
L 235.74116 125.454136 
L 239.020498 125.90306 
L 242.299837 126.351656 
L 245.579176 126.818383 
L 248.858515 127.255016 
L 252.137854 127.793332 
L 255.417193 128.386987 
L 258.696532 128.998324 
L 261.97587 129.566944 
L 265.255209 130.156657 
L 268.534548 130.828724 
L 271.813887 131.542236 
L 275.093226 132.366668 
L 278.372565 133.249311 
L 281.651903 134.135228 
L 284.931242 135.006705 
L 288.210581 135.918217 
L 291.48992 136.854998 
L 294.769259 137.890258 
L 298.048598 139.013123 
L 301.327936 140.243525 
L 304.607275 141.447613 
L 307.886614 142.714121 
L 311.165953 144.009566 
L 314.445292 145.309265 
L 317.724631 146.601811 
L 321.00397 147.870131 
L 324.283308 149.12764 
L 327.562647 150.373133 
L 330.841986 151.59062 
L 334.121325 152.86533 
L 337.400664 154.23682 
L 340.680003 155.610521 
L 343.959341 157.023864 
L 347.23868 158.444899 
L 350.518019 159.869496 
L 353.797358 161.325563 
L 357.076697 162.82974 
L 360.356036 164.338951 
L 363.635374 165.877568 
L 366.914713 167.523885 
L 370.194052 169.252812 
L 373.473391 170.979965 
L 376.75273 172.610494 
L 380.032069 174.269456 
L 383.311408 175.867151 
L 386.590746 177.580836 
L 389.870085 179.332471 
" style="fill:none;stroke:#0000ff;stroke-linecap:square;stroke-width:1.5;"/>
    <g clip-path="url(#pbd194196d9)">
     <use style="fill:#0000ff;stroke:#0000ff;" x="65.21554" xlink:href="#md626a51f7f" y="108.179529"/>
     <use style="fill:#0000ff;stroke:#0000ff;" x="98.008928" xlink:href="#md626a51f7f" y="111.752103"/>
     <use style="fill:#0000ff;stroke:#0000ff;" x="130.802317" xlink:href="#md626a51f7f" y="116.278405"/>
     <use style="fill:#0000ff;stroke:#0000ff;" x="163.595705" xlink:href="#md626a51f7f" y="120.443572"/>
     <use style="fill:#0000ff;stroke:#0000ff;" x="196.389093" xlink:href="#md626a51f7f" y="122.370816"/>
     <use style="fill:#0000ff;stroke:#0000ff;" x="229.182482" xlink:href="#md626a51f7f" y="124.713419"/>
     <use style="fill:#0000ff;stroke:#0000ff;" x="261.97587" xlink:href="#md626a51f7f" y="129.566944"/>
     <use style="fill:#0000ff;stroke:#0000ff;" x="294.769259" xlink:href="#md626a51f7f" y="137.890258"/>
     <use style="fill:#0000ff;stroke:#0000ff;" x="327.562647" xlink:href="#md626a51f7f" y="150.373133"/>
     <use style="fill:#0000ff;stroke:#0000ff;" x="360.356036" xlink:href="#md626a51f7f" y="164.338951"/>
    </g>
   </g>
   <g id="patch_8">
    <path d="M 48.982813 182.890118 
L 48.982813 104.621882 
" style="fill:none;stroke:#000000;stroke-linecap:square;stroke-linejoin:miter;stroke-width:0.8;"/>
   </g>
   <g id="patch_9">
    <path d="M 406.102813 182.890118 
L 406.102813 104.621882 
" style="fill:none;stroke:#000000;stroke-linecap:square;stroke-linejoin:miter;stroke-width:0.8;"/>
   </g>
   <g id="patch_10">
    <path d="M 48.982813 182.890118 
L 406.102813 182.890118 
" style="fill:none;stroke:#000000;stroke-linecap:square;stroke-linejoin:miter;stroke-width:0.8;"/>
   </g>
   <g id="patch_11">
    <path d="M 48.982813 104.621882 
L 406.102813 104.621882 
" style="fill:none;stroke:#000000;stroke-linecap:square;stroke-linejoin:miter;stroke-width:0.8;"/>
   </g>
  </g>
  <g id="axes_3">
   <g id="patch_12">
    <path d="M 48.982813 276.812 
L 406.102813 276.812 
L 406.102813 198.543765 
L 48.982813 198.543765 
z
" style="fill:#ffffff;"/>
   </g>
   <g id="matplotlib.axis_5">
    <g id="xtick_13">
     <g id="line2d_23">
      <g>
       <use style="stroke:#000000;stroke-width:0.8;" x="65.21554" xlink:href="#m99317cd673" y="276.812"/>
      </g>
     </g>
     <g id="text_23">
      <!-- 0 -->
      <g transform="translate(62.03429 291.410438)scale(0.1 -0.1)">
       <use xlink:href="#DejaVuSans-30"/>
      </g>
     </g>
    </g>
    <g id="xtick_14">
     <g id="line2d_24">
      <g>
       <use style="stroke:#000000;stroke-width:0.8;" x="130.802317" xlink:href="#m99317cd673" y="276.812"/>
      </g>
     </g>
     <g id="text_24">
      <!-- 20 -->
      <g transform="translate(124.439817 291.410438)scale(0.1 -0.1)">
       <use xlink:href="#DejaVuSans-32"/>
       <use x="63.623047" xlink:href="#DejaVuSans-30"/>
      </g>
     </g>
    </g>
    <g id="xtick_15">
     <g id="line2d_25">
      <g>
       <use style="stroke:#000000;stroke-width:0.8;" x="196.389093" xlink:href="#m99317cd673" y="276.812"/>
      </g>
     </g>
     <g id="text_25">
      <!-- 40 -->
      <g transform="translate(190.026593 291.410438)scale(0.1 -0.1)">
       <use xlink:href="#DejaVuSans-34"/>
       <use x="63.623047" xlink:href="#DejaVuSans-30"/>
      </g>
     </g>
    </g>
    <g id="xtick_16">
     <g id="line2d_26">
      <g>
       <use style="stroke:#000000;stroke-width:0.8;" x="261.97587" xlink:href="#m99317cd673" y="276.812"/>
      </g>
     </g>
     <g id="text_26">
      <!-- 60 -->
      <g transform="translate(255.61337 291.410438)scale(0.1 -0.1)">
       <use xlink:href="#DejaVuSans-36"/>
       <use x="63.623047" xlink:href="#DejaVuSans-30"/>
      </g>
     </g>
    </g>
    <g id="xtick_17">
     <g id="line2d_27">
      <g>
       <use style="stroke:#000000;stroke-width:0.8;" x="327.562647" xlink:href="#m99317cd673" y="276.812"/>
      </g>
     </g>
     <g id="text_27">
      <!-- 80 -->
      <g transform="translate(321.200147 291.410438)scale(0.1 -0.1)">
       <use xlink:href="#DejaVuSans-38"/>
       <use x="63.623047" xlink:href="#DejaVuSans-30"/>
      </g>
     </g>
    </g>
    <g id="xtick_18">
     <g id="line2d_28">
      <g>
       <use style="stroke:#000000;stroke-width:0.8;" x="393.149424" xlink:href="#m99317cd673" y="276.812"/>
      </g>
     </g>
     <g id="text_28">
      <!-- 100 -->
      <g transform="translate(383.605674 291.410438)scale(0.1 -0.1)">
       <use xlink:href="#DejaVuSans-31"/>
       <use x="63.623047" xlink:href="#DejaVuSans-30"/>
       <use x="127.246094" xlink:href="#DejaVuSans-30"/>
      </g>
     </g>
    </g>
    <g id="text_29">
     <!-- Time -->
     <g transform="translate(215.155313 305.088562)scale(0.1 -0.1)">
      <use xlink:href="#DejaVuSans-54"/>
      <use x="61.037109" xlink:href="#DejaVuSans-69"/>
      <use x="88.820312" xlink:href="#DejaVuSans-6d"/>
      <use x="186.232422" xlink:href="#DejaVuSans-65"/>
     </g>
    </g>
   </g>
   <g id="matplotlib.axis_6">
    <g id="ytick_7">
     <g id="line2d_29">
      <g>
       <use style="stroke:#000000;stroke-width:0.8;" x="48.982813" xlink:href="#m70ade0df62" y="273.254353"/>
      </g>
     </g>
     <g id="text_30">
      <!-- 0 -->
      <g transform="translate(35.620313 277.053572)scale(0.1 -0.1)">
       <use xlink:href="#DejaVuSans-30"/>
      </g>
     </g>
    </g>
    <g id="ytick_8">
     <g id="line2d_30">
      <g>
       <use style="stroke:#000000;stroke-width:0.8;" x="48.982813" xlink:href="#m70ade0df62" y="242.847303"/>
      </g>
     </g>
     <g id="text_31">
      <!-- 20 -->
      <g transform="translate(29.257813 246.646522)scale(0.1 -0.1)">
       <use xlink:href="#DejaVuSans-32"/>
       <use x="63.623047" xlink:href="#DejaVuSans-30"/>
      </g>
     </g>
    </g>
    <g id="ytick_9">
     <g id="line2d_31">
      <g>
       <use style="stroke:#000000;stroke-width:0.8;" x="48.982813" xlink:href="#m70ade0df62" y="212.440254"/>
      </g>
     </g>
     <g id="text_32">
      <!-- 40 -->
      <g transform="translate(29.257813 216.239473)scale(0.1 -0.1)">
       <use xlink:href="#DejaVuSans-34"/>
       <use x="63.623047" xlink:href="#DejaVuSans-30"/>
      </g>
     </g>
    </g>
    <g id="text_33">
     <!-- z -->
     <defs>
      <path d="M 5.515625 54.6875 
L 48.1875 54.6875 
L 48.1875 46.484375 
L 14.40625 7.171875 
L 48.1875 7.171875 
L 48.1875 0 
L 4.296875 0 
L 4.296875 8.203125 
L 38.09375 47.515625 
L 5.515625 47.515625 
z
" id="DejaVuSans-7a"/>
     </defs>
     <g transform="translate(23.178125 240.302101)rotate(-90)scale(0.1 -0.1)">
      <use xlink:href="#DejaVuSans-7a"/>
     </g>
    </g>
   </g>
   <g id="line2d_32">
    <path clip-path="url(#pb2bbc39d42)" d="M 65.21554 273.254353 
L 68.494879 272.241374 
L 71.774217 271.234833 
L 75.053556 270.241399 
L 78.332895 269.254521 
L 81.612234 268.292512 
L 84.891573 267.341638 
L 88.170912 266.434903 
L 91.450251 265.566518 
L 94.729589 264.72412 
L 98.008928 263.921409 
L 101.288267 263.143145 
L 104.567606 262.409068 
L 107.846945 261.732203 
L 111.126284 261.097447 
L 114.405622 260.500134 
L 117.684961 259.942672 
L 120.9643 259.401314 
L 124.243639 258.887498 
L 127.522978 258.398158 
L 130.802317 257.934813 
L 134.081655 257.497225 
L 137.360994 257.079246 
L 140.640333 256.689083 
L 143.919672 256.325306 
L 147.199011 255.994752 
L 150.47835 255.701865 
L 153.757689 255.446815 
L 157.037027 255.216962 
L 160.316366 254.993954 
L 163.595705 254.770232 
L 166.875044 254.543892 
L 170.154383 254.315153 
L 173.433722 254.090633 
L 176.71306 253.871281 
L 179.992399 253.650735 
L 183.271738 253.429345 
L 186.551077 253.204068 
L 189.830416 252.960667 
L 193.109755 252.694883 
L 196.389093 252.399737 
L 199.668432 252.074388 
L 202.947771 251.73281 
L 206.22711 251.382251 
L 209.506449 251.012669 
L 212.785788 250.635444 
L 216.065127 250.236847 
L 219.344465 249.827399 
L 222.623804 249.415648 
L 225.903143 248.975852 
L 229.182482 248.518281 
L 232.461821 248.059973 
L 235.74116 247.564164 
L 239.020498 247.051448 
L 242.299837 246.54194 
L 245.579176 245.987998 
L 248.858515 245.440479 
L 252.137854 244.848415 
L 255.417193 244.236371 
L 258.696532 243.625789 
L 261.97587 242.974699 
L 265.255209 242.30942 
L 268.534548 241.63521 
L 271.813887 240.918833 
L 275.093226 240.192968 
L 278.372565 239.428633 
L 281.651903 238.64085 
L 284.931242 237.839531 
L 288.210581 237.005708 
L 291.48992 236.152734 
L 294.769259 235.294311 
L 298.048598 234.410503 
L 301.327936 233.515687 
L 304.607275 232.574282 
L 307.886614 231.610728 
L 311.165953 230.62673 
L 314.445292 229.628257 
L 317.724631 228.611613 
L 321.00397 227.580542 
L 324.283308 226.52711 
L 327.562647 225.45962 
L 330.841986 224.36792 
L 334.121325 223.260157 
L 337.400664 222.131973 
L 340.680003 220.99052 
L 343.959341 219.832503 
L 347.23868 218.660943 
L 350.518019 217.480296 
L 353.797358 216.279459 
L 357.076697 215.074285 
L 360.356036 213.849287 
L 363.635374 212.610904 
L 366.914713 211.35428 
L 370.194052 210.077515 
L 373.473391 208.787346 
L 376.75273 207.479703 
L 380.032069 206.158981 
L 383.311408 204.820994 
L 386.590746 203.47016 
L 389.870085 202.101412 
" style="fill:none;stroke:#ff0000;stroke-linecap:square;stroke-width:1.5;"/>
    <g clip-path="url(#pb2bbc39d42)">
     <use style="fill:#ff0000;stroke:#ff0000;" x="65.21554" xlink:href="#m191a5c0de5" y="273.254353"/>
     <use style="fill:#ff0000;stroke:#ff0000;" x="98.008928" xlink:href="#m191a5c0de5" y="263.921409"/>
     <use style="fill:#ff0000;stroke:#ff0000;" x="130.802317" xlink:href="#m191a5c0de5" y="257.934813"/>
     <use style="fill:#ff0000;stroke:#ff0000;" x="163.595705" xlink:href="#m191a5c0de5" y="254.770232"/>
     <use style="fill:#ff0000;stroke:#ff0000;" x="196.389093" xlink:href="#m191a5c0de5" y="252.399737"/>
     <use style="fill:#ff0000;stroke:#ff0000;" x="229.182482" xlink:href="#m191a5c0de5" y="248.518281"/>
     <use style="fill:#ff0000;stroke:#ff0000;" x="261.97587" xlink:href="#m191a5c0de5" y="242.974699"/>
     <use style="fill:#ff0000;stroke:#ff0000;" x="294.769259" xlink:href="#m191a5c0de5" y="235.294311"/>
     <use style="fill:#ff0000;stroke:#ff0000;" x="327.562647" xlink:href="#m191a5c0de5" y="225.45962"/>
     <use style="fill:#ff0000;stroke:#ff0000;" x="360.356036" xlink:href="#m191a5c0de5" y="213.849287"/>
    </g>
   </g>
   <g id="line2d_33">
    <path clip-path="url(#pb2bbc39d42)" d="M 65.21554 273.254353 
L 68.494879 272.254053 
L 71.774217 271.244685 
L 75.053556 270.267703 
L 78.332895 269.323062 
L 81.612234 268.384958 
L 84.891573 267.428563 
L 88.170912 266.486418 
L 91.450251 265.562284 
L 94.729589 264.625253 
L 98.008928 263.723449 
L 101.288267 262.86427 
L 104.567606 262.051171 
L 107.846945 261.238485 
L 111.126284 260.444529 
L 114.405622 259.721211 
L 117.684961 259.016987 
L 120.9643 258.354192 
L 124.243639 257.713187 
L 127.522978 257.059666 
L 130.802317 256.425796 
L 134.081655 255.837306 
L 137.360994 255.288805 
L 140.640333 254.792831 
L 143.919672 254.333141 
L 147.199011 253.927603 
L 150.47835 253.565422 
L 153.757689 253.251801 
L 157.037027 252.983924 
L 160.316366 252.772731 
L 163.595705 252.560664 
L 166.875044 252.349807 
L 170.154383 252.117971 
L 173.433722 251.907349 
L 176.71306 251.724124 
L 179.992399 251.552876 
L 183.271738 251.378883 
L 186.551077 251.188723 
L 189.830416 250.987704 
L 193.109755 250.773288 
L 196.389093 250.539863 
L 199.668432 250.303326 
L 202.947771 249.999885 
L 206.22711 249.692061 
L 209.506449 249.368057 
L 212.785788 249.040539 
L 216.065127 248.732809 
L 219.344465 248.387988 
L 222.623804 248.013601 
L 225.903143 247.538671 
L 229.182482 247.060055 
L 232.461821 246.564965 
L 235.74116 246.066088 
L 239.020498 245.574002 
L 242.299837 245.034478 
L 245.579176 244.457055 
L 248.858515 243.902936 
L 252.137854 243.34028 
L 255.417193 242.7574 
L 258.696532 242.151307 
L 261.97587 241.553559 
L 265.255209 240.958465 
L 268.534548 240.336864 
L 271.813887 239.651303 
L 275.093226 238.95635 
L 278.372565 238.240353 
L 281.651903 237.538371 
L 284.931242 236.815313 
L 288.210581 236.10227 
L 291.48992 235.404644 
L 294.769259 234.675467 
L 298.048598 233.961416 
L 301.327936 233.167981 
L 304.607275 232.357089 
L 307.886614 231.531122 
L 311.165953 230.716127 
L 314.445292 229.880323 
L 317.724631 229.021758 
L 321.00397 228.125715 
L 324.283308 227.211792 
L 327.562647 226.244474 
L 330.841986 225.252174 
L 334.121325 224.23948 
L 337.400664 223.172158 
L 340.680003 222.116442 
L 343.959341 221.051098 
L 347.23868 219.952701 
L 350.518019 218.835027 
L 353.797358 217.709261 
L 357.076697 216.599817 
L 360.356036 215.493614 
L 363.635374 214.422047 
L 366.914713 213.283511 
L 370.194052 212.109283 
L 373.473391 210.937434 
L 376.75273 209.775374 
L 380.032069 208.591444 
L 383.311408 207.421978 
L 386.590746 206.219982 
L 389.870085 204.987938 
" style="fill:none;stroke:#0000ff;stroke-linecap:square;stroke-width:1.5;"/>
    <g clip-path="url(#pb2bbc39d42)">
     <use style="fill:#0000ff;stroke:#0000ff;" x="65.21554" xlink:href="#md626a51f7f" y="273.254353"/>
     <use style="fill:#0000ff;stroke:#0000ff;" x="98.008928" xlink:href="#md626a51f7f" y="263.723449"/>
     <use style="fill:#0000ff;stroke:#0000ff;" x="130.802317" xlink:href="#md626a51f7f" y="256.425796"/>
     <use style="fill:#0000ff;stroke:#0000ff;" x="163.595705" xlink:href="#md626a51f7f" y="252.560664"/>
     <use style="fill:#0000ff;stroke:#0000ff;" x="196.389093" xlink:href="#md626a51f7f" y="250.539863"/>
     <use style="fill:#0000ff;stroke:#0000ff;" x="229.182482" xlink:href="#md626a51f7f" y="247.060055"/>
     <use style="fill:#0000ff;stroke:#0000ff;" x="261.97587" xlink:href="#md626a51f7f" y="241.553559"/>
     <use style="fill:#0000ff;stroke:#0000ff;" x="294.769259" xlink:href="#md626a51f7f" y="234.675467"/>
     <use style="fill:#0000ff;stroke:#0000ff;" x="327.562647" xlink:href="#md626a51f7f" y="226.244474"/>
     <use style="fill:#0000ff;stroke:#0000ff;" x="360.356036" xlink:href="#md626a51f7f" y="215.493614"/>
    </g>
   </g>
   <g id="patch_13">
    <path d="M 48.982813 276.812 
L 48.982813 198.543765 
" style="fill:none;stroke:#000000;stroke-linecap:square;stroke-linejoin:miter;stroke-width:0.8;"/>
   </g>
   <g id="patch_14">
    <path d="M 406.102813 276.812 
L 406.102813 198.543765 
" style="fill:none;stroke:#000000;stroke-linecap:square;stroke-linejoin:miter;stroke-width:0.8;"/>
   </g>
   <g id="patch_15">
    <path d="M 48.982813 276.812 
L 406.102813 276.812 
" style="fill:none;stroke:#000000;stroke-linecap:square;stroke-linejoin:miter;stroke-width:0.8;"/>
   </g>
   <g id="patch_16">
    <path d="M 48.982813 198.543765 
L 406.102813 198.543765 
" style="fill:none;stroke:#000000;stroke-linecap:square;stroke-linejoin:miter;stroke-width:0.8;"/>
   </g>
   <g id="legend_1">
    <g id="patch_17">
     <path d="M 55.982813 271.812 
L 154.951563 271.812 
Q 156.951563 271.812 156.951563 269.812 
L 156.951563 241.45575 
Q 156.951563 239.45575 154.951563 239.45575 
L 55.982813 239.45575 
Q 53.982813 239.45575 53.982813 241.45575 
L 53.982813 269.812 
Q 53.982813 271.812 55.982813 271.812 
z
" style="fill:#ffffff;opacity:0.8;stroke:#cccccc;stroke-linejoin:miter;"/>
    </g>
    <g id="line2d_34">
     <path d="M 57.982813 247.554187 
L 77.982813 247.554187 
" style="fill:none;stroke:#ff0000;stroke-linecap:square;stroke-width:1.5;"/>
    </g>
    <g id="line2d_35">
     <g>
      <use style="fill:#ff0000;stroke:#ff0000;" x="67.982813" xlink:href="#m191a5c0de5" y="247.554187"/>
     </g>
    </g>
    <g id="text_34">
     <!-- Ground Truth -->
     <defs>
      <path d="M 59.515625 10.40625 
L 59.515625 29.984375 
L 43.40625 29.984375 
L 43.40625 38.09375 
L 69.28125 38.09375 
L 69.28125 6.78125 
Q 63.578125 2.734375 56.6875 0.65625 
Q 49.8125 -1.421875 42 -1.421875 
Q 24.90625 -1.421875 15.25 8.5625 
Q 5.609375 18.5625 5.609375 36.375 
Q 5.609375 54.25 15.25 64.234375 
Q 24.90625 74.21875 42 74.21875 
Q 49.125 74.21875 55.546875 72.453125 
Q 61.96875 70.703125 67.390625 67.28125 
L 67.390625 56.78125 
Q 61.921875 61.421875 55.765625 63.765625 
Q 49.609375 66.109375 42.828125 66.109375 
Q 29.4375 66.109375 22.71875 58.640625 
Q 16.015625 51.171875 16.015625 36.375 
Q 16.015625 21.625 22.71875 14.15625 
Q 29.4375 6.6875 42.828125 6.6875 
Q 48.046875 6.6875 52.140625 7.59375 
Q 56.25 8.5 59.515625 10.40625 
z
" id="DejaVuSans-47"/>
      <path d="M 41.109375 46.296875 
Q 39.59375 47.171875 37.8125 47.578125 
Q 36.03125 48 33.890625 48 
Q 26.265625 48 22.1875 43.046875 
Q 18.109375 38.09375 18.109375 28.8125 
L 18.109375 0 
L 9.078125 0 
L 9.078125 54.6875 
L 18.109375 54.6875 
L 18.109375 46.1875 
Q 20.953125 51.171875 25.484375 53.578125 
Q 30.03125 56 36.53125 56 
Q 37.453125 56 38.578125 55.875 
Q 39.703125 55.765625 41.0625 55.515625 
z
" id="DejaVuSans-72"/>
      <path d="M 30.609375 48.390625 
Q 23.390625 48.390625 19.1875 42.75 
Q 14.984375 37.109375 14.984375 27.296875 
Q 14.984375 17.484375 19.15625 11.84375 
Q 23.34375 6.203125 30.609375 6.203125 
Q 37.796875 6.203125 41.984375 11.859375 
Q 46.1875 17.53125 46.1875 27.296875 
Q 46.1875 37.015625 41.984375 42.703125 
Q 37.796875 48.390625 30.609375 48.390625 
z
M 30.609375 56 
Q 42.328125 56 49.015625 48.375 
Q 55.71875 40.765625 55.71875 27.296875 
Q 55.71875 13.875 49.015625 6.21875 
Q 42.328125 -1.421875 30.609375 -1.421875 
Q 18.84375 -1.421875 12.171875 6.21875 
Q 5.515625 13.875 5.515625 27.296875 
Q 5.515625 40.765625 12.171875 48.375 
Q 18.84375 56 30.609375 56 
z
" id="DejaVuSans-6f"/>
      <path d="M 8.5 21.578125 
L 8.5 54.6875 
L 17.484375 54.6875 
L 17.484375 21.921875 
Q 17.484375 14.15625 20.5 10.265625 
Q 23.53125 6.390625 29.59375 6.390625 
Q 36.859375 6.390625 41.078125 11.03125 
Q 45.3125 15.671875 45.3125 23.6875 
L 45.3125 54.6875 
L 54.296875 54.6875 
L 54.296875 0 
L 45.3125 0 
L 45.3125 8.40625 
Q 42.046875 3.421875 37.71875 1 
Q 33.40625 -1.421875 27.6875 -1.421875 
Q 18.265625 -1.421875 13.375 4.4375 
Q 8.5 10.296875 8.5 21.578125 
z
M 31.109375 56 
z
" id="DejaVuSans-75"/>
      <path d="M 54.890625 33.015625 
L 54.890625 0 
L 45.90625 0 
L 45.90625 32.71875 
Q 45.90625 40.484375 42.875 44.328125 
Q 39.84375 48.1875 33.796875 48.1875 
Q 26.515625 48.1875 22.3125 43.546875 
Q 18.109375 38.921875 18.109375 30.90625 
L 18.109375 0 
L 9.078125 0 
L 9.078125 54.6875 
L 18.109375 54.6875 
L 18.109375 46.1875 
Q 21.34375 51.125 25.703125 53.5625 
Q 30.078125 56 35.796875 56 
Q 45.21875 56 50.046875 50.171875 
Q 54.890625 44.34375 54.890625 33.015625 
z
" id="DejaVuSans-6e"/>
      <path d="M 45.40625 46.390625 
L 45.40625 75.984375 
L 54.390625 75.984375 
L 54.390625 0 
L 45.40625 0 
L 45.40625 8.203125 
Q 42.578125 3.328125 38.25 0.953125 
Q 33.9375 -1.421875 27.875 -1.421875 
Q 17.96875 -1.421875 11.734375 6.484375 
Q 5.515625 14.40625 5.515625 27.296875 
Q 5.515625 40.1875 11.734375 48.09375 
Q 17.96875 56 27.875 56 
Q 33.9375 56 38.25 53.625 
Q 42.578125 51.265625 45.40625 46.390625 
z
M 14.796875 27.296875 
Q 14.796875 17.390625 18.875 11.75 
Q 22.953125 6.109375 30.078125 6.109375 
Q 37.203125 6.109375 41.296875 11.75 
Q 45.40625 17.390625 45.40625 27.296875 
Q 45.40625 37.203125 41.296875 42.84375 
Q 37.203125 48.484375 30.078125 48.484375 
Q 22.953125 48.484375 18.875 42.84375 
Q 14.796875 37.203125 14.796875 27.296875 
z
" id="DejaVuSans-64"/>
      <path id="DejaVuSans-20"/>
      <path d="M 18.3125 70.21875 
L 18.3125 54.6875 
L 36.8125 54.6875 
L 36.8125 47.703125 
L 18.3125 47.703125 
L 18.3125 18.015625 
Q 18.3125 11.328125 20.140625 9.421875 
Q 21.96875 7.515625 27.59375 7.515625 
L 36.8125 7.515625 
L 36.8125 0 
L 27.59375 0 
Q 17.1875 0 13.234375 3.875 
Q 9.28125 7.765625 9.28125 18.015625 
L 9.28125 47.703125 
L 2.6875 47.703125 
L 2.6875 54.6875 
L 9.28125 54.6875 
L 9.28125 70.21875 
z
" id="DejaVuSans-74"/>
      <path d="M 54.890625 33.015625 
L 54.890625 0 
L 45.90625 0 
L 45.90625 32.71875 
Q 45.90625 40.484375 42.875 44.328125 
Q 39.84375 48.1875 33.796875 48.1875 
Q 26.515625 48.1875 22.3125 43.546875 
Q 18.109375 38.921875 18.109375 30.90625 
L 18.109375 0 
L 9.078125 0 
L 9.078125 75.984375 
L 18.109375 75.984375 
L 18.109375 46.1875 
Q 21.34375 51.125 25.703125 53.5625 
Q 30.078125 56 35.796875 56 
Q 45.21875 56 50.046875 50.171875 
Q 54.890625 44.34375 54.890625 33.015625 
z
" id="DejaVuSans-68"/>
     </defs>
     <g transform="translate(85.982813 251.054187)scale(0.1 -0.1)">
      <use xlink:href="#DejaVuSans-47"/>
      <use x="77.490234" xlink:href="#DejaVuSans-72"/>
      <use x="118.572266" xlink:href="#DejaVuSans-6f"/>
      <use x="179.753906" xlink:href="#DejaVuSans-75"/>
      <use x="243.132812" xlink:href="#DejaVuSans-6e"/>
      <use x="306.511719" xlink:href="#DejaVuSans-64"/>
      <use x="369.988281" xlink:href="#DejaVuSans-20"/>
      <use x="401.775391" xlink:href="#DejaVuSans-54"/>
      <use x="462.640625" xlink:href="#DejaVuSans-72"/>
      <use x="503.753906" xlink:href="#DejaVuSans-75"/>
      <use x="567.132812" xlink:href="#DejaVuSans-74"/>
      <use x="606.341797" xlink:href="#DejaVuSans-68"/>
     </g>
    </g>
    <g id="line2d_36">
     <path d="M 57.982813 262.232312 
L 77.982813 262.232312 
" style="fill:none;stroke:#0000ff;stroke-linecap:square;stroke-width:1.5;"/>
    </g>
    <g id="line2d_37">
     <g>
      <use style="fill:#0000ff;stroke:#0000ff;" x="67.982813" xlink:href="#md626a51f7f" y="262.232312"/>
     </g>
    </g>
    <g id="text_35">
     <!-- Prediction -->
     <defs>
      <path d="M 19.671875 64.796875 
L 19.671875 37.40625 
L 32.078125 37.40625 
Q 38.96875 37.40625 42.71875 40.96875 
Q 46.484375 44.53125 46.484375 51.125 
Q 46.484375 57.671875 42.71875 61.234375 
Q 38.96875 64.796875 32.078125 64.796875 
z
M 9.8125 72.90625 
L 32.078125 72.90625 
Q 44.34375 72.90625 50.609375 67.359375 
Q 56.890625 61.8125 56.890625 51.125 
Q 56.890625 40.328125 50.609375 34.8125 
Q 44.34375 29.296875 32.078125 29.296875 
L 19.671875 29.296875 
L 19.671875 0 
L 9.8125 0 
z
" id="DejaVuSans-50"/>
      <path d="M 48.78125 52.59375 
L 48.78125 44.1875 
Q 44.96875 46.296875 41.140625 47.34375 
Q 37.3125 48.390625 33.40625 48.390625 
Q 24.65625 48.390625 19.8125 42.84375 
Q 14.984375 37.3125 14.984375 27.296875 
Q 14.984375 17.28125 19.8125 11.734375 
Q 24.65625 6.203125 33.40625 6.203125 
Q 37.3125 6.203125 41.140625 7.25 
Q 44.96875 8.296875 48.78125 10.40625 
L 48.78125 2.09375 
Q 45.015625 0.34375 40.984375 -0.53125 
Q 36.96875 -1.421875 32.421875 -1.421875 
Q 20.0625 -1.421875 12.78125 6.34375 
Q 5.515625 14.109375 5.515625 27.296875 
Q 5.515625 40.671875 12.859375 48.328125 
Q 20.21875 56 33.015625 56 
Q 37.15625 56 41.109375 55.140625 
Q 45.0625 54.296875 48.78125 52.59375 
z
" id="DejaVuSans-63"/>
     </defs>
     <g transform="translate(85.982813 265.732312)scale(0.1 -0.1)">
      <use xlink:href="#DejaVuSans-50"/>
      <use x="60.287109" xlink:href="#DejaVuSans-72"/>
      <use x="101.369141" xlink:href="#DejaVuSans-65"/>
      <use x="162.892578" xlink:href="#DejaVuSans-64"/>
      <use x="226.369141" xlink:href="#DejaVuSans-69"/>
      <use x="254.152344" xlink:href="#DejaVuSans-63"/>
      <use x="309.132812" xlink:href="#DejaVuSans-74"/>
      <use x="348.341797" xlink:href="#DejaVuSans-69"/>
      <use x="376.125" xlink:href="#DejaVuSans-6f"/>
      <use x="437.306641" xlink:href="#DejaVuSans-6e"/>
     </g>
    </g>
   </g>
  </g>
 </g>
 <defs>
  <clipPath id="p530399340a">
   <rect height="78.268235" width="357.12" x="48.982813" y="10.7"/>
  </clipPath>
  <clipPath id="pbd194196d9">
   <rect height="78.268235" width="357.12" x="48.982813" y="104.621882"/>
  </clipPath>
  <clipPath id="pb2bbc39d42">
   <rect height="78.268235" width="357.12" x="48.982813" y="198.543765"/>
  </clipPath>
 </defs>
</svg>
