<?xml version="1.0" encoding="utf-8" standalone="no"?>
<!DOCTYPE svg PUBLIC "-//W3C//DTD SVG 1.1//EN"
  "http://www.w3.org/Graphics/SVG/1.1/DTD/svg11.dtd">
<!-- Created with matplotlib (http://matplotlib.org/) -->
<svg height="314pt" version="1.1" viewBox="0 0 416 314" width="416pt" xmlns="http://www.w3.org/2000/svg" xmlns:xlink="http://www.w3.org/1999/xlink">
 <defs>
  <style type="text/css">
*{stroke-linecap:butt;stroke-linejoin:round;}
  </style>
 </defs>
 <g id="figure_1">
  <g id="patch_1">
   <path d="M 0 314.36825 
L 416.802812 314.36825 
L 416.802812 0 
L 0 0 
z
" style="fill:#ffffff;"/>
  </g>
  <g id="axes_1">
   <g id="patch_2">
    <path d="M 48.982813 88.968235 
L 406.102813 88.968235 
L 406.102813 10.7 
L 48.982813 10.7 
z
" style="fill:#ffffff;"/>
   </g>
   <g id="matplotlib.axis_1">
    <g id="xtick_1">
     <g id="line2d_1">
      <defs>
       <path d="M 0 0 
L 0 3.5 
" id="m8c6740d412" style="stroke:#000000;stroke-width:0.8;"/>
      </defs>
      <g>
       <use style="stroke:#000000;stroke-width:0.8;" x="65.21554" xlink:href="#m8c6740d412" y="88.968235"/>
      </g>
     </g>
     <g id="text_1">
      <!-- 0 -->
      <defs>
       <path d="M 31.78125 66.40625 
Q 24.171875 66.40625 20.328125 58.90625 
Q 16.5 51.421875 16.5 36.375 
Q 16.5 21.390625 20.328125 13.890625 
Q 24.171875 6.390625 31.78125 6.390625 
Q 39.453125 6.390625 43.28125 13.890625 
Q 47.125 21.390625 47.125 36.375 
Q 47.125 51.421875 43.28125 58.90625 
Q 39.453125 66.40625 31.78125 66.40625 
z
M 31.78125 74.21875 
Q 44.046875 74.21875 50.515625 64.515625 
Q 56.984375 54.828125 56.984375 36.375 
Q 56.984375 17.96875 50.515625 8.265625 
Q 44.046875 -1.421875 31.78125 -1.421875 
Q 19.53125 -1.421875 13.0625 8.265625 
Q 6.59375 17.96875 6.59375 36.375 
Q 6.59375 54.828125 13.0625 64.515625 
Q 19.53125 74.21875 31.78125 74.21875 
z
" id="DejaVuSans-30"/>
      </defs>
      <g transform="translate(62.03429 103.566673)scale(0.1 -0.1)">
       <use xlink:href="#DejaVuSans-30"/>
      </g>
     </g>
    </g>
    <g id="xtick_2">
     <g id="line2d_2">
      <g>
       <use style="stroke:#000000;stroke-width:0.8;" x="130.802317" xlink:href="#m8c6740d412" y="88.968235"/>
      </g>
     </g>
     <g id="text_2">
      <!-- 20 -->
      <defs>
       <path d="M 19.1875 8.296875 
L 53.609375 8.296875 
L 53.609375 0 
L 7.328125 0 
L 7.328125 8.296875 
Q 12.9375 14.109375 22.625 23.890625 
Q 32.328125 33.6875 34.8125 36.53125 
Q 39.546875 41.84375 41.421875 45.53125 
Q 43.3125 49.21875 43.3125 52.78125 
Q 43.3125 58.59375 39.234375 62.25 
Q 35.15625 65.921875 28.609375 65.921875 
Q 23.96875 65.921875 18.8125 64.3125 
Q 13.671875 62.703125 7.8125 59.421875 
L 7.8125 69.390625 
Q 13.765625 71.78125 18.9375 73 
Q 24.125 74.21875 28.421875 74.21875 
Q 39.75 74.21875 46.484375 68.546875 
Q 53.21875 62.890625 53.21875 53.421875 
Q 53.21875 48.921875 51.53125 44.890625 
Q 49.859375 40.875 45.40625 35.40625 
Q 44.1875 33.984375 37.640625 27.21875 
Q 31.109375 20.453125 19.1875 8.296875 
z
" id="DejaVuSans-32"/>
      </defs>
      <g transform="translate(124.439817 103.566673)scale(0.1 -0.1)">
       <use xlink:href="#DejaVuSans-32"/>
       <use x="63.623047" xlink:href="#DejaVuSans-30"/>
      </g>
     </g>
    </g>
    <g id="xtick_3">
     <g id="line2d_3">
      <g>
       <use style="stroke:#000000;stroke-width:0.8;" x="196.389093" xlink:href="#m8c6740d412" y="88.968235"/>
      </g>
     </g>
     <g id="text_3">
      <!-- 40 -->
      <defs>
       <path d="M 37.796875 64.3125 
L 12.890625 25.390625 
L 37.796875 25.390625 
z
M 35.203125 72.90625 
L 47.609375 72.90625 
L 47.609375 25.390625 
L 58.015625 25.390625 
L 58.015625 17.1875 
L 47.609375 17.1875 
L 47.609375 0 
L 37.796875 0 
L 37.796875 17.1875 
L 4.890625 17.1875 
L 4.890625 26.703125 
z
" id="DejaVuSans-34"/>
      </defs>
      <g transform="translate(190.026593 103.566673)scale(0.1 -0.1)">
       <use xlink:href="#DejaVuSans-34"/>
       <use x="63.623047" xlink:href="#DejaVuSans-30"/>
      </g>
     </g>
    </g>
    <g id="xtick_4">
     <g id="line2d_4">
      <g>
       <use style="stroke:#000000;stroke-width:0.8;" x="261.97587" xlink:href="#m8c6740d412" y="88.968235"/>
      </g>
     </g>
     <g id="text_4">
      <!-- 60 -->
      <defs>
       <path d="M 33.015625 40.375 
Q 26.375 40.375 22.484375 35.828125 
Q 18.609375 31.296875 18.609375 23.390625 
Q 18.609375 15.53125 22.484375 10.953125 
Q 26.375 6.390625 33.015625 6.390625 
Q 39.65625 6.390625 43.53125 10.953125 
Q 47.40625 15.53125 47.40625 23.390625 
Q 47.40625 31.296875 43.53125 35.828125 
Q 39.65625 40.375 33.015625 40.375 
z
M 52.59375 71.296875 
L 52.59375 62.3125 
Q 48.875 64.0625 45.09375 64.984375 
Q 41.3125 65.921875 37.59375 65.921875 
Q 27.828125 65.921875 22.671875 59.328125 
Q 17.53125 52.734375 16.796875 39.40625 
Q 19.671875 43.65625 24.015625 45.921875 
Q 28.375 48.1875 33.59375 48.1875 
Q 44.578125 48.1875 50.953125 41.515625 
Q 57.328125 34.859375 57.328125 23.390625 
Q 57.328125 12.15625 50.6875 5.359375 
Q 44.046875 -1.421875 33.015625 -1.421875 
Q 20.359375 -1.421875 13.671875 8.265625 
Q 6.984375 17.96875 6.984375 36.375 
Q 6.984375 53.65625 15.1875 63.9375 
Q 23.390625 74.21875 37.203125 74.21875 
Q 40.921875 74.21875 44.703125 73.484375 
Q 48.484375 72.75 52.59375 71.296875 
z
" id="DejaVuSans-36"/>
      </defs>
      <g transform="translate(255.61337 103.566673)scale(0.1 -0.1)">
       <use xlink:href="#DejaVuSans-36"/>
       <use x="63.623047" xlink:href="#DejaVuSans-30"/>
      </g>
     </g>
    </g>
    <g id="xtick_5">
     <g id="line2d_5">
      <g>
       <use style="stroke:#000000;stroke-width:0.8;" x="327.562647" xlink:href="#m8c6740d412" y="88.968235"/>
      </g>
     </g>
     <g id="text_5">
      <!-- 80 -->
      <defs>
       <path d="M 31.78125 34.625 
Q 24.75 34.625 20.71875 30.859375 
Q 16.703125 27.09375 16.703125 20.515625 
Q 16.703125 13.921875 20.71875 10.15625 
Q 24.75 6.390625 31.78125 6.390625 
Q 38.8125 6.390625 42.859375 10.171875 
Q 46.921875 13.96875 46.921875 20.515625 
Q 46.921875 27.09375 42.890625 30.859375 
Q 38.875 34.625 31.78125 34.625 
z
M 21.921875 38.8125 
Q 15.578125 40.375 12.03125 44.71875 
Q 8.5 49.078125 8.5 55.328125 
Q 8.5 64.0625 14.71875 69.140625 
Q 20.953125 74.21875 31.78125 74.21875 
Q 42.671875 74.21875 48.875 69.140625 
Q 55.078125 64.0625 55.078125 55.328125 
Q 55.078125 49.078125 51.53125 44.71875 
Q 48 40.375 41.703125 38.8125 
Q 48.828125 37.15625 52.796875 32.3125 
Q 56.78125 27.484375 56.78125 20.515625 
Q 56.78125 9.90625 50.3125 4.234375 
Q 43.84375 -1.421875 31.78125 -1.421875 
Q 19.734375 -1.421875 13.25 4.234375 
Q 6.78125 9.90625 6.78125 20.515625 
Q 6.78125 27.484375 10.78125 32.3125 
Q 14.796875 37.15625 21.921875 38.8125 
z
M 18.3125 54.390625 
Q 18.3125 48.734375 21.84375 45.5625 
Q 25.390625 42.390625 31.78125 42.390625 
Q 38.140625 42.390625 41.71875 45.5625 
Q 45.3125 48.734375 45.3125 54.390625 
Q 45.3125 60.0625 41.71875 63.234375 
Q 38.140625 66.40625 31.78125 66.40625 
Q 25.390625 66.40625 21.84375 63.234375 
Q 18.3125 60.0625 18.3125 54.390625 
z
" id="DejaVuSans-38"/>
      </defs>
      <g transform="translate(321.200147 103.566673)scale(0.1 -0.1)">
       <use xlink:href="#DejaVuSans-38"/>
       <use x="63.623047" xlink:href="#DejaVuSans-30"/>
      </g>
     </g>
    </g>
    <g id="xtick_6">
     <g id="line2d_6">
      <g>
       <use style="stroke:#000000;stroke-width:0.8;" x="393.149424" xlink:href="#m8c6740d412" y="88.968235"/>
      </g>
     </g>
     <g id="text_6">
      <!-- 100 -->
      <defs>
       <path d="M 12.40625 8.296875 
L 28.515625 8.296875 
L 28.515625 63.921875 
L 10.984375 60.40625 
L 10.984375 69.390625 
L 28.421875 72.90625 
L 38.28125 72.90625 
L 38.28125 8.296875 
L 54.390625 8.296875 
L 54.390625 0 
L 12.40625 0 
z
" id="DejaVuSans-31"/>
      </defs>
      <g transform="translate(383.605674 103.566673)scale(0.1 -0.1)">
       <use xlink:href="#DejaVuSans-31"/>
       <use x="63.623047" xlink:href="#DejaVuSans-30"/>
       <use x="127.246094" xlink:href="#DejaVuSans-30"/>
      </g>
     </g>
    </g>
    <g id="text_7">
     <!-- Time -->
     <defs>
      <path d="M -0.296875 72.90625 
L 61.375 72.90625 
L 61.375 64.59375 
L 35.5 64.59375 
L 35.5 0 
L 25.59375 0 
L 25.59375 64.59375 
L -0.296875 64.59375 
z
" id="DejaVuSans-54"/>
      <path d="M 9.421875 54.6875 
L 18.40625 54.6875 
L 18.40625 0 
L 9.421875 0 
z
M 9.421875 75.984375 
L 18.40625 75.984375 
L 18.40625 64.59375 
L 9.421875 64.59375 
z
" id="DejaVuSans-69"/>
      <path d="M 52 44.1875 
Q 55.375 50.25 60.0625 53.125 
Q 64.75 56 71.09375 56 
Q 79.640625 56 84.28125 50.015625 
Q 88.921875 44.046875 88.921875 33.015625 
L 88.921875 0 
L 79.890625 0 
L 79.890625 32.71875 
Q 79.890625 40.578125 77.09375 44.375 
Q 74.3125 48.1875 68.609375 48.1875 
Q 61.625 48.1875 57.5625 43.546875 
Q 53.515625 38.921875 53.515625 30.90625 
L 53.515625 0 
L 44.484375 0 
L 44.484375 32.71875 
Q 44.484375 40.625 41.703125 44.40625 
Q 38.921875 48.1875 33.109375 48.1875 
Q 26.21875 48.1875 22.15625 43.53125 
Q 18.109375 38.875 18.109375 30.90625 
L 18.109375 0 
L 9.078125 0 
L 9.078125 54.6875 
L 18.109375 54.6875 
L 18.109375 46.1875 
Q 21.1875 51.21875 25.484375 53.609375 
Q 29.78125 56 35.6875 56 
Q 41.65625 56 45.828125 52.96875 
Q 50 49.953125 52 44.1875 
z
" id="DejaVuSans-6d"/>
      <path d="M 56.203125 29.59375 
L 56.203125 25.203125 
L 14.890625 25.203125 
Q 15.484375 15.921875 20.484375 11.0625 
Q 25.484375 6.203125 34.421875 6.203125 
Q 39.59375 6.203125 44.453125 7.46875 
Q 49.3125 8.734375 54.109375 11.28125 
L 54.109375 2.78125 
Q 49.265625 0.734375 44.1875 -0.34375 
Q 39.109375 -1.421875 33.890625 -1.421875 
Q 20.796875 -1.421875 13.15625 6.1875 
Q 5.515625 13.8125 5.515625 26.8125 
Q 5.515625 40.234375 12.765625 48.109375 
Q 20.015625 56 32.328125 56 
Q 43.359375 56 49.78125 48.890625 
Q 56.203125 41.796875 56.203125 29.59375 
z
M 47.21875 32.234375 
Q 47.125 39.59375 43.09375 43.984375 
Q 39.0625 48.390625 32.421875 48.390625 
Q 24.90625 48.390625 20.390625 44.140625 
Q 15.875 39.890625 15.1875 32.171875 
z
" id="DejaVuSans-65"/>
     </defs>
     <g transform="translate(215.155313 117.244798)scale(0.1 -0.1)">
      <use xlink:href="#DejaVuSans-54"/>
      <use x="61.037109" xlink:href="#DejaVuSans-69"/>
      <use x="88.820312" xlink:href="#DejaVuSans-6d"/>
      <use x="186.232422" xlink:href="#DejaVuSans-65"/>
     </g>
    </g>
   </g>
   <g id="matplotlib.axis_2">
    <g id="ytick_1">
     <g id="line2d_7">
      <defs>
       <path d="M 0 0 
L -3.5 0 
" id="me109b55c8d" style="stroke:#000000;stroke-width:0.8;"/>
      </defs>
      <g>
       <use style="stroke:#000000;stroke-width:0.8;" x="48.982813" xlink:href="#me109b55c8d" y="79.962975"/>
      </g>
     </g>
     <g id="text_8">
      <!-- −20 -->
      <defs>
       <path d="M 10.59375 35.5 
L 73.1875 35.5 
L 73.1875 27.203125 
L 10.59375 27.203125 
z
" id="DejaVuSans-2212"/>
      </defs>
      <g transform="translate(20.878125 83.762193)scale(0.1 -0.1)">
       <use xlink:href="#DejaVuSans-2212"/>
       <use x="83.789062" xlink:href="#DejaVuSans-32"/>
       <use x="147.412109" xlink:href="#DejaVuSans-30"/>
      </g>
     </g>
    </g>
    <g id="ytick_2">
     <g id="line2d_8">
      <g>
       <use style="stroke:#000000;stroke-width:0.8;" x="48.982813" xlink:href="#me109b55c8d" y="48.336103"/>
      </g>
     </g>
     <g id="text_9">
      <!-- −10 -->
      <g transform="translate(20.878125 52.135322)scale(0.1 -0.1)">
       <use xlink:href="#DejaVuSans-2212"/>
       <use x="83.789062" xlink:href="#DejaVuSans-31"/>
       <use x="147.412109" xlink:href="#DejaVuSans-30"/>
      </g>
     </g>
    </g>
    <g id="ytick_3">
     <g id="line2d_9">
      <g>
       <use style="stroke:#000000;stroke-width:0.8;" x="48.982813" xlink:href="#me109b55c8d" y="16.709231"/>
      </g>
     </g>
     <g id="text_10">
      <!-- 0 -->
      <g transform="translate(35.620313 20.50845)scale(0.1 -0.1)">
       <use xlink:href="#DejaVuSans-30"/>
      </g>
     </g>
    </g>
    <g id="text_11">
     <!-- x -->
     <defs>
      <path d="M 54.890625 54.6875 
L 35.109375 28.078125 
L 55.90625 0 
L 45.3125 0 
L 29.390625 21.484375 
L 13.484375 0 
L 2.875 0 
L 24.125 28.609375 
L 4.6875 54.6875 
L 15.28125 54.6875 
L 29.78125 35.203125 
L 44.28125 54.6875 
z
" id="DejaVuSans-78"/>
     </defs>
     <g transform="translate(14.798438 52.793493)rotate(-90)scale(0.1 -0.1)">
      <use xlink:href="#DejaVuSans-78"/>
     </g>
    </g>
   </g>
   <g id="line2d_10">
    <path clip-path="url(#pc20bb27cc9)" d="M 65.21554 16.709231 
L 68.494879 16.693916 
L 71.774217 16.681661 
L 75.053556 16.635363 
L 78.332895 16.574223 
L 81.612234 16.50745 
L 84.891573 16.41991 
L 88.170912 16.314419 
L 91.450251 16.193641 
L 94.729589 16.072822 
L 98.008928 15.949674 
L 101.288267 15.816355 
L 104.567606 15.669199 
L 107.846945 15.511368 
L 111.126284 15.356302 
L 114.405622 15.224409 
L 117.684961 15.096302 
L 120.9643 14.982618 
L 124.243639 14.900893 
L 127.522978 14.822988 
L 130.802317 14.707795 
L 134.081655 14.590149 
L 137.360994 14.499465 
L 140.640333 14.421898 
L 143.919672 14.364443 
L 147.199011 14.375859 
L 150.47835 14.440167 
L 153.757689 14.523172 
L 157.037027 14.648979 
L 160.316366 14.814736 
L 163.595705 15.004619 
L 166.875044 15.245943 
L 170.154383 15.507738 
L 173.433722 15.810779 
L 176.71306 16.172904 
L 179.992399 16.565785 
L 183.271738 16.991605 
L 186.551077 17.448809 
L 189.830416 17.928963 
L 193.109755 18.410196 
L 196.389093 18.899184 
L 199.668432 19.391303 
L 202.947771 19.909005 
L 206.22711 20.449238 
L 209.506449 21.005553 
L 212.785788 21.608673 
L 216.065127 22.233105 
L 219.344465 22.838198 
L 222.623804 23.44682 
L 225.903143 24.09885 
L 229.182482 24.76081 
L 232.461821 25.450265 
L 235.74116 26.152032 
L 239.020498 26.878218 
L 242.299837 27.621524 
L 245.579176 28.389743 
L 248.858515 29.155363 
L 252.137854 29.932799 
L 255.417193 30.744753 
L 258.696532 31.603687 
L 261.97587 32.480971 
L 265.255209 33.340376 
L 268.534548 34.210566 
L 271.813887 35.09223 
L 275.093226 35.971396 
L 278.372565 36.849657 
L 281.651903 37.760319 
L 284.931242 38.70204 
L 288.210581 39.64638 
L 291.48992 40.604956 
L 294.769259 41.559865 
L 298.048598 42.495844 
L 301.327936 43.446934 
L 304.607275 44.390206 
L 307.886614 45.3185 
L 311.165953 46.245472 
L 314.445292 47.187453 
L 317.724631 48.128554 
L 321.00397 49.046882 
L 324.283308 49.967774 
L 327.562647 50.945986 
L 330.841986 51.911004 
L 334.121325 52.842634 
L 337.400664 53.762766 
L 340.680003 54.684201 
L 343.959341 55.587358 
L 347.23868 56.483403 
L 350.518019 57.40295 
L 353.797358 58.33178 
L 357.076697 59.258234 
L 360.356036 60.202514 
L 363.635374 61.169372 
L 366.914713 62.168474 
L 370.194052 63.177257 
L 373.473391 64.197056 
L 376.75273 65.262796 
L 380.032069 66.355484 
L 383.311408 67.456158 
L 386.590746 68.584038 
L 389.870085 69.749306 
" style="fill:none;stroke:#ff0000;stroke-linecap:square;stroke-width:1.5;"/>
    <defs>
     <path d="M 0 2.5 
C 0.663008 2.5 1.29895 2.236584 1.767767 1.767767 
C 2.236584 1.29895 2.5 0.663008 2.5 0 
C 2.5 -0.663008 2.236584 -1.29895 1.767767 -1.767767 
C 1.29895 -2.236584 0.663008 -2.5 0 -2.5 
C -0.663008 -2.5 -1.29895 -2.236584 -1.767767 -1.767767 
C -2.236584 -1.29895 -2.5 -0.663008 -2.5 0 
C -2.5 0.663008 -2.236584 1.29895 -1.767767 1.767767 
C -1.29895 2.236584 -0.663008 2.5 0 2.5 
z
" id="mb144770d5f" style="stroke:#ff0000;"/>
    </defs>
    <g clip-path="url(#pc20bb27cc9)">
     <use style="fill:#ff0000;stroke:#ff0000;" x="65.21554" xlink:href="#mb144770d5f" y="16.709231"/>
     <use style="fill:#ff0000;stroke:#ff0000;" x="98.008928" xlink:href="#mb144770d5f" y="15.949674"/>
     <use style="fill:#ff0000;stroke:#ff0000;" x="130.802317" xlink:href="#mb144770d5f" y="14.707795"/>
     <use style="fill:#ff0000;stroke:#ff0000;" x="163.595705" xlink:href="#mb144770d5f" y="15.004619"/>
     <use style="fill:#ff0000;stroke:#ff0000;" x="196.389093" xlink:href="#mb144770d5f" y="18.899184"/>
     <use style="fill:#ff0000;stroke:#ff0000;" x="229.182482" xlink:href="#mb144770d5f" y="24.76081"/>
     <use style="fill:#ff0000;stroke:#ff0000;" x="261.97587" xlink:href="#mb144770d5f" y="32.480971"/>
     <use style="fill:#ff0000;stroke:#ff0000;" x="294.769259" xlink:href="#mb144770d5f" y="41.559865"/>
     <use style="fill:#ff0000;stroke:#ff0000;" x="327.562647" xlink:href="#mb144770d5f" y="50.945986"/>
     <use style="fill:#ff0000;stroke:#ff0000;" x="360.356036" xlink:href="#mb144770d5f" y="60.202514"/>
    </g>
   </g>
   <g id="line2d_11">
    <path clip-path="url(#pc20bb27cc9)" d="M 65.21554 16.709231 
L 68.494879 16.701591 
L 71.774217 16.670066 
L 75.053556 16.617725 
L 78.332895 16.545453 
L 81.612234 16.457267 
L 84.891573 16.359658 
L 88.170912 16.23855 
L 91.450251 16.103225 
L 94.729589 15.958742 
L 98.008928 15.810123 
L 101.288267 15.657932 
L 104.567606 15.493927 
L 107.846945 15.327644 
L 111.126284 15.187745 
L 114.405622 15.050499 
L 117.684961 14.936473 
L 120.9643 14.824285 
L 124.243639 14.735207 
L 127.522978 14.648797 
L 130.802317 14.538965 
L 134.081655 14.429203 
L 137.360994 14.346694 
L 140.640333 14.28894 
L 143.919672 14.257647 
L 147.199011 14.269051 
L 150.47835 14.327943 
L 153.757689 14.422154 
L 157.037027 14.551989 
L 160.316366 14.719593 
L 163.595705 14.931449 
L 166.875044 15.177254 
L 170.154383 15.44163 
L 173.433722 15.773263 
L 176.71306 16.190036 
L 179.992399 16.669918 
L 183.271738 17.208181 
L 186.551077 17.7763 
L 189.830416 18.357905 
L 193.109755 19.010272 
L 196.389093 19.668748 
L 199.668432 20.360172 
L 202.947771 21.090263 
L 206.22711 21.83869 
L 209.506449 22.597986 
L 212.785788 23.376851 
L 216.065127 24.124448 
L 219.344465 24.858436 
L 222.623804 25.598197 
L 225.903143 26.353374 
L 229.182482 27.161979 
L 232.461821 27.993125 
L 235.74116 28.844668 
L 239.020498 29.722013 
L 242.299837 30.63765 
L 245.579176 31.578653 
L 248.858515 32.518399 
L 252.137854 33.487874 
L 255.417193 34.466527 
L 258.696532 35.489891 
L 261.97587 36.534769 
L 265.255209 37.604337 
L 268.534548 38.725004 
L 271.813887 39.909324 
L 275.093226 41.079082 
L 278.372565 42.27106 
L 281.651903 43.489136 
L 284.931242 44.694978 
L 288.210581 45.903348 
L 291.48992 47.102066 
L 294.769259 48.287539 
L 298.048598 49.482098 
L 301.327936 50.676029 
L 304.607275 51.861177 
L 307.886614 53.067737 
L 311.165953 54.259904 
L 314.445292 55.493519 
L 317.724631 56.741313 
L 321.00397 57.976961 
L 324.283308 59.209324 
L 327.562647 60.447524 
L 330.841986 61.702216 
L 334.121325 62.951035 
L 337.400664 64.182258 
L 340.680003 65.394449 
L 343.959341 66.626828 
L 347.23868 67.867383 
L 350.518019 69.129838 
L 353.797358 70.399714 
L 357.076697 71.618477 
L 360.356036 72.892871 
L 363.635374 74.16341 
L 366.914713 75.480416 
L 370.194052 76.827053 
L 373.473391 78.153518 
L 376.75273 79.525871 
L 380.032069 81.003084 
L 383.311408 82.472582 
L 386.590746 83.914687 
L 389.870085 85.410588 
" style="fill:none;stroke:#0000ff;stroke-linecap:square;stroke-width:1.5;"/>
    <defs>
     <path d="M 0 2.5 
C 0.663008 2.5 1.29895 2.236584 1.767767 1.767767 
C 2.236584 1.29895 2.5 0.663008 2.5 0 
C 2.5 -0.663008 2.236584 -1.29895 1.767767 -1.767767 
C 1.29895 -2.236584 0.663008 -2.5 0 -2.5 
C -0.663008 -2.5 -1.29895 -2.236584 -1.767767 -1.767767 
C -2.236584 -1.29895 -2.5 -0.663008 -2.5 0 
C -2.5 0.663008 -2.236584 1.29895 -1.767767 1.767767 
C -1.29895 2.236584 -0.663008 2.5 0 2.5 
z
" id="mc596cb1271" style="stroke:#0000ff;"/>
    </defs>
    <g clip-path="url(#pc20bb27cc9)">
     <use style="fill:#0000ff;stroke:#0000ff;" x="65.21554" xlink:href="#mc596cb1271" y="16.709231"/>
     <use style="fill:#0000ff;stroke:#0000ff;" x="98.008928" xlink:href="#mc596cb1271" y="15.810123"/>
     <use style="fill:#0000ff;stroke:#0000ff;" x="130.802317" xlink:href="#mc596cb1271" y="14.538965"/>
     <use style="fill:#0000ff;stroke:#0000ff;" x="163.595705" xlink:href="#mc596cb1271" y="14.931449"/>
     <use style="fill:#0000ff;stroke:#0000ff;" x="196.389093" xlink:href="#mc596cb1271" y="19.668748"/>
     <use style="fill:#0000ff;stroke:#0000ff;" x="229.182482" xlink:href="#mc596cb1271" y="27.161979"/>
     <use style="fill:#0000ff;stroke:#0000ff;" x="261.97587" xlink:href="#mc596cb1271" y="36.534769"/>
     <use style="fill:#0000ff;stroke:#0000ff;" x="294.769259" xlink:href="#mc596cb1271" y="48.287539"/>
     <use style="fill:#0000ff;stroke:#0000ff;" x="327.562647" xlink:href="#mc596cb1271" y="60.447524"/>
     <use style="fill:#0000ff;stroke:#0000ff;" x="360.356036" xlink:href="#mc596cb1271" y="72.892871"/>
    </g>
   </g>
   <g id="patch_3">
    <path d="M 48.982813 88.968235 
L 48.982813 10.7 
" style="fill:none;stroke:#000000;stroke-linecap:square;stroke-linejoin:miter;stroke-width:0.8;"/>
   </g>
   <g id="patch_4">
    <path d="M 406.102813 88.968235 
L 406.102813 10.7 
" style="fill:none;stroke:#000000;stroke-linecap:square;stroke-linejoin:miter;stroke-width:0.8;"/>
   </g>
   <g id="patch_5">
    <path d="M 48.982813 88.968235 
L 406.102813 88.968235 
" style="fill:none;stroke:#000000;stroke-linecap:square;stroke-linejoin:miter;stroke-width:0.8;"/>
   </g>
   <g id="patch_6">
    <path d="M 48.982813 10.7 
L 406.102813 10.7 
" style="fill:none;stroke:#000000;stroke-linecap:square;stroke-linejoin:miter;stroke-width:0.8;"/>
   </g>
  </g>
  <g id="axes_2">
   <g id="patch_7">
    <path d="M 48.982813 182.890118 
L 406.102813 182.890118 
L 406.102813 104.621882 
L 48.982813 104.621882 
z
" style="fill:#ffffff;"/>
   </g>
   <g id="matplotlib.axis_3">
    <g id="xtick_7">
     <g id="line2d_12">
      <g>
       <use style="stroke:#000000;stroke-width:0.8;" x="65.21554" xlink:href="#m8c6740d412" y="182.890118"/>
      </g>
     </g>
     <g id="text_12">
      <!-- 0 -->
      <g transform="translate(62.03429 197.488555)scale(0.1 -0.1)">
       <use xlink:href="#DejaVuSans-30"/>
      </g>
     </g>
    </g>
    <g id="xtick_8">
     <g id="line2d_13">
      <g>
       <use style="stroke:#000000;stroke-width:0.8;" x="130.802317" xlink:href="#m8c6740d412" y="182.890118"/>
      </g>
     </g>
     <g id="text_13">
      <!-- 20 -->
      <g transform="translate(124.439817 197.488555)scale(0.1 -0.1)">
       <use xlink:href="#DejaVuSans-32"/>
       <use x="63.623047" xlink:href="#DejaVuSans-30"/>
      </g>
     </g>
    </g>
    <g id="xtick_9">
     <g id="line2d_14">
      <g>
       <use style="stroke:#000000;stroke-width:0.8;" x="196.389093" xlink:href="#m8c6740d412" y="182.890118"/>
      </g>
     </g>
     <g id="text_14">
      <!-- 40 -->
      <g transform="translate(190.026593 197.488555)scale(0.1 -0.1)">
       <use xlink:href="#DejaVuSans-34"/>
       <use x="63.623047" xlink:href="#DejaVuSans-30"/>
      </g>
     </g>
    </g>
    <g id="xtick_10">
     <g id="line2d_15">
      <g>
       <use style="stroke:#000000;stroke-width:0.8;" x="261.97587" xlink:href="#m8c6740d412" y="182.890118"/>
      </g>
     </g>
     <g id="text_15">
      <!-- 60 -->
      <g transform="translate(255.61337 197.488555)scale(0.1 -0.1)">
       <use xlink:href="#DejaVuSans-36"/>
       <use x="63.623047" xlink:href="#DejaVuSans-30"/>
      </g>
     </g>
    </g>
    <g id="xtick_11">
     <g id="line2d_16">
      <g>
       <use style="stroke:#000000;stroke-width:0.8;" x="327.562647" xlink:href="#m8c6740d412" y="182.890118"/>
      </g>
     </g>
     <g id="text_16">
      <!-- 80 -->
      <g transform="translate(321.200147 197.488555)scale(0.1 -0.1)">
       <use xlink:href="#DejaVuSans-38"/>
       <use x="63.623047" xlink:href="#DejaVuSans-30"/>
      </g>
     </g>
    </g>
    <g id="xtick_12">
     <g id="line2d_17">
      <g>
       <use style="stroke:#000000;stroke-width:0.8;" x="393.149424" xlink:href="#m8c6740d412" y="182.890118"/>
      </g>
     </g>
     <g id="text_17">
      <!-- 100 -->
      <g transform="translate(383.605674 197.488555)scale(0.1 -0.1)">
       <use xlink:href="#DejaVuSans-31"/>
       <use x="63.623047" xlink:href="#DejaVuSans-30"/>
       <use x="127.246094" xlink:href="#DejaVuSans-30"/>
      </g>
     </g>
    </g>
    <g id="text_18">
     <!-- Time -->
     <g transform="translate(215.155313 211.16668)scale(0.1 -0.1)">
      <use xlink:href="#DejaVuSans-54"/>
      <use x="61.037109" xlink:href="#DejaVuSans-69"/>
      <use x="88.820312" xlink:href="#DejaVuSans-6d"/>
      <use x="186.232422" xlink:href="#DejaVuSans-65"/>
     </g>
    </g>
   </g>
   <g id="matplotlib.axis_4">
    <g id="ytick_4">
     <g id="line2d_18">
      <g>
       <use style="stroke:#000000;stroke-width:0.8;" x="48.982813" xlink:href="#me109b55c8d" y="156.70892"/>
      </g>
     </g>
     <g id="text_19">
      <!-- −2 -->
      <g transform="translate(27.240625 160.508138)scale(0.1 -0.1)">
       <use xlink:href="#DejaVuSans-2212"/>
       <use x="83.789062" xlink:href="#DejaVuSans-32"/>
      </g>
     </g>
    </g>
    <g id="ytick_5">
     <g id="line2d_19">
      <g>
       <use style="stroke:#000000;stroke-width:0.8;" x="48.982813" xlink:href="#me109b55c8d" y="108.179529"/>
      </g>
     </g>
     <g id="text_20">
      <!-- 0 -->
      <g transform="translate(35.620313 111.978748)scale(0.1 -0.1)">
       <use xlink:href="#DejaVuSans-30"/>
      </g>
     </g>
    </g>
    <g id="text_21">
     <!-- y -->
     <defs>
      <path d="M 32.171875 -5.078125 
Q 28.375 -14.84375 24.75 -17.8125 
Q 21.140625 -20.796875 15.09375 -20.796875 
L 7.90625 -20.796875 
L 7.90625 -13.28125 
L 13.1875 -13.28125 
Q 16.890625 -13.28125 18.9375 -11.515625 
Q 21 -9.765625 23.484375 -3.21875 
L 25.09375 0.875 
L 2.984375 54.6875 
L 12.5 54.6875 
L 29.59375 11.921875 
L 46.6875 54.6875 
L 56.203125 54.6875 
z
" id="DejaVuSans-79"/>
     </defs>
     <g transform="translate(21.160938 146.715375)rotate(-90)scale(0.1 -0.1)">
      <use xlink:href="#DejaVuSans-79"/>
     </g>
    </g>
   </g>
   <g id="line2d_20">
    <path clip-path="url(#pdb2fadf586)" d="M 65.21554 108.179529 
L 68.494879 108.826069 
L 71.774217 109.424071 
L 75.053556 110.009324 
L 78.332895 110.60488 
L 81.612234 111.23986 
L 84.891573 111.875959 
L 88.170912 112.448589 
L 91.450251 112.902085 
L 94.729589 113.293819 
L 98.008928 113.499907 
L 101.288267 113.690532 
L 104.567606 113.978305 
L 107.846945 114.272528 
L 111.126284 114.731118 
L 114.405622 115.10378 
L 117.684961 115.330488 
L 120.9643 115.575954 
L 124.243639 115.70781 
L 127.522978 115.654374 
L 130.802317 115.621357 
L 134.081655 115.64651 
L 137.360994 115.58201 
L 140.640333 115.449508 
L 143.919672 115.422014 
L 147.199011 115.217355 
L 150.47835 114.979314 
L 153.757689 114.730122 
L 157.037027 114.4937 
L 160.316366 114.120618 
L 163.595705 113.88055 
L 166.875044 113.821084 
L 170.154383 113.742898 
L 173.433722 113.71408 
L 176.71306 113.859938 
L 179.992399 114.014117 
L 183.271738 114.186032 
L 186.551077 114.388356 
L 189.830416 114.637548 
L 193.109755 115.017571 
L 196.389093 115.481401 
L 199.668432 115.892893 
L 202.947771 116.339335 
L 206.22711 116.809265 
L 209.506449 117.258658 
L 212.785788 117.620227 
L 216.065127 117.988025 
L 219.344465 118.402899 
L 222.623804 118.788271 
L 225.903143 119.160045 
L 229.182482 119.605028 
L 232.461821 120.064915 
L 235.74116 120.393445 
L 239.020498 120.80615 
L 242.299837 121.235588 
L 245.579176 121.694203 
L 248.858515 122.123742 
L 252.137854 122.538983 
L 255.417193 122.933269 
L 258.696532 123.341658 
L 261.97587 123.722549 
L 265.255209 124.099345 
L 268.534548 124.479914 
L 271.813887 124.906627 
L 275.093226 125.187767 
L 278.372565 125.456567 
L 281.651903 125.831685 
L 284.931242 126.103464 
L 288.210581 126.334408 
L 291.48992 126.696027 
L 294.769259 126.989293 
L 298.048598 127.206855 
L 301.327936 127.44075 
L 304.607275 127.614376 
L 307.886614 127.753407 
L 311.165953 127.899412 
L 314.445292 128.05612 
L 317.724631 128.397373 
L 321.00397 128.689889 
L 324.283308 128.87409 
L 327.562647 129.26112 
L 330.841986 129.632556 
L 334.121325 130.009476 
L 337.400664 130.439245 
L 340.680003 130.879333 
L 343.959341 131.258978 
L 347.23868 131.630414 
L 350.518019 132.000461 
L 353.797358 132.288336 
L 357.076697 132.642947 
L 360.356036 132.92725 
L 363.635374 133.124073 
L 366.914713 133.484106 
L 370.194052 133.876634 
L 373.473391 134.162349 
L 376.75273 134.416768 
L 380.032069 134.68382 
L 383.311408 135.05087 
L 386.590746 135.545313 
L 389.870085 136.066327 
" style="fill:none;stroke:#ff0000;stroke-linecap:square;stroke-width:1.5;"/>
    <g clip-path="url(#pdb2fadf586)">
     <use style="fill:#ff0000;stroke:#ff0000;" x="65.21554" xlink:href="#mb144770d5f" y="108.179529"/>
     <use style="fill:#ff0000;stroke:#ff0000;" x="98.008928" xlink:href="#mb144770d5f" y="113.499907"/>
     <use style="fill:#ff0000;stroke:#ff0000;" x="130.802317" xlink:href="#mb144770d5f" y="115.621357"/>
     <use style="fill:#ff0000;stroke:#ff0000;" x="163.595705" xlink:href="#mb144770d5f" y="113.88055"/>
     <use style="fill:#ff0000;stroke:#ff0000;" x="196.389093" xlink:href="#mb144770d5f" y="115.481401"/>
     <use style="fill:#ff0000;stroke:#ff0000;" x="229.182482" xlink:href="#mb144770d5f" y="119.605028"/>
     <use style="fill:#ff0000;stroke:#ff0000;" x="261.97587" xlink:href="#mb144770d5f" y="123.722549"/>
     <use style="fill:#ff0000;stroke:#ff0000;" x="294.769259" xlink:href="#mb144770d5f" y="126.989293"/>
     <use style="fill:#ff0000;stroke:#ff0000;" x="327.562647" xlink:href="#mb144770d5f" y="129.26112"/>
     <use style="fill:#ff0000;stroke:#ff0000;" x="360.356036" xlink:href="#mb144770d5f" y="132.92725"/>
    </g>
   </g>
   <g id="line2d_21">
    <path clip-path="url(#pdb2fadf586)" d="M 65.21554 108.179529 
L 68.494879 108.564496 
L 71.774217 109.0448 
L 75.053556 109.576079 
L 78.332895 110.067969 
L 81.612234 110.646805 
L 84.891573 111.230422 
L 88.170912 111.811265 
L 91.450251 112.403432 
L 94.729589 112.865293 
L 98.008928 113.044375 
L 101.288267 113.167892 
L 104.567606 113.427541 
L 107.846945 113.811321 
L 111.126284 114.331322 
L 114.405622 114.874862 
L 117.684961 115.444736 
L 120.9643 115.894246 
L 124.243639 116.291406 
L 127.522978 116.697323 
L 130.802317 117.072831 
L 134.081655 117.429419 
L 137.360994 117.828857 
L 140.640333 118.19517 
L 143.919672 118.522085 
L 147.199011 118.777698 
L 150.47835 118.972852 
L 153.757689 119.142807 
L 157.037027 119.223297 
L 160.316366 119.104948 
L 163.595705 118.997522 
L 166.875044 118.94193 
L 170.154383 119.003117 
L 173.433722 119.294924 
L 176.71306 119.7961 
L 179.992399 120.347596 
L 183.271738 120.995892 
L 186.551077 121.733023 
L 189.830416 122.576246 
L 193.109755 123.587615 
L 196.389093 124.594546 
L 199.668432 125.445241 
L 202.947771 126.149073 
L 206.22711 126.802594 
L 209.506449 127.424198 
L 212.785788 128.112311 
L 216.065127 128.900942 
L 219.344465 129.672213 
L 222.623804 130.505898 
L 225.903143 131.358176 
L 229.182482 132.06496 
L 232.461821 132.763313 
L 235.74116 133.569712 
L 239.020498 134.354066 
L 242.299837 135.105129 
L 245.579176 135.911562 
L 248.858515 136.693487 
L 252.137854 137.451446 
L 255.417193 138.169453 
L 258.696532 138.922984 
L 261.97587 139.771391 
L 265.255209 140.560521 
L 268.534548 141.309484 
L 271.813887 142.09083 
L 275.093226 142.881638 
L 278.372565 143.74128 
L 281.651903 144.652742 
L 284.931242 145.471816 
L 288.210581 146.3449 
L 291.48992 147.255107 
L 294.769259 148.150961 
L 298.048598 149.06871 
L 301.327936 150.062567 
L 304.607275 150.945561 
L 307.886614 151.794061 
L 311.165953 152.669239 
L 314.445292 153.666383 
L 317.724631 154.623108 
L 321.00397 155.608586 
L 324.283308 156.600757 
L 327.562647 157.732944 
L 330.841986 158.918912 
L 334.121325 160.094554 
L 337.400664 161.444624 
L 340.680003 162.756887 
L 343.959341 164.006903 
L 347.23868 165.257885 
L 350.518019 166.463846 
L 353.797358 167.658203 
L 357.076697 168.9076 
L 360.356036 170.034027 
L 363.635374 171.167142 
L 366.914713 172.176009 
L 370.194052 173.127245 
L 373.473391 174.099249 
L 376.75273 175.135445 
L 380.032069 176.071258 
L 383.311408 177.030199 
L 386.590746 178.10913 
L 389.870085 179.332471 
" style="fill:none;stroke:#0000ff;stroke-linecap:square;stroke-width:1.5;"/>
    <g clip-path="url(#pdb2fadf586)">
     <use style="fill:#0000ff;stroke:#0000ff;" x="65.21554" xlink:href="#mc596cb1271" y="108.179529"/>
     <use style="fill:#0000ff;stroke:#0000ff;" x="98.008928" xlink:href="#mc596cb1271" y="113.044375"/>
     <use style="fill:#0000ff;stroke:#0000ff;" x="130.802317" xlink:href="#mc596cb1271" y="117.072831"/>
     <use style="fill:#0000ff;stroke:#0000ff;" x="163.595705" xlink:href="#mc596cb1271" y="118.997522"/>
     <use style="fill:#0000ff;stroke:#0000ff;" x="196.389093" xlink:href="#mc596cb1271" y="124.594546"/>
     <use style="fill:#0000ff;stroke:#0000ff;" x="229.182482" xlink:href="#mc596cb1271" y="132.06496"/>
     <use style="fill:#0000ff;stroke:#0000ff;" x="261.97587" xlink:href="#mc596cb1271" y="139.771391"/>
     <use style="fill:#0000ff;stroke:#0000ff;" x="294.769259" xlink:href="#mc596cb1271" y="148.150961"/>
     <use style="fill:#0000ff;stroke:#0000ff;" x="327.562647" xlink:href="#mc596cb1271" y="157.732944"/>
     <use style="fill:#0000ff;stroke:#0000ff;" x="360.356036" xlink:href="#mc596cb1271" y="170.034027"/>
    </g>
   </g>
   <g id="patch_8">
    <path d="M 48.982813 182.890118 
L 48.982813 104.621882 
" style="fill:none;stroke:#000000;stroke-linecap:square;stroke-linejoin:miter;stroke-width:0.8;"/>
   </g>
   <g id="patch_9">
    <path d="M 406.102813 182.890118 
L 406.102813 104.621882 
" style="fill:none;stroke:#000000;stroke-linecap:square;stroke-linejoin:miter;stroke-width:0.8;"/>
   </g>
   <g id="patch_10">
    <path d="M 48.982813 182.890118 
L 406.102813 182.890118 
" style="fill:none;stroke:#000000;stroke-linecap:square;stroke-linejoin:miter;stroke-width:0.8;"/>
   </g>
   <g id="patch_11">
    <path d="M 48.982813 104.621882 
L 406.102813 104.621882 
" style="fill:none;stroke:#000000;stroke-linecap:square;stroke-linejoin:miter;stroke-width:0.8;"/>
   </g>
  </g>
  <g id="axes_3">
   <g id="patch_12">
    <path d="M 48.982813 276.812 
L 406.102813 276.812 
L 406.102813 198.543765 
L 48.982813 198.543765 
z
" style="fill:#ffffff;"/>
   </g>
   <g id="matplotlib.axis_5">
    <g id="xtick_13">
     <g id="line2d_22">
      <g>
       <use style="stroke:#000000;stroke-width:0.8;" x="65.21554" xlink:href="#m8c6740d412" y="276.812"/>
      </g>
     </g>
     <g id="text_22">
      <!-- 0 -->
      <g transform="translate(62.03429 291.410438)scale(0.1 -0.1)">
       <use xlink:href="#DejaVuSans-30"/>
      </g>
     </g>
    </g>
    <g id="xtick_14">
     <g id="line2d_23">
      <g>
       <use style="stroke:#000000;stroke-width:0.8;" x="130.802317" xlink:href="#m8c6740d412" y="276.812"/>
      </g>
     </g>
     <g id="text_23">
      <!-- 20 -->
      <g transform="translate(124.439817 291.410438)scale(0.1 -0.1)">
       <use xlink:href="#DejaVuSans-32"/>
       <use x="63.623047" xlink:href="#DejaVuSans-30"/>
      </g>
     </g>
    </g>
    <g id="xtick_15">
     <g id="line2d_24">
      <g>
       <use style="stroke:#000000;stroke-width:0.8;" x="196.389093" xlink:href="#m8c6740d412" y="276.812"/>
      </g>
     </g>
     <g id="text_24">
      <!-- 40 -->
      <g transform="translate(190.026593 291.410438)scale(0.1 -0.1)">
       <use xlink:href="#DejaVuSans-34"/>
       <use x="63.623047" xlink:href="#DejaVuSans-30"/>
      </g>
     </g>
    </g>
    <g id="xtick_16">
     <g id="line2d_25">
      <g>
       <use style="stroke:#000000;stroke-width:0.8;" x="261.97587" xlink:href="#m8c6740d412" y="276.812"/>
      </g>
     </g>
     <g id="text_25">
      <!-- 60 -->
      <g transform="translate(255.61337 291.410438)scale(0.1 -0.1)">
       <use xlink:href="#DejaVuSans-36"/>
       <use x="63.623047" xlink:href="#DejaVuSans-30"/>
      </g>
     </g>
    </g>
    <g id="xtick_17">
     <g id="line2d_26">
      <g>
       <use style="stroke:#000000;stroke-width:0.8;" x="327.562647" xlink:href="#m8c6740d412" y="276.812"/>
      </g>
     </g>
     <g id="text_26">
      <!-- 80 -->
      <g transform="translate(321.200147 291.410438)scale(0.1 -0.1)">
       <use xlink:href="#DejaVuSans-38"/>
       <use x="63.623047" xlink:href="#DejaVuSans-30"/>
      </g>
     </g>
    </g>
    <g id="xtick_18">
     <g id="line2d_27">
      <g>
       <use style="stroke:#000000;stroke-width:0.8;" x="393.149424" xlink:href="#m8c6740d412" y="276.812"/>
      </g>
     </g>
     <g id="text_27">
      <!-- 100 -->
      <g transform="translate(383.605674 291.410438)scale(0.1 -0.1)">
       <use xlink:href="#DejaVuSans-31"/>
       <use x="63.623047" xlink:href="#DejaVuSans-30"/>
       <use x="127.246094" xlink:href="#DejaVuSans-30"/>
      </g>
     </g>
    </g>
    <g id="text_28">
     <!-- Time -->
     <g transform="translate(215.155313 305.088562)scale(0.1 -0.1)">
      <use xlink:href="#DejaVuSans-54"/>
      <use x="61.037109" xlink:href="#DejaVuSans-69"/>
      <use x="88.820312" xlink:href="#DejaVuSans-6d"/>
      <use x="186.232422" xlink:href="#DejaVuSans-65"/>
     </g>
    </g>
   </g>
   <g id="matplotlib.axis_6">
    <g id="ytick_6">
     <g id="line2d_28">
      <g>
       <use style="stroke:#000000;stroke-width:0.8;" x="48.982813" xlink:href="#me109b55c8d" y="273.254353"/>
      </g>
     </g>
     <g id="text_29">
      <!-- 0 -->
      <g transform="translate(35.620313 277.053572)scale(0.1 -0.1)">
       <use xlink:href="#DejaVuSans-30"/>
      </g>
     </g>
    </g>
    <g id="ytick_7">
     <g id="line2d_29">
      <g>
       <use style="stroke:#000000;stroke-width:0.8;" x="48.982813" xlink:href="#me109b55c8d" y="235.775789"/>
      </g>
     </g>
     <g id="text_30">
      <!-- 50 -->
      <defs>
       <path d="M 10.796875 72.90625 
L 49.515625 72.90625 
L 49.515625 64.59375 
L 19.828125 64.59375 
L 19.828125 46.734375 
Q 21.96875 47.46875 24.109375 47.828125 
Q 26.265625 48.1875 28.421875 48.1875 
Q 40.625 48.1875 47.75 41.5 
Q 54.890625 34.8125 54.890625 23.390625 
Q 54.890625 11.625 47.5625 5.09375 
Q 40.234375 -1.421875 26.90625 -1.421875 
Q 22.3125 -1.421875 17.546875 -0.640625 
Q 12.796875 0.140625 7.71875 1.703125 
L 7.71875 11.625 
Q 12.109375 9.234375 16.796875 8.0625 
Q 21.484375 6.890625 26.703125 6.890625 
Q 35.15625 6.890625 40.078125 11.328125 
Q 45.015625 15.765625 45.015625 23.390625 
Q 45.015625 31 40.078125 35.4375 
Q 35.15625 39.890625 26.703125 39.890625 
Q 22.75 39.890625 18.8125 39.015625 
Q 14.890625 38.140625 10.796875 36.28125 
z
" id="DejaVuSans-35"/>
      </defs>
      <g transform="translate(29.257813 239.575008)scale(0.1 -0.1)">
       <use xlink:href="#DejaVuSans-35"/>
       <use x="63.623047" xlink:href="#DejaVuSans-30"/>
      </g>
     </g>
    </g>
    <g id="ytick_8">
     <g id="line2d_30">
      <g>
       <use style="stroke:#000000;stroke-width:0.8;" x="48.982813" xlink:href="#me109b55c8d" y="198.297225"/>
      </g>
     </g>
     <g id="text_31">
      <!-- 100 -->
      <g transform="translate(22.895313 202.096444)scale(0.1 -0.1)">
       <use xlink:href="#DejaVuSans-31"/>
       <use x="63.623047" xlink:href="#DejaVuSans-30"/>
       <use x="127.246094" xlink:href="#DejaVuSans-30"/>
      </g>
     </g>
    </g>
    <g id="text_32">
     <!-- z -->
     <defs>
      <path d="M 5.515625 54.6875 
L 48.1875 54.6875 
L 48.1875 46.484375 
L 14.40625 7.171875 
L 48.1875 7.171875 
L 48.1875 0 
L 4.296875 0 
L 4.296875 8.203125 
L 38.09375 47.515625 
L 5.515625 47.515625 
z
" id="DejaVuSans-7a"/>
     </defs>
     <g transform="translate(16.815625 240.302101)rotate(-90)scale(0.1 -0.1)">
      <use xlink:href="#DejaVuSans-7a"/>
     </g>
    </g>
   </g>
   <g id="line2d_31">
    <path clip-path="url(#p2e1be58a98)" d="M 65.21554 273.254353 
L 68.494879 272.502795 
L 71.774217 271.756665 
L 75.053556 271.01615 
L 78.332895 270.280146 
L 81.612234 269.544806 
L 84.891573 268.813485 
L 88.170912 268.083908 
L 91.450251 267.350817 
L 94.729589 266.619856 
L 98.008928 265.894169 
L 101.288267 265.180638 
L 104.567606 264.470471 
L 107.846945 263.758424 
L 111.126284 263.045879 
L 114.405622 262.333996 
L 117.684961 261.623117 
L 120.9643 260.912071 
L 124.243639 260.206813 
L 127.522978 259.501952 
L 130.802317 258.799447 
L 134.081655 258.099782 
L 137.360994 257.402505 
L 140.640333 256.704407 
L 143.919672 256.004114 
L 147.199011 255.308312 
L 150.47835 254.610858 
L 153.757689 253.914398 
L 157.037027 253.223317 
L 160.316366 252.529738 
L 163.595705 251.841301 
L 166.875044 251.156683 
L 170.154383 250.478681 
L 173.433722 249.799858 
L 176.71306 249.117906 
L 179.992399 248.437151 
L 183.271738 247.763857 
L 186.551077 247.096648 
L 189.830416 246.429938 
L 193.109755 245.761082 
L 196.389093 245.091834 
L 199.668432 244.425293 
L 202.947771 243.757077 
L 206.22711 243.087778 
L 209.506449 242.423948 
L 212.785788 241.764945 
L 216.065127 241.109348 
L 219.344465 240.455869 
L 222.623804 239.800829 
L 225.903143 239.145592 
L 229.182482 238.488178 
L 232.461821 237.831632 
L 235.74116 237.182768 
L 239.020498 236.53435 
L 242.299837 235.886836 
L 245.579176 235.237961 
L 248.858515 234.590241 
L 252.137854 233.944183 
L 255.417193 233.300972 
L 258.696532 232.661333 
L 261.97587 232.022368 
L 265.255209 231.382226 
L 268.534548 230.743585 
L 271.813887 230.108137 
L 275.093226 229.467549 
L 278.372565 228.828853 
L 281.651903 228.195513 
L 284.931242 227.565227 
L 288.210581 226.938663 
L 291.48992 226.311154 
L 294.769259 225.683901 
L 298.048598 225.055837 
L 301.327936 224.425079 
L 304.607275 223.801035 
L 307.886614 223.184087 
L 311.165953 222.568679 
L 314.445292 221.953356 
L 317.724631 221.338147 
L 321.00397 220.72371 
L 324.283308 220.11525 
L 327.562647 219.515162 
L 330.841986 218.918482 
L 334.121325 218.32095 
L 337.400664 217.726123 
L 340.680003 217.138164 
L 343.959341 216.544584 
L 347.23868 215.957495 
L 350.518019 215.368741 
L 353.797358 214.791814 
L 357.076697 214.22152 
L 360.356036 213.656511 
L 363.635374 213.095511 
L 366.914713 212.535877 
L 370.194052 211.981734 
L 373.473391 211.436048 
L 376.75273 210.897134 
L 380.032069 210.361971 
L 383.311408 209.837222 
L 386.590746 209.321863 
L 389.870085 208.819937 
" style="fill:none;stroke:#ff0000;stroke-linecap:square;stroke-width:1.5;"/>
    <g clip-path="url(#p2e1be58a98)">
     <use style="fill:#ff0000;stroke:#ff0000;" x="65.21554" xlink:href="#mb144770d5f" y="273.254353"/>
     <use style="fill:#ff0000;stroke:#ff0000;" x="98.008928" xlink:href="#mb144770d5f" y="265.894169"/>
     <use style="fill:#ff0000;stroke:#ff0000;" x="130.802317" xlink:href="#mb144770d5f" y="258.799447"/>
     <use style="fill:#ff0000;stroke:#ff0000;" x="163.595705" xlink:href="#mb144770d5f" y="251.841301"/>
     <use style="fill:#ff0000;stroke:#ff0000;" x="196.389093" xlink:href="#mb144770d5f" y="245.091834"/>
     <use style="fill:#ff0000;stroke:#ff0000;" x="229.182482" xlink:href="#mb144770d5f" y="238.488178"/>
     <use style="fill:#ff0000;stroke:#ff0000;" x="261.97587" xlink:href="#mb144770d5f" y="232.022368"/>
     <use style="fill:#ff0000;stroke:#ff0000;" x="294.769259" xlink:href="#mb144770d5f" y="225.683901"/>
     <use style="fill:#ff0000;stroke:#ff0000;" x="327.562647" xlink:href="#mb144770d5f" y="219.515162"/>
     <use style="fill:#ff0000;stroke:#ff0000;" x="360.356036" xlink:href="#mb144770d5f" y="213.656511"/>
    </g>
   </g>
   <g id="line2d_32">
    <path clip-path="url(#p2e1be58a98)" d="M 65.21554 273.254353 
L 68.494879 272.478372 
L 71.774217 271.705664 
L 75.053556 270.937972 
L 78.332895 270.185061 
L 81.612234 269.445178 
L 84.891573 268.732149 
L 88.170912 268.039049 
L 91.450251 267.342729 
L 94.729589 266.663042 
L 98.008928 265.957949 
L 101.288267 265.261651 
L 104.567606 264.553401 
L 107.846945 263.829703 
L 111.126284 263.114991 
L 114.405622 262.385181 
L 117.684961 261.65318 
L 120.9643 260.903422 
L 124.243639 260.151724 
L 127.522978 259.420297 
L 130.802317 258.679805 
L 134.081655 257.950565 
L 137.360994 257.213647 
L 140.640333 256.490791 
L 143.919672 255.766919 
L 147.199011 255.071396 
L 150.47835 254.404391 
L 153.757689 253.726515 
L 157.037027 253.020015 
L 160.316366 252.303229 
L 163.595705 251.541151 
L 166.875044 250.778661 
L 170.154383 249.993151 
L 173.433722 249.205046 
L 176.71306 248.399053 
L 179.992399 247.596789 
L 183.271738 246.7923 
L 186.551077 245.986207 
L 189.830416 245.168588 
L 193.109755 244.327208 
L 196.389093 243.496664 
L 199.668432 242.639374 
L 202.947771 241.782053 
L 206.22711 240.935239 
L 209.506449 240.110478 
L 212.785788 239.316992 
L 216.065127 238.579604 
L 219.344465 237.844279 
L 222.623804 237.121128 
L 225.903143 236.411688 
L 229.182482 235.693736 
L 232.461821 234.985901 
L 235.74116 234.286314 
L 239.020498 233.570455 
L 242.299837 232.853432 
L 245.579176 232.129187 
L 248.858515 231.430667 
L 252.137854 230.716037 
L 255.417193 230.017609 
L 258.696532 229.317162 
L 261.97587 228.623483 
L 265.255209 227.913932 
L 268.534548 227.185614 
L 271.813887 226.43204 
L 275.093226 225.687324 
L 278.372565 224.934936 
L 281.651903 224.194223 
L 284.931242 223.474172 
L 288.210581 222.765873 
L 291.48992 222.072987 
L 294.769259 221.390319 
L 298.048598 220.701653 
L 301.327936 220.017682 
L 304.607275 219.335649 
L 307.886614 218.651998 
L 311.165953 217.977532 
L 314.445292 217.281751 
L 317.724631 216.582397 
L 321.00397 215.879999 
L 324.283308 215.183327 
L 327.562647 214.507099 
L 330.841986 213.82012 
L 334.121325 213.134484 
L 337.400664 212.468899 
L 340.680003 211.820664 
L 343.959341 211.149034 
L 347.23868 210.470467 
L 350.518019 209.789761 
L 353.797358 209.109033 
L 357.076697 208.465099 
L 360.356036 207.800914 
L 363.635374 207.156214 
L 366.914713 206.495461 
L 370.194052 205.828263 
L 373.473391 205.189785 
L 376.75273 204.558117 
L 380.032069 203.908419 
L 383.311408 203.291334 
L 386.590746 202.700831 
L 389.870085 202.101412 
" style="fill:none;stroke:#0000ff;stroke-linecap:square;stroke-width:1.5;"/>
    <g clip-path="url(#p2e1be58a98)">
     <use style="fill:#0000ff;stroke:#0000ff;" x="65.21554" xlink:href="#mc596cb1271" y="273.254353"/>
     <use style="fill:#0000ff;stroke:#0000ff;" x="98.008928" xlink:href="#mc596cb1271" y="265.957949"/>
     <use style="fill:#0000ff;stroke:#0000ff;" x="130.802317" xlink:href="#mc596cb1271" y="258.679805"/>
     <use style="fill:#0000ff;stroke:#0000ff;" x="163.595705" xlink:href="#mc596cb1271" y="251.541151"/>
     <use style="fill:#0000ff;stroke:#0000ff;" x="196.389093" xlink:href="#mc596cb1271" y="243.496664"/>
     <use style="fill:#0000ff;stroke:#0000ff;" x="229.182482" xlink:href="#mc596cb1271" y="235.693736"/>
     <use style="fill:#0000ff;stroke:#0000ff;" x="261.97587" xlink:href="#mc596cb1271" y="228.623483"/>
     <use style="fill:#0000ff;stroke:#0000ff;" x="294.769259" xlink:href="#mc596cb1271" y="221.390319"/>
     <use style="fill:#0000ff;stroke:#0000ff;" x="327.562647" xlink:href="#mc596cb1271" y="214.507099"/>
     <use style="fill:#0000ff;stroke:#0000ff;" x="360.356036" xlink:href="#mc596cb1271" y="207.800914"/>
    </g>
   </g>
   <g id="patch_13">
    <path d="M 48.982813 276.812 
L 48.982813 198.543765 
" style="fill:none;stroke:#000000;stroke-linecap:square;stroke-linejoin:miter;stroke-width:0.8;"/>
   </g>
   <g id="patch_14">
    <path d="M 406.102813 276.812 
L 406.102813 198.543765 
" style="fill:none;stroke:#000000;stroke-linecap:square;stroke-linejoin:miter;stroke-width:0.8;"/>
   </g>
   <g id="patch_15">
    <path d="M 48.982813 276.812 
L 406.102813 276.812 
" style="fill:none;stroke:#000000;stroke-linecap:square;stroke-linejoin:miter;stroke-width:0.8;"/>
   </g>
   <g id="patch_16">
    <path d="M 48.982813 198.543765 
L 406.102813 198.543765 
" style="fill:none;stroke:#000000;stroke-linecap:square;stroke-linejoin:miter;stroke-width:0.8;"/>
   </g>
   <g id="legend_1">
    <g id="patch_17">
     <path d="M 55.982813 271.812 
L 154.951563 271.812 
Q 156.951563 271.812 156.951563 269.812 
L 156.951563 241.45575 
Q 156.951563 239.45575 154.951563 239.45575 
L 55.982813 239.45575 
Q 53.982813 239.45575 53.982813 241.45575 
L 53.982813 269.812 
Q 53.982813 271.812 55.982813 271.812 
z
" style="fill:#ffffff;opacity:0.8;stroke:#cccccc;stroke-linejoin:miter;"/>
    </g>
    <g id="line2d_33">
     <path d="M 57.982813 247.554187 
L 77.982813 247.554187 
" style="fill:none;stroke:#ff0000;stroke-linecap:square;stroke-width:1.5;"/>
    </g>
    <g id="line2d_34">
     <g>
      <use style="fill:#ff0000;stroke:#ff0000;" x="67.982813" xlink:href="#mb144770d5f" y="247.554187"/>
     </g>
    </g>
    <g id="text_33">
     <!-- Ground Truth -->
     <defs>
      <path d="M 59.515625 10.40625 
L 59.515625 29.984375 
L 43.40625 29.984375 
L 43.40625 38.09375 
L 69.28125 38.09375 
L 69.28125 6.78125 
Q 63.578125 2.734375 56.6875 0.65625 
Q 49.8125 -1.421875 42 -1.421875 
Q 24.90625 -1.421875 15.25 8.5625 
Q 5.609375 18.5625 5.609375 36.375 
Q 5.609375 54.25 15.25 64.234375 
Q 24.90625 74.21875 42 74.21875 
Q 49.125 74.21875 55.546875 72.453125 
Q 61.96875 70.703125 67.390625 67.28125 
L 67.390625 56.78125 
Q 61.921875 61.421875 55.765625 63.765625 
Q 49.609375 66.109375 42.828125 66.109375 
Q 29.4375 66.109375 22.71875 58.640625 
Q 16.015625 51.171875 16.015625 36.375 
Q 16.015625 21.625 22.71875 14.15625 
Q 29.4375 6.6875 42.828125 6.6875 
Q 48.046875 6.6875 52.140625 7.59375 
Q 56.25 8.5 59.515625 10.40625 
z
" id="DejaVuSans-47"/>
      <path d="M 41.109375 46.296875 
Q 39.59375 47.171875 37.8125 47.578125 
Q 36.03125 48 33.890625 48 
Q 26.265625 48 22.1875 43.046875 
Q 18.109375 38.09375 18.109375 28.8125 
L 18.109375 0 
L 9.078125 0 
L 9.078125 54.6875 
L 18.109375 54.6875 
L 18.109375 46.1875 
Q 20.953125 51.171875 25.484375 53.578125 
Q 30.03125 56 36.53125 56 
Q 37.453125 56 38.578125 55.875 
Q 39.703125 55.765625 41.0625 55.515625 
z
" id="DejaVuSans-72"/>
      <path d="M 30.609375 48.390625 
Q 23.390625 48.390625 19.1875 42.75 
Q 14.984375 37.109375 14.984375 27.296875 
Q 14.984375 17.484375 19.15625 11.84375 
Q 23.34375 6.203125 30.609375 6.203125 
Q 37.796875 6.203125 41.984375 11.859375 
Q 46.1875 17.53125 46.1875 27.296875 
Q 46.1875 37.015625 41.984375 42.703125 
Q 37.796875 48.390625 30.609375 48.390625 
z
M 30.609375 56 
Q 42.328125 56 49.015625 48.375 
Q 55.71875 40.765625 55.71875 27.296875 
Q 55.71875 13.875 49.015625 6.21875 
Q 42.328125 -1.421875 30.609375 -1.421875 
Q 18.84375 -1.421875 12.171875 6.21875 
Q 5.515625 13.875 5.515625 27.296875 
Q 5.515625 40.765625 12.171875 48.375 
Q 18.84375 56 30.609375 56 
z
" id="DejaVuSans-6f"/>
      <path d="M 8.5 21.578125 
L 8.5 54.6875 
L 17.484375 54.6875 
L 17.484375 21.921875 
Q 17.484375 14.15625 20.5 10.265625 
Q 23.53125 6.390625 29.59375 6.390625 
Q 36.859375 6.390625 41.078125 11.03125 
Q 45.3125 15.671875 45.3125 23.6875 
L 45.3125 54.6875 
L 54.296875 54.6875 
L 54.296875 0 
L 45.3125 0 
L 45.3125 8.40625 
Q 42.046875 3.421875 37.71875 1 
Q 33.40625 -1.421875 27.6875 -1.421875 
Q 18.265625 -1.421875 13.375 4.4375 
Q 8.5 10.296875 8.5 21.578125 
z
M 31.109375 56 
z
" id="DejaVuSans-75"/>
      <path d="M 54.890625 33.015625 
L 54.890625 0 
L 45.90625 0 
L 45.90625 32.71875 
Q 45.90625 40.484375 42.875 44.328125 
Q 39.84375 48.1875 33.796875 48.1875 
Q 26.515625 48.1875 22.3125 43.546875 
Q 18.109375 38.921875 18.109375 30.90625 
L 18.109375 0 
L 9.078125 0 
L 9.078125 54.6875 
L 18.109375 54.6875 
L 18.109375 46.1875 
Q 21.34375 51.125 25.703125 53.5625 
Q 30.078125 56 35.796875 56 
Q 45.21875 56 50.046875 50.171875 
Q 54.890625 44.34375 54.890625 33.015625 
z
" id="DejaVuSans-6e"/>
      <path d="M 45.40625 46.390625 
L 45.40625 75.984375 
L 54.390625 75.984375 
L 54.390625 0 
L 45.40625 0 
L 45.40625 8.203125 
Q 42.578125 3.328125 38.25 0.953125 
Q 33.9375 -1.421875 27.875 -1.421875 
Q 17.96875 -1.421875 11.734375 6.484375 
Q 5.515625 14.40625 5.515625 27.296875 
Q 5.515625 40.1875 11.734375 48.09375 
Q 17.96875 56 27.875 56 
Q 33.9375 56 38.25 53.625 
Q 42.578125 51.265625 45.40625 46.390625 
z
M 14.796875 27.296875 
Q 14.796875 17.390625 18.875 11.75 
Q 22.953125 6.109375 30.078125 6.109375 
Q 37.203125 6.109375 41.296875 11.75 
Q 45.40625 17.390625 45.40625 27.296875 
Q 45.40625 37.203125 41.296875 42.84375 
Q 37.203125 48.484375 30.078125 48.484375 
Q 22.953125 48.484375 18.875 42.84375 
Q 14.796875 37.203125 14.796875 27.296875 
z
" id="DejaVuSans-64"/>
      <path id="DejaVuSans-20"/>
      <path d="M 18.3125 70.21875 
L 18.3125 54.6875 
L 36.8125 54.6875 
L 36.8125 47.703125 
L 18.3125 47.703125 
L 18.3125 18.015625 
Q 18.3125 11.328125 20.140625 9.421875 
Q 21.96875 7.515625 27.59375 7.515625 
L 36.8125 7.515625 
L 36.8125 0 
L 27.59375 0 
Q 17.1875 0 13.234375 3.875 
Q 9.28125 7.765625 9.28125 18.015625 
L 9.28125 47.703125 
L 2.6875 47.703125 
L 2.6875 54.6875 
L 9.28125 54.6875 
L 9.28125 70.21875 
z
" id="DejaVuSans-74"/>
      <path d="M 54.890625 33.015625 
L 54.890625 0 
L 45.90625 0 
L 45.90625 32.71875 
Q 45.90625 40.484375 42.875 44.328125 
Q 39.84375 48.1875 33.796875 48.1875 
Q 26.515625 48.1875 22.3125 43.546875 
Q 18.109375 38.921875 18.109375 30.90625 
L 18.109375 0 
L 9.078125 0 
L 9.078125 75.984375 
L 18.109375 75.984375 
L 18.109375 46.1875 
Q 21.34375 51.125 25.703125 53.5625 
Q 30.078125 56 35.796875 56 
Q 45.21875 56 50.046875 50.171875 
Q 54.890625 44.34375 54.890625 33.015625 
z
" id="DejaVuSans-68"/>
     </defs>
     <g transform="translate(85.982813 251.054187)scale(0.1 -0.1)">
      <use xlink:href="#DejaVuSans-47"/>
      <use x="77.490234" xlink:href="#DejaVuSans-72"/>
      <use x="118.572266" xlink:href="#DejaVuSans-6f"/>
      <use x="179.753906" xlink:href="#DejaVuSans-75"/>
      <use x="243.132812" xlink:href="#DejaVuSans-6e"/>
      <use x="306.511719" xlink:href="#DejaVuSans-64"/>
      <use x="369.988281" xlink:href="#DejaVuSans-20"/>
      <use x="401.775391" xlink:href="#DejaVuSans-54"/>
      <use x="462.640625" xlink:href="#DejaVuSans-72"/>
      <use x="503.753906" xlink:href="#DejaVuSans-75"/>
      <use x="567.132812" xlink:href="#DejaVuSans-74"/>
      <use x="606.341797" xlink:href="#DejaVuSans-68"/>
     </g>
    </g>
    <g id="line2d_35">
     <path d="M 57.982813 262.232312 
L 77.982813 262.232312 
" style="fill:none;stroke:#0000ff;stroke-linecap:square;stroke-width:1.5;"/>
    </g>
    <g id="line2d_36">
     <g>
      <use style="fill:#0000ff;stroke:#0000ff;" x="67.982813" xlink:href="#mc596cb1271" y="262.232312"/>
     </g>
    </g>
    <g id="text_34">
     <!-- Prediction -->
     <defs>
      <path d="M 19.671875 64.796875 
L 19.671875 37.40625 
L 32.078125 37.40625 
Q 38.96875 37.40625 42.71875 40.96875 
Q 46.484375 44.53125 46.484375 51.125 
Q 46.484375 57.671875 42.71875 61.234375 
Q 38.96875 64.796875 32.078125 64.796875 
z
M 9.8125 72.90625 
L 32.078125 72.90625 
Q 44.34375 72.90625 50.609375 67.359375 
Q 56.890625 61.8125 56.890625 51.125 
Q 56.890625 40.328125 50.609375 34.8125 
Q 44.34375 29.296875 32.078125 29.296875 
L 19.671875 29.296875 
L 19.671875 0 
L 9.8125 0 
z
" id="DejaVuSans-50"/>
      <path d="M 48.78125 52.59375 
L 48.78125 44.1875 
Q 44.96875 46.296875 41.140625 47.34375 
Q 37.3125 48.390625 33.40625 48.390625 
Q 24.65625 48.390625 19.8125 42.84375 
Q 14.984375 37.3125 14.984375 27.296875 
Q 14.984375 17.28125 19.8125 11.734375 
Q 24.65625 6.203125 33.40625 6.203125 
Q 37.3125 6.203125 41.140625 7.25 
Q 44.96875 8.296875 48.78125 10.40625 
L 48.78125 2.09375 
Q 45.015625 0.34375 40.984375 -0.53125 
Q 36.96875 -1.421875 32.421875 -1.421875 
Q 20.0625 -1.421875 12.78125 6.34375 
Q 5.515625 14.109375 5.515625 27.296875 
Q 5.515625 40.671875 12.859375 48.328125 
Q 20.21875 56 33.015625 56 
Q 37.15625 56 41.109375 55.140625 
Q 45.0625 54.296875 48.78125 52.59375 
z
" id="DejaVuSans-63"/>
     </defs>
     <g transform="translate(85.982813 265.732312)scale(0.1 -0.1)">
      <use xlink:href="#DejaVuSans-50"/>
      <use x="60.287109" xlink:href="#DejaVuSans-72"/>
      <use x="101.369141" xlink:href="#DejaVuSans-65"/>
      <use x="162.892578" xlink:href="#DejaVuSans-64"/>
      <use x="226.369141" xlink:href="#DejaVuSans-69"/>
      <use x="254.152344" xlink:href="#DejaVuSans-63"/>
      <use x="309.132812" xlink:href="#DejaVuSans-74"/>
      <use x="348.341797" xlink:href="#DejaVuSans-69"/>
      <use x="376.125" xlink:href="#DejaVuSans-6f"/>
      <use x="437.306641" xlink:href="#DejaVuSans-6e"/>
     </g>
    </g>
   </g>
  </g>
 </g>
 <defs>
  <clipPath id="pc20bb27cc9">
   <rect height="78.268235" width="357.12" x="48.982813" y="10.7"/>
  </clipPath>
  <clipPath id="pdb2fadf586">
   <rect height="78.268235" width="357.12" x="48.982813" y="104.621882"/>
  </clipPath>
  <clipPath id="p2e1be58a98">
   <rect height="78.268235" width="357.12" x="48.982813" y="198.543765"/>
  </clipPath>
 </defs>
</svg>
