<?xml version="1.0" encoding="utf-8" standalone="no"?>
<!DOCTYPE svg PUBLIC "-//W3C//DTD SVG 1.1//EN"
  "http://www.w3.org/Graphics/SVG/1.1/DTD/svg11.dtd">
<!-- Created with matplotlib (http://matplotlib.org/) -->
<svg height="314pt" version="1.1" viewBox="0 0 416 314" width="416pt" xmlns="http://www.w3.org/2000/svg" xmlns:xlink="http://www.w3.org/1999/xlink">
 <defs>
  <style type="text/css">
*{stroke-linecap:butt;stroke-linejoin:round;}
  </style>
 </defs>
 <g id="figure_1">
  <g id="patch_1">
   <path d="M 0 314.36825 
L 416.802812 314.36825 
L 416.802812 0 
L 0 0 
z
" style="fill:#ffffff;"/>
  </g>
  <g id="axes_1">
   <g id="patch_2">
    <path d="M 48.982813 88.968235 
L 406.102813 88.968235 
L 406.102813 10.7 
L 48.982813 10.7 
z
" style="fill:#ffffff;"/>
   </g>
   <g id="matplotlib.axis_1">
    <g id="xtick_1">
     <g id="line2d_1">
      <defs>
       <path d="M 0 0 
L 0 3.5 
" id="m7045ffb6ca" style="stroke:#000000;stroke-width:0.8;"/>
      </defs>
      <g>
       <use style="stroke:#000000;stroke-width:0.8;" x="65.21554" xlink:href="#m7045ffb6ca" y="88.968235"/>
      </g>
     </g>
     <g id="text_1">
      <!-- 0 -->
      <defs>
       <path d="M 31.78125 66.40625 
Q 24.171875 66.40625 20.328125 58.90625 
Q 16.5 51.421875 16.5 36.375 
Q 16.5 21.390625 20.328125 13.890625 
Q 24.171875 6.390625 31.78125 6.390625 
Q 39.453125 6.390625 43.28125 13.890625 
Q 47.125 21.390625 47.125 36.375 
Q 47.125 51.421875 43.28125 58.90625 
Q 39.453125 66.40625 31.78125 66.40625 
z
M 31.78125 74.21875 
Q 44.046875 74.21875 50.515625 64.515625 
Q 56.984375 54.828125 56.984375 36.375 
Q 56.984375 17.96875 50.515625 8.265625 
Q 44.046875 -1.421875 31.78125 -1.421875 
Q 19.53125 -1.421875 13.0625 8.265625 
Q 6.59375 17.96875 6.59375 36.375 
Q 6.59375 54.828125 13.0625 64.515625 
Q 19.53125 74.21875 31.78125 74.21875 
z
" id="DejaVuSans-30"/>
      </defs>
      <g transform="translate(62.03429 103.566673)scale(0.1 -0.1)">
       <use xlink:href="#DejaVuSans-30"/>
      </g>
     </g>
    </g>
    <g id="xtick_2">
     <g id="line2d_2">
      <g>
       <use style="stroke:#000000;stroke-width:0.8;" x="130.802317" xlink:href="#m7045ffb6ca" y="88.968235"/>
      </g>
     </g>
     <g id="text_2">
      <!-- 20 -->
      <defs>
       <path d="M 19.1875 8.296875 
L 53.609375 8.296875 
L 53.609375 0 
L 7.328125 0 
L 7.328125 8.296875 
Q 12.9375 14.109375 22.625 23.890625 
Q 32.328125 33.6875 34.8125 36.53125 
Q 39.546875 41.84375 41.421875 45.53125 
Q 43.3125 49.21875 43.3125 52.78125 
Q 43.3125 58.59375 39.234375 62.25 
Q 35.15625 65.921875 28.609375 65.921875 
Q 23.96875 65.921875 18.8125 64.3125 
Q 13.671875 62.703125 7.8125 59.421875 
L 7.8125 69.390625 
Q 13.765625 71.78125 18.9375 73 
Q 24.125 74.21875 28.421875 74.21875 
Q 39.75 74.21875 46.484375 68.546875 
Q 53.21875 62.890625 53.21875 53.421875 
Q 53.21875 48.921875 51.53125 44.890625 
Q 49.859375 40.875 45.40625 35.40625 
Q 44.1875 33.984375 37.640625 27.21875 
Q 31.109375 20.453125 19.1875 8.296875 
z
" id="DejaVuSans-32"/>
      </defs>
      <g transform="translate(124.439817 103.566673)scale(0.1 -0.1)">
       <use xlink:href="#DejaVuSans-32"/>
       <use x="63.623047" xlink:href="#DejaVuSans-30"/>
      </g>
     </g>
    </g>
    <g id="xtick_3">
     <g id="line2d_3">
      <g>
       <use style="stroke:#000000;stroke-width:0.8;" x="196.389093" xlink:href="#m7045ffb6ca" y="88.968235"/>
      </g>
     </g>
     <g id="text_3">
      <!-- 40 -->
      <defs>
       <path d="M 37.796875 64.3125 
L 12.890625 25.390625 
L 37.796875 25.390625 
z
M 35.203125 72.90625 
L 47.609375 72.90625 
L 47.609375 25.390625 
L 58.015625 25.390625 
L 58.015625 17.1875 
L 47.609375 17.1875 
L 47.609375 0 
L 37.796875 0 
L 37.796875 17.1875 
L 4.890625 17.1875 
L 4.890625 26.703125 
z
" id="DejaVuSans-34"/>
      </defs>
      <g transform="translate(190.026593 103.566673)scale(0.1 -0.1)">
       <use xlink:href="#DejaVuSans-34"/>
       <use x="63.623047" xlink:href="#DejaVuSans-30"/>
      </g>
     </g>
    </g>
    <g id="xtick_4">
     <g id="line2d_4">
      <g>
       <use style="stroke:#000000;stroke-width:0.8;" x="261.97587" xlink:href="#m7045ffb6ca" y="88.968235"/>
      </g>
     </g>
     <g id="text_4">
      <!-- 60 -->
      <defs>
       <path d="M 33.015625 40.375 
Q 26.375 40.375 22.484375 35.828125 
Q 18.609375 31.296875 18.609375 23.390625 
Q 18.609375 15.53125 22.484375 10.953125 
Q 26.375 6.390625 33.015625 6.390625 
Q 39.65625 6.390625 43.53125 10.953125 
Q 47.40625 15.53125 47.40625 23.390625 
Q 47.40625 31.296875 43.53125 35.828125 
Q 39.65625 40.375 33.015625 40.375 
z
M 52.59375 71.296875 
L 52.59375 62.3125 
Q 48.875 64.0625 45.09375 64.984375 
Q 41.3125 65.921875 37.59375 65.921875 
Q 27.828125 65.921875 22.671875 59.328125 
Q 17.53125 52.734375 16.796875 39.40625 
Q 19.671875 43.65625 24.015625 45.921875 
Q 28.375 48.1875 33.59375 48.1875 
Q 44.578125 48.1875 50.953125 41.515625 
Q 57.328125 34.859375 57.328125 23.390625 
Q 57.328125 12.15625 50.6875 5.359375 
Q 44.046875 -1.421875 33.015625 -1.421875 
Q 20.359375 -1.421875 13.671875 8.265625 
Q 6.984375 17.96875 6.984375 36.375 
Q 6.984375 53.65625 15.1875 63.9375 
Q 23.390625 74.21875 37.203125 74.21875 
Q 40.921875 74.21875 44.703125 73.484375 
Q 48.484375 72.75 52.59375 71.296875 
z
" id="DejaVuSans-36"/>
      </defs>
      <g transform="translate(255.61337 103.566673)scale(0.1 -0.1)">
       <use xlink:href="#DejaVuSans-36"/>
       <use x="63.623047" xlink:href="#DejaVuSans-30"/>
      </g>
     </g>
    </g>
    <g id="xtick_5">
     <g id="line2d_5">
      <g>
       <use style="stroke:#000000;stroke-width:0.8;" x="327.562647" xlink:href="#m7045ffb6ca" y="88.968235"/>
      </g>
     </g>
     <g id="text_5">
      <!-- 80 -->
      <defs>
       <path d="M 31.78125 34.625 
Q 24.75 34.625 20.71875 30.859375 
Q 16.703125 27.09375 16.703125 20.515625 
Q 16.703125 13.921875 20.71875 10.15625 
Q 24.75 6.390625 31.78125 6.390625 
Q 38.8125 6.390625 42.859375 10.171875 
Q 46.921875 13.96875 46.921875 20.515625 
Q 46.921875 27.09375 42.890625 30.859375 
Q 38.875 34.625 31.78125 34.625 
z
M 21.921875 38.8125 
Q 15.578125 40.375 12.03125 44.71875 
Q 8.5 49.078125 8.5 55.328125 
Q 8.5 64.0625 14.71875 69.140625 
Q 20.953125 74.21875 31.78125 74.21875 
Q 42.671875 74.21875 48.875 69.140625 
Q 55.078125 64.0625 55.078125 55.328125 
Q 55.078125 49.078125 51.53125 44.71875 
Q 48 40.375 41.703125 38.8125 
Q 48.828125 37.15625 52.796875 32.3125 
Q 56.78125 27.484375 56.78125 20.515625 
Q 56.78125 9.90625 50.3125 4.234375 
Q 43.84375 -1.421875 31.78125 -1.421875 
Q 19.734375 -1.421875 13.25 4.234375 
Q 6.78125 9.90625 6.78125 20.515625 
Q 6.78125 27.484375 10.78125 32.3125 
Q 14.796875 37.15625 21.921875 38.8125 
z
M 18.3125 54.390625 
Q 18.3125 48.734375 21.84375 45.5625 
Q 25.390625 42.390625 31.78125 42.390625 
Q 38.140625 42.390625 41.71875 45.5625 
Q 45.3125 48.734375 45.3125 54.390625 
Q 45.3125 60.0625 41.71875 63.234375 
Q 38.140625 66.40625 31.78125 66.40625 
Q 25.390625 66.40625 21.84375 63.234375 
Q 18.3125 60.0625 18.3125 54.390625 
z
" id="DejaVuSans-38"/>
      </defs>
      <g transform="translate(321.200147 103.566673)scale(0.1 -0.1)">
       <use xlink:href="#DejaVuSans-38"/>
       <use x="63.623047" xlink:href="#DejaVuSans-30"/>
      </g>
     </g>
    </g>
    <g id="xtick_6">
     <g id="line2d_6">
      <g>
       <use style="stroke:#000000;stroke-width:0.8;" x="393.149424" xlink:href="#m7045ffb6ca" y="88.968235"/>
      </g>
     </g>
     <g id="text_6">
      <!-- 100 -->
      <defs>
       <path d="M 12.40625 8.296875 
L 28.515625 8.296875 
L 28.515625 63.921875 
L 10.984375 60.40625 
L 10.984375 69.390625 
L 28.421875 72.90625 
L 38.28125 72.90625 
L 38.28125 8.296875 
L 54.390625 8.296875 
L 54.390625 0 
L 12.40625 0 
z
" id="DejaVuSans-31"/>
      </defs>
      <g transform="translate(383.605674 103.566673)scale(0.1 -0.1)">
       <use xlink:href="#DejaVuSans-31"/>
       <use x="63.623047" xlink:href="#DejaVuSans-30"/>
       <use x="127.246094" xlink:href="#DejaVuSans-30"/>
      </g>
     </g>
    </g>
    <g id="text_7">
     <!-- Time -->
     <defs>
      <path d="M -0.296875 72.90625 
L 61.375 72.90625 
L 61.375 64.59375 
L 35.5 64.59375 
L 35.5 0 
L 25.59375 0 
L 25.59375 64.59375 
L -0.296875 64.59375 
z
" id="DejaVuSans-54"/>
      <path d="M 9.421875 54.6875 
L 18.40625 54.6875 
L 18.40625 0 
L 9.421875 0 
z
M 9.421875 75.984375 
L 18.40625 75.984375 
L 18.40625 64.59375 
L 9.421875 64.59375 
z
" id="DejaVuSans-69"/>
      <path d="M 52 44.1875 
Q 55.375 50.25 60.0625 53.125 
Q 64.75 56 71.09375 56 
Q 79.640625 56 84.28125 50.015625 
Q 88.921875 44.046875 88.921875 33.015625 
L 88.921875 0 
L 79.890625 0 
L 79.890625 32.71875 
Q 79.890625 40.578125 77.09375 44.375 
Q 74.3125 48.1875 68.609375 48.1875 
Q 61.625 48.1875 57.5625 43.546875 
Q 53.515625 38.921875 53.515625 30.90625 
L 53.515625 0 
L 44.484375 0 
L 44.484375 32.71875 
Q 44.484375 40.625 41.703125 44.40625 
Q 38.921875 48.1875 33.109375 48.1875 
Q 26.21875 48.1875 22.15625 43.53125 
Q 18.109375 38.875 18.109375 30.90625 
L 18.109375 0 
L 9.078125 0 
L 9.078125 54.6875 
L 18.109375 54.6875 
L 18.109375 46.1875 
Q 21.1875 51.21875 25.484375 53.609375 
Q 29.78125 56 35.6875 56 
Q 41.65625 56 45.828125 52.96875 
Q 50 49.953125 52 44.1875 
z
" id="DejaVuSans-6d"/>
      <path d="M 56.203125 29.59375 
L 56.203125 25.203125 
L 14.890625 25.203125 
Q 15.484375 15.921875 20.484375 11.0625 
Q 25.484375 6.203125 34.421875 6.203125 
Q 39.59375 6.203125 44.453125 7.46875 
Q 49.3125 8.734375 54.109375 11.28125 
L 54.109375 2.78125 
Q 49.265625 0.734375 44.1875 -0.34375 
Q 39.109375 -1.421875 33.890625 -1.421875 
Q 20.796875 -1.421875 13.15625 6.1875 
Q 5.515625 13.8125 5.515625 26.8125 
Q 5.515625 40.234375 12.765625 48.109375 
Q 20.015625 56 32.328125 56 
Q 43.359375 56 49.78125 48.890625 
Q 56.203125 41.796875 56.203125 29.59375 
z
M 47.21875 32.234375 
Q 47.125 39.59375 43.09375 43.984375 
Q 39.0625 48.390625 32.421875 48.390625 
Q 24.90625 48.390625 20.390625 44.140625 
Q 15.875 39.890625 15.1875 32.171875 
z
" id="DejaVuSans-65"/>
     </defs>
     <g transform="translate(215.155313 117.244798)scale(0.1 -0.1)">
      <use xlink:href="#DejaVuSans-54"/>
      <use x="61.037109" xlink:href="#DejaVuSans-69"/>
      <use x="88.820312" xlink:href="#DejaVuSans-6d"/>
      <use x="186.232422" xlink:href="#DejaVuSans-65"/>
     </g>
    </g>
   </g>
   <g id="matplotlib.axis_2">
    <g id="ytick_1">
     <g id="line2d_7">
      <defs>
       <path d="M 0 0 
L -3.5 0 
" id="mfa066e1ea1" style="stroke:#000000;stroke-width:0.8;"/>
      </defs>
      <g>
       <use style="stroke:#000000;stroke-width:0.8;" x="48.982813" xlink:href="#mfa066e1ea1" y="63.933926"/>
      </g>
     </g>
     <g id="text_8">
      <!-- −10 -->
      <defs>
       <path d="M 10.59375 35.5 
L 73.1875 35.5 
L 73.1875 27.203125 
L 10.59375 27.203125 
z
" id="DejaVuSans-2212"/>
      </defs>
      <g transform="translate(20.878125 67.733144)scale(0.1 -0.1)">
       <use xlink:href="#DejaVuSans-2212"/>
       <use x="83.789062" xlink:href="#DejaVuSans-31"/>
       <use x="147.412109" xlink:href="#DejaVuSans-30"/>
      </g>
     </g>
    </g>
    <g id="ytick_2">
     <g id="line2d_8">
      <g>
       <use style="stroke:#000000;stroke-width:0.8;" x="48.982813" xlink:href="#mfa066e1ea1" y="14.285582"/>
      </g>
     </g>
     <g id="text_9">
      <!-- 0 -->
      <g transform="translate(35.620313 18.0848)scale(0.1 -0.1)">
       <use xlink:href="#DejaVuSans-30"/>
      </g>
     </g>
    </g>
    <g id="text_10">
     <!-- x -->
     <defs>
      <path d="M 54.890625 54.6875 
L 35.109375 28.078125 
L 55.90625 0 
L 45.3125 0 
L 29.390625 21.484375 
L 13.484375 0 
L 2.875 0 
L 24.125 28.609375 
L 4.6875 54.6875 
L 15.28125 54.6875 
L 29.78125 35.203125 
L 44.28125 54.6875 
z
" id="DejaVuSans-78"/>
     </defs>
     <g transform="translate(14.798438 52.793493)rotate(-90)scale(0.1 -0.1)">
      <use xlink:href="#DejaVuSans-78"/>
     </g>
    </g>
   </g>
   <g id="line2d_9">
    <path clip-path="url(#p236aafa84a)" d="M 65.21554 14.285582 
L 68.494879 14.257647 
L 71.774217 14.275636 
L 75.053556 14.338576 
L 78.332895 14.446115 
L 81.612234 14.56526 
L 84.891573 14.712289 
L 88.170912 14.907859 
L 91.450251 15.123499 
L 94.729589 15.347006 
L 98.008928 15.583055 
L 101.288267 15.840247 
L 104.567606 16.102914 
L 107.846945 16.370511 
L 111.126284 16.649911 
L 114.405622 16.92906 
L 117.684961 17.219197 
L 120.9643 17.558083 
L 124.243639 17.950682 
L 127.522978 18.352471 
L 130.802317 18.730758 
L 134.081655 19.133475 
L 137.360994 19.593036 
L 140.640333 20.072099 
L 143.919672 20.512619 
L 147.199011 20.938617 
L 150.47835 21.4071 
L 153.757689 21.886384 
L 157.037027 22.355717 
L 160.316366 22.835174 
L 163.595705 23.356872 
L 166.875044 23.890502 
L 170.154383 24.442421 
L 173.433722 25.009505 
L 176.71306 25.598402 
L 179.992399 26.191244 
L 183.271738 26.796233 
L 186.551077 27.414929 
L 189.830416 28.040287 
L 193.109755 28.681658 
L 196.389093 29.378678 
L 199.668432 30.044197 
L 202.947771 30.680895 
L 206.22711 31.327209 
L 209.506449 31.996961 
L 212.785788 32.645539 
L 216.065127 33.286262 
L 219.344465 33.925971 
L 222.623804 34.588838 
L 225.903143 35.273576 
L 229.182482 35.967859 
L 232.461821 36.661839 
L 235.74116 37.372495 
L 239.020498 38.070003 
L 242.299837 38.794541 
L 245.579176 39.552196 
L 248.858515 40.313259 
L 252.137854 41.100506 
L 255.417193 41.934476 
L 258.696532 42.753574 
L 261.97587 43.582606 
L 265.255209 44.464454 
L 268.534548 45.388737 
L 271.813887 46.373762 
L 275.093226 47.462798 
L 278.372565 48.602302 
L 281.651903 49.813658 
L 284.931242 51.092769 
L 288.210581 52.408475 
L 291.48992 53.746848 
L 294.769259 55.105447 
L 298.048598 56.459188 
L 301.327936 57.759298 
L 304.607275 58.972301 
L 307.886614 60.094126 
L 311.165953 61.18168 
L 314.445292 62.281781 
L 317.724631 63.287498 
L 321.00397 64.219597 
L 324.283308 65.143619 
L 327.562647 66.073579 
L 330.841986 66.969419 
L 334.121325 67.861869 
L 337.400664 68.72288 
L 340.680003 69.562698 
L 343.959341 70.395972 
L 347.23868 71.230931 
L 350.518019 72.035494 
L 353.797358 72.830416 
L 357.076697 73.638557 
L 360.356036 74.457049 
L 363.635374 75.242378 
L 366.914713 76.021543 
L 370.194052 76.85745 
L 373.473391 77.716188 
L 376.75273 78.585144 
L 380.032069 79.487423 
L 383.311408 80.434788 
L 386.590746 81.381689 
L 389.870085 82.306061 
" style="fill:none;stroke:#ff0000;stroke-linecap:square;stroke-width:1.5;"/>
    <defs>
     <path d="M 0 2.5 
C 0.663008 2.5 1.29895 2.236584 1.767767 1.767767 
C 2.236584 1.29895 2.5 0.663008 2.5 0 
C 2.5 -0.663008 2.236584 -1.29895 1.767767 -1.767767 
C 1.29895 -2.236584 0.663008 -2.5 0 -2.5 
C -0.663008 -2.5 -1.29895 -2.236584 -1.767767 -1.767767 
C -2.236584 -1.29895 -2.5 -0.663008 -2.5 0 
C -2.5 0.663008 -2.236584 1.29895 -1.767767 1.767767 
C -1.29895 2.236584 -0.663008 2.5 0 2.5 
z
" id="m5a59f2c058" style="stroke:#ff0000;"/>
    </defs>
    <g clip-path="url(#p236aafa84a)">
     <use style="fill:#ff0000;stroke:#ff0000;" x="65.21554" xlink:href="#m5a59f2c058" y="14.285582"/>
     <use style="fill:#ff0000;stroke:#ff0000;" x="98.008928" xlink:href="#m5a59f2c058" y="15.583055"/>
     <use style="fill:#ff0000;stroke:#ff0000;" x="130.802317" xlink:href="#m5a59f2c058" y="18.730758"/>
     <use style="fill:#ff0000;stroke:#ff0000;" x="163.595705" xlink:href="#m5a59f2c058" y="23.356872"/>
     <use style="fill:#ff0000;stroke:#ff0000;" x="196.389093" xlink:href="#m5a59f2c058" y="29.378678"/>
     <use style="fill:#ff0000;stroke:#ff0000;" x="229.182482" xlink:href="#m5a59f2c058" y="35.967859"/>
     <use style="fill:#ff0000;stroke:#ff0000;" x="261.97587" xlink:href="#m5a59f2c058" y="43.582606"/>
     <use style="fill:#ff0000;stroke:#ff0000;" x="294.769259" xlink:href="#m5a59f2c058" y="55.105447"/>
     <use style="fill:#ff0000;stroke:#ff0000;" x="327.562647" xlink:href="#m5a59f2c058" y="66.073579"/>
     <use style="fill:#ff0000;stroke:#ff0000;" x="360.356036" xlink:href="#m5a59f2c058" y="74.457049"/>
    </g>
   </g>
   <g id="line2d_10">
    <path clip-path="url(#p236aafa84a)" d="M 65.21554 14.285582 
L 68.494879 14.299 
L 71.774217 14.309868 
L 75.053556 14.337308 
L 78.332895 14.387451 
L 81.612234 14.476134 
L 84.891573 14.599166 
L 88.170912 14.78521 
L 91.450251 15.010293 
L 94.729589 15.244468 
L 98.008928 15.484391 
L 101.288267 15.735684 
L 104.567606 15.993997 
L 107.846945 16.267946 
L 111.126284 16.58626 
L 114.405622 16.900266 
L 117.684961 17.240052 
L 120.9643 17.623557 
L 124.243639 18.035521 
L 127.522978 18.470854 
L 130.802317 18.891401 
L 134.081655 19.312061 
L 137.360994 19.79537 
L 140.640333 20.269912 
L 143.919672 20.725313 
L 147.199011 21.159716 
L 150.47835 21.607367 
L 153.757689 22.065357 
L 157.037027 22.534428 
L 160.316366 23.036629 
L 163.595705 23.565136 
L 166.875044 24.139896 
L 170.154383 24.732097 
L 173.433722 25.339749 
L 176.71306 25.954471 
L 179.992399 26.588511 
L 183.271738 27.234793 
L 186.551077 27.90895 
L 189.830416 28.603002 
L 193.109755 29.336617 
L 196.389093 30.080257 
L 199.668432 30.8026 
L 202.947771 31.510488 
L 206.22711 32.236587 
L 209.506449 32.952846 
L 212.785788 33.652999 
L 216.065127 34.347975 
L 219.344465 35.05584 
L 222.623804 35.778227 
L 225.903143 36.528535 
L 229.182482 37.295332 
L 232.461821 38.041617 
L 235.74116 38.789532 
L 239.020498 39.539402 
L 242.299837 40.315039 
L 245.579176 41.088264 
L 248.858515 41.835882 
L 252.137854 42.645579 
L 255.417193 43.523749 
L 258.696532 44.405177 
L 261.97587 45.245321 
L 265.255209 46.128183 
L 268.534548 46.986372 
L 271.813887 47.94149 
L 275.093226 49.043404 
L 278.372565 50.199092 
L 281.651903 51.39072 
L 284.931242 52.683633 
L 288.210581 54.023092 
L 291.48992 55.42858 
L 294.769259 56.862336 
L 298.048598 58.253104 
L 301.327936 59.5656 
L 304.607275 60.826913 
L 307.886614 61.970494 
L 311.165953 63.122673 
L 314.445292 64.241837 
L 317.724631 65.32377 
L 321.00397 66.321031 
L 324.283308 67.298717 
L 327.562647 68.268738 
L 330.841986 69.18312 
L 334.121325 70.139552 
L 337.400664 71.037802 
L 340.680003 71.927426 
L 343.959341 72.835079 
L 347.23868 73.745299 
L 350.518019 74.637475 
L 353.797358 75.505564 
L 357.076697 76.381703 
L 360.356036 77.229376 
L 363.635374 78.050718 
L 366.914713 78.860687 
L 370.194052 79.726646 
L 373.473391 80.604044 
L 376.75273 81.50407 
L 380.032069 82.460616 
L 383.311408 83.453203 
L 386.590746 84.434033 
L 389.870085 85.410588 
" style="fill:none;stroke:#0000ff;stroke-linecap:square;stroke-width:1.5;"/>
    <defs>
     <path d="M 0 2.5 
C 0.663008 2.5 1.29895 2.236584 1.767767 1.767767 
C 2.236584 1.29895 2.5 0.663008 2.5 0 
C 2.5 -0.663008 2.236584 -1.29895 1.767767 -1.767767 
C 1.29895 -2.236584 0.663008 -2.5 0 -2.5 
C -0.663008 -2.5 -1.29895 -2.236584 -1.767767 -1.767767 
C -2.236584 -1.29895 -2.5 -0.663008 -2.5 0 
C -2.5 0.663008 -2.236584 1.29895 -1.767767 1.767767 
C -1.29895 2.236584 -0.663008 2.5 0 2.5 
z
" id="m392350b08c" style="stroke:#0000ff;"/>
    </defs>
    <g clip-path="url(#p236aafa84a)">
     <use style="fill:#0000ff;stroke:#0000ff;" x="65.21554" xlink:href="#m392350b08c" y="14.285582"/>
     <use style="fill:#0000ff;stroke:#0000ff;" x="98.008928" xlink:href="#m392350b08c" y="15.484391"/>
     <use style="fill:#0000ff;stroke:#0000ff;" x="130.802317" xlink:href="#m392350b08c" y="18.891401"/>
     <use style="fill:#0000ff;stroke:#0000ff;" x="163.595705" xlink:href="#m392350b08c" y="23.565136"/>
     <use style="fill:#0000ff;stroke:#0000ff;" x="196.389093" xlink:href="#m392350b08c" y="30.080257"/>
     <use style="fill:#0000ff;stroke:#0000ff;" x="229.182482" xlink:href="#m392350b08c" y="37.295332"/>
     <use style="fill:#0000ff;stroke:#0000ff;" x="261.97587" xlink:href="#m392350b08c" y="45.245321"/>
     <use style="fill:#0000ff;stroke:#0000ff;" x="294.769259" xlink:href="#m392350b08c" y="56.862336"/>
     <use style="fill:#0000ff;stroke:#0000ff;" x="327.562647" xlink:href="#m392350b08c" y="68.268738"/>
     <use style="fill:#0000ff;stroke:#0000ff;" x="360.356036" xlink:href="#m392350b08c" y="77.229376"/>
    </g>
   </g>
   <g id="patch_3">
    <path d="M 48.982813 88.968235 
L 48.982813 10.7 
" style="fill:none;stroke:#000000;stroke-linecap:square;stroke-linejoin:miter;stroke-width:0.8;"/>
   </g>
   <g id="patch_4">
    <path d="M 406.102813 88.968235 
L 406.102813 10.7 
" style="fill:none;stroke:#000000;stroke-linecap:square;stroke-linejoin:miter;stroke-width:0.8;"/>
   </g>
   <g id="patch_5">
    <path d="M 48.982813 88.968235 
L 406.102813 88.968235 
" style="fill:none;stroke:#000000;stroke-linecap:square;stroke-linejoin:miter;stroke-width:0.8;"/>
   </g>
   <g id="patch_6">
    <path d="M 48.982813 10.7 
L 406.102813 10.7 
" style="fill:none;stroke:#000000;stroke-linecap:square;stroke-linejoin:miter;stroke-width:0.8;"/>
   </g>
  </g>
  <g id="axes_2">
   <g id="patch_7">
    <path d="M 48.982813 182.890118 
L 406.102813 182.890118 
L 406.102813 104.621882 
L 48.982813 104.621882 
z
" style="fill:#ffffff;"/>
   </g>
   <g id="matplotlib.axis_3">
    <g id="xtick_7">
     <g id="line2d_11">
      <g>
       <use style="stroke:#000000;stroke-width:0.8;" x="65.21554" xlink:href="#m7045ffb6ca" y="182.890118"/>
      </g>
     </g>
     <g id="text_11">
      <!-- 0 -->
      <g transform="translate(62.03429 197.488555)scale(0.1 -0.1)">
       <use xlink:href="#DejaVuSans-30"/>
      </g>
     </g>
    </g>
    <g id="xtick_8">
     <g id="line2d_12">
      <g>
       <use style="stroke:#000000;stroke-width:0.8;" x="130.802317" xlink:href="#m7045ffb6ca" y="182.890118"/>
      </g>
     </g>
     <g id="text_12">
      <!-- 20 -->
      <g transform="translate(124.439817 197.488555)scale(0.1 -0.1)">
       <use xlink:href="#DejaVuSans-32"/>
       <use x="63.623047" xlink:href="#DejaVuSans-30"/>
      </g>
     </g>
    </g>
    <g id="xtick_9">
     <g id="line2d_13">
      <g>
       <use style="stroke:#000000;stroke-width:0.8;" x="196.389093" xlink:href="#m7045ffb6ca" y="182.890118"/>
      </g>
     </g>
     <g id="text_13">
      <!-- 40 -->
      <g transform="translate(190.026593 197.488555)scale(0.1 -0.1)">
       <use xlink:href="#DejaVuSans-34"/>
       <use x="63.623047" xlink:href="#DejaVuSans-30"/>
      </g>
     </g>
    </g>
    <g id="xtick_10">
     <g id="line2d_14">
      <g>
       <use style="stroke:#000000;stroke-width:0.8;" x="261.97587" xlink:href="#m7045ffb6ca" y="182.890118"/>
      </g>
     </g>
     <g id="text_14">
      <!-- 60 -->
      <g transform="translate(255.61337 197.488555)scale(0.1 -0.1)">
       <use xlink:href="#DejaVuSans-36"/>
       <use x="63.623047" xlink:href="#DejaVuSans-30"/>
      </g>
     </g>
    </g>
    <g id="xtick_11">
     <g id="line2d_15">
      <g>
       <use style="stroke:#000000;stroke-width:0.8;" x="327.562647" xlink:href="#m7045ffb6ca" y="182.890118"/>
      </g>
     </g>
     <g id="text_15">
      <!-- 80 -->
      <g transform="translate(321.200147 197.488555)scale(0.1 -0.1)">
       <use xlink:href="#DejaVuSans-38"/>
       <use x="63.623047" xlink:href="#DejaVuSans-30"/>
      </g>
     </g>
    </g>
    <g id="xtick_12">
     <g id="line2d_16">
      <g>
       <use style="stroke:#000000;stroke-width:0.8;" x="393.149424" xlink:href="#m7045ffb6ca" y="182.890118"/>
      </g>
     </g>
     <g id="text_16">
      <!-- 100 -->
      <g transform="translate(383.605674 197.488555)scale(0.1 -0.1)">
       <use xlink:href="#DejaVuSans-31"/>
       <use x="63.623047" xlink:href="#DejaVuSans-30"/>
       <use x="127.246094" xlink:href="#DejaVuSans-30"/>
      </g>
     </g>
    </g>
    <g id="text_17">
     <!-- Time -->
     <g transform="translate(215.155313 211.16668)scale(0.1 -0.1)">
      <use xlink:href="#DejaVuSans-54"/>
      <use x="61.037109" xlink:href="#DejaVuSans-69"/>
      <use x="88.820312" xlink:href="#DejaVuSans-6d"/>
      <use x="186.232422" xlink:href="#DejaVuSans-65"/>
     </g>
    </g>
   </g>
   <g id="matplotlib.axis_4">
    <g id="ytick_3">
     <g id="line2d_17">
      <g>
       <use style="stroke:#000000;stroke-width:0.8;" x="48.982813" xlink:href="#mfa066e1ea1" y="151.658788"/>
      </g>
     </g>
     <g id="text_18">
      <!-- −1 -->
      <g transform="translate(27.240625 155.458007)scale(0.1 -0.1)">
       <use xlink:href="#DejaVuSans-2212"/>
       <use x="83.789062" xlink:href="#DejaVuSans-31"/>
      </g>
     </g>
    </g>
    <g id="ytick_4">
     <g id="line2d_18">
      <g>
       <use style="stroke:#000000;stroke-width:0.8;" x="48.982813" xlink:href="#mfa066e1ea1" y="108.179529"/>
      </g>
     </g>
     <g id="text_19">
      <!-- 0 -->
      <g transform="translate(35.620313 111.978748)scale(0.1 -0.1)">
       <use xlink:href="#DejaVuSans-30"/>
      </g>
     </g>
    </g>
    <g id="text_20">
     <!-- y -->
     <defs>
      <path d="M 32.171875 -5.078125 
Q 28.375 -14.84375 24.75 -17.8125 
Q 21.140625 -20.796875 15.09375 -20.796875 
L 7.90625 -20.796875 
L 7.90625 -13.28125 
L 13.1875 -13.28125 
Q 16.890625 -13.28125 18.9375 -11.515625 
Q 21 -9.765625 23.484375 -3.21875 
L 25.09375 0.875 
L 2.984375 54.6875 
L 12.5 54.6875 
L 29.59375 11.921875 
L 46.6875 54.6875 
L 56.203125 54.6875 
z
" id="DejaVuSans-79"/>
     </defs>
     <g transform="translate(21.160938 146.715375)rotate(-90)scale(0.1 -0.1)">
      <use xlink:href="#DejaVuSans-79"/>
     </g>
    </g>
   </g>
   <g id="line2d_19">
    <path clip-path="url(#p17845019df)" d="M 65.21554 108.179529 
L 68.494879 109.155369 
L 71.774217 109.930201 
L 75.053556 110.80575 
L 78.332895 111.346475 
L 81.612234 111.691377 
L 84.891573 112.168692 
L 88.170912 112.791497 
L 91.450251 112.981477 
L 94.729589 113.415434 
L 98.008928 114.177198 
L 101.288267 114.829753 
L 104.567606 115.600212 
L 107.846945 116.496163 
L 111.126284 117.230727 
L 114.405622 117.725706 
L 117.684961 118.038216 
L 120.9643 118.235129 
L 124.243639 118.545298 
L 127.522978 118.514076 
L 130.802317 118.80829 
L 134.081655 119.033979 
L 137.360994 119.337153 
L 140.640333 119.807639 
L 143.919672 120.331802 
L 147.199011 120.52401 
L 150.47835 120.638057 
L 153.757689 120.832818 
L 157.037027 120.732706 
L 160.316366 120.538164 
L 163.595705 120.481443 
L 166.875044 120.673167 
L 170.154383 120.64396 
L 173.433722 120.743425 
L 176.71306 121.014988 
L 179.992399 121.371535 
L 183.271738 121.528244 
L 186.551077 121.373561 
L 189.830416 121.186939 
L 193.109755 120.738606 
L 196.389093 120.613703 
L 199.668432 120.190335 
L 202.947771 119.745312 
L 206.22711 119.526087 
L 209.506449 119.745011 
L 212.785788 119.749353 
L 216.065127 119.805726 
L 219.344465 120.116555 
L 222.623804 120.261114 
L 225.903143 120.161636 
L 229.182482 119.955203 
L 232.461821 119.855567 
L 235.74116 119.573046 
L 239.020498 119.086279 
L 242.299837 118.406285 
L 245.579176 118.088176 
L 248.858515 117.308013 
L 252.137854 116.657122 
L 255.417193 115.920851 
L 258.696532 115.553254 
L 261.97587 115.185082 
L 265.255209 115.056955 
L 268.534548 114.927214 
L 271.813887 114.624433 
L 275.093226 114.373597 
L 278.372565 113.964828 
L 281.651903 113.707832 
L 284.931242 113.334089 
L 288.210581 112.902632 
L 291.48992 112.38315 
L 294.769259 111.958538 
L 298.048598 111.95782 
L 301.327936 111.790894 
L 304.607275 111.710102 
L 307.886614 111.489526 
L 311.165953 111.476413 
L 314.445292 111.69857 
L 317.724631 111.734199 
L 321.00397 111.74719 
L 324.283308 111.954982 
L 327.562647 112.267945 
L 330.841986 112.446822 
L 334.121325 112.47526 
L 337.400664 112.56224 
L 340.680003 112.28691 
L 343.959341 112.075399 
L 347.23868 112.031552 
L 350.518019 112.059396 
L 353.797358 111.9158 
L 357.076697 111.97029 
L 360.356036 112.55848 
L 363.635374 112.956946 
L 366.914713 113.412572 
L 370.194052 114.007847 
L 373.473391 114.541448 
L 376.75273 115.044025 
L 380.032069 115.599009 
L 383.311408 116.497253 
L 386.590746 117.087472 
L 389.870085 117.92949 
" style="fill:none;stroke:#ff0000;stroke-linecap:square;stroke-width:1.5;"/>
    <g clip-path="url(#p17845019df)">
     <use style="fill:#ff0000;stroke:#ff0000;" x="65.21554" xlink:href="#m5a59f2c058" y="108.179529"/>
     <use style="fill:#ff0000;stroke:#ff0000;" x="98.008928" xlink:href="#m5a59f2c058" y="114.177198"/>
     <use style="fill:#ff0000;stroke:#ff0000;" x="130.802317" xlink:href="#m5a59f2c058" y="118.80829"/>
     <use style="fill:#ff0000;stroke:#ff0000;" x="163.595705" xlink:href="#m5a59f2c058" y="120.481443"/>
     <use style="fill:#ff0000;stroke:#ff0000;" x="196.389093" xlink:href="#m5a59f2c058" y="120.613703"/>
     <use style="fill:#ff0000;stroke:#ff0000;" x="229.182482" xlink:href="#m5a59f2c058" y="119.955203"/>
     <use style="fill:#ff0000;stroke:#ff0000;" x="261.97587" xlink:href="#m5a59f2c058" y="115.185082"/>
     <use style="fill:#ff0000;stroke:#ff0000;" x="294.769259" xlink:href="#m5a59f2c058" y="111.958538"/>
     <use style="fill:#ff0000;stroke:#ff0000;" x="327.562647" xlink:href="#m5a59f2c058" y="112.267945"/>
     <use style="fill:#ff0000;stroke:#ff0000;" x="360.356036" xlink:href="#m5a59f2c058" y="112.55848"/>
    </g>
   </g>
   <g id="line2d_20">
    <path clip-path="url(#p17845019df)" d="M 65.21554 108.179529 
L 68.494879 108.656075 
L 71.774217 109.045896 
L 75.053556 109.424092 
L 78.332895 109.757162 
L 81.612234 109.829625 
L 84.891573 109.839575 
L 88.170912 110.044106 
L 91.450251 110.269874 
L 94.729589 110.685096 
L 98.008928 111.201467 
L 101.288267 111.78595 
L 104.567606 112.446198 
L 107.846945 113.179272 
L 111.126284 113.918052 
L 114.405622 114.559975 
L 117.684961 115.211768 
L 120.9643 115.846412 
L 124.243639 116.434533 
L 127.522978 117.016408 
L 130.802317 117.528529 
L 134.081655 118.136365 
L 137.360994 118.959321 
L 140.640333 120.150981 
L 143.919672 121.389308 
L 147.199011 122.303401 
L 150.47835 122.770523 
L 153.757689 123.192047 
L 157.037027 123.537392 
L 160.316366 123.706841 
L 163.595705 123.874641 
L 166.875044 124.281829 
L 170.154383 124.860707 
L 173.433722 125.455233 
L 176.71306 126.078347 
L 179.992399 126.459836 
L 183.271738 126.767864 
L 186.551077 126.990455 
L 189.830416 126.972284 
L 193.109755 126.677046 
L 196.389093 126.322589 
L 199.668432 126.085185 
L 202.947771 126.335383 
L 206.22711 126.799681 
L 209.506449 127.408376 
L 212.785788 127.840339 
L 216.065127 128.136952 
L 219.344465 128.517702 
L 222.623804 128.902909 
L 225.903143 129.231732 
L 229.182482 129.515791 
L 232.461821 129.73115 
L 235.74116 130.049489 
L 239.020498 130.343579 
L 242.299837 130.647184 
L 245.579176 130.958519 
L 248.858515 131.217634 
L 252.137854 131.328442 
L 255.417193 131.635781 
L 258.696532 132.126302 
L 261.97587 132.856377 
L 265.255209 133.604842 
L 268.534548 134.327941 
L 271.813887 135.029584 
L 275.093226 135.75134 
L 278.372565 136.552204 
L 281.651903 137.411736 
L 284.931242 138.188464 
L 288.210581 139.172984 
L 291.48992 140.090067 
L 294.769259 140.982312 
L 298.048598 141.986069 
L 301.327936 142.989309 
L 304.607275 144.109046 
L 307.886614 145.319839 
L 311.165953 146.673245 
L 314.445292 148.013082 
L 317.724631 149.333119 
L 321.00397 150.518237 
L 324.283308 151.651488 
L 327.562647 152.813999 
L 330.841986 154.002103 
L 334.121325 155.057585 
L 337.400664 156.156404 
L 340.680003 157.036572 
L 343.959341 157.806329 
L 347.23868 158.689359 
L 350.518019 159.817172 
L 353.797358 161.485363 
L 357.076697 163.261694 
L 360.356036 165.117779 
L 363.635374 166.851189 
L 366.914713 168.64575 
L 370.194052 170.355681 
L 373.473391 171.896175 
L 376.75273 173.264708 
L 380.032069 174.728445 
L 383.311408 176.26542 
L 386.590746 177.844176 
L 389.870085 179.332471 
" style="fill:none;stroke:#0000ff;stroke-linecap:square;stroke-width:1.5;"/>
    <g clip-path="url(#p17845019df)">
     <use style="fill:#0000ff;stroke:#0000ff;" x="65.21554" xlink:href="#m392350b08c" y="108.179529"/>
     <use style="fill:#0000ff;stroke:#0000ff;" x="98.008928" xlink:href="#m392350b08c" y="111.201467"/>
     <use style="fill:#0000ff;stroke:#0000ff;" x="130.802317" xlink:href="#m392350b08c" y="117.528529"/>
     <use style="fill:#0000ff;stroke:#0000ff;" x="163.595705" xlink:href="#m392350b08c" y="123.874641"/>
     <use style="fill:#0000ff;stroke:#0000ff;" x="196.389093" xlink:href="#m392350b08c" y="126.322589"/>
     <use style="fill:#0000ff;stroke:#0000ff;" x="229.182482" xlink:href="#m392350b08c" y="129.515791"/>
     <use style="fill:#0000ff;stroke:#0000ff;" x="261.97587" xlink:href="#m392350b08c" y="132.856377"/>
     <use style="fill:#0000ff;stroke:#0000ff;" x="294.769259" xlink:href="#m392350b08c" y="140.982312"/>
     <use style="fill:#0000ff;stroke:#0000ff;" x="327.562647" xlink:href="#m392350b08c" y="152.813999"/>
     <use style="fill:#0000ff;stroke:#0000ff;" x="360.356036" xlink:href="#m392350b08c" y="165.117779"/>
    </g>
   </g>
   <g id="patch_8">
    <path d="M 48.982813 182.890118 
L 48.982813 104.621882 
" style="fill:none;stroke:#000000;stroke-linecap:square;stroke-linejoin:miter;stroke-width:0.8;"/>
   </g>
   <g id="patch_9">
    <path d="M 406.102813 182.890118 
L 406.102813 104.621882 
" style="fill:none;stroke:#000000;stroke-linecap:square;stroke-linejoin:miter;stroke-width:0.8;"/>
   </g>
   <g id="patch_10">
    <path d="M 48.982813 182.890118 
L 406.102813 182.890118 
" style="fill:none;stroke:#000000;stroke-linecap:square;stroke-linejoin:miter;stroke-width:0.8;"/>
   </g>
   <g id="patch_11">
    <path d="M 48.982813 104.621882 
L 406.102813 104.621882 
" style="fill:none;stroke:#000000;stroke-linecap:square;stroke-linejoin:miter;stroke-width:0.8;"/>
   </g>
  </g>
  <g id="axes_3">
   <g id="patch_12">
    <path d="M 48.982813 276.812 
L 406.102813 276.812 
L 406.102813 198.543765 
L 48.982813 198.543765 
z
" style="fill:#ffffff;"/>
   </g>
   <g id="matplotlib.axis_5">
    <g id="xtick_13">
     <g id="line2d_21">
      <g>
       <use style="stroke:#000000;stroke-width:0.8;" x="65.21554" xlink:href="#m7045ffb6ca" y="276.812"/>
      </g>
     </g>
     <g id="text_21">
      <!-- 0 -->
      <g transform="translate(62.03429 291.410438)scale(0.1 -0.1)">
       <use xlink:href="#DejaVuSans-30"/>
      </g>
     </g>
    </g>
    <g id="xtick_14">
     <g id="line2d_22">
      <g>
       <use style="stroke:#000000;stroke-width:0.8;" x="130.802317" xlink:href="#m7045ffb6ca" y="276.812"/>
      </g>
     </g>
     <g id="text_22">
      <!-- 20 -->
      <g transform="translate(124.439817 291.410438)scale(0.1 -0.1)">
       <use xlink:href="#DejaVuSans-32"/>
       <use x="63.623047" xlink:href="#DejaVuSans-30"/>
      </g>
     </g>
    </g>
    <g id="xtick_15">
     <g id="line2d_23">
      <g>
       <use style="stroke:#000000;stroke-width:0.8;" x="196.389093" xlink:href="#m7045ffb6ca" y="276.812"/>
      </g>
     </g>
     <g id="text_23">
      <!-- 40 -->
      <g transform="translate(190.026593 291.410438)scale(0.1 -0.1)">
       <use xlink:href="#DejaVuSans-34"/>
       <use x="63.623047" xlink:href="#DejaVuSans-30"/>
      </g>
     </g>
    </g>
    <g id="xtick_16">
     <g id="line2d_24">
      <g>
       <use style="stroke:#000000;stroke-width:0.8;" x="261.97587" xlink:href="#m7045ffb6ca" y="276.812"/>
      </g>
     </g>
     <g id="text_24">
      <!-- 60 -->
      <g transform="translate(255.61337 291.410438)scale(0.1 -0.1)">
       <use xlink:href="#DejaVuSans-36"/>
       <use x="63.623047" xlink:href="#DejaVuSans-30"/>
      </g>
     </g>
    </g>
    <g id="xtick_17">
     <g id="line2d_25">
      <g>
       <use style="stroke:#000000;stroke-width:0.8;" x="327.562647" xlink:href="#m7045ffb6ca" y="276.812"/>
      </g>
     </g>
     <g id="text_25">
      <!-- 80 -->
      <g transform="translate(321.200147 291.410438)scale(0.1 -0.1)">
       <use xlink:href="#DejaVuSans-38"/>
       <use x="63.623047" xlink:href="#DejaVuSans-30"/>
      </g>
     </g>
    </g>
    <g id="xtick_18">
     <g id="line2d_26">
      <g>
       <use style="stroke:#000000;stroke-width:0.8;" x="393.149424" xlink:href="#m7045ffb6ca" y="276.812"/>
      </g>
     </g>
     <g id="text_26">
      <!-- 100 -->
      <g transform="translate(383.605674 291.410438)scale(0.1 -0.1)">
       <use xlink:href="#DejaVuSans-31"/>
       <use x="63.623047" xlink:href="#DejaVuSans-30"/>
       <use x="127.246094" xlink:href="#DejaVuSans-30"/>
      </g>
     </g>
    </g>
    <g id="text_27">
     <!-- Time -->
     <g transform="translate(215.155313 305.088562)scale(0.1 -0.1)">
      <use xlink:href="#DejaVuSans-54"/>
      <use x="61.037109" xlink:href="#DejaVuSans-69"/>
      <use x="88.820312" xlink:href="#DejaVuSans-6d"/>
      <use x="186.232422" xlink:href="#DejaVuSans-65"/>
     </g>
    </g>
   </g>
   <g id="matplotlib.axis_6">
    <g id="ytick_5">
     <g id="line2d_27">
      <g>
       <use style="stroke:#000000;stroke-width:0.8;" x="48.982813" xlink:href="#mfa066e1ea1" y="273.254353"/>
      </g>
     </g>
     <g id="text_28">
      <!-- 0 -->
      <g transform="translate(35.620313 277.053572)scale(0.1 -0.1)">
       <use xlink:href="#DejaVuSans-30"/>
      </g>
     </g>
    </g>
    <g id="ytick_6">
     <g id="line2d_28">
      <g>
       <use style="stroke:#000000;stroke-width:0.8;" x="48.982813" xlink:href="#mfa066e1ea1" y="230.696155"/>
      </g>
     </g>
     <g id="text_29">
      <!-- 50 -->
      <defs>
       <path d="M 10.796875 72.90625 
L 49.515625 72.90625 
L 49.515625 64.59375 
L 19.828125 64.59375 
L 19.828125 46.734375 
Q 21.96875 47.46875 24.109375 47.828125 
Q 26.265625 48.1875 28.421875 48.1875 
Q 40.625 48.1875 47.75 41.5 
Q 54.890625 34.8125 54.890625 23.390625 
Q 54.890625 11.625 47.5625 5.09375 
Q 40.234375 -1.421875 26.90625 -1.421875 
Q 22.3125 -1.421875 17.546875 -0.640625 
Q 12.796875 0.140625 7.71875 1.703125 
L 7.71875 11.625 
Q 12.109375 9.234375 16.796875 8.0625 
Q 21.484375 6.890625 26.703125 6.890625 
Q 35.15625 6.890625 40.078125 11.328125 
Q 45.015625 15.765625 45.015625 23.390625 
Q 45.015625 31 40.078125 35.4375 
Q 35.15625 39.890625 26.703125 39.890625 
Q 22.75 39.890625 18.8125 39.015625 
Q 14.890625 38.140625 10.796875 36.28125 
z
" id="DejaVuSans-35"/>
      </defs>
      <g transform="translate(29.257813 234.495374)scale(0.1 -0.1)">
       <use xlink:href="#DejaVuSans-35"/>
       <use x="63.623047" xlink:href="#DejaVuSans-30"/>
      </g>
     </g>
    </g>
    <g id="text_30">
     <!-- z -->
     <defs>
      <path d="M 5.515625 54.6875 
L 48.1875 54.6875 
L 48.1875 46.484375 
L 14.40625 7.171875 
L 48.1875 7.171875 
L 48.1875 0 
L 4.296875 0 
L 4.296875 8.203125 
L 38.09375 47.515625 
L 5.515625 47.515625 
z
" id="DejaVuSans-7a"/>
     </defs>
     <g transform="translate(23.178125 240.302101)rotate(-90)scale(0.1 -0.1)">
      <use xlink:href="#DejaVuSans-7a"/>
     </g>
    </g>
   </g>
   <g id="line2d_29">
    <path clip-path="url(#p5bfc3e1139)" d="M 65.21554 273.254353 
L 68.494879 272.602216 
L 71.774217 271.942829 
L 75.053556 271.282483 
L 78.332895 270.615441 
L 81.612234 269.949975 
L 84.891573 269.281117 
L 88.170912 268.611487 
L 91.450251 267.940849 
L 94.729589 267.267951 
L 98.008928 266.590827 
L 101.288267 265.916257 
L 104.567606 265.236767 
L 107.846945 264.556226 
L 111.126284 263.877367 
L 114.405622 263.202943 
L 117.684961 262.533192 
L 120.9643 261.862752 
L 124.243639 261.189071 
L 127.522978 260.519294 
L 130.802317 259.858581 
L 134.081655 259.198324 
L 137.360994 258.535244 
L 140.640333 257.863968 
L 143.919672 257.18694 
L 147.199011 256.506711 
L 150.47835 255.826613 
L 153.757689 255.150045 
L 157.037027 254.482239 
L 160.316366 253.813965 
L 163.595705 253.145169 
L 166.875044 252.476215 
L 170.154383 251.808808 
L 173.433722 251.13638 
L 176.71306 250.458526 
L 179.992399 249.77935 
L 183.271738 249.096985 
L 186.551077 248.413978 
L 189.830416 247.726451 
L 193.109755 247.04403 
L 196.389093 246.374704 
L 199.668432 245.705034 
L 202.947771 245.036429 
L 206.22711 244.354687 
L 209.506449 243.669113 
L 212.785788 242.987114 
L 216.065127 242.30533 
L 219.344465 241.618035 
L 222.623804 240.928221 
L 225.903143 240.242566 
L 229.182482 239.557886 
L 232.461821 238.875218 
L 235.74116 238.193499 
L 239.020498 237.508727 
L 242.299837 236.823949 
L 245.579176 236.138573 
L 248.858515 235.455415 
L 252.137854 234.775232 
L 255.417193 234.097282 
L 258.696532 233.421352 
L 261.97587 232.740733 
L 265.255209 232.060994 
L 268.534548 231.381641 
L 271.813887 230.708987 
L 275.093226 230.034846 
L 278.372565 229.360163 
L 281.651903 228.690674 
L 284.931242 228.02694 
L 288.210581 227.369913 
L 291.48992 226.71476 
L 294.769259 226.056766 
L 298.048598 225.399934 
L 301.327936 224.743141 
L 304.607275 224.084049 
L 307.886614 223.419759 
L 311.165953 222.747034 
L 314.445292 222.078325 
L 317.724631 221.405265 
L 321.00397 220.732465 
L 324.283308 220.0602 
L 327.562647 219.381718 
L 330.841986 218.702297 
L 334.121325 218.017201 
L 337.400664 217.329351 
L 340.680003 216.638436 
L 343.959341 215.952184 
L 347.23868 215.269049 
L 350.518019 214.588583 
L 353.797358 213.900772 
L 357.076697 213.205091 
L 360.356036 212.501545 
L 363.635374 211.798156 
L 366.914713 211.087896 
L 370.194052 210.374798 
L 373.473391 209.65946 
L 376.75273 208.941991 
L 380.032069 208.222205 
L 383.311408 207.500477 
L 386.590746 206.782872 
L 389.870085 206.05891 
" style="fill:none;stroke:#ff0000;stroke-linecap:square;stroke-width:1.5;"/>
    <g clip-path="url(#p5bfc3e1139)">
     <use style="fill:#ff0000;stroke:#ff0000;" x="65.21554" xlink:href="#m5a59f2c058" y="273.254353"/>
     <use style="fill:#ff0000;stroke:#ff0000;" x="98.008928" xlink:href="#m5a59f2c058" y="266.590827"/>
     <use style="fill:#ff0000;stroke:#ff0000;" x="130.802317" xlink:href="#m5a59f2c058" y="259.858581"/>
     <use style="fill:#ff0000;stroke:#ff0000;" x="163.595705" xlink:href="#m5a59f2c058" y="253.145169"/>
     <use style="fill:#ff0000;stroke:#ff0000;" x="196.389093" xlink:href="#m5a59f2c058" y="246.374704"/>
     <use style="fill:#ff0000;stroke:#ff0000;" x="229.182482" xlink:href="#m5a59f2c058" y="239.557886"/>
     <use style="fill:#ff0000;stroke:#ff0000;" x="261.97587" xlink:href="#m5a59f2c058" y="232.740733"/>
     <use style="fill:#ff0000;stroke:#ff0000;" x="294.769259" xlink:href="#m5a59f2c058" y="226.056766"/>
     <use style="fill:#ff0000;stroke:#ff0000;" x="327.562647" xlink:href="#m5a59f2c058" y="219.381718"/>
     <use style="fill:#ff0000;stroke:#ff0000;" x="360.356036" xlink:href="#m5a59f2c058" y="212.501545"/>
    </g>
   </g>
   <g id="line2d_30">
    <path clip-path="url(#p5bfc3e1139)" d="M 65.21554 273.254353 
L 68.494879 272.462666 
L 71.774217 271.692537 
L 75.053556 270.917281 
L 78.332895 270.117588 
L 81.612234 269.313349 
L 84.891573 268.526609 
L 88.170912 267.733287 
L 91.450251 266.968649 
L 94.729589 266.193338 
L 98.008928 265.421423 
L 101.288267 264.666244 
L 104.567606 263.90675 
L 107.846945 263.136434 
L 111.126284 262.385002 
L 114.405622 261.640141 
L 117.684961 260.911586 
L 120.9643 260.177143 
L 124.243639 259.443557 
L 127.522978 258.695114 
L 130.802317 257.946463 
L 134.081655 257.21226 
L 137.360994 256.468946 
L 140.640333 255.735977 
L 143.919672 255.021757 
L 147.199011 254.299449 
L 150.47835 253.584541 
L 153.757689 252.843365 
L 157.037027 252.103456 
L 160.316366 251.363198 
L 163.595705 250.647632 
L 166.875044 249.922912 
L 170.154383 249.195571 
L 173.433722 248.46726 
L 176.71306 247.742426 
L 179.992399 247.007376 
L 183.271738 246.282228 
L 186.551077 245.556019 
L 189.830416 244.813124 
L 193.109755 244.06281 
L 196.389093 243.355862 
L 199.668432 242.656434 
L 202.947771 241.980487 
L 206.22711 241.285254 
L 209.506449 240.611593 
L 212.785788 239.935877 
L 216.065127 239.234696 
L 219.344465 238.527832 
L 222.623804 237.802665 
L 225.903143 237.060994 
L 229.182482 236.347682 
L 232.461821 235.649822 
L 235.74116 234.947111 
L 239.020498 234.230487 
L 242.299837 233.524601 
L 245.579176 232.841832 
L 248.858515 232.173838 
L 252.137854 231.482108 
L 255.417193 230.789375 
L 258.696532 230.083875 
L 261.97587 229.407022 
L 265.255209 228.711906 
L 268.534548 228.049665 
L 271.813887 227.391654 
L 275.093226 226.712182 
L 278.372565 226.04572 
L 281.651903 225.39796 
L 284.931242 224.740816 
L 288.210581 224.097609 
L 291.48992 223.432293 
L 294.769259 222.751911 
L 298.048598 222.097433 
L 301.327936 221.448352 
L 304.607275 220.782071 
L 307.886614 220.107654 
L 311.165953 219.411817 
L 314.445292 218.721753 
L 317.724631 218.000109 
L 321.00397 217.296349 
L 324.283308 216.575894 
L 327.562647 215.859543 
L 330.841986 215.162309 
L 334.121325 214.42645 
L 337.400664 213.711398 
L 340.680003 212.99356 
L 343.959341 212.275604 
L 347.23868 211.542148 
L 350.518019 210.823193 
L 353.797358 210.094113 
L 357.076697 209.346293 
L 360.356036 208.617779 
L 363.635374 207.909759 
L 366.914713 207.188946 
L 370.194052 206.447373 
L 373.473391 205.719157 
L 376.75273 204.995507 
L 380.032069 204.26172 
L 383.311408 203.529276 
L 386.590746 202.818809 
L 389.870085 202.101412 
" style="fill:none;stroke:#0000ff;stroke-linecap:square;stroke-width:1.5;"/>
    <g clip-path="url(#p5bfc3e1139)">
     <use style="fill:#0000ff;stroke:#0000ff;" x="65.21554" xlink:href="#m392350b08c" y="273.254353"/>
     <use style="fill:#0000ff;stroke:#0000ff;" x="98.008928" xlink:href="#m392350b08c" y="265.421423"/>
     <use style="fill:#0000ff;stroke:#0000ff;" x="130.802317" xlink:href="#m392350b08c" y="257.946463"/>
     <use style="fill:#0000ff;stroke:#0000ff;" x="163.595705" xlink:href="#m392350b08c" y="250.647632"/>
     <use style="fill:#0000ff;stroke:#0000ff;" x="196.389093" xlink:href="#m392350b08c" y="243.355862"/>
     <use style="fill:#0000ff;stroke:#0000ff;" x="229.182482" xlink:href="#m392350b08c" y="236.347682"/>
     <use style="fill:#0000ff;stroke:#0000ff;" x="261.97587" xlink:href="#m392350b08c" y="229.407022"/>
     <use style="fill:#0000ff;stroke:#0000ff;" x="294.769259" xlink:href="#m392350b08c" y="222.751911"/>
     <use style="fill:#0000ff;stroke:#0000ff;" x="327.562647" xlink:href="#m392350b08c" y="215.859543"/>
     <use style="fill:#0000ff;stroke:#0000ff;" x="360.356036" xlink:href="#m392350b08c" y="208.617779"/>
    </g>
   </g>
   <g id="patch_13">
    <path d="M 48.982813 276.812 
L 48.982813 198.543765 
" style="fill:none;stroke:#000000;stroke-linecap:square;stroke-linejoin:miter;stroke-width:0.8;"/>
   </g>
   <g id="patch_14">
    <path d="M 406.102813 276.812 
L 406.102813 198.543765 
" style="fill:none;stroke:#000000;stroke-linecap:square;stroke-linejoin:miter;stroke-width:0.8;"/>
   </g>
   <g id="patch_15">
    <path d="M 48.982813 276.812 
L 406.102813 276.812 
" style="fill:none;stroke:#000000;stroke-linecap:square;stroke-linejoin:miter;stroke-width:0.8;"/>
   </g>
   <g id="patch_16">
    <path d="M 48.982813 198.543765 
L 406.102813 198.543765 
" style="fill:none;stroke:#000000;stroke-linecap:square;stroke-linejoin:miter;stroke-width:0.8;"/>
   </g>
   <g id="legend_1">
    <g id="patch_17">
     <path d="M 55.982813 271.812 
L 154.951563 271.812 
Q 156.951563 271.812 156.951563 269.812 
L 156.951563 241.45575 
Q 156.951563 239.45575 154.951563 239.45575 
L 55.982813 239.45575 
Q 53.982813 239.45575 53.982813 241.45575 
L 53.982813 269.812 
Q 53.982813 271.812 55.982813 271.812 
z
" style="fill:#ffffff;opacity:0.8;stroke:#cccccc;stroke-linejoin:miter;"/>
    </g>
    <g id="line2d_31">
     <path d="M 57.982813 247.554187 
L 77.982813 247.554187 
" style="fill:none;stroke:#ff0000;stroke-linecap:square;stroke-width:1.5;"/>
    </g>
    <g id="line2d_32">
     <g>
      <use style="fill:#ff0000;stroke:#ff0000;" x="67.982813" xlink:href="#m5a59f2c058" y="247.554187"/>
     </g>
    </g>
    <g id="text_31">
     <!-- Ground Truth -->
     <defs>
      <path d="M 59.515625 10.40625 
L 59.515625 29.984375 
L 43.40625 29.984375 
L 43.40625 38.09375 
L 69.28125 38.09375 
L 69.28125 6.78125 
Q 63.578125 2.734375 56.6875 0.65625 
Q 49.8125 -1.421875 42 -1.421875 
Q 24.90625 -1.421875 15.25 8.5625 
Q 5.609375 18.5625 5.609375 36.375 
Q 5.609375 54.25 15.25 64.234375 
Q 24.90625 74.21875 42 74.21875 
Q 49.125 74.21875 55.546875 72.453125 
Q 61.96875 70.703125 67.390625 67.28125 
L 67.390625 56.78125 
Q 61.921875 61.421875 55.765625 63.765625 
Q 49.609375 66.109375 42.828125 66.109375 
Q 29.4375 66.109375 22.71875 58.640625 
Q 16.015625 51.171875 16.015625 36.375 
Q 16.015625 21.625 22.71875 14.15625 
Q 29.4375 6.6875 42.828125 6.6875 
Q 48.046875 6.6875 52.140625 7.59375 
Q 56.25 8.5 59.515625 10.40625 
z
" id="DejaVuSans-47"/>
      <path d="M 41.109375 46.296875 
Q 39.59375 47.171875 37.8125 47.578125 
Q 36.03125 48 33.890625 48 
Q 26.265625 48 22.1875 43.046875 
Q 18.109375 38.09375 18.109375 28.8125 
L 18.109375 0 
L 9.078125 0 
L 9.078125 54.6875 
L 18.109375 54.6875 
L 18.109375 46.1875 
Q 20.953125 51.171875 25.484375 53.578125 
Q 30.03125 56 36.53125 56 
Q 37.453125 56 38.578125 55.875 
Q 39.703125 55.765625 41.0625 55.515625 
z
" id="DejaVuSans-72"/>
      <path d="M 30.609375 48.390625 
Q 23.390625 48.390625 19.1875 42.75 
Q 14.984375 37.109375 14.984375 27.296875 
Q 14.984375 17.484375 19.15625 11.84375 
Q 23.34375 6.203125 30.609375 6.203125 
Q 37.796875 6.203125 41.984375 11.859375 
Q 46.1875 17.53125 46.1875 27.296875 
Q 46.1875 37.015625 41.984375 42.703125 
Q 37.796875 48.390625 30.609375 48.390625 
z
M 30.609375 56 
Q 42.328125 56 49.015625 48.375 
Q 55.71875 40.765625 55.71875 27.296875 
Q 55.71875 13.875 49.015625 6.21875 
Q 42.328125 -1.421875 30.609375 -1.421875 
Q 18.84375 -1.421875 12.171875 6.21875 
Q 5.515625 13.875 5.515625 27.296875 
Q 5.515625 40.765625 12.171875 48.375 
Q 18.84375 56 30.609375 56 
z
" id="DejaVuSans-6f"/>
      <path d="M 8.5 21.578125 
L 8.5 54.6875 
L 17.484375 54.6875 
L 17.484375 21.921875 
Q 17.484375 14.15625 20.5 10.265625 
Q 23.53125 6.390625 29.59375 6.390625 
Q 36.859375 6.390625 41.078125 11.03125 
Q 45.3125 15.671875 45.3125 23.6875 
L 45.3125 54.6875 
L 54.296875 54.6875 
L 54.296875 0 
L 45.3125 0 
L 45.3125 8.40625 
Q 42.046875 3.421875 37.71875 1 
Q 33.40625 -1.421875 27.6875 -1.421875 
Q 18.265625 -1.421875 13.375 4.4375 
Q 8.5 10.296875 8.5 21.578125 
z
M 31.109375 56 
z
" id="DejaVuSans-75"/>
      <path d="M 54.890625 33.015625 
L 54.890625 0 
L 45.90625 0 
L 45.90625 32.71875 
Q 45.90625 40.484375 42.875 44.328125 
Q 39.84375 48.1875 33.796875 48.1875 
Q 26.515625 48.1875 22.3125 43.546875 
Q 18.109375 38.921875 18.109375 30.90625 
L 18.109375 0 
L 9.078125 0 
L 9.078125 54.6875 
L 18.109375 54.6875 
L 18.109375 46.1875 
Q 21.34375 51.125 25.703125 53.5625 
Q 30.078125 56 35.796875 56 
Q 45.21875 56 50.046875 50.171875 
Q 54.890625 44.34375 54.890625 33.015625 
z
" id="DejaVuSans-6e"/>
      <path d="M 45.40625 46.390625 
L 45.40625 75.984375 
L 54.390625 75.984375 
L 54.390625 0 
L 45.40625 0 
L 45.40625 8.203125 
Q 42.578125 3.328125 38.25 0.953125 
Q 33.9375 -1.421875 27.875 -1.421875 
Q 17.96875 -1.421875 11.734375 6.484375 
Q 5.515625 14.40625 5.515625 27.296875 
Q 5.515625 40.1875 11.734375 48.09375 
Q 17.96875 56 27.875 56 
Q 33.9375 56 38.25 53.625 
Q 42.578125 51.265625 45.40625 46.390625 
z
M 14.796875 27.296875 
Q 14.796875 17.390625 18.875 11.75 
Q 22.953125 6.109375 30.078125 6.109375 
Q 37.203125 6.109375 41.296875 11.75 
Q 45.40625 17.390625 45.40625 27.296875 
Q 45.40625 37.203125 41.296875 42.84375 
Q 37.203125 48.484375 30.078125 48.484375 
Q 22.953125 48.484375 18.875 42.84375 
Q 14.796875 37.203125 14.796875 27.296875 
z
" id="DejaVuSans-64"/>
      <path id="DejaVuSans-20"/>
      <path d="M 18.3125 70.21875 
L 18.3125 54.6875 
L 36.8125 54.6875 
L 36.8125 47.703125 
L 18.3125 47.703125 
L 18.3125 18.015625 
Q 18.3125 11.328125 20.140625 9.421875 
Q 21.96875 7.515625 27.59375 7.515625 
L 36.8125 7.515625 
L 36.8125 0 
L 27.59375 0 
Q 17.1875 0 13.234375 3.875 
Q 9.28125 7.765625 9.28125 18.015625 
L 9.28125 47.703125 
L 2.6875 47.703125 
L 2.6875 54.6875 
L 9.28125 54.6875 
L 9.28125 70.21875 
z
" id="DejaVuSans-74"/>
      <path d="M 54.890625 33.015625 
L 54.890625 0 
L 45.90625 0 
L 45.90625 32.71875 
Q 45.90625 40.484375 42.875 44.328125 
Q 39.84375 48.1875 33.796875 48.1875 
Q 26.515625 48.1875 22.3125 43.546875 
Q 18.109375 38.921875 18.109375 30.90625 
L 18.109375 0 
L 9.078125 0 
L 9.078125 75.984375 
L 18.109375 75.984375 
L 18.109375 46.1875 
Q 21.34375 51.125 25.703125 53.5625 
Q 30.078125 56 35.796875 56 
Q 45.21875 56 50.046875 50.171875 
Q 54.890625 44.34375 54.890625 33.015625 
z
" id="DejaVuSans-68"/>
     </defs>
     <g transform="translate(85.982813 251.054187)scale(0.1 -0.1)">
      <use xlink:href="#DejaVuSans-47"/>
      <use x="77.490234" xlink:href="#DejaVuSans-72"/>
      <use x="118.572266" xlink:href="#DejaVuSans-6f"/>
      <use x="179.753906" xlink:href="#DejaVuSans-75"/>
      <use x="243.132812" xlink:href="#DejaVuSans-6e"/>
      <use x="306.511719" xlink:href="#DejaVuSans-64"/>
      <use x="369.988281" xlink:href="#DejaVuSans-20"/>
      <use x="401.775391" xlink:href="#DejaVuSans-54"/>
      <use x="462.640625" xlink:href="#DejaVuSans-72"/>
      <use x="503.753906" xlink:href="#DejaVuSans-75"/>
      <use x="567.132812" xlink:href="#DejaVuSans-74"/>
      <use x="606.341797" xlink:href="#DejaVuSans-68"/>
     </g>
    </g>
    <g id="line2d_33">
     <path d="M 57.982813 262.232312 
L 77.982813 262.232312 
" style="fill:none;stroke:#0000ff;stroke-linecap:square;stroke-width:1.5;"/>
    </g>
    <g id="line2d_34">
     <g>
      <use style="fill:#0000ff;stroke:#0000ff;" x="67.982813" xlink:href="#m392350b08c" y="262.232312"/>
     </g>
    </g>
    <g id="text_32">
     <!-- Prediction -->
     <defs>
      <path d="M 19.671875 64.796875 
L 19.671875 37.40625 
L 32.078125 37.40625 
Q 38.96875 37.40625 42.71875 40.96875 
Q 46.484375 44.53125 46.484375 51.125 
Q 46.484375 57.671875 42.71875 61.234375 
Q 38.96875 64.796875 32.078125 64.796875 
z
M 9.8125 72.90625 
L 32.078125 72.90625 
Q 44.34375 72.90625 50.609375 67.359375 
Q 56.890625 61.8125 56.890625 51.125 
Q 56.890625 40.328125 50.609375 34.8125 
Q 44.34375 29.296875 32.078125 29.296875 
L 19.671875 29.296875 
L 19.671875 0 
L 9.8125 0 
z
" id="DejaVuSans-50"/>
      <path d="M 48.78125 52.59375 
L 48.78125 44.1875 
Q 44.96875 46.296875 41.140625 47.34375 
Q 37.3125 48.390625 33.40625 48.390625 
Q 24.65625 48.390625 19.8125 42.84375 
Q 14.984375 37.3125 14.984375 27.296875 
Q 14.984375 17.28125 19.8125 11.734375 
Q 24.65625 6.203125 33.40625 6.203125 
Q 37.3125 6.203125 41.140625 7.25 
Q 44.96875 8.296875 48.78125 10.40625 
L 48.78125 2.09375 
Q 45.015625 0.34375 40.984375 -0.53125 
Q 36.96875 -1.421875 32.421875 -1.421875 
Q 20.0625 -1.421875 12.78125 6.34375 
Q 5.515625 14.109375 5.515625 27.296875 
Q 5.515625 40.671875 12.859375 48.328125 
Q 20.21875 56 33.015625 56 
Q 37.15625 56 41.109375 55.140625 
Q 45.0625 54.296875 48.78125 52.59375 
z
" id="DejaVuSans-63"/>
     </defs>
     <g transform="translate(85.982813 265.732312)scale(0.1 -0.1)">
      <use xlink:href="#DejaVuSans-50"/>
      <use x="60.287109" xlink:href="#DejaVuSans-72"/>
      <use x="101.369141" xlink:href="#DejaVuSans-65"/>
      <use x="162.892578" xlink:href="#DejaVuSans-64"/>
      <use x="226.369141" xlink:href="#DejaVuSans-69"/>
      <use x="254.152344" xlink:href="#DejaVuSans-63"/>
      <use x="309.132812" xlink:href="#DejaVuSans-74"/>
      <use x="348.341797" xlink:href="#DejaVuSans-69"/>
      <use x="376.125" xlink:href="#DejaVuSans-6f"/>
      <use x="437.306641" xlink:href="#DejaVuSans-6e"/>
     </g>
    </g>
   </g>
  </g>
 </g>
 <defs>
  <clipPath id="p236aafa84a">
   <rect height="78.268235" width="357.12" x="48.982813" y="10.7"/>
  </clipPath>
  <clipPath id="p17845019df">
   <rect height="78.268235" width="357.12" x="48.982813" y="104.621882"/>
  </clipPath>
  <clipPath id="p5bfc3e1139">
   <rect height="78.268235" width="357.12" x="48.982813" y="198.543765"/>
  </clipPath>
 </defs>
</svg>
