<?xml version="1.0" encoding="utf-8" standalone="no"?>
<!DOCTYPE svg PUBLIC "-//W3C//DTD SVG 1.1//EN"
  "http://www.w3.org/Graphics/SVG/1.1/DTD/svg11.dtd">
<!-- Created with matplotlib (http://matplotlib.org/) -->
<svg height="314pt" version="1.1" viewBox="0 0 416 314" width="416pt" xmlns="http://www.w3.org/2000/svg" xmlns:xlink="http://www.w3.org/1999/xlink">
 <defs>
  <style type="text/css">
*{stroke-linecap:butt;stroke-linejoin:round;}
  </style>
 </defs>
 <g id="figure_1">
  <g id="patch_1">
   <path d="M 0 314.36825 
L 416.802812 314.36825 
L 416.802812 0 
L 0 0 
z
" style="fill:#ffffff;"/>
  </g>
  <g id="axes_1">
   <g id="patch_2">
    <path d="M 48.982813 88.968235 
L 406.102813 88.968235 
L 406.102813 10.7 
L 48.982813 10.7 
z
" style="fill:#ffffff;"/>
   </g>
   <g id="matplotlib.axis_1">
    <g id="xtick_1">
     <g id="line2d_1">
      <defs>
       <path d="M 0 0 
L 0 3.5 
" id="m309d07ff84" style="stroke:#000000;stroke-width:0.8;"/>
      </defs>
      <g>
       <use style="stroke:#000000;stroke-width:0.8;" x="65.21554" xlink:href="#m309d07ff84" y="88.968235"/>
      </g>
     </g>
     <g id="text_1">
      <!-- 0 -->
      <defs>
       <path d="M 31.78125 66.40625 
Q 24.171875 66.40625 20.328125 58.90625 
Q 16.5 51.421875 16.5 36.375 
Q 16.5 21.390625 20.328125 13.890625 
Q 24.171875 6.390625 31.78125 6.390625 
Q 39.453125 6.390625 43.28125 13.890625 
Q 47.125 21.390625 47.125 36.375 
Q 47.125 51.421875 43.28125 58.90625 
Q 39.453125 66.40625 31.78125 66.40625 
z
M 31.78125 74.21875 
Q 44.046875 74.21875 50.515625 64.515625 
Q 56.984375 54.828125 56.984375 36.375 
Q 56.984375 17.96875 50.515625 8.265625 
Q 44.046875 -1.421875 31.78125 -1.421875 
Q 19.53125 -1.421875 13.0625 8.265625 
Q 6.59375 17.96875 6.59375 36.375 
Q 6.59375 54.828125 13.0625 64.515625 
Q 19.53125 74.21875 31.78125 74.21875 
z
" id="DejaVuSans-30"/>
      </defs>
      <g transform="translate(62.03429 103.566673)scale(0.1 -0.1)">
       <use xlink:href="#DejaVuSans-30"/>
      </g>
     </g>
    </g>
    <g id="xtick_2">
     <g id="line2d_2">
      <g>
       <use style="stroke:#000000;stroke-width:0.8;" x="130.802317" xlink:href="#m309d07ff84" y="88.968235"/>
      </g>
     </g>
     <g id="text_2">
      <!-- 20 -->
      <defs>
       <path d="M 19.1875 8.296875 
L 53.609375 8.296875 
L 53.609375 0 
L 7.328125 0 
L 7.328125 8.296875 
Q 12.9375 14.109375 22.625 23.890625 
Q 32.328125 33.6875 34.8125 36.53125 
Q 39.546875 41.84375 41.421875 45.53125 
Q 43.3125 49.21875 43.3125 52.78125 
Q 43.3125 58.59375 39.234375 62.25 
Q 35.15625 65.921875 28.609375 65.921875 
Q 23.96875 65.921875 18.8125 64.3125 
Q 13.671875 62.703125 7.8125 59.421875 
L 7.8125 69.390625 
Q 13.765625 71.78125 18.9375 73 
Q 24.125 74.21875 28.421875 74.21875 
Q 39.75 74.21875 46.484375 68.546875 
Q 53.21875 62.890625 53.21875 53.421875 
Q 53.21875 48.921875 51.53125 44.890625 
Q 49.859375 40.875 45.40625 35.40625 
Q 44.1875 33.984375 37.640625 27.21875 
Q 31.109375 20.453125 19.1875 8.296875 
z
" id="DejaVuSans-32"/>
      </defs>
      <g transform="translate(124.439817 103.566673)scale(0.1 -0.1)">
       <use xlink:href="#DejaVuSans-32"/>
       <use x="63.623047" xlink:href="#DejaVuSans-30"/>
      </g>
     </g>
    </g>
    <g id="xtick_3">
     <g id="line2d_3">
      <g>
       <use style="stroke:#000000;stroke-width:0.8;" x="196.389093" xlink:href="#m309d07ff84" y="88.968235"/>
      </g>
     </g>
     <g id="text_3">
      <!-- 40 -->
      <defs>
       <path d="M 37.796875 64.3125 
L 12.890625 25.390625 
L 37.796875 25.390625 
z
M 35.203125 72.90625 
L 47.609375 72.90625 
L 47.609375 25.390625 
L 58.015625 25.390625 
L 58.015625 17.1875 
L 47.609375 17.1875 
L 47.609375 0 
L 37.796875 0 
L 37.796875 17.1875 
L 4.890625 17.1875 
L 4.890625 26.703125 
z
" id="DejaVuSans-34"/>
      </defs>
      <g transform="translate(190.026593 103.566673)scale(0.1 -0.1)">
       <use xlink:href="#DejaVuSans-34"/>
       <use x="63.623047" xlink:href="#DejaVuSans-30"/>
      </g>
     </g>
    </g>
    <g id="xtick_4">
     <g id="line2d_4">
      <g>
       <use style="stroke:#000000;stroke-width:0.8;" x="261.97587" xlink:href="#m309d07ff84" y="88.968235"/>
      </g>
     </g>
     <g id="text_4">
      <!-- 60 -->
      <defs>
       <path d="M 33.015625 40.375 
Q 26.375 40.375 22.484375 35.828125 
Q 18.609375 31.296875 18.609375 23.390625 
Q 18.609375 15.53125 22.484375 10.953125 
Q 26.375 6.390625 33.015625 6.390625 
Q 39.65625 6.390625 43.53125 10.953125 
Q 47.40625 15.53125 47.40625 23.390625 
Q 47.40625 31.296875 43.53125 35.828125 
Q 39.65625 40.375 33.015625 40.375 
z
M 52.59375 71.296875 
L 52.59375 62.3125 
Q 48.875 64.0625 45.09375 64.984375 
Q 41.3125 65.921875 37.59375 65.921875 
Q 27.828125 65.921875 22.671875 59.328125 
Q 17.53125 52.734375 16.796875 39.40625 
Q 19.671875 43.65625 24.015625 45.921875 
Q 28.375 48.1875 33.59375 48.1875 
Q 44.578125 48.1875 50.953125 41.515625 
Q 57.328125 34.859375 57.328125 23.390625 
Q 57.328125 12.15625 50.6875 5.359375 
Q 44.046875 -1.421875 33.015625 -1.421875 
Q 20.359375 -1.421875 13.671875 8.265625 
Q 6.984375 17.96875 6.984375 36.375 
Q 6.984375 53.65625 15.1875 63.9375 
Q 23.390625 74.21875 37.203125 74.21875 
Q 40.921875 74.21875 44.703125 73.484375 
Q 48.484375 72.75 52.59375 71.296875 
z
" id="DejaVuSans-36"/>
      </defs>
      <g transform="translate(255.61337 103.566673)scale(0.1 -0.1)">
       <use xlink:href="#DejaVuSans-36"/>
       <use x="63.623047" xlink:href="#DejaVuSans-30"/>
      </g>
     </g>
    </g>
    <g id="xtick_5">
     <g id="line2d_5">
      <g>
       <use style="stroke:#000000;stroke-width:0.8;" x="327.562647" xlink:href="#m309d07ff84" y="88.968235"/>
      </g>
     </g>
     <g id="text_5">
      <!-- 80 -->
      <defs>
       <path d="M 31.78125 34.625 
Q 24.75 34.625 20.71875 30.859375 
Q 16.703125 27.09375 16.703125 20.515625 
Q 16.703125 13.921875 20.71875 10.15625 
Q 24.75 6.390625 31.78125 6.390625 
Q 38.8125 6.390625 42.859375 10.171875 
Q 46.921875 13.96875 46.921875 20.515625 
Q 46.921875 27.09375 42.890625 30.859375 
Q 38.875 34.625 31.78125 34.625 
z
M 21.921875 38.8125 
Q 15.578125 40.375 12.03125 44.71875 
Q 8.5 49.078125 8.5 55.328125 
Q 8.5 64.0625 14.71875 69.140625 
Q 20.953125 74.21875 31.78125 74.21875 
Q 42.671875 74.21875 48.875 69.140625 
Q 55.078125 64.0625 55.078125 55.328125 
Q 55.078125 49.078125 51.53125 44.71875 
Q 48 40.375 41.703125 38.8125 
Q 48.828125 37.15625 52.796875 32.3125 
Q 56.78125 27.484375 56.78125 20.515625 
Q 56.78125 9.90625 50.3125 4.234375 
Q 43.84375 -1.421875 31.78125 -1.421875 
Q 19.734375 -1.421875 13.25 4.234375 
Q 6.78125 9.90625 6.78125 20.515625 
Q 6.78125 27.484375 10.78125 32.3125 
Q 14.796875 37.15625 21.921875 38.8125 
z
M 18.3125 54.390625 
Q 18.3125 48.734375 21.84375 45.5625 
Q 25.390625 42.390625 31.78125 42.390625 
Q 38.140625 42.390625 41.71875 45.5625 
Q 45.3125 48.734375 45.3125 54.390625 
Q 45.3125 60.0625 41.71875 63.234375 
Q 38.140625 66.40625 31.78125 66.40625 
Q 25.390625 66.40625 21.84375 63.234375 
Q 18.3125 60.0625 18.3125 54.390625 
z
" id="DejaVuSans-38"/>
      </defs>
      <g transform="translate(321.200147 103.566673)scale(0.1 -0.1)">
       <use xlink:href="#DejaVuSans-38"/>
       <use x="63.623047" xlink:href="#DejaVuSans-30"/>
      </g>
     </g>
    </g>
    <g id="xtick_6">
     <g id="line2d_6">
      <g>
       <use style="stroke:#000000;stroke-width:0.8;" x="393.149424" xlink:href="#m309d07ff84" y="88.968235"/>
      </g>
     </g>
     <g id="text_6">
      <!-- 100 -->
      <defs>
       <path d="M 12.40625 8.296875 
L 28.515625 8.296875 
L 28.515625 63.921875 
L 10.984375 60.40625 
L 10.984375 69.390625 
L 28.421875 72.90625 
L 38.28125 72.90625 
L 38.28125 8.296875 
L 54.390625 8.296875 
L 54.390625 0 
L 12.40625 0 
z
" id="DejaVuSans-31"/>
      </defs>
      <g transform="translate(383.605674 103.566673)scale(0.1 -0.1)">
       <use xlink:href="#DejaVuSans-31"/>
       <use x="63.623047" xlink:href="#DejaVuSans-30"/>
       <use x="127.246094" xlink:href="#DejaVuSans-30"/>
      </g>
     </g>
    </g>
    <g id="text_7">
     <!-- Time -->
     <defs>
      <path d="M -0.296875 72.90625 
L 61.375 72.90625 
L 61.375 64.59375 
L 35.5 64.59375 
L 35.5 0 
L 25.59375 0 
L 25.59375 64.59375 
L -0.296875 64.59375 
z
" id="DejaVuSans-54"/>
      <path d="M 9.421875 54.6875 
L 18.40625 54.6875 
L 18.40625 0 
L 9.421875 0 
z
M 9.421875 75.984375 
L 18.40625 75.984375 
L 18.40625 64.59375 
L 9.421875 64.59375 
z
" id="DejaVuSans-69"/>
      <path d="M 52 44.1875 
Q 55.375 50.25 60.0625 53.125 
Q 64.75 56 71.09375 56 
Q 79.640625 56 84.28125 50.015625 
Q 88.921875 44.046875 88.921875 33.015625 
L 88.921875 0 
L 79.890625 0 
L 79.890625 32.71875 
Q 79.890625 40.578125 77.09375 44.375 
Q 74.3125 48.1875 68.609375 48.1875 
Q 61.625 48.1875 57.5625 43.546875 
Q 53.515625 38.921875 53.515625 30.90625 
L 53.515625 0 
L 44.484375 0 
L 44.484375 32.71875 
Q 44.484375 40.625 41.703125 44.40625 
Q 38.921875 48.1875 33.109375 48.1875 
Q 26.21875 48.1875 22.15625 43.53125 
Q 18.109375 38.875 18.109375 30.90625 
L 18.109375 0 
L 9.078125 0 
L 9.078125 54.6875 
L 18.109375 54.6875 
L 18.109375 46.1875 
Q 21.1875 51.21875 25.484375 53.609375 
Q 29.78125 56 35.6875 56 
Q 41.65625 56 45.828125 52.96875 
Q 50 49.953125 52 44.1875 
z
" id="DejaVuSans-6d"/>
      <path d="M 56.203125 29.59375 
L 56.203125 25.203125 
L 14.890625 25.203125 
Q 15.484375 15.921875 20.484375 11.0625 
Q 25.484375 6.203125 34.421875 6.203125 
Q 39.59375 6.203125 44.453125 7.46875 
Q 49.3125 8.734375 54.109375 11.28125 
L 54.109375 2.78125 
Q 49.265625 0.734375 44.1875 -0.34375 
Q 39.109375 -1.421875 33.890625 -1.421875 
Q 20.796875 -1.421875 13.15625 6.1875 
Q 5.515625 13.8125 5.515625 26.8125 
Q 5.515625 40.234375 12.765625 48.109375 
Q 20.015625 56 32.328125 56 
Q 43.359375 56 49.78125 48.890625 
Q 56.203125 41.796875 56.203125 29.59375 
z
M 47.21875 32.234375 
Q 47.125 39.59375 43.09375 43.984375 
Q 39.0625 48.390625 32.421875 48.390625 
Q 24.90625 48.390625 20.390625 44.140625 
Q 15.875 39.890625 15.1875 32.171875 
z
" id="DejaVuSans-65"/>
     </defs>
     <g transform="translate(215.155313 117.244798)scale(0.1 -0.1)">
      <use xlink:href="#DejaVuSans-54"/>
      <use x="61.037109" xlink:href="#DejaVuSans-69"/>
      <use x="88.820312" xlink:href="#DejaVuSans-6d"/>
      <use x="186.232422" xlink:href="#DejaVuSans-65"/>
     </g>
    </g>
   </g>
   <g id="matplotlib.axis_2">
    <g id="ytick_1">
     <g id="line2d_7">
      <defs>
       <path d="M 0 0 
L -3.5 0 
" id="m9f693c5089" style="stroke:#000000;stroke-width:0.8;"/>
      </defs>
      <g>
       <use style="stroke:#000000;stroke-width:0.8;" x="48.982813" xlink:href="#m9f693c5089" y="82.465678"/>
      </g>
     </g>
     <g id="text_8">
      <!-- −20 -->
      <defs>
       <path d="M 10.59375 35.5 
L 73.1875 35.5 
L 73.1875 27.203125 
L 10.59375 27.203125 
z
" id="DejaVuSans-2212"/>
      </defs>
      <g transform="translate(20.878125 86.264897)scale(0.1 -0.1)">
       <use xlink:href="#DejaVuSans-2212"/>
       <use x="83.789062" xlink:href="#DejaVuSans-32"/>
       <use x="147.412109" xlink:href="#DejaVuSans-30"/>
      </g>
     </g>
    </g>
    <g id="ytick_2">
     <g id="line2d_8">
      <g>
       <use style="stroke:#000000;stroke-width:0.8;" x="48.982813" xlink:href="#m9f693c5089" y="48.361663"/>
      </g>
     </g>
     <g id="text_9">
      <!-- −10 -->
      <g transform="translate(20.878125 52.160881)scale(0.1 -0.1)">
       <use xlink:href="#DejaVuSans-2212"/>
       <use x="83.789062" xlink:href="#DejaVuSans-31"/>
       <use x="147.412109" xlink:href="#DejaVuSans-30"/>
      </g>
     </g>
    </g>
    <g id="ytick_3">
     <g id="line2d_9">
      <g>
       <use style="stroke:#000000;stroke-width:0.8;" x="48.982813" xlink:href="#m9f693c5089" y="14.257647"/>
      </g>
     </g>
     <g id="text_10">
      <!-- 0 -->
      <g transform="translate(35.620313 18.056866)scale(0.1 -0.1)">
       <use xlink:href="#DejaVuSans-30"/>
      </g>
     </g>
    </g>
    <g id="text_11">
     <!-- x -->
     <defs>
      <path d="M 54.890625 54.6875 
L 35.109375 28.078125 
L 55.90625 0 
L 45.3125 0 
L 29.390625 21.484375 
L 13.484375 0 
L 2.875 0 
L 24.125 28.609375 
L 4.6875 54.6875 
L 15.28125 54.6875 
L 29.78125 35.203125 
L 44.28125 54.6875 
z
" id="DejaVuSans-78"/>
     </defs>
     <g transform="translate(14.798438 52.793493)rotate(-90)scale(0.1 -0.1)">
      <use xlink:href="#DejaVuSans-78"/>
     </g>
    </g>
   </g>
   <g id="line2d_10">
    <path clip-path="url(#p7b403dd830)" d="M 65.21554 14.257647 
L 68.494879 14.318589 
L 71.774217 14.427537 
L 75.053556 14.583144 
L 78.332895 14.762676 
L 81.612234 14.952862 
L 84.891573 15.161741 
L 88.170912 15.347462 
L 91.450251 15.526099 
L 94.729589 15.695108 
L 98.008928 15.853419 
L 101.288267 15.989185 
L 104.567606 16.141678 
L 107.846945 16.260711 
L 111.126284 16.37178 
L 114.405622 16.461327 
L 117.684961 16.541616 
L 120.9643 16.615447 
L 124.243639 16.677427 
L 127.522978 16.726314 
L 130.802317 16.756117 
L 134.081655 16.792521 
L 137.360994 16.836841 
L 140.640333 16.914918 
L 143.919672 17.003511 
L 147.199011 17.132545 
L 150.47835 17.31507 
L 153.757689 17.562372 
L 157.037027 17.826178 
L 160.316366 18.114145 
L 163.595705 18.443404 
L 166.875044 18.817537 
L 170.154383 19.22099 
L 173.433722 19.647923 
L 176.71306 20.115935 
L 179.992399 20.632647 
L 183.271738 21.161196 
L 186.551077 21.688083 
L 189.830416 22.233626 
L 193.109755 22.837643 
L 196.389093 23.455993 
L 199.668432 24.048945 
L 202.947771 24.635497 
L 206.22711 25.251316 
L 209.506449 25.929407 
L 212.785788 26.614448 
L 216.065127 27.297649 
L 219.344465 27.94469 
L 222.623804 28.591853 
L 225.903143 29.234447 
L 229.182482 29.903918 
L 232.461821 30.587444 
L 235.74116 31.300504 
L 239.020498 32.025033 
L 242.299837 32.768442 
L 245.579176 33.526572 
L 248.858515 34.30212 
L 252.137854 35.117521 
L 255.417193 35.978917 
L 258.696532 36.862499 
L 261.97587 37.786722 
L 265.255209 38.746818 
L 268.534548 39.754872 
L 271.813887 40.778158 
L 275.093226 41.828392 
L 278.372565 42.893554 
L 281.651903 43.973297 
L 284.931242 45.040937 
L 288.210581 46.103425 
L 291.48992 47.189357 
L 294.769259 48.275191 
L 298.048598 49.357272 
L 301.327936 50.450447 
L 304.607275 51.552552 
L 307.886614 52.66449 
L 311.165953 53.780429 
L 314.445292 54.898605 
L 317.724631 56.004012 
L 321.00397 57.103549 
L 324.283308 58.189591 
L 327.562647 59.292201 
L 330.841986 60.404412 
L 334.121325 61.509166 
L 337.400664 62.619956 
L 340.680003 63.716041 
L 343.959341 64.768116 
L 347.23868 65.795071 
L 350.518019 66.778978 
L 353.797358 67.756601 
L 357.076697 68.715955 
L 360.356036 69.627151 
L 363.635374 70.500216 
L 366.914713 71.37425 
L 370.194052 72.270699 
L 373.473391 73.131144 
L 376.75273 74.003688 
L 380.032069 74.881469 
L 383.311408 75.779532 
L 386.590746 76.666744 
L 389.870085 77.541617 
" style="fill:none;stroke:#ff0000;stroke-linecap:square;stroke-width:1.5;"/>
    <defs>
     <path d="M 0 2.5 
C 0.663008 2.5 1.29895 2.236584 1.767767 1.767767 
C 2.236584 1.29895 2.5 0.663008 2.5 0 
C 2.5 -0.663008 2.236584 -1.29895 1.767767 -1.767767 
C 1.29895 -2.236584 0.663008 -2.5 0 -2.5 
C -0.663008 -2.5 -1.29895 -2.236584 -1.767767 -1.767767 
C -2.236584 -1.29895 -2.5 -0.663008 -2.5 0 
C -2.5 0.663008 -2.236584 1.29895 -1.767767 1.767767 
C -1.29895 2.236584 -0.663008 2.5 0 2.5 
z
" id="mb659d78331" style="stroke:#ff0000;"/>
    </defs>
    <g clip-path="url(#p7b403dd830)">
     <use style="fill:#ff0000;stroke:#ff0000;" x="65.21554" xlink:href="#mb659d78331" y="14.257647"/>
     <use style="fill:#ff0000;stroke:#ff0000;" x="98.008928" xlink:href="#mb659d78331" y="15.853419"/>
     <use style="fill:#ff0000;stroke:#ff0000;" x="130.802317" xlink:href="#mb659d78331" y="16.756117"/>
     <use style="fill:#ff0000;stroke:#ff0000;" x="163.595705" xlink:href="#mb659d78331" y="18.443404"/>
     <use style="fill:#ff0000;stroke:#ff0000;" x="196.389093" xlink:href="#mb659d78331" y="23.455993"/>
     <use style="fill:#ff0000;stroke:#ff0000;" x="229.182482" xlink:href="#mb659d78331" y="29.903918"/>
     <use style="fill:#ff0000;stroke:#ff0000;" x="261.97587" xlink:href="#mb659d78331" y="37.786722"/>
     <use style="fill:#ff0000;stroke:#ff0000;" x="294.769259" xlink:href="#mb659d78331" y="48.275191"/>
     <use style="fill:#ff0000;stroke:#ff0000;" x="327.562647" xlink:href="#mb659d78331" y="59.292201"/>
     <use style="fill:#ff0000;stroke:#ff0000;" x="360.356036" xlink:href="#mb659d78331" y="69.627151"/>
    </g>
   </g>
   <g id="line2d_11">
    <path clip-path="url(#p7b403dd830)" d="M 65.21554 14.257647 
L 68.494879 14.314183 
L 71.774217 14.405461 
L 75.053556 14.519654 
L 78.332895 14.668788 
L 81.612234 14.831092 
L 84.891573 15.015178 
L 88.170912 15.222168 
L 91.450251 15.415241 
L 94.729589 15.580789 
L 98.008928 15.72016 
L 101.288267 15.860723 
L 104.567606 15.994245 
L 107.846945 16.119828 
L 111.126284 16.222954 
L 114.405622 16.302495 
L 117.684961 16.363732 
L 120.9643 16.423945 
L 124.243639 16.470733 
L 127.522978 16.520203 
L 130.802317 16.558692 
L 134.081655 16.604873 
L 137.360994 16.680066 
L 140.640333 16.773775 
L 143.919672 16.898052 
L 147.199011 17.05782 
L 150.47835 17.256974 
L 153.757689 17.519367 
L 157.037027 17.835961 
L 160.316366 18.193034 
L 163.595705 18.572981 
L 166.875044 19.00823 
L 170.154383 19.489079 
L 173.433722 20.023143 
L 176.71306 20.608405 
L 179.992399 21.241386 
L 183.271738 21.925129 
L 186.551077 22.647115 
L 189.830416 23.373674 
L 193.109755 24.13568 
L 196.389093 24.909409 
L 199.668432 25.643388 
L 202.947771 26.375404 
L 206.22711 27.127538 
L 209.506449 27.912434 
L 212.785788 28.710364 
L 216.065127 29.502366 
L 219.344465 30.255597 
L 222.623804 30.992021 
L 225.903143 31.714946 
L 229.182482 32.476682 
L 232.461821 33.260616 
L 235.74116 34.077757 
L 239.020498 34.893475 
L 242.299837 35.717625 
L 245.579176 36.588021 
L 248.858515 37.44529 
L 252.137854 38.29933 
L 255.417193 39.154822 
L 258.696532 40.087215 
L 261.97587 41.036311 
L 265.255209 41.999941 
L 268.534548 43.032016 
L 271.813887 44.098563 
L 275.093226 45.206712 
L 278.372565 46.360232 
L 281.651903 47.536292 
L 284.931242 48.758756 
L 288.210581 49.944368 
L 291.48992 51.180737 
L 294.769259 52.401325 
L 298.048598 53.612152 
L 301.327936 54.804484 
L 304.607275 55.99418 
L 307.886614 57.162961 
L 311.165953 58.369007 
L 314.445292 59.604137 
L 317.724631 60.848175 
L 321.00397 62.092083 
L 324.283308 63.293787 
L 327.562647 64.489094 
L 330.841986 65.71113 
L 334.121325 66.939816 
L 337.400664 68.122114 
L 340.680003 69.312845 
L 343.959341 70.494218 
L 347.23868 71.692485 
L 350.518019 72.83602 
L 353.797358 73.9314 
L 357.076697 74.990087 
L 360.356036 76.041403 
L 363.635374 77.068964 
L 366.914713 78.057463 
L 370.194052 79.059791 
L 373.473391 80.074362 
L 376.75273 81.11905 
L 380.032069 82.173241 
L 383.311408 83.227094 
L 386.590746 84.313439 
L 389.870085 85.410588 
" style="fill:none;stroke:#0000ff;stroke-linecap:square;stroke-width:1.5;"/>
    <defs>
     <path d="M 0 2.5 
C 0.663008 2.5 1.29895 2.236584 1.767767 1.767767 
C 2.236584 1.29895 2.5 0.663008 2.5 0 
C 2.5 -0.663008 2.236584 -1.29895 1.767767 -1.767767 
C 1.29895 -2.236584 0.663008 -2.5 0 -2.5 
C -0.663008 -2.5 -1.29895 -2.236584 -1.767767 -1.767767 
C -2.236584 -1.29895 -2.5 -0.663008 -2.5 0 
C -2.5 0.663008 -2.236584 1.29895 -1.767767 1.767767 
C -1.29895 2.236584 -0.663008 2.5 0 2.5 
z
" id="m4a6e18a931" style="stroke:#0000ff;"/>
    </defs>
    <g clip-path="url(#p7b403dd830)">
     <use style="fill:#0000ff;stroke:#0000ff;" x="65.21554" xlink:href="#m4a6e18a931" y="14.257647"/>
     <use style="fill:#0000ff;stroke:#0000ff;" x="98.008928" xlink:href="#m4a6e18a931" y="15.72016"/>
     <use style="fill:#0000ff;stroke:#0000ff;" x="130.802317" xlink:href="#m4a6e18a931" y="16.558692"/>
     <use style="fill:#0000ff;stroke:#0000ff;" x="163.595705" xlink:href="#m4a6e18a931" y="18.572981"/>
     <use style="fill:#0000ff;stroke:#0000ff;" x="196.389093" xlink:href="#m4a6e18a931" y="24.909409"/>
     <use style="fill:#0000ff;stroke:#0000ff;" x="229.182482" xlink:href="#m4a6e18a931" y="32.476682"/>
     <use style="fill:#0000ff;stroke:#0000ff;" x="261.97587" xlink:href="#m4a6e18a931" y="41.036311"/>
     <use style="fill:#0000ff;stroke:#0000ff;" x="294.769259" xlink:href="#m4a6e18a931" y="52.401325"/>
     <use style="fill:#0000ff;stroke:#0000ff;" x="327.562647" xlink:href="#m4a6e18a931" y="64.489094"/>
     <use style="fill:#0000ff;stroke:#0000ff;" x="360.356036" xlink:href="#m4a6e18a931" y="76.041403"/>
    </g>
   </g>
   <g id="patch_3">
    <path d="M 48.982813 88.968235 
L 48.982813 10.7 
" style="fill:none;stroke:#000000;stroke-linecap:square;stroke-linejoin:miter;stroke-width:0.8;"/>
   </g>
   <g id="patch_4">
    <path d="M 406.102813 88.968235 
L 406.102813 10.7 
" style="fill:none;stroke:#000000;stroke-linecap:square;stroke-linejoin:miter;stroke-width:0.8;"/>
   </g>
   <g id="patch_5">
    <path d="M 48.982813 88.968235 
L 406.102813 88.968235 
" style="fill:none;stroke:#000000;stroke-linecap:square;stroke-linejoin:miter;stroke-width:0.8;"/>
   </g>
   <g id="patch_6">
    <path d="M 48.982813 10.7 
L 406.102813 10.7 
" style="fill:none;stroke:#000000;stroke-linecap:square;stroke-linejoin:miter;stroke-width:0.8;"/>
   </g>
  </g>
  <g id="axes_2">
   <g id="patch_7">
    <path d="M 48.982813 182.890118 
L 406.102813 182.890118 
L 406.102813 104.621882 
L 48.982813 104.621882 
z
" style="fill:#ffffff;"/>
   </g>
   <g id="matplotlib.axis_3">
    <g id="xtick_7">
     <g id="line2d_12">
      <g>
       <use style="stroke:#000000;stroke-width:0.8;" x="65.21554" xlink:href="#m309d07ff84" y="182.890118"/>
      </g>
     </g>
     <g id="text_12">
      <!-- 0 -->
      <g transform="translate(62.03429 197.488555)scale(0.1 -0.1)">
       <use xlink:href="#DejaVuSans-30"/>
      </g>
     </g>
    </g>
    <g id="xtick_8">
     <g id="line2d_13">
      <g>
       <use style="stroke:#000000;stroke-width:0.8;" x="130.802317" xlink:href="#m309d07ff84" y="182.890118"/>
      </g>
     </g>
     <g id="text_13">
      <!-- 20 -->
      <g transform="translate(124.439817 197.488555)scale(0.1 -0.1)">
       <use xlink:href="#DejaVuSans-32"/>
       <use x="63.623047" xlink:href="#DejaVuSans-30"/>
      </g>
     </g>
    </g>
    <g id="xtick_9">
     <g id="line2d_14">
      <g>
       <use style="stroke:#000000;stroke-width:0.8;" x="196.389093" xlink:href="#m309d07ff84" y="182.890118"/>
      </g>
     </g>
     <g id="text_14">
      <!-- 40 -->
      <g transform="translate(190.026593 197.488555)scale(0.1 -0.1)">
       <use xlink:href="#DejaVuSans-34"/>
       <use x="63.623047" xlink:href="#DejaVuSans-30"/>
      </g>
     </g>
    </g>
    <g id="xtick_10">
     <g id="line2d_15">
      <g>
       <use style="stroke:#000000;stroke-width:0.8;" x="261.97587" xlink:href="#m309d07ff84" y="182.890118"/>
      </g>
     </g>
     <g id="text_15">
      <!-- 60 -->
      <g transform="translate(255.61337 197.488555)scale(0.1 -0.1)">
       <use xlink:href="#DejaVuSans-36"/>
       <use x="63.623047" xlink:href="#DejaVuSans-30"/>
      </g>
     </g>
    </g>
    <g id="xtick_11">
     <g id="line2d_16">
      <g>
       <use style="stroke:#000000;stroke-width:0.8;" x="327.562647" xlink:href="#m309d07ff84" y="182.890118"/>
      </g>
     </g>
     <g id="text_16">
      <!-- 80 -->
      <g transform="translate(321.200147 197.488555)scale(0.1 -0.1)">
       <use xlink:href="#DejaVuSans-38"/>
       <use x="63.623047" xlink:href="#DejaVuSans-30"/>
      </g>
     </g>
    </g>
    <g id="xtick_12">
     <g id="line2d_17">
      <g>
       <use style="stroke:#000000;stroke-width:0.8;" x="393.149424" xlink:href="#m309d07ff84" y="182.890118"/>
      </g>
     </g>
     <g id="text_17">
      <!-- 100 -->
      <g transform="translate(383.605674 197.488555)scale(0.1 -0.1)">
       <use xlink:href="#DejaVuSans-31"/>
       <use x="63.623047" xlink:href="#DejaVuSans-30"/>
       <use x="127.246094" xlink:href="#DejaVuSans-30"/>
      </g>
     </g>
    </g>
    <g id="text_18">
     <!-- Time -->
     <g transform="translate(215.155313 211.16668)scale(0.1 -0.1)">
      <use xlink:href="#DejaVuSans-54"/>
      <use x="61.037109" xlink:href="#DejaVuSans-69"/>
      <use x="88.820312" xlink:href="#DejaVuSans-6d"/>
      <use x="186.232422" xlink:href="#DejaVuSans-65"/>
     </g>
    </g>
   </g>
   <g id="matplotlib.axis_4">
    <g id="ytick_4">
     <g id="line2d_18">
      <g>
       <use style="stroke:#000000;stroke-width:0.8;" x="48.982813" xlink:href="#m9f693c5089" y="167.256153"/>
      </g>
     </g>
     <g id="text_19">
      <!-- 0 -->
      <g transform="translate(35.620313 171.055372)scale(0.1 -0.1)">
       <use xlink:href="#DejaVuSans-30"/>
      </g>
     </g>
    </g>
    <g id="ytick_5">
     <g id="line2d_19">
      <g>
       <use style="stroke:#000000;stroke-width:0.8;" x="48.982813" xlink:href="#m9f693c5089" y="138.032554"/>
      </g>
     </g>
     <g id="text_20">
      <!-- 1 -->
      <g transform="translate(35.620313 141.831773)scale(0.1 -0.1)">
       <use xlink:href="#DejaVuSans-31"/>
      </g>
     </g>
    </g>
    <g id="ytick_6">
     <g id="line2d_20">
      <g>
       <use style="stroke:#000000;stroke-width:0.8;" x="48.982813" xlink:href="#m9f693c5089" y="108.808955"/>
      </g>
     </g>
     <g id="text_21">
      <!-- 2 -->
      <g transform="translate(35.620313 112.608174)scale(0.1 -0.1)">
       <use xlink:href="#DejaVuSans-32"/>
      </g>
     </g>
    </g>
    <g id="text_22">
     <!-- y -->
     <defs>
      <path d="M 32.171875 -5.078125 
Q 28.375 -14.84375 24.75 -17.8125 
Q 21.140625 -20.796875 15.09375 -20.796875 
L 7.90625 -20.796875 
L 7.90625 -13.28125 
L 13.1875 -13.28125 
Q 16.890625 -13.28125 18.9375 -11.515625 
Q 21 -9.765625 23.484375 -3.21875 
L 25.09375 0.875 
L 2.984375 54.6875 
L 12.5 54.6875 
L 29.59375 11.921875 
L 46.6875 54.6875 
L 56.203125 54.6875 
z
" id="DejaVuSans-79"/>
     </defs>
     <g transform="translate(29.540625 146.715375)rotate(-90)scale(0.1 -0.1)">
      <use xlink:href="#DejaVuSans-79"/>
     </g>
    </g>
   </g>
   <g id="line2d_21">
    <path clip-path="url(#pf5de78f6f5)" d="M 65.21554 167.256153 
L 68.494879 167.563662 
L 71.774217 168.000661 
L 75.053556 168.481817 
L 78.332895 168.987822 
L 81.612234 169.391391 
L 84.891573 169.733296 
L 88.170912 170.31002 
L 91.450251 171.052048 
L 94.729589 171.495458 
L 98.008928 171.795319 
L 101.288267 172.277521 
L 104.567606 172.796426 
L 107.846945 173.140087 
L 111.126284 173.579978 
L 114.405622 174.118579 
L 117.684961 174.456143 
L 120.9643 174.822193 
L 124.243639 175.324154 
L 127.522978 175.846341 
L 130.802317 176.18579 
L 134.081655 176.649808 
L 137.360994 177.167044 
L 140.640333 177.696986 
L 143.919672 178.128759 
L 147.199011 178.437133 
L 150.47835 178.690053 
L 153.757689 178.925629 
L 157.037027 179.177277 
L 160.316366 179.302699 
L 163.595705 179.332471 
L 166.875044 179.302948 
L 170.154383 179.173297 
L 173.433722 178.880333 
L 176.71306 178.457188 
L 179.992399 178.038721 
L 183.271738 177.497043 
L 186.551077 176.996059 
L 189.830416 176.486581 
L 193.109755 176.001404 
L 196.389093 175.556988 
L 199.668432 175.068775 
L 202.947771 174.574918 
L 206.22711 174.000694 
L 209.506449 173.630155 
L 212.785788 173.24436 
L 216.065127 172.904024 
L 219.344465 172.3551 
L 222.623804 171.726828 
L 225.903143 170.858732 
L 229.182482 169.995966 
L 232.461821 169.254971 
L 235.74116 168.604807 
L 239.020498 167.874308 
L 242.299837 167.033246 
L 245.579176 166.133464 
L 248.858515 165.177166 
L 252.137854 164.248325 
L 255.417193 163.364982 
L 258.696532 162.447001 
L 261.97587 161.622791 
L 265.255209 160.787853 
L 268.534548 159.958997 
L 271.813887 158.987277 
L 275.093226 157.966916 
L 278.372565 156.931678 
L 281.651903 155.939807 
L 284.931242 154.780825 
L 288.210581 153.572523 
L 291.48992 152.316969 
L 294.769259 151.112525 
L 298.048598 149.886787 
L 301.327936 148.608084 
L 304.607275 147.333778 
L 307.886614 146.069801 
L 311.165953 144.626306 
L 314.445292 143.177012 
L 317.724631 141.794785 
L 321.00397 140.419371 
L 324.283308 138.917695 
L 327.562647 137.443707 
L 330.841986 136.030057 
L 334.121325 134.6113 
L 337.400664 133.283269 
L 340.680003 131.870511 
L 343.959341 130.383577 
L 347.23868 129.006952 
L 350.518019 127.742984 
L 353.797358 126.537124 
L 357.076697 125.267843 
L 360.356036 123.896105 
L 363.635374 122.446977 
L 366.914713 120.785672 
L 370.194052 119.036553 
L 373.473391 117.259265 
L 376.75273 115.431118 
L 380.032069 113.49933 
L 383.311408 111.557269 
L 386.590746 109.781217 
L 389.870085 108.179529 
" style="fill:none;stroke:#ff0000;stroke-linecap:square;stroke-width:1.5;"/>
    <g clip-path="url(#pf5de78f6f5)">
     <use style="fill:#ff0000;stroke:#ff0000;" x="65.21554" xlink:href="#mb659d78331" y="167.256153"/>
     <use style="fill:#ff0000;stroke:#ff0000;" x="98.008928" xlink:href="#mb659d78331" y="171.795319"/>
     <use style="fill:#ff0000;stroke:#ff0000;" x="130.802317" xlink:href="#mb659d78331" y="176.18579"/>
     <use style="fill:#ff0000;stroke:#ff0000;" x="163.595705" xlink:href="#mb659d78331" y="179.332471"/>
     <use style="fill:#ff0000;stroke:#ff0000;" x="196.389093" xlink:href="#mb659d78331" y="175.556988"/>
     <use style="fill:#ff0000;stroke:#ff0000;" x="229.182482" xlink:href="#mb659d78331" y="169.995966"/>
     <use style="fill:#ff0000;stroke:#ff0000;" x="261.97587" xlink:href="#mb659d78331" y="161.622791"/>
     <use style="fill:#ff0000;stroke:#ff0000;" x="294.769259" xlink:href="#mb659d78331" y="151.112525"/>
     <use style="fill:#ff0000;stroke:#ff0000;" x="327.562647" xlink:href="#mb659d78331" y="137.443707"/>
     <use style="fill:#ff0000;stroke:#ff0000;" x="360.356036" xlink:href="#mb659d78331" y="123.896105"/>
    </g>
   </g>
   <g id="line2d_22">
    <path clip-path="url(#pf5de78f6f5)" d="M 65.21554 167.256153 
L 68.494879 167.707624 
L 71.774217 168.001344 
L 75.053556 168.215276 
L 78.332895 168.508188 
L 81.612234 168.885103 
L 84.891573 169.397324 
L 88.170912 170.05328 
L 91.450251 170.675708 
L 94.729589 171.213258 
L 98.008928 171.748817 
L 101.288267 172.301636 
L 104.567606 172.942152 
L 107.846945 173.487088 
L 111.126284 173.977145 
L 114.405622 174.42783 
L 117.684961 174.788151 
L 120.9643 175.19543 
L 124.243639 175.592428 
L 127.522978 176.016908 
L 130.802317 176.382319 
L 134.081655 176.734677 
L 137.360994 177.026943 
L 140.640333 177.33289 
L 143.919672 177.702256 
L 147.199011 178.028411 
L 150.47835 178.423945 
L 153.757689 178.710041 
L 157.037027 178.747718 
L 160.316366 178.647836 
L 163.595705 178.467072 
L 166.875044 178.0246 
L 170.154383 177.49794 
L 173.433722 176.797432 
L 176.71306 176.336004 
L 179.992399 175.87564 
L 183.271738 175.3628 
L 186.551077 174.877566 
L 189.830416 174.524157 
L 193.109755 174.193723 
L 196.389093 174.090788 
L 199.668432 173.947546 
L 202.947771 174.074014 
L 206.22711 174.1845 
L 209.506449 174.412785 
L 212.785788 174.50877 
L 216.065127 174.47994 
L 219.344465 174.312347 
L 222.623804 174.160356 
L 225.903143 173.886362 
L 229.182482 173.590845 
L 232.461821 173.291205 
L 235.74116 172.896263 
L 239.020498 172.344968 
L 242.299837 171.799979 
L 245.579176 171.201096 
L 248.858515 170.715494 
L 252.137854 170.356109 
L 255.417193 170.038915 
L 258.696532 169.690322 
L 261.97587 169.436676 
L 265.255209 169.149659 
L 268.534548 168.743425 
L 271.813887 168.367287 
L 275.093226 168.030997 
L 278.372565 167.635844 
L 281.651903 167.094845 
L 284.931242 166.354703 
L 288.210581 165.6561 
L 291.48992 164.721541 
L 294.769259 163.857995 
L 298.048598 163.087255 
L 301.327936 162.256371 
L 304.607275 161.33927 
L 307.886614 160.538873 
L 311.165953 159.710984 
L 314.445292 158.867837 
L 317.724631 158.160727 
L 321.00397 157.450784 
L 324.283308 156.803817 
L 327.562647 156.154117 
L 330.841986 155.457184 
L 334.121325 154.724699 
L 337.400664 154.019781 
L 340.680003 153.175243 
L 343.959341 152.25811 
L 347.23868 151.186434 
L 350.518019 150.025399 
L 353.797358 148.958587 
L 357.076697 147.987764 
L 360.356036 146.82259 
L 363.635374 145.396954 
L 366.914713 143.724542 
L 370.194052 142.033411 
L 373.473391 140.344361 
L 376.75273 138.652762 
L 380.032069 136.838135 
L 383.311408 134.969012 
L 386.590746 133.039053 
L 389.870085 131.187286 
" style="fill:none;stroke:#0000ff;stroke-linecap:square;stroke-width:1.5;"/>
    <g clip-path="url(#pf5de78f6f5)">
     <use style="fill:#0000ff;stroke:#0000ff;" x="65.21554" xlink:href="#m4a6e18a931" y="167.256153"/>
     <use style="fill:#0000ff;stroke:#0000ff;" x="98.008928" xlink:href="#m4a6e18a931" y="171.748817"/>
     <use style="fill:#0000ff;stroke:#0000ff;" x="130.802317" xlink:href="#m4a6e18a931" y="176.382319"/>
     <use style="fill:#0000ff;stroke:#0000ff;" x="163.595705" xlink:href="#m4a6e18a931" y="178.467072"/>
     <use style="fill:#0000ff;stroke:#0000ff;" x="196.389093" xlink:href="#m4a6e18a931" y="174.090788"/>
     <use style="fill:#0000ff;stroke:#0000ff;" x="229.182482" xlink:href="#m4a6e18a931" y="173.590845"/>
     <use style="fill:#0000ff;stroke:#0000ff;" x="261.97587" xlink:href="#m4a6e18a931" y="169.436676"/>
     <use style="fill:#0000ff;stroke:#0000ff;" x="294.769259" xlink:href="#m4a6e18a931" y="163.857995"/>
     <use style="fill:#0000ff;stroke:#0000ff;" x="327.562647" xlink:href="#m4a6e18a931" y="156.154117"/>
     <use style="fill:#0000ff;stroke:#0000ff;" x="360.356036" xlink:href="#m4a6e18a931" y="146.82259"/>
    </g>
   </g>
   <g id="patch_8">
    <path d="M 48.982813 182.890118 
L 48.982813 104.621882 
" style="fill:none;stroke:#000000;stroke-linecap:square;stroke-linejoin:miter;stroke-width:0.8;"/>
   </g>
   <g id="patch_9">
    <path d="M 406.102813 182.890118 
L 406.102813 104.621882 
" style="fill:none;stroke:#000000;stroke-linecap:square;stroke-linejoin:miter;stroke-width:0.8;"/>
   </g>
   <g id="patch_10">
    <path d="M 48.982813 182.890118 
L 406.102813 182.890118 
" style="fill:none;stroke:#000000;stroke-linecap:square;stroke-linejoin:miter;stroke-width:0.8;"/>
   </g>
   <g id="patch_11">
    <path d="M 48.982813 104.621882 
L 406.102813 104.621882 
" style="fill:none;stroke:#000000;stroke-linecap:square;stroke-linejoin:miter;stroke-width:0.8;"/>
   </g>
  </g>
  <g id="axes_3">
   <g id="patch_12">
    <path d="M 48.982813 276.812 
L 406.102813 276.812 
L 406.102813 198.543765 
L 48.982813 198.543765 
z
" style="fill:#ffffff;"/>
   </g>
   <g id="matplotlib.axis_5">
    <g id="xtick_13">
     <g id="line2d_23">
      <g>
       <use style="stroke:#000000;stroke-width:0.8;" x="65.21554" xlink:href="#m309d07ff84" y="276.812"/>
      </g>
     </g>
     <g id="text_23">
      <!-- 0 -->
      <g transform="translate(62.03429 291.410438)scale(0.1 -0.1)">
       <use xlink:href="#DejaVuSans-30"/>
      </g>
     </g>
    </g>
    <g id="xtick_14">
     <g id="line2d_24">
      <g>
       <use style="stroke:#000000;stroke-width:0.8;" x="130.802317" xlink:href="#m309d07ff84" y="276.812"/>
      </g>
     </g>
     <g id="text_24">
      <!-- 20 -->
      <g transform="translate(124.439817 291.410438)scale(0.1 -0.1)">
       <use xlink:href="#DejaVuSans-32"/>
       <use x="63.623047" xlink:href="#DejaVuSans-30"/>
      </g>
     </g>
    </g>
    <g id="xtick_15">
     <g id="line2d_25">
      <g>
       <use style="stroke:#000000;stroke-width:0.8;" x="196.389093" xlink:href="#m309d07ff84" y="276.812"/>
      </g>
     </g>
     <g id="text_25">
      <!-- 40 -->
      <g transform="translate(190.026593 291.410438)scale(0.1 -0.1)">
       <use xlink:href="#DejaVuSans-34"/>
       <use x="63.623047" xlink:href="#DejaVuSans-30"/>
      </g>
     </g>
    </g>
    <g id="xtick_16">
     <g id="line2d_26">
      <g>
       <use style="stroke:#000000;stroke-width:0.8;" x="261.97587" xlink:href="#m309d07ff84" y="276.812"/>
      </g>
     </g>
     <g id="text_26">
      <!-- 60 -->
      <g transform="translate(255.61337 291.410438)scale(0.1 -0.1)">
       <use xlink:href="#DejaVuSans-36"/>
       <use x="63.623047" xlink:href="#DejaVuSans-30"/>
      </g>
     </g>
    </g>
    <g id="xtick_17">
     <g id="line2d_27">
      <g>
       <use style="stroke:#000000;stroke-width:0.8;" x="327.562647" xlink:href="#m309d07ff84" y="276.812"/>
      </g>
     </g>
     <g id="text_27">
      <!-- 80 -->
      <g transform="translate(321.200147 291.410438)scale(0.1 -0.1)">
       <use xlink:href="#DejaVuSans-38"/>
       <use x="63.623047" xlink:href="#DejaVuSans-30"/>
      </g>
     </g>
    </g>
    <g id="xtick_18">
     <g id="line2d_28">
      <g>
       <use style="stroke:#000000;stroke-width:0.8;" x="393.149424" xlink:href="#m309d07ff84" y="276.812"/>
      </g>
     </g>
     <g id="text_28">
      <!-- 100 -->
      <g transform="translate(383.605674 291.410438)scale(0.1 -0.1)">
       <use xlink:href="#DejaVuSans-31"/>
       <use x="63.623047" xlink:href="#DejaVuSans-30"/>
       <use x="127.246094" xlink:href="#DejaVuSans-30"/>
      </g>
     </g>
    </g>
    <g id="text_29">
     <!-- Time -->
     <g transform="translate(215.155313 305.088562)scale(0.1 -0.1)">
      <use xlink:href="#DejaVuSans-54"/>
      <use x="61.037109" xlink:href="#DejaVuSans-69"/>
      <use x="88.820312" xlink:href="#DejaVuSans-6d"/>
      <use x="186.232422" xlink:href="#DejaVuSans-65"/>
     </g>
    </g>
   </g>
   <g id="matplotlib.axis_6">
    <g id="ytick_7">
     <g id="line2d_29">
      <g>
       <use style="stroke:#000000;stroke-width:0.8;" x="48.982813" xlink:href="#m9f693c5089" y="273.254353"/>
      </g>
     </g>
     <g id="text_30">
      <!-- 0 -->
      <g transform="translate(35.620313 277.053572)scale(0.1 -0.1)">
       <use xlink:href="#DejaVuSans-30"/>
      </g>
     </g>
    </g>
    <g id="ytick_8">
     <g id="line2d_30">
      <g>
       <use style="stroke:#000000;stroke-width:0.8;" x="48.982813" xlink:href="#m9f693c5089" y="225.426958"/>
      </g>
     </g>
     <g id="text_31">
      <!-- 50 -->
      <defs>
       <path d="M 10.796875 72.90625 
L 49.515625 72.90625 
L 49.515625 64.59375 
L 19.828125 64.59375 
L 19.828125 46.734375 
Q 21.96875 47.46875 24.109375 47.828125 
Q 26.265625 48.1875 28.421875 48.1875 
Q 40.625 48.1875 47.75 41.5 
Q 54.890625 34.8125 54.890625 23.390625 
Q 54.890625 11.625 47.5625 5.09375 
Q 40.234375 -1.421875 26.90625 -1.421875 
Q 22.3125 -1.421875 17.546875 -0.640625 
Q 12.796875 0.140625 7.71875 1.703125 
L 7.71875 11.625 
Q 12.109375 9.234375 16.796875 8.0625 
Q 21.484375 6.890625 26.703125 6.890625 
Q 35.15625 6.890625 40.078125 11.328125 
Q 45.015625 15.765625 45.015625 23.390625 
Q 45.015625 31 40.078125 35.4375 
Q 35.15625 39.890625 26.703125 39.890625 
Q 22.75 39.890625 18.8125 39.015625 
Q 14.890625 38.140625 10.796875 36.28125 
z
" id="DejaVuSans-35"/>
      </defs>
      <g transform="translate(29.257813 229.226177)scale(0.1 -0.1)">
       <use xlink:href="#DejaVuSans-35"/>
       <use x="63.623047" xlink:href="#DejaVuSans-30"/>
      </g>
     </g>
    </g>
    <g id="text_32">
     <!-- z -->
     <defs>
      <path d="M 5.515625 54.6875 
L 48.1875 54.6875 
L 48.1875 46.484375 
L 14.40625 7.171875 
L 48.1875 7.171875 
L 48.1875 0 
L 4.296875 0 
L 4.296875 8.203125 
L 38.09375 47.515625 
L 5.515625 47.515625 
z
" id="DejaVuSans-7a"/>
     </defs>
     <g transform="translate(23.178125 240.302101)rotate(-90)scale(0.1 -0.1)">
      <use xlink:href="#DejaVuSans-7a"/>
     </g>
    </g>
   </g>
   <g id="line2d_31">
    <path clip-path="url(#p58732d988f)" d="M 65.21554 273.254353 
L 68.494879 272.519618 
L 71.774217 271.782425 
L 75.053556 271.053935 
L 78.332895 270.33857 
L 81.612234 269.628365 
L 84.891573 268.913937 
L 88.170912 268.189502 
L 91.450251 267.467117 
L 94.729589 266.745426 
L 98.008928 266.029642 
L 101.288267 265.3162 
L 104.567606 264.596638 
L 107.846945 263.881357 
L 111.126284 263.166512 
L 114.405622 262.452916 
L 117.684961 261.749549 
L 120.9643 261.049143 
L 124.243639 260.352796 
L 127.522978 259.662331 
L 130.802317 258.977363 
L 134.081655 258.287945 
L 137.360994 257.600983 
L 140.640333 256.921996 
L 143.919672 256.2517 
L 147.199011 255.585653 
L 150.47835 254.924516 
L 153.757689 254.270241 
L 157.037027 253.618216 
L 160.316366 252.971793 
L 163.595705 252.332741 
L 166.875044 251.702546 
L 170.154383 251.084399 
L 173.433722 250.468769 
L 176.71306 249.872044 
L 179.992399 249.275876 
L 183.271738 248.686256 
L 186.551077 248.096068 
L 189.830416 247.512597 
L 193.109755 246.942665 
L 196.389093 246.381339 
L 199.668432 245.824909 
L 202.947771 245.264988 
L 206.22711 244.702414 
L 209.506449 244.132037 
L 212.785788 243.559542 
L 216.065127 242.986281 
L 219.344465 242.419732 
L 222.623804 241.856113 
L 225.903143 241.291406 
L 229.182482 240.724861 
L 232.461821 240.155925 
L 235.74116 239.578108 
L 239.020498 238.998412 
L 242.299837 238.417191 
L 245.579176 237.835425 
L 248.858515 237.257287 
L 252.137854 236.683119 
L 255.417193 236.112177 
L 258.696532 235.53672 
L 261.97587 234.954291 
L 265.255209 234.366666 
L 268.534548 233.787626 
L 271.813887 233.210794 
L 275.093226 232.624056 
L 278.372565 232.036989 
L 281.651903 231.435435 
L 284.931242 230.822059 
L 288.210581 230.213518 
L 291.48992 229.597405 
L 294.769259 228.969441 
L 298.048598 228.325067 
L 301.327936 227.680227 
L 304.607275 227.033069 
L 307.886614 226.38733 
L 311.165953 225.740209 
L 314.445292 225.094843 
L 317.724631 224.452199 
L 321.00397 223.808449 
L 324.283308 223.166892 
L 327.562647 222.526218 
L 330.841986 221.8816 
L 334.121325 221.238441 
L 337.400664 220.59587 
L 340.680003 219.951376 
L 343.959341 219.305831 
L 347.23868 218.655356 
L 350.518019 218.006491 
L 353.797358 217.351809 
L 357.076697 216.69485 
L 360.356036 216.028137 
L 363.635374 215.35802 
L 366.914713 214.693833 
L 370.194052 214.030299 
L 373.473391 213.363506 
L 376.75273 212.689335 
L 380.032069 212.019415 
L 383.311408 211.345682 
L 386.590746 210.665629 
L 389.870085 209.982189 
" style="fill:none;stroke:#ff0000;stroke-linecap:square;stroke-width:1.5;"/>
    <g clip-path="url(#p58732d988f)">
     <use style="fill:#ff0000;stroke:#ff0000;" x="65.21554" xlink:href="#mb659d78331" y="273.254353"/>
     <use style="fill:#ff0000;stroke:#ff0000;" x="98.008928" xlink:href="#mb659d78331" y="266.029642"/>
     <use style="fill:#ff0000;stroke:#ff0000;" x="130.802317" xlink:href="#mb659d78331" y="258.977363"/>
     <use style="fill:#ff0000;stroke:#ff0000;" x="163.595705" xlink:href="#mb659d78331" y="252.332741"/>
     <use style="fill:#ff0000;stroke:#ff0000;" x="196.389093" xlink:href="#mb659d78331" y="246.381339"/>
     <use style="fill:#ff0000;stroke:#ff0000;" x="229.182482" xlink:href="#mb659d78331" y="240.724861"/>
     <use style="fill:#ff0000;stroke:#ff0000;" x="261.97587" xlink:href="#mb659d78331" y="234.954291"/>
     <use style="fill:#ff0000;stroke:#ff0000;" x="294.769259" xlink:href="#mb659d78331" y="228.969441"/>
     <use style="fill:#ff0000;stroke:#ff0000;" x="327.562647" xlink:href="#mb659d78331" y="222.526218"/>
     <use style="fill:#ff0000;stroke:#ff0000;" x="360.356036" xlink:href="#mb659d78331" y="216.028137"/>
    </g>
   </g>
   <g id="line2d_32">
    <path clip-path="url(#p58732d988f)" d="M 65.21554 273.254353 
L 68.494879 272.440551 
L 71.774217 271.653387 
L 75.053556 270.877553 
L 78.332895 270.074571 
L 81.612234 269.294464 
L 84.891573 268.527442 
L 88.170912 267.744123 
L 91.450251 266.942054 
L 94.729589 266.171111 
L 98.008928 265.412657 
L 101.288267 264.637548 
L 104.567606 263.854917 
L 107.846945 263.09201 
L 111.126284 262.321407 
L 114.405622 261.521239 
L 117.684961 260.710696 
L 120.9643 259.904805 
L 124.243639 259.095319 
L 127.522978 258.283867 
L 130.802317 257.48148 
L 134.081655 256.65836 
L 137.360994 255.821975 
L 140.640333 255.014528 
L 143.919672 254.257828 
L 147.199011 253.522431 
L 150.47835 252.804874 
L 153.757689 252.100203 
L 157.037027 251.365057 
L 160.316366 250.625829 
L 163.595705 249.914413 
L 166.875044 249.189668 
L 170.154383 248.455098 
L 173.433722 247.718094 
L 176.71306 246.986974 
L 179.992399 246.258717 
L 183.271738 245.525084 
L 186.551077 244.775771 
L 189.830416 244.044525 
L 193.109755 243.323952 
L 196.389093 242.612535 
L 199.668432 241.935795 
L 202.947771 241.283557 
L 206.22711 240.638111 
L 209.506449 239.996715 
L 212.785788 239.351035 
L 216.065127 238.703322 
L 219.344465 238.073179 
L 222.623804 237.45815 
L 225.903143 236.842158 
L 229.182482 236.2172 
L 232.461821 235.589783 
L 235.74116 234.953394 
L 239.020498 234.30552 
L 242.299837 233.659808 
L 245.579176 233.000758 
L 248.858515 232.363233 
L 252.137854 231.76769 
L 255.417193 231.178692 
L 258.696532 230.562955 
L 261.97587 229.953013 
L 265.255209 229.356948 
L 268.534548 228.749782 
L 271.813887 228.135228 
L 275.093226 227.51578 
L 278.372565 226.883013 
L 281.651903 226.230116 
L 284.931242 225.544691 
L 288.210581 224.875381 
L 291.48992 224.176714 
L 294.769259 223.479697 
L 298.048598 222.802235 
L 301.327936 222.12312 
L 304.607275 221.444756 
L 307.886614 220.773242 
L 311.165953 220.08735 
L 314.445292 219.400601 
L 317.724631 218.694017 
L 321.00397 217.97419 
L 324.283308 217.273798 
L 327.562647 216.577723 
L 330.841986 215.867551 
L 334.121325 215.160456 
L 337.400664 214.473794 
L 340.680003 213.75704 
L 343.959341 213.025216 
L 347.23868 212.261551 
L 350.518019 211.495485 
L 353.797358 210.749321 
L 357.076697 210.016365 
L 360.356036 209.253233 
L 363.635374 208.492444 
L 366.914713 207.748666 
L 370.194052 206.998538 
L 373.473391 206.210549 
L 376.75273 205.39515 
L 380.032069 204.573861 
L 383.311408 203.761541 
L 386.590746 202.931582 
L 389.870085 202.101412 
" style="fill:none;stroke:#0000ff;stroke-linecap:square;stroke-width:1.5;"/>
    <g clip-path="url(#p58732d988f)">
     <use style="fill:#0000ff;stroke:#0000ff;" x="65.21554" xlink:href="#m4a6e18a931" y="273.254353"/>
     <use style="fill:#0000ff;stroke:#0000ff;" x="98.008928" xlink:href="#m4a6e18a931" y="265.412657"/>
     <use style="fill:#0000ff;stroke:#0000ff;" x="130.802317" xlink:href="#m4a6e18a931" y="257.48148"/>
     <use style="fill:#0000ff;stroke:#0000ff;" x="163.595705" xlink:href="#m4a6e18a931" y="249.914413"/>
     <use style="fill:#0000ff;stroke:#0000ff;" x="196.389093" xlink:href="#m4a6e18a931" y="242.612535"/>
     <use style="fill:#0000ff;stroke:#0000ff;" x="229.182482" xlink:href="#m4a6e18a931" y="236.2172"/>
     <use style="fill:#0000ff;stroke:#0000ff;" x="261.97587" xlink:href="#m4a6e18a931" y="229.953013"/>
     <use style="fill:#0000ff;stroke:#0000ff;" x="294.769259" xlink:href="#m4a6e18a931" y="223.479697"/>
     <use style="fill:#0000ff;stroke:#0000ff;" x="327.562647" xlink:href="#m4a6e18a931" y="216.577723"/>
     <use style="fill:#0000ff;stroke:#0000ff;" x="360.356036" xlink:href="#m4a6e18a931" y="209.253233"/>
    </g>
   </g>
   <g id="patch_13">
    <path d="M 48.982813 276.812 
L 48.982813 198.543765 
" style="fill:none;stroke:#000000;stroke-linecap:square;stroke-linejoin:miter;stroke-width:0.8;"/>
   </g>
   <g id="patch_14">
    <path d="M 406.102813 276.812 
L 406.102813 198.543765 
" style="fill:none;stroke:#000000;stroke-linecap:square;stroke-linejoin:miter;stroke-width:0.8;"/>
   </g>
   <g id="patch_15">
    <path d="M 48.982813 276.812 
L 406.102813 276.812 
" style="fill:none;stroke:#000000;stroke-linecap:square;stroke-linejoin:miter;stroke-width:0.8;"/>
   </g>
   <g id="patch_16">
    <path d="M 48.982813 198.543765 
L 406.102813 198.543765 
" style="fill:none;stroke:#000000;stroke-linecap:square;stroke-linejoin:miter;stroke-width:0.8;"/>
   </g>
   <g id="legend_1">
    <g id="patch_17">
     <path d="M 55.982813 271.812 
L 154.951563 271.812 
Q 156.951563 271.812 156.951563 269.812 
L 156.951563 241.45575 
Q 156.951563 239.45575 154.951563 239.45575 
L 55.982813 239.45575 
Q 53.982813 239.45575 53.982813 241.45575 
L 53.982813 269.812 
Q 53.982813 271.812 55.982813 271.812 
z
" style="fill:#ffffff;opacity:0.8;stroke:#cccccc;stroke-linejoin:miter;"/>
    </g>
    <g id="line2d_33">
     <path d="M 57.982813 247.554187 
L 77.982813 247.554187 
" style="fill:none;stroke:#ff0000;stroke-linecap:square;stroke-width:1.5;"/>
    </g>
    <g id="line2d_34">
     <g>
      <use style="fill:#ff0000;stroke:#ff0000;" x="67.982813" xlink:href="#mb659d78331" y="247.554187"/>
     </g>
    </g>
    <g id="text_33">
     <!-- Ground Truth -->
     <defs>
      <path d="M 59.515625 10.40625 
L 59.515625 29.984375 
L 43.40625 29.984375 
L 43.40625 38.09375 
L 69.28125 38.09375 
L 69.28125 6.78125 
Q 63.578125 2.734375 56.6875 0.65625 
Q 49.8125 -1.421875 42 -1.421875 
Q 24.90625 -1.421875 15.25 8.5625 
Q 5.609375 18.5625 5.609375 36.375 
Q 5.609375 54.25 15.25 64.234375 
Q 24.90625 74.21875 42 74.21875 
Q 49.125 74.21875 55.546875 72.453125 
Q 61.96875 70.703125 67.390625 67.28125 
L 67.390625 56.78125 
Q 61.921875 61.421875 55.765625 63.765625 
Q 49.609375 66.109375 42.828125 66.109375 
Q 29.4375 66.109375 22.71875 58.640625 
Q 16.015625 51.171875 16.015625 36.375 
Q 16.015625 21.625 22.71875 14.15625 
Q 29.4375 6.6875 42.828125 6.6875 
Q 48.046875 6.6875 52.140625 7.59375 
Q 56.25 8.5 59.515625 10.40625 
z
" id="DejaVuSans-47"/>
      <path d="M 41.109375 46.296875 
Q 39.59375 47.171875 37.8125 47.578125 
Q 36.03125 48 33.890625 48 
Q 26.265625 48 22.1875 43.046875 
Q 18.109375 38.09375 18.109375 28.8125 
L 18.109375 0 
L 9.078125 0 
L 9.078125 54.6875 
L 18.109375 54.6875 
L 18.109375 46.1875 
Q 20.953125 51.171875 25.484375 53.578125 
Q 30.03125 56 36.53125 56 
Q 37.453125 56 38.578125 55.875 
Q 39.703125 55.765625 41.0625 55.515625 
z
" id="DejaVuSans-72"/>
      <path d="M 30.609375 48.390625 
Q 23.390625 48.390625 19.1875 42.75 
Q 14.984375 37.109375 14.984375 27.296875 
Q 14.984375 17.484375 19.15625 11.84375 
Q 23.34375 6.203125 30.609375 6.203125 
Q 37.796875 6.203125 41.984375 11.859375 
Q 46.1875 17.53125 46.1875 27.296875 
Q 46.1875 37.015625 41.984375 42.703125 
Q 37.796875 48.390625 30.609375 48.390625 
z
M 30.609375 56 
Q 42.328125 56 49.015625 48.375 
Q 55.71875 40.765625 55.71875 27.296875 
Q 55.71875 13.875 49.015625 6.21875 
Q 42.328125 -1.421875 30.609375 -1.421875 
Q 18.84375 -1.421875 12.171875 6.21875 
Q 5.515625 13.875 5.515625 27.296875 
Q 5.515625 40.765625 12.171875 48.375 
Q 18.84375 56 30.609375 56 
z
" id="DejaVuSans-6f"/>
      <path d="M 8.5 21.578125 
L 8.5 54.6875 
L 17.484375 54.6875 
L 17.484375 21.921875 
Q 17.484375 14.15625 20.5 10.265625 
Q 23.53125 6.390625 29.59375 6.390625 
Q 36.859375 6.390625 41.078125 11.03125 
Q 45.3125 15.671875 45.3125 23.6875 
L 45.3125 54.6875 
L 54.296875 54.6875 
L 54.296875 0 
L 45.3125 0 
L 45.3125 8.40625 
Q 42.046875 3.421875 37.71875 1 
Q 33.40625 -1.421875 27.6875 -1.421875 
Q 18.265625 -1.421875 13.375 4.4375 
Q 8.5 10.296875 8.5 21.578125 
z
M 31.109375 56 
z
" id="DejaVuSans-75"/>
      <path d="M 54.890625 33.015625 
L 54.890625 0 
L 45.90625 0 
L 45.90625 32.71875 
Q 45.90625 40.484375 42.875 44.328125 
Q 39.84375 48.1875 33.796875 48.1875 
Q 26.515625 48.1875 22.3125 43.546875 
Q 18.109375 38.921875 18.109375 30.90625 
L 18.109375 0 
L 9.078125 0 
L 9.078125 54.6875 
L 18.109375 54.6875 
L 18.109375 46.1875 
Q 21.34375 51.125 25.703125 53.5625 
Q 30.078125 56 35.796875 56 
Q 45.21875 56 50.046875 50.171875 
Q 54.890625 44.34375 54.890625 33.015625 
z
" id="DejaVuSans-6e"/>
      <path d="M 45.40625 46.390625 
L 45.40625 75.984375 
L 54.390625 75.984375 
L 54.390625 0 
L 45.40625 0 
L 45.40625 8.203125 
Q 42.578125 3.328125 38.25 0.953125 
Q 33.9375 -1.421875 27.875 -1.421875 
Q 17.96875 -1.421875 11.734375 6.484375 
Q 5.515625 14.40625 5.515625 27.296875 
Q 5.515625 40.1875 11.734375 48.09375 
Q 17.96875 56 27.875 56 
Q 33.9375 56 38.25 53.625 
Q 42.578125 51.265625 45.40625 46.390625 
z
M 14.796875 27.296875 
Q 14.796875 17.390625 18.875 11.75 
Q 22.953125 6.109375 30.078125 6.109375 
Q 37.203125 6.109375 41.296875 11.75 
Q 45.40625 17.390625 45.40625 27.296875 
Q 45.40625 37.203125 41.296875 42.84375 
Q 37.203125 48.484375 30.078125 48.484375 
Q 22.953125 48.484375 18.875 42.84375 
Q 14.796875 37.203125 14.796875 27.296875 
z
" id="DejaVuSans-64"/>
      <path id="DejaVuSans-20"/>
      <path d="M 18.3125 70.21875 
L 18.3125 54.6875 
L 36.8125 54.6875 
L 36.8125 47.703125 
L 18.3125 47.703125 
L 18.3125 18.015625 
Q 18.3125 11.328125 20.140625 9.421875 
Q 21.96875 7.515625 27.59375 7.515625 
L 36.8125 7.515625 
L 36.8125 0 
L 27.59375 0 
Q 17.1875 0 13.234375 3.875 
Q 9.28125 7.765625 9.28125 18.015625 
L 9.28125 47.703125 
L 2.6875 47.703125 
L 2.6875 54.6875 
L 9.28125 54.6875 
L 9.28125 70.21875 
z
" id="DejaVuSans-74"/>
      <path d="M 54.890625 33.015625 
L 54.890625 0 
L 45.90625 0 
L 45.90625 32.71875 
Q 45.90625 40.484375 42.875 44.328125 
Q 39.84375 48.1875 33.796875 48.1875 
Q 26.515625 48.1875 22.3125 43.546875 
Q 18.109375 38.921875 18.109375 30.90625 
L 18.109375 0 
L 9.078125 0 
L 9.078125 75.984375 
L 18.109375 75.984375 
L 18.109375 46.1875 
Q 21.34375 51.125 25.703125 53.5625 
Q 30.078125 56 35.796875 56 
Q 45.21875 56 50.046875 50.171875 
Q 54.890625 44.34375 54.890625 33.015625 
z
" id="DejaVuSans-68"/>
     </defs>
     <g transform="translate(85.982813 251.054187)scale(0.1 -0.1)">
      <use xlink:href="#DejaVuSans-47"/>
      <use x="77.490234" xlink:href="#DejaVuSans-72"/>
      <use x="118.572266" xlink:href="#DejaVuSans-6f"/>
      <use x="179.753906" xlink:href="#DejaVuSans-75"/>
      <use x="243.132812" xlink:href="#DejaVuSans-6e"/>
      <use x="306.511719" xlink:href="#DejaVuSans-64"/>
      <use x="369.988281" xlink:href="#DejaVuSans-20"/>
      <use x="401.775391" xlink:href="#DejaVuSans-54"/>
      <use x="462.640625" xlink:href="#DejaVuSans-72"/>
      <use x="503.753906" xlink:href="#DejaVuSans-75"/>
      <use x="567.132812" xlink:href="#DejaVuSans-74"/>
      <use x="606.341797" xlink:href="#DejaVuSans-68"/>
     </g>
    </g>
    <g id="line2d_35">
     <path d="M 57.982813 262.232312 
L 77.982813 262.232312 
" style="fill:none;stroke:#0000ff;stroke-linecap:square;stroke-width:1.5;"/>
    </g>
    <g id="line2d_36">
     <g>
      <use style="fill:#0000ff;stroke:#0000ff;" x="67.982813" xlink:href="#m4a6e18a931" y="262.232312"/>
     </g>
    </g>
    <g id="text_34">
     <!-- Prediction -->
     <defs>
      <path d="M 19.671875 64.796875 
L 19.671875 37.40625 
L 32.078125 37.40625 
Q 38.96875 37.40625 42.71875 40.96875 
Q 46.484375 44.53125 46.484375 51.125 
Q 46.484375 57.671875 42.71875 61.234375 
Q 38.96875 64.796875 32.078125 64.796875 
z
M 9.8125 72.90625 
L 32.078125 72.90625 
Q 44.34375 72.90625 50.609375 67.359375 
Q 56.890625 61.8125 56.890625 51.125 
Q 56.890625 40.328125 50.609375 34.8125 
Q 44.34375 29.296875 32.078125 29.296875 
L 19.671875 29.296875 
L 19.671875 0 
L 9.8125 0 
z
" id="DejaVuSans-50"/>
      <path d="M 48.78125 52.59375 
L 48.78125 44.1875 
Q 44.96875 46.296875 41.140625 47.34375 
Q 37.3125 48.390625 33.40625 48.390625 
Q 24.65625 48.390625 19.8125 42.84375 
Q 14.984375 37.3125 14.984375 27.296875 
Q 14.984375 17.28125 19.8125 11.734375 
Q 24.65625 6.203125 33.40625 6.203125 
Q 37.3125 6.203125 41.140625 7.25 
Q 44.96875 8.296875 48.78125 10.40625 
L 48.78125 2.09375 
Q 45.015625 0.34375 40.984375 -0.53125 
Q 36.96875 -1.421875 32.421875 -1.421875 
Q 20.0625 -1.421875 12.78125 6.34375 
Q 5.515625 14.109375 5.515625 27.296875 
Q 5.515625 40.671875 12.859375 48.328125 
Q 20.21875 56 33.015625 56 
Q 37.15625 56 41.109375 55.140625 
Q 45.0625 54.296875 48.78125 52.59375 
z
" id="DejaVuSans-63"/>
     </defs>
     <g transform="translate(85.982813 265.732312)scale(0.1 -0.1)">
      <use xlink:href="#DejaVuSans-50"/>
      <use x="60.287109" xlink:href="#DejaVuSans-72"/>
      <use x="101.369141" xlink:href="#DejaVuSans-65"/>
      <use x="162.892578" xlink:href="#DejaVuSans-64"/>
      <use x="226.369141" xlink:href="#DejaVuSans-69"/>
      <use x="254.152344" xlink:href="#DejaVuSans-63"/>
      <use x="309.132812" xlink:href="#DejaVuSans-74"/>
      <use x="348.341797" xlink:href="#DejaVuSans-69"/>
      <use x="376.125" xlink:href="#DejaVuSans-6f"/>
      <use x="437.306641" xlink:href="#DejaVuSans-6e"/>
     </g>
    </g>
   </g>
  </g>
 </g>
 <defs>
  <clipPath id="p7b403dd830">
   <rect height="78.268235" width="357.12" x="48.982813" y="10.7"/>
  </clipPath>
  <clipPath id="pf5de78f6f5">
   <rect height="78.268235" width="357.12" x="48.982813" y="104.621882"/>
  </clipPath>
  <clipPath id="p58732d988f">
   <rect height="78.268235" width="357.12" x="48.982813" y="198.543765"/>
  </clipPath>
 </defs>
</svg>
