<?xml version="1.0" encoding="utf-8" standalone="no"?>
<!DOCTYPE svg PUBLIC "-//W3C//DTD SVG 1.1//EN"
  "http://www.w3.org/Graphics/SVG/1.1/DTD/svg11.dtd">
<!-- Created with matplotlib (http://matplotlib.org/) -->
<svg height="314pt" version="1.1" viewBox="0 0 416 314" width="416pt" xmlns="http://www.w3.org/2000/svg" xmlns:xlink="http://www.w3.org/1999/xlink">
 <defs>
  <style type="text/css">
*{stroke-linecap:butt;stroke-linejoin:round;}
  </style>
 </defs>
 <g id="figure_1">
  <g id="patch_1">
   <path d="M 0 314.36825 
L 416.802812 314.36825 
L 416.802812 0 
L 0 0 
z
" style="fill:#ffffff;"/>
  </g>
  <g id="axes_1">
   <g id="patch_2">
    <path d="M 48.982813 88.968235 
L 406.102813 88.968235 
L 406.102813 10.7 
L 48.982813 10.7 
z
" style="fill:#ffffff;"/>
   </g>
   <g id="matplotlib.axis_1">
    <g id="xtick_1">
     <g id="line2d_1">
      <defs>
       <path d="M 0 0 
L 0 3.5 
" id="m67356cbcbe" style="stroke:#000000;stroke-width:0.8;"/>
      </defs>
      <g>
       <use style="stroke:#000000;stroke-width:0.8;" x="65.21554" xlink:href="#m67356cbcbe" y="88.968235"/>
      </g>
     </g>
     <g id="text_1">
      <!-- 0 -->
      <defs>
       <path d="M 31.78125 66.40625 
Q 24.171875 66.40625 20.328125 58.90625 
Q 16.5 51.421875 16.5 36.375 
Q 16.5 21.390625 20.328125 13.890625 
Q 24.171875 6.390625 31.78125 6.390625 
Q 39.453125 6.390625 43.28125 13.890625 
Q 47.125 21.390625 47.125 36.375 
Q 47.125 51.421875 43.28125 58.90625 
Q 39.453125 66.40625 31.78125 66.40625 
z
M 31.78125 74.21875 
Q 44.046875 74.21875 50.515625 64.515625 
Q 56.984375 54.828125 56.984375 36.375 
Q 56.984375 17.96875 50.515625 8.265625 
Q 44.046875 -1.421875 31.78125 -1.421875 
Q 19.53125 -1.421875 13.0625 8.265625 
Q 6.59375 17.96875 6.59375 36.375 
Q 6.59375 54.828125 13.0625 64.515625 
Q 19.53125 74.21875 31.78125 74.21875 
z
" id="DejaVuSans-30"/>
      </defs>
      <g transform="translate(62.03429 103.566673)scale(0.1 -0.1)">
       <use xlink:href="#DejaVuSans-30"/>
      </g>
     </g>
    </g>
    <g id="xtick_2">
     <g id="line2d_2">
      <g>
       <use style="stroke:#000000;stroke-width:0.8;" x="130.802317" xlink:href="#m67356cbcbe" y="88.968235"/>
      </g>
     </g>
     <g id="text_2">
      <!-- 20 -->
      <defs>
       <path d="M 19.1875 8.296875 
L 53.609375 8.296875 
L 53.609375 0 
L 7.328125 0 
L 7.328125 8.296875 
Q 12.9375 14.109375 22.625 23.890625 
Q 32.328125 33.6875 34.8125 36.53125 
Q 39.546875 41.84375 41.421875 45.53125 
Q 43.3125 49.21875 43.3125 52.78125 
Q 43.3125 58.59375 39.234375 62.25 
Q 35.15625 65.921875 28.609375 65.921875 
Q 23.96875 65.921875 18.8125 64.3125 
Q 13.671875 62.703125 7.8125 59.421875 
L 7.8125 69.390625 
Q 13.765625 71.78125 18.9375 73 
Q 24.125 74.21875 28.421875 74.21875 
Q 39.75 74.21875 46.484375 68.546875 
Q 53.21875 62.890625 53.21875 53.421875 
Q 53.21875 48.921875 51.53125 44.890625 
Q 49.859375 40.875 45.40625 35.40625 
Q 44.1875 33.984375 37.640625 27.21875 
Q 31.109375 20.453125 19.1875 8.296875 
z
" id="DejaVuSans-32"/>
      </defs>
      <g transform="translate(124.439817 103.566673)scale(0.1 -0.1)">
       <use xlink:href="#DejaVuSans-32"/>
       <use x="63.623047" xlink:href="#DejaVuSans-30"/>
      </g>
     </g>
    </g>
    <g id="xtick_3">
     <g id="line2d_3">
      <g>
       <use style="stroke:#000000;stroke-width:0.8;" x="196.389093" xlink:href="#m67356cbcbe" y="88.968235"/>
      </g>
     </g>
     <g id="text_3">
      <!-- 40 -->
      <defs>
       <path d="M 37.796875 64.3125 
L 12.890625 25.390625 
L 37.796875 25.390625 
z
M 35.203125 72.90625 
L 47.609375 72.90625 
L 47.609375 25.390625 
L 58.015625 25.390625 
L 58.015625 17.1875 
L 47.609375 17.1875 
L 47.609375 0 
L 37.796875 0 
L 37.796875 17.1875 
L 4.890625 17.1875 
L 4.890625 26.703125 
z
" id="DejaVuSans-34"/>
      </defs>
      <g transform="translate(190.026593 103.566673)scale(0.1 -0.1)">
       <use xlink:href="#DejaVuSans-34"/>
       <use x="63.623047" xlink:href="#DejaVuSans-30"/>
      </g>
     </g>
    </g>
    <g id="xtick_4">
     <g id="line2d_4">
      <g>
       <use style="stroke:#000000;stroke-width:0.8;" x="261.97587" xlink:href="#m67356cbcbe" y="88.968235"/>
      </g>
     </g>
     <g id="text_4">
      <!-- 60 -->
      <defs>
       <path d="M 33.015625 40.375 
Q 26.375 40.375 22.484375 35.828125 
Q 18.609375 31.296875 18.609375 23.390625 
Q 18.609375 15.53125 22.484375 10.953125 
Q 26.375 6.390625 33.015625 6.390625 
Q 39.65625 6.390625 43.53125 10.953125 
Q 47.40625 15.53125 47.40625 23.390625 
Q 47.40625 31.296875 43.53125 35.828125 
Q 39.65625 40.375 33.015625 40.375 
z
M 52.59375 71.296875 
L 52.59375 62.3125 
Q 48.875 64.0625 45.09375 64.984375 
Q 41.3125 65.921875 37.59375 65.921875 
Q 27.828125 65.921875 22.671875 59.328125 
Q 17.53125 52.734375 16.796875 39.40625 
Q 19.671875 43.65625 24.015625 45.921875 
Q 28.375 48.1875 33.59375 48.1875 
Q 44.578125 48.1875 50.953125 41.515625 
Q 57.328125 34.859375 57.328125 23.390625 
Q 57.328125 12.15625 50.6875 5.359375 
Q 44.046875 -1.421875 33.015625 -1.421875 
Q 20.359375 -1.421875 13.671875 8.265625 
Q 6.984375 17.96875 6.984375 36.375 
Q 6.984375 53.65625 15.1875 63.9375 
Q 23.390625 74.21875 37.203125 74.21875 
Q 40.921875 74.21875 44.703125 73.484375 
Q 48.484375 72.75 52.59375 71.296875 
z
" id="DejaVuSans-36"/>
      </defs>
      <g transform="translate(255.61337 103.566673)scale(0.1 -0.1)">
       <use xlink:href="#DejaVuSans-36"/>
       <use x="63.623047" xlink:href="#DejaVuSans-30"/>
      </g>
     </g>
    </g>
    <g id="xtick_5">
     <g id="line2d_5">
      <g>
       <use style="stroke:#000000;stroke-width:0.8;" x="327.562647" xlink:href="#m67356cbcbe" y="88.968235"/>
      </g>
     </g>
     <g id="text_5">
      <!-- 80 -->
      <defs>
       <path d="M 31.78125 34.625 
Q 24.75 34.625 20.71875 30.859375 
Q 16.703125 27.09375 16.703125 20.515625 
Q 16.703125 13.921875 20.71875 10.15625 
Q 24.75 6.390625 31.78125 6.390625 
Q 38.8125 6.390625 42.859375 10.171875 
Q 46.921875 13.96875 46.921875 20.515625 
Q 46.921875 27.09375 42.890625 30.859375 
Q 38.875 34.625 31.78125 34.625 
z
M 21.921875 38.8125 
Q 15.578125 40.375 12.03125 44.71875 
Q 8.5 49.078125 8.5 55.328125 
Q 8.5 64.0625 14.71875 69.140625 
Q 20.953125 74.21875 31.78125 74.21875 
Q 42.671875 74.21875 48.875 69.140625 
Q 55.078125 64.0625 55.078125 55.328125 
Q 55.078125 49.078125 51.53125 44.71875 
Q 48 40.375 41.703125 38.8125 
Q 48.828125 37.15625 52.796875 32.3125 
Q 56.78125 27.484375 56.78125 20.515625 
Q 56.78125 9.90625 50.3125 4.234375 
Q 43.84375 -1.421875 31.78125 -1.421875 
Q 19.734375 -1.421875 13.25 4.234375 
Q 6.78125 9.90625 6.78125 20.515625 
Q 6.78125 27.484375 10.78125 32.3125 
Q 14.796875 37.15625 21.921875 38.8125 
z
M 18.3125 54.390625 
Q 18.3125 48.734375 21.84375 45.5625 
Q 25.390625 42.390625 31.78125 42.390625 
Q 38.140625 42.390625 41.71875 45.5625 
Q 45.3125 48.734375 45.3125 54.390625 
Q 45.3125 60.0625 41.71875 63.234375 
Q 38.140625 66.40625 31.78125 66.40625 
Q 25.390625 66.40625 21.84375 63.234375 
Q 18.3125 60.0625 18.3125 54.390625 
z
" id="DejaVuSans-38"/>
      </defs>
      <g transform="translate(321.200147 103.566673)scale(0.1 -0.1)">
       <use xlink:href="#DejaVuSans-38"/>
       <use x="63.623047" xlink:href="#DejaVuSans-30"/>
      </g>
     </g>
    </g>
    <g id="xtick_6">
     <g id="line2d_6">
      <g>
       <use style="stroke:#000000;stroke-width:0.8;" x="393.149424" xlink:href="#m67356cbcbe" y="88.968235"/>
      </g>
     </g>
     <g id="text_6">
      <!-- 100 -->
      <defs>
       <path d="M 12.40625 8.296875 
L 28.515625 8.296875 
L 28.515625 63.921875 
L 10.984375 60.40625 
L 10.984375 69.390625 
L 28.421875 72.90625 
L 38.28125 72.90625 
L 38.28125 8.296875 
L 54.390625 8.296875 
L 54.390625 0 
L 12.40625 0 
z
" id="DejaVuSans-31"/>
      </defs>
      <g transform="translate(383.605674 103.566673)scale(0.1 -0.1)">
       <use xlink:href="#DejaVuSans-31"/>
       <use x="63.623047" xlink:href="#DejaVuSans-30"/>
       <use x="127.246094" xlink:href="#DejaVuSans-30"/>
      </g>
     </g>
    </g>
    <g id="text_7">
     <!-- Time -->
     <defs>
      <path d="M -0.296875 72.90625 
L 61.375 72.90625 
L 61.375 64.59375 
L 35.5 64.59375 
L 35.5 0 
L 25.59375 0 
L 25.59375 64.59375 
L -0.296875 64.59375 
z
" id="DejaVuSans-54"/>
      <path d="M 9.421875 54.6875 
L 18.40625 54.6875 
L 18.40625 0 
L 9.421875 0 
z
M 9.421875 75.984375 
L 18.40625 75.984375 
L 18.40625 64.59375 
L 9.421875 64.59375 
z
" id="DejaVuSans-69"/>
      <path d="M 52 44.1875 
Q 55.375 50.25 60.0625 53.125 
Q 64.75 56 71.09375 56 
Q 79.640625 56 84.28125 50.015625 
Q 88.921875 44.046875 88.921875 33.015625 
L 88.921875 0 
L 79.890625 0 
L 79.890625 32.71875 
Q 79.890625 40.578125 77.09375 44.375 
Q 74.3125 48.1875 68.609375 48.1875 
Q 61.625 48.1875 57.5625 43.546875 
Q 53.515625 38.921875 53.515625 30.90625 
L 53.515625 0 
L 44.484375 0 
L 44.484375 32.71875 
Q 44.484375 40.625 41.703125 44.40625 
Q 38.921875 48.1875 33.109375 48.1875 
Q 26.21875 48.1875 22.15625 43.53125 
Q 18.109375 38.875 18.109375 30.90625 
L 18.109375 0 
L 9.078125 0 
L 9.078125 54.6875 
L 18.109375 54.6875 
L 18.109375 46.1875 
Q 21.1875 51.21875 25.484375 53.609375 
Q 29.78125 56 35.6875 56 
Q 41.65625 56 45.828125 52.96875 
Q 50 49.953125 52 44.1875 
z
" id="DejaVuSans-6d"/>
      <path d="M 56.203125 29.59375 
L 56.203125 25.203125 
L 14.890625 25.203125 
Q 15.484375 15.921875 20.484375 11.0625 
Q 25.484375 6.203125 34.421875 6.203125 
Q 39.59375 6.203125 44.453125 7.46875 
Q 49.3125 8.734375 54.109375 11.28125 
L 54.109375 2.78125 
Q 49.265625 0.734375 44.1875 -0.34375 
Q 39.109375 -1.421875 33.890625 -1.421875 
Q 20.796875 -1.421875 13.15625 6.1875 
Q 5.515625 13.8125 5.515625 26.8125 
Q 5.515625 40.234375 12.765625 48.109375 
Q 20.015625 56 32.328125 56 
Q 43.359375 56 49.78125 48.890625 
Q 56.203125 41.796875 56.203125 29.59375 
z
M 47.21875 32.234375 
Q 47.125 39.59375 43.09375 43.984375 
Q 39.0625 48.390625 32.421875 48.390625 
Q 24.90625 48.390625 20.390625 44.140625 
Q 15.875 39.890625 15.1875 32.171875 
z
" id="DejaVuSans-65"/>
     </defs>
     <g transform="translate(215.155313 117.244798)scale(0.1 -0.1)">
      <use xlink:href="#DejaVuSans-54"/>
      <use x="61.037109" xlink:href="#DejaVuSans-69"/>
      <use x="88.820312" xlink:href="#DejaVuSans-6d"/>
      <use x="186.232422" xlink:href="#DejaVuSans-65"/>
     </g>
    </g>
   </g>
   <g id="matplotlib.axis_2">
    <g id="ytick_1">
     <g id="line2d_7">
      <defs>
       <path d="M 0 0 
L -3.5 0 
" id="m7c7650623f" style="stroke:#000000;stroke-width:0.8;"/>
      </defs>
      <g>
       <use style="stroke:#000000;stroke-width:0.8;" x="48.982813" xlink:href="#m7c7650623f" y="57.493665"/>
      </g>
     </g>
     <g id="text_8">
      <!-- −10 -->
      <defs>
       <path d="M 10.59375 35.5 
L 73.1875 35.5 
L 73.1875 27.203125 
L 10.59375 27.203125 
z
" id="DejaVuSans-2212"/>
      </defs>
      <g transform="translate(20.878125 61.292884)scale(0.1 -0.1)">
       <use xlink:href="#DejaVuSans-2212"/>
       <use x="83.789062" xlink:href="#DejaVuSans-31"/>
       <use x="147.412109" xlink:href="#DejaVuSans-30"/>
      </g>
     </g>
    </g>
    <g id="ytick_2">
     <g id="line2d_8">
      <g>
       <use style="stroke:#000000;stroke-width:0.8;" x="48.982813" xlink:href="#m7c7650623f" y="14.257647"/>
      </g>
     </g>
     <g id="text_9">
      <!-- 0 -->
      <g transform="translate(35.620313 18.056866)scale(0.1 -0.1)">
       <use xlink:href="#DejaVuSans-30"/>
      </g>
     </g>
    </g>
    <g id="text_10">
     <!-- x -->
     <defs>
      <path d="M 54.890625 54.6875 
L 35.109375 28.078125 
L 55.90625 0 
L 45.3125 0 
L 29.390625 21.484375 
L 13.484375 0 
L 2.875 0 
L 24.125 28.609375 
L 4.6875 54.6875 
L 15.28125 54.6875 
L 29.78125 35.203125 
L 44.28125 54.6875 
z
" id="DejaVuSans-78"/>
     </defs>
     <g transform="translate(14.798438 52.793493)rotate(-90)scale(0.1 -0.1)">
      <use xlink:href="#DejaVuSans-78"/>
     </g>
    </g>
   </g>
   <g id="line2d_9">
    <path clip-path="url(#p60fb4628e5)" d="M 65.21554 14.257647 
L 68.494879 14.284473 
L 71.774217 14.369549 
L 75.053556 14.512193 
L 78.332895 14.682124 
L 81.612234 14.906987 
L 84.891573 15.14484 
L 88.170912 15.408998 
L 91.450251 15.71722 
L 94.729589 16.014165 
L 98.008928 16.327686 
L 101.288267 16.663562 
L 104.567606 17.021022 
L 107.846945 17.339226 
L 111.126284 17.728382 
L 114.405622 18.135053 
L 117.684961 18.650749 
L 120.9643 19.108232 
L 124.243639 19.603396 
L 127.522978 20.067658 
L 130.802317 20.611852 
L 134.081655 21.184273 
L 137.360994 21.776 
L 140.640333 22.439812 
L 143.919672 23.164854 
L 147.199011 23.947318 
L 150.47835 24.728553 
L 153.757689 25.564974 
L 157.037027 26.423731 
L 160.316366 27.260973 
L 163.595705 28.129173 
L 166.875044 29.030416 
L 170.154383 29.960651 
L 173.433722 30.89917 
L 176.71306 31.902057 
L 179.992399 32.950285 
L 183.271738 33.989247 
L 186.551077 35.086814 
L 189.830416 36.159187 
L 193.109755 37.281457 
L 196.389093 38.418104 
L 199.668432 39.54935 
L 202.947771 40.736698 
L 206.22711 41.96673 
L 209.506449 43.178975 
L 212.785788 44.376326 
L 216.065127 45.597526 
L 219.344465 46.808632 
L 222.623804 47.997712 
L 225.903143 49.208422 
L 229.182482 50.432368 
L 232.461821 51.65088 
L 235.74116 52.859776 
L 239.020498 54.047652 
L 242.299837 55.225994 
L 245.579176 56.366773 
L 248.858515 57.473799 
L 252.137854 58.56382 
L 255.417193 59.613425 
L 258.696532 60.655022 
L 261.97587 61.659757 
L 265.255209 62.653276 
L 268.534548 63.59579 
L 271.813887 64.488602 
L 275.093226 65.344147 
L 278.372565 66.165493 
L 281.651903 66.970264 
L 284.931242 67.760405 
L 288.210581 68.516414 
L 291.48992 69.273222 
L 294.769259 70.034995 
L 298.048598 70.757193 
L 301.327936 71.463755 
L 304.607275 72.149518 
L 307.886614 72.824603 
L 311.165953 73.458528 
L 314.445292 74.094029 
L 317.724631 74.711758 
L 321.00397 75.321307 
L 324.283308 75.917488 
L 327.562647 76.493184 
L 330.841986 77.038401 
L 334.121325 77.572196 
L 337.400664 78.088608 
L 340.680003 78.585169 
L 343.959341 79.085607 
L 347.23868 79.583777 
L 350.518019 80.060283 
L 353.797358 80.53636 
L 357.076697 80.993816 
L 360.356036 81.447298 
L 363.635374 81.877293 
L 366.914713 82.31151 
L 370.194052 82.750725 
L 373.473391 83.190896 
L 376.75273 83.637896 
L 380.032069 84.076781 
L 383.311408 84.529998 
L 386.590746 84.967448 
L 389.870085 85.410588 
" style="fill:none;stroke:#ff0000;stroke-linecap:square;stroke-width:1.5;"/>
    <defs>
     <path d="M 0 2.5 
C 0.663008 2.5 1.29895 2.236584 1.767767 1.767767 
C 2.236584 1.29895 2.5 0.663008 2.5 0 
C 2.5 -0.663008 2.236584 -1.29895 1.767767 -1.767767 
C 1.29895 -2.236584 0.663008 -2.5 0 -2.5 
C -0.663008 -2.5 -1.29895 -2.236584 -1.767767 -1.767767 
C -2.236584 -1.29895 -2.5 -0.663008 -2.5 0 
C -2.5 0.663008 -2.236584 1.29895 -1.767767 1.767767 
C -1.29895 2.236584 -0.663008 2.5 0 2.5 
z
" id="md675f9deb1" style="stroke:#ff0000;"/>
    </defs>
    <g clip-path="url(#p60fb4628e5)">
     <use style="fill:#ff0000;stroke:#ff0000;" x="65.21554" xlink:href="#md675f9deb1" y="14.257647"/>
     <use style="fill:#ff0000;stroke:#ff0000;" x="98.008928" xlink:href="#md675f9deb1" y="16.327686"/>
     <use style="fill:#ff0000;stroke:#ff0000;" x="130.802317" xlink:href="#md675f9deb1" y="20.611852"/>
     <use style="fill:#ff0000;stroke:#ff0000;" x="163.595705" xlink:href="#md675f9deb1" y="28.129173"/>
     <use style="fill:#ff0000;stroke:#ff0000;" x="196.389093" xlink:href="#md675f9deb1" y="38.418104"/>
     <use style="fill:#ff0000;stroke:#ff0000;" x="229.182482" xlink:href="#md675f9deb1" y="50.432368"/>
     <use style="fill:#ff0000;stroke:#ff0000;" x="261.97587" xlink:href="#md675f9deb1" y="61.659757"/>
     <use style="fill:#ff0000;stroke:#ff0000;" x="294.769259" xlink:href="#md675f9deb1" y="70.034995"/>
     <use style="fill:#ff0000;stroke:#ff0000;" x="327.562647" xlink:href="#md675f9deb1" y="76.493184"/>
     <use style="fill:#ff0000;stroke:#ff0000;" x="360.356036" xlink:href="#md675f9deb1" y="81.447298"/>
    </g>
   </g>
   <g id="line2d_10">
    <path clip-path="url(#p60fb4628e5)" d="M 65.21554 14.257647 
L 68.494879 14.289073 
L 71.774217 14.361679 
L 75.053556 14.490658 
L 78.332895 14.66717 
L 81.612234 14.8781 
L 84.891573 15.112497 
L 88.170912 15.392237 
L 91.450251 15.682014 
L 94.729589 16.020537 
L 98.008928 16.351365 
L 101.288267 16.709822 
L 104.567606 17.08146 
L 107.846945 17.503126 
L 111.126284 17.99824 
L 114.405622 18.520735 
L 117.684961 19.123231 
L 120.9643 19.780134 
L 124.243639 20.468575 
L 127.522978 21.16852 
L 130.802317 21.90327 
L 134.081655 22.645023 
L 137.360994 23.431654 
L 140.640333 24.250374 
L 143.919672 25.089421 
L 147.199011 25.946063 
L 150.47835 26.823098 
L 153.757689 27.771202 
L 157.037027 28.724005 
L 160.316366 29.684672 
L 163.595705 30.674511 
L 166.875044 31.672199 
L 170.154383 32.717928 
L 173.433722 33.778785 
L 176.71306 34.890229 
L 179.992399 35.986666 
L 183.271738 37.124967 
L 186.551077 38.304346 
L 189.830416 39.432514 
L 193.109755 40.547946 
L 196.389093 41.67433 
L 199.668432 42.817752 
L 202.947771 43.9984 
L 206.22711 45.207754 
L 209.506449 46.435446 
L 212.785788 47.677298 
L 216.065127 48.960681 
L 219.344465 50.211161 
L 222.623804 51.459381 
L 225.903143 52.777813 
L 229.182482 54.111242 
L 232.461821 55.417934 
L 235.74116 56.659949 
L 239.020498 57.855197 
L 242.299837 59.022176 
L 245.579176 60.104342 
L 248.858515 61.152883 
L 252.137854 62.170738 
L 255.417193 63.162323 
L 258.696532 64.112882 
L 261.97587 65.049314 
L 265.255209 65.939404 
L 268.534548 66.810552 
L 271.813887 67.628105 
L 275.093226 68.439432 
L 278.372565 69.230295 
L 281.651903 70.001935 
L 284.931242 70.718252 
L 288.210581 71.399138 
L 291.48992 72.07708 
L 294.769259 72.731544 
L 298.048598 73.361458 
L 301.327936 73.948744 
L 304.607275 74.51203 
L 307.886614 75.021642 
L 311.165953 75.491266 
L 314.445292 75.975136 
L 317.724631 76.431372 
L 321.00397 76.887706 
L 324.283308 77.337283 
L 327.562647 77.751577 
L 330.841986 78.144346 
L 334.121325 78.514121 
L 337.400664 78.86783 
L 340.680003 79.20019 
L 343.959341 79.540564 
L 347.23868 79.884692 
L 350.518019 80.220218 
L 353.797358 80.520634 
L 357.076697 80.813223 
L 360.356036 81.123985 
L 363.635374 81.420892 
L 366.914713 81.712867 
L 370.194052 82.011473 
L 373.473391 82.336942 
L 376.75273 82.663595 
L 380.032069 82.978105 
L 383.311408 83.281897 
L 386.590746 83.603598 
L 389.870085 83.916095 
" style="fill:none;stroke:#0000ff;stroke-linecap:square;stroke-width:1.5;"/>
    <defs>
     <path d="M 0 2.5 
C 0.663008 2.5 1.29895 2.236584 1.767767 1.767767 
C 2.236584 1.29895 2.5 0.663008 2.5 0 
C 2.5 -0.663008 2.236584 -1.29895 1.767767 -1.767767 
C 1.29895 -2.236584 0.663008 -2.5 0 -2.5 
C -0.663008 -2.5 -1.29895 -2.236584 -1.767767 -1.767767 
C -2.236584 -1.29895 -2.5 -0.663008 -2.5 0 
C -2.5 0.663008 -2.236584 1.29895 -1.767767 1.767767 
C -1.29895 2.236584 -0.663008 2.5 0 2.5 
z
" id="m365572dc66" style="stroke:#0000ff;"/>
    </defs>
    <g clip-path="url(#p60fb4628e5)">
     <use style="fill:#0000ff;stroke:#0000ff;" x="65.21554" xlink:href="#m365572dc66" y="14.257647"/>
     <use style="fill:#0000ff;stroke:#0000ff;" x="98.008928" xlink:href="#m365572dc66" y="16.351365"/>
     <use style="fill:#0000ff;stroke:#0000ff;" x="130.802317" xlink:href="#m365572dc66" y="21.90327"/>
     <use style="fill:#0000ff;stroke:#0000ff;" x="163.595705" xlink:href="#m365572dc66" y="30.674511"/>
     <use style="fill:#0000ff;stroke:#0000ff;" x="196.389093" xlink:href="#m365572dc66" y="41.67433"/>
     <use style="fill:#0000ff;stroke:#0000ff;" x="229.182482" xlink:href="#m365572dc66" y="54.111242"/>
     <use style="fill:#0000ff;stroke:#0000ff;" x="261.97587" xlink:href="#m365572dc66" y="65.049314"/>
     <use style="fill:#0000ff;stroke:#0000ff;" x="294.769259" xlink:href="#m365572dc66" y="72.731544"/>
     <use style="fill:#0000ff;stroke:#0000ff;" x="327.562647" xlink:href="#m365572dc66" y="77.751577"/>
     <use style="fill:#0000ff;stroke:#0000ff;" x="360.356036" xlink:href="#m365572dc66" y="81.123985"/>
    </g>
   </g>
   <g id="patch_3">
    <path d="M 48.982813 88.968235 
L 48.982813 10.7 
" style="fill:none;stroke:#000000;stroke-linecap:square;stroke-linejoin:miter;stroke-width:0.8;"/>
   </g>
   <g id="patch_4">
    <path d="M 406.102813 88.968235 
L 406.102813 10.7 
" style="fill:none;stroke:#000000;stroke-linecap:square;stroke-linejoin:miter;stroke-width:0.8;"/>
   </g>
   <g id="patch_5">
    <path d="M 48.982813 88.968235 
L 406.102813 88.968235 
" style="fill:none;stroke:#000000;stroke-linecap:square;stroke-linejoin:miter;stroke-width:0.8;"/>
   </g>
   <g id="patch_6">
    <path d="M 48.982813 10.7 
L 406.102813 10.7 
" style="fill:none;stroke:#000000;stroke-linecap:square;stroke-linejoin:miter;stroke-width:0.8;"/>
   </g>
  </g>
  <g id="axes_2">
   <g id="patch_7">
    <path d="M 48.982813 182.890118 
L 406.102813 182.890118 
L 406.102813 104.621882 
L 48.982813 104.621882 
z
" style="fill:#ffffff;"/>
   </g>
   <g id="matplotlib.axis_3">
    <g id="xtick_7">
     <g id="line2d_11">
      <g>
       <use style="stroke:#000000;stroke-width:0.8;" x="65.21554" xlink:href="#m67356cbcbe" y="182.890118"/>
      </g>
     </g>
     <g id="text_11">
      <!-- 0 -->
      <g transform="translate(62.03429 197.488555)scale(0.1 -0.1)">
       <use xlink:href="#DejaVuSans-30"/>
      </g>
     </g>
    </g>
    <g id="xtick_8">
     <g id="line2d_12">
      <g>
       <use style="stroke:#000000;stroke-width:0.8;" x="130.802317" xlink:href="#m67356cbcbe" y="182.890118"/>
      </g>
     </g>
     <g id="text_12">
      <!-- 20 -->
      <g transform="translate(124.439817 197.488555)scale(0.1 -0.1)">
       <use xlink:href="#DejaVuSans-32"/>
       <use x="63.623047" xlink:href="#DejaVuSans-30"/>
      </g>
     </g>
    </g>
    <g id="xtick_9">
     <g id="line2d_13">
      <g>
       <use style="stroke:#000000;stroke-width:0.8;" x="196.389093" xlink:href="#m67356cbcbe" y="182.890118"/>
      </g>
     </g>
     <g id="text_13">
      <!-- 40 -->
      <g transform="translate(190.026593 197.488555)scale(0.1 -0.1)">
       <use xlink:href="#DejaVuSans-34"/>
       <use x="63.623047" xlink:href="#DejaVuSans-30"/>
      </g>
     </g>
    </g>
    <g id="xtick_10">
     <g id="line2d_14">
      <g>
       <use style="stroke:#000000;stroke-width:0.8;" x="261.97587" xlink:href="#m67356cbcbe" y="182.890118"/>
      </g>
     </g>
     <g id="text_14">
      <!-- 60 -->
      <g transform="translate(255.61337 197.488555)scale(0.1 -0.1)">
       <use xlink:href="#DejaVuSans-36"/>
       <use x="63.623047" xlink:href="#DejaVuSans-30"/>
      </g>
     </g>
    </g>
    <g id="xtick_11">
     <g id="line2d_15">
      <g>
       <use style="stroke:#000000;stroke-width:0.8;" x="327.562647" xlink:href="#m67356cbcbe" y="182.890118"/>
      </g>
     </g>
     <g id="text_15">
      <!-- 80 -->
      <g transform="translate(321.200147 197.488555)scale(0.1 -0.1)">
       <use xlink:href="#DejaVuSans-38"/>
       <use x="63.623047" xlink:href="#DejaVuSans-30"/>
      </g>
     </g>
    </g>
    <g id="xtick_12">
     <g id="line2d_16">
      <g>
       <use style="stroke:#000000;stroke-width:0.8;" x="393.149424" xlink:href="#m67356cbcbe" y="182.890118"/>
      </g>
     </g>
     <g id="text_16">
      <!-- 100 -->
      <g transform="translate(383.605674 197.488555)scale(0.1 -0.1)">
       <use xlink:href="#DejaVuSans-31"/>
       <use x="63.623047" xlink:href="#DejaVuSans-30"/>
       <use x="127.246094" xlink:href="#DejaVuSans-30"/>
      </g>
     </g>
    </g>
    <g id="text_17">
     <!-- Time -->
     <g transform="translate(215.155313 211.16668)scale(0.1 -0.1)">
      <use xlink:href="#DejaVuSans-54"/>
      <use x="61.037109" xlink:href="#DejaVuSans-69"/>
      <use x="88.820312" xlink:href="#DejaVuSans-6d"/>
      <use x="186.232422" xlink:href="#DejaVuSans-65"/>
     </g>
    </g>
   </g>
   <g id="matplotlib.axis_4">
    <g id="ytick_3">
     <g id="line2d_17">
      <g>
       <use style="stroke:#000000;stroke-width:0.8;" x="48.982813" xlink:href="#m7c7650623f" y="159.14952"/>
      </g>
     </g>
     <g id="text_18">
      <!-- −2 -->
      <g transform="translate(27.240625 162.948738)scale(0.1 -0.1)">
       <use xlink:href="#DejaVuSans-2212"/>
       <use x="83.789062" xlink:href="#DejaVuSans-32"/>
      </g>
     </g>
    </g>
    <g id="ytick_4">
     <g id="line2d_18">
      <g>
       <use style="stroke:#000000;stroke-width:0.8;" x="48.982813" xlink:href="#m7c7650623f" y="108.179529"/>
      </g>
     </g>
     <g id="text_19">
      <!-- 0 -->
      <g transform="translate(35.620313 111.978748)scale(0.1 -0.1)">
       <use xlink:href="#DejaVuSans-30"/>
      </g>
     </g>
    </g>
    <g id="text_20">
     <!-- y -->
     <defs>
      <path d="M 32.171875 -5.078125 
Q 28.375 -14.84375 24.75 -17.8125 
Q 21.140625 -20.796875 15.09375 -20.796875 
L 7.90625 -20.796875 
L 7.90625 -13.28125 
L 13.1875 -13.28125 
Q 16.890625 -13.28125 18.9375 -11.515625 
Q 21 -9.765625 23.484375 -3.21875 
L 25.09375 0.875 
L 2.984375 54.6875 
L 12.5 54.6875 
L 29.59375 11.921875 
L 46.6875 54.6875 
L 56.203125 54.6875 
z
" id="DejaVuSans-79"/>
     </defs>
     <g transform="translate(21.160938 146.715375)rotate(-90)scale(0.1 -0.1)">
      <use xlink:href="#DejaVuSans-79"/>
     </g>
    </g>
   </g>
   <g id="line2d_19">
    <path clip-path="url(#pf414c1319d)" d="M 65.21554 108.179529 
L 68.494879 108.765548 
L 71.774217 109.17278 
L 75.053556 109.587453 
L 78.332895 109.93329 
L 81.612234 110.106234 
L 84.891573 110.33735 
L 88.170912 110.377956 
L 91.450251 110.344233 
L 94.729589 110.253755 
L 98.008928 110.327922 
L 101.288267 110.524923 
L 104.567606 110.775359 
L 107.846945 111.342483 
L 111.126284 111.798576 
L 114.405622 112.16163 
L 117.684961 112.301163 
L 120.9643 114.062032 
L 124.243639 116.252457 
L 127.522978 118.497347 
L 130.802317 120.112506 
L 134.081655 121.431043 
L 137.360994 123.00038 
L 140.640333 124.126101 
L 143.919672 125.32421 
L 147.199011 126.168539 
L 150.47835 127.00097 
L 153.757689 127.674256 
L 157.037027 128.549563 
L 160.316366 129.274624 
L 163.595705 130.067518 
L 166.875044 130.732732 
L 170.154383 131.38758 
L 173.433722 131.980855 
L 176.71306 132.628439 
L 179.992399 133.196873 
L 183.271738 133.730584 
L 186.551077 134.293744 
L 189.830416 134.681809 
L 193.109755 135.301133 
L 196.389093 135.803657 
L 199.668432 136.267451 
L 202.947771 136.775188 
L 206.22711 137.353803 
L 209.506449 137.648019 
L 212.785788 137.86606 
L 216.065127 138.290639 
L 219.344465 138.681721 
L 222.623804 138.994513 
L 225.903143 139.41712 
L 229.182482 139.877515 
L 232.461821 140.229124 
L 235.74116 140.529651 
L 239.020498 140.814073 
L 242.299837 141.125655 
L 245.579176 141.468341 
L 248.858515 141.853997 
L 252.137854 142.320671 
L 255.417193 142.788145 
L 258.696532 143.136982 
L 261.97587 143.356694 
L 265.255209 143.56175 
L 268.534548 143.652734 
L 271.813887 143.747454 
L 275.093226 143.932878 
L 278.372565 144.242139 
L 281.651903 144.588416 
L 284.931242 144.924503 
L 288.210581 145.139166 
L 291.48992 145.342265 
L 294.769259 145.510324 
L 298.048598 145.66216 
L 301.327936 145.846077 
L 304.607275 145.993987 
L 307.886614 146.091867 
L 311.165953 146.209294 
L 314.445292 146.304382 
L 317.724631 146.344943 
L 321.00397 146.438624 
L 324.283308 146.552827 
L 327.562647 146.700941 
L 330.841986 146.851847 
L 334.121325 146.963921 
L 337.400664 147.113873 
L 340.680003 147.119824 
L 343.959341 146.95062 
L 347.23868 146.792216 
L 350.518019 146.661118 
L 353.797358 146.655635 
L 357.076697 146.786505 
L 360.356036 146.995823 
L 363.635374 147.231077 
L 366.914713 147.33418 
L 370.194052 147.338798 
L 373.473391 147.333043 
L 376.75273 147.329434 
L 380.032069 147.312275 
L 383.311408 147.276505 
L 386.590746 147.273164 
L 389.870085 147.222088 
" style="fill:none;stroke:#ff0000;stroke-linecap:square;stroke-width:1.5;"/>
    <g clip-path="url(#pf414c1319d)">
     <use style="fill:#ff0000;stroke:#ff0000;" x="65.21554" xlink:href="#md675f9deb1" y="108.179529"/>
     <use style="fill:#ff0000;stroke:#ff0000;" x="98.008928" xlink:href="#md675f9deb1" y="110.327922"/>
     <use style="fill:#ff0000;stroke:#ff0000;" x="130.802317" xlink:href="#md675f9deb1" y="120.112506"/>
     <use style="fill:#ff0000;stroke:#ff0000;" x="163.595705" xlink:href="#md675f9deb1" y="130.067518"/>
     <use style="fill:#ff0000;stroke:#ff0000;" x="196.389093" xlink:href="#md675f9deb1" y="135.803657"/>
     <use style="fill:#ff0000;stroke:#ff0000;" x="229.182482" xlink:href="#md675f9deb1" y="139.877515"/>
     <use style="fill:#ff0000;stroke:#ff0000;" x="261.97587" xlink:href="#md675f9deb1" y="143.356694"/>
     <use style="fill:#ff0000;stroke:#ff0000;" x="294.769259" xlink:href="#md675f9deb1" y="145.510324"/>
     <use style="fill:#ff0000;stroke:#ff0000;" x="327.562647" xlink:href="#md675f9deb1" y="146.700941"/>
     <use style="fill:#ff0000;stroke:#ff0000;" x="360.356036" xlink:href="#md675f9deb1" y="146.995823"/>
    </g>
   </g>
   <g id="line2d_20">
    <path clip-path="url(#pf414c1319d)" d="M 65.21554 108.179529 
L 68.494879 108.4628 
L 71.774217 108.676308 
L 75.053556 108.894589 
L 78.332895 108.925291 
L 81.612234 108.940729 
L 84.891573 108.95061 
L 88.170912 108.983065 
L 91.450251 109.016968 
L 94.729589 109.213531 
L 98.008928 109.639808 
L 101.288267 110.280618 
L 104.567606 111.010792 
L 107.846945 111.844723 
L 111.126284 112.632544 
L 114.405622 113.346491 
L 117.684961 113.985274 
L 120.9643 114.659679 
L 124.243639 115.308455 
L 127.522978 115.806135 
L 130.802317 116.308672 
L 134.081655 116.845036 
L 137.360994 117.37033 
L 140.640333 117.979153 
L 143.919672 118.573298 
L 147.199011 119.158775 
L 150.47835 119.721817 
L 153.757689 120.39603 
L 157.037027 121.085202 
L 160.316366 121.870106 
L 163.595705 122.728134 
L 166.875044 123.575922 
L 170.154383 124.424834 
L 173.433722 125.201824 
L 176.71306 125.961763 
L 179.992399 126.750952 
L 183.271738 127.655764 
L 186.551077 128.580665 
L 189.830416 129.500814 
L 193.109755 130.441994 
L 196.389093 131.624586 
L 199.668432 132.682969 
L 202.947771 133.774505 
L 206.22711 134.718387 
L 209.506449 135.621034 
L 212.785788 136.421298 
L 216.065127 137.200314 
L 219.344465 138.026979 
L 222.623804 138.827727 
L 225.903143 139.732139 
L 229.182482 140.764896 
L 232.461821 141.825819 
L 235.74116 142.930146 
L 239.020498 143.975274 
L 242.299837 144.888442 
L 245.579176 145.788035 
L 248.858515 146.777312 
L 252.137854 147.87683 
L 255.417193 149.026424 
L 258.696532 150.172683 
L 261.97587 151.204951 
L 265.255209 152.066796 
L 268.534548 152.779131 
L 271.813887 153.525403 
L 275.093226 154.365599 
L 278.372565 155.397712 
L 281.651903 156.516802 
L 284.931242 157.604101 
L 288.210581 158.66266 
L 291.48992 159.622301 
L 294.769259 160.513737 
L 298.048598 161.44499 
L 301.327936 162.298092 
L 304.607275 163.160126 
L 307.886614 163.975866 
L 311.165953 164.710187 
L 314.445292 165.334056 
L 317.724631 166.033056 
L 321.00397 166.743267 
L 324.283308 167.459918 
L 327.562647 168.220384 
L 330.841986 168.972666 
L 334.121325 169.707217 
L 337.400664 170.51583 
L 340.680003 171.208942 
L 343.959341 171.722932 
L 347.23868 172.061504 
L 350.518019 172.405466 
L 353.797358 172.909946 
L 357.076697 173.689576 
L 360.356036 174.520561 
L 363.635374 175.276555 
L 366.914713 175.90441 
L 370.194052 176.340078 
L 373.473391 176.728748 
L 376.75273 177.161688 
L 380.032069 177.63645 
L 383.311408 178.17382 
L 386.590746 178.738344 
L 389.870085 179.332471 
" style="fill:none;stroke:#0000ff;stroke-linecap:square;stroke-width:1.5;"/>
    <g clip-path="url(#pf414c1319d)">
     <use style="fill:#0000ff;stroke:#0000ff;" x="65.21554" xlink:href="#m365572dc66" y="108.179529"/>
     <use style="fill:#0000ff;stroke:#0000ff;" x="98.008928" xlink:href="#m365572dc66" y="109.639808"/>
     <use style="fill:#0000ff;stroke:#0000ff;" x="130.802317" xlink:href="#m365572dc66" y="116.308672"/>
     <use style="fill:#0000ff;stroke:#0000ff;" x="163.595705" xlink:href="#m365572dc66" y="122.728134"/>
     <use style="fill:#0000ff;stroke:#0000ff;" x="196.389093" xlink:href="#m365572dc66" y="131.624586"/>
     <use style="fill:#0000ff;stroke:#0000ff;" x="229.182482" xlink:href="#m365572dc66" y="140.764896"/>
     <use style="fill:#0000ff;stroke:#0000ff;" x="261.97587" xlink:href="#m365572dc66" y="151.204951"/>
     <use style="fill:#0000ff;stroke:#0000ff;" x="294.769259" xlink:href="#m365572dc66" y="160.513737"/>
     <use style="fill:#0000ff;stroke:#0000ff;" x="327.562647" xlink:href="#m365572dc66" y="168.220384"/>
     <use style="fill:#0000ff;stroke:#0000ff;" x="360.356036" xlink:href="#m365572dc66" y="174.520561"/>
    </g>
   </g>
   <g id="patch_8">
    <path d="M 48.982813 182.890118 
L 48.982813 104.621882 
" style="fill:none;stroke:#000000;stroke-linecap:square;stroke-linejoin:miter;stroke-width:0.8;"/>
   </g>
   <g id="patch_9">
    <path d="M 406.102813 182.890118 
L 406.102813 104.621882 
" style="fill:none;stroke:#000000;stroke-linecap:square;stroke-linejoin:miter;stroke-width:0.8;"/>
   </g>
   <g id="patch_10">
    <path d="M 48.982813 182.890118 
L 406.102813 182.890118 
" style="fill:none;stroke:#000000;stroke-linecap:square;stroke-linejoin:miter;stroke-width:0.8;"/>
   </g>
   <g id="patch_11">
    <path d="M 48.982813 104.621882 
L 406.102813 104.621882 
" style="fill:none;stroke:#000000;stroke-linecap:square;stroke-linejoin:miter;stroke-width:0.8;"/>
   </g>
  </g>
  <g id="axes_3">
   <g id="patch_12">
    <path d="M 48.982813 276.812 
L 406.102813 276.812 
L 406.102813 198.543765 
L 48.982813 198.543765 
z
" style="fill:#ffffff;"/>
   </g>
   <g id="matplotlib.axis_5">
    <g id="xtick_13">
     <g id="line2d_21">
      <g>
       <use style="stroke:#000000;stroke-width:0.8;" x="65.21554" xlink:href="#m67356cbcbe" y="276.812"/>
      </g>
     </g>
     <g id="text_21">
      <!-- 0 -->
      <g transform="translate(62.03429 291.410438)scale(0.1 -0.1)">
       <use xlink:href="#DejaVuSans-30"/>
      </g>
     </g>
    </g>
    <g id="xtick_14">
     <g id="line2d_22">
      <g>
       <use style="stroke:#000000;stroke-width:0.8;" x="130.802317" xlink:href="#m67356cbcbe" y="276.812"/>
      </g>
     </g>
     <g id="text_22">
      <!-- 20 -->
      <g transform="translate(124.439817 291.410438)scale(0.1 -0.1)">
       <use xlink:href="#DejaVuSans-32"/>
       <use x="63.623047" xlink:href="#DejaVuSans-30"/>
      </g>
     </g>
    </g>
    <g id="xtick_15">
     <g id="line2d_23">
      <g>
       <use style="stroke:#000000;stroke-width:0.8;" x="196.389093" xlink:href="#m67356cbcbe" y="276.812"/>
      </g>
     </g>
     <g id="text_23">
      <!-- 40 -->
      <g transform="translate(190.026593 291.410438)scale(0.1 -0.1)">
       <use xlink:href="#DejaVuSans-34"/>
       <use x="63.623047" xlink:href="#DejaVuSans-30"/>
      </g>
     </g>
    </g>
    <g id="xtick_16">
     <g id="line2d_24">
      <g>
       <use style="stroke:#000000;stroke-width:0.8;" x="261.97587" xlink:href="#m67356cbcbe" y="276.812"/>
      </g>
     </g>
     <g id="text_24">
      <!-- 60 -->
      <g transform="translate(255.61337 291.410438)scale(0.1 -0.1)">
       <use xlink:href="#DejaVuSans-36"/>
       <use x="63.623047" xlink:href="#DejaVuSans-30"/>
      </g>
     </g>
    </g>
    <g id="xtick_17">
     <g id="line2d_25">
      <g>
       <use style="stroke:#000000;stroke-width:0.8;" x="327.562647" xlink:href="#m67356cbcbe" y="276.812"/>
      </g>
     </g>
     <g id="text_25">
      <!-- 80 -->
      <g transform="translate(321.200147 291.410438)scale(0.1 -0.1)">
       <use xlink:href="#DejaVuSans-38"/>
       <use x="63.623047" xlink:href="#DejaVuSans-30"/>
      </g>
     </g>
    </g>
    <g id="xtick_18">
     <g id="line2d_26">
      <g>
       <use style="stroke:#000000;stroke-width:0.8;" x="393.149424" xlink:href="#m67356cbcbe" y="276.812"/>
      </g>
     </g>
     <g id="text_26">
      <!-- 100 -->
      <g transform="translate(383.605674 291.410438)scale(0.1 -0.1)">
       <use xlink:href="#DejaVuSans-31"/>
       <use x="63.623047" xlink:href="#DejaVuSans-30"/>
       <use x="127.246094" xlink:href="#DejaVuSans-30"/>
      </g>
     </g>
    </g>
    <g id="text_27">
     <!-- Time -->
     <g transform="translate(215.155313 305.088562)scale(0.1 -0.1)">
      <use xlink:href="#DejaVuSans-54"/>
      <use x="61.037109" xlink:href="#DejaVuSans-69"/>
      <use x="88.820312" xlink:href="#DejaVuSans-6d"/>
      <use x="186.232422" xlink:href="#DejaVuSans-65"/>
     </g>
    </g>
   </g>
   <g id="matplotlib.axis_6">
    <g id="ytick_5">
     <g id="line2d_27">
      <g>
       <use style="stroke:#000000;stroke-width:0.8;" x="48.982813" xlink:href="#m7c7650623f" y="273.254353"/>
      </g>
     </g>
     <g id="text_28">
      <!-- 0 -->
      <g transform="translate(35.620313 277.053572)scale(0.1 -0.1)">
       <use xlink:href="#DejaVuSans-30"/>
      </g>
     </g>
    </g>
    <g id="ytick_6">
     <g id="line2d_28">
      <g>
       <use style="stroke:#000000;stroke-width:0.8;" x="48.982813" xlink:href="#m7c7650623f" y="236.97021"/>
      </g>
     </g>
     <g id="text_29">
      <!-- 50 -->
      <defs>
       <path d="M 10.796875 72.90625 
L 49.515625 72.90625 
L 49.515625 64.59375 
L 19.828125 64.59375 
L 19.828125 46.734375 
Q 21.96875 47.46875 24.109375 47.828125 
Q 26.265625 48.1875 28.421875 48.1875 
Q 40.625 48.1875 47.75 41.5 
Q 54.890625 34.8125 54.890625 23.390625 
Q 54.890625 11.625 47.5625 5.09375 
Q 40.234375 -1.421875 26.90625 -1.421875 
Q 22.3125 -1.421875 17.546875 -0.640625 
Q 12.796875 0.140625 7.71875 1.703125 
L 7.71875 11.625 
Q 12.109375 9.234375 16.796875 8.0625 
Q 21.484375 6.890625 26.703125 6.890625 
Q 35.15625 6.890625 40.078125 11.328125 
Q 45.015625 15.765625 45.015625 23.390625 
Q 45.015625 31 40.078125 35.4375 
Q 35.15625 39.890625 26.703125 39.890625 
Q 22.75 39.890625 18.8125 39.015625 
Q 14.890625 38.140625 10.796875 36.28125 
z
" id="DejaVuSans-35"/>
      </defs>
      <g transform="translate(29.257813 240.769429)scale(0.1 -0.1)">
       <use xlink:href="#DejaVuSans-35"/>
       <use x="63.623047" xlink:href="#DejaVuSans-30"/>
      </g>
     </g>
    </g>
    <g id="ytick_7">
     <g id="line2d_29">
      <g>
       <use style="stroke:#000000;stroke-width:0.8;" x="48.982813" xlink:href="#m7c7650623f" y="200.686067"/>
      </g>
     </g>
     <g id="text_30">
      <!-- 100 -->
      <g transform="translate(22.895313 204.485285)scale(0.1 -0.1)">
       <use xlink:href="#DejaVuSans-31"/>
       <use x="63.623047" xlink:href="#DejaVuSans-30"/>
       <use x="127.246094" xlink:href="#DejaVuSans-30"/>
      </g>
     </g>
    </g>
    <g id="text_31">
     <!-- z -->
     <defs>
      <path d="M 5.515625 54.6875 
L 48.1875 54.6875 
L 48.1875 46.484375 
L 14.40625 7.171875 
L 48.1875 7.171875 
L 48.1875 0 
L 4.296875 0 
L 4.296875 8.203125 
L 38.09375 47.515625 
L 5.515625 47.515625 
z
" id="DejaVuSans-7a"/>
     </defs>
     <g transform="translate(16.815625 240.302101)rotate(-90)scale(0.1 -0.1)">
      <use xlink:href="#DejaVuSans-7a"/>
     </g>
    </g>
   </g>
   <g id="line2d_30">
    <path clip-path="url(#pdc9533746f)" d="M 65.21554 273.254353 
L 68.494879 272.616884 
L 71.774217 271.973683 
L 75.053556 271.326773 
L 78.332895 270.673107 
L 81.612234 270.014301 
L 84.891573 269.357708 
L 88.170912 268.704185 
L 91.450251 268.055965 
L 94.729589 267.412113 
L 98.008928 266.766436 
L 101.288267 266.118773 
L 104.567606 265.464317 
L 107.846945 264.800033 
L 111.126284 264.132341 
L 114.405622 263.463907 
L 117.684961 262.79792 
L 120.9643 262.08928 
L 124.243639 261.36494 
L 127.522978 260.638742 
L 130.802317 259.930076 
L 134.081655 259.225933 
L 137.360994 258.521851 
L 140.640333 257.82049 
L 143.919672 257.116401 
L 147.199011 256.414432 
L 150.47835 255.714357 
L 153.757689 255.029279 
L 157.037027 254.336252 
L 160.316366 253.647667 
L 163.595705 252.956618 
L 166.875044 252.273178 
L 170.154383 251.587692 
L 173.433722 250.907142 
L 176.71306 250.229834 
L 179.992399 249.555325 
L 183.271738 248.887599 
L 186.551077 248.217774 
L 189.830416 247.551298 
L 193.109755 246.886977 
L 196.389093 246.228242 
L 199.668432 245.567087 
L 202.947771 244.906669 
L 206.22711 244.249218 
L 209.506449 243.592022 
L 212.785788 242.933671 
L 216.065127 242.28225 
L 219.344465 241.630454 
L 222.623804 240.982621 
L 225.903143 240.331548 
L 229.182482 239.676907 
L 232.461821 239.018374 
L 235.74116 238.356206 
L 239.020498 237.695023 
L 242.299837 237.033902 
L 245.579176 236.369852 
L 248.858515 235.699736 
L 252.137854 235.025224 
L 255.417193 234.347128 
L 258.696532 233.665712 
L 261.97587 232.975906 
L 265.255209 232.284447 
L 268.534548 231.598107 
L 271.813887 230.910798 
L 275.093226 230.218987 
L 278.372565 229.519963 
L 281.651903 228.815501 
L 284.931242 228.109864 
L 288.210581 227.400306 
L 291.48992 226.689245 
L 294.769259 225.974701 
L 298.048598 225.259903 
L 301.327936 224.541318 
L 304.607275 223.820596 
L 307.886614 223.096785 
L 311.165953 222.372613 
L 314.445292 221.642418 
L 317.724631 220.914338 
L 321.00397 220.185726 
L 324.283308 219.455714 
L 327.562647 218.729328 
L 330.841986 218.002283 
L 334.121325 217.273832 
L 337.400664 216.540891 
L 340.680003 215.805796 
L 343.959341 215.070059 
L 347.23868 214.340273 
L 350.518019 213.614374 
L 353.797358 212.887983 
L 357.076697 212.159897 
L 360.356036 211.425085 
L 363.635374 210.691263 
L 366.914713 209.957314 
L 370.194052 209.222706 
L 373.473391 208.492229 
L 376.75273 207.760367 
L 380.032069 207.031706 
L 383.311408 206.298466 
L 386.590746 205.564184 
L 389.870085 204.833231 
" style="fill:none;stroke:#ff0000;stroke-linecap:square;stroke-width:1.5;"/>
    <g clip-path="url(#pdc9533746f)">
     <use style="fill:#ff0000;stroke:#ff0000;" x="65.21554" xlink:href="#md675f9deb1" y="273.254353"/>
     <use style="fill:#ff0000;stroke:#ff0000;" x="98.008928" xlink:href="#md675f9deb1" y="266.766436"/>
     <use style="fill:#ff0000;stroke:#ff0000;" x="130.802317" xlink:href="#md675f9deb1" y="259.930076"/>
     <use style="fill:#ff0000;stroke:#ff0000;" x="163.595705" xlink:href="#md675f9deb1" y="252.956618"/>
     <use style="fill:#ff0000;stroke:#ff0000;" x="196.389093" xlink:href="#md675f9deb1" y="246.228242"/>
     <use style="fill:#ff0000;stroke:#ff0000;" x="229.182482" xlink:href="#md675f9deb1" y="239.676907"/>
     <use style="fill:#ff0000;stroke:#ff0000;" x="261.97587" xlink:href="#md675f9deb1" y="232.975906"/>
     <use style="fill:#ff0000;stroke:#ff0000;" x="294.769259" xlink:href="#md675f9deb1" y="225.974701"/>
     <use style="fill:#ff0000;stroke:#ff0000;" x="327.562647" xlink:href="#md675f9deb1" y="218.729328"/>
     <use style="fill:#ff0000;stroke:#ff0000;" x="360.356036" xlink:href="#md675f9deb1" y="211.425085"/>
    </g>
   </g>
   <g id="line2d_31">
    <path clip-path="url(#pdc9533746f)" d="M 65.21554 273.254353 
L 68.494879 272.636925 
L 71.774217 272.004104 
L 75.053556 271.337808 
L 78.332895 270.645388 
L 81.612234 269.944406 
L 84.891573 269.235362 
L 88.170912 268.547288 
L 91.450251 267.866381 
L 94.729589 267.191625 
L 98.008928 266.518442 
L 101.288267 265.852691 
L 104.567606 265.187872 
L 107.846945 264.515479 
L 111.126284 263.834278 
L 114.405622 263.154467 
L 117.684961 262.45046 
L 120.9643 261.75584 
L 124.243639 261.051233 
L 127.522978 260.317887 
L 130.802317 259.588019 
L 134.081655 258.865334 
L 137.360994 258.133611 
L 140.640333 257.402923 
L 143.919672 256.679456 
L 147.199011 255.960418 
L 150.47835 255.25087 
L 153.757689 254.54499 
L 157.037027 253.825533 
L 160.316366 253.091523 
L 163.595705 252.357752 
L 166.875044 251.631483 
L 170.154383 250.915691 
L 173.433722 250.206031 
L 176.71306 249.515268 
L 179.992399 248.846086 
L 183.271738 248.174171 
L 186.551077 247.488617 
L 189.830416 246.826058 
L 193.109755 246.176508 
L 196.389093 245.53201 
L 199.668432 244.889829 
L 202.947771 244.244852 
L 206.22711 243.591653 
L 209.506449 242.936594 
L 212.785788 242.255442 
L 216.065127 241.568758 
L 219.344465 240.892267 
L 222.623804 240.209825 
L 225.903143 239.503622 
L 229.182482 238.79139 
L 232.461821 238.08495 
L 235.74116 237.402335 
L 239.020498 236.713459 
L 242.299837 236.034402 
L 245.579176 235.372857 
L 248.858515 234.691203 
L 252.137854 234.008888 
L 255.417193 233.316751 
L 258.696532 232.644806 
L 261.97587 231.970524 
L 265.255209 231.295569 
L 268.534548 230.597229 
L 271.813887 229.886245 
L 275.093226 229.15886 
L 278.372565 228.418749 
L 281.651903 227.688482 
L 284.931242 226.959441 
L 288.210581 226.228944 
L 291.48992 225.49071 
L 294.769259 224.759352 
L 298.048598 224.024606 
L 301.327936 223.287595 
L 304.607275 222.537602 
L 307.886614 221.79573 
L 311.165953 221.047486 
L 314.445292 220.284719 
L 317.724631 219.515375 
L 321.00397 218.731432 
L 324.283308 217.938962 
L 327.562647 217.166075 
L 330.841986 216.395911 
L 334.121325 215.612959 
L 337.400664 214.819382 
L 340.680003 214.038948 
L 343.959341 213.248743 
L 347.23868 212.450526 
L 350.518019 211.656943 
L 353.797358 210.900942 
L 357.076697 210.125242 
L 360.356036 209.31949 
L 363.635374 208.525287 
L 366.914713 207.741466 
L 370.194052 206.931212 
L 373.473391 206.109122 
L 376.75273 205.293631 
L 380.032069 204.487464 
L 383.311408 203.685228 
L 386.590746 202.888107 
L 389.870085 202.101412 
" style="fill:none;stroke:#0000ff;stroke-linecap:square;stroke-width:1.5;"/>
    <g clip-path="url(#pdc9533746f)">
     <use style="fill:#0000ff;stroke:#0000ff;" x="65.21554" xlink:href="#m365572dc66" y="273.254353"/>
     <use style="fill:#0000ff;stroke:#0000ff;" x="98.008928" xlink:href="#m365572dc66" y="266.518442"/>
     <use style="fill:#0000ff;stroke:#0000ff;" x="130.802317" xlink:href="#m365572dc66" y="259.588019"/>
     <use style="fill:#0000ff;stroke:#0000ff;" x="163.595705" xlink:href="#m365572dc66" y="252.357752"/>
     <use style="fill:#0000ff;stroke:#0000ff;" x="196.389093" xlink:href="#m365572dc66" y="245.53201"/>
     <use style="fill:#0000ff;stroke:#0000ff;" x="229.182482" xlink:href="#m365572dc66" y="238.79139"/>
     <use style="fill:#0000ff;stroke:#0000ff;" x="261.97587" xlink:href="#m365572dc66" y="231.970524"/>
     <use style="fill:#0000ff;stroke:#0000ff;" x="294.769259" xlink:href="#m365572dc66" y="224.759352"/>
     <use style="fill:#0000ff;stroke:#0000ff;" x="327.562647" xlink:href="#m365572dc66" y="217.166075"/>
     <use style="fill:#0000ff;stroke:#0000ff;" x="360.356036" xlink:href="#m365572dc66" y="209.31949"/>
    </g>
   </g>
   <g id="patch_13">
    <path d="M 48.982813 276.812 
L 48.982813 198.543765 
" style="fill:none;stroke:#000000;stroke-linecap:square;stroke-linejoin:miter;stroke-width:0.8;"/>
   </g>
   <g id="patch_14">
    <path d="M 406.102813 276.812 
L 406.102813 198.543765 
" style="fill:none;stroke:#000000;stroke-linecap:square;stroke-linejoin:miter;stroke-width:0.8;"/>
   </g>
   <g id="patch_15">
    <path d="M 48.982813 276.812 
L 406.102813 276.812 
" style="fill:none;stroke:#000000;stroke-linecap:square;stroke-linejoin:miter;stroke-width:0.8;"/>
   </g>
   <g id="patch_16">
    <path d="M 48.982813 198.543765 
L 406.102813 198.543765 
" style="fill:none;stroke:#000000;stroke-linecap:square;stroke-linejoin:miter;stroke-width:0.8;"/>
   </g>
   <g id="legend_1">
    <g id="patch_17">
     <path d="M 55.982813 271.812 
L 154.951563 271.812 
Q 156.951563 271.812 156.951563 269.812 
L 156.951563 241.45575 
Q 156.951563 239.45575 154.951563 239.45575 
L 55.982813 239.45575 
Q 53.982813 239.45575 53.982813 241.45575 
L 53.982813 269.812 
Q 53.982813 271.812 55.982813 271.812 
z
" style="fill:#ffffff;opacity:0.8;stroke:#cccccc;stroke-linejoin:miter;"/>
    </g>
    <g id="line2d_32">
     <path d="M 57.982813 247.554187 
L 77.982813 247.554187 
" style="fill:none;stroke:#ff0000;stroke-linecap:square;stroke-width:1.5;"/>
    </g>
    <g id="line2d_33">
     <g>
      <use style="fill:#ff0000;stroke:#ff0000;" x="67.982813" xlink:href="#md675f9deb1" y="247.554187"/>
     </g>
    </g>
    <g id="text_32">
     <!-- Ground Truth -->
     <defs>
      <path d="M 59.515625 10.40625 
L 59.515625 29.984375 
L 43.40625 29.984375 
L 43.40625 38.09375 
L 69.28125 38.09375 
L 69.28125 6.78125 
Q 63.578125 2.734375 56.6875 0.65625 
Q 49.8125 -1.421875 42 -1.421875 
Q 24.90625 -1.421875 15.25 8.5625 
Q 5.609375 18.5625 5.609375 36.375 
Q 5.609375 54.25 15.25 64.234375 
Q 24.90625 74.21875 42 74.21875 
Q 49.125 74.21875 55.546875 72.453125 
Q 61.96875 70.703125 67.390625 67.28125 
L 67.390625 56.78125 
Q 61.921875 61.421875 55.765625 63.765625 
Q 49.609375 66.109375 42.828125 66.109375 
Q 29.4375 66.109375 22.71875 58.640625 
Q 16.015625 51.171875 16.015625 36.375 
Q 16.015625 21.625 22.71875 14.15625 
Q 29.4375 6.6875 42.828125 6.6875 
Q 48.046875 6.6875 52.140625 7.59375 
Q 56.25 8.5 59.515625 10.40625 
z
" id="DejaVuSans-47"/>
      <path d="M 41.109375 46.296875 
Q 39.59375 47.171875 37.8125 47.578125 
Q 36.03125 48 33.890625 48 
Q 26.265625 48 22.1875 43.046875 
Q 18.109375 38.09375 18.109375 28.8125 
L 18.109375 0 
L 9.078125 0 
L 9.078125 54.6875 
L 18.109375 54.6875 
L 18.109375 46.1875 
Q 20.953125 51.171875 25.484375 53.578125 
Q 30.03125 56 36.53125 56 
Q 37.453125 56 38.578125 55.875 
Q 39.703125 55.765625 41.0625 55.515625 
z
" id="DejaVuSans-72"/>
      <path d="M 30.609375 48.390625 
Q 23.390625 48.390625 19.1875 42.75 
Q 14.984375 37.109375 14.984375 27.296875 
Q 14.984375 17.484375 19.15625 11.84375 
Q 23.34375 6.203125 30.609375 6.203125 
Q 37.796875 6.203125 41.984375 11.859375 
Q 46.1875 17.53125 46.1875 27.296875 
Q 46.1875 37.015625 41.984375 42.703125 
Q 37.796875 48.390625 30.609375 48.390625 
z
M 30.609375 56 
Q 42.328125 56 49.015625 48.375 
Q 55.71875 40.765625 55.71875 27.296875 
Q 55.71875 13.875 49.015625 6.21875 
Q 42.328125 -1.421875 30.609375 -1.421875 
Q 18.84375 -1.421875 12.171875 6.21875 
Q 5.515625 13.875 5.515625 27.296875 
Q 5.515625 40.765625 12.171875 48.375 
Q 18.84375 56 30.609375 56 
z
" id="DejaVuSans-6f"/>
      <path d="M 8.5 21.578125 
L 8.5 54.6875 
L 17.484375 54.6875 
L 17.484375 21.921875 
Q 17.484375 14.15625 20.5 10.265625 
Q 23.53125 6.390625 29.59375 6.390625 
Q 36.859375 6.390625 41.078125 11.03125 
Q 45.3125 15.671875 45.3125 23.6875 
L 45.3125 54.6875 
L 54.296875 54.6875 
L 54.296875 0 
L 45.3125 0 
L 45.3125 8.40625 
Q 42.046875 3.421875 37.71875 1 
Q 33.40625 -1.421875 27.6875 -1.421875 
Q 18.265625 -1.421875 13.375 4.4375 
Q 8.5 10.296875 8.5 21.578125 
z
M 31.109375 56 
z
" id="DejaVuSans-75"/>
      <path d="M 54.890625 33.015625 
L 54.890625 0 
L 45.90625 0 
L 45.90625 32.71875 
Q 45.90625 40.484375 42.875 44.328125 
Q 39.84375 48.1875 33.796875 48.1875 
Q 26.515625 48.1875 22.3125 43.546875 
Q 18.109375 38.921875 18.109375 30.90625 
L 18.109375 0 
L 9.078125 0 
L 9.078125 54.6875 
L 18.109375 54.6875 
L 18.109375 46.1875 
Q 21.34375 51.125 25.703125 53.5625 
Q 30.078125 56 35.796875 56 
Q 45.21875 56 50.046875 50.171875 
Q 54.890625 44.34375 54.890625 33.015625 
z
" id="DejaVuSans-6e"/>
      <path d="M 45.40625 46.390625 
L 45.40625 75.984375 
L 54.390625 75.984375 
L 54.390625 0 
L 45.40625 0 
L 45.40625 8.203125 
Q 42.578125 3.328125 38.25 0.953125 
Q 33.9375 -1.421875 27.875 -1.421875 
Q 17.96875 -1.421875 11.734375 6.484375 
Q 5.515625 14.40625 5.515625 27.296875 
Q 5.515625 40.1875 11.734375 48.09375 
Q 17.96875 56 27.875 56 
Q 33.9375 56 38.25 53.625 
Q 42.578125 51.265625 45.40625 46.390625 
z
M 14.796875 27.296875 
Q 14.796875 17.390625 18.875 11.75 
Q 22.953125 6.109375 30.078125 6.109375 
Q 37.203125 6.109375 41.296875 11.75 
Q 45.40625 17.390625 45.40625 27.296875 
Q 45.40625 37.203125 41.296875 42.84375 
Q 37.203125 48.484375 30.078125 48.484375 
Q 22.953125 48.484375 18.875 42.84375 
Q 14.796875 37.203125 14.796875 27.296875 
z
" id="DejaVuSans-64"/>
      <path id="DejaVuSans-20"/>
      <path d="M 18.3125 70.21875 
L 18.3125 54.6875 
L 36.8125 54.6875 
L 36.8125 47.703125 
L 18.3125 47.703125 
L 18.3125 18.015625 
Q 18.3125 11.328125 20.140625 9.421875 
Q 21.96875 7.515625 27.59375 7.515625 
L 36.8125 7.515625 
L 36.8125 0 
L 27.59375 0 
Q 17.1875 0 13.234375 3.875 
Q 9.28125 7.765625 9.28125 18.015625 
L 9.28125 47.703125 
L 2.6875 47.703125 
L 2.6875 54.6875 
L 9.28125 54.6875 
L 9.28125 70.21875 
z
" id="DejaVuSans-74"/>
      <path d="M 54.890625 33.015625 
L 54.890625 0 
L 45.90625 0 
L 45.90625 32.71875 
Q 45.90625 40.484375 42.875 44.328125 
Q 39.84375 48.1875 33.796875 48.1875 
Q 26.515625 48.1875 22.3125 43.546875 
Q 18.109375 38.921875 18.109375 30.90625 
L 18.109375 0 
L 9.078125 0 
L 9.078125 75.984375 
L 18.109375 75.984375 
L 18.109375 46.1875 
Q 21.34375 51.125 25.703125 53.5625 
Q 30.078125 56 35.796875 56 
Q 45.21875 56 50.046875 50.171875 
Q 54.890625 44.34375 54.890625 33.015625 
z
" id="DejaVuSans-68"/>
     </defs>
     <g transform="translate(85.982813 251.054187)scale(0.1 -0.1)">
      <use xlink:href="#DejaVuSans-47"/>
      <use x="77.490234" xlink:href="#DejaVuSans-72"/>
      <use x="118.572266" xlink:href="#DejaVuSans-6f"/>
      <use x="179.753906" xlink:href="#DejaVuSans-75"/>
      <use x="243.132812" xlink:href="#DejaVuSans-6e"/>
      <use x="306.511719" xlink:href="#DejaVuSans-64"/>
      <use x="369.988281" xlink:href="#DejaVuSans-20"/>
      <use x="401.775391" xlink:href="#DejaVuSans-54"/>
      <use x="462.640625" xlink:href="#DejaVuSans-72"/>
      <use x="503.753906" xlink:href="#DejaVuSans-75"/>
      <use x="567.132812" xlink:href="#DejaVuSans-74"/>
      <use x="606.341797" xlink:href="#DejaVuSans-68"/>
     </g>
    </g>
    <g id="line2d_34">
     <path d="M 57.982813 262.232312 
L 77.982813 262.232312 
" style="fill:none;stroke:#0000ff;stroke-linecap:square;stroke-width:1.5;"/>
    </g>
    <g id="line2d_35">
     <g>
      <use style="fill:#0000ff;stroke:#0000ff;" x="67.982813" xlink:href="#m365572dc66" y="262.232312"/>
     </g>
    </g>
    <g id="text_33">
     <!-- Prediction -->
     <defs>
      <path d="M 19.671875 64.796875 
L 19.671875 37.40625 
L 32.078125 37.40625 
Q 38.96875 37.40625 42.71875 40.96875 
Q 46.484375 44.53125 46.484375 51.125 
Q 46.484375 57.671875 42.71875 61.234375 
Q 38.96875 64.796875 32.078125 64.796875 
z
M 9.8125 72.90625 
L 32.078125 72.90625 
Q 44.34375 72.90625 50.609375 67.359375 
Q 56.890625 61.8125 56.890625 51.125 
Q 56.890625 40.328125 50.609375 34.8125 
Q 44.34375 29.296875 32.078125 29.296875 
L 19.671875 29.296875 
L 19.671875 0 
L 9.8125 0 
z
" id="DejaVuSans-50"/>
      <path d="M 48.78125 52.59375 
L 48.78125 44.1875 
Q 44.96875 46.296875 41.140625 47.34375 
Q 37.3125 48.390625 33.40625 48.390625 
Q 24.65625 48.390625 19.8125 42.84375 
Q 14.984375 37.3125 14.984375 27.296875 
Q 14.984375 17.28125 19.8125 11.734375 
Q 24.65625 6.203125 33.40625 6.203125 
Q 37.3125 6.203125 41.140625 7.25 
Q 44.96875 8.296875 48.78125 10.40625 
L 48.78125 2.09375 
Q 45.015625 0.34375 40.984375 -0.53125 
Q 36.96875 -1.421875 32.421875 -1.421875 
Q 20.0625 -1.421875 12.78125 6.34375 
Q 5.515625 14.109375 5.515625 27.296875 
Q 5.515625 40.671875 12.859375 48.328125 
Q 20.21875 56 33.015625 56 
Q 37.15625 56 41.109375 55.140625 
Q 45.0625 54.296875 48.78125 52.59375 
z
" id="DejaVuSans-63"/>
     </defs>
     <g transform="translate(85.982813 265.732312)scale(0.1 -0.1)">
      <use xlink:href="#DejaVuSans-50"/>
      <use x="60.287109" xlink:href="#DejaVuSans-72"/>
      <use x="101.369141" xlink:href="#DejaVuSans-65"/>
      <use x="162.892578" xlink:href="#DejaVuSans-64"/>
      <use x="226.369141" xlink:href="#DejaVuSans-69"/>
      <use x="254.152344" xlink:href="#DejaVuSans-63"/>
      <use x="309.132812" xlink:href="#DejaVuSans-74"/>
      <use x="348.341797" xlink:href="#DejaVuSans-69"/>
      <use x="376.125" xlink:href="#DejaVuSans-6f"/>
      <use x="437.306641" xlink:href="#DejaVuSans-6e"/>
     </g>
    </g>
   </g>
  </g>
 </g>
 <defs>
  <clipPath id="p60fb4628e5">
   <rect height="78.268235" width="357.12" x="48.982813" y="10.7"/>
  </clipPath>
  <clipPath id="pf414c1319d">
   <rect height="78.268235" width="357.12" x="48.982813" y="104.621882"/>
  </clipPath>
  <clipPath id="pdc9533746f">
   <rect height="78.268235" width="357.12" x="48.982813" y="198.543765"/>
  </clipPath>
 </defs>
</svg>
