<?xml version="1.0" encoding="utf-8" standalone="no"?>
<!DOCTYPE svg PUBLIC "-//W3C//DTD SVG 1.1//EN"
  "http://www.w3.org/Graphics/SVG/1.1/DTD/svg11.dtd">
<!-- Created with matplotlib (http://matplotlib.org/) -->
<svg height="314pt" version="1.1" viewBox="0 0 416 314" width="416pt" xmlns="http://www.w3.org/2000/svg" xmlns:xlink="http://www.w3.org/1999/xlink">
 <defs>
  <style type="text/css">
*{stroke-linecap:butt;stroke-linejoin:round;}
  </style>
 </defs>
 <g id="figure_1">
  <g id="patch_1">
   <path d="M 0 314.36825 
L 416.802812 314.36825 
L 416.802812 0 
L 0 0 
z
" style="fill:#ffffff;"/>
  </g>
  <g id="axes_1">
   <g id="patch_2">
    <path d="M 48.982813 88.968235 
L 406.102813 88.968235 
L 406.102813 10.7 
L 48.982813 10.7 
z
" style="fill:#ffffff;"/>
   </g>
   <g id="matplotlib.axis_1">
    <g id="xtick_1">
     <g id="line2d_1">
      <defs>
       <path d="M 0 0 
L 0 3.5 
" id="m6c6c737878" style="stroke:#000000;stroke-width:0.8;"/>
      </defs>
      <g>
       <use style="stroke:#000000;stroke-width:0.8;" x="65.21554" xlink:href="#m6c6c737878" y="88.968235"/>
      </g>
     </g>
     <g id="text_1">
      <!-- 0 -->
      <defs>
       <path d="M 31.78125 66.40625 
Q 24.171875 66.40625 20.328125 58.90625 
Q 16.5 51.421875 16.5 36.375 
Q 16.5 21.390625 20.328125 13.890625 
Q 24.171875 6.390625 31.78125 6.390625 
Q 39.453125 6.390625 43.28125 13.890625 
Q 47.125 21.390625 47.125 36.375 
Q 47.125 51.421875 43.28125 58.90625 
Q 39.453125 66.40625 31.78125 66.40625 
z
M 31.78125 74.21875 
Q 44.046875 74.21875 50.515625 64.515625 
Q 56.984375 54.828125 56.984375 36.375 
Q 56.984375 17.96875 50.515625 8.265625 
Q 44.046875 -1.421875 31.78125 -1.421875 
Q 19.53125 -1.421875 13.0625 8.265625 
Q 6.59375 17.96875 6.59375 36.375 
Q 6.59375 54.828125 13.0625 64.515625 
Q 19.53125 74.21875 31.78125 74.21875 
z
" id="DejaVuSans-30"/>
      </defs>
      <g transform="translate(62.03429 103.566673)scale(0.1 -0.1)">
       <use xlink:href="#DejaVuSans-30"/>
      </g>
     </g>
    </g>
    <g id="xtick_2">
     <g id="line2d_2">
      <g>
       <use style="stroke:#000000;stroke-width:0.8;" x="130.802317" xlink:href="#m6c6c737878" y="88.968235"/>
      </g>
     </g>
     <g id="text_2">
      <!-- 20 -->
      <defs>
       <path d="M 19.1875 8.296875 
L 53.609375 8.296875 
L 53.609375 0 
L 7.328125 0 
L 7.328125 8.296875 
Q 12.9375 14.109375 22.625 23.890625 
Q 32.328125 33.6875 34.8125 36.53125 
Q 39.546875 41.84375 41.421875 45.53125 
Q 43.3125 49.21875 43.3125 52.78125 
Q 43.3125 58.59375 39.234375 62.25 
Q 35.15625 65.921875 28.609375 65.921875 
Q 23.96875 65.921875 18.8125 64.3125 
Q 13.671875 62.703125 7.8125 59.421875 
L 7.8125 69.390625 
Q 13.765625 71.78125 18.9375 73 
Q 24.125 74.21875 28.421875 74.21875 
Q 39.75 74.21875 46.484375 68.546875 
Q 53.21875 62.890625 53.21875 53.421875 
Q 53.21875 48.921875 51.53125 44.890625 
Q 49.859375 40.875 45.40625 35.40625 
Q 44.1875 33.984375 37.640625 27.21875 
Q 31.109375 20.453125 19.1875 8.296875 
z
" id="DejaVuSans-32"/>
      </defs>
      <g transform="translate(124.439817 103.566673)scale(0.1 -0.1)">
       <use xlink:href="#DejaVuSans-32"/>
       <use x="63.623047" xlink:href="#DejaVuSans-30"/>
      </g>
     </g>
    </g>
    <g id="xtick_3">
     <g id="line2d_3">
      <g>
       <use style="stroke:#000000;stroke-width:0.8;" x="196.389093" xlink:href="#m6c6c737878" y="88.968235"/>
      </g>
     </g>
     <g id="text_3">
      <!-- 40 -->
      <defs>
       <path d="M 37.796875 64.3125 
L 12.890625 25.390625 
L 37.796875 25.390625 
z
M 35.203125 72.90625 
L 47.609375 72.90625 
L 47.609375 25.390625 
L 58.015625 25.390625 
L 58.015625 17.1875 
L 47.609375 17.1875 
L 47.609375 0 
L 37.796875 0 
L 37.796875 17.1875 
L 4.890625 17.1875 
L 4.890625 26.703125 
z
" id="DejaVuSans-34"/>
      </defs>
      <g transform="translate(190.026593 103.566673)scale(0.1 -0.1)">
       <use xlink:href="#DejaVuSans-34"/>
       <use x="63.623047" xlink:href="#DejaVuSans-30"/>
      </g>
     </g>
    </g>
    <g id="xtick_4">
     <g id="line2d_4">
      <g>
       <use style="stroke:#000000;stroke-width:0.8;" x="261.97587" xlink:href="#m6c6c737878" y="88.968235"/>
      </g>
     </g>
     <g id="text_4">
      <!-- 60 -->
      <defs>
       <path d="M 33.015625 40.375 
Q 26.375 40.375 22.484375 35.828125 
Q 18.609375 31.296875 18.609375 23.390625 
Q 18.609375 15.53125 22.484375 10.953125 
Q 26.375 6.390625 33.015625 6.390625 
Q 39.65625 6.390625 43.53125 10.953125 
Q 47.40625 15.53125 47.40625 23.390625 
Q 47.40625 31.296875 43.53125 35.828125 
Q 39.65625 40.375 33.015625 40.375 
z
M 52.59375 71.296875 
L 52.59375 62.3125 
Q 48.875 64.0625 45.09375 64.984375 
Q 41.3125 65.921875 37.59375 65.921875 
Q 27.828125 65.921875 22.671875 59.328125 
Q 17.53125 52.734375 16.796875 39.40625 
Q 19.671875 43.65625 24.015625 45.921875 
Q 28.375 48.1875 33.59375 48.1875 
Q 44.578125 48.1875 50.953125 41.515625 
Q 57.328125 34.859375 57.328125 23.390625 
Q 57.328125 12.15625 50.6875 5.359375 
Q 44.046875 -1.421875 33.015625 -1.421875 
Q 20.359375 -1.421875 13.671875 8.265625 
Q 6.984375 17.96875 6.984375 36.375 
Q 6.984375 53.65625 15.1875 63.9375 
Q 23.390625 74.21875 37.203125 74.21875 
Q 40.921875 74.21875 44.703125 73.484375 
Q 48.484375 72.75 52.59375 71.296875 
z
" id="DejaVuSans-36"/>
      </defs>
      <g transform="translate(255.61337 103.566673)scale(0.1 -0.1)">
       <use xlink:href="#DejaVuSans-36"/>
       <use x="63.623047" xlink:href="#DejaVuSans-30"/>
      </g>
     </g>
    </g>
    <g id="xtick_5">
     <g id="line2d_5">
      <g>
       <use style="stroke:#000000;stroke-width:0.8;" x="327.562647" xlink:href="#m6c6c737878" y="88.968235"/>
      </g>
     </g>
     <g id="text_5">
      <!-- 80 -->
      <defs>
       <path d="M 31.78125 34.625 
Q 24.75 34.625 20.71875 30.859375 
Q 16.703125 27.09375 16.703125 20.515625 
Q 16.703125 13.921875 20.71875 10.15625 
Q 24.75 6.390625 31.78125 6.390625 
Q 38.8125 6.390625 42.859375 10.171875 
Q 46.921875 13.96875 46.921875 20.515625 
Q 46.921875 27.09375 42.890625 30.859375 
Q 38.875 34.625 31.78125 34.625 
z
M 21.921875 38.8125 
Q 15.578125 40.375 12.03125 44.71875 
Q 8.5 49.078125 8.5 55.328125 
Q 8.5 64.0625 14.71875 69.140625 
Q 20.953125 74.21875 31.78125 74.21875 
Q 42.671875 74.21875 48.875 69.140625 
Q 55.078125 64.0625 55.078125 55.328125 
Q 55.078125 49.078125 51.53125 44.71875 
Q 48 40.375 41.703125 38.8125 
Q 48.828125 37.15625 52.796875 32.3125 
Q 56.78125 27.484375 56.78125 20.515625 
Q 56.78125 9.90625 50.3125 4.234375 
Q 43.84375 -1.421875 31.78125 -1.421875 
Q 19.734375 -1.421875 13.25 4.234375 
Q 6.78125 9.90625 6.78125 20.515625 
Q 6.78125 27.484375 10.78125 32.3125 
Q 14.796875 37.15625 21.921875 38.8125 
z
M 18.3125 54.390625 
Q 18.3125 48.734375 21.84375 45.5625 
Q 25.390625 42.390625 31.78125 42.390625 
Q 38.140625 42.390625 41.71875 45.5625 
Q 45.3125 48.734375 45.3125 54.390625 
Q 45.3125 60.0625 41.71875 63.234375 
Q 38.140625 66.40625 31.78125 66.40625 
Q 25.390625 66.40625 21.84375 63.234375 
Q 18.3125 60.0625 18.3125 54.390625 
z
" id="DejaVuSans-38"/>
      </defs>
      <g transform="translate(321.200147 103.566673)scale(0.1 -0.1)">
       <use xlink:href="#DejaVuSans-38"/>
       <use x="63.623047" xlink:href="#DejaVuSans-30"/>
      </g>
     </g>
    </g>
    <g id="xtick_6">
     <g id="line2d_6">
      <g>
       <use style="stroke:#000000;stroke-width:0.8;" x="393.149424" xlink:href="#m6c6c737878" y="88.968235"/>
      </g>
     </g>
     <g id="text_6">
      <!-- 100 -->
      <defs>
       <path d="M 12.40625 8.296875 
L 28.515625 8.296875 
L 28.515625 63.921875 
L 10.984375 60.40625 
L 10.984375 69.390625 
L 28.421875 72.90625 
L 38.28125 72.90625 
L 38.28125 8.296875 
L 54.390625 8.296875 
L 54.390625 0 
L 12.40625 0 
z
" id="DejaVuSans-31"/>
      </defs>
      <g transform="translate(383.605674 103.566673)scale(0.1 -0.1)">
       <use xlink:href="#DejaVuSans-31"/>
       <use x="63.623047" xlink:href="#DejaVuSans-30"/>
       <use x="127.246094" xlink:href="#DejaVuSans-30"/>
      </g>
     </g>
    </g>
    <g id="text_7">
     <!-- Time -->
     <defs>
      <path d="M -0.296875 72.90625 
L 61.375 72.90625 
L 61.375 64.59375 
L 35.5 64.59375 
L 35.5 0 
L 25.59375 0 
L 25.59375 64.59375 
L -0.296875 64.59375 
z
" id="DejaVuSans-54"/>
      <path d="M 9.421875 54.6875 
L 18.40625 54.6875 
L 18.40625 0 
L 9.421875 0 
z
M 9.421875 75.984375 
L 18.40625 75.984375 
L 18.40625 64.59375 
L 9.421875 64.59375 
z
" id="DejaVuSans-69"/>
      <path d="M 52 44.1875 
Q 55.375 50.25 60.0625 53.125 
Q 64.75 56 71.09375 56 
Q 79.640625 56 84.28125 50.015625 
Q 88.921875 44.046875 88.921875 33.015625 
L 88.921875 0 
L 79.890625 0 
L 79.890625 32.71875 
Q 79.890625 40.578125 77.09375 44.375 
Q 74.3125 48.1875 68.609375 48.1875 
Q 61.625 48.1875 57.5625 43.546875 
Q 53.515625 38.921875 53.515625 30.90625 
L 53.515625 0 
L 44.484375 0 
L 44.484375 32.71875 
Q 44.484375 40.625 41.703125 44.40625 
Q 38.921875 48.1875 33.109375 48.1875 
Q 26.21875 48.1875 22.15625 43.53125 
Q 18.109375 38.875 18.109375 30.90625 
L 18.109375 0 
L 9.078125 0 
L 9.078125 54.6875 
L 18.109375 54.6875 
L 18.109375 46.1875 
Q 21.1875 51.21875 25.484375 53.609375 
Q 29.78125 56 35.6875 56 
Q 41.65625 56 45.828125 52.96875 
Q 50 49.953125 52 44.1875 
z
" id="DejaVuSans-6d"/>
      <path d="M 56.203125 29.59375 
L 56.203125 25.203125 
L 14.890625 25.203125 
Q 15.484375 15.921875 20.484375 11.0625 
Q 25.484375 6.203125 34.421875 6.203125 
Q 39.59375 6.203125 44.453125 7.46875 
Q 49.3125 8.734375 54.109375 11.28125 
L 54.109375 2.78125 
Q 49.265625 0.734375 44.1875 -0.34375 
Q 39.109375 -1.421875 33.890625 -1.421875 
Q 20.796875 -1.421875 13.15625 6.1875 
Q 5.515625 13.8125 5.515625 26.8125 
Q 5.515625 40.234375 12.765625 48.109375 
Q 20.015625 56 32.328125 56 
Q 43.359375 56 49.78125 48.890625 
Q 56.203125 41.796875 56.203125 29.59375 
z
M 47.21875 32.234375 
Q 47.125 39.59375 43.09375 43.984375 
Q 39.0625 48.390625 32.421875 48.390625 
Q 24.90625 48.390625 20.390625 44.140625 
Q 15.875 39.890625 15.1875 32.171875 
z
" id="DejaVuSans-65"/>
     </defs>
     <g transform="translate(215.155313 117.244798)scale(0.1 -0.1)">
      <use xlink:href="#DejaVuSans-54"/>
      <use x="61.037109" xlink:href="#DejaVuSans-69"/>
      <use x="88.820312" xlink:href="#DejaVuSans-6d"/>
      <use x="186.232422" xlink:href="#DejaVuSans-65"/>
     </g>
    </g>
   </g>
   <g id="matplotlib.axis_2">
    <g id="ytick_1">
     <g id="line2d_7">
      <defs>
       <path d="M 0 0 
L -3.5 0 
" id="m20f21942bd" style="stroke:#000000;stroke-width:0.8;"/>
      </defs>
      <g>
       <use style="stroke:#000000;stroke-width:0.8;" x="48.982813" xlink:href="#m20f21942bd" y="85.410588"/>
      </g>
     </g>
     <g id="text_8">
      <!-- 0 -->
      <g transform="translate(35.620313 89.209807)scale(0.1 -0.1)">
       <use xlink:href="#DejaVuSans-30"/>
      </g>
     </g>
    </g>
    <g id="ytick_2">
     <g id="line2d_8">
      <g>
       <use style="stroke:#000000;stroke-width:0.8;" x="48.982813" xlink:href="#m20f21942bd" y="57.268667"/>
      </g>
     </g>
     <g id="text_9">
      <!-- 25 -->
      <defs>
       <path d="M 10.796875 72.90625 
L 49.515625 72.90625 
L 49.515625 64.59375 
L 19.828125 64.59375 
L 19.828125 46.734375 
Q 21.96875 47.46875 24.109375 47.828125 
Q 26.265625 48.1875 28.421875 48.1875 
Q 40.625 48.1875 47.75 41.5 
Q 54.890625 34.8125 54.890625 23.390625 
Q 54.890625 11.625 47.5625 5.09375 
Q 40.234375 -1.421875 26.90625 -1.421875 
Q 22.3125 -1.421875 17.546875 -0.640625 
Q 12.796875 0.140625 7.71875 1.703125 
L 7.71875 11.625 
Q 12.109375 9.234375 16.796875 8.0625 
Q 21.484375 6.890625 26.703125 6.890625 
Q 35.15625 6.890625 40.078125 11.328125 
Q 45.015625 15.765625 45.015625 23.390625 
Q 45.015625 31 40.078125 35.4375 
Q 35.15625 39.890625 26.703125 39.890625 
Q 22.75 39.890625 18.8125 39.015625 
Q 14.890625 38.140625 10.796875 36.28125 
z
" id="DejaVuSans-35"/>
      </defs>
      <g transform="translate(29.257813 61.067886)scale(0.1 -0.1)">
       <use xlink:href="#DejaVuSans-32"/>
       <use x="63.623047" xlink:href="#DejaVuSans-35"/>
      </g>
     </g>
    </g>
    <g id="ytick_3">
     <g id="line2d_9">
      <g>
       <use style="stroke:#000000;stroke-width:0.8;" x="48.982813" xlink:href="#m20f21942bd" y="29.126746"/>
      </g>
     </g>
     <g id="text_10">
      <!-- 50 -->
      <g transform="translate(29.257813 32.925965)scale(0.1 -0.1)">
       <use xlink:href="#DejaVuSans-35"/>
       <use x="63.623047" xlink:href="#DejaVuSans-30"/>
      </g>
     </g>
    </g>
    <g id="text_11">
     <!-- x -->
     <defs>
      <path d="M 54.890625 54.6875 
L 35.109375 28.078125 
L 55.90625 0 
L 45.3125 0 
L 29.390625 21.484375 
L 13.484375 0 
L 2.875 0 
L 24.125 28.609375 
L 4.6875 54.6875 
L 15.28125 54.6875 
L 29.78125 35.203125 
L 44.28125 54.6875 
z
" id="DejaVuSans-78"/>
     </defs>
     <g transform="translate(23.178125 52.793493)rotate(-90)scale(0.1 -0.1)">
      <use xlink:href="#DejaVuSans-78"/>
     </g>
    </g>
   </g>
   <g id="line2d_10">
    <path clip-path="url(#p6764328eb8)" d="M 65.21554 85.410588 
L 68.494879 85.396965 
L 71.774217 85.376573 
L 75.053556 85.343188 
L 78.332895 85.292346 
L 81.612234 85.224518 
L 84.891573 85.140207 
L 88.170912 85.048059 
L 91.450251 84.941175 
L 94.729589 84.811923 
L 98.008928 84.648259 
L 101.288267 84.473119 
L 104.567606 84.285922 
L 107.846945 84.073228 
L 111.126284 83.834891 
L 114.405622 83.571012 
L 117.684961 83.282933 
L 120.9643 82.972201 
L 124.243639 82.634785 
L 127.522978 82.275954 
L 130.802317 81.885084 
L 134.081655 81.462152 
L 137.360994 81.009917 
L 140.640333 80.526771 
L 143.919672 80.013873 
L 147.199011 79.469572 
L 150.47835 78.893209 
L 153.757689 78.285342 
L 157.037027 77.64865 
L 160.316366 76.979026 
L 163.595705 76.282201 
L 166.875044 75.557882 
L 170.154383 74.804626 
L 173.433722 74.027733 
L 176.71306 73.224045 
L 179.992399 72.398091 
L 183.271738 71.551863 
L 186.551077 70.68418 
L 189.830416 69.806422 
L 193.109755 68.919491 
L 196.389093 68.025286 
L 199.668432 67.128201 
L 202.947771 66.222312 
L 206.22711 65.309387 
L 209.506449 64.391129 
L 212.785788 63.464663 
L 216.065127 62.534572 
L 219.344465 61.595466 
L 222.623804 60.653893 
L 225.903143 59.71132 
L 229.182482 58.76773 
L 232.461821 57.826069 
L 235.74116 56.887479 
L 239.020498 55.952853 
L 242.299837 55.026825 
L 245.579176 54.103704 
L 248.858515 53.181368 
L 252.137854 52.272879 
L 255.417193 51.381299 
L 258.696532 50.501492 
L 261.97587 49.633157 
L 265.255209 48.768838 
L 268.534548 47.914192 
L 271.813887 47.068367 
L 275.093226 46.232419 
L 278.372565 45.412926 
L 281.651903 44.605829 
L 284.931242 43.812191 
L 288.210581 43.030859 
L 291.48992 42.252804 
L 294.769259 41.476728 
L 298.048598 40.712921 
L 301.327936 39.947877 
L 304.607275 39.169517 
L 307.886614 38.375139 
L 311.165953 37.560936 
L 314.445292 36.722544 
L 317.724631 35.86221 
L 321.00397 34.981989 
L 324.283308 34.082011 
L 327.562647 33.160373 
L 330.841986 32.218484 
L 334.121325 31.262786 
L 337.400664 30.295695 
L 340.680003 29.319093 
L 343.959341 28.327671 
L 347.23868 27.324626 
L 350.518019 26.31638 
L 353.797358 25.300143 
L 357.076697 24.287483 
L 360.356036 23.276043 
L 363.635374 22.266071 
L 366.914713 21.255708 
L 370.194052 20.246226 
L 373.473391 19.239994 
L 376.75273 18.234664 
L 380.032069 17.230258 
L 383.311408 16.233366 
L 386.590746 15.241163 
L 389.870085 14.257647 
" style="fill:none;stroke:#ff0000;stroke-linecap:square;stroke-width:1.5;"/>
    <defs>
     <path d="M 0 2.5 
C 0.663008 2.5 1.29895 2.236584 1.767767 1.767767 
C 2.236584 1.29895 2.5 0.663008 2.5 0 
C 2.5 -0.663008 2.236584 -1.29895 1.767767 -1.767767 
C 1.29895 -2.236584 0.663008 -2.5 0 -2.5 
C -0.663008 -2.5 -1.29895 -2.236584 -1.767767 -1.767767 
C -2.236584 -1.29895 -2.5 -0.663008 -2.5 0 
C -2.5 0.663008 -2.236584 1.29895 -1.767767 1.767767 
C -1.29895 2.236584 -0.663008 2.5 0 2.5 
z
" id="maa98c7d059" style="stroke:#ff0000;"/>
    </defs>
    <g clip-path="url(#p6764328eb8)">
     <use style="fill:#ff0000;stroke:#ff0000;" x="65.21554" xlink:href="#maa98c7d059" y="85.410588"/>
     <use style="fill:#ff0000;stroke:#ff0000;" x="98.008928" xlink:href="#maa98c7d059" y="84.648259"/>
     <use style="fill:#ff0000;stroke:#ff0000;" x="130.802317" xlink:href="#maa98c7d059" y="81.885084"/>
     <use style="fill:#ff0000;stroke:#ff0000;" x="163.595705" xlink:href="#maa98c7d059" y="76.282201"/>
     <use style="fill:#ff0000;stroke:#ff0000;" x="196.389093" xlink:href="#maa98c7d059" y="68.025286"/>
     <use style="fill:#ff0000;stroke:#ff0000;" x="229.182482" xlink:href="#maa98c7d059" y="58.76773"/>
     <use style="fill:#ff0000;stroke:#ff0000;" x="261.97587" xlink:href="#maa98c7d059" y="49.633157"/>
     <use style="fill:#ff0000;stroke:#ff0000;" x="294.769259" xlink:href="#maa98c7d059" y="41.476728"/>
     <use style="fill:#ff0000;stroke:#ff0000;" x="327.562647" xlink:href="#maa98c7d059" y="33.160373"/>
     <use style="fill:#ff0000;stroke:#ff0000;" x="360.356036" xlink:href="#maa98c7d059" y="23.276043"/>
    </g>
   </g>
   <g id="line2d_11">
    <path clip-path="url(#p6764328eb8)" d="M 65.21554 85.410588 
L 68.494879 85.394014 
L 71.774217 85.367653 
L 75.053556 85.321924 
L 78.332895 85.25287 
L 81.612234 85.15803 
L 84.891573 85.043111 
L 88.170912 84.905282 
L 91.450251 84.741379 
L 94.729589 84.542188 
L 98.008928 84.316323 
L 101.288267 84.067759 
L 104.567606 83.779061 
L 107.846945 83.460524 
L 111.126284 83.116288 
L 114.405622 82.736041 
L 117.684961 82.361331 
L 120.9643 81.988655 
L 124.243639 81.602485 
L 127.522978 81.184464 
L 130.802317 80.784224 
L 134.081655 80.337734 
L 137.360994 79.890749 
L 140.640333 79.416219 
L 143.919672 78.940311 
L 147.199011 78.432594 
L 150.47835 77.902139 
L 153.757689 77.390793 
L 157.037027 76.865662 
L 160.316366 76.317389 
L 163.595705 75.720587 
L 166.875044 75.107118 
L 170.154383 74.486781 
L 173.433722 73.847555 
L 176.71306 73.177544 
L 179.992399 72.524242 
L 183.271738 71.833361 
L 186.551077 71.119307 
L 189.830416 70.433797 
L 193.109755 69.707867 
L 196.389093 68.97319 
L 199.668432 68.234398 
L 202.947771 67.46903 
L 206.22711 66.647451 
L 209.506449 65.792299 
L 212.785788 64.915739 
L 216.065127 63.997988 
L 219.344465 63.054573 
L 222.623804 62.114483 
L 225.903143 61.158918 
L 229.182482 60.191211 
L 232.461821 59.212526 
L 235.74116 58.233049 
L 239.020498 57.268951 
L 242.299837 56.326796 
L 245.579176 55.348783 
L 248.858515 54.349795 
L 252.137854 53.374486 
L 255.417193 52.440882 
L 258.696532 51.527281 
L 261.97587 50.604699 
L 265.255209 49.706078 
L 268.534548 48.792713 
L 271.813887 47.896063 
L 275.093226 47.01719 
L 278.372565 46.148362 
L 281.651903 45.287318 
L 284.931242 44.436263 
L 288.210581 43.596703 
L 291.48992 42.784634 
L 294.769259 41.959271 
L 298.048598 41.158933 
L 301.327936 40.3583 
L 304.607275 39.582318 
L 307.886614 38.79151 
L 311.165953 38.003642 
L 314.445292 37.225497 
L 317.724631 36.433598 
L 321.00397 35.626849 
L 324.283308 34.795117 
L 327.562647 33.929106 
L 330.841986 33.019213 
L 334.121325 32.099529 
L 337.400664 31.157503 
L 340.680003 30.209993 
L 343.959341 29.281867 
L 347.23868 28.341297 
L 350.518019 27.387316 
L 353.797358 26.451349 
L 357.076697 25.498016 
L 360.356036 24.536894 
L 363.635374 23.570211 
L 366.914713 22.615286 
L 370.194052 21.657479 
L 373.473391 20.69862 
L 376.75273 19.738322 
L 380.032069 18.732773 
L 383.311408 17.746368 
L 386.590746 16.782854 
L 389.870085 15.822097 
" style="fill:none;stroke:#0000ff;stroke-linecap:square;stroke-width:1.5;"/>
    <defs>
     <path d="M 0 2.5 
C 0.663008 2.5 1.29895 2.236584 1.767767 1.767767 
C 2.236584 1.29895 2.5 0.663008 2.5 0 
C 2.5 -0.663008 2.236584 -1.29895 1.767767 -1.767767 
C 1.29895 -2.236584 0.663008 -2.5 0 -2.5 
C -0.663008 -2.5 -1.29895 -2.236584 -1.767767 -1.767767 
C -2.236584 -1.29895 -2.5 -0.663008 -2.5 0 
C -2.5 0.663008 -2.236584 1.29895 -1.767767 1.767767 
C -1.29895 2.236584 -0.663008 2.5 0 2.5 
z
" id="mcc72497a3e" style="stroke:#0000ff;"/>
    </defs>
    <g clip-path="url(#p6764328eb8)">
     <use style="fill:#0000ff;stroke:#0000ff;" x="65.21554" xlink:href="#mcc72497a3e" y="85.410588"/>
     <use style="fill:#0000ff;stroke:#0000ff;" x="98.008928" xlink:href="#mcc72497a3e" y="84.316323"/>
     <use style="fill:#0000ff;stroke:#0000ff;" x="130.802317" xlink:href="#mcc72497a3e" y="80.784224"/>
     <use style="fill:#0000ff;stroke:#0000ff;" x="163.595705" xlink:href="#mcc72497a3e" y="75.720587"/>
     <use style="fill:#0000ff;stroke:#0000ff;" x="196.389093" xlink:href="#mcc72497a3e" y="68.97319"/>
     <use style="fill:#0000ff;stroke:#0000ff;" x="229.182482" xlink:href="#mcc72497a3e" y="60.191211"/>
     <use style="fill:#0000ff;stroke:#0000ff;" x="261.97587" xlink:href="#mcc72497a3e" y="50.604699"/>
     <use style="fill:#0000ff;stroke:#0000ff;" x="294.769259" xlink:href="#mcc72497a3e" y="41.959271"/>
     <use style="fill:#0000ff;stroke:#0000ff;" x="327.562647" xlink:href="#mcc72497a3e" y="33.929106"/>
     <use style="fill:#0000ff;stroke:#0000ff;" x="360.356036" xlink:href="#mcc72497a3e" y="24.536894"/>
    </g>
   </g>
   <g id="patch_3">
    <path d="M 48.982813 88.968235 
L 48.982813 10.7 
" style="fill:none;stroke:#000000;stroke-linecap:square;stroke-linejoin:miter;stroke-width:0.8;"/>
   </g>
   <g id="patch_4">
    <path d="M 406.102813 88.968235 
L 406.102813 10.7 
" style="fill:none;stroke:#000000;stroke-linecap:square;stroke-linejoin:miter;stroke-width:0.8;"/>
   </g>
   <g id="patch_5">
    <path d="M 48.982813 88.968235 
L 406.102813 88.968235 
" style="fill:none;stroke:#000000;stroke-linecap:square;stroke-linejoin:miter;stroke-width:0.8;"/>
   </g>
   <g id="patch_6">
    <path d="M 48.982813 10.7 
L 406.102813 10.7 
" style="fill:none;stroke:#000000;stroke-linecap:square;stroke-linejoin:miter;stroke-width:0.8;"/>
   </g>
  </g>
  <g id="axes_2">
   <g id="patch_7">
    <path d="M 48.982813 182.890118 
L 406.102813 182.890118 
L 406.102813 104.621882 
L 48.982813 104.621882 
z
" style="fill:#ffffff;"/>
   </g>
   <g id="matplotlib.axis_3">
    <g id="xtick_7">
     <g id="line2d_12">
      <g>
       <use style="stroke:#000000;stroke-width:0.8;" x="65.21554" xlink:href="#m6c6c737878" y="182.890118"/>
      </g>
     </g>
     <g id="text_12">
      <!-- 0 -->
      <g transform="translate(62.03429 197.488555)scale(0.1 -0.1)">
       <use xlink:href="#DejaVuSans-30"/>
      </g>
     </g>
    </g>
    <g id="xtick_8">
     <g id="line2d_13">
      <g>
       <use style="stroke:#000000;stroke-width:0.8;" x="130.802317" xlink:href="#m6c6c737878" y="182.890118"/>
      </g>
     </g>
     <g id="text_13">
      <!-- 20 -->
      <g transform="translate(124.439817 197.488555)scale(0.1 -0.1)">
       <use xlink:href="#DejaVuSans-32"/>
       <use x="63.623047" xlink:href="#DejaVuSans-30"/>
      </g>
     </g>
    </g>
    <g id="xtick_9">
     <g id="line2d_14">
      <g>
       <use style="stroke:#000000;stroke-width:0.8;" x="196.389093" xlink:href="#m6c6c737878" y="182.890118"/>
      </g>
     </g>
     <g id="text_14">
      <!-- 40 -->
      <g transform="translate(190.026593 197.488555)scale(0.1 -0.1)">
       <use xlink:href="#DejaVuSans-34"/>
       <use x="63.623047" xlink:href="#DejaVuSans-30"/>
      </g>
     </g>
    </g>
    <g id="xtick_10">
     <g id="line2d_15">
      <g>
       <use style="stroke:#000000;stroke-width:0.8;" x="261.97587" xlink:href="#m6c6c737878" y="182.890118"/>
      </g>
     </g>
     <g id="text_15">
      <!-- 60 -->
      <g transform="translate(255.61337 197.488555)scale(0.1 -0.1)">
       <use xlink:href="#DejaVuSans-36"/>
       <use x="63.623047" xlink:href="#DejaVuSans-30"/>
      </g>
     </g>
    </g>
    <g id="xtick_11">
     <g id="line2d_16">
      <g>
       <use style="stroke:#000000;stroke-width:0.8;" x="327.562647" xlink:href="#m6c6c737878" y="182.890118"/>
      </g>
     </g>
     <g id="text_16">
      <!-- 80 -->
      <g transform="translate(321.200147 197.488555)scale(0.1 -0.1)">
       <use xlink:href="#DejaVuSans-38"/>
       <use x="63.623047" xlink:href="#DejaVuSans-30"/>
      </g>
     </g>
    </g>
    <g id="xtick_12">
     <g id="line2d_17">
      <g>
       <use style="stroke:#000000;stroke-width:0.8;" x="393.149424" xlink:href="#m6c6c737878" y="182.890118"/>
      </g>
     </g>
     <g id="text_17">
      <!-- 100 -->
      <g transform="translate(383.605674 197.488555)scale(0.1 -0.1)">
       <use xlink:href="#DejaVuSans-31"/>
       <use x="63.623047" xlink:href="#DejaVuSans-30"/>
       <use x="127.246094" xlink:href="#DejaVuSans-30"/>
      </g>
     </g>
    </g>
    <g id="text_18">
     <!-- Time -->
     <g transform="translate(215.155313 211.16668)scale(0.1 -0.1)">
      <use xlink:href="#DejaVuSans-54"/>
      <use x="61.037109" xlink:href="#DejaVuSans-69"/>
      <use x="88.820312" xlink:href="#DejaVuSans-6d"/>
      <use x="186.232422" xlink:href="#DejaVuSans-65"/>
     </g>
    </g>
   </g>
   <g id="matplotlib.axis_4">
    <g id="ytick_4">
     <g id="line2d_18">
      <g>
       <use style="stroke:#000000;stroke-width:0.8;" x="48.982813" xlink:href="#m20f21942bd" y="167.649371"/>
      </g>
     </g>
     <g id="text_19">
      <!-- −1 -->
      <defs>
       <path d="M 10.59375 35.5 
L 73.1875 35.5 
L 73.1875 27.203125 
L 10.59375 27.203125 
z
" id="DejaVuSans-2212"/>
      </defs>
      <g transform="translate(27.240625 171.44859)scale(0.1 -0.1)">
       <use xlink:href="#DejaVuSans-2212"/>
       <use x="83.789062" xlink:href="#DejaVuSans-31"/>
      </g>
     </g>
    </g>
    <g id="ytick_5">
     <g id="line2d_19">
      <g>
       <use style="stroke:#000000;stroke-width:0.8;" x="48.982813" xlink:href="#m20f21942bd" y="140.023608"/>
      </g>
     </g>
     <g id="text_20">
      <!-- 0 -->
      <g transform="translate(35.620313 143.822826)scale(0.1 -0.1)">
       <use xlink:href="#DejaVuSans-30"/>
      </g>
     </g>
    </g>
    <g id="ytick_6">
     <g id="line2d_20">
      <g>
       <use style="stroke:#000000;stroke-width:0.8;" x="48.982813" xlink:href="#m20f21942bd" y="112.397844"/>
      </g>
     </g>
     <g id="text_21">
      <!-- 1 -->
      <g transform="translate(35.620313 116.197063)scale(0.1 -0.1)">
       <use xlink:href="#DejaVuSans-31"/>
      </g>
     </g>
    </g>
    <g id="text_22">
     <!-- y -->
     <defs>
      <path d="M 32.171875 -5.078125 
Q 28.375 -14.84375 24.75 -17.8125 
Q 21.140625 -20.796875 15.09375 -20.796875 
L 7.90625 -20.796875 
L 7.90625 -13.28125 
L 13.1875 -13.28125 
Q 16.890625 -13.28125 18.9375 -11.515625 
Q 21 -9.765625 23.484375 -3.21875 
L 25.09375 0.875 
L 2.984375 54.6875 
L 12.5 54.6875 
L 29.59375 11.921875 
L 46.6875 54.6875 
L 56.203125 54.6875 
z
" id="DejaVuSans-79"/>
     </defs>
     <g transform="translate(21.160938 146.715375)rotate(-90)scale(0.1 -0.1)">
      <use xlink:href="#DejaVuSans-79"/>
     </g>
    </g>
   </g>
   <g id="line2d_21">
    <path clip-path="url(#pa0e92d629a)" d="M 65.21554 140.023608 
L 68.494879 140.011262 
L 71.774217 139.996557 
L 75.053556 139.959844 
L 78.332895 139.931824 
L 81.612234 139.878171 
L 84.891573 139.81296 
L 88.170912 139.713856 
L 91.450251 139.616274 
L 94.729589 139.647416 
L 98.008928 139.663302 
L 101.288267 139.58115 
L 104.567606 139.496454 
L 107.846945 139.356034 
L 111.126284 139.175442 
L 114.405622 139.014227 
L 117.684961 138.752855 
L 120.9643 138.367454 
L 124.243639 137.929262 
L 127.522978 137.473052 
L 130.802317 137.045575 
L 134.081655 136.594372 
L 137.360994 136.17709 
L 140.640333 135.670989 
L 143.919672 135.119283 
L 147.199011 134.531755 
L 150.47835 133.890276 
L 153.757689 133.244367 
L 157.037027 132.602206 
L 160.316366 131.98722 
L 163.595705 131.373412 
L 166.875044 130.719601 
L 170.154383 130.004069 
L 173.433722 129.242252 
L 176.71306 128.439669 
L 179.992399 127.55191 
L 183.271738 126.594227 
L 186.551077 125.565327 
L 189.830416 124.466283 
L 193.109755 123.351736 
L 196.389093 122.223151 
L 199.668432 121.100546 
L 202.947771 119.932939 
L 206.22711 118.807266 
L 209.506449 117.744703 
L 212.785788 116.6619 
L 216.065127 115.574591 
L 219.344465 114.517345 
L 222.623804 113.542572 
L 225.903143 112.59326 
L 229.182482 111.689354 
L 232.461821 110.843065 
L 235.74116 110.072445 
L 239.020498 109.382161 
L 242.299837 108.854537 
L 245.579176 108.444626 
L 248.858515 108.197043 
L 252.137854 108.179529 
L 255.417193 108.363846 
L 258.696532 108.756134 
L 261.97587 109.3973 
L 265.255209 110.437877 
L 268.534548 111.66913 
L 271.813887 112.975516 
L 275.093226 114.27667 
L 278.372565 115.520198 
L 281.651903 116.743633 
L 284.931242 117.85255 
L 288.210581 118.944479 
L 291.48992 120.16088 
L 294.769259 121.355402 
L 298.048598 122.485806 
L 301.327936 123.680313 
L 304.607275 124.865231 
L 307.886614 125.996637 
L 311.165953 127.255057 
L 314.445292 128.537685 
L 317.724631 129.812893 
L 321.00397 131.102685 
L 324.283308 132.419831 
L 327.562647 133.804498 
L 330.841986 135.268443 
L 334.121325 136.730791 
L 337.400664 138.196319 
L 340.680003 139.597233 
L 343.959341 140.962182 
L 347.23868 142.361065 
L 350.518019 143.780142 
L 353.797358 145.243283 
L 357.076697 146.731477 
L 360.356036 148.275515 
L 363.635374 149.778942 
L 366.914713 151.260965 
L 370.194052 152.697068 
L 373.473391 154.086459 
L 376.75273 155.473319 
L 380.032069 156.858701 
L 383.311408 158.305893 
L 386.590746 159.760762 
L 389.870085 161.223376 
" style="fill:none;stroke:#ff0000;stroke-linecap:square;stroke-width:1.5;"/>
    <g clip-path="url(#pa0e92d629a)">
     <use style="fill:#ff0000;stroke:#ff0000;" x="65.21554" xlink:href="#maa98c7d059" y="140.023608"/>
     <use style="fill:#ff0000;stroke:#ff0000;" x="98.008928" xlink:href="#maa98c7d059" y="139.663302"/>
     <use style="fill:#ff0000;stroke:#ff0000;" x="130.802317" xlink:href="#maa98c7d059" y="137.045575"/>
     <use style="fill:#ff0000;stroke:#ff0000;" x="163.595705" xlink:href="#maa98c7d059" y="131.373412"/>
     <use style="fill:#ff0000;stroke:#ff0000;" x="196.389093" xlink:href="#maa98c7d059" y="122.223151"/>
     <use style="fill:#ff0000;stroke:#ff0000;" x="229.182482" xlink:href="#maa98c7d059" y="111.689354"/>
     <use style="fill:#ff0000;stroke:#ff0000;" x="261.97587" xlink:href="#maa98c7d059" y="109.3973"/>
     <use style="fill:#ff0000;stroke:#ff0000;" x="294.769259" xlink:href="#maa98c7d059" y="121.355402"/>
     <use style="fill:#ff0000;stroke:#ff0000;" x="327.562647" xlink:href="#maa98c7d059" y="133.804498"/>
     <use style="fill:#ff0000;stroke:#ff0000;" x="360.356036" xlink:href="#maa98c7d059" y="148.275515"/>
    </g>
   </g>
   <g id="line2d_22">
    <path clip-path="url(#pa0e92d629a)" d="M 65.21554 140.023608 
L 68.494879 140.01063 
L 71.774217 140.12799 
L 75.053556 140.368091 
L 78.332895 140.707299 
L 81.612234 141.130688 
L 84.891573 141.452487 
L 88.170912 141.644697 
L 91.450251 141.899674 
L 94.729589 142.030776 
L 98.008928 142.088969 
L 101.288267 141.903644 
L 104.567606 141.589167 
L 107.846945 141.111785 
L 111.126284 140.845449 
L 114.405622 140.672454 
L 117.684961 140.450629 
L 120.9643 140.179136 
L 124.243639 139.824772 
L 127.522978 139.599602 
L 130.802317 139.233254 
L 134.081655 138.821446 
L 137.360994 138.316619 
L 140.640333 137.57435 
L 143.919672 136.887235 
L 147.199011 136.411455 
L 150.47835 135.9684 
L 153.757689 135.586372 
L 157.037027 135.114471 
L 160.316366 134.810577 
L 163.595705 134.461048 
L 166.875044 134.168413 
L 170.154383 133.813896 
L 173.433722 133.412418 
L 176.71306 132.9519 
L 179.992399 132.577693 
L 183.271738 132.094528 
L 186.551077 131.545095 
L 189.830416 131.072342 
L 193.109755 130.386863 
L 196.389093 129.639272 
L 199.668432 129.009724 
L 202.947771 128.470029 
L 206.22711 127.970221 
L 209.506449 127.593083 
L 212.785788 127.143339 
L 216.065127 126.467754 
L 219.344465 125.812888 
L 222.623804 125.093745 
L 225.903143 124.38149 
L 229.182482 123.744664 
L 232.461821 123.105557 
L 235.74116 122.561256 
L 239.020498 122.200042 
L 242.299837 122.043686 
L 245.579176 122.006447 
L 248.858515 122.048894 
L 252.137854 122.202203 
L 255.417193 122.605713 
L 258.696532 123.18501 
L 261.97587 124.117315 
L 265.255209 125.510306 
L 268.534548 127.024821 
L 271.813887 128.516952 
L 275.093226 130.034815 
L 278.372565 131.3512 
L 281.651903 132.428982 
L 284.931242 133.353162 
L 288.210581 134.437858 
L 291.48992 135.813836 
L 294.769259 137.160697 
L 298.048598 138.418688 
L 301.327936 139.698021 
L 304.607275 141.112273 
L 307.886614 142.605214 
L 311.165953 144.102476 
L 314.445292 145.661234 
L 317.724631 147.142099 
L 321.00397 148.564793 
L 324.283308 149.926286 
L 327.562647 151.385395 
L 330.841986 152.919525 
L 334.121325 154.483204 
L 337.400664 155.961863 
L 340.680003 157.36368 
L 343.959341 158.741527 
L 347.23868 160.130526 
L 350.518019 161.55029 
L 353.797358 163.036065 
L 357.076697 164.537191 
L 360.356036 165.987895 
L 363.635374 167.372569 
L 366.914713 168.8284 
L 370.194052 170.288145 
L 373.473391 171.755597 
L 376.75273 173.245742 
L 380.032069 174.737728 
L 383.311408 176.240994 
L 386.590746 177.719033 
L 389.870085 179.332471 
" style="fill:none;stroke:#0000ff;stroke-linecap:square;stroke-width:1.5;"/>
    <g clip-path="url(#pa0e92d629a)">
     <use style="fill:#0000ff;stroke:#0000ff;" x="65.21554" xlink:href="#mcc72497a3e" y="140.023608"/>
     <use style="fill:#0000ff;stroke:#0000ff;" x="98.008928" xlink:href="#mcc72497a3e" y="142.088969"/>
     <use style="fill:#0000ff;stroke:#0000ff;" x="130.802317" xlink:href="#mcc72497a3e" y="139.233254"/>
     <use style="fill:#0000ff;stroke:#0000ff;" x="163.595705" xlink:href="#mcc72497a3e" y="134.461048"/>
     <use style="fill:#0000ff;stroke:#0000ff;" x="196.389093" xlink:href="#mcc72497a3e" y="129.639272"/>
     <use style="fill:#0000ff;stroke:#0000ff;" x="229.182482" xlink:href="#mcc72497a3e" y="123.744664"/>
     <use style="fill:#0000ff;stroke:#0000ff;" x="261.97587" xlink:href="#mcc72497a3e" y="124.117315"/>
     <use style="fill:#0000ff;stroke:#0000ff;" x="294.769259" xlink:href="#mcc72497a3e" y="137.160697"/>
     <use style="fill:#0000ff;stroke:#0000ff;" x="327.562647" xlink:href="#mcc72497a3e" y="151.385395"/>
     <use style="fill:#0000ff;stroke:#0000ff;" x="360.356036" xlink:href="#mcc72497a3e" y="165.987895"/>
    </g>
   </g>
   <g id="patch_8">
    <path d="M 48.982813 182.890118 
L 48.982813 104.621882 
" style="fill:none;stroke:#000000;stroke-linecap:square;stroke-linejoin:miter;stroke-width:0.8;"/>
   </g>
   <g id="patch_9">
    <path d="M 406.102813 182.890118 
L 406.102813 104.621882 
" style="fill:none;stroke:#000000;stroke-linecap:square;stroke-linejoin:miter;stroke-width:0.8;"/>
   </g>
   <g id="patch_10">
    <path d="M 48.982813 182.890118 
L 406.102813 182.890118 
" style="fill:none;stroke:#000000;stroke-linecap:square;stroke-linejoin:miter;stroke-width:0.8;"/>
   </g>
   <g id="patch_11">
    <path d="M 48.982813 104.621882 
L 406.102813 104.621882 
" style="fill:none;stroke:#000000;stroke-linecap:square;stroke-linejoin:miter;stroke-width:0.8;"/>
   </g>
  </g>
  <g id="axes_3">
   <g id="patch_12">
    <path d="M 48.982813 276.812 
L 406.102813 276.812 
L 406.102813 198.543765 
L 48.982813 198.543765 
z
" style="fill:#ffffff;"/>
   </g>
   <g id="matplotlib.axis_5">
    <g id="xtick_13">
     <g id="line2d_23">
      <g>
       <use style="stroke:#000000;stroke-width:0.8;" x="65.21554" xlink:href="#m6c6c737878" y="276.812"/>
      </g>
     </g>
     <g id="text_23">
      <!-- 0 -->
      <g transform="translate(62.03429 291.410438)scale(0.1 -0.1)">
       <use xlink:href="#DejaVuSans-30"/>
      </g>
     </g>
    </g>
    <g id="xtick_14">
     <g id="line2d_24">
      <g>
       <use style="stroke:#000000;stroke-width:0.8;" x="130.802317" xlink:href="#m6c6c737878" y="276.812"/>
      </g>
     </g>
     <g id="text_24">
      <!-- 20 -->
      <g transform="translate(124.439817 291.410438)scale(0.1 -0.1)">
       <use xlink:href="#DejaVuSans-32"/>
       <use x="63.623047" xlink:href="#DejaVuSans-30"/>
      </g>
     </g>
    </g>
    <g id="xtick_15">
     <g id="line2d_25">
      <g>
       <use style="stroke:#000000;stroke-width:0.8;" x="196.389093" xlink:href="#m6c6c737878" y="276.812"/>
      </g>
     </g>
     <g id="text_25">
      <!-- 40 -->
      <g transform="translate(190.026593 291.410438)scale(0.1 -0.1)">
       <use xlink:href="#DejaVuSans-34"/>
       <use x="63.623047" xlink:href="#DejaVuSans-30"/>
      </g>
     </g>
    </g>
    <g id="xtick_16">
     <g id="line2d_26">
      <g>
       <use style="stroke:#000000;stroke-width:0.8;" x="261.97587" xlink:href="#m6c6c737878" y="276.812"/>
      </g>
     </g>
     <g id="text_26">
      <!-- 60 -->
      <g transform="translate(255.61337 291.410438)scale(0.1 -0.1)">
       <use xlink:href="#DejaVuSans-36"/>
       <use x="63.623047" xlink:href="#DejaVuSans-30"/>
      </g>
     </g>
    </g>
    <g id="xtick_17">
     <g id="line2d_27">
      <g>
       <use style="stroke:#000000;stroke-width:0.8;" x="327.562647" xlink:href="#m6c6c737878" y="276.812"/>
      </g>
     </g>
     <g id="text_27">
      <!-- 80 -->
      <g transform="translate(321.200147 291.410438)scale(0.1 -0.1)">
       <use xlink:href="#DejaVuSans-38"/>
       <use x="63.623047" xlink:href="#DejaVuSans-30"/>
      </g>
     </g>
    </g>
    <g id="xtick_18">
     <g id="line2d_28">
      <g>
       <use style="stroke:#000000;stroke-width:0.8;" x="393.149424" xlink:href="#m6c6c737878" y="276.812"/>
      </g>
     </g>
     <g id="text_28">
      <!-- 100 -->
      <g transform="translate(383.605674 291.410438)scale(0.1 -0.1)">
       <use xlink:href="#DejaVuSans-31"/>
       <use x="63.623047" xlink:href="#DejaVuSans-30"/>
       <use x="127.246094" xlink:href="#DejaVuSans-30"/>
      </g>
     </g>
    </g>
    <g id="text_29">
     <!-- Time -->
     <g transform="translate(215.155313 305.088562)scale(0.1 -0.1)">
      <use xlink:href="#DejaVuSans-54"/>
      <use x="61.037109" xlink:href="#DejaVuSans-69"/>
      <use x="88.820312" xlink:href="#DejaVuSans-6d"/>
      <use x="186.232422" xlink:href="#DejaVuSans-65"/>
     </g>
    </g>
   </g>
   <g id="matplotlib.axis_6">
    <g id="ytick_7">
     <g id="line2d_29">
      <g>
       <use style="stroke:#000000;stroke-width:0.8;" x="48.982813" xlink:href="#m20f21942bd" y="266.556128"/>
      </g>
     </g>
     <g id="text_30">
      <!-- −10 -->
      <g transform="translate(20.878125 270.355347)scale(0.1 -0.1)">
       <use xlink:href="#DejaVuSans-2212"/>
       <use x="83.789062" xlink:href="#DejaVuSans-31"/>
       <use x="147.412109" xlink:href="#DejaVuSans-30"/>
      </g>
     </g>
    </g>
    <g id="ytick_8">
     <g id="line2d_30">
      <g>
       <use style="stroke:#000000;stroke-width:0.8;" x="48.982813" xlink:href="#m20f21942bd" y="234.618971"/>
      </g>
     </g>
     <g id="text_31">
      <!-- 0 -->
      <g transform="translate(35.620313 238.418189)scale(0.1 -0.1)">
       <use xlink:href="#DejaVuSans-30"/>
      </g>
     </g>
    </g>
    <g id="ytick_9">
     <g id="line2d_31">
      <g>
       <use style="stroke:#000000;stroke-width:0.8;" x="48.982813" xlink:href="#m20f21942bd" y="202.681813"/>
      </g>
     </g>
     <g id="text_32">
      <!-- 10 -->
      <g transform="translate(29.257813 206.481031)scale(0.1 -0.1)">
       <use xlink:href="#DejaVuSans-31"/>
       <use x="63.623047" xlink:href="#DejaVuSans-30"/>
      </g>
     </g>
    </g>
    <g id="text_33">
     <!-- z -->
     <defs>
      <path d="M 5.515625 54.6875 
L 48.1875 54.6875 
L 48.1875 46.484375 
L 14.40625 7.171875 
L 48.1875 7.171875 
L 48.1875 0 
L 4.296875 0 
L 4.296875 8.203125 
L 38.09375 47.515625 
L 5.515625 47.515625 
z
" id="DejaVuSans-7a"/>
     </defs>
     <g transform="translate(14.798438 240.302101)rotate(-90)scale(0.1 -0.1)">
      <use xlink:href="#DejaVuSans-7a"/>
     </g>
    </g>
   </g>
   <g id="line2d_32">
    <path clip-path="url(#p00055b1374)" d="M 65.21554 234.618971 
L 68.494879 234.214237 
L 71.774217 233.761065 
L 75.053556 233.243947 
L 78.332895 232.691687 
L 81.612234 232.105488 
L 84.891573 231.485114 
L 88.170912 230.83297 
L 91.450251 230.149452 
L 94.729589 229.445036 
L 98.008928 228.736376 
L 101.288267 228.030169 
L 104.567606 227.315246 
L 107.846945 226.593802 
L 111.126284 225.889373 
L 114.405622 225.203846 
L 117.684961 224.525165 
L 120.9643 223.856995 
L 124.243639 223.185797 
L 127.522978 222.507918 
L 130.802317 221.842938 
L 134.081655 221.198166 
L 137.360994 220.559829 
L 140.640333 219.926569 
L 143.919672 219.31525 
L 147.199011 218.733026 
L 150.47835 218.164828 
L 153.757689 217.594157 
L 157.037027 217.018489 
L 160.316366 216.437258 
L 163.595705 215.84622 
L 166.875044 215.238875 
L 170.154383 214.625438 
L 173.433722 214.020477 
L 176.71306 213.422333 
L 179.992399 212.836101 
L 183.271738 212.260533 
L 186.551077 211.693684 
L 189.830416 211.144234 
L 193.109755 210.62674 
L 196.389093 210.143304 
L 199.668432 209.695793 
L 202.947771 209.281735 
L 206.22711 208.915122 
L 209.506449 208.598631 
L 212.785788 208.340405 
L 216.065127 208.159773 
L 219.344465 208.075856 
L 222.623804 208.090987 
L 225.903143 208.201457 
L 229.182482 208.395028 
L 232.461821 208.670435 
L 235.74116 209.048649 
L 239.020498 209.530499 
L 242.299837 210.091758 
L 245.579176 210.734662 
L 248.858515 211.475098 
L 252.137854 212.270252 
L 255.417193 213.119913 
L 258.696532 214.011689 
L 261.97587 214.953053 
L 265.255209 215.977395 
L 268.534548 217.068024 
L 271.813887 218.216672 
L 275.093226 219.422811 
L 278.372565 220.682004 
L 281.651903 221.961537 
L 284.931242 223.242297 
L 288.210581 224.533264 
L 291.48992 225.815796 
L 294.769259 227.12644 
L 298.048598 228.500916 
L 301.327936 229.903181 
L 304.607275 231.32099 
L 307.886614 232.763133 
L 311.165953 234.230795 
L 314.445292 235.697924 
L 317.724631 237.158705 
L 321.00397 238.628901 
L 324.283308 240.10602 
L 327.562647 241.589616 
L 330.841986 243.090982 
L 334.121325 244.623541 
L 337.400664 246.188558 
L 340.680003 247.776432 
L 343.959341 249.394773 
L 347.23868 251.029965 
L 350.518019 252.676873 
L 353.797358 254.325347 
L 357.076697 255.974888 
L 360.356036 257.618253 
L 363.635374 259.256009 
L 366.914713 260.88934 
L 370.194052 262.510823 
L 373.473391 264.118375 
L 376.75273 265.720444 
L 380.032069 267.313613 
L 383.311408 268.891085 
L 386.590746 270.467186 
L 389.870085 272.051108 
" style="fill:none;stroke:#ff0000;stroke-linecap:square;stroke-width:1.5;"/>
    <g clip-path="url(#p00055b1374)">
     <use style="fill:#ff0000;stroke:#ff0000;" x="65.21554" xlink:href="#maa98c7d059" y="234.618971"/>
     <use style="fill:#ff0000;stroke:#ff0000;" x="98.008928" xlink:href="#maa98c7d059" y="228.736376"/>
     <use style="fill:#ff0000;stroke:#ff0000;" x="130.802317" xlink:href="#maa98c7d059" y="221.842938"/>
     <use style="fill:#ff0000;stroke:#ff0000;" x="163.595705" xlink:href="#maa98c7d059" y="215.84622"/>
     <use style="fill:#ff0000;stroke:#ff0000;" x="196.389093" xlink:href="#maa98c7d059" y="210.143304"/>
     <use style="fill:#ff0000;stroke:#ff0000;" x="229.182482" xlink:href="#maa98c7d059" y="208.395028"/>
     <use style="fill:#ff0000;stroke:#ff0000;" x="261.97587" xlink:href="#maa98c7d059" y="214.953053"/>
     <use style="fill:#ff0000;stroke:#ff0000;" x="294.769259" xlink:href="#maa98c7d059" y="227.12644"/>
     <use style="fill:#ff0000;stroke:#ff0000;" x="327.562647" xlink:href="#maa98c7d059" y="241.589616"/>
     <use style="fill:#ff0000;stroke:#ff0000;" x="360.356036" xlink:href="#maa98c7d059" y="257.618253"/>
    </g>
   </g>
   <g id="line2d_33">
    <path clip-path="url(#p00055b1374)" d="M 65.21554 234.618971 
L 68.494879 233.938218 
L 71.774217 233.309555 
L 75.053556 232.543052 
L 78.332895 231.538326 
L 81.612234 230.399488 
L 84.891573 229.142868 
L 88.170912 227.698632 
L 91.450251 226.260912 
L 94.729589 224.845538 
L 98.008928 223.398079 
L 101.288267 221.958748 
L 104.567606 220.544515 
L 107.846945 219.192366 
L 111.126284 217.942617 
L 114.405622 216.74642 
L 117.684961 215.694387 
L 120.9643 214.817094 
L 124.243639 214.004618 
L 127.522978 213.189371 
L 130.802317 212.484072 
L 134.081655 211.788243 
L 137.360994 211.14798 
L 140.640333 210.541332 
L 143.919672 209.994315 
L 147.199011 209.477759 
L 150.47835 208.956606 
L 153.757689 208.496007 
L 157.037027 208.049559 
L 160.316366 207.622332 
L 163.595705 207.164344 
L 166.875044 206.717107 
L 170.154383 206.279863 
L 173.433722 205.858935 
L 176.71306 205.435577 
L 179.992399 205.044884 
L 183.271738 204.658392 
L 186.551077 204.279079 
L 189.830416 203.928176 
L 193.109755 203.587118 
L 196.389093 203.274927 
L 199.668432 203.003162 
L 202.947771 202.743736 
L 206.22711 202.502308 
L 209.506449 202.316823 
L 212.785788 202.184129 
L 216.065127 202.101412 
L 219.344465 202.115121 
L 222.623804 202.238812 
L 225.903143 202.467284 
L 229.182482 202.780276 
L 232.461821 203.191859 
L 235.74116 203.700073 
L 239.020498 204.297838 
L 242.299837 204.97171 
L 245.579176 205.741941 
L 248.858515 206.644532 
L 252.137854 207.594981 
L 255.417193 208.57866 
L 258.696532 209.626701 
L 261.97587 210.795195 
L 265.255209 212.034374 
L 268.534548 213.354236 
L 271.813887 214.722642 
L 275.093226 216.129997 
L 278.372565 217.590963 
L 281.651903 219.08826 
L 284.931242 220.630943 
L 288.210581 222.176694 
L 291.48992 223.671835 
L 294.769259 225.250738 
L 298.048598 226.825069 
L 301.327936 228.423661 
L 304.607275 229.982765 
L 307.886614 231.567797 
L 311.165953 233.156056 
L 314.445292 234.679466 
L 317.724631 236.193281 
L 321.00397 237.709031 
L 324.283308 239.230712 
L 327.562647 240.781122 
L 330.841986 242.414466 
L 334.121325 244.064879 
L 337.400664 245.768008 
L 340.680003 247.49597 
L 343.959341 249.175824 
L 347.23868 250.876451 
L 350.518019 252.608975 
L 353.797358 254.299619 
L 357.076697 256.035501 
L 360.356036 257.777149 
L 363.635374 259.512761 
L 366.914713 261.221532 
L 370.194052 262.925985 
L 373.473391 264.624026 
L 376.75273 266.318163 
L 380.032069 268.091444 
L 383.311408 269.831215 
L 386.590746 271.542137 
L 389.870085 273.254353 
" style="fill:none;stroke:#0000ff;stroke-linecap:square;stroke-width:1.5;"/>
    <g clip-path="url(#p00055b1374)">
     <use style="fill:#0000ff;stroke:#0000ff;" x="65.21554" xlink:href="#mcc72497a3e" y="234.618971"/>
     <use style="fill:#0000ff;stroke:#0000ff;" x="98.008928" xlink:href="#mcc72497a3e" y="223.398079"/>
     <use style="fill:#0000ff;stroke:#0000ff;" x="130.802317" xlink:href="#mcc72497a3e" y="212.484072"/>
     <use style="fill:#0000ff;stroke:#0000ff;" x="163.595705" xlink:href="#mcc72497a3e" y="207.164344"/>
     <use style="fill:#0000ff;stroke:#0000ff;" x="196.389093" xlink:href="#mcc72497a3e" y="203.274927"/>
     <use style="fill:#0000ff;stroke:#0000ff;" x="229.182482" xlink:href="#mcc72497a3e" y="202.780276"/>
     <use style="fill:#0000ff;stroke:#0000ff;" x="261.97587" xlink:href="#mcc72497a3e" y="210.795195"/>
     <use style="fill:#0000ff;stroke:#0000ff;" x="294.769259" xlink:href="#mcc72497a3e" y="225.250738"/>
     <use style="fill:#0000ff;stroke:#0000ff;" x="327.562647" xlink:href="#mcc72497a3e" y="240.781122"/>
     <use style="fill:#0000ff;stroke:#0000ff;" x="360.356036" xlink:href="#mcc72497a3e" y="257.777149"/>
    </g>
   </g>
   <g id="patch_13">
    <path d="M 48.982813 276.812 
L 48.982813 198.543765 
" style="fill:none;stroke:#000000;stroke-linecap:square;stroke-linejoin:miter;stroke-width:0.8;"/>
   </g>
   <g id="patch_14">
    <path d="M 406.102813 276.812 
L 406.102813 198.543765 
" style="fill:none;stroke:#000000;stroke-linecap:square;stroke-linejoin:miter;stroke-width:0.8;"/>
   </g>
   <g id="patch_15">
    <path d="M 48.982813 276.812 
L 406.102813 276.812 
" style="fill:none;stroke:#000000;stroke-linecap:square;stroke-linejoin:miter;stroke-width:0.8;"/>
   </g>
   <g id="patch_16">
    <path d="M 48.982813 198.543765 
L 406.102813 198.543765 
" style="fill:none;stroke:#000000;stroke-linecap:square;stroke-linejoin:miter;stroke-width:0.8;"/>
   </g>
   <g id="legend_1">
    <g id="patch_17">
     <path d="M 55.982813 271.812 
L 154.951563 271.812 
Q 156.951563 271.812 156.951563 269.812 
L 156.951563 241.45575 
Q 156.951563 239.45575 154.951563 239.45575 
L 55.982813 239.45575 
Q 53.982813 239.45575 53.982813 241.45575 
L 53.982813 269.812 
Q 53.982813 271.812 55.982813 271.812 
z
" style="fill:#ffffff;opacity:0.8;stroke:#cccccc;stroke-linejoin:miter;"/>
    </g>
    <g id="line2d_34">
     <path d="M 57.982813 247.554187 
L 77.982813 247.554187 
" style="fill:none;stroke:#ff0000;stroke-linecap:square;stroke-width:1.5;"/>
    </g>
    <g id="line2d_35">
     <g>
      <use style="fill:#ff0000;stroke:#ff0000;" x="67.982813" xlink:href="#maa98c7d059" y="247.554187"/>
     </g>
    </g>
    <g id="text_34">
     <!-- Ground Truth -->
     <defs>
      <path d="M 59.515625 10.40625 
L 59.515625 29.984375 
L 43.40625 29.984375 
L 43.40625 38.09375 
L 69.28125 38.09375 
L 69.28125 6.78125 
Q 63.578125 2.734375 56.6875 0.65625 
Q 49.8125 -1.421875 42 -1.421875 
Q 24.90625 -1.421875 15.25 8.5625 
Q 5.609375 18.5625 5.609375 36.375 
Q 5.609375 54.25 15.25 64.234375 
Q 24.90625 74.21875 42 74.21875 
Q 49.125 74.21875 55.546875 72.453125 
Q 61.96875 70.703125 67.390625 67.28125 
L 67.390625 56.78125 
Q 61.921875 61.421875 55.765625 63.765625 
Q 49.609375 66.109375 42.828125 66.109375 
Q 29.4375 66.109375 22.71875 58.640625 
Q 16.015625 51.171875 16.015625 36.375 
Q 16.015625 21.625 22.71875 14.15625 
Q 29.4375 6.6875 42.828125 6.6875 
Q 48.046875 6.6875 52.140625 7.59375 
Q 56.25 8.5 59.515625 10.40625 
z
" id="DejaVuSans-47"/>
      <path d="M 41.109375 46.296875 
Q 39.59375 47.171875 37.8125 47.578125 
Q 36.03125 48 33.890625 48 
Q 26.265625 48 22.1875 43.046875 
Q 18.109375 38.09375 18.109375 28.8125 
L 18.109375 0 
L 9.078125 0 
L 9.078125 54.6875 
L 18.109375 54.6875 
L 18.109375 46.1875 
Q 20.953125 51.171875 25.484375 53.578125 
Q 30.03125 56 36.53125 56 
Q 37.453125 56 38.578125 55.875 
Q 39.703125 55.765625 41.0625 55.515625 
z
" id="DejaVuSans-72"/>
      <path d="M 30.609375 48.390625 
Q 23.390625 48.390625 19.1875 42.75 
Q 14.984375 37.109375 14.984375 27.296875 
Q 14.984375 17.484375 19.15625 11.84375 
Q 23.34375 6.203125 30.609375 6.203125 
Q 37.796875 6.203125 41.984375 11.859375 
Q 46.1875 17.53125 46.1875 27.296875 
Q 46.1875 37.015625 41.984375 42.703125 
Q 37.796875 48.390625 30.609375 48.390625 
z
M 30.609375 56 
Q 42.328125 56 49.015625 48.375 
Q 55.71875 40.765625 55.71875 27.296875 
Q 55.71875 13.875 49.015625 6.21875 
Q 42.328125 -1.421875 30.609375 -1.421875 
Q 18.84375 -1.421875 12.171875 6.21875 
Q 5.515625 13.875 5.515625 27.296875 
Q 5.515625 40.765625 12.171875 48.375 
Q 18.84375 56 30.609375 56 
z
" id="DejaVuSans-6f"/>
      <path d="M 8.5 21.578125 
L 8.5 54.6875 
L 17.484375 54.6875 
L 17.484375 21.921875 
Q 17.484375 14.15625 20.5 10.265625 
Q 23.53125 6.390625 29.59375 6.390625 
Q 36.859375 6.390625 41.078125 11.03125 
Q 45.3125 15.671875 45.3125 23.6875 
L 45.3125 54.6875 
L 54.296875 54.6875 
L 54.296875 0 
L 45.3125 0 
L 45.3125 8.40625 
Q 42.046875 3.421875 37.71875 1 
Q 33.40625 -1.421875 27.6875 -1.421875 
Q 18.265625 -1.421875 13.375 4.4375 
Q 8.5 10.296875 8.5 21.578125 
z
M 31.109375 56 
z
" id="DejaVuSans-75"/>
      <path d="M 54.890625 33.015625 
L 54.890625 0 
L 45.90625 0 
L 45.90625 32.71875 
Q 45.90625 40.484375 42.875 44.328125 
Q 39.84375 48.1875 33.796875 48.1875 
Q 26.515625 48.1875 22.3125 43.546875 
Q 18.109375 38.921875 18.109375 30.90625 
L 18.109375 0 
L 9.078125 0 
L 9.078125 54.6875 
L 18.109375 54.6875 
L 18.109375 46.1875 
Q 21.34375 51.125 25.703125 53.5625 
Q 30.078125 56 35.796875 56 
Q 45.21875 56 50.046875 50.171875 
Q 54.890625 44.34375 54.890625 33.015625 
z
" id="DejaVuSans-6e"/>
      <path d="M 45.40625 46.390625 
L 45.40625 75.984375 
L 54.390625 75.984375 
L 54.390625 0 
L 45.40625 0 
L 45.40625 8.203125 
Q 42.578125 3.328125 38.25 0.953125 
Q 33.9375 -1.421875 27.875 -1.421875 
Q 17.96875 -1.421875 11.734375 6.484375 
Q 5.515625 14.40625 5.515625 27.296875 
Q 5.515625 40.1875 11.734375 48.09375 
Q 17.96875 56 27.875 56 
Q 33.9375 56 38.25 53.625 
Q 42.578125 51.265625 45.40625 46.390625 
z
M 14.796875 27.296875 
Q 14.796875 17.390625 18.875 11.75 
Q 22.953125 6.109375 30.078125 6.109375 
Q 37.203125 6.109375 41.296875 11.75 
Q 45.40625 17.390625 45.40625 27.296875 
Q 45.40625 37.203125 41.296875 42.84375 
Q 37.203125 48.484375 30.078125 48.484375 
Q 22.953125 48.484375 18.875 42.84375 
Q 14.796875 37.203125 14.796875 27.296875 
z
" id="DejaVuSans-64"/>
      <path id="DejaVuSans-20"/>
      <path d="M 18.3125 70.21875 
L 18.3125 54.6875 
L 36.8125 54.6875 
L 36.8125 47.703125 
L 18.3125 47.703125 
L 18.3125 18.015625 
Q 18.3125 11.328125 20.140625 9.421875 
Q 21.96875 7.515625 27.59375 7.515625 
L 36.8125 7.515625 
L 36.8125 0 
L 27.59375 0 
Q 17.1875 0 13.234375 3.875 
Q 9.28125 7.765625 9.28125 18.015625 
L 9.28125 47.703125 
L 2.6875 47.703125 
L 2.6875 54.6875 
L 9.28125 54.6875 
L 9.28125 70.21875 
z
" id="DejaVuSans-74"/>
      <path d="M 54.890625 33.015625 
L 54.890625 0 
L 45.90625 0 
L 45.90625 32.71875 
Q 45.90625 40.484375 42.875 44.328125 
Q 39.84375 48.1875 33.796875 48.1875 
Q 26.515625 48.1875 22.3125 43.546875 
Q 18.109375 38.921875 18.109375 30.90625 
L 18.109375 0 
L 9.078125 0 
L 9.078125 75.984375 
L 18.109375 75.984375 
L 18.109375 46.1875 
Q 21.34375 51.125 25.703125 53.5625 
Q 30.078125 56 35.796875 56 
Q 45.21875 56 50.046875 50.171875 
Q 54.890625 44.34375 54.890625 33.015625 
z
" id="DejaVuSans-68"/>
     </defs>
     <g transform="translate(85.982813 251.054187)scale(0.1 -0.1)">
      <use xlink:href="#DejaVuSans-47"/>
      <use x="77.490234" xlink:href="#DejaVuSans-72"/>
      <use x="118.572266" xlink:href="#DejaVuSans-6f"/>
      <use x="179.753906" xlink:href="#DejaVuSans-75"/>
      <use x="243.132812" xlink:href="#DejaVuSans-6e"/>
      <use x="306.511719" xlink:href="#DejaVuSans-64"/>
      <use x="369.988281" xlink:href="#DejaVuSans-20"/>
      <use x="401.775391" xlink:href="#DejaVuSans-54"/>
      <use x="462.640625" xlink:href="#DejaVuSans-72"/>
      <use x="503.753906" xlink:href="#DejaVuSans-75"/>
      <use x="567.132812" xlink:href="#DejaVuSans-74"/>
      <use x="606.341797" xlink:href="#DejaVuSans-68"/>
     </g>
    </g>
    <g id="line2d_36">
     <path d="M 57.982813 262.232312 
L 77.982813 262.232312 
" style="fill:none;stroke:#0000ff;stroke-linecap:square;stroke-width:1.5;"/>
    </g>
    <g id="line2d_37">
     <g>
      <use style="fill:#0000ff;stroke:#0000ff;" x="67.982813" xlink:href="#mcc72497a3e" y="262.232312"/>
     </g>
    </g>
    <g id="text_35">
     <!-- Prediction -->
     <defs>
      <path d="M 19.671875 64.796875 
L 19.671875 37.40625 
L 32.078125 37.40625 
Q 38.96875 37.40625 42.71875 40.96875 
Q 46.484375 44.53125 46.484375 51.125 
Q 46.484375 57.671875 42.71875 61.234375 
Q 38.96875 64.796875 32.078125 64.796875 
z
M 9.8125 72.90625 
L 32.078125 72.90625 
Q 44.34375 72.90625 50.609375 67.359375 
Q 56.890625 61.8125 56.890625 51.125 
Q 56.890625 40.328125 50.609375 34.8125 
Q 44.34375 29.296875 32.078125 29.296875 
L 19.671875 29.296875 
L 19.671875 0 
L 9.8125 0 
z
" id="DejaVuSans-50"/>
      <path d="M 48.78125 52.59375 
L 48.78125 44.1875 
Q 44.96875 46.296875 41.140625 47.34375 
Q 37.3125 48.390625 33.40625 48.390625 
Q 24.65625 48.390625 19.8125 42.84375 
Q 14.984375 37.3125 14.984375 27.296875 
Q 14.984375 17.28125 19.8125 11.734375 
Q 24.65625 6.203125 33.40625 6.203125 
Q 37.3125 6.203125 41.140625 7.25 
Q 44.96875 8.296875 48.78125 10.40625 
L 48.78125 2.09375 
Q 45.015625 0.34375 40.984375 -0.53125 
Q 36.96875 -1.421875 32.421875 -1.421875 
Q 20.0625 -1.421875 12.78125 6.34375 
Q 5.515625 14.109375 5.515625 27.296875 
Q 5.515625 40.671875 12.859375 48.328125 
Q 20.21875 56 33.015625 56 
Q 37.15625 56 41.109375 55.140625 
Q 45.0625 54.296875 48.78125 52.59375 
z
" id="DejaVuSans-63"/>
     </defs>
     <g transform="translate(85.982813 265.732312)scale(0.1 -0.1)">
      <use xlink:href="#DejaVuSans-50"/>
      <use x="60.287109" xlink:href="#DejaVuSans-72"/>
      <use x="101.369141" xlink:href="#DejaVuSans-65"/>
      <use x="162.892578" xlink:href="#DejaVuSans-64"/>
      <use x="226.369141" xlink:href="#DejaVuSans-69"/>
      <use x="254.152344" xlink:href="#DejaVuSans-63"/>
      <use x="309.132812" xlink:href="#DejaVuSans-74"/>
      <use x="348.341797" xlink:href="#DejaVuSans-69"/>
      <use x="376.125" xlink:href="#DejaVuSans-6f"/>
      <use x="437.306641" xlink:href="#DejaVuSans-6e"/>
     </g>
    </g>
   </g>
  </g>
 </g>
 <defs>
  <clipPath id="p6764328eb8">
   <rect height="78.268235" width="357.12" x="48.982813" y="10.7"/>
  </clipPath>
  <clipPath id="pa0e92d629a">
   <rect height="78.268235" width="357.12" x="48.982813" y="104.621882"/>
  </clipPath>
  <clipPath id="p00055b1374">
   <rect height="78.268235" width="357.12" x="48.982813" y="198.543765"/>
  </clipPath>
 </defs>
</svg>
