<?xml version="1.0" encoding="utf-8" standalone="no"?>
<!DOCTYPE svg PUBLIC "-//W3C//DTD SVG 1.1//EN"
  "http://www.w3.org/Graphics/SVG/1.1/DTD/svg11.dtd">
<!-- Created with matplotlib (http://matplotlib.org/) -->
<svg height="314pt" version="1.1" viewBox="0 0 426 314" width="426pt" xmlns="http://www.w3.org/2000/svg" xmlns:xlink="http://www.w3.org/1999/xlink">
 <defs>
  <style type="text/css">
*{stroke-linecap:butt;stroke-linejoin:round;}
  </style>
 </defs>
 <g id="figure_1">
  <g id="patch_1">
   <path d="M 0 314.36825 
L 426.343437 314.36825 
L 426.343437 0 
L 0 0 
z
" style="fill:#ffffff;"/>
  </g>
  <g id="axes_1">
   <g id="patch_2">
    <path d="M 58.523438 88.968235 
L 415.643438 88.968235 
L 415.643438 10.7 
L 58.523438 10.7 
z
" style="fill:#ffffff;"/>
   </g>
   <g id="matplotlib.axis_1">
    <g id="xtick_1">
     <g id="line2d_1">
      <defs>
       <path d="M 0 0 
L 0 3.5 
" id="mf3aac75762" style="stroke:#000000;stroke-width:0.8;"/>
      </defs>
      <g>
       <use style="stroke:#000000;stroke-width:0.8;" x="74.756165" xlink:href="#mf3aac75762" y="88.968235"/>
      </g>
     </g>
     <g id="text_1">
      <!-- 0 -->
      <defs>
       <path d="M 31.78125 66.40625 
Q 24.171875 66.40625 20.328125 58.90625 
Q 16.5 51.421875 16.5 36.375 
Q 16.5 21.390625 20.328125 13.890625 
Q 24.171875 6.390625 31.78125 6.390625 
Q 39.453125 6.390625 43.28125 13.890625 
Q 47.125 21.390625 47.125 36.375 
Q 47.125 51.421875 43.28125 58.90625 
Q 39.453125 66.40625 31.78125 66.40625 
z
M 31.78125 74.21875 
Q 44.046875 74.21875 50.515625 64.515625 
Q 56.984375 54.828125 56.984375 36.375 
Q 56.984375 17.96875 50.515625 8.265625 
Q 44.046875 -1.421875 31.78125 -1.421875 
Q 19.53125 -1.421875 13.0625 8.265625 
Q 6.59375 17.96875 6.59375 36.375 
Q 6.59375 54.828125 13.0625 64.515625 
Q 19.53125 74.21875 31.78125 74.21875 
z
" id="DejaVuSans-30"/>
      </defs>
      <g transform="translate(71.574915 103.566673)scale(0.1 -0.1)">
       <use xlink:href="#DejaVuSans-30"/>
      </g>
     </g>
    </g>
    <g id="xtick_2">
     <g id="line2d_2">
      <g>
       <use style="stroke:#000000;stroke-width:0.8;" x="140.342942" xlink:href="#mf3aac75762" y="88.968235"/>
      </g>
     </g>
     <g id="text_2">
      <!-- 20 -->
      <defs>
       <path d="M 19.1875 8.296875 
L 53.609375 8.296875 
L 53.609375 0 
L 7.328125 0 
L 7.328125 8.296875 
Q 12.9375 14.109375 22.625 23.890625 
Q 32.328125 33.6875 34.8125 36.53125 
Q 39.546875 41.84375 41.421875 45.53125 
Q 43.3125 49.21875 43.3125 52.78125 
Q 43.3125 58.59375 39.234375 62.25 
Q 35.15625 65.921875 28.609375 65.921875 
Q 23.96875 65.921875 18.8125 64.3125 
Q 13.671875 62.703125 7.8125 59.421875 
L 7.8125 69.390625 
Q 13.765625 71.78125 18.9375 73 
Q 24.125 74.21875 28.421875 74.21875 
Q 39.75 74.21875 46.484375 68.546875 
Q 53.21875 62.890625 53.21875 53.421875 
Q 53.21875 48.921875 51.53125 44.890625 
Q 49.859375 40.875 45.40625 35.40625 
Q 44.1875 33.984375 37.640625 27.21875 
Q 31.109375 20.453125 19.1875 8.296875 
z
" id="DejaVuSans-32"/>
      </defs>
      <g transform="translate(133.980442 103.566673)scale(0.1 -0.1)">
       <use xlink:href="#DejaVuSans-32"/>
       <use x="63.623047" xlink:href="#DejaVuSans-30"/>
      </g>
     </g>
    </g>
    <g id="xtick_3">
     <g id="line2d_3">
      <g>
       <use style="stroke:#000000;stroke-width:0.8;" x="205.929718" xlink:href="#mf3aac75762" y="88.968235"/>
      </g>
     </g>
     <g id="text_3">
      <!-- 40 -->
      <defs>
       <path d="M 37.796875 64.3125 
L 12.890625 25.390625 
L 37.796875 25.390625 
z
M 35.203125 72.90625 
L 47.609375 72.90625 
L 47.609375 25.390625 
L 58.015625 25.390625 
L 58.015625 17.1875 
L 47.609375 17.1875 
L 47.609375 0 
L 37.796875 0 
L 37.796875 17.1875 
L 4.890625 17.1875 
L 4.890625 26.703125 
z
" id="DejaVuSans-34"/>
      </defs>
      <g transform="translate(199.567218 103.566673)scale(0.1 -0.1)">
       <use xlink:href="#DejaVuSans-34"/>
       <use x="63.623047" xlink:href="#DejaVuSans-30"/>
      </g>
     </g>
    </g>
    <g id="xtick_4">
     <g id="line2d_4">
      <g>
       <use style="stroke:#000000;stroke-width:0.8;" x="271.516495" xlink:href="#mf3aac75762" y="88.968235"/>
      </g>
     </g>
     <g id="text_4">
      <!-- 60 -->
      <defs>
       <path d="M 33.015625 40.375 
Q 26.375 40.375 22.484375 35.828125 
Q 18.609375 31.296875 18.609375 23.390625 
Q 18.609375 15.53125 22.484375 10.953125 
Q 26.375 6.390625 33.015625 6.390625 
Q 39.65625 6.390625 43.53125 10.953125 
Q 47.40625 15.53125 47.40625 23.390625 
Q 47.40625 31.296875 43.53125 35.828125 
Q 39.65625 40.375 33.015625 40.375 
z
M 52.59375 71.296875 
L 52.59375 62.3125 
Q 48.875 64.0625 45.09375 64.984375 
Q 41.3125 65.921875 37.59375 65.921875 
Q 27.828125 65.921875 22.671875 59.328125 
Q 17.53125 52.734375 16.796875 39.40625 
Q 19.671875 43.65625 24.015625 45.921875 
Q 28.375 48.1875 33.59375 48.1875 
Q 44.578125 48.1875 50.953125 41.515625 
Q 57.328125 34.859375 57.328125 23.390625 
Q 57.328125 12.15625 50.6875 5.359375 
Q 44.046875 -1.421875 33.015625 -1.421875 
Q 20.359375 -1.421875 13.671875 8.265625 
Q 6.984375 17.96875 6.984375 36.375 
Q 6.984375 53.65625 15.1875 63.9375 
Q 23.390625 74.21875 37.203125 74.21875 
Q 40.921875 74.21875 44.703125 73.484375 
Q 48.484375 72.75 52.59375 71.296875 
z
" id="DejaVuSans-36"/>
      </defs>
      <g transform="translate(265.153995 103.566673)scale(0.1 -0.1)">
       <use xlink:href="#DejaVuSans-36"/>
       <use x="63.623047" xlink:href="#DejaVuSans-30"/>
      </g>
     </g>
    </g>
    <g id="xtick_5">
     <g id="line2d_5">
      <g>
       <use style="stroke:#000000;stroke-width:0.8;" x="337.103272" xlink:href="#mf3aac75762" y="88.968235"/>
      </g>
     </g>
     <g id="text_5">
      <!-- 80 -->
      <defs>
       <path d="M 31.78125 34.625 
Q 24.75 34.625 20.71875 30.859375 
Q 16.703125 27.09375 16.703125 20.515625 
Q 16.703125 13.921875 20.71875 10.15625 
Q 24.75 6.390625 31.78125 6.390625 
Q 38.8125 6.390625 42.859375 10.171875 
Q 46.921875 13.96875 46.921875 20.515625 
Q 46.921875 27.09375 42.890625 30.859375 
Q 38.875 34.625 31.78125 34.625 
z
M 21.921875 38.8125 
Q 15.578125 40.375 12.03125 44.71875 
Q 8.5 49.078125 8.5 55.328125 
Q 8.5 64.0625 14.71875 69.140625 
Q 20.953125 74.21875 31.78125 74.21875 
Q 42.671875 74.21875 48.875 69.140625 
Q 55.078125 64.0625 55.078125 55.328125 
Q 55.078125 49.078125 51.53125 44.71875 
Q 48 40.375 41.703125 38.8125 
Q 48.828125 37.15625 52.796875 32.3125 
Q 56.78125 27.484375 56.78125 20.515625 
Q 56.78125 9.90625 50.3125 4.234375 
Q 43.84375 -1.421875 31.78125 -1.421875 
Q 19.734375 -1.421875 13.25 4.234375 
Q 6.78125 9.90625 6.78125 20.515625 
Q 6.78125 27.484375 10.78125 32.3125 
Q 14.796875 37.15625 21.921875 38.8125 
z
M 18.3125 54.390625 
Q 18.3125 48.734375 21.84375 45.5625 
Q 25.390625 42.390625 31.78125 42.390625 
Q 38.140625 42.390625 41.71875 45.5625 
Q 45.3125 48.734375 45.3125 54.390625 
Q 45.3125 60.0625 41.71875 63.234375 
Q 38.140625 66.40625 31.78125 66.40625 
Q 25.390625 66.40625 21.84375 63.234375 
Q 18.3125 60.0625 18.3125 54.390625 
z
" id="DejaVuSans-38"/>
      </defs>
      <g transform="translate(330.740772 103.566673)scale(0.1 -0.1)">
       <use xlink:href="#DejaVuSans-38"/>
       <use x="63.623047" xlink:href="#DejaVuSans-30"/>
      </g>
     </g>
    </g>
    <g id="xtick_6">
     <g id="line2d_6">
      <g>
       <use style="stroke:#000000;stroke-width:0.8;" x="402.690049" xlink:href="#mf3aac75762" y="88.968235"/>
      </g>
     </g>
     <g id="text_6">
      <!-- 100 -->
      <defs>
       <path d="M 12.40625 8.296875 
L 28.515625 8.296875 
L 28.515625 63.921875 
L 10.984375 60.40625 
L 10.984375 69.390625 
L 28.421875 72.90625 
L 38.28125 72.90625 
L 38.28125 8.296875 
L 54.390625 8.296875 
L 54.390625 0 
L 12.40625 0 
z
" id="DejaVuSans-31"/>
      </defs>
      <g transform="translate(393.146299 103.566673)scale(0.1 -0.1)">
       <use xlink:href="#DejaVuSans-31"/>
       <use x="63.623047" xlink:href="#DejaVuSans-30"/>
       <use x="127.246094" xlink:href="#DejaVuSans-30"/>
      </g>
     </g>
    </g>
    <g id="text_7">
     <!-- Time -->
     <defs>
      <path d="M -0.296875 72.90625 
L 61.375 72.90625 
L 61.375 64.59375 
L 35.5 64.59375 
L 35.5 0 
L 25.59375 0 
L 25.59375 64.59375 
L -0.296875 64.59375 
z
" id="DejaVuSans-54"/>
      <path d="M 9.421875 54.6875 
L 18.40625 54.6875 
L 18.40625 0 
L 9.421875 0 
z
M 9.421875 75.984375 
L 18.40625 75.984375 
L 18.40625 64.59375 
L 9.421875 64.59375 
z
" id="DejaVuSans-69"/>
      <path d="M 52 44.1875 
Q 55.375 50.25 60.0625 53.125 
Q 64.75 56 71.09375 56 
Q 79.640625 56 84.28125 50.015625 
Q 88.921875 44.046875 88.921875 33.015625 
L 88.921875 0 
L 79.890625 0 
L 79.890625 32.71875 
Q 79.890625 40.578125 77.09375 44.375 
Q 74.3125 48.1875 68.609375 48.1875 
Q 61.625 48.1875 57.5625 43.546875 
Q 53.515625 38.921875 53.515625 30.90625 
L 53.515625 0 
L 44.484375 0 
L 44.484375 32.71875 
Q 44.484375 40.625 41.703125 44.40625 
Q 38.921875 48.1875 33.109375 48.1875 
Q 26.21875 48.1875 22.15625 43.53125 
Q 18.109375 38.875 18.109375 30.90625 
L 18.109375 0 
L 9.078125 0 
L 9.078125 54.6875 
L 18.109375 54.6875 
L 18.109375 46.1875 
Q 21.1875 51.21875 25.484375 53.609375 
Q 29.78125 56 35.6875 56 
Q 41.65625 56 45.828125 52.96875 
Q 50 49.953125 52 44.1875 
z
" id="DejaVuSans-6d"/>
      <path d="M 56.203125 29.59375 
L 56.203125 25.203125 
L 14.890625 25.203125 
Q 15.484375 15.921875 20.484375 11.0625 
Q 25.484375 6.203125 34.421875 6.203125 
Q 39.59375 6.203125 44.453125 7.46875 
Q 49.3125 8.734375 54.109375 11.28125 
L 54.109375 2.78125 
Q 49.265625 0.734375 44.1875 -0.34375 
Q 39.109375 -1.421875 33.890625 -1.421875 
Q 20.796875 -1.421875 13.15625 6.1875 
Q 5.515625 13.8125 5.515625 26.8125 
Q 5.515625 40.234375 12.765625 48.109375 
Q 20.015625 56 32.328125 56 
Q 43.359375 56 49.78125 48.890625 
Q 56.203125 41.796875 56.203125 29.59375 
z
M 47.21875 32.234375 
Q 47.125 39.59375 43.09375 43.984375 
Q 39.0625 48.390625 32.421875 48.390625 
Q 24.90625 48.390625 20.390625 44.140625 
Q 15.875 39.890625 15.1875 32.171875 
z
" id="DejaVuSans-65"/>
     </defs>
     <g transform="translate(224.695938 117.244798)scale(0.1 -0.1)">
      <use xlink:href="#DejaVuSans-54"/>
      <use x="61.037109" xlink:href="#DejaVuSans-69"/>
      <use x="88.820312" xlink:href="#DejaVuSans-6d"/>
      <use x="186.232422" xlink:href="#DejaVuSans-65"/>
     </g>
    </g>
   </g>
   <g id="matplotlib.axis_2">
    <g id="ytick_1">
     <g id="line2d_7">
      <defs>
       <path d="M 0 0 
L -3.5 0 
" id="mac727984c2" style="stroke:#000000;stroke-width:0.8;"/>
      </defs>
      <g>
       <use style="stroke:#000000;stroke-width:0.8;" x="58.523438" xlink:href="#mac727984c2" y="67.941963"/>
      </g>
     </g>
     <g id="text_8">
      <!-- −0.25 -->
      <defs>
       <path d="M 10.59375 35.5 
L 73.1875 35.5 
L 73.1875 27.203125 
L 10.59375 27.203125 
z
" id="DejaVuSans-2212"/>
       <path d="M 10.6875 12.40625 
L 21 12.40625 
L 21 0 
L 10.6875 0 
z
" id="DejaVuSans-2e"/>
       <path d="M 10.796875 72.90625 
L 49.515625 72.90625 
L 49.515625 64.59375 
L 19.828125 64.59375 
L 19.828125 46.734375 
Q 21.96875 47.46875 24.109375 47.828125 
Q 26.265625 48.1875 28.421875 48.1875 
Q 40.625 48.1875 47.75 41.5 
Q 54.890625 34.8125 54.890625 23.390625 
Q 54.890625 11.625 47.5625 5.09375 
Q 40.234375 -1.421875 26.90625 -1.421875 
Q 22.3125 -1.421875 17.546875 -0.640625 
Q 12.796875 0.140625 7.71875 1.703125 
L 7.71875 11.625 
Q 12.109375 9.234375 16.796875 8.0625 
Q 21.484375 6.890625 26.703125 6.890625 
Q 35.15625 6.890625 40.078125 11.328125 
Q 45.015625 15.765625 45.015625 23.390625 
Q 45.015625 31 40.078125 35.4375 
Q 35.15625 39.890625 26.703125 39.890625 
Q 22.75 39.890625 18.8125 39.015625 
Q 14.890625 38.140625 10.796875 36.28125 
z
" id="DejaVuSans-35"/>
      </defs>
      <g transform="translate(20.878125 71.741182)scale(0.1 -0.1)">
       <use xlink:href="#DejaVuSans-2212"/>
       <use x="83.789062" xlink:href="#DejaVuSans-30"/>
       <use x="147.412109" xlink:href="#DejaVuSans-2e"/>
       <use x="179.199219" xlink:href="#DejaVuSans-32"/>
       <use x="242.822266" xlink:href="#DejaVuSans-35"/>
      </g>
     </g>
    </g>
    <g id="ytick_2">
     <g id="line2d_8">
      <g>
       <use style="stroke:#000000;stroke-width:0.8;" x="58.523438" xlink:href="#mac727984c2" y="41.994154"/>
      </g>
     </g>
     <g id="text_9">
      <!-- 0.00 -->
      <g transform="translate(29.257813 45.793373)scale(0.1 -0.1)">
       <use xlink:href="#DejaVuSans-30"/>
       <use x="63.623047" xlink:href="#DejaVuSans-2e"/>
       <use x="95.410156" xlink:href="#DejaVuSans-30"/>
       <use x="159.033203" xlink:href="#DejaVuSans-30"/>
      </g>
     </g>
    </g>
    <g id="ytick_3">
     <g id="line2d_9">
      <g>
       <use style="stroke:#000000;stroke-width:0.8;" x="58.523438" xlink:href="#mac727984c2" y="16.046345"/>
      </g>
     </g>
     <g id="text_10">
      <!-- 0.25 -->
      <g transform="translate(29.257813 19.845564)scale(0.1 -0.1)">
       <use xlink:href="#DejaVuSans-30"/>
       <use x="63.623047" xlink:href="#DejaVuSans-2e"/>
       <use x="95.410156" xlink:href="#DejaVuSans-32"/>
       <use x="159.033203" xlink:href="#DejaVuSans-35"/>
      </g>
     </g>
    </g>
    <g id="text_11">
     <!-- x -->
     <defs>
      <path d="M 54.890625 54.6875 
L 35.109375 28.078125 
L 55.90625 0 
L 45.3125 0 
L 29.390625 21.484375 
L 13.484375 0 
L 2.875 0 
L 24.125 28.609375 
L 4.6875 54.6875 
L 15.28125 54.6875 
L 29.78125 35.203125 
L 44.28125 54.6875 
z
" id="DejaVuSans-78"/>
     </defs>
     <g transform="translate(14.798438 52.793493)rotate(-90)scale(0.1 -0.1)">
      <use xlink:href="#DejaVuSans-78"/>
     </g>
    </g>
   </g>
   <g id="line2d_10">
    <path clip-path="url(#pcc3b8b4ea9)" d="M 74.756165 41.994154 
L 78.035504 42.861233 
L 81.314842 43.086463 
L 84.594181 43.79116 
L 87.87352 45.18163 
L 91.152859 46.584839 
L 94.432198 47.426949 
L 97.711537 48.001261 
L 100.990876 48.586177 
L 104.270214 49.369157 
L 107.549553 49.910025 
L 110.828892 49.861647 
L 114.108231 49.546683 
L 117.38757 49.350524 
L 120.666909 49.19465 
L 123.946247 49.352924 
L 127.225586 49.548069 
L 130.504925 49.609735 
L 133.784264 49.665933 
L 137.063603 50.221426 
L 140.342942 50.651953 
L 143.62228 50.482939 
L 146.901619 50.161145 
L 150.180958 50.261366 
L 153.460297 51.082628 
L 156.739636 52.193514 
L 160.018975 53.545029 
L 163.298314 54.847448 
L 166.577652 55.820055 
L 169.856991 56.245088 
L 173.13633 56.890012 
L 176.415669 57.646836 
L 179.695008 58.662353 
L 182.974347 59.916121 
L 186.253685 60.718082 
L 189.533024 61.305249 
L 192.812363 62.154524 
L 196.091702 63.160785 
L 199.371041 64.064105 
L 202.65038 64.732933 
L 205.929718 65.554393 
L 209.209057 66.560308 
L 212.488396 67.612053 
L 215.767735 68.062772 
L 219.047074 68.081628 
L 222.326413 68.480381 
L 225.605752 68.826327 
L 228.88509 68.876858 
L 232.164429 69.102935 
L 235.443768 69.203799 
L 238.723107 69.431064 
L 242.002446 69.75558 
L 245.281785 70.043274 
L 248.561123 70.267322 
L 251.840462 70.474147 
L 255.119801 70.719427 
L 258.39914 71.07928 
L 261.678479 71.409487 
L 264.957818 71.759244 
L 268.237157 72.088659 
L 271.516495 72.393676 
L 274.795834 72.587385 
L 278.075173 72.759566 
L 281.354512 72.962284 
L 284.633851 72.658257 
L 287.91319 72.484641 
L 291.192528 71.898018 
L 294.471867 71.607948 
L 297.751206 71.253144 
L 301.030545 71.171186 
L 304.309884 71.303377 
L 307.589223 71.499067 
L 310.868561 71.718562 
L 314.1479 72.092569 
L 317.427239 72.565164 
L 320.706578 73.056268 
L 323.985917 73.502978 
L 327.265256 73.824475 
L 330.544595 74.11989 
L 333.823933 74.545369 
L 337.103272 74.989011 
L 340.382611 75.471157 
L 343.66195 75.945979 
L 346.941289 76.359678 
L 350.220628 77.106951 
L 353.499966 77.927124 
L 356.779305 78.768431 
L 360.058644 79.266612 
L 363.337983 79.616022 
L 366.617322 80.076145 
L 369.896661 80.412242 
L 373.175999 80.452083 
L 376.455338 80.585809 
L 379.734677 81.20762 
L 383.014016 81.997257 
L 386.293355 82.823073 
L 389.572694 83.374111 
L 392.852033 84.052541 
L 396.131371 84.640005 
L 399.41071 85.410588 
" style="fill:none;stroke:#ff0000;stroke-linecap:square;stroke-width:1.5;"/>
    <defs>
     <path d="M 0 2.5 
C 0.663008 2.5 1.29895 2.236584 1.767767 1.767767 
C 2.236584 1.29895 2.5 0.663008 2.5 0 
C 2.5 -0.663008 2.236584 -1.29895 1.767767 -1.767767 
C 1.29895 -2.236584 0.663008 -2.5 0 -2.5 
C -0.663008 -2.5 -1.29895 -2.236584 -1.767767 -1.767767 
C -2.236584 -1.29895 -2.5 -0.663008 -2.5 0 
C -2.5 0.663008 -2.236584 1.29895 -1.767767 1.767767 
C -1.29895 2.236584 -0.663008 2.5 0 2.5 
z
" id="m4effb8d9e7" style="stroke:#ff0000;"/>
    </defs>
    <g clip-path="url(#pcc3b8b4ea9)">
     <use style="fill:#ff0000;stroke:#ff0000;" x="74.756165" xlink:href="#m4effb8d9e7" y="41.994154"/>
     <use style="fill:#ff0000;stroke:#ff0000;" x="107.549553" xlink:href="#m4effb8d9e7" y="49.910025"/>
     <use style="fill:#ff0000;stroke:#ff0000;" x="140.342942" xlink:href="#m4effb8d9e7" y="50.651953"/>
     <use style="fill:#ff0000;stroke:#ff0000;" x="173.13633" xlink:href="#m4effb8d9e7" y="56.890012"/>
     <use style="fill:#ff0000;stroke:#ff0000;" x="205.929718" xlink:href="#m4effb8d9e7" y="65.554393"/>
     <use style="fill:#ff0000;stroke:#ff0000;" x="238.723107" xlink:href="#m4effb8d9e7" y="69.431064"/>
     <use style="fill:#ff0000;stroke:#ff0000;" x="271.516495" xlink:href="#m4effb8d9e7" y="72.393676"/>
     <use style="fill:#ff0000;stroke:#ff0000;" x="304.309884" xlink:href="#m4effb8d9e7" y="71.303377"/>
     <use style="fill:#ff0000;stroke:#ff0000;" x="337.103272" xlink:href="#m4effb8d9e7" y="74.989011"/>
     <use style="fill:#ff0000;stroke:#ff0000;" x="369.896661" xlink:href="#m4effb8d9e7" y="80.412242"/>
    </g>
   </g>
   <g id="line2d_11">
    <path clip-path="url(#pcc3b8b4ea9)" d="M 74.756165 41.994154 
L 78.035504 42.794228 
L 81.314842 43.004209 
L 84.594181 43.60719 
L 87.87352 44.354461 
L 91.152859 45.159128 
L 94.432198 45.527778 
L 97.711537 45.873388 
L 100.990876 45.889196 
L 104.270214 46.767305 
L 107.549553 47.436625 
L 110.828892 47.698916 
L 114.108231 47.261437 
L 117.38757 47.065103 
L 120.666909 46.686684 
L 123.946247 46.469265 
L 127.225586 45.876312 
L 130.504925 45.782205 
L 133.784264 45.741945 
L 137.063603 46.142057 
L 140.342942 46.33056 
L 143.62228 45.965121 
L 146.901619 45.17104 
L 150.180958 44.741215 
L 153.460297 44.967338 
L 156.739636 45.762882 
L 160.018975 46.847298 
L 163.298314 47.346956 
L 166.577652 47.54208 
L 169.856991 47.419791 
L 173.13633 47.352628 
L 176.415669 47.510033 
L 179.695008 47.8118 
L 182.974347 48.316287 
L 186.253685 48.435937 
L 189.533024 48.026548 
L 192.812363 47.296827 
L 196.091702 47.138797 
L 199.371041 46.872027 
L 202.65038 46.245326 
L 205.929718 45.702327 
L 209.209057 45.123592 
L 212.488396 44.847576 
L 215.767735 44.126364 
L 219.047074 43.038324 
L 222.326413 42.266349 
L 225.605752 41.69307 
L 228.88509 41.190003 
L 232.164429 40.820663 
L 235.443768 40.122746 
L 238.723107 39.455181 
L 242.002446 38.87522 
L 245.281785 38.423502 
L 248.561123 37.932733 
L 251.840462 37.41866 
L 255.119801 36.828391 
L 258.39914 36.242209 
L 261.678479 35.848773 
L 264.957818 35.596293 
L 268.237157 35.426735 
L 271.516495 35.263461 
L 274.795834 35.059437 
L 278.075173 34.821569 
L 281.354512 34.662265 
L 284.633851 34.399301 
L 287.91319 34.050989 
L 291.192528 33.638013 
L 294.471867 33.233541 
L 297.751206 32.979289 
L 301.030545 32.749837 
L 304.309884 32.679841 
L 307.589223 32.373638 
L 310.868561 31.990132 
L 314.1479 31.733691 
L 317.427239 31.531805 
L 320.706578 31.332349 
L 323.985917 31.101946 
L 327.265256 30.719539 
L 330.544595 30.17504 
L 333.823933 29.514 
L 337.103272 28.44006 
L 340.382611 27.576772 
L 343.66195 26.655302 
L 346.941289 25.843083 
L 350.220628 25.187298 
L 353.499966 24.771529 
L 356.779305 24.619207 
L 360.058644 24.377054 
L 363.337983 23.73947 
L 366.617322 23.008344 
L 369.896661 22.130609 
L 373.175999 20.820708 
L 376.455338 19.328972 
L 379.734677 18.08669 
L 383.014016 17.316828 
L 386.293355 16.69044 
L 389.572694 16.103484 
L 392.852033 15.565983 
L 396.131371 14.907359 
L 399.41071 14.257647 
" style="fill:none;stroke:#0000ff;stroke-linecap:square;stroke-width:1.5;"/>
    <defs>
     <path d="M 0 2.5 
C 0.663008 2.5 1.29895 2.236584 1.767767 1.767767 
C 2.236584 1.29895 2.5 0.663008 2.5 0 
C 2.5 -0.663008 2.236584 -1.29895 1.767767 -1.767767 
C 1.29895 -2.236584 0.663008 -2.5 0 -2.5 
C -0.663008 -2.5 -1.29895 -2.236584 -1.767767 -1.767767 
C -2.236584 -1.29895 -2.5 -0.663008 -2.5 0 
C -2.5 0.663008 -2.236584 1.29895 -1.767767 1.767767 
C -1.29895 2.236584 -0.663008 2.5 0 2.5 
z
" id="m2427cce3b1" style="stroke:#0000ff;"/>
    </defs>
    <g clip-path="url(#pcc3b8b4ea9)">
     <use style="fill:#0000ff;stroke:#0000ff;" x="74.756165" xlink:href="#m2427cce3b1" y="41.994154"/>
     <use style="fill:#0000ff;stroke:#0000ff;" x="107.549553" xlink:href="#m2427cce3b1" y="47.436625"/>
     <use style="fill:#0000ff;stroke:#0000ff;" x="140.342942" xlink:href="#m2427cce3b1" y="46.33056"/>
     <use style="fill:#0000ff;stroke:#0000ff;" x="173.13633" xlink:href="#m2427cce3b1" y="47.352628"/>
     <use style="fill:#0000ff;stroke:#0000ff;" x="205.929718" xlink:href="#m2427cce3b1" y="45.702327"/>
     <use style="fill:#0000ff;stroke:#0000ff;" x="238.723107" xlink:href="#m2427cce3b1" y="39.455181"/>
     <use style="fill:#0000ff;stroke:#0000ff;" x="271.516495" xlink:href="#m2427cce3b1" y="35.263461"/>
     <use style="fill:#0000ff;stroke:#0000ff;" x="304.309884" xlink:href="#m2427cce3b1" y="32.679841"/>
     <use style="fill:#0000ff;stroke:#0000ff;" x="337.103272" xlink:href="#m2427cce3b1" y="28.44006"/>
     <use style="fill:#0000ff;stroke:#0000ff;" x="369.896661" xlink:href="#m2427cce3b1" y="22.130609"/>
    </g>
   </g>
   <g id="patch_3">
    <path d="M 58.523438 88.968235 
L 58.523438 10.7 
" style="fill:none;stroke:#000000;stroke-linecap:square;stroke-linejoin:miter;stroke-width:0.8;"/>
   </g>
   <g id="patch_4">
    <path d="M 415.643438 88.968235 
L 415.643438 10.7 
" style="fill:none;stroke:#000000;stroke-linecap:square;stroke-linejoin:miter;stroke-width:0.8;"/>
   </g>
   <g id="patch_5">
    <path d="M 58.523438 88.968235 
L 415.643438 88.968235 
" style="fill:none;stroke:#000000;stroke-linecap:square;stroke-linejoin:miter;stroke-width:0.8;"/>
   </g>
   <g id="patch_6">
    <path d="M 58.523438 10.7 
L 415.643438 10.7 
" style="fill:none;stroke:#000000;stroke-linecap:square;stroke-linejoin:miter;stroke-width:0.8;"/>
   </g>
  </g>
  <g id="axes_2">
   <g id="patch_7">
    <path d="M 58.523438 182.890118 
L 415.643438 182.890118 
L 415.643438 104.621882 
L 58.523438 104.621882 
z
" style="fill:#ffffff;"/>
   </g>
   <g id="matplotlib.axis_3">
    <g id="xtick_7">
     <g id="line2d_12">
      <g>
       <use style="stroke:#000000;stroke-width:0.8;" x="74.756165" xlink:href="#mf3aac75762" y="182.890118"/>
      </g>
     </g>
     <g id="text_12">
      <!-- 0 -->
      <g transform="translate(71.574915 197.488555)scale(0.1 -0.1)">
       <use xlink:href="#DejaVuSans-30"/>
      </g>
     </g>
    </g>
    <g id="xtick_8">
     <g id="line2d_13">
      <g>
       <use style="stroke:#000000;stroke-width:0.8;" x="140.342942" xlink:href="#mf3aac75762" y="182.890118"/>
      </g>
     </g>
     <g id="text_13">
      <!-- 20 -->
      <g transform="translate(133.980442 197.488555)scale(0.1 -0.1)">
       <use xlink:href="#DejaVuSans-32"/>
       <use x="63.623047" xlink:href="#DejaVuSans-30"/>
      </g>
     </g>
    </g>
    <g id="xtick_9">
     <g id="line2d_14">
      <g>
       <use style="stroke:#000000;stroke-width:0.8;" x="205.929718" xlink:href="#mf3aac75762" y="182.890118"/>
      </g>
     </g>
     <g id="text_14">
      <!-- 40 -->
      <g transform="translate(199.567218 197.488555)scale(0.1 -0.1)">
       <use xlink:href="#DejaVuSans-34"/>
       <use x="63.623047" xlink:href="#DejaVuSans-30"/>
      </g>
     </g>
    </g>
    <g id="xtick_10">
     <g id="line2d_15">
      <g>
       <use style="stroke:#000000;stroke-width:0.8;" x="271.516495" xlink:href="#mf3aac75762" y="182.890118"/>
      </g>
     </g>
     <g id="text_15">
      <!-- 60 -->
      <g transform="translate(265.153995 197.488555)scale(0.1 -0.1)">
       <use xlink:href="#DejaVuSans-36"/>
       <use x="63.623047" xlink:href="#DejaVuSans-30"/>
      </g>
     </g>
    </g>
    <g id="xtick_11">
     <g id="line2d_16">
      <g>
       <use style="stroke:#000000;stroke-width:0.8;" x="337.103272" xlink:href="#mf3aac75762" y="182.890118"/>
      </g>
     </g>
     <g id="text_16">
      <!-- 80 -->
      <g transform="translate(330.740772 197.488555)scale(0.1 -0.1)">
       <use xlink:href="#DejaVuSans-38"/>
       <use x="63.623047" xlink:href="#DejaVuSans-30"/>
      </g>
     </g>
    </g>
    <g id="xtick_12">
     <g id="line2d_17">
      <g>
       <use style="stroke:#000000;stroke-width:0.8;" x="402.690049" xlink:href="#mf3aac75762" y="182.890118"/>
      </g>
     </g>
     <g id="text_17">
      <!-- 100 -->
      <g transform="translate(393.146299 197.488555)scale(0.1 -0.1)">
       <use xlink:href="#DejaVuSans-31"/>
       <use x="63.623047" xlink:href="#DejaVuSans-30"/>
       <use x="127.246094" xlink:href="#DejaVuSans-30"/>
      </g>
     </g>
    </g>
    <g id="text_18">
     <!-- Time -->
     <g transform="translate(224.695938 211.16668)scale(0.1 -0.1)">
      <use xlink:href="#DejaVuSans-54"/>
      <use x="61.037109" xlink:href="#DejaVuSans-69"/>
      <use x="88.820312" xlink:href="#DejaVuSans-6d"/>
      <use x="186.232422" xlink:href="#DejaVuSans-65"/>
     </g>
    </g>
   </g>
   <g id="matplotlib.axis_4">
    <g id="ytick_4">
     <g id="line2d_18">
      <g>
       <use style="stroke:#000000;stroke-width:0.8;" x="58.523438" xlink:href="#mac727984c2" y="159.968148"/>
      </g>
     </g>
     <g id="text_19">
      <!-- −1 -->
      <g transform="translate(36.78125 163.767366)scale(0.1 -0.1)">
       <use xlink:href="#DejaVuSans-2212"/>
       <use x="83.789062" xlink:href="#DejaVuSans-31"/>
      </g>
     </g>
    </g>
    <g id="ytick_5">
     <g id="line2d_19">
      <g>
       <use style="stroke:#000000;stroke-width:0.8;" x="58.523438" xlink:href="#mac727984c2" y="108.179529"/>
      </g>
     </g>
     <g id="text_20">
      <!-- 0 -->
      <g transform="translate(45.160938 111.978748)scale(0.1 -0.1)">
       <use xlink:href="#DejaVuSans-30"/>
      </g>
     </g>
    </g>
    <g id="text_21">
     <!-- y -->
     <defs>
      <path d="M 32.171875 -5.078125 
Q 28.375 -14.84375 24.75 -17.8125 
Q 21.140625 -20.796875 15.09375 -20.796875 
L 7.90625 -20.796875 
L 7.90625 -13.28125 
L 13.1875 -13.28125 
Q 16.890625 -13.28125 18.9375 -11.515625 
Q 21 -9.765625 23.484375 -3.21875 
L 25.09375 0.875 
L 2.984375 54.6875 
L 12.5 54.6875 
L 29.59375 11.921875 
L 46.6875 54.6875 
L 56.203125 54.6875 
z
" id="DejaVuSans-79"/>
     </defs>
     <g transform="translate(30.701563 146.715375)rotate(-90)scale(0.1 -0.1)">
      <use xlink:href="#DejaVuSans-79"/>
     </g>
    </g>
   </g>
   <g id="line2d_20">
    <path clip-path="url(#p29f7de8b35)" d="M 74.756165 108.179529 
L 78.035504 108.976099 
L 81.314842 109.991545 
L 84.594181 111.355114 
L 87.87352 112.391235 
L 91.152859 113.37091 
L 94.432198 114.070076 
L 97.711537 115.020142 
L 100.990876 115.734058 
L 104.270214 116.453879 
L 107.549553 116.879039 
L 110.828892 117.291868 
L 114.108231 117.615711 
L 117.38757 117.904246 
L 120.666909 118.209058 
L 123.946247 118.4463 
L 127.225586 119.00366 
L 130.504925 119.689168 
L 133.784264 120.916921 
L 137.063603 121.813334 
L 140.342942 123.038492 
L 143.62228 124.121285 
L 146.901619 125.211186 
L 150.180958 125.772422 
L 153.460297 126.307214 
L 156.739636 126.835366 
L 160.018975 127.345097 
L 163.298314 128.084448 
L 166.577652 128.850238 
L 169.856991 129.311125 
L 173.13633 129.819324 
L 176.415669 130.430028 
L 179.695008 131.151429 
L 182.974347 131.781025 
L 186.253685 132.090299 
L 189.533024 132.350501 
L 192.812363 132.584977 
L 196.091702 132.860139 
L 199.371041 133.112951 
L 202.65038 133.380052 
L 205.929718 133.779366 
L 209.209057 134.063609 
L 212.488396 134.426578 
L 215.767735 134.621034 
L 219.047074 134.835174 
L 222.326413 135.062045 
L 225.605752 135.18976 
L 228.88509 135.003494 
L 232.164429 135.139435 
L 235.443768 135.522086 
L 238.723107 135.776939 
L 242.002446 136.029331 
L 245.281785 136.17754 
L 248.561123 136.405735 
L 251.840462 136.618295 
L 255.119801 136.891098 
L 258.39914 137.121537 
L 261.678479 137.361773 
L 264.957818 137.500536 
L 268.237157 137.584304 
L 271.516495 137.662484 
L 274.795834 137.567919 
L 278.075173 137.402087 
L 281.354512 137.251335 
L 284.633851 136.800511 
L 287.91319 136.418409 
L 291.192528 135.799414 
L 294.471867 135.345503 
L 297.751206 134.973502 
L 301.030545 134.809717 
L 304.309884 134.719455 
L 307.589223 134.633977 
L 310.868561 134.572413 
L 314.1479 134.521267 
L 317.427239 134.544063 
L 320.706578 134.791375 
L 323.985917 135.011103 
L 327.265256 135.387697 
L 330.544595 135.754186 
L 333.823933 136.253924 
L 337.103272 136.761972 
L 340.382611 137.392737 
L 343.66195 137.961908 
L 346.941289 138.529371 
L 350.220628 139.180929 
L 353.499966 139.678797 
L 356.779305 140.406576 
L 360.058644 140.858193 
L 363.337983 141.41016 
L 366.617322 141.997235 
L 369.896661 142.702387 
L 373.175999 143.289995 
L 376.455338 144.036125 
L 379.734677 144.933717 
L 383.014016 145.722908 
L 386.293355 146.455644 
L 389.572694 146.934447 
L 392.852033 147.566237 
L 396.131371 148.124249 
L 399.41071 148.851191 
" style="fill:none;stroke:#ff0000;stroke-linecap:square;stroke-width:1.5;"/>
    <g clip-path="url(#p29f7de8b35)">
     <use style="fill:#ff0000;stroke:#ff0000;" x="74.756165" xlink:href="#m4effb8d9e7" y="108.179529"/>
     <use style="fill:#ff0000;stroke:#ff0000;" x="107.549553" xlink:href="#m4effb8d9e7" y="116.879039"/>
     <use style="fill:#ff0000;stroke:#ff0000;" x="140.342942" xlink:href="#m4effb8d9e7" y="123.038492"/>
     <use style="fill:#ff0000;stroke:#ff0000;" x="173.13633" xlink:href="#m4effb8d9e7" y="129.819324"/>
     <use style="fill:#ff0000;stroke:#ff0000;" x="205.929718" xlink:href="#m4effb8d9e7" y="133.779366"/>
     <use style="fill:#ff0000;stroke:#ff0000;" x="238.723107" xlink:href="#m4effb8d9e7" y="135.776939"/>
     <use style="fill:#ff0000;stroke:#ff0000;" x="271.516495" xlink:href="#m4effb8d9e7" y="137.662484"/>
     <use style="fill:#ff0000;stroke:#ff0000;" x="304.309884" xlink:href="#m4effb8d9e7" y="134.719455"/>
     <use style="fill:#ff0000;stroke:#ff0000;" x="337.103272" xlink:href="#m4effb8d9e7" y="136.761972"/>
     <use style="fill:#ff0000;stroke:#ff0000;" x="369.896661" xlink:href="#m4effb8d9e7" y="142.702387"/>
    </g>
   </g>
   <g id="line2d_21">
    <path clip-path="url(#p29f7de8b35)" d="M 74.756165 108.179529 
L 78.035504 108.93582 
L 81.314842 109.415225 
L 84.594181 110.063022 
L 87.87352 110.83299 
L 91.152859 111.539763 
L 94.432198 112.209569 
L 97.711537 112.934078 
L 100.990876 113.613896 
L 104.270214 114.210611 
L 107.549553 114.786519 
L 110.828892 115.413353 
L 114.108231 115.986961 
L 117.38757 116.48844 
L 120.666909 116.878267 
L 123.946247 117.265363 
L 127.225586 117.582978 
L 130.504925 117.651035 
L 133.784264 117.645873 
L 137.063603 117.625359 
L 140.342942 117.64613 
L 143.62228 117.728184 
L 146.901619 118.00176 
L 150.180958 118.334452 
L 153.460297 118.820027 
L 156.739636 119.340279 
L 160.018975 119.958917 
L 163.298314 120.557528 
L 166.577652 121.179072 
L 169.856991 121.76521 
L 173.13633 122.319077 
L 176.415669 122.825832 
L 179.695008 123.115932 
L 182.974347 123.441985 
L 186.253685 123.855659 
L 189.533024 124.426082 
L 192.812363 125.096292 
L 196.091702 125.757305 
L 199.371041 126.342268 
L 202.65038 126.970575 
L 205.929718 127.722948 
L 209.209057 128.728508 
L 212.488396 129.805847 
L 215.767735 130.928812 
L 219.047074 132.078329 
L 222.326413 133.045219 
L 225.605752 134.05278 
L 228.88509 135.05989 
L 232.164429 136.088645 
L 235.443768 137.068915 
L 238.723107 138.096976 
L 242.002446 139.133337 
L 245.281785 140.177041 
L 248.561123 141.184731 
L 251.840462 142.295285 
L 255.119801 143.39471 
L 258.39914 144.501763 
L 261.678479 145.606395 
L 264.957818 146.655903 
L 268.237157 147.633793 
L 271.516495 148.534876 
L 274.795834 149.341233 
L 278.075173 150.18759 
L 281.354512 151.016342 
L 284.633851 151.88097 
L 287.91319 152.66291 
L 291.192528 153.41823 
L 294.471867 154.229551 
L 297.751206 155.002085 
L 301.030545 155.77178 
L 304.309884 156.525837 
L 307.589223 157.274406 
L 310.868561 157.993365 
L 314.1479 158.825155 
L 317.427239 159.734292 
L 320.706578 160.714898 
L 323.985917 161.801608 
L 327.265256 162.890387 
L 330.544595 164.095194 
L 333.823933 165.338889 
L 337.103272 166.535676 
L 340.382611 167.698156 
L 343.66195 168.743435 
L 346.941289 169.659807 
L 350.220628 170.537786 
L 353.499966 171.40767 
L 356.779305 172.223751 
L 360.058644 173.005481 
L 363.337983 173.886003 
L 366.617322 174.701775 
L 369.896661 175.47101 
L 373.175999 176.171618 
L 376.455338 176.772157 
L 379.734677 177.287993 
L 383.014016 177.736616 
L 386.293355 178.159773 
L 389.572694 178.474007 
L 392.852033 178.760133 
L 396.131371 179.070367 
L 399.41071 179.332471 
" style="fill:none;stroke:#0000ff;stroke-linecap:square;stroke-width:1.5;"/>
    <g clip-path="url(#p29f7de8b35)">
     <use style="fill:#0000ff;stroke:#0000ff;" x="74.756165" xlink:href="#m2427cce3b1" y="108.179529"/>
     <use style="fill:#0000ff;stroke:#0000ff;" x="107.549553" xlink:href="#m2427cce3b1" y="114.786519"/>
     <use style="fill:#0000ff;stroke:#0000ff;" x="140.342942" xlink:href="#m2427cce3b1" y="117.64613"/>
     <use style="fill:#0000ff;stroke:#0000ff;" x="173.13633" xlink:href="#m2427cce3b1" y="122.319077"/>
     <use style="fill:#0000ff;stroke:#0000ff;" x="205.929718" xlink:href="#m2427cce3b1" y="127.722948"/>
     <use style="fill:#0000ff;stroke:#0000ff;" x="238.723107" xlink:href="#m2427cce3b1" y="138.096976"/>
     <use style="fill:#0000ff;stroke:#0000ff;" x="271.516495" xlink:href="#m2427cce3b1" y="148.534876"/>
     <use style="fill:#0000ff;stroke:#0000ff;" x="304.309884" xlink:href="#m2427cce3b1" y="156.525837"/>
     <use style="fill:#0000ff;stroke:#0000ff;" x="337.103272" xlink:href="#m2427cce3b1" y="166.535676"/>
     <use style="fill:#0000ff;stroke:#0000ff;" x="369.896661" xlink:href="#m2427cce3b1" y="175.47101"/>
    </g>
   </g>
   <g id="patch_8">
    <path d="M 58.523438 182.890118 
L 58.523438 104.621882 
" style="fill:none;stroke:#000000;stroke-linecap:square;stroke-linejoin:miter;stroke-width:0.8;"/>
   </g>
   <g id="patch_9">
    <path d="M 415.643438 182.890118 
L 415.643438 104.621882 
" style="fill:none;stroke:#000000;stroke-linecap:square;stroke-linejoin:miter;stroke-width:0.8;"/>
   </g>
   <g id="patch_10">
    <path d="M 58.523438 182.890118 
L 415.643438 182.890118 
" style="fill:none;stroke:#000000;stroke-linecap:square;stroke-linejoin:miter;stroke-width:0.8;"/>
   </g>
   <g id="patch_11">
    <path d="M 58.523438 104.621882 
L 415.643438 104.621882 
" style="fill:none;stroke:#000000;stroke-linecap:square;stroke-linejoin:miter;stroke-width:0.8;"/>
   </g>
  </g>
  <g id="axes_3">
   <g id="patch_12">
    <path d="M 58.523438 276.812 
L 415.643438 276.812 
L 415.643438 198.543765 
L 58.523438 198.543765 
z
" style="fill:#ffffff;"/>
   </g>
   <g id="matplotlib.axis_5">
    <g id="xtick_13">
     <g id="line2d_22">
      <g>
       <use style="stroke:#000000;stroke-width:0.8;" x="74.756165" xlink:href="#mf3aac75762" y="276.812"/>
      </g>
     </g>
     <g id="text_22">
      <!-- 0 -->
      <g transform="translate(71.574915 291.410438)scale(0.1 -0.1)">
       <use xlink:href="#DejaVuSans-30"/>
      </g>
     </g>
    </g>
    <g id="xtick_14">
     <g id="line2d_23">
      <g>
       <use style="stroke:#000000;stroke-width:0.8;" x="140.342942" xlink:href="#mf3aac75762" y="276.812"/>
      </g>
     </g>
     <g id="text_23">
      <!-- 20 -->
      <g transform="translate(133.980442 291.410438)scale(0.1 -0.1)">
       <use xlink:href="#DejaVuSans-32"/>
       <use x="63.623047" xlink:href="#DejaVuSans-30"/>
      </g>
     </g>
    </g>
    <g id="xtick_15">
     <g id="line2d_24">
      <g>
       <use style="stroke:#000000;stroke-width:0.8;" x="205.929718" xlink:href="#mf3aac75762" y="276.812"/>
      </g>
     </g>
     <g id="text_24">
      <!-- 40 -->
      <g transform="translate(199.567218 291.410438)scale(0.1 -0.1)">
       <use xlink:href="#DejaVuSans-34"/>
       <use x="63.623047" xlink:href="#DejaVuSans-30"/>
      </g>
     </g>
    </g>
    <g id="xtick_16">
     <g id="line2d_25">
      <g>
       <use style="stroke:#000000;stroke-width:0.8;" x="271.516495" xlink:href="#mf3aac75762" y="276.812"/>
      </g>
     </g>
     <g id="text_25">
      <!-- 60 -->
      <g transform="translate(265.153995 291.410438)scale(0.1 -0.1)">
       <use xlink:href="#DejaVuSans-36"/>
       <use x="63.623047" xlink:href="#DejaVuSans-30"/>
      </g>
     </g>
    </g>
    <g id="xtick_17">
     <g id="line2d_26">
      <g>
       <use style="stroke:#000000;stroke-width:0.8;" x="337.103272" xlink:href="#mf3aac75762" y="276.812"/>
      </g>
     </g>
     <g id="text_26">
      <!-- 80 -->
      <g transform="translate(330.740772 291.410438)scale(0.1 -0.1)">
       <use xlink:href="#DejaVuSans-38"/>
       <use x="63.623047" xlink:href="#DejaVuSans-30"/>
      </g>
     </g>
    </g>
    <g id="xtick_18">
     <g id="line2d_27">
      <g>
       <use style="stroke:#000000;stroke-width:0.8;" x="402.690049" xlink:href="#mf3aac75762" y="276.812"/>
      </g>
     </g>
     <g id="text_27">
      <!-- 100 -->
      <g transform="translate(393.146299 291.410438)scale(0.1 -0.1)">
       <use xlink:href="#DejaVuSans-31"/>
       <use x="63.623047" xlink:href="#DejaVuSans-30"/>
       <use x="127.246094" xlink:href="#DejaVuSans-30"/>
      </g>
     </g>
    </g>
    <g id="text_28">
     <!-- Time -->
     <g transform="translate(224.695938 305.088562)scale(0.1 -0.1)">
      <use xlink:href="#DejaVuSans-54"/>
      <use x="61.037109" xlink:href="#DejaVuSans-69"/>
      <use x="88.820312" xlink:href="#DejaVuSans-6d"/>
      <use x="186.232422" xlink:href="#DejaVuSans-65"/>
     </g>
    </g>
   </g>
   <g id="matplotlib.axis_6">
    <g id="ytick_6">
     <g id="line2d_28">
      <g>
       <use style="stroke:#000000;stroke-width:0.8;" x="58.523438" xlink:href="#mac727984c2" y="273.254353"/>
      </g>
     </g>
     <g id="text_29">
      <!-- 0 -->
      <g transform="translate(45.160938 277.053572)scale(0.1 -0.1)">
       <use xlink:href="#DejaVuSans-30"/>
      </g>
     </g>
    </g>
    <g id="ytick_7">
     <g id="line2d_29">
      <g>
       <use style="stroke:#000000;stroke-width:0.8;" x="58.523438" xlink:href="#mac727984c2" y="243.287268"/>
      </g>
     </g>
     <g id="text_30">
      <!-- 10 -->
      <g transform="translate(38.798438 247.086487)scale(0.1 -0.1)">
       <use xlink:href="#DejaVuSans-31"/>
       <use x="63.623047" xlink:href="#DejaVuSans-30"/>
      </g>
     </g>
    </g>
    <g id="ytick_8">
     <g id="line2d_30">
      <g>
       <use style="stroke:#000000;stroke-width:0.8;" x="58.523438" xlink:href="#mac727984c2" y="213.320184"/>
      </g>
     </g>
     <g id="text_31">
      <!-- 20 -->
      <g transform="translate(38.798438 217.119402)scale(0.1 -0.1)">
       <use xlink:href="#DejaVuSans-32"/>
       <use x="63.623047" xlink:href="#DejaVuSans-30"/>
      </g>
     </g>
    </g>
    <g id="text_32">
     <!-- z -->
     <defs>
      <path d="M 5.515625 54.6875 
L 48.1875 54.6875 
L 48.1875 46.484375 
L 14.40625 7.171875 
L 48.1875 7.171875 
L 48.1875 0 
L 4.296875 0 
L 4.296875 8.203125 
L 38.09375 47.515625 
L 5.515625 47.515625 
z
" id="DejaVuSans-7a"/>
     </defs>
     <g transform="translate(32.71875 240.302101)rotate(-90)scale(0.1 -0.1)">
      <use xlink:href="#DejaVuSans-7a"/>
     </g>
    </g>
   </g>
   <g id="line2d_31">
    <path clip-path="url(#p925e4d5694)" d="M 74.756165 273.254353 
L 78.035504 271.512407 
L 81.314842 269.840695 
L 84.594181 268.236529 
L 87.87352 266.687089 
L 91.152859 265.167383 
L 94.432198 263.678223 
L 97.711537 262.219459 
L 100.990876 260.787155 
L 104.270214 259.397308 
L 107.549553 258.04101 
L 110.828892 256.711878 
L 114.108231 255.410166 
L 117.38757 254.137562 
L 120.666909 252.89109 
L 123.946247 251.685952 
L 127.225586 250.525865 
L 130.504925 249.405 
L 133.784264 248.33031 
L 137.063603 247.284448 
L 140.342942 246.284354 
L 143.62228 245.316695 
L 146.901619 244.381432 
L 150.180958 243.466015 
L 153.460297 242.585978 
L 156.739636 241.750673 
L 160.018975 240.95921 
L 163.298314 240.210982 
L 166.577652 239.520506 
L 169.856991 238.865013 
L 173.13633 238.248582 
L 176.415669 237.661352 
L 179.695008 237.121875 
L 182.974347 236.612938 
L 186.253685 236.136831 
L 189.533024 235.689192 
L 192.812363 235.264322 
L 196.091702 234.871612 
L 199.371041 234.499304 
L 202.65038 234.150911 
L 205.929718 233.834737 
L 209.209057 233.536034 
L 212.488396 233.253295 
L 215.767735 232.980227 
L 219.047074 232.725112 
L 222.326413 232.495261 
L 225.605752 232.278951 
L 228.88509 232.072072 
L 232.164429 231.885255 
L 235.443768 231.710718 
L 238.723107 231.544452 
L 242.002446 231.388592 
L 245.281785 231.246318 
L 248.561123 231.115889 
L 251.840462 231.001323 
L 255.119801 230.894909 
L 258.39914 230.804043 
L 261.678479 230.726177 
L 264.957818 230.66471 
L 268.237157 230.614394 
L 271.516495 230.572091 
L 274.795834 230.535539 
L 278.075173 230.499984 
L 281.354512 230.465081 
L 284.633851 230.405334 
L 287.91319 230.345244 
L 291.192528 230.25681 
L 294.471867 230.162791 
L 297.751206 230.06105 
L 301.030545 229.962205 
L 304.309884 229.859609 
L 307.589223 229.742682 
L 310.868561 229.61318 
L 314.1479 229.470006 
L 317.427239 229.316994 
L 320.706578 229.14415 
L 323.985917 228.961965 
L 327.265256 228.756409 
L 330.544595 228.542271 
L 333.823933 228.311628 
L 337.103272 228.06779 
L 340.382611 227.807077 
L 343.66195 227.535361 
L 346.941289 227.25131 
L 350.220628 226.948775 
L 353.499966 226.640346 
L 356.779305 226.327039 
L 360.058644 226.006356 
L 363.337983 225.667642 
L 366.617322 225.324656 
L 369.896661 224.976829 
L 373.175999 224.627013 
L 376.455338 224.280866 
L 379.734677 223.95006 
L 383.014016 223.635887 
L 386.293355 223.334603 
L 389.572694 223.045025 
L 392.852033 222.770428 
L 396.131371 222.516442 
L 399.41071 222.281073 
" style="fill:none;stroke:#ff0000;stroke-linecap:square;stroke-width:1.5;"/>
    <g clip-path="url(#p925e4d5694)">
     <use style="fill:#ff0000;stroke:#ff0000;" x="74.756165" xlink:href="#m4effb8d9e7" y="273.254353"/>
     <use style="fill:#ff0000;stroke:#ff0000;" x="107.549553" xlink:href="#m4effb8d9e7" y="258.04101"/>
     <use style="fill:#ff0000;stroke:#ff0000;" x="140.342942" xlink:href="#m4effb8d9e7" y="246.284354"/>
     <use style="fill:#ff0000;stroke:#ff0000;" x="173.13633" xlink:href="#m4effb8d9e7" y="238.248582"/>
     <use style="fill:#ff0000;stroke:#ff0000;" x="205.929718" xlink:href="#m4effb8d9e7" y="233.834737"/>
     <use style="fill:#ff0000;stroke:#ff0000;" x="238.723107" xlink:href="#m4effb8d9e7" y="231.544452"/>
     <use style="fill:#ff0000;stroke:#ff0000;" x="271.516495" xlink:href="#m4effb8d9e7" y="230.572091"/>
     <use style="fill:#ff0000;stroke:#ff0000;" x="304.309884" xlink:href="#m4effb8d9e7" y="229.859609"/>
     <use style="fill:#ff0000;stroke:#ff0000;" x="337.103272" xlink:href="#m4effb8d9e7" y="228.06779"/>
     <use style="fill:#ff0000;stroke:#ff0000;" x="369.896661" xlink:href="#m4effb8d9e7" y="224.976829"/>
    </g>
   </g>
   <g id="line2d_32">
    <path clip-path="url(#p925e4d5694)" d="M 74.756165 273.254353 
L 78.035504 271.248852 
L 81.314842 269.250549 
L 84.594181 267.354412 
L 87.87352 265.50149 
L 91.152859 263.648553 
L 94.432198 261.869447 
L 97.711537 260.094136 
L 100.990876 258.377991 
L 104.270214 256.657208 
L 107.549553 254.956618 
L 110.828892 253.307028 
L 114.108231 251.715046 
L 117.38757 250.160235 
L 120.666909 248.669181 
L 123.946247 247.173013 
L 127.225586 245.636515 
L 130.504925 244.061795 
L 133.784264 242.520535 
L 137.063603 241.016528 
L 140.342942 239.528016 
L 143.62228 238.107857 
L 146.901619 236.757141 
L 150.180958 235.451997 
L 153.460297 234.221803 
L 156.739636 233.008609 
L 160.018975 231.823902 
L 163.298314 230.690308 
L 166.577652 229.601865 
L 169.856991 228.529184 
L 173.13633 227.492213 
L 176.415669 226.551749 
L 179.695008 225.595461 
L 182.974347 224.67027 
L 186.253685 223.823753 
L 189.533024 223.021876 
L 192.812363 222.334578 
L 196.091702 221.706644 
L 199.371041 221.086689 
L 202.65038 220.524532 
L 205.929718 220.000161 
L 209.209057 219.515464 
L 212.488396 219.055105 
L 215.767735 218.635013 
L 219.047074 218.223649 
L 222.326413 217.827427 
L 225.605752 217.478713 
L 228.88509 217.128085 
L 232.164429 216.812546 
L 235.443768 216.498939 
L 238.723107 216.211665 
L 242.002446 215.945081 
L 245.281785 215.716113 
L 248.561123 215.512609 
L 251.840462 215.329185 
L 255.119801 215.152533 
L 258.39914 214.986856 
L 261.678479 214.819121 
L 264.957818 214.660983 
L 268.237157 214.486372 
L 271.516495 214.341774 
L 274.795834 214.199629 
L 278.075173 214.076397 
L 281.354512 213.969741 
L 284.633851 213.852013 
L 287.91319 213.737555 
L 291.192528 213.627823 
L 294.471867 213.498567 
L 297.751206 213.368573 
L 301.030545 213.212556 
L 304.309884 213.046033 
L 307.589223 212.882676 
L 310.868561 212.703572 
L 314.1479 212.515598 
L 317.427239 212.322816 
L 320.706578 212.131647 
L 323.985917 211.898404 
L 327.265256 211.659953 
L 330.544595 211.401166 
L 333.823933 211.154228 
L 337.103272 210.862769 
L 340.382611 210.512135 
L 343.66195 210.139405 
L 346.941289 209.774116 
L 350.220628 209.424151 
L 353.499966 209.078249 
L 356.779305 208.682501 
L 360.058644 208.233007 
L 363.337983 207.744949 
L 366.617322 207.219945 
L 369.896661 206.658319 
L 373.175999 206.090132 
L 376.455338 205.49911 
L 379.734677 204.908168 
L 383.014016 204.36601 
L 386.293355 203.852243 
L 389.572694 203.381698 
L 392.852033 202.949843 
L 396.131371 202.533284 
L 399.41071 202.101412 
" style="fill:none;stroke:#0000ff;stroke-linecap:square;stroke-width:1.5;"/>
    <g clip-path="url(#p925e4d5694)">
     <use style="fill:#0000ff;stroke:#0000ff;" x="74.756165" xlink:href="#m2427cce3b1" y="273.254353"/>
     <use style="fill:#0000ff;stroke:#0000ff;" x="107.549553" xlink:href="#m2427cce3b1" y="254.956618"/>
     <use style="fill:#0000ff;stroke:#0000ff;" x="140.342942" xlink:href="#m2427cce3b1" y="239.528016"/>
     <use style="fill:#0000ff;stroke:#0000ff;" x="173.13633" xlink:href="#m2427cce3b1" y="227.492213"/>
     <use style="fill:#0000ff;stroke:#0000ff;" x="205.929718" xlink:href="#m2427cce3b1" y="220.000161"/>
     <use style="fill:#0000ff;stroke:#0000ff;" x="238.723107" xlink:href="#m2427cce3b1" y="216.211665"/>
     <use style="fill:#0000ff;stroke:#0000ff;" x="271.516495" xlink:href="#m2427cce3b1" y="214.341774"/>
     <use style="fill:#0000ff;stroke:#0000ff;" x="304.309884" xlink:href="#m2427cce3b1" y="213.046033"/>
     <use style="fill:#0000ff;stroke:#0000ff;" x="337.103272" xlink:href="#m2427cce3b1" y="210.862769"/>
     <use style="fill:#0000ff;stroke:#0000ff;" x="369.896661" xlink:href="#m2427cce3b1" y="206.658319"/>
    </g>
   </g>
   <g id="patch_13">
    <path d="M 58.523438 276.812 
L 58.523438 198.543765 
" style="fill:none;stroke:#000000;stroke-linecap:square;stroke-linejoin:miter;stroke-width:0.8;"/>
   </g>
   <g id="patch_14">
    <path d="M 415.643438 276.812 
L 415.643438 198.543765 
" style="fill:none;stroke:#000000;stroke-linecap:square;stroke-linejoin:miter;stroke-width:0.8;"/>
   </g>
   <g id="patch_15">
    <path d="M 58.523438 276.812 
L 415.643438 276.812 
" style="fill:none;stroke:#000000;stroke-linecap:square;stroke-linejoin:miter;stroke-width:0.8;"/>
   </g>
   <g id="patch_16">
    <path d="M 58.523438 198.543765 
L 415.643438 198.543765 
" style="fill:none;stroke:#000000;stroke-linecap:square;stroke-linejoin:miter;stroke-width:0.8;"/>
   </g>
   <g id="legend_1">
    <g id="patch_17">
     <path d="M 65.523438 271.812 
L 164.492188 271.812 
Q 166.492188 271.812 166.492188 269.812 
L 166.492188 241.45575 
Q 166.492188 239.45575 164.492188 239.45575 
L 65.523438 239.45575 
Q 63.523438 239.45575 63.523438 241.45575 
L 63.523438 269.812 
Q 63.523438 271.812 65.523438 271.812 
z
" style="fill:#ffffff;opacity:0.8;stroke:#cccccc;stroke-linejoin:miter;"/>
    </g>
    <g id="line2d_33">
     <path d="M 67.523438 247.554187 
L 87.523438 247.554187 
" style="fill:none;stroke:#ff0000;stroke-linecap:square;stroke-width:1.5;"/>
    </g>
    <g id="line2d_34">
     <g>
      <use style="fill:#ff0000;stroke:#ff0000;" x="77.523438" xlink:href="#m4effb8d9e7" y="247.554187"/>
     </g>
    </g>
    <g id="text_33">
     <!-- Ground Truth -->
     <defs>
      <path d="M 59.515625 10.40625 
L 59.515625 29.984375 
L 43.40625 29.984375 
L 43.40625 38.09375 
L 69.28125 38.09375 
L 69.28125 6.78125 
Q 63.578125 2.734375 56.6875 0.65625 
Q 49.8125 -1.421875 42 -1.421875 
Q 24.90625 -1.421875 15.25 8.5625 
Q 5.609375 18.5625 5.609375 36.375 
Q 5.609375 54.25 15.25 64.234375 
Q 24.90625 74.21875 42 74.21875 
Q 49.125 74.21875 55.546875 72.453125 
Q 61.96875 70.703125 67.390625 67.28125 
L 67.390625 56.78125 
Q 61.921875 61.421875 55.765625 63.765625 
Q 49.609375 66.109375 42.828125 66.109375 
Q 29.4375 66.109375 22.71875 58.640625 
Q 16.015625 51.171875 16.015625 36.375 
Q 16.015625 21.625 22.71875 14.15625 
Q 29.4375 6.6875 42.828125 6.6875 
Q 48.046875 6.6875 52.140625 7.59375 
Q 56.25 8.5 59.515625 10.40625 
z
" id="DejaVuSans-47"/>
      <path d="M 41.109375 46.296875 
Q 39.59375 47.171875 37.8125 47.578125 
Q 36.03125 48 33.890625 48 
Q 26.265625 48 22.1875 43.046875 
Q 18.109375 38.09375 18.109375 28.8125 
L 18.109375 0 
L 9.078125 0 
L 9.078125 54.6875 
L 18.109375 54.6875 
L 18.109375 46.1875 
Q 20.953125 51.171875 25.484375 53.578125 
Q 30.03125 56 36.53125 56 
Q 37.453125 56 38.578125 55.875 
Q 39.703125 55.765625 41.0625 55.515625 
z
" id="DejaVuSans-72"/>
      <path d="M 30.609375 48.390625 
Q 23.390625 48.390625 19.1875 42.75 
Q 14.984375 37.109375 14.984375 27.296875 
Q 14.984375 17.484375 19.15625 11.84375 
Q 23.34375 6.203125 30.609375 6.203125 
Q 37.796875 6.203125 41.984375 11.859375 
Q 46.1875 17.53125 46.1875 27.296875 
Q 46.1875 37.015625 41.984375 42.703125 
Q 37.796875 48.390625 30.609375 48.390625 
z
M 30.609375 56 
Q 42.328125 56 49.015625 48.375 
Q 55.71875 40.765625 55.71875 27.296875 
Q 55.71875 13.875 49.015625 6.21875 
Q 42.328125 -1.421875 30.609375 -1.421875 
Q 18.84375 -1.421875 12.171875 6.21875 
Q 5.515625 13.875 5.515625 27.296875 
Q 5.515625 40.765625 12.171875 48.375 
Q 18.84375 56 30.609375 56 
z
" id="DejaVuSans-6f"/>
      <path d="M 8.5 21.578125 
L 8.5 54.6875 
L 17.484375 54.6875 
L 17.484375 21.921875 
Q 17.484375 14.15625 20.5 10.265625 
Q 23.53125 6.390625 29.59375 6.390625 
Q 36.859375 6.390625 41.078125 11.03125 
Q 45.3125 15.671875 45.3125 23.6875 
L 45.3125 54.6875 
L 54.296875 54.6875 
L 54.296875 0 
L 45.3125 0 
L 45.3125 8.40625 
Q 42.046875 3.421875 37.71875 1 
Q 33.40625 -1.421875 27.6875 -1.421875 
Q 18.265625 -1.421875 13.375 4.4375 
Q 8.5 10.296875 8.5 21.578125 
z
M 31.109375 56 
z
" id="DejaVuSans-75"/>
      <path d="M 54.890625 33.015625 
L 54.890625 0 
L 45.90625 0 
L 45.90625 32.71875 
Q 45.90625 40.484375 42.875 44.328125 
Q 39.84375 48.1875 33.796875 48.1875 
Q 26.515625 48.1875 22.3125 43.546875 
Q 18.109375 38.921875 18.109375 30.90625 
L 18.109375 0 
L 9.078125 0 
L 9.078125 54.6875 
L 18.109375 54.6875 
L 18.109375 46.1875 
Q 21.34375 51.125 25.703125 53.5625 
Q 30.078125 56 35.796875 56 
Q 45.21875 56 50.046875 50.171875 
Q 54.890625 44.34375 54.890625 33.015625 
z
" id="DejaVuSans-6e"/>
      <path d="M 45.40625 46.390625 
L 45.40625 75.984375 
L 54.390625 75.984375 
L 54.390625 0 
L 45.40625 0 
L 45.40625 8.203125 
Q 42.578125 3.328125 38.25 0.953125 
Q 33.9375 -1.421875 27.875 -1.421875 
Q 17.96875 -1.421875 11.734375 6.484375 
Q 5.515625 14.40625 5.515625 27.296875 
Q 5.515625 40.1875 11.734375 48.09375 
Q 17.96875 56 27.875 56 
Q 33.9375 56 38.25 53.625 
Q 42.578125 51.265625 45.40625 46.390625 
z
M 14.796875 27.296875 
Q 14.796875 17.390625 18.875 11.75 
Q 22.953125 6.109375 30.078125 6.109375 
Q 37.203125 6.109375 41.296875 11.75 
Q 45.40625 17.390625 45.40625 27.296875 
Q 45.40625 37.203125 41.296875 42.84375 
Q 37.203125 48.484375 30.078125 48.484375 
Q 22.953125 48.484375 18.875 42.84375 
Q 14.796875 37.203125 14.796875 27.296875 
z
" id="DejaVuSans-64"/>
      <path id="DejaVuSans-20"/>
      <path d="M 18.3125 70.21875 
L 18.3125 54.6875 
L 36.8125 54.6875 
L 36.8125 47.703125 
L 18.3125 47.703125 
L 18.3125 18.015625 
Q 18.3125 11.328125 20.140625 9.421875 
Q 21.96875 7.515625 27.59375 7.515625 
L 36.8125 7.515625 
L 36.8125 0 
L 27.59375 0 
Q 17.1875 0 13.234375 3.875 
Q 9.28125 7.765625 9.28125 18.015625 
L 9.28125 47.703125 
L 2.6875 47.703125 
L 2.6875 54.6875 
L 9.28125 54.6875 
L 9.28125 70.21875 
z
" id="DejaVuSans-74"/>
      <path d="M 54.890625 33.015625 
L 54.890625 0 
L 45.90625 0 
L 45.90625 32.71875 
Q 45.90625 40.484375 42.875 44.328125 
Q 39.84375 48.1875 33.796875 48.1875 
Q 26.515625 48.1875 22.3125 43.546875 
Q 18.109375 38.921875 18.109375 30.90625 
L 18.109375 0 
L 9.078125 0 
L 9.078125 75.984375 
L 18.109375 75.984375 
L 18.109375 46.1875 
Q 21.34375 51.125 25.703125 53.5625 
Q 30.078125 56 35.796875 56 
Q 45.21875 56 50.046875 50.171875 
Q 54.890625 44.34375 54.890625 33.015625 
z
" id="DejaVuSans-68"/>
     </defs>
     <g transform="translate(95.523438 251.054187)scale(0.1 -0.1)">
      <use xlink:href="#DejaVuSans-47"/>
      <use x="77.490234" xlink:href="#DejaVuSans-72"/>
      <use x="118.572266" xlink:href="#DejaVuSans-6f"/>
      <use x="179.753906" xlink:href="#DejaVuSans-75"/>
      <use x="243.132812" xlink:href="#DejaVuSans-6e"/>
      <use x="306.511719" xlink:href="#DejaVuSans-64"/>
      <use x="369.988281" xlink:href="#DejaVuSans-20"/>
      <use x="401.775391" xlink:href="#DejaVuSans-54"/>
      <use x="462.640625" xlink:href="#DejaVuSans-72"/>
      <use x="503.753906" xlink:href="#DejaVuSans-75"/>
      <use x="567.132812" xlink:href="#DejaVuSans-74"/>
      <use x="606.341797" xlink:href="#DejaVuSans-68"/>
     </g>
    </g>
    <g id="line2d_35">
     <path d="M 67.523438 262.232312 
L 87.523438 262.232312 
" style="fill:none;stroke:#0000ff;stroke-linecap:square;stroke-width:1.5;"/>
    </g>
    <g id="line2d_36">
     <g>
      <use style="fill:#0000ff;stroke:#0000ff;" x="77.523438" xlink:href="#m2427cce3b1" y="262.232312"/>
     </g>
    </g>
    <g id="text_34">
     <!-- Prediction -->
     <defs>
      <path d="M 19.671875 64.796875 
L 19.671875 37.40625 
L 32.078125 37.40625 
Q 38.96875 37.40625 42.71875 40.96875 
Q 46.484375 44.53125 46.484375 51.125 
Q 46.484375 57.671875 42.71875 61.234375 
Q 38.96875 64.796875 32.078125 64.796875 
z
M 9.8125 72.90625 
L 32.078125 72.90625 
Q 44.34375 72.90625 50.609375 67.359375 
Q 56.890625 61.8125 56.890625 51.125 
Q 56.890625 40.328125 50.609375 34.8125 
Q 44.34375 29.296875 32.078125 29.296875 
L 19.671875 29.296875 
L 19.671875 0 
L 9.8125 0 
z
" id="DejaVuSans-50"/>
      <path d="M 48.78125 52.59375 
L 48.78125 44.1875 
Q 44.96875 46.296875 41.140625 47.34375 
Q 37.3125 48.390625 33.40625 48.390625 
Q 24.65625 48.390625 19.8125 42.84375 
Q 14.984375 37.3125 14.984375 27.296875 
Q 14.984375 17.28125 19.8125 11.734375 
Q 24.65625 6.203125 33.40625 6.203125 
Q 37.3125 6.203125 41.140625 7.25 
Q 44.96875 8.296875 48.78125 10.40625 
L 48.78125 2.09375 
Q 45.015625 0.34375 40.984375 -0.53125 
Q 36.96875 -1.421875 32.421875 -1.421875 
Q 20.0625 -1.421875 12.78125 6.34375 
Q 5.515625 14.109375 5.515625 27.296875 
Q 5.515625 40.671875 12.859375 48.328125 
Q 20.21875 56 33.015625 56 
Q 37.15625 56 41.109375 55.140625 
Q 45.0625 54.296875 48.78125 52.59375 
z
" id="DejaVuSans-63"/>
     </defs>
     <g transform="translate(95.523438 265.732312)scale(0.1 -0.1)">
      <use xlink:href="#DejaVuSans-50"/>
      <use x="60.287109" xlink:href="#DejaVuSans-72"/>
      <use x="101.369141" xlink:href="#DejaVuSans-65"/>
      <use x="162.892578" xlink:href="#DejaVuSans-64"/>
      <use x="226.369141" xlink:href="#DejaVuSans-69"/>
      <use x="254.152344" xlink:href="#DejaVuSans-63"/>
      <use x="309.132812" xlink:href="#DejaVuSans-74"/>
      <use x="348.341797" xlink:href="#DejaVuSans-69"/>
      <use x="376.125" xlink:href="#DejaVuSans-6f"/>
      <use x="437.306641" xlink:href="#DejaVuSans-6e"/>
     </g>
    </g>
   </g>
  </g>
 </g>
 <defs>
  <clipPath id="pcc3b8b4ea9">
   <rect height="78.268235" width="357.12" x="58.523438" y="10.7"/>
  </clipPath>
  <clipPath id="p29f7de8b35">
   <rect height="78.268235" width="357.12" x="58.523438" y="104.621882"/>
  </clipPath>
  <clipPath id="p925e4d5694">
   <rect height="78.268235" width="357.12" x="58.523438" y="198.543765"/>
  </clipPath>
 </defs>
</svg>
